<svg width="960" height="540" viewBox="0 0 960 540" fill="none" xmlns="http://www.w3.org/2000/svg">
<rect x="0.5" y="0.5" width="959" height="539" fill="white"/>
<rect x="0.5" y="0.5" width="959" height="539" stroke="#CCCCCC"/>
<rect x="289.5" y="248.5" width="381" height="43" stroke="#FF00C8" stroke-dasharray="2 2"/>
<path d="M309.912 270.176C309.912 271.456 309.667 272.528 309.176 273.392C308.685 274.256 307.971 274.907 307.032 275.344C306.104 275.781 304.984 276 303.672 276H300.44V264.576H304.024C305.219 264.576 306.253 264.789 307.128 265.216C308.013 265.643 308.696 266.272 309.176 267.104C309.667 267.925 309.912 268.949 309.912 270.176ZM307.4 270.24C307.4 269.397 307.277 268.704 307.032 268.16C306.787 267.616 306.419 267.216 305.928 266.96C305.448 266.693 304.856 266.56 304.152 266.56H302.856V274H303.896C305.08 274 305.96 273.685 306.536 273.056C307.112 272.427 307.4 271.488 307.4 270.24ZM314.476 267.264V276H312.092V267.264H314.476ZM313.292 263.84C313.644 263.84 313.948 263.925 314.204 264.096C314.46 264.256 314.588 264.56 314.588 265.008C314.588 265.445 314.46 265.749 314.204 265.92C313.948 266.091 313.644 266.176 313.292 266.176C312.929 266.176 312.62 266.091 312.364 265.92C312.118 265.749 311.996 265.445 311.996 265.008C311.996 264.56 312.118 264.256 312.364 264.096C312.62 263.925 312.929 263.84 313.292 263.84ZM320.647 274.256C320.913 274.256 321.169 274.229 321.415 274.176C321.66 274.123 321.905 274.059 322.151 273.984V275.76C321.895 275.867 321.575 275.957 321.191 276.032C320.817 276.117 320.407 276.16 319.959 276.16C319.436 276.16 318.967 276.075 318.551 275.904C318.145 275.733 317.82 275.44 317.575 275.024C317.34 274.597 317.223 274.011 317.223 273.264V269.056H316.087V268.048L317.399 267.248L318.087 265.408H319.607V267.264H322.055V269.056H319.607V273.264C319.607 273.595 319.703 273.845 319.895 274.016C320.087 274.176 320.337 274.256 320.647 274.256ZM330.445 267.264V276H328.061V267.264H330.445ZM329.261 263.84C329.613 263.84 329.917 263.925 330.173 264.096C330.429 264.256 330.557 264.56 330.557 265.008C330.557 265.445 330.429 265.749 330.173 265.92C329.917 266.091 329.613 266.176 329.261 266.176C328.898 266.176 328.589 266.091 328.333 265.92C328.087 265.749 327.965 265.445 327.965 265.008C327.965 264.56 328.087 264.256 328.333 264.096C328.589 263.925 328.898 263.84 329.261 263.84ZM339.032 273.408C339.032 273.995 338.893 274.496 338.616 274.912C338.338 275.317 337.922 275.627 337.368 275.84C336.813 276.053 336.125 276.16 335.304 276.16C334.696 276.16 334.173 276.117 333.736 276.032C333.298 275.957 332.861 275.829 332.424 275.648V273.68C332.893 273.893 333.4 274.069 333.944 274.208C334.488 274.347 334.968 274.416 335.384 274.416C335.853 274.416 336.184 274.347 336.376 274.208C336.578 274.069 336.68 273.888 336.68 273.664C336.68 273.515 336.637 273.381 336.552 273.264C336.477 273.147 336.306 273.013 336.04 272.864C335.773 272.715 335.357 272.523 334.792 272.288C334.248 272.053 333.8 271.824 333.448 271.6C333.096 271.365 332.834 271.088 332.664 270.768C332.493 270.437 332.408 270.027 332.408 269.536C332.408 268.725 332.722 268.117 333.352 267.712C333.981 267.307 334.818 267.104 335.864 267.104C336.408 267.104 336.925 267.157 337.416 267.264C337.906 267.371 338.413 267.547 338.936 267.792L338.216 269.504C337.928 269.376 337.65 269.264 337.384 269.168C337.117 269.072 336.856 268.997 336.6 268.944C336.354 268.891 336.098 268.864 335.832 268.864C335.48 268.864 335.213 268.912 335.032 269.008C334.861 269.104 334.776 269.248 334.776 269.44C334.776 269.579 334.818 269.707 334.904 269.824C335 269.931 335.176 270.048 335.432 270.176C335.698 270.304 336.088 270.475 336.6 270.688C337.101 270.891 337.533 271.104 337.896 271.328C338.258 271.541 338.536 271.813 338.728 272.144C338.93 272.464 339.032 272.885 339.032 273.408ZM348.645 267.104C349.456 267.104 350.149 267.259 350.725 267.568C351.312 267.877 351.765 268.325 352.085 268.912C352.405 269.499 352.565 270.219 352.565 271.072V272.224H346.933C346.954 272.896 347.152 273.424 347.525 273.808C347.909 274.192 348.437 274.384 349.109 274.384C349.674 274.384 350.186 274.331 350.645 274.224C351.104 274.107 351.578 273.931 352.069 273.696V275.536C351.642 275.749 351.189 275.904 350.709 276C350.24 276.107 349.669 276.16 348.997 276.16C348.122 276.16 347.349 276 346.677 275.68C346.005 275.349 345.477 274.853 345.093 274.192C344.709 273.531 344.517 272.699 344.517 271.696C344.517 270.672 344.688 269.824 345.029 269.152C345.381 268.469 345.866 267.957 346.485 267.616C347.104 267.275 347.824 267.104 348.645 267.104ZM348.661 268.8C348.202 268.8 347.818 268.949 347.509 269.248C347.21 269.547 347.034 270.011 346.981 270.64H350.325C350.325 270.288 350.261 269.973 350.133 269.696C350.016 269.419 349.834 269.2 349.589 269.04C349.344 268.88 349.034 268.8 348.661 268.8ZM358.098 267.104C358.909 267.104 359.602 267.259 360.178 267.568C360.765 267.877 361.218 268.325 361.538 268.912C361.858 269.499 362.018 270.219 362.018 271.072V272.224H356.386C356.407 272.896 356.605 273.424 356.978 273.808C357.362 274.192 357.89 274.384 358.562 274.384C359.127 274.384 359.639 274.331 360.098 274.224C360.557 274.107 361.031 273.931 361.522 273.696V275.536C361.095 275.749 360.642 275.904 360.162 276C359.693 276.107 359.122 276.16 358.45 276.16C357.575 276.16 356.802 276 356.13 275.68C355.458 275.349 354.93 274.853 354.546 274.192C354.162 273.531 353.97 272.699 353.97 271.696C353.97 270.672 354.141 269.824 354.482 269.152C354.834 268.469 355.319 267.957 355.938 267.616C356.557 267.275 357.277 267.104 358.098 267.104ZM358.114 268.8C357.655 268.8 357.271 268.949 356.962 269.248C356.663 269.547 356.487 270.011 356.434 270.64H359.778C359.778 270.288 359.714 269.973 359.586 269.696C359.469 269.419 359.287 269.2 359.042 269.04C358.797 268.88 358.487 268.8 358.114 268.8ZM368.911 267.104C369.85 267.104 370.602 267.36 371.167 267.872C371.732 268.373 372.015 269.184 372.015 270.304V276H369.631V270.896C369.631 270.267 369.519 269.797 369.295 269.488C369.071 269.168 368.714 269.008 368.223 269.008C367.498 269.008 367.002 269.259 366.735 269.76C366.468 270.251 366.335 270.96 366.335 271.888V276H363.951V267.264H365.775L366.095 268.384H366.223C366.415 268.085 366.65 267.845 366.927 267.664C367.204 267.472 367.514 267.333 367.855 267.248C368.196 267.152 368.548 267.104 368.911 267.104ZM380.703 276L377.375 267.264H379.871L381.551 272.24C381.615 272.432 381.668 272.635 381.711 272.848C381.764 273.061 381.802 273.269 381.823 273.472C381.855 273.675 381.876 273.861 381.887 274.032H381.951C381.962 273.851 381.983 273.659 382.015 273.456C382.047 273.253 382.084 273.051 382.127 272.848C382.18 272.635 382.239 272.432 382.303 272.24L383.983 267.264H386.479L383.151 276H380.703ZM395.668 271.616C395.668 272.341 395.567 272.987 395.364 273.552C395.172 274.117 394.89 274.597 394.516 274.992C394.154 275.376 393.711 275.669 393.188 275.872C392.666 276.064 392.074 276.16 391.412 276.16C390.804 276.16 390.239 276.064 389.716 275.872C389.204 275.669 388.762 275.376 388.388 274.992C388.015 274.597 387.722 274.117 387.508 273.552C387.306 272.987 387.204 272.341 387.204 271.616C387.204 270.645 387.375 269.829 387.716 269.168C388.058 268.496 388.548 267.984 389.188 267.632C389.828 267.28 390.586 267.104 391.46 267.104C392.282 267.104 393.007 267.28 393.636 267.632C394.266 267.984 394.762 268.496 395.124 269.168C395.487 269.829 395.668 270.645 395.668 271.616ZM389.636 271.616C389.636 272.192 389.695 272.677 389.812 273.072C389.94 273.456 390.138 273.749 390.404 273.952C390.671 274.144 391.018 274.24 391.444 274.24C391.871 274.24 392.212 274.144 392.468 273.952C392.735 273.749 392.927 273.456 393.044 273.072C393.172 272.677 393.236 272.192 393.236 271.616C393.236 271.04 393.172 270.56 393.044 270.176C392.927 269.792 392.735 269.504 392.468 269.312C392.202 269.12 391.855 269.024 391.428 269.024C390.799 269.024 390.34 269.243 390.052 269.68C389.775 270.107 389.636 270.752 389.636 271.616ZM405.575 271.616C405.575 272.341 405.473 272.987 405.271 273.552C405.079 274.117 404.796 274.597 404.423 274.992C404.06 275.376 403.617 275.669 403.095 275.872C402.572 276.064 401.98 276.16 401.319 276.16C400.711 276.16 400.145 276.064 399.623 275.872C399.111 275.669 398.668 275.376 398.295 274.992C397.921 274.597 397.628 274.117 397.415 273.552C397.212 272.987 397.111 272.341 397.111 271.616C397.111 270.645 397.281 269.829 397.623 269.168C397.964 268.496 398.455 267.984 399.095 267.632C399.735 267.28 400.492 267.104 401.367 267.104C402.188 267.104 402.913 267.28 403.543 267.632C404.172 267.984 404.668 268.496 405.031 269.168C405.393 269.829 405.575 270.645 405.575 271.616ZM399.543 271.616C399.543 272.192 399.601 272.677 399.719 273.072C399.847 273.456 400.044 273.749 400.311 273.952C400.577 274.144 400.924 274.24 401.351 274.24C401.777 274.24 402.119 274.144 402.375 273.952C402.641 273.749 402.833 273.456 402.951 273.072C403.079 272.677 403.143 272.192 403.143 271.616C403.143 271.04 403.079 270.56 402.951 270.176C402.833 269.792 402.641 269.504 402.375 269.312C402.108 269.12 401.761 269.024 401.335 269.024C400.705 269.024 400.247 269.243 399.959 269.68C399.681 270.107 399.543 270.752 399.543 271.616ZM412.425 267.104C412.542 267.104 412.681 267.109 412.841 267.12C413.001 267.131 413.129 267.147 413.225 267.168L413.049 269.408C412.974 269.387 412.862 269.371 412.713 269.36C412.574 269.339 412.452 269.328 412.345 269.328C412.036 269.328 411.737 269.371 411.449 269.456C411.161 269.531 410.9 269.653 410.665 269.824C410.441 269.995 410.26 270.224 410.121 270.512C409.993 270.789 409.929 271.136 409.929 271.552V276H407.545V267.264H409.353L409.705 268.736H409.817C409.988 268.437 410.201 268.165 410.457 267.92C410.713 267.675 411.006 267.477 411.337 267.328C411.678 267.179 412.041 267.104 412.425 267.104ZM417.195 266.672C417.195 267.003 417.184 267.328 417.163 267.648C417.141 267.968 417.12 268.219 417.099 268.4H417.195C417.429 268.037 417.744 267.733 418.139 267.488C418.533 267.232 419.045 267.104 419.675 267.104C420.656 267.104 421.451 267.488 422.059 268.256C422.667 269.013 422.97 270.133 422.97 271.616C422.97 272.608 422.827 273.445 422.539 274.128C422.261 274.8 421.872 275.307 421.371 275.648C420.869 275.989 420.283 276.16 419.611 276.16C418.971 276.16 418.464 276.048 418.091 275.824C417.728 275.589 417.429 275.328 417.195 275.04H417.035L416.635 276H414.811V263.84H417.195V266.672ZM418.907 269.008C418.491 269.008 418.16 269.093 417.915 269.264C417.669 269.435 417.488 269.696 417.371 270.048C417.264 270.389 417.205 270.821 417.195 271.344V271.6C417.195 272.443 417.317 273.093 417.562 273.552C417.819 274 418.277 274.224 418.939 274.224C419.429 274.224 419.819 274 420.107 273.552C420.395 273.093 420.539 272.437 420.539 271.584C420.539 270.731 420.389 270.091 420.091 269.664C419.803 269.227 419.408 269.008 418.907 269.008ZM428.536 267.104C429.346 267.104 430.04 267.259 430.616 267.568C431.202 267.877 431.656 268.325 431.976 268.912C432.296 269.499 432.456 270.219 432.456 271.072V272.224H426.824C426.845 272.896 427.042 273.424 427.416 273.808C427.8 274.192 428.328 274.384 429 274.384C429.565 274.384 430.077 274.331 430.536 274.224C430.994 274.107 431.469 273.931 431.96 273.696V275.536C431.533 275.749 431.08 275.904 430.6 276C430.13 276.107 429.56 276.16 428.888 276.16C428.013 276.16 427.24 276 426.568 275.68C425.896 275.349 425.368 274.853 424.984 274.192C424.6 273.531 424.408 272.699 424.408 271.696C424.408 270.672 424.578 269.824 424.92 269.152C425.272 268.469 425.757 267.957 426.376 267.616C426.994 267.275 427.714 267.104 428.536 267.104ZM428.552 268.8C428.093 268.8 427.709 268.949 427.4 269.248C427.101 269.547 426.925 270.011 426.872 270.64H430.216C430.216 270.288 430.152 269.973 430.024 269.696C429.906 269.419 429.725 269.2 429.48 269.04C429.234 268.88 428.925 268.8 428.552 268.8ZM437.989 267.104C438.799 267.104 439.493 267.259 440.069 267.568C440.655 267.877 441.109 268.325 441.429 268.912C441.749 269.499 441.909 270.219 441.909 271.072V272.224H436.277C436.298 272.896 436.495 273.424 436.869 273.808C437.253 274.192 437.781 274.384 438.453 274.384C439.018 274.384 439.53 274.331 439.989 274.224C440.447 274.107 440.922 273.931 441.413 273.696V275.536C440.986 275.749 440.533 275.904 440.053 276C439.583 276.107 439.013 276.16 438.341 276.16C437.466 276.16 436.693 276 436.021 275.68C435.349 275.349 434.821 274.853 434.437 274.192C434.053 273.531 433.861 272.699 433.861 271.696C433.861 270.672 434.031 269.824 434.373 269.152C434.725 268.469 435.21 267.957 435.829 267.616C436.447 267.275 437.167 267.104 437.989 267.104ZM438.005 268.8C437.546 268.8 437.162 268.949 436.853 269.248C436.554 269.547 436.378 270.011 436.325 270.64H439.669C439.669 270.288 439.605 269.973 439.477 269.696C439.359 269.419 439.178 269.2 438.933 269.04C438.687 268.88 438.378 268.8 438.005 268.8ZM446.226 276H443.842V263.84H446.226V276ZM451.485 276.16C450.514 276.16 449.719 275.781 449.101 275.024C448.493 274.256 448.189 273.131 448.189 271.648C448.189 270.155 448.498 269.024 449.117 268.256C449.735 267.488 450.546 267.104 451.549 267.104C451.965 267.104 452.333 267.163 452.653 267.28C452.973 267.387 453.245 267.536 453.469 267.728C453.703 267.92 453.901 268.139 454.061 268.384H454.141C454.109 268.213 454.071 267.968 454.029 267.648C453.986 267.317 453.965 266.981 453.965 266.64V263.84H456.349V276H454.525L454.061 274.864H453.965C453.815 275.099 453.623 275.317 453.389 275.52C453.165 275.712 452.898 275.867 452.589 275.984C452.279 276.101 451.911 276.16 451.485 276.16ZM452.317 274.256C452.978 274.256 453.442 274.064 453.709 273.68C453.975 273.285 454.114 272.699 454.125 271.92V271.664C454.125 270.811 453.991 270.16 453.725 269.712C453.469 269.264 452.989 269.04 452.285 269.04C451.762 269.04 451.351 269.269 451.053 269.728C450.754 270.176 450.605 270.827 450.605 271.68C450.605 272.533 450.754 273.179 451.053 273.616C451.351 274.043 451.773 274.256 452.317 274.256ZM465.078 276L461.75 267.264H464.246L465.926 272.24C465.99 272.432 466.043 272.635 466.086 272.848C466.139 273.061 466.177 273.269 466.198 273.472C466.23 273.675 466.251 273.861 466.262 274.032H466.326C466.337 273.851 466.358 273.659 466.39 273.456C466.422 273.253 466.459 273.051 466.502 272.848C466.555 272.635 466.614 272.432 466.678 272.24L468.358 267.264H470.854L467.526 276H465.078ZM475.691 267.088C476.865 267.088 477.761 267.344 478.379 267.856C479.009 268.357 479.323 269.131 479.323 270.176V276H477.659L477.195 274.816H477.131C476.886 275.125 476.63 275.381 476.363 275.584C476.107 275.787 475.809 275.931 475.467 276.016C475.137 276.112 474.726 276.16 474.235 276.16C473.723 276.16 473.259 276.064 472.843 275.872C472.438 275.669 472.118 275.365 471.883 274.96C471.649 274.544 471.531 274.021 471.531 273.392C471.531 272.464 471.857 271.781 472.507 271.344C473.158 270.896 474.134 270.651 475.435 270.608L476.955 270.56V270.176C476.955 269.717 476.833 269.381 476.587 269.168C476.353 268.955 476.022 268.848 475.595 268.848C475.169 268.848 474.753 268.912 474.347 269.04C473.942 269.157 473.537 269.307 473.131 269.488L472.347 267.872C472.817 267.627 473.334 267.435 473.899 267.296C474.475 267.157 475.073 267.088 475.691 267.088ZM476.027 271.984C475.259 272.005 474.726 272.144 474.427 272.4C474.129 272.656 473.979 272.992 473.979 273.408C473.979 273.771 474.086 274.032 474.299 274.192C474.513 274.341 474.79 274.416 475.131 274.416C475.643 274.416 476.075 274.267 476.427 273.968C476.779 273.659 476.955 273.227 476.955 272.672V271.952L476.027 271.984ZM486.724 267.104C487.662 267.104 488.414 267.36 488.98 267.872C489.545 268.373 489.828 269.184 489.828 270.304V276H487.444V270.896C487.444 270.267 487.332 269.797 487.108 269.488C486.884 269.168 486.526 269.008 486.036 269.008C485.31 269.008 484.814 269.259 484.548 269.76C484.281 270.251 484.148 270.96 484.148 271.888V276H481.764V267.264H483.588L483.908 268.384H484.036C484.228 268.085 484.462 267.845 484.74 267.664C485.017 267.472 485.326 267.333 485.668 267.248C486.009 267.152 486.361 267.104 486.724 267.104ZM500.036 267.104C500.846 267.104 501.54 267.259 502.116 267.568C502.702 267.877 503.156 268.325 503.476 268.912C503.796 269.499 503.956 270.219 503.956 271.072V272.224H498.324C498.345 272.896 498.542 273.424 498.916 273.808C499.3 274.192 499.828 274.384 500.5 274.384C501.065 274.384 501.577 274.331 502.036 274.224C502.494 274.107 502.969 273.931 503.46 273.696V275.536C503.033 275.749 502.58 275.904 502.1 276C501.63 276.107 501.06 276.16 500.388 276.16C499.513 276.16 498.74 276 498.068 275.68C497.396 275.349 496.868 274.853 496.484 274.192C496.1 273.531 495.908 272.699 495.908 271.696C495.908 270.672 496.078 269.824 496.42 269.152C496.772 268.469 497.257 267.957 497.876 267.616C498.494 267.275 499.214 267.104 500.036 267.104ZM500.052 268.8C499.593 268.8 499.209 268.949 498.9 269.248C498.601 269.547 498.425 270.011 498.372 270.64H501.716C501.716 270.288 501.652 269.973 501.524 269.696C501.406 269.419 501.225 269.2 500.98 269.04C500.734 268.88 500.425 268.8 500.052 268.8ZM509.489 267.104C510.299 267.104 510.993 267.259 511.569 267.568C512.155 267.877 512.609 268.325 512.929 268.912C513.249 269.499 513.409 270.219 513.409 271.072V272.224H507.777C507.798 272.896 507.995 273.424 508.369 273.808C508.753 274.192 509.281 274.384 509.953 274.384C510.518 274.384 511.03 274.331 511.489 274.224C511.947 274.107 512.422 273.931 512.913 273.696V275.536C512.486 275.749 512.033 275.904 511.553 276C511.083 276.107 510.513 276.16 509.841 276.16C508.966 276.16 508.193 276 507.521 275.68C506.849 275.349 506.321 274.853 505.937 274.192C505.553 273.531 505.361 272.699 505.361 271.696C505.361 270.672 505.531 269.824 505.873 269.152C506.225 268.469 506.71 267.957 507.329 267.616C507.947 267.275 508.667 267.104 509.489 267.104ZM509.505 268.8C509.046 268.8 508.662 268.949 508.353 269.248C508.054 269.547 507.878 270.011 507.825 270.64H511.169C511.169 270.288 511.105 269.973 510.977 269.696C510.859 269.419 510.678 269.2 510.433 269.04C510.187 268.88 509.878 268.8 509.505 268.8ZM520.302 267.104C521.24 267.104 521.992 267.36 522.558 267.872C523.123 268.373 523.406 269.184 523.406 270.304V276H521.022V270.896C521.022 270.267 520.91 269.797 520.686 269.488C520.462 269.168 520.104 269.008 519.614 269.008C518.888 269.008 518.392 269.259 518.126 269.76C517.859 270.251 517.726 270.96 517.726 271.888V276H515.342V267.264H517.166L517.486 268.384H517.614C517.806 268.085 518.04 267.845 518.318 267.664C518.595 267.472 518.904 267.333 519.246 267.248C519.587 267.152 519.939 267.104 520.302 267.104ZM532.59 276H530.206V264.576H536.75V266.56H532.59V269.504H536.462V271.488H532.59V276ZM546.731 271.616C546.731 272.341 546.63 272.987 546.427 273.552C546.235 274.117 545.952 274.597 545.579 274.992C545.216 275.376 544.774 275.669 544.251 275.872C543.728 276.064 543.136 276.16 542.475 276.16C541.867 276.16 541.302 276.064 540.779 275.872C540.267 275.669 539.824 275.376 539.451 274.992C539.078 274.597 538.784 274.117 538.571 273.552C538.368 272.987 538.267 272.341 538.267 271.616C538.267 270.645 538.438 269.829 538.779 269.168C539.12 268.496 539.611 267.984 540.251 267.632C540.891 267.28 541.648 267.104 542.523 267.104C543.344 267.104 544.07 267.28 544.699 267.632C545.328 267.984 545.824 268.496 546.187 269.168C546.55 269.829 546.731 270.645 546.731 271.616ZM540.699 271.616C540.699 272.192 540.758 272.677 540.875 273.072C541.003 273.456 541.2 273.749 541.467 273.952C541.734 274.144 542.08 274.24 542.507 274.24C542.934 274.24 543.275 274.144 543.531 273.952C543.798 273.749 543.99 273.456 544.107 273.072C544.235 272.677 544.299 272.192 544.299 271.616C544.299 271.04 544.235 270.56 544.107 270.176C543.99 269.792 543.798 269.504 543.531 269.312C543.264 269.12 542.918 269.024 542.491 269.024C541.862 269.024 541.403 269.243 541.115 269.68C540.838 270.107 540.699 270.752 540.699 271.616ZM553.581 267.104C553.698 267.104 553.837 267.109 553.997 267.12C554.157 267.131 554.285 267.147 554.381 267.168L554.205 269.408C554.13 269.387 554.018 269.371 553.869 269.36C553.73 269.339 553.608 269.328 553.501 269.328C553.192 269.328 552.893 269.371 552.605 269.456C552.317 269.531 552.056 269.653 551.821 269.824C551.597 269.995 551.416 270.224 551.277 270.512C551.149 270.789 551.085 271.136 551.085 271.552V276H548.701V267.264H550.509L550.861 268.736H550.973C551.144 268.437 551.357 268.165 551.613 267.92C551.869 267.675 552.162 267.477 552.493 267.328C552.834 267.179 553.197 267.104 553.581 267.104ZM566.223 267.104C567.215 267.104 567.961 267.36 568.463 267.872C568.975 268.373 569.231 269.184 569.231 270.304V276H566.847V270.896C566.847 270.267 566.74 269.797 566.527 269.488C566.313 269.168 565.983 269.008 565.535 269.008C564.905 269.008 564.457 269.232 564.191 269.68C563.924 270.128 563.791 270.773 563.791 271.616V276H561.407V270.896C561.407 270.48 561.359 270.133 561.263 269.856C561.167 269.579 561.023 269.371 560.831 269.232C560.639 269.083 560.393 269.008 560.095 269.008C559.657 269.008 559.311 269.12 559.055 269.344C558.799 269.568 558.617 269.893 558.511 270.32C558.404 270.747 558.351 271.269 558.351 271.888V276H555.967V267.264H557.791L558.111 268.384H558.239C558.42 268.085 558.644 267.845 558.911 267.664C559.177 267.472 559.471 267.333 559.791 267.248C560.121 267.152 560.452 267.104 560.783 267.104C561.423 267.104 561.967 267.211 562.415 267.424C562.863 267.627 563.204 267.947 563.439 268.384H563.647C563.913 267.936 564.281 267.611 564.751 267.408C565.231 267.205 565.721 267.104 566.223 267.104ZM578.418 276H576.034V264.576H582.578V266.56H578.418V269.504H582.29V271.488H578.418V276ZM587.007 267.264V276H584.623V267.264H587.007ZM585.823 263.84C586.175 263.84 586.479 263.925 586.735 264.096C586.991 264.256 587.119 264.56 587.119 265.008C587.119 265.445 586.991 265.749 586.735 265.92C586.479 266.091 586.175 266.176 585.823 266.176C585.46 266.176 585.151 266.091 584.895 265.92C584.65 265.749 584.527 265.445 584.527 265.008C584.527 264.56 584.65 264.256 584.895 264.096C585.151 263.925 585.46 263.84 585.823 263.84ZM593.098 267.104C593.909 267.104 594.602 267.259 595.178 267.568C595.765 267.877 596.218 268.325 596.538 268.912C596.858 269.499 597.018 270.219 597.018 271.072V272.224H591.386C591.407 272.896 591.605 273.424 591.978 273.808C592.362 274.192 592.89 274.384 593.562 274.384C594.127 274.384 594.639 274.331 595.098 274.224C595.557 274.107 596.031 273.931 596.522 273.696V275.536C596.095 275.749 595.642 275.904 595.162 276C594.693 276.107 594.122 276.16 593.45 276.16C592.575 276.16 591.802 276 591.13 275.68C590.458 275.349 589.93 274.853 589.546 274.192C589.162 273.531 588.97 272.699 588.97 271.696C588.97 270.672 589.141 269.824 589.482 269.152C589.834 268.469 590.319 267.957 590.938 267.616C591.557 267.275 592.277 267.104 593.098 267.104ZM593.114 268.8C592.655 268.8 592.271 268.949 591.962 269.248C591.663 269.547 591.487 270.011 591.434 270.64H594.778C594.778 270.288 594.714 269.973 594.586 269.696C594.469 269.419 594.287 269.2 594.042 269.04C593.797 268.88 593.487 268.8 593.114 268.8ZM601.335 276H598.951V263.84H601.335V276ZM606.594 276.16C605.623 276.16 604.829 275.781 604.21 275.024C603.602 274.256 603.298 273.131 603.298 271.648C603.298 270.155 603.607 269.024 604.226 268.256C604.845 267.488 605.655 267.104 606.658 267.104C607.074 267.104 607.442 267.163 607.762 267.28C608.082 267.387 608.354 267.536 608.578 267.728C608.813 267.92 609.01 268.139 609.17 268.384H609.25C609.218 268.213 609.181 267.968 609.138 267.648C609.095 267.317 609.074 266.981 609.074 266.64V263.84H611.458V276H609.634L609.17 274.864H609.074C608.925 275.099 608.733 275.317 608.498 275.52C608.274 275.712 608.007 275.867 607.698 275.984C607.389 276.101 607.021 276.16 606.594 276.16ZM607.426 274.256C608.087 274.256 608.551 274.064 608.818 273.68C609.085 273.285 609.223 272.699 609.234 271.92V271.664C609.234 270.811 609.101 270.16 608.834 269.712C608.578 269.264 608.098 269.04 607.394 269.04C606.871 269.04 606.461 269.269 606.162 269.728C605.863 270.176 605.714 270.827 605.714 271.68C605.714 272.533 605.863 273.179 606.162 273.616C606.461 274.043 606.882 274.256 607.426 274.256ZM618.299 276V264.576H620.715V274H625.355V276H618.299ZM630.738 267.088C631.912 267.088 632.808 267.344 633.426 267.856C634.056 268.357 634.37 269.131 634.37 270.176V276H632.706L632.242 274.816H632.178C631.933 275.125 631.677 275.381 631.41 275.584C631.154 275.787 630.856 275.931 630.514 276.016C630.184 276.112 629.773 276.16 629.282 276.16C628.77 276.16 628.306 276.064 627.89 275.872C627.485 275.669 627.165 275.365 626.93 274.96C626.696 274.544 626.578 274.021 626.578 273.392C626.578 272.464 626.904 271.781 627.554 271.344C628.205 270.896 629.181 270.651 630.482 270.608L632.002 270.56V270.176C632.002 269.717 631.88 269.381 631.634 269.168C631.4 268.955 631.069 268.848 630.642 268.848C630.216 268.848 629.8 268.912 629.394 269.04C628.989 269.157 628.584 269.307 628.178 269.488L627.394 267.872C627.864 267.627 628.381 267.435 628.946 267.296C629.522 267.157 630.12 267.088 630.738 267.088ZM631.074 271.984C630.306 272.005 629.773 272.144 629.474 272.4C629.176 272.656 629.026 272.992 629.026 273.408C629.026 273.771 629.133 274.032 629.346 274.192C629.56 274.341 629.837 274.416 630.178 274.416C630.69 274.416 631.122 274.267 631.474 273.968C631.826 273.659 632.002 273.227 632.002 272.672V271.952L631.074 271.984ZM639.195 266.672C639.195 267.003 639.184 267.328 639.163 267.648C639.141 267.968 639.12 268.219 639.099 268.4H639.195C639.429 268.037 639.744 267.733 640.139 267.488C640.533 267.232 641.045 267.104 641.675 267.104C642.656 267.104 643.451 267.488 644.059 268.256C644.667 269.013 644.97 270.133 644.97 271.616C644.97 272.608 644.827 273.445 644.539 274.128C644.261 274.8 643.872 275.307 643.371 275.648C642.869 275.989 642.283 276.16 641.611 276.16C640.971 276.16 640.464 276.048 640.091 275.824C639.728 275.589 639.429 275.328 639.195 275.04H639.035L638.635 276H636.811V263.84H639.195V266.672ZM640.907 269.008C640.491 269.008 640.16 269.093 639.915 269.264C639.669 269.435 639.488 269.696 639.371 270.048C639.264 270.389 639.205 270.821 639.195 271.344V271.6C639.195 272.443 639.317 273.093 639.562 273.552C639.819 274 640.277 274.224 640.939 274.224C641.429 274.224 641.819 274 642.107 273.552C642.395 273.093 642.539 272.437 642.539 271.584C642.539 270.731 642.389 270.091 642.091 269.664C641.803 269.227 641.408 269.008 640.907 269.008ZM650.536 267.104C651.346 267.104 652.04 267.259 652.616 267.568C653.202 267.877 653.656 268.325 653.976 268.912C654.296 269.499 654.456 270.219 654.456 271.072V272.224H648.824C648.845 272.896 649.042 273.424 649.416 273.808C649.8 274.192 650.328 274.384 651 274.384C651.565 274.384 652.077 274.331 652.536 274.224C652.994 274.107 653.469 273.931 653.96 273.696V275.536C653.533 275.749 653.08 275.904 652.6 276C652.13 276.107 651.56 276.16 650.888 276.16C650.013 276.16 649.24 276 648.568 275.68C647.896 275.349 647.368 274.853 646.984 274.192C646.6 273.531 646.408 272.699 646.408 271.696C646.408 270.672 646.578 269.824 646.92 269.152C647.272 268.469 647.757 267.957 648.376 267.616C648.994 267.275 649.714 267.104 650.536 267.104ZM650.552 268.8C650.093 268.8 649.709 268.949 649.4 269.248C649.101 269.547 648.925 270.011 648.872 270.64H652.216C652.216 270.288 652.152 269.973 652.024 269.696C651.906 269.419 651.725 269.2 651.48 269.04C651.234 268.88 650.925 268.8 650.552 268.8ZM658.773 276H656.389V263.84H658.773V276Z" fill="#001A40"/>
<rect x="209" y="254" width="32" height="32" rx="16" fill="#42144F"/>
<path d="M227.502 264.368V276.5H225V266.888L222.336 268.526L221.22 266.798L225.252 264.368H227.502Z" fill="white"/>
<path d="M241 269.948L286.949 269.8" stroke="#42144F" stroke-width="2" stroke-linecap="square" stroke-linejoin="bevel"/>
</svg>
