<svg width="960" height="540" viewBox="0 0 960 540" fill="none" xmlns="http://www.w3.org/2000/svg">
<rect x="0.5" y="0.5" width="959" height="539" fill="white"/>
<rect x="0.5" y="0.5" width="959" height="539" stroke="#CCCCCC"/>
<path d="M321.904 263.976C323.568 263.976 324.901 264.365 325.904 265.144C326.917 265.912 327.424 267.341 327.424 269.432C327.424 271.469 326.917 272.909 325.904 273.752C324.901 274.584 323.68 275 322.24 275H319.6V263.976H321.904ZM321.12 265.192V273.8H322.352C323.376 273.8 324.208 273.485 324.848 272.856C325.488 272.227 325.808 271.085 325.808 269.432C325.808 268.269 325.643 267.379 325.312 266.76C324.981 266.131 324.56 265.715 324.048 265.512C323.536 265.299 322.933 265.192 322.24 265.192H321.12ZM331.289 266.568V275H329.817V266.568H331.289ZM330.537 262.52C330.846 262.52 331.097 262.616 331.289 262.808C331.481 263 331.577 263.24 331.577 263.528C331.577 263.816 331.481 264.056 331.289 264.248C331.097 264.429 330.846 264.52 330.537 264.52C330.238 264.52 329.993 264.429 329.801 264.248C329.609 264.056 329.513 263.816 329.513 263.528C329.513 263.24 329.609 263 329.801 262.808C329.993 262.616 330.238 262.52 330.537 262.52ZM338.589 274.616C338.034 275 337.405 275.192 336.701 275.192C335.986 275.192 335.426 274.989 335.021 274.584C334.626 274.168 334.429 273.571 334.429 272.792V267.704H332.957V266.568H334.429V264.664L335.901 264.488V266.568H337.901L337.741 267.704H335.901V272.728C335.901 273.165 335.975 273.485 336.125 273.688C336.285 273.88 336.546 273.976 336.909 273.976C337.239 273.976 337.613 273.864 338.029 273.64L338.589 274.616ZM345.82 266.568V275H344.348V266.568H345.82ZM345.068 262.52C345.377 262.52 345.628 262.616 345.82 262.808C346.012 263 346.108 263.24 346.108 263.528C346.108 263.816 346.012 264.056 345.82 264.248C345.628 264.429 345.377 264.52 345.068 264.52C344.769 264.52 344.524 264.429 344.332 264.248C344.14 264.056 344.044 263.816 344.044 263.528C344.044 263.24 344.14 263 344.332 262.808C344.524 262.616 344.769 262.52 345.068 262.52ZM351.152 266.376C351.728 266.376 352.245 266.456 352.704 266.616C353.162 266.776 353.6 267.016 354.016 267.336L353.392 268.264C353.008 268.019 352.64 267.837 352.288 267.72C351.946 267.603 351.584 267.544 351.2 267.544C350.72 267.544 350.341 267.645 350.064 267.848C349.786 268.04 349.648 268.307 349.648 268.648C349.648 268.989 349.776 269.256 350.032 269.448C350.298 269.64 350.773 269.827 351.456 270.008C352.394 270.243 353.093 270.563 353.552 270.968C354.021 271.373 354.256 271.928 354.256 272.632C354.256 273.464 353.93 274.099 353.28 274.536C352.64 274.973 351.856 275.192 350.928 275.192C349.648 275.192 348.586 274.824 347.744 274.088L348.528 273.192C349.242 273.736 350.032 274.008 350.896 274.008C351.45 274.008 351.888 273.896 352.208 273.672C352.538 273.437 352.704 273.123 352.704 272.728C352.704 272.44 352.645 272.211 352.528 272.04C352.41 271.859 352.208 271.704 351.92 271.576C351.632 271.437 351.21 271.293 350.656 271.144C349.76 270.909 349.109 270.595 348.704 270.2C348.309 269.805 348.112 269.304 348.112 268.696C348.112 268.259 348.24 267.864 348.496 267.512C348.762 267.149 349.125 266.872 349.584 266.68C350.053 266.477 350.576 266.376 351.152 266.376ZM366.935 270.536C366.935 270.781 366.924 271.032 366.903 271.288H361.527C361.591 272.216 361.826 272.899 362.231 273.336C362.636 273.773 363.159 273.992 363.799 273.992C364.204 273.992 364.578 273.933 364.919 273.816C365.26 273.699 365.618 273.512 365.991 273.256L366.631 274.136C365.735 274.84 364.754 275.192 363.687 275.192C362.514 275.192 361.596 274.808 360.935 274.04C360.284 273.272 359.959 272.216 359.959 270.872C359.959 269.997 360.098 269.224 360.375 268.552C360.663 267.869 361.068 267.336 361.591 266.952C362.124 266.568 362.748 266.376 363.463 266.376C364.583 266.376 365.442 266.744 366.039 267.48C366.636 268.216 366.935 269.235 366.935 270.536ZM365.479 270.104C365.479 269.272 365.314 268.637 364.983 268.2C364.652 267.763 364.156 267.544 363.495 267.544C362.29 267.544 361.634 268.429 361.527 270.2H365.479V270.104ZM375.654 270.536C375.654 270.781 375.643 271.032 375.622 271.288H370.246C370.31 272.216 370.544 272.899 370.95 273.336C371.355 273.773 371.878 273.992 372.518 273.992C372.923 273.992 373.296 273.933 373.638 273.816C373.979 273.699 374.336 273.512 374.71 273.256L375.35 274.136C374.454 274.84 373.472 275.192 372.406 275.192C371.232 275.192 370.315 274.808 369.654 274.04C369.003 273.272 368.678 272.216 368.678 270.872C368.678 269.997 368.816 269.224 369.094 268.552C369.382 267.869 369.787 267.336 370.31 266.952C370.843 266.568 371.467 266.376 372.182 266.376C373.302 266.376 374.16 266.744 374.758 267.48C375.355 268.216 375.654 269.235 375.654 270.536ZM374.198 270.104C374.198 269.272 374.032 268.637 373.702 268.2C373.371 267.763 372.875 267.544 372.214 267.544C371.008 267.544 370.352 268.429 370.246 270.2H374.198V270.104ZM381.972 266.376C382.74 266.376 383.338 266.605 383.764 267.064C384.202 267.523 384.42 268.152 384.42 268.952V275H382.948V269.16C382.948 268.563 382.836 268.141 382.612 267.896C382.388 267.651 382.058 267.528 381.62 267.528C381.172 267.528 380.778 267.656 380.436 267.912C380.095 268.168 379.775 268.536 379.476 269.016V275H378.004V266.568H379.268L379.396 267.816C379.695 267.368 380.063 267.016 380.5 266.76C380.948 266.504 381.439 266.376 381.972 266.376ZM397.806 266.568L394.942 275H393.166L390.254 266.568H391.854L394.062 273.688L396.254 266.568H397.806ZM402.594 266.376C403.778 266.376 404.696 266.771 405.346 267.56C406.008 268.349 406.338 269.421 406.338 270.776C406.338 271.651 406.189 272.424 405.89 273.096C405.592 273.757 405.16 274.275 404.594 274.648C404.029 275.011 403.357 275.192 402.578 275.192C401.394 275.192 400.472 274.797 399.81 274.008C399.149 273.219 398.818 272.147 398.818 270.792C398.818 269.917 398.968 269.149 399.266 268.488C399.565 267.816 399.997 267.299 400.562 266.936C401.128 266.563 401.805 266.376 402.594 266.376ZM402.594 267.56C401.133 267.56 400.402 268.637 400.402 270.792C400.402 272.936 401.128 274.008 402.578 274.008C404.029 274.008 404.754 272.931 404.754 270.776C404.754 268.632 404.034 267.56 402.594 267.56ZM411.938 266.376C413.122 266.376 414.039 266.771 414.69 267.56C415.351 268.349 415.682 269.421 415.682 270.776C415.682 271.651 415.533 272.424 415.234 273.096C414.935 273.757 414.503 274.275 413.938 274.648C413.373 275.011 412.701 275.192 411.922 275.192C410.738 275.192 409.815 274.797 409.154 274.008C408.493 273.219 408.162 272.147 408.162 270.792C408.162 269.917 408.311 269.149 408.61 268.488C408.909 267.816 409.341 267.299 409.906 266.936C410.471 266.563 411.149 266.376 411.938 266.376ZM411.938 267.56C410.477 267.56 409.746 268.637 409.746 270.792C409.746 272.936 410.471 274.008 411.922 274.008C413.373 274.008 414.098 272.931 414.098 270.776C414.098 268.632 413.378 267.56 411.938 267.56ZM421.778 266.376C422.076 266.376 422.354 266.408 422.61 266.472L422.338 267.912C422.082 267.848 421.836 267.816 421.602 267.816C421.079 267.816 420.658 268.008 420.338 268.392C420.018 268.776 419.767 269.373 419.586 270.184V275H418.114V266.568H419.378L419.522 268.28C419.746 267.651 420.05 267.176 420.434 266.856C420.818 266.536 421.266 266.376 421.778 266.376ZM428.142 266.376C429.102 266.376 429.864 266.765 430.43 267.544C430.995 268.312 431.278 269.389 431.278 270.776C431.278 271.651 431.144 272.424 430.878 273.096C430.611 273.757 430.227 274.275 429.726 274.648C429.224 275.011 428.638 275.192 427.966 275.192C427.08 275.192 426.334 274.819 425.726 274.072L425.582 275H424.286V263.176L425.758 263V267.624C426.366 266.792 427.16 266.376 428.142 266.376ZM427.614 274.024C428.264 274.024 428.771 273.763 429.134 273.24C429.507 272.707 429.694 271.885 429.694 270.776C429.694 269.635 429.523 268.813 429.182 268.312C428.84 267.8 428.355 267.544 427.726 267.544C426.979 267.544 426.323 267.981 425.758 268.856V272.888C425.982 273.24 426.254 273.517 426.574 273.72C426.904 273.923 427.251 274.024 427.614 274.024ZM440.154 270.536C440.154 270.781 440.143 271.032 440.122 271.288H434.746C434.81 272.216 435.044 272.899 435.45 273.336C435.855 273.773 436.378 273.992 437.018 273.992C437.423 273.992 437.796 273.933 438.138 273.816C438.479 273.699 438.836 273.512 439.21 273.256L439.85 274.136C438.954 274.84 437.972 275.192 436.906 275.192C435.732 275.192 434.815 274.808 434.154 274.04C433.503 273.272 433.178 272.216 433.178 270.872C433.178 269.997 433.316 269.224 433.594 268.552C433.882 267.869 434.287 267.336 434.81 266.952C435.343 266.568 435.967 266.376 436.682 266.376C437.802 266.376 438.66 266.744 439.258 267.48C439.855 268.216 440.154 269.235 440.154 270.536ZM438.698 270.104C438.698 269.272 438.532 268.637 438.202 268.2C437.871 267.763 437.375 267.544 436.714 267.544C435.508 267.544 434.852 268.429 434.746 270.2H438.698V270.104ZM448.872 270.536C448.872 270.781 448.862 271.032 448.84 271.288H443.464C443.528 272.216 443.763 272.899 444.168 273.336C444.574 273.773 445.096 273.992 445.736 273.992C446.142 273.992 446.515 273.933 446.856 273.816C447.198 273.699 447.555 273.512 447.928 273.256L448.568 274.136C447.672 274.84 446.691 275.192 445.624 275.192C444.451 275.192 443.534 274.808 442.872 274.04C442.222 273.272 441.896 272.216 441.896 270.872C441.896 269.997 442.035 269.224 442.312 268.552C442.6 267.869 443.006 267.336 443.528 266.952C444.062 266.568 444.686 266.376 445.4 266.376C446.52 266.376 447.379 266.744 447.976 267.48C448.574 268.216 448.872 269.235 448.872 270.536ZM447.416 270.104C447.416 269.272 447.251 268.637 446.92 268.2C446.59 267.763 446.094 267.544 445.432 267.544C444.227 267.544 443.571 268.429 443.464 270.2H447.416V270.104ZM452.903 275.192C452.359 275.192 451.927 275.032 451.607 274.712C451.298 274.381 451.143 273.923 451.143 273.336V263.176L452.615 263V273.304C452.615 273.539 452.652 273.709 452.727 273.816C452.812 273.923 452.951 273.976 453.143 273.976C453.346 273.976 453.527 273.944 453.687 273.88L454.071 274.904C453.719 275.096 453.33 275.192 452.903 275.192ZM462.361 263.176V275H461.065L460.921 273.832C460.643 274.259 460.297 274.595 459.881 274.84C459.465 275.075 459.001 275.192 458.489 275.192C457.486 275.192 456.702 274.797 456.137 274.008C455.582 273.219 455.305 272.157 455.305 270.824C455.305 269.96 455.438 269.192 455.705 268.52C455.971 267.848 456.355 267.325 456.857 266.952C457.358 266.568 457.945 266.376 458.617 266.376C459.481 266.376 460.238 266.723 460.889 267.416V263L462.361 263.176ZM458.809 274.024C459.257 274.024 459.641 273.923 459.961 273.72C460.281 273.507 460.59 273.192 460.889 272.776V268.648C460.611 268.285 460.313 268.013 459.993 267.832C459.683 267.64 459.331 267.544 458.937 267.544C458.286 267.544 457.779 267.816 457.417 268.36C457.065 268.904 456.889 269.715 456.889 270.792C456.889 271.88 457.054 272.691 457.385 273.224C457.715 273.757 458.19 274.024 458.809 274.024ZM475.821 266.568L472.957 275H471.181L468.269 266.568H469.869L472.077 273.688L474.269 266.568H475.821ZM482.934 273.032C482.934 273.373 482.993 273.629 483.11 273.8C483.228 273.96 483.404 274.083 483.638 274.168L483.302 275.192C482.865 275.139 482.513 275.016 482.246 274.824C481.98 274.632 481.782 274.333 481.654 273.928C481.089 274.771 480.252 275.192 479.142 275.192C478.31 275.192 477.654 274.957 477.174 274.488C476.694 274.019 476.454 273.405 476.454 272.648C476.454 271.752 476.774 271.064 477.414 270.584C478.065 270.104 478.982 269.864 480.166 269.864H481.462V269.24C481.462 268.643 481.318 268.216 481.03 267.96C480.742 267.704 480.3 267.576 479.702 267.576C479.084 267.576 478.326 267.725 477.43 268.024L477.062 266.952C478.108 266.568 479.078 266.376 479.974 266.376C480.966 266.376 481.708 266.621 482.198 267.112C482.689 267.592 482.934 268.28 482.934 269.176V273.032ZM479.478 274.088C480.321 274.088 480.982 273.651 481.462 272.776V270.84H480.358C478.801 270.84 478.022 271.416 478.022 272.568C478.022 273.069 478.145 273.448 478.39 273.704C478.636 273.96 478.998 274.088 479.478 274.088ZM489.926 266.376C490.694 266.376 491.291 266.605 491.718 267.064C492.155 267.523 492.374 268.152 492.374 268.952V275H490.902V269.16C490.902 268.563 490.79 268.141 490.566 267.896C490.342 267.651 490.011 267.528 489.574 267.528C489.126 267.528 488.731 267.656 488.39 267.912C488.048 268.168 487.728 268.536 487.43 269.016V275H485.958V266.568H487.222L487.35 267.816C487.648 267.368 488.016 267.016 488.454 266.76C488.902 266.504 489.392 266.376 489.926 266.376ZM506.095 263.176V275H504.799L504.655 273.832C504.378 274.259 504.031 274.595 503.615 274.84C503.199 275.075 502.735 275.192 502.223 275.192C501.22 275.192 500.436 274.797 499.871 274.008C499.316 273.219 499.039 272.157 499.039 270.824C499.039 269.96 499.172 269.192 499.439 268.52C499.706 267.848 500.09 267.325 500.591 266.952C501.092 266.568 501.679 266.376 502.351 266.376C503.215 266.376 503.972 266.723 504.623 267.416V263L506.095 263.176ZM502.543 274.024C502.991 274.024 503.375 273.923 503.695 273.72C504.015 273.507 504.324 273.192 504.623 272.776V268.648C504.346 268.285 504.047 268.013 503.727 267.832C503.418 267.64 503.066 267.544 502.671 267.544C502.02 267.544 501.514 267.816 501.151 268.36C500.799 268.904 500.623 269.715 500.623 270.792C500.623 271.88 500.788 272.691 501.119 273.224C501.45 273.757 501.924 274.024 502.543 274.024ZM515.497 270.536C515.497 270.781 515.487 271.032 515.465 271.288H510.089C510.153 272.216 510.388 272.899 510.793 273.336C511.199 273.773 511.721 273.992 512.361 273.992C512.767 273.992 513.14 273.933 513.481 273.816C513.823 273.699 514.18 273.512 514.553 273.256L515.193 274.136C514.297 274.84 513.316 275.192 512.249 275.192C511.076 275.192 510.159 274.808 509.497 274.04C508.847 273.272 508.521 272.216 508.521 270.872C508.521 269.997 508.66 269.224 508.937 268.552C509.225 267.869 509.631 267.336 510.153 266.952C510.687 266.568 511.311 266.376 512.025 266.376C513.145 266.376 514.004 266.744 514.601 267.48C515.199 268.216 515.497 269.235 515.497 270.536ZM514.041 270.104C514.041 269.272 513.876 268.637 513.545 268.2C513.215 267.763 512.719 267.544 512.057 267.544C510.852 267.544 510.196 268.429 510.089 270.2H514.041V270.104Z" fill="#0A2750"/>
<path d="M524.2 275.192C523.656 275.192 523.224 275.032 522.904 274.712C522.595 274.381 522.44 273.923 522.44 273.336V263.176L523.912 263V273.304C523.912 273.539 523.949 273.709 524.024 273.816C524.109 273.923 524.248 273.976 524.44 273.976C524.643 273.976 524.824 273.944 524.984 273.88L525.368 274.904C525.016 275.096 524.627 275.192 524.2 275.192ZM528.68 266.568V275H527.208V266.568H528.68ZM527.928 262.52C528.237 262.52 528.488 262.616 528.68 262.808C528.872 263 528.968 263.24 528.968 263.528C528.968 263.816 528.872 264.056 528.68 264.248C528.488 264.429 528.237 264.52 527.928 264.52C527.629 264.52 527.384 264.429 527.192 264.248C527 264.056 526.904 263.816 526.904 263.528C526.904 263.24 527 263 527.192 262.808C527.384 262.616 527.629 262.52 527.928 262.52ZM535.691 266.376C536.459 266.376 537.056 266.605 537.483 267.064C537.92 267.523 538.139 268.152 538.139 268.952V275H536.667V269.16C536.667 268.563 536.555 268.141 536.331 267.896C536.107 267.651 535.776 267.528 535.339 267.528C534.891 267.528 534.496 267.656 534.155 267.912C533.814 268.168 533.494 268.536 533.195 269.016V275H531.723V266.568H532.987L533.115 267.816C533.414 267.368 533.782 267.016 534.219 266.76C534.667 266.504 535.158 266.376 535.691 266.376ZM542.57 263V275H541.098V263.176L542.57 263ZM547.418 266.568L544.314 270.296L547.77 275H546.01L542.666 270.392L545.77 266.568H547.418ZM556.592 266.376C557.093 266.376 557.552 266.451 557.968 266.6C558.384 266.739 558.784 266.968 559.168 267.288L558.464 268.216C558.165 268.003 557.872 267.848 557.584 267.752C557.307 267.645 556.997 267.592 556.656 267.592C555.973 267.592 555.44 267.864 555.056 268.408C554.683 268.952 554.496 269.757 554.496 270.824C554.496 271.891 554.683 272.68 555.056 273.192C555.429 273.693 555.963 273.944 556.656 273.944C556.987 273.944 557.291 273.896 557.568 273.8C557.845 273.693 558.155 273.528 558.496 273.304L559.168 274.264C558.4 274.883 557.541 275.192 556.592 275.192C555.451 275.192 554.549 274.808 553.888 274.04C553.237 273.272 552.912 272.211 552.912 270.856C552.912 269.96 553.061 269.176 553.36 268.504C553.659 267.832 554.08 267.309 554.624 266.936C555.179 266.563 555.835 266.376 556.592 266.376ZM564.016 266.376C565.2 266.376 566.117 266.771 566.768 267.56C567.429 268.349 567.76 269.421 567.76 270.776C567.76 271.651 567.611 272.424 567.312 273.096C567.013 273.757 566.581 274.275 566.016 274.648C565.451 275.011 564.779 275.192 564 275.192C562.816 275.192 561.893 274.797 561.232 274.008C560.571 273.219 560.24 272.147 560.24 270.792C560.24 269.917 560.389 269.149 560.688 268.488C560.987 267.816 561.419 267.299 561.984 266.936C562.549 266.563 563.227 266.376 564.016 266.376ZM564.016 267.56C562.555 267.56 561.824 268.637 561.824 270.792C561.824 272.936 562.549 274.008 564 274.008C565.451 274.008 566.176 272.931 566.176 270.776C566.176 268.632 565.456 267.56 564.016 267.56ZM578.656 266.376C579.349 266.376 579.904 266.611 580.32 267.08C580.736 267.539 580.944 268.163 580.944 268.952V275H579.472V269.16C579.472 268.072 579.077 267.528 578.288 267.528C577.872 267.528 577.52 267.651 577.232 267.896C576.944 268.131 576.635 268.504 576.304 269.016V275H574.832V269.16C574.832 268.072 574.437 267.528 573.648 267.528C573.221 267.528 572.864 267.651 572.576 267.896C572.288 268.141 571.984 268.515 571.664 269.016V275H570.192V266.568H571.456L571.584 267.8C572.213 266.851 573.024 266.376 574.016 266.376C574.539 266.376 574.981 266.509 575.344 266.776C575.717 267.043 575.984 267.416 576.144 267.896C576.475 267.405 576.837 267.032 577.232 266.776C577.637 266.509 578.112 266.376 578.656 266.376ZM587.783 266.376C588.86 266.376 589.649 266.76 590.151 267.528C590.652 268.296 590.903 269.379 590.903 270.776C590.903 272.099 590.615 273.165 590.039 273.976C589.463 274.787 588.647 275.192 587.591 275.192C586.652 275.192 585.916 274.872 585.383 274.232V278.232L583.911 278.408V266.568H585.175L585.287 267.704C585.596 267.277 585.969 266.952 586.407 266.728C586.844 266.493 587.303 266.376 587.783 266.376ZM587.239 273.992C588.625 273.992 589.319 272.92 589.319 270.776C589.319 268.621 588.684 267.544 587.415 267.544C586.999 267.544 586.62 267.667 586.279 267.912C585.937 268.157 585.639 268.472 585.383 268.856V272.968C585.596 273.299 585.863 273.555 586.183 273.736C586.503 273.907 586.855 273.992 587.239 273.992ZM596.579 266.376C597.763 266.376 598.68 266.771 599.331 267.56C599.992 268.349 600.323 269.421 600.323 270.776C600.323 271.651 600.173 272.424 599.875 273.096C599.576 273.757 599.144 274.275 598.579 274.648C598.013 275.011 597.341 275.192 596.563 275.192C595.379 275.192 594.456 274.797 593.795 274.008C593.133 273.219 592.803 272.147 592.803 270.792C592.803 269.917 592.952 269.149 593.251 268.488C593.549 267.816 593.981 267.299 594.547 266.936C595.112 266.563 595.789 266.376 596.579 266.376ZM596.579 267.56C595.117 267.56 594.387 268.637 594.387 270.792C594.387 272.936 595.112 274.008 596.563 274.008C598.013 274.008 598.739 272.931 598.739 270.776C598.739 268.632 598.019 267.56 596.579 267.56ZM606.722 266.376C607.49 266.376 608.088 266.605 608.514 267.064C608.952 267.523 609.17 268.152 609.17 268.952V275H607.698V269.16C607.698 268.563 607.586 268.141 607.362 267.896C607.138 267.651 606.808 267.528 606.37 267.528C605.922 267.528 605.528 267.656 605.186 267.912C604.845 268.168 604.525 268.536 604.226 269.016V275H602.754V266.568H604.018L604.146 267.816C604.445 267.368 604.813 267.016 605.25 266.76C605.698 266.504 606.189 266.376 606.722 266.376ZM618.497 270.536C618.497 270.781 618.487 271.032 618.465 271.288H613.089C613.153 272.216 613.388 272.899 613.793 273.336C614.199 273.773 614.721 273.992 615.361 273.992C615.767 273.992 616.14 273.933 616.481 273.816C616.823 273.699 617.18 273.512 617.553 273.256L618.193 274.136C617.297 274.84 616.316 275.192 615.249 275.192C614.076 275.192 613.159 274.808 612.497 274.04C611.847 273.272 611.521 272.216 611.521 270.872C611.521 269.997 611.66 269.224 611.937 268.552C612.225 267.869 612.631 267.336 613.153 266.952C613.687 266.568 614.311 266.376 615.025 266.376C616.145 266.376 617.004 266.744 617.601 267.48C618.199 268.216 618.497 269.235 618.497 270.536ZM617.041 270.104C617.041 269.272 616.876 268.637 616.545 268.2C616.215 267.763 615.719 267.544 615.057 267.544C613.852 267.544 613.196 268.429 613.089 270.2H617.041V270.104ZM624.816 266.376C625.584 266.376 626.181 266.605 626.608 267.064C627.045 267.523 627.264 268.152 627.264 268.952V275H625.792V269.16C625.792 268.563 625.68 268.141 625.456 267.896C625.232 267.651 624.901 267.528 624.464 267.528C624.016 267.528 623.621 267.656 623.28 267.912C622.939 268.168 622.619 268.536 622.32 269.016V275H620.848V266.568H622.112L622.24 267.816C622.539 267.368 622.907 267.016 623.344 266.76C623.792 266.504 624.283 266.376 624.816 266.376ZM634.479 274.616C633.924 275 633.295 275.192 632.591 275.192C631.876 275.192 631.316 274.989 630.911 274.584C630.516 274.168 630.319 273.571 630.319 272.792V267.704H628.847V266.568H630.319V264.664L631.791 264.488V266.568H633.791L633.631 267.704H631.791V272.728C631.791 273.165 631.866 273.485 632.015 273.688C632.175 273.88 632.436 273.976 632.799 273.976C633.13 273.976 633.503 273.864 633.919 273.64L634.479 274.616Z" fill="#5315F6"/>
<path d="M521 276.6H634.479V277.4H521V276.6Z" fill="#5315F6"/>
<path d="M640.904 272.968C641.224 272.968 641.491 273.075 641.704 273.288C641.917 273.501 642.024 273.763 642.024 274.072C642.024 274.381 641.917 274.648 641.704 274.872C641.491 275.085 641.224 275.192 640.904 275.192C640.595 275.192 640.333 275.085 640.12 274.872C639.907 274.648 639.8 274.381 639.8 274.072C639.8 273.763 639.907 273.501 640.12 273.288C640.333 273.075 640.595 272.968 640.904 272.968Z" fill="#0A2750"/>
<path d="M521 250H635" stroke="#DE00A4" stroke-width="2" stroke-linecap="square" stroke-linejoin="bevel"/>
<path d="M578 210V249.5" stroke="#DE00A4" stroke-width="2" stroke-linecap="square" stroke-linejoin="bevel"/>
<rect x="562" y="178" width="32" height="32" rx="16" fill="#DE00A4"/>
<path d="M580.502 188.368V200.5H578V190.888L575.336 192.526L574.22 190.798L578.252 188.368H580.502Z" fill="white"/>
</svg>
