<svg width="960" height="540" viewBox="0 0 960 540" fill="none" xmlns="http://www.w3.org/2000/svg">
  <title id="heading-4-anatomy-title">Samenstelling van het Heading 4 component</title>
  <desc id="heading-4-anatomy-desc">Een tekst, in bold. De hele tekst is aangeduid met het cijfer 1. De tekst: “Dit is een voorbeeld van een heading.”.</desc>
  <rect x="0.5" y="0.5" width="959" height="539" fill="white" />
  <rect x="0.5" y="0.5" width="959" height="539" stroke="#CCCCCC" />
  <path d="M307.762 240L307.762 300" stroke="#DE00A4" stroke-width="2" stroke-linecap="square" />
  <path d="M268 270L307 270" stroke="#DE00A4" stroke-width="2" stroke-linecap="square"
    stroke-linejoin="bevel" />
  <rect x="236" y="254" width="32" height="32" rx="16" fill="#DE00A4" />
  <path
    d="M254.502 264.368V276.5H252V266.888L249.336 268.526L248.22 266.798L252.252 264.368H254.502Z"
    fill="white" />
  <path
    d="M321.56 254.72C321.56 255.587 321.56 256.447 321.56 257.3C321.573 258.153 321.587 259 321.6 259.84H322.26C323.407 259.84 324.307 259.373 324.96 258.44C325.627 257.493 325.96 256.153 325.96 254.42C325.96 252.66 325.627 251.32 324.96 250.4C324.307 249.48 323.413 249.02 322.28 249.02H321.6C321.587 249.847 321.573 250.68 321.56 251.52C321.56 252.36 321.56 253.207 321.56 254.06V254.72ZM316.66 248.94V247.86H322.6C324.027 247.86 325.247 248.127 326.26 248.66C327.273 249.18 328.053 249.927 328.6 250.9C329.147 251.873 329.42 253.04 329.42 254.4C329.42 255.787 329.127 256.973 328.54 257.96C327.953 258.947 327.12 259.7 326.04 260.22C324.973 260.74 323.707 261 322.24 261H316.66V259.92L318.16 259.76C318.187 258.947 318.2 258.12 318.2 257.28C318.2 256.44 318.2 255.593 318.2 254.74V254.06C318.2 253.233 318.2 252.407 318.2 251.58C318.2 250.74 318.187 249.913 318.16 249.1L316.66 248.94ZM330.702 261V260.06L331.782 259.82C331.795 259.34 331.802 258.82 331.802 258.26C331.802 257.7 331.802 257.213 331.802 256.8V255.84C331.802 255.293 331.795 254.84 331.782 254.48C331.782 254.107 331.768 253.72 331.742 253.32L330.502 253.14V252.36L334.702 251.02L335.042 251.24L334.982 254.14V256.8C334.982 257.213 334.982 257.707 334.982 258.28C334.982 258.84 334.988 259.367 335.002 259.86L336.002 260.06V261H330.702ZM333.362 249.54C332.895 249.54 332.495 249.393 332.162 249.1C331.828 248.793 331.662 248.413 331.662 247.96C331.662 247.493 331.828 247.113 332.162 246.82C332.495 246.513 332.895 246.36 333.362 246.36C333.828 246.36 334.228 246.513 334.562 246.82C334.895 247.113 335.062 247.493 335.062 247.96C335.062 248.413 334.895 248.793 334.562 249.1C334.228 249.393 333.828 249.54 333.362 249.54ZM340.79 261.3C339.896 261.3 339.196 261.087 338.69 260.66C338.183 260.22 337.93 259.507 337.93 258.52C337.93 258.173 337.93 257.853 337.93 257.56C337.943 257.253 337.95 256.907 337.95 256.52V252.7H336.65V251.52L338.13 251.32L339.13 248.52H341.17L341.13 251.34H343.23V252.7H341.13V258.3C341.13 258.767 341.223 259.113 341.41 259.34C341.61 259.553 341.856 259.66 342.15 259.66C342.496 259.66 342.856 259.513 343.23 259.22L343.73 259.7C343.463 260.207 343.09 260.6 342.61 260.88C342.143 261.16 341.536 261.3 340.79 261.3ZM348.475 261V260.06L349.555 259.82C349.568 259.34 349.575 258.82 349.575 258.26C349.575 257.7 349.575 257.213 349.575 256.8V255.84C349.575 255.293 349.568 254.84 349.555 254.48C349.555 254.107 349.542 253.72 349.515 253.32L348.275 253.14V252.36L352.475 251.02L352.815 251.24L352.755 254.14V256.8C352.755 257.213 352.755 257.707 352.755 258.28C352.755 258.84 352.762 259.367 352.775 259.86L353.775 260.06V261H348.475ZM351.135 249.54C350.668 249.54 350.268 249.393 349.935 249.1C349.602 248.793 349.435 248.413 349.435 247.96C349.435 247.493 349.602 247.113 349.935 246.82C350.268 246.513 350.668 246.36 351.135 246.36C351.602 246.36 352.002 246.513 352.335 246.82C352.668 247.113 352.835 247.493 352.835 247.96C352.835 248.413 352.668 248.793 352.335 249.1C352.002 249.393 351.602 249.54 351.135 249.54ZM358.283 261.3C357.016 261.3 355.856 260.993 354.803 260.38L354.863 257.94H356.463L356.803 259.92C357.043 260.013 357.283 260.087 357.523 260.14C357.763 260.18 358.023 260.2 358.303 260.2C358.876 260.2 359.316 260.107 359.623 259.92C359.93 259.72 360.083 259.42 360.083 259.02C360.083 258.713 359.97 258.447 359.743 258.22C359.516 257.993 359.07 257.787 358.403 257.6L357.323 257.28C356.55 257.053 355.95 256.687 355.523 256.18C355.11 255.673 354.903 255.047 354.903 254.3C354.903 253.38 355.263 252.607 355.983 251.98C356.703 251.34 357.736 251.02 359.083 251.02C359.67 251.02 360.21 251.093 360.703 251.24C361.21 251.373 361.723 251.573 362.243 251.84L362.103 254.02H360.503L360.103 252.3C359.823 252.193 359.456 252.14 359.003 252.14C358.55 252.14 358.183 252.233 357.903 252.42C357.636 252.607 357.503 252.887 357.503 253.26C357.503 253.527 357.61 253.767 357.823 253.98C358.036 254.18 358.49 254.387 359.183 254.6L360.163 254.88C361.11 255.16 361.79 255.56 362.203 256.08C362.616 256.6 362.823 257.233 362.823 257.98C362.823 259.033 362.416 259.853 361.603 260.44C360.803 261.013 359.696 261.3 358.283 261.3ZM373.102 252.06C372.729 252.06 372.382 252.293 372.062 252.76C371.755 253.213 371.582 254.053 371.542 255.28H373.242C373.722 255.28 374.042 255.187 374.202 255C374.375 254.8 374.462 254.473 374.462 254.02C374.462 253.353 374.329 252.86 374.062 252.54C373.795 252.22 373.475 252.06 373.102 252.06ZM373.142 261.3C372.169 261.3 371.309 261.1 370.562 260.7C369.815 260.287 369.229 259.7 368.802 258.94C368.375 258.167 368.162 257.247 368.162 256.18C368.162 255.06 368.409 254.12 368.902 253.36C369.409 252.587 370.055 252.007 370.842 251.62C371.629 251.22 372.449 251.02 373.302 251.02C374.182 251.02 374.929 251.207 375.542 251.58C376.169 251.953 376.642 252.46 376.962 253.1C377.282 253.727 377.442 254.447 377.442 255.26C377.442 255.647 377.402 256 377.322 256.32H371.542C371.609 257.373 371.895 258.153 372.402 258.66C372.922 259.153 373.529 259.4 374.222 259.4C374.769 259.4 375.235 259.3 375.622 259.1C376.009 258.887 376.349 258.627 376.642 258.32L377.342 258.96C376.929 259.747 376.369 260.333 375.662 260.72C374.955 261.107 374.115 261.3 373.142 261.3ZM383.532 252.06C383.158 252.06 382.812 252.293 382.492 252.76C382.185 253.213 382.012 254.053 381.972 255.28H383.672C384.152 255.28 384.472 255.187 384.632 255C384.805 254.8 384.892 254.473 384.892 254.02C384.892 253.353 384.758 252.86 384.492 252.54C384.225 252.22 383.905 252.06 383.532 252.06ZM383.572 261.3C382.598 261.3 381.738 261.1 380.992 260.7C380.245 260.287 379.658 259.7 379.232 258.94C378.805 258.167 378.592 257.247 378.592 256.18C378.592 255.06 378.838 254.12 379.332 253.36C379.838 252.587 380.485 252.007 381.272 251.62C382.058 251.22 382.878 251.02 383.732 251.02C384.612 251.02 385.358 251.207 385.972 251.58C386.598 251.953 387.072 252.46 387.392 253.1C387.712 253.727 387.872 254.447 387.872 255.26C387.872 255.647 387.832 256 387.752 256.32H381.972C382.038 257.373 382.325 258.153 382.832 258.66C383.352 259.153 383.958 259.4 384.652 259.4C385.198 259.4 385.665 259.3 386.052 259.1C386.438 258.887 386.778 258.627 387.072 258.32L387.772 258.96C387.358 259.747 386.798 260.333 386.092 260.72C385.385 261.107 384.545 261.3 383.572 261.3ZM389.001 261V260.06L390.081 259.82C390.095 259.34 390.101 258.82 390.101 258.26C390.101 257.7 390.101 257.213 390.101 256.8V255.64C390.101 255.093 390.095 254.673 390.081 254.38C390.081 254.073 390.068 253.72 390.041 253.32L388.821 253.14V252.36L392.761 251.02L393.121 251.24L393.241 252.68C393.761 252.067 394.275 251.64 394.781 251.4C395.301 251.147 395.855 251.02 396.441 251.02C397.308 251.02 398.001 251.307 398.521 251.88C399.055 252.453 399.321 253.313 399.321 254.46V256.8C399.321 257.24 399.321 257.74 399.321 258.3C399.321 258.847 399.328 259.367 399.341 259.86L400.341 260.06V261H395.061V260.06L396.101 259.84C396.115 259.347 396.121 258.827 396.121 258.28C396.121 257.72 396.121 257.227 396.121 256.8V254.7C396.121 254.06 396.035 253.613 395.861 253.36C395.688 253.093 395.408 252.96 395.021 252.96C394.501 252.96 393.928 253.2 393.301 253.68V256.8C393.301 257.213 393.301 257.707 393.301 258.28C393.301 258.84 393.308 259.367 393.321 259.86L394.261 260.06V261H389.001ZM411.683 252.22V251.34H415.463V252.22L414.303 252.44L411.003 261.04H409.483L405.883 252.42L404.903 252.22V251.34H410.583V252.22L409.323 252.48L411.203 257.6L412.943 252.46L411.683 252.22ZM420.703 261.3C419.663 261.3 418.763 261.087 418.003 260.66C417.243 260.22 416.656 259.613 416.243 258.84C415.83 258.053 415.623 257.147 415.623 256.12C415.623 255.093 415.843 254.2 416.283 253.44C416.736 252.68 417.35 252.087 418.123 251.66C418.896 251.233 419.756 251.02 420.703 251.02C421.65 251.02 422.503 251.227 423.263 251.64C424.036 252.053 424.65 252.647 425.103 253.42C425.556 254.18 425.783 255.08 425.783 256.12C425.783 257.16 425.576 258.067 425.163 258.84C424.75 259.613 424.163 260.22 423.403 260.66C422.643 261.087 421.743 261.3 420.703 261.3ZM420.703 260.26C421.263 260.26 421.683 259.933 421.963 259.28C422.243 258.627 422.383 257.593 422.383 256.18C422.383 254.753 422.243 253.713 421.963 253.06C421.683 252.407 421.263 252.08 420.703 252.08C420.13 252.08 419.703 252.407 419.423 253.06C419.143 253.713 419.003 254.753 419.003 256.18C419.003 257.593 419.143 258.627 419.423 259.28C419.703 259.933 420.13 260.26 420.703 260.26ZM432.148 261.3C431.108 261.3 430.208 261.087 429.448 260.66C428.688 260.22 428.102 259.613 427.688 258.84C427.275 258.053 427.068 257.147 427.068 256.12C427.068 255.093 427.288 254.2 427.728 253.44C428.182 252.68 428.795 252.087 429.568 251.66C430.342 251.233 431.202 251.02 432.148 251.02C433.095 251.02 433.948 251.227 434.708 251.64C435.482 252.053 436.095 252.647 436.548 253.42C437.002 254.18 437.228 255.08 437.228 256.12C437.228 257.16 437.022 258.067 436.608 258.84C436.195 259.613 435.608 260.22 434.848 260.66C434.088 261.087 433.188 261.3 432.148 261.3ZM432.148 260.26C432.708 260.26 433.128 259.933 433.408 259.28C433.688 258.627 433.828 257.593 433.828 256.18C433.828 254.753 433.688 253.713 433.408 253.06C433.128 252.407 432.708 252.08 432.148 252.08C431.575 252.08 431.148 252.407 430.868 253.06C430.588 253.713 430.448 254.753 430.448 256.18C430.448 257.593 430.588 258.627 430.868 259.28C431.148 259.933 431.575 260.26 432.148 260.26ZM438.337 261V260.06L439.437 259.84C439.45 259.347 439.457 258.82 439.457 258.26C439.457 257.7 439.457 257.213 439.457 256.8V255.62C439.457 255.247 439.45 254.94 439.437 254.7C439.437 254.46 439.43 254.24 439.417 254.04C439.417 253.827 439.41 253.587 439.397 253.32L438.177 253.14V252.36L442.117 251.02L442.477 251.24L442.657 253.6C442.937 252.747 443.33 252.107 443.837 251.68C444.344 251.24 444.844 251.02 445.337 251.02C445.777 251.02 446.157 251.147 446.477 251.4C446.797 251.64 446.997 252.007 447.077 252.5C447.064 253.02 446.924 253.427 446.657 253.72C446.39 254 446.057 254.14 445.657 254.14C445.097 254.14 444.584 253.827 444.117 253.2L443.997 253.04C443.704 253.32 443.43 253.673 443.177 254.1C442.937 254.527 442.764 254.973 442.657 255.44V256.8C442.657 257.213 442.657 257.687 442.657 258.22C442.657 258.753 442.664 259.253 442.677 259.72L444.257 260.06V261H438.337ZM447.185 261.02V260.08L448.245 259.86C448.259 259.38 448.265 258.86 448.265 258.3C448.265 257.727 448.265 257.233 448.265 256.82V248.38L447.025 248.22V247.38L451.165 246.48L451.485 246.68L451.405 249.48V252.3C452.245 251.447 453.212 251.02 454.305 251.02C455.039 251.02 455.699 251.213 456.285 251.6C456.872 251.973 457.339 252.54 457.685 253.3C458.045 254.047 458.225 254.973 458.225 256.08C458.225 257.16 458.025 258.093 457.625 258.88C457.225 259.653 456.699 260.253 456.045 260.68C455.405 261.093 454.705 261.3 453.945 261.3C452.852 261.3 451.972 260.907 451.305 260.12L450.965 261.28L447.185 261.02ZM452.845 252.76C452.592 252.76 452.352 252.813 452.125 252.92C451.899 253.027 451.679 253.167 451.465 253.34V259.06C451.879 259.433 452.332 259.62 452.825 259.62C453.412 259.62 453.892 259.333 454.265 258.76C454.652 258.187 454.845 257.313 454.845 256.14C454.845 254.953 454.659 254.093 454.285 253.56C453.925 253.027 453.445 252.76 452.845 252.76ZM464.469 252.06C464.096 252.06 463.749 252.293 463.429 252.76C463.123 253.213 462.949 254.053 462.909 255.28H464.609C465.089 255.28 465.409 255.187 465.569 255C465.743 254.8 465.829 254.473 465.829 254.02C465.829 253.353 465.696 252.86 465.429 252.54C465.163 252.22 464.843 252.06 464.469 252.06ZM464.509 261.3C463.536 261.3 462.676 261.1 461.929 260.7C461.183 260.287 460.596 259.7 460.169 258.94C459.743 258.167 459.529 257.247 459.529 256.18C459.529 255.06 459.776 254.12 460.269 253.36C460.776 252.587 461.423 252.007 462.209 251.62C462.996 251.22 463.816 251.02 464.669 251.02C465.549 251.02 466.296 251.207 466.909 251.58C467.536 251.953 468.009 252.46 468.329 253.1C468.649 253.727 468.809 254.447 468.809 255.26C468.809 255.647 468.769 256 468.689 256.32H462.909C462.976 257.373 463.263 258.153 463.769 258.66C464.289 259.153 464.896 259.4 465.589 259.4C466.136 259.4 466.603 259.3 466.989 259.1C467.376 258.887 467.716 258.627 468.009 258.32L468.709 258.96C468.296 259.747 467.736 260.333 467.029 260.72C466.323 261.107 465.483 261.3 464.509 261.3ZM474.899 252.06C474.526 252.06 474.179 252.293 473.859 252.76C473.552 253.213 473.379 254.053 473.339 255.28H475.039C475.519 255.28 475.839 255.187 475.999 255C476.172 254.8 476.259 254.473 476.259 254.02C476.259 253.353 476.126 252.86 475.859 252.54C475.592 252.22 475.272 252.06 474.899 252.06ZM474.939 261.3C473.966 261.3 473.106 261.1 472.359 260.7C471.612 260.287 471.026 259.7 470.599 258.94C470.172 258.167 469.959 257.247 469.959 256.18C469.959 255.06 470.206 254.12 470.699 253.36C471.206 252.587 471.852 252.007 472.639 251.62C473.426 251.22 474.246 251.02 475.099 251.02C475.979 251.02 476.726 251.207 477.339 251.58C477.966 251.953 478.439 252.46 478.759 253.1C479.079 253.727 479.239 254.447 479.239 255.26C479.239 255.647 479.199 256 479.119 256.32H473.339C473.406 257.373 473.692 258.153 474.199 258.66C474.719 259.153 475.326 259.4 476.019 259.4C476.566 259.4 477.032 259.3 477.419 259.1C477.806 258.887 478.146 258.627 478.439 258.32L479.139 258.96C478.726 259.747 478.166 260.333 477.459 260.72C476.752 261.107 475.912 261.3 474.939 261.3ZM479.997 261V260.06L481.097 259.82C481.11 259.313 481.117 258.807 481.117 258.3C481.13 257.793 481.137 257.293 481.137 256.8V248.42L479.897 248.22V247.38L484.097 246.48L484.417 246.68L484.337 249.48V256.8C484.337 257.307 484.337 257.813 484.337 258.32C484.35 258.827 484.363 259.333 484.377 259.84L485.477 260.06V261H479.997ZM489.901 256.22C489.901 257.313 490.095 258.147 490.481 258.72C490.868 259.28 491.368 259.56 491.981 259.56C492.435 259.56 492.848 259.407 493.221 259.1V253.14C492.861 252.86 492.468 252.72 492.041 252.72C491.428 252.72 490.915 253.007 490.501 253.58C490.101 254.153 489.901 255.033 489.901 256.22ZM493.481 261.22L493.321 260.08C492.548 260.893 491.608 261.3 490.501 261.3C489.755 261.3 489.075 261.107 488.461 260.72C487.861 260.333 487.388 259.767 487.041 259.02C486.695 258.26 486.521 257.34 486.521 256.26C486.521 255.167 486.728 254.233 487.141 253.46C487.568 252.673 488.115 252.073 488.781 251.66C489.461 251.233 490.175 251.02 490.921 251.02C491.441 251.02 491.895 251.113 492.281 251.3C492.668 251.473 493.021 251.733 493.341 252.08V248.42L491.941 248.22V247.38L496.161 246.48L496.481 246.68L496.401 249.48V259.86L497.381 260.06V261L493.481 261.22ZM508.734 252.22V251.34H512.514V252.22L511.354 252.44L508.054 261.04H506.534L502.934 252.42L501.954 252.22V251.34H507.634V252.22L506.374 252.48L508.254 257.6L509.994 252.46L508.734 252.22ZM520.413 261.28C519.253 261.28 518.52 260.8 518.213 259.84C517.787 260.293 517.373 260.653 516.973 260.92C516.587 261.173 516.047 261.3 515.353 261.3C514.58 261.3 513.947 261.08 513.453 260.64C512.973 260.2 512.733 259.567 512.733 258.74C512.733 258.26 512.84 257.827 513.053 257.44C513.267 257.053 513.653 256.693 514.213 256.36C514.773 256.027 515.567 255.713 516.593 255.42C516.793 255.353 517.027 255.287 517.293 255.22C517.56 255.153 517.833 255.087 518.113 255.02V254.36C518.113 253.467 518 252.86 517.773 252.54C517.56 252.22 517.133 252.06 516.493 252.06C516.4 252.06 516.313 252.06 516.233 252.06C516.153 252.06 516.06 252.067 515.953 252.08L515.853 252.96C515.84 253.613 515.687 254.087 515.393 254.38C515.113 254.673 514.78 254.82 514.393 254.82C513.66 254.82 513.213 254.487 513.053 253.82C513.107 252.993 513.527 252.32 514.313 251.8C515.1 251.28 516.213 251.02 517.653 251.02C518.933 251.02 519.847 251.313 520.393 251.9C520.953 252.487 521.233 253.453 521.233 254.8V259.28C521.233 259.667 521.38 259.86 521.673 259.86C521.78 259.86 521.88 259.833 521.973 259.78C522.067 259.713 522.167 259.593 522.273 259.42L522.813 259.78C522.573 260.313 522.26 260.7 521.873 260.94C521.5 261.167 521.013 261.28 520.413 261.28ZM515.693 258.22C515.693 258.713 515.807 259.08 516.033 259.32C516.273 259.56 516.56 259.68 516.893 259.68C517.04 259.68 517.193 259.647 517.353 259.58C517.513 259.513 517.767 259.36 518.113 259.12V255.88C517.94 255.933 517.767 255.993 517.593 256.06C517.433 256.113 517.293 256.167 517.173 256.22C516.72 256.407 516.36 256.673 516.093 257.02C515.827 257.353 515.693 257.753 515.693 258.22ZM523.298 261V260.06L524.378 259.82C524.392 259.34 524.398 258.82 524.398 258.26C524.398 257.7 524.398 257.213 524.398 256.8V255.64C524.398 255.093 524.392 254.673 524.378 254.38C524.378 254.073 524.365 253.72 524.338 253.32L523.118 253.14V252.36L527.058 251.02L527.418 251.24L527.538 252.68C528.058 252.067 528.572 251.64 529.078 251.4C529.598 251.147 530.152 251.02 530.738 251.02C531.605 251.02 532.298 251.307 532.818 251.88C533.352 252.453 533.618 253.313 533.618 254.46V256.8C533.618 257.24 533.618 257.74 533.618 258.3C533.618 258.847 533.625 259.367 533.638 259.86L534.638 260.06V261H529.358V260.06L530.398 259.84C530.412 259.347 530.418 258.827 530.418 258.28C530.418 257.72 530.418 257.227 530.418 256.8V254.7C530.418 254.06 530.332 253.613 530.158 253.36C529.985 253.093 529.705 252.96 529.318 252.96C528.798 252.96 528.225 253.2 527.598 253.68V256.8C527.598 257.213 527.598 257.707 527.598 258.28C527.598 258.84 527.605 259.367 527.618 259.86L528.558 260.06V261H523.298ZM544.86 252.06C544.487 252.06 544.14 252.293 543.82 252.76C543.513 253.213 543.34 254.053 543.3 255.28H545C545.48 255.28 545.8 255.187 545.96 255C546.133 254.8 546.22 254.473 546.22 254.02C546.22 253.353 546.087 252.86 545.82 252.54C545.553 252.22 545.233 252.06 544.86 252.06ZM544.9 261.3C543.927 261.3 543.067 261.1 542.32 260.7C541.573 260.287 540.987 259.7 540.56 258.94C540.133 258.167 539.92 257.247 539.92 256.18C539.92 255.06 540.167 254.12 540.66 253.36C541.167 252.587 541.813 252.007 542.6 251.62C543.387 251.22 544.207 251.02 545.06 251.02C545.94 251.02 546.687 251.207 547.3 251.58C547.927 251.953 548.4 252.46 548.72 253.1C549.04 253.727 549.2 254.447 549.2 255.26C549.2 255.647 549.16 256 549.08 256.32H543.3C543.367 257.373 543.653 258.153 544.16 258.66C544.68 259.153 545.287 259.4 545.98 259.4C546.527 259.4 546.993 259.3 547.38 259.1C547.767 258.887 548.107 258.627 548.4 258.32L549.1 258.96C548.687 259.747 548.127 260.333 547.42 260.72C546.713 261.107 545.873 261.3 544.9 261.3ZM555.29 252.06C554.916 252.06 554.57 252.293 554.25 252.76C553.943 253.213 553.77 254.053 553.73 255.28H555.43C555.91 255.28 556.23 255.187 556.39 255C556.563 254.8 556.65 254.473 556.65 254.02C556.65 253.353 556.516 252.86 556.25 252.54C555.983 252.22 555.663 252.06 555.29 252.06ZM555.33 261.3C554.356 261.3 553.496 261.1 552.75 260.7C552.003 260.287 551.416 259.7 550.99 258.94C550.563 258.167 550.35 257.247 550.35 256.18C550.35 255.06 550.596 254.12 551.09 253.36C551.596 252.587 552.243 252.007 553.03 251.62C553.816 251.22 554.636 251.02 555.49 251.02C556.37 251.02 557.116 251.207 557.73 251.58C558.356 251.953 558.83 252.46 559.15 253.1C559.47 253.727 559.63 254.447 559.63 255.26C559.63 255.647 559.59 256 559.51 256.32H553.73C553.796 257.373 554.083 258.153 554.59 258.66C555.11 259.153 555.716 259.4 556.41 259.4C556.956 259.4 557.423 259.3 557.81 259.1C558.196 258.887 558.536 258.627 558.83 258.32L559.53 258.96C559.116 259.747 558.556 260.333 557.85 260.72C557.143 261.107 556.303 261.3 555.33 261.3ZM560.759 261V260.06L561.839 259.82C561.853 259.34 561.859 258.82 561.859 258.26C561.859 257.7 561.859 257.213 561.859 256.8V255.64C561.859 255.093 561.853 254.673 561.839 254.38C561.839 254.073 561.826 253.72 561.799 253.32L560.579 253.14V252.36L564.519 251.02L564.879 251.24L564.999 252.68C565.519 252.067 566.033 251.64 566.539 251.4C567.059 251.147 567.613 251.02 568.199 251.02C569.066 251.02 569.759 251.307 570.279 251.88C570.813 252.453 571.079 253.313 571.079 254.46V256.8C571.079 257.24 571.079 257.74 571.079 258.3C571.079 258.847 571.086 259.367 571.099 259.86L572.099 260.06V261H566.819V260.06L567.859 259.84C567.873 259.347 567.879 258.827 567.879 258.28C567.879 257.72 567.879 257.227 567.879 256.8V254.7C567.879 254.06 567.793 253.613 567.619 253.36C567.446 253.093 567.166 252.96 566.779 252.96C566.259 252.96 565.686 253.2 565.059 253.68V256.8C565.059 257.213 565.059 257.707 565.059 258.28C565.059 258.84 565.066 259.367 565.079 259.86L566.019 260.06V261H560.759ZM316.56 291V290.06L317.64 289.82C317.653 289.34 317.66 288.82 317.66 288.26C317.66 287.7 317.66 287.213 317.66 286.8V278.42L316.42 278.22V277.38L320.56 276.48L320.88 276.68L320.8 279.48V282.7C321.333 282.073 321.847 281.64 322.34 281.4C322.847 281.147 323.393 281.02 323.98 281.02C324.86 281.02 325.567 281.307 326.1 281.88C326.633 282.453 326.9 283.313 326.9 284.46V286.8C326.9 287.24 326.9 287.74 326.9 288.3C326.9 288.847 326.907 289.367 326.92 289.86L327.92 290.06V291H322.66V290.06L323.7 289.84C323.713 289.347 323.72 288.827 323.72 288.28C323.72 287.72 323.72 287.227 323.72 286.8V284.7C323.72 284.047 323.64 283.593 323.48 283.34C323.333 283.087 323.053 282.96 322.64 282.96C322.373 282.96 322.087 283.04 321.78 283.2C321.473 283.36 321.167 283.587 320.86 283.88V286.8C320.86 287.213 320.86 287.707 320.86 288.28C320.86 288.84 320.867 289.367 320.88 289.86L321.82 290.06V291H316.56ZM333.864 282.06C333.49 282.06 333.144 282.293 332.824 282.76C332.517 283.213 332.344 284.053 332.304 285.28H334.004C334.484 285.28 334.804 285.187 334.964 285C335.137 284.8 335.224 284.473 335.224 284.02C335.224 283.353 335.09 282.86 334.824 282.54C334.557 282.22 334.237 282.06 333.864 282.06ZM333.904 291.3C332.93 291.3 332.07 291.1 331.324 290.7C330.577 290.287 329.99 289.7 329.564 288.94C329.137 288.167 328.924 287.247 328.924 286.18C328.924 285.06 329.17 284.12 329.664 283.36C330.17 282.587 330.817 282.007 331.604 281.62C332.39 281.22 333.21 281.02 334.064 281.02C334.944 281.02 335.69 281.207 336.304 281.58C336.93 281.953 337.404 282.46 337.724 283.1C338.044 283.727 338.204 284.447 338.204 285.26C338.204 285.647 338.164 286 338.084 286.32H332.304C332.37 287.373 332.657 288.153 333.164 288.66C333.684 289.153 334.29 289.4 334.984 289.4C335.53 289.4 335.997 289.3 336.384 289.1C336.77 288.887 337.11 288.627 337.404 288.32L338.104 288.96C337.69 289.747 337.13 290.333 336.424 290.72C335.717 291.107 334.877 291.3 333.904 291.3ZM347.015 291.28C345.855 291.28 345.122 290.8 344.815 289.84C344.388 290.293 343.975 290.653 343.575 290.92C343.188 291.173 342.648 291.3 341.955 291.3C341.182 291.3 340.548 291.08 340.055 290.64C339.575 290.2 339.335 289.567 339.335 288.74C339.335 288.26 339.442 287.827 339.655 287.44C339.868 287.053 340.255 286.693 340.815 286.36C341.375 286.027 342.168 285.713 343.195 285.42C343.395 285.353 343.628 285.287 343.895 285.22C344.162 285.153 344.435 285.087 344.715 285.02V284.36C344.715 283.467 344.602 282.86 344.375 282.54C344.162 282.22 343.735 282.06 343.095 282.06C343.002 282.06 342.915 282.06 342.835 282.06C342.755 282.06 342.662 282.067 342.555 282.08L342.455 282.96C342.442 283.613 342.288 284.087 341.995 284.38C341.715 284.673 341.382 284.82 340.995 284.82C340.262 284.82 339.815 284.487 339.655 283.82C339.708 282.993 340.128 282.32 340.915 281.8C341.702 281.28 342.815 281.02 344.255 281.02C345.535 281.02 346.448 281.313 346.995 281.9C347.555 282.487 347.835 283.453 347.835 284.8V289.28C347.835 289.667 347.982 289.86 348.275 289.86C348.382 289.86 348.482 289.833 348.575 289.78C348.668 289.713 348.768 289.593 348.875 289.42L349.415 289.78C349.175 290.313 348.862 290.7 348.475 290.94C348.102 291.167 347.615 291.28 347.015 291.28ZM342.295 288.22C342.295 288.713 342.408 289.08 342.635 289.32C342.875 289.56 343.162 289.68 343.495 289.68C343.642 289.68 343.795 289.647 343.955 289.58C344.115 289.513 344.368 289.36 344.715 289.12V285.88C344.542 285.933 344.368 285.993 344.195 286.06C344.035 286.113 343.895 286.167 343.775 286.22C343.322 286.407 342.962 286.673 342.695 287.02C342.428 287.353 342.295 287.753 342.295 288.22ZM353.3 286.22C353.3 287.313 353.493 288.147 353.88 288.72C354.267 289.28 354.767 289.56 355.38 289.56C355.833 289.56 356.247 289.407 356.62 289.1V283.14C356.26 282.86 355.867 282.72 355.44 282.72C354.827 282.72 354.313 283.007 353.9 283.58C353.5 284.153 353.3 285.033 353.3 286.22ZM356.88 291.22L356.72 290.08C355.947 290.893 355.007 291.3 353.9 291.3C353.153 291.3 352.473 291.107 351.86 290.72C351.26 290.333 350.787 289.767 350.44 289.02C350.093 288.26 349.92 287.34 349.92 286.26C349.92 285.167 350.127 284.233 350.54 283.46C350.967 282.673 351.513 282.073 352.18 281.66C352.86 281.233 353.573 281.02 354.32 281.02C354.84 281.02 355.293 281.113 355.68 281.3C356.067 281.473 356.42 281.733 356.74 282.08V278.42L355.34 278.22V277.38L359.56 276.48L359.88 276.68L359.8 279.48V289.86L360.78 290.06V291L356.88 291.22ZM361.815 291V290.06L362.895 289.82C362.908 289.34 362.915 288.82 362.915 288.26C362.915 287.7 362.915 287.213 362.915 286.8V285.84C362.915 285.293 362.908 284.84 362.895 284.48C362.895 284.107 362.882 283.72 362.855 283.32L361.615 283.14V282.36L365.815 281.02L366.155 281.24L366.095 284.14V286.8C366.095 287.213 366.095 287.707 366.095 288.28C366.095 288.84 366.102 289.367 366.115 289.86L367.115 290.06V291H361.815ZM364.475 279.54C364.008 279.54 363.608 279.393 363.275 279.1C362.942 278.793 362.775 278.413 362.775 277.96C362.775 277.493 362.942 277.113 363.275 276.82C363.608 276.513 364.008 276.36 364.475 276.36C364.942 276.36 365.342 276.513 365.675 276.82C366.008 277.113 366.175 277.493 366.175 277.96C366.175 278.413 366.008 278.793 365.675 279.1C365.342 279.393 364.942 279.54 364.475 279.54ZM368.103 291V290.06L369.183 289.82C369.196 289.34 369.203 288.82 369.203 288.26C369.203 287.7 369.203 287.213 369.203 286.8V285.64C369.203 285.093 369.196 284.673 369.183 284.38C369.183 284.073 369.17 283.72 369.143 283.32L367.923 283.14V282.36L371.863 281.02L372.223 281.24L372.343 282.68C372.863 282.067 373.376 281.64 373.883 281.4C374.403 281.147 374.956 281.02 375.543 281.02C376.41 281.02 377.103 281.307 377.623 281.88C378.156 282.453 378.423 283.313 378.423 284.46V286.8C378.423 287.24 378.423 287.74 378.423 288.3C378.423 288.847 378.43 289.367 378.443 289.86L379.443 290.06V291H374.163V290.06L375.203 289.84C375.216 289.347 375.223 288.827 375.223 288.28C375.223 287.72 375.223 287.227 375.223 286.8V284.7C375.223 284.06 375.136 283.613 374.963 283.36C374.79 283.093 374.51 282.96 374.123 282.96C373.603 282.96 373.03 283.2 372.403 283.68V286.8C372.403 287.213 372.403 287.707 372.403 288.28C372.403 288.84 372.41 289.367 372.423 289.86L373.363 290.06V291H368.103ZM384.767 286.52C385.234 286.52 385.581 286.313 385.807 285.9C386.047 285.487 386.167 284.927 386.167 284.22C386.167 283.513 386.047 282.967 385.807 282.58C385.581 282.18 385.247 281.98 384.807 281.98C384.354 281.98 384.014 282.18 383.787 282.58C383.561 282.98 383.447 283.533 383.447 284.24C383.447 284.947 383.554 285.507 383.767 285.92C383.981 286.32 384.314 286.52 384.767 286.52ZM382.107 292.66C382.107 293.247 382.327 293.673 382.767 293.94C383.207 294.22 383.881 294.36 384.787 294.36C385.787 294.36 386.541 294.213 387.047 293.92C387.554 293.627 387.807 293.26 387.807 292.82C387.807 292.527 387.701 292.26 387.487 292.02C387.274 291.793 386.894 291.68 386.347 291.68H384.247C383.514 291.68 382.907 291.62 382.427 291.5C382.321 291.687 382.241 291.867 382.187 292.04C382.134 292.213 382.107 292.42 382.107 292.66ZM384.787 287.46C384.094 287.46 383.487 287.38 382.967 287.22C382.807 287.5 382.727 287.807 382.727 288.14C382.727 288.367 382.814 288.553 382.987 288.7C383.161 288.833 383.461 288.9 383.887 288.9H386.227C387.241 288.9 388.047 289.027 388.647 289.28C389.247 289.52 389.674 289.86 389.927 290.3C390.194 290.727 390.327 291.233 390.327 291.82C390.327 292.487 390.107 293.1 389.667 293.66C389.227 294.233 388.567 294.687 387.687 295.02C386.821 295.367 385.747 295.54 384.467 295.54C383.361 295.54 382.494 295.427 381.867 295.2C381.241 294.987 380.801 294.7 380.547 294.34C380.294 293.98 380.167 293.6 380.167 293.2C380.167 292.347 380.721 291.66 381.827 291.14C381.414 290.967 381.114 290.74 380.927 290.46C380.754 290.18 380.667 289.873 380.667 289.54C380.667 289.073 380.801 288.633 381.067 288.22C381.347 287.793 381.734 287.367 382.227 286.94C381.681 286.66 381.274 286.287 381.007 285.82C380.741 285.353 380.607 284.833 380.607 284.26C380.607 283.327 380.947 282.553 381.627 281.94C382.321 281.327 383.374 281.02 384.787 281.02C385.507 281.02 386.134 281.1 386.667 281.26C387.201 281.42 387.634 281.647 387.967 281.94L390.207 280.98L390.527 281.18V282.72H388.627C388.867 283.16 388.987 283.673 388.987 284.26C388.987 285.153 388.641 285.913 387.947 286.54C387.267 287.153 386.214 287.46 384.787 287.46Z"
    fill="#0A2750" />
</svg>
