<svg width="960" height="540" viewBox="0 0 960 540" fill="none" xmlns="http://www.w3.org/2000/svg">
  <title id="skip-link-anatomy-title">Samenstelling van het Skip Link component</title>
  <desc id="skip-link-anatomy-desc">Een woord “label” met een achtergrondkleur en dikke stippellijn eromheen. Het geheel is aangeduid met het cijfer 1.</desc>
  <rect x="0.5" y="0.5" width="959" height="539" fill="white" />
  <rect x="0.5" y="0.5" width="959" height="539" stroke="#CCCCCC" />
  <rect width="72" height="48" transform="translate(444 246)" fill="#FFE76B" />
  <rect x="443.5" y="245.5" width="73" height="49" stroke="#5315F6" stroke-dasharray="2 2" />
  <rect x="443" y="245" width="74" height="50" stroke="white" stroke-width="2" />
  <rect x="443" y="245" width="74" height="50" stroke="#5315F6" stroke-width="2"
    stroke-dasharray="2 2" />
  <path
    d="M463.12 263.976V273.672H467.648L467.472 275H461.6V263.976H463.12ZM475.013 273.032C475.013 273.373 475.071 273.629 475.189 273.8C475.306 273.96 475.482 274.083 475.717 274.168L475.381 275.192C474.943 275.139 474.591 275.016 474.325 274.824C474.058 274.632 473.861 274.333 473.733 273.928C473.167 274.771 472.33 275.192 471.221 275.192C470.389 275.192 469.733 274.957 469.253 274.488C468.773 274.019 468.533 273.405 468.533 272.648C468.533 271.752 468.853 271.064 469.493 270.584C470.143 270.104 471.061 269.864 472.245 269.864H473.541V269.24C473.541 268.643 473.397 268.216 473.109 267.96C472.821 267.704 472.378 267.576 471.781 267.576C471.162 267.576 470.405 267.725 469.509 268.024L469.141 266.952C470.186 266.568 471.157 266.376 472.053 266.376C473.045 266.376 473.786 266.621 474.277 267.112C474.767 267.592 475.013 268.28 475.013 269.176V273.032ZM471.557 274.088C472.399 274.088 473.061 273.651 473.541 272.776V270.84H472.437C470.879 270.84 470.101 271.416 470.101 272.568C470.101 273.069 470.223 273.448 470.469 273.704C470.714 273.96 471.077 274.088 471.557 274.088ZM481.892 266.376C482.852 266.376 483.614 266.765 484.18 267.544C484.745 268.312 485.028 269.389 485.028 270.776C485.028 271.651 484.894 272.424 484.628 273.096C484.361 273.757 483.977 274.275 483.476 274.648C482.974 275.011 482.388 275.192 481.716 275.192C480.83 275.192 480.084 274.819 479.476 274.072L479.332 275H478.036V263.176L479.508 263V267.624C480.116 266.792 480.91 266.376 481.892 266.376ZM481.364 274.024C482.014 274.024 482.521 273.763 482.884 273.24C483.257 272.707 483.444 271.885 483.444 270.776C483.444 269.635 483.273 268.813 482.932 268.312C482.59 267.8 482.105 267.544 481.476 267.544C480.729 267.544 480.073 267.981 479.508 268.856V272.888C479.732 273.24 480.004 273.517 480.324 273.72C480.654 273.923 481.001 274.024 481.364 274.024ZM493.904 270.536C493.904 270.781 493.893 271.032 493.872 271.288H488.496C488.56 272.216 488.794 272.899 489.2 273.336C489.605 273.773 490.128 273.992 490.768 273.992C491.173 273.992 491.546 273.933 491.888 273.816C492.229 273.699 492.586 273.512 492.96 273.256L493.6 274.136C492.704 274.84 491.722 275.192 490.656 275.192C489.482 275.192 488.565 274.808 487.904 274.04C487.253 273.272 486.928 272.216 486.928 270.872C486.928 269.997 487.066 269.224 487.344 268.552C487.632 267.869 488.037 267.336 488.56 266.952C489.093 266.568 489.717 266.376 490.432 266.376C491.552 266.376 492.41 266.744 493.008 267.48C493.605 268.216 493.904 269.235 493.904 270.536ZM492.448 270.104C492.448 269.272 492.282 268.637 491.952 268.2C491.621 267.763 491.125 267.544 490.464 267.544C489.258 267.544 488.602 268.429 488.496 270.2H492.448V270.104ZM497.934 275.192C497.39 275.192 496.958 275.032 496.638 274.712C496.329 274.381 496.174 273.923 496.174 273.336V263.176L497.646 263V273.304C497.646 273.539 497.684 273.709 497.758 273.816C497.844 273.923 497.982 273.976 498.174 273.976C498.377 273.976 498.558 273.944 498.718 273.88L499.102 274.904C498.75 275.096 498.361 275.192 497.934 275.192Z"
    fill="black" />
  <rect x="364" y="254" width="32" height="32" rx="16" fill="#DE00A4" />
  <path
    d="M382.502 264.368V276.5H380V266.888L377.336 268.526L376.22 266.798L380.252 264.368H382.502Z"
    fill="white" />
  <path d="M396 270H444" stroke="#DE00A4" stroke-width="2" stroke-linecap="square"
    stroke-linejoin="bevel" />
</svg>
