<svg width="960" height="540" viewBox="0 0 960 540" fill="none" xmlns="http://www.w3.org/2000/svg" role="img" aria-label="Een relatief grote tekst in bold, de hele tekst is aangeduid met het cijfer 1. De tekst: “Dit is een voorbeeld van een heading.”">
<rect x="0.5" y="0.5" width="959" height="539" fill="white"/>
<rect x="0.5" y="0.5" width="959" height="539" stroke="#CCCCCC"/>
<path d="M307.762 195L307.762 345" stroke="#DE00A4" stroke-width="2" stroke-linecap="square"/>
<path d="M268 270L307 270" stroke="#DE00A4" stroke-width="2" stroke-linecap="square" stroke-linejoin="bevel"/>
<rect x="236" y="254" width="32" height="32" rx="16" fill="#DE00A4"/>
<path d="M254.502 264.368V276.5H252V266.888L249.336 268.526L248.22 266.798L252.252 264.368H254.502Z" fill="white"/>
<path d="M327.12 219.44C327.12 221.173 327.12 222.893 327.12 224.6C327.147 226.307 327.173 228 327.2 229.68H328.52C330.813 229.68 332.613 228.747 333.92 226.88C335.253 224.987 335.92 222.307 335.92 218.84C335.92 215.32 335.253 212.64 333.92 210.8C332.613 208.96 330.827 208.04 328.56 208.04H327.2C327.173 209.693 327.147 211.36 327.12 213.04C327.12 214.72 327.12 216.413 327.12 218.12V219.44ZM317.32 207.88V205.72H329.2C332.053 205.72 334.493 206.253 336.52 207.32C338.547 208.36 340.107 209.853 341.2 211.8C342.293 213.747 342.84 216.08 342.84 218.8C342.84 221.573 342.253 223.947 341.08 225.92C339.907 227.893 338.24 229.4 336.08 230.44C333.947 231.48 331.413 232 328.48 232H317.32V229.84L320.32 229.52C320.373 227.893 320.4 226.24 320.4 224.56C320.4 222.88 320.4 221.187 320.4 219.48V218.12C320.4 216.467 320.4 214.813 320.4 213.16C320.4 211.48 320.373 209.827 320.32 208.2L317.32 207.88ZM345.403 232V230.12L347.563 229.64C347.59 228.68 347.603 227.64 347.603 226.52C347.603 225.4 347.603 224.427 347.603 223.6V221.68C347.603 220.587 347.59 219.68 347.563 218.96C347.563 218.213 347.536 217.44 347.483 216.64L345.003 216.28V214.72L353.403 212.04L354.083 212.48L353.963 218.28V223.6C353.963 224.427 353.963 225.413 353.963 226.56C353.963 227.68 353.976 228.733 354.003 229.72L356.003 230.12V232H345.403ZM350.723 209.08C349.79 209.08 348.99 208.787 348.323 208.2C347.656 207.587 347.323 206.827 347.323 205.92C347.323 204.987 347.656 204.227 348.323 203.64C348.99 203.027 349.79 202.72 350.723 202.72C351.656 202.72 352.456 203.027 353.123 203.64C353.79 204.227 354.123 204.987 354.123 205.92C354.123 206.827 353.79 207.587 353.123 208.2C352.456 208.787 351.656 209.08 350.723 209.08ZM365.579 232.6C363.793 232.6 362.393 232.173 361.379 231.32C360.366 230.44 359.859 229.013 359.859 227.04C359.859 226.347 359.859 225.707 359.859 225.12C359.886 224.507 359.899 223.813 359.899 223.04V215.4H357.299V213.04L360.259 212.64L362.259 207.04H366.339L366.259 212.68H370.459V215.4H366.259V226.6C366.259 227.533 366.446 228.227 366.819 228.68C367.219 229.107 367.713 229.32 368.299 229.32C368.993 229.32 369.713 229.027 370.459 228.44L371.459 229.4C370.926 230.413 370.179 231.2 369.219 231.76C368.286 232.32 367.073 232.6 365.579 232.6ZM380.95 232V230.12L383.11 229.64C383.137 228.68 383.15 227.64 383.15 226.52C383.15 225.4 383.15 224.427 383.15 223.6V221.68C383.15 220.587 383.137 219.68 383.11 218.96C383.11 218.213 383.083 217.44 383.03 216.64L380.55 216.28V214.72L388.95 212.04L389.63 212.48L389.51 218.28V223.6C389.51 224.427 389.51 225.413 389.51 226.56C389.51 227.68 389.523 228.733 389.55 229.72L391.55 230.12V232H380.95ZM386.27 209.08C385.337 209.08 384.537 208.787 383.87 208.2C383.203 207.587 382.87 206.827 382.87 205.92C382.87 204.987 383.203 204.227 383.87 203.64C384.537 203.027 385.337 202.72 386.27 202.72C387.203 202.72 388.003 203.027 388.67 203.64C389.337 204.227 389.67 204.987 389.67 205.92C389.67 206.827 389.337 207.587 388.67 208.2C388.003 208.787 387.203 209.08 386.27 209.08ZM400.566 232.6C398.033 232.6 395.713 231.987 393.606 230.76L393.726 225.88H396.926L397.606 229.84C398.086 230.027 398.566 230.173 399.046 230.28C399.526 230.36 400.046 230.4 400.606 230.4C401.753 230.4 402.633 230.213 403.246 229.84C403.86 229.44 404.166 228.84 404.166 228.04C404.166 227.427 403.94 226.893 403.486 226.44C403.033 225.987 402.14 225.573 400.806 225.2L398.646 224.56C397.1 224.107 395.9 223.373 395.046 222.36C394.22 221.347 393.806 220.093 393.806 218.6C393.806 216.76 394.526 215.213 395.966 213.96C397.406 212.68 399.473 212.04 402.166 212.04C403.34 212.04 404.42 212.187 405.406 212.48C406.42 212.747 407.446 213.147 408.486 213.68L408.206 218.04H405.006L404.206 214.6C403.646 214.387 402.913 214.28 402.006 214.28C401.1 214.28 400.366 214.467 399.806 214.84C399.273 215.213 399.006 215.773 399.006 216.52C399.006 217.053 399.22 217.533 399.646 217.96C400.073 218.36 400.98 218.773 402.366 219.2L404.326 219.76C406.22 220.32 407.58 221.12 408.406 222.16C409.233 223.2 409.646 224.467 409.646 225.96C409.646 228.067 408.833 229.707 407.206 230.88C405.606 232.027 403.393 232.6 400.566 232.6ZM430.204 214.12C429.457 214.12 428.764 214.587 428.124 215.52C427.511 216.427 427.164 218.107 427.084 220.56H430.484C431.444 220.56 432.084 220.373 432.404 220C432.751 219.6 432.924 218.947 432.924 218.04C432.924 216.707 432.657 215.72 432.124 215.08C431.591 214.44 430.951 214.12 430.204 214.12ZM430.284 232.6C428.337 232.6 426.617 232.2 425.124 231.4C423.631 230.573 422.457 229.4 421.604 227.88C420.751 226.333 420.324 224.493 420.324 222.36C420.324 220.12 420.817 218.24 421.804 216.72C422.817 215.173 424.111 214.013 425.684 213.24C427.257 212.44 428.897 212.04 430.604 212.04C432.364 212.04 433.857 212.413 435.084 213.16C436.337 213.907 437.284 214.92 437.924 216.2C438.564 217.453 438.884 218.893 438.884 220.52C438.884 221.293 438.804 222 438.644 222.64H427.084C427.217 224.747 427.791 226.307 428.804 227.32C429.844 228.307 431.057 228.8 432.444 228.8C433.537 228.8 434.471 228.6 435.244 228.2C436.017 227.773 436.697 227.253 437.284 226.64L438.684 227.92C437.857 229.493 436.737 230.667 435.324 231.44C433.911 232.213 432.231 232.6 430.284 232.6ZM451.063 214.12C450.317 214.12 449.623 214.587 448.983 215.52C448.37 216.427 448.023 218.107 447.943 220.56H451.343C452.303 220.56 452.943 220.373 453.263 220C453.61 219.6 453.783 218.947 453.783 218.04C453.783 216.707 453.517 215.72 452.983 215.08C452.45 214.44 451.81 214.12 451.063 214.12ZM451.143 232.6C449.197 232.6 447.477 232.2 445.983 231.4C444.49 230.573 443.317 229.4 442.463 227.88C441.61 226.333 441.183 224.493 441.183 222.36C441.183 220.12 441.677 218.24 442.663 216.72C443.677 215.173 444.97 214.013 446.543 213.24C448.117 212.44 449.757 212.04 451.463 212.04C453.223 212.04 454.717 212.413 455.943 213.16C457.197 213.907 458.143 214.92 458.783 216.2C459.423 217.453 459.743 218.893 459.743 220.52C459.743 221.293 459.663 222 459.503 222.64H447.943C448.077 224.747 448.65 226.307 449.663 227.32C450.703 228.307 451.917 228.8 453.303 228.8C454.397 228.8 455.33 228.6 456.103 228.2C456.877 227.773 457.557 227.253 458.143 226.64L459.543 227.92C458.717 229.493 457.597 230.667 456.183 231.44C454.77 232.213 453.09 232.6 451.143 232.6ZM462.003 232V230.12L464.163 229.64C464.189 228.68 464.203 227.64 464.203 226.52C464.203 225.4 464.203 224.427 464.203 223.6V221.28C464.203 220.187 464.189 219.347 464.163 218.76C464.163 218.147 464.136 217.44 464.083 216.64L461.643 216.28V214.72L469.523 212.04L470.243 212.48L470.483 215.36C471.523 214.133 472.549 213.28 473.563 212.8C474.603 212.293 475.709 212.04 476.883 212.04C478.616 212.04 480.003 212.613 481.043 213.76C482.109 214.907 482.643 216.627 482.643 218.92V223.6C482.643 224.48 482.643 225.48 482.643 226.6C482.643 227.693 482.656 228.733 482.683 229.72L484.683 230.12V232H474.123V230.12L476.203 229.68C476.229 228.693 476.243 227.653 476.243 226.56C476.243 225.44 476.243 224.453 476.243 223.6V219.4C476.243 218.12 476.069 217.227 475.723 216.72C475.376 216.187 474.816 215.92 474.043 215.92C473.003 215.92 471.856 216.4 470.603 217.36V223.6C470.603 224.427 470.603 225.413 470.603 226.56C470.603 227.68 470.616 228.733 470.643 229.72L472.523 230.12V232H462.003ZM329.28 264.44V262.68H336.84V264.44L334.52 264.88L327.92 282.08H324.88L317.68 264.84L315.72 264.44V262.68H327.08V264.44L324.56 264.96L328.32 275.2L331.8 264.92L329.28 264.44ZM347.32 282.6C345.24 282.6 343.44 282.173 341.92 281.32C340.4 280.44 339.227 279.227 338.4 277.68C337.573 276.107 337.16 274.293 337.16 272.24C337.16 270.187 337.6 268.4 338.48 266.88C339.387 265.36 340.613 264.173 342.16 263.32C343.707 262.467 345.427 262.04 347.32 262.04C349.213 262.04 350.92 262.453 352.44 263.28C353.987 264.107 355.213 265.293 356.12 266.84C357.027 268.36 357.48 270.16 357.48 272.24C357.48 274.32 357.067 276.133 356.24 277.68C355.413 279.227 354.24 280.44 352.72 281.32C351.2 282.173 349.4 282.6 347.32 282.6ZM347.32 280.52C348.44 280.52 349.28 279.867 349.84 278.56C350.4 277.253 350.68 275.187 350.68 272.36C350.68 269.507 350.4 267.427 349.84 266.12C349.28 264.813 348.44 264.16 347.32 264.16C346.173 264.16 345.32 264.813 344.76 266.12C344.2 267.427 343.92 269.507 343.92 272.36C343.92 275.187 344.2 277.253 344.76 278.56C345.32 279.867 346.173 280.52 347.32 280.52ZM370.211 282.6C368.131 282.6 366.331 282.173 364.811 281.32C363.291 280.44 362.117 279.227 361.291 277.68C360.464 276.107 360.051 274.293 360.051 272.24C360.051 270.187 360.491 268.4 361.371 266.88C362.277 265.36 363.504 264.173 365.051 263.32C366.597 262.467 368.317 262.04 370.211 262.04C372.104 262.04 373.811 262.453 375.331 263.28C376.877 264.107 378.104 265.293 379.011 266.84C379.917 268.36 380.371 270.16 380.371 272.24C380.371 274.32 379.957 276.133 379.131 277.68C378.304 279.227 377.131 280.44 375.611 281.32C374.091 282.173 372.291 282.6 370.211 282.6ZM370.211 280.52C371.331 280.52 372.171 279.867 372.731 278.56C373.291 277.253 373.571 275.187 373.571 272.36C373.571 269.507 373.291 267.427 372.731 266.12C372.171 264.813 371.331 264.16 370.211 264.16C369.064 264.16 368.211 264.813 367.651 266.12C367.091 267.427 366.811 269.507 366.811 272.36C366.811 275.187 367.091 277.253 367.651 278.56C368.211 279.867 369.064 280.52 370.211 280.52ZM382.588 282V280.12L384.788 279.68C384.814 278.693 384.828 277.64 384.828 276.52C384.828 275.4 384.828 274.427 384.828 273.6V271.24C384.828 270.493 384.814 269.88 384.788 269.4C384.788 268.92 384.774 268.48 384.748 268.08C384.748 267.653 384.734 267.173 384.708 266.64L382.268 266.28V264.72L390.148 262.04L390.868 262.48L391.228 267.2C391.788 265.493 392.574 264.213 393.588 263.36C394.601 262.48 395.601 262.04 396.588 262.04C397.468 262.04 398.228 262.293 398.868 262.8C399.508 263.28 399.908 264.013 400.068 265C400.041 266.04 399.761 266.853 399.228 267.44C398.694 268 398.028 268.28 397.228 268.28C396.108 268.28 395.081 267.653 394.148 266.4L393.908 266.08C393.321 266.64 392.774 267.347 392.268 268.2C391.788 269.053 391.441 269.947 391.228 270.88V273.6C391.228 274.427 391.228 275.373 391.228 276.44C391.228 277.507 391.241 278.507 391.268 279.44L394.428 280.12V282H382.588ZM400.285 282.04V280.16L402.405 279.72C402.432 278.76 402.445 277.72 402.445 276.6C402.445 275.453 402.445 274.467 402.445 273.64V256.76L399.965 256.44V254.76L408.245 252.96L408.885 253.36L408.725 258.96V264.6C410.405 262.893 412.338 262.04 414.525 262.04C415.992 262.04 417.312 262.427 418.485 263.2C419.658 263.947 420.592 265.08 421.285 266.6C422.005 268.093 422.365 269.947 422.365 272.16C422.365 274.32 421.965 276.187 421.165 277.76C420.365 279.307 419.312 280.507 418.005 281.36C416.725 282.187 415.325 282.6 413.805 282.6C411.618 282.6 409.858 281.813 408.525 280.24L407.845 282.56L400.285 282.04ZM411.605 265.52C411.098 265.52 410.618 265.627 410.165 265.84C409.712 266.053 409.272 266.333 408.845 266.68V278.12C409.672 278.867 410.578 279.24 411.565 279.24C412.738 279.24 413.698 278.667 414.445 277.52C415.218 276.373 415.605 274.627 415.605 272.28C415.605 269.907 415.232 268.187 414.485 267.12C413.765 266.053 412.805 265.52 411.605 265.52ZM434.853 264.12C434.106 264.12 433.413 264.587 432.773 265.52C432.159 266.427 431.813 268.107 431.733 270.56H435.133C436.093 270.56 436.733 270.373 437.053 270C437.399 269.6 437.573 268.947 437.573 268.04C437.573 266.707 437.306 265.72 436.773 265.08C436.239 264.44 435.599 264.12 434.853 264.12ZM434.933 282.6C432.986 282.6 431.266 282.2 429.773 281.4C428.279 280.573 427.106 279.4 426.253 277.88C425.399 276.333 424.973 274.493 424.973 272.36C424.973 270.12 425.466 268.24 426.452 266.72C427.466 265.173 428.759 264.013 430.333 263.24C431.906 262.44 433.546 262.04 435.253 262.04C437.013 262.04 438.506 262.413 439.733 263.16C440.986 263.907 441.933 264.92 442.573 266.2C443.213 267.453 443.533 268.893 443.533 270.52C443.533 271.293 443.453 272 443.293 272.64H431.733C431.866 274.747 432.439 276.307 433.453 277.32C434.493 278.307 435.706 278.8 437.093 278.8C438.186 278.8 439.119 278.6 439.893 278.2C440.666 277.773 441.346 277.253 441.933 276.64L443.333 277.92C442.506 279.493 441.386 280.667 439.973 281.44C438.559 282.213 436.879 282.6 434.933 282.6ZM455.712 264.12C454.965 264.12 454.272 264.587 453.632 265.52C453.019 266.427 452.672 268.107 452.592 270.56H455.992C456.952 270.56 457.592 270.373 457.912 270C458.259 269.6 458.432 268.947 458.432 268.04C458.432 266.707 458.165 265.72 457.632 265.08C457.099 264.44 456.459 264.12 455.712 264.12ZM455.792 282.6C453.845 282.6 452.125 282.2 450.632 281.4C449.139 280.573 447.965 279.4 447.112 277.88C446.259 276.333 445.832 274.493 445.832 272.36C445.832 270.12 446.325 268.24 447.312 266.72C448.325 265.173 449.619 264.013 451.192 263.24C452.765 262.44 454.405 262.04 456.112 262.04C457.872 262.04 459.365 262.413 460.592 263.16C461.845 263.907 462.792 264.92 463.432 266.2C464.072 267.453 464.392 268.893 464.392 270.52C464.392 271.293 464.312 272 464.152 272.64H452.592C452.725 274.747 453.299 276.307 454.312 277.32C455.352 278.307 456.565 278.8 457.952 278.8C459.045 278.8 459.979 278.6 460.752 278.2C461.525 277.773 462.205 277.253 462.792 276.64L464.192 277.92C463.365 279.493 462.245 280.667 460.832 281.44C459.419 282.213 457.739 282.6 455.792 282.6ZM465.907 282V280.12L468.107 279.64C468.134 278.627 468.147 277.613 468.147 276.6C468.174 275.587 468.187 274.587 468.187 273.6V256.84L465.707 256.44V254.76L474.107 252.96L474.747 253.36L474.587 258.96V273.6C474.587 274.613 474.587 275.627 474.587 276.64C474.614 277.653 474.641 278.667 474.667 279.68L476.867 280.12V282H465.907ZM485.717 272.44C485.717 274.627 486.104 276.293 486.877 277.44C487.65 278.56 488.65 279.12 489.877 279.12C490.784 279.12 491.61 278.813 492.357 278.2V266.28C491.637 265.72 490.85 265.44 489.997 265.44C488.77 265.44 487.744 266.013 486.917 267.16C486.117 268.307 485.717 270.067 485.717 272.44ZM492.877 282.44L492.557 280.16C491.01 281.787 489.13 282.6 486.917 282.6C485.424 282.6 484.064 282.213 482.837 281.44C481.637 280.667 480.69 279.533 479.997 278.04C479.304 276.52 478.957 274.68 478.957 272.52C478.957 270.333 479.37 268.467 480.197 266.92C481.05 265.347 482.144 264.147 483.477 263.32C484.837 262.467 486.264 262.04 487.757 262.04C488.797 262.04 489.704 262.227 490.477 262.6C491.25 262.947 491.957 263.467 492.597 264.16V256.84L489.797 256.44V254.76L498.237 252.96L498.877 253.36L498.717 258.96V279.72L500.677 280.12V282L492.877 282.44ZM523.382 264.44V262.68H530.942V264.44L528.622 264.88L522.022 282.08H518.982L511.782 264.84L509.822 264.44V262.68H521.182V264.44L518.662 264.96L522.422 275.2L525.902 264.92L523.382 264.44ZM546.741 282.56C544.421 282.56 542.954 281.6 542.341 279.68C541.487 280.587 540.661 281.307 539.861 281.84C539.087 282.347 538.007 282.6 536.621 282.6C535.074 282.6 533.807 282.16 532.821 281.28C531.861 280.4 531.381 279.133 531.381 277.48C531.381 276.52 531.594 275.653 532.021 274.88C532.447 274.107 533.221 273.387 534.341 272.72C535.461 272.053 537.047 271.427 539.101 270.84C539.501 270.707 539.967 270.573 540.501 270.44C541.034 270.307 541.581 270.173 542.141 270.04V268.72C542.141 266.933 541.914 265.72 541.461 265.08C541.034 264.44 540.181 264.12 538.901 264.12C538.714 264.12 538.541 264.12 538.381 264.12C538.221 264.12 538.034 264.133 537.821 264.16L537.621 265.92C537.594 267.227 537.287 268.173 536.701 268.76C536.141 269.347 535.474 269.64 534.701 269.64C533.234 269.64 532.341 268.973 532.021 267.64C532.127 265.987 532.967 264.64 534.541 263.6C536.114 262.56 538.341 262.04 541.221 262.04C543.781 262.04 545.607 262.627 546.701 263.8C547.821 264.973 548.381 266.907 548.381 269.6V278.56C548.381 279.333 548.674 279.72 549.261 279.72C549.474 279.72 549.674 279.667 549.861 279.56C550.047 279.427 550.247 279.187 550.461 278.84L551.541 279.56C551.061 280.627 550.434 281.4 549.661 281.88C548.914 282.333 547.941 282.56 546.741 282.56ZM537.301 276.44C537.301 277.427 537.527 278.16 537.981 278.64C538.461 279.12 539.034 279.36 539.701 279.36C539.994 279.36 540.301 279.293 540.621 279.16C540.941 279.027 541.447 278.72 542.141 278.24V271.76C541.794 271.867 541.447 271.987 541.101 272.12C540.781 272.227 540.501 272.333 540.261 272.44C539.354 272.813 538.634 273.347 538.101 274.04C537.567 274.707 537.301 275.507 537.301 276.44ZM552.511 282V280.12L554.671 279.64C554.697 278.68 554.711 277.64 554.711 276.52C554.711 275.4 554.711 274.427 554.711 273.6V271.28C554.711 270.187 554.697 269.347 554.671 268.76C554.671 268.147 554.644 267.44 554.591 266.64L552.151 266.28V264.72L560.031 262.04L560.751 262.48L560.991 265.36C562.031 264.133 563.057 263.28 564.071 262.8C565.111 262.293 566.217 262.04 567.391 262.04C569.124 262.04 570.511 262.613 571.551 263.76C572.617 264.907 573.151 266.627 573.151 268.92V273.6C573.151 274.48 573.151 275.48 573.151 276.6C573.151 277.693 573.164 278.733 573.191 279.72L575.191 280.12V282H564.631V280.12L566.711 279.68C566.737 278.693 566.751 277.653 566.751 276.56C566.751 275.44 566.751 274.453 566.751 273.6V269.4C566.751 268.12 566.577 267.227 566.231 266.72C565.884 266.187 565.324 265.92 564.551 265.92C563.511 265.92 562.364 266.4 561.111 267.36V273.6C561.111 274.427 561.111 275.413 561.111 276.56C561.111 277.68 561.124 278.733 561.151 279.72L563.031 280.12V282H552.511ZM327.04 314.12C326.293 314.12 325.6 314.587 324.96 315.52C324.347 316.427 324 318.107 323.92 320.56H327.32C328.28 320.56 328.92 320.373 329.24 320C329.587 319.6 329.76 318.947 329.76 318.04C329.76 316.707 329.493 315.72 328.96 315.08C328.427 314.44 327.787 314.12 327.04 314.12ZM327.12 332.6C325.173 332.6 323.453 332.2 321.96 331.4C320.467 330.573 319.293 329.4 318.44 327.88C317.587 326.333 317.16 324.493 317.16 322.36C317.16 320.12 317.653 318.24 318.64 316.72C319.653 315.173 320.947 314.013 322.52 313.24C324.093 312.44 325.733 312.04 327.44 312.04C329.2 312.04 330.693 312.413 331.92 313.16C333.173 313.907 334.12 314.92 334.76 316.2C335.4 317.453 335.72 318.893 335.72 320.52C335.72 321.293 335.64 322 335.48 322.64H323.92C324.053 324.747 324.627 326.307 325.64 327.32C326.68 328.307 327.893 328.8 329.28 328.8C330.373 328.8 331.307 328.6 332.08 328.2C332.853 327.773 333.533 327.253 334.12 326.64L335.52 327.92C334.693 329.493 333.573 330.667 332.16 331.44C330.747 332.213 329.067 332.6 327.12 332.6ZM347.899 314.12C347.153 314.12 346.459 314.587 345.819 315.52C345.206 316.427 344.859 318.107 344.779 320.56H348.179C349.139 320.56 349.779 320.373 350.099 320C350.446 319.6 350.619 318.947 350.619 318.04C350.619 316.707 350.353 315.72 349.819 315.08C349.286 314.44 348.646 314.12 347.899 314.12ZM347.979 332.6C346.033 332.6 344.313 332.2 342.819 331.4C341.326 330.573 340.153 329.4 339.299 327.88C338.446 326.333 338.019 324.493 338.019 322.36C338.019 320.12 338.513 318.24 339.499 316.72C340.513 315.173 341.806 314.013 343.379 313.24C344.953 312.44 346.593 312.04 348.299 312.04C350.059 312.04 351.553 312.413 352.779 313.16C354.033 313.907 354.979 314.92 355.619 316.2C356.259 317.453 356.579 318.893 356.579 320.52C356.579 321.293 356.499 322 356.339 322.64H344.779C344.913 324.747 345.486 326.307 346.499 327.32C347.539 328.307 348.753 328.8 350.139 328.8C351.233 328.8 352.166 328.6 352.939 328.2C353.713 327.773 354.393 327.253 354.979 326.64L356.379 327.92C355.553 329.493 354.433 330.667 353.019 331.44C351.606 332.213 349.926 332.6 347.979 332.6ZM358.839 332V330.12L360.999 329.64C361.025 328.68 361.039 327.64 361.039 326.52C361.039 325.4 361.039 324.427 361.039 323.6V321.28C361.039 320.187 361.025 319.347 360.999 318.76C360.999 318.147 360.972 317.44 360.919 316.64L358.479 316.28V314.72L366.359 312.04L367.079 312.48L367.319 315.36C368.359 314.133 369.385 313.28 370.399 312.8C371.439 312.293 372.545 312.04 373.719 312.04C375.452 312.04 376.839 312.613 377.879 313.76C378.945 314.907 379.479 316.627 379.479 318.92V323.6C379.479 324.48 379.479 325.48 379.479 326.6C379.479 327.693 379.492 328.733 379.519 329.72L381.519 330.12V332H370.959V330.12L373.039 329.68C373.065 328.693 373.079 327.653 373.079 326.56C373.079 325.44 373.079 324.453 373.079 323.6V319.4C373.079 318.12 372.905 317.227 372.559 316.72C372.212 316.187 371.652 315.92 370.879 315.92C369.839 315.92 368.692 316.4 367.439 317.36V323.6C367.439 324.427 367.439 325.413 367.439 326.56C367.439 327.68 367.452 328.733 367.479 329.72L369.359 330.12V332H358.839ZM392.042 332V330.12L394.202 329.64C394.229 328.68 394.242 327.64 394.242 326.52C394.242 325.4 394.242 324.427 394.242 323.6V306.84L391.762 306.44V304.76L400.042 302.96L400.682 303.36L400.522 308.96V315.4C401.589 314.147 402.615 313.28 403.602 312.8C404.615 312.293 405.709 312.04 406.882 312.04C408.642 312.04 410.055 312.613 411.122 313.76C412.189 314.907 412.722 316.627 412.722 318.92V323.6C412.722 324.48 412.722 325.48 412.722 326.6C412.722 327.693 412.735 328.733 412.762 329.72L414.762 330.12V332H404.242V330.12L406.322 329.68C406.349 328.693 406.362 327.653 406.362 326.56C406.362 325.44 406.362 324.453 406.362 323.6V319.4C406.362 318.093 406.202 317.187 405.882 316.68C405.589 316.173 405.029 315.92 404.202 315.92C403.669 315.92 403.095 316.08 402.482 316.4C401.869 316.72 401.255 317.173 400.642 317.76V323.6C400.642 324.427 400.642 325.413 400.642 326.56C400.642 327.68 400.655 328.733 400.682 329.72L402.562 330.12V332H392.042ZM426.649 314.12C425.903 314.12 425.209 314.587 424.569 315.52C423.956 316.427 423.609 318.107 423.529 320.56H426.929C427.889 320.56 428.529 320.373 428.849 320C429.196 319.6 429.369 318.947 429.369 318.04C429.369 316.707 429.103 315.72 428.569 315.08C428.036 314.44 427.396 314.12 426.649 314.12ZM426.729 332.6C424.783 332.6 423.063 332.2 421.569 331.4C420.076 330.573 418.903 329.4 418.049 327.88C417.196 326.333 416.769 324.493 416.769 322.36C416.769 320.12 417.263 318.24 418.249 316.72C419.263 315.173 420.556 314.013 422.129 313.24C423.703 312.44 425.343 312.04 427.049 312.04C428.809 312.04 430.303 312.413 431.529 313.16C432.783 313.907 433.729 314.92 434.369 316.2C435.009 317.453 435.329 318.893 435.329 320.52C435.329 321.293 435.249 322 435.089 322.64H423.529C423.663 324.747 424.236 326.307 425.249 327.32C426.289 328.307 427.503 328.8 428.889 328.8C429.983 328.8 430.916 328.6 431.689 328.2C432.463 327.773 433.143 327.253 433.729 326.64L435.129 327.92C434.303 329.493 433.183 330.667 431.769 331.44C430.356 332.213 428.676 332.6 426.729 332.6ZM452.952 332.56C450.632 332.56 449.165 331.6 448.552 329.68C447.698 330.587 446.872 331.307 446.072 331.84C445.298 332.347 444.218 332.6 442.832 332.6C441.285 332.6 440.018 332.16 439.032 331.28C438.072 330.4 437.592 329.133 437.592 327.48C437.592 326.52 437.805 325.653 438.232 324.88C438.658 324.107 439.432 323.387 440.552 322.72C441.672 322.053 443.258 321.427 445.312 320.84C445.712 320.707 446.178 320.573 446.712 320.44C447.245 320.307 447.792 320.173 448.352 320.04V318.72C448.352 316.933 448.125 315.72 447.672 315.08C447.245 314.44 446.392 314.12 445.112 314.12C444.925 314.12 444.752 314.12 444.592 314.12C444.432 314.12 444.245 314.133 444.032 314.16L443.832 315.92C443.805 317.227 443.498 318.173 442.912 318.76C442.352 319.347 441.685 319.64 440.912 319.64C439.445 319.64 438.552 318.973 438.232 317.64C438.338 315.987 439.178 314.64 440.752 313.6C442.325 312.56 444.552 312.04 447.432 312.04C449.992 312.04 451.818 312.627 452.912 313.8C454.032 314.973 454.592 316.907 454.592 319.6V328.56C454.592 329.333 454.885 329.72 455.472 329.72C455.685 329.72 455.885 329.667 456.072 329.56C456.258 329.427 456.458 329.187 456.672 328.84L457.752 329.56C457.272 330.627 456.645 331.4 455.872 331.88C455.125 332.333 454.152 332.56 452.952 332.56ZM443.512 326.44C443.512 327.427 443.738 328.16 444.192 328.64C444.672 329.12 445.245 329.36 445.912 329.36C446.205 329.36 446.512 329.293 446.832 329.16C447.152 329.027 447.658 328.72 448.352 328.24V321.76C448.005 321.867 447.658 321.987 447.312 322.12C446.992 322.227 446.712 322.333 446.472 322.44C445.565 322.813 444.845 323.347 444.312 324.04C443.778 324.707 443.512 325.507 443.512 326.44ZM465.522 322.44C465.522 324.627 465.908 326.293 466.682 327.44C467.455 328.56 468.455 329.12 469.682 329.12C470.588 329.12 471.415 328.813 472.162 328.2V316.28C471.442 315.72 470.655 315.44 469.802 315.44C468.575 315.44 467.548 316.013 466.722 317.16C465.922 318.307 465.522 320.067 465.522 322.44ZM472.682 332.44L472.362 330.16C470.815 331.787 468.935 332.6 466.722 332.6C465.228 332.6 463.868 332.213 462.642 331.44C461.442 330.667 460.495 329.533 459.802 328.04C459.108 326.52 458.762 324.68 458.762 322.52C458.762 320.333 459.175 318.467 460.002 316.92C460.855 315.347 461.948 314.147 463.282 313.32C464.642 312.467 466.068 312.04 467.562 312.04C468.602 312.04 469.508 312.227 470.282 312.6C471.055 312.947 471.762 313.467 472.402 314.16V306.84L469.602 306.44V304.76L478.042 302.96L478.682 303.36L478.522 308.96V329.72L480.482 330.12V332L472.682 332.44ZM482.552 332V330.12L484.712 329.64C484.738 328.68 484.752 327.64 484.752 326.52C484.752 325.4 484.752 324.427 484.752 323.6V321.68C484.752 320.587 484.738 319.68 484.712 318.96C484.712 318.213 484.685 317.44 484.632 316.64L482.152 316.28V314.72L490.552 312.04L491.232 312.48L491.112 318.28V323.6C491.112 324.427 491.112 325.413 491.112 326.56C491.112 327.68 491.125 328.733 491.152 329.72L493.152 330.12V332H482.552ZM487.872 309.08C486.938 309.08 486.138 308.787 485.472 308.2C484.805 307.587 484.472 306.827 484.472 305.92C484.472 304.987 484.805 304.227 485.472 303.64C486.138 303.027 486.938 302.72 487.872 302.72C488.805 302.72 489.605 303.027 490.272 303.64C490.938 304.227 491.272 304.987 491.272 305.92C491.272 306.827 490.938 307.587 490.272 308.2C489.605 308.787 488.805 309.08 487.872 309.08ZM495.128 332V330.12L497.288 329.64C497.314 328.68 497.328 327.64 497.328 326.52C497.328 325.4 497.328 324.427 497.328 323.6V321.28C497.328 320.187 497.314 319.347 497.288 318.76C497.288 318.147 497.261 317.44 497.208 316.64L494.768 316.28V314.72L502.648 312.04L503.368 312.48L503.608 315.36C504.648 314.133 505.674 313.28 506.688 312.8C507.728 312.293 508.834 312.04 510.008 312.04C511.741 312.04 513.128 312.613 514.168 313.76C515.234 314.907 515.768 316.627 515.768 318.92V323.6C515.768 324.48 515.768 325.48 515.768 326.6C515.768 327.693 515.781 328.733 515.808 329.72L517.808 330.12V332H507.248V330.12L509.328 329.68C509.354 328.693 509.368 327.653 509.368 326.56C509.368 325.44 509.368 324.453 509.368 323.6V319.4C509.368 318.12 509.194 317.227 508.848 316.72C508.501 316.187 507.941 315.92 507.168 315.92C506.128 315.92 504.981 316.4 503.728 317.36V323.6C503.728 324.427 503.728 325.413 503.728 326.56C503.728 327.68 503.741 328.733 503.768 329.72L505.648 330.12V332H495.128ZM528.456 323.04C529.39 323.04 530.083 322.627 530.536 321.8C531.016 320.973 531.256 319.853 531.256 318.44C531.256 317.027 531.016 315.933 530.536 315.16C530.083 314.36 529.416 313.96 528.536 313.96C527.63 313.96 526.95 314.36 526.496 315.16C526.043 315.96 525.816 317.067 525.816 318.48C525.816 319.893 526.03 321.013 526.456 321.84C526.883 322.64 527.55 323.04 528.456 323.04ZM523.136 335.32C523.136 336.493 523.576 337.347 524.456 337.88C525.336 338.44 526.683 338.72 528.496 338.72C530.496 338.72 532.003 338.427 533.016 337.84C534.03 337.253 534.536 336.52 534.536 335.64C534.536 335.053 534.323 334.52 533.896 334.04C533.47 333.587 532.71 333.36 531.616 333.36H527.416C525.95 333.36 524.736 333.24 523.776 333C523.563 333.373 523.403 333.733 523.296 334.08C523.19 334.427 523.136 334.84 523.136 335.32ZM528.496 324.92C527.11 324.92 525.896 324.76 524.856 324.44C524.536 325 524.376 325.613 524.376 326.28C524.376 326.733 524.55 327.107 524.896 327.4C525.243 327.667 525.843 327.8 526.696 327.8H531.376C533.403 327.8 535.016 328.053 536.216 328.56C537.416 329.04 538.27 329.72 538.776 330.6C539.31 331.453 539.576 332.467 539.576 333.64C539.576 334.973 539.136 336.2 538.256 337.32C537.376 338.467 536.056 339.373 534.296 340.04C532.563 340.733 530.416 341.08 527.856 341.08C525.643 341.08 523.91 340.853 522.656 340.4C521.403 339.973 520.523 339.4 520.016 338.68C519.51 337.96 519.256 337.2 519.256 336.4C519.256 334.693 520.363 333.32 522.576 332.28C521.75 331.933 521.15 331.48 520.776 330.92C520.43 330.36 520.256 329.747 520.256 329.08C520.256 328.147 520.523 327.267 521.056 326.44C521.616 325.587 522.39 324.733 523.376 323.88C522.283 323.32 521.47 322.573 520.936 321.64C520.403 320.707 520.136 319.667 520.136 318.52C520.136 316.653 520.816 315.107 522.176 313.88C523.563 312.653 525.67 312.04 528.496 312.04C529.936 312.04 531.19 312.2 532.256 312.52C533.323 312.84 534.19 313.293 534.856 313.88L539.336 311.96L539.976 312.36V315.44H536.176C536.656 316.32 536.896 317.347 536.896 318.52C536.896 320.307 536.203 321.827 534.816 323.08C533.456 324.307 531.35 324.92 528.496 324.92Z" fill="#0A2750"/>
</svg>
