<svg width="960" height="540" viewBox="0 0 960 540" fill="none" xmlns="http://www.w3.org/2000/svg">
<rect x="0.5" y="0.5" width="959" height="539" fill="white"/>
<rect x="0.5" y="0.5" width="959" height="539" stroke="#CCCCCC"/>
<rect x="419" y="246" width="122" height="48" rx="8" fill="#5115EF"/>
<g clip-path="url(#clip0_1729_647)">
<path fill-rule="evenodd" clip-rule="evenodd" d="M443 260C443.552 260 444 260.448 444 261V262H450V261C450 260.448 450.448 260 451 260C451.552 260 452 260.448 452 261V262H453C454.657 262 456 263.343 456 265V277C456 278.657 454.657 280 453 280H441C439.343 280 438 278.657 438 277V265C438 263.343 439.343 262 441 262H442V261C442 260.448 442.448 260 443 260ZM442 264H441C440.448 264 440 264.448 440 265V268H454V265C454 264.448 453.552 264 453 264H452V265C452 265.552 451.552 266 451 266C450.448 266 450 265.552 450 265V264H444V265C444 265.552 443.552 266 443 266C442.448 266 442 265.552 442 265V264ZM454 270H440V277C440 277.552 440.448 278 441 278H453C453.552 278 454 277.552 454 277V270ZM442 273C442 272.448 442.448 272 443 272H445C445.552 272 446 272.448 446 273V275C446 275.552 445.552 276 445 276H443C442.448 276 442 275.552 442 275V273Z" fill="white"/>
</g>
<path d="M468.84 276H466.424V266.592H463.32V264.576H471.944V266.592H468.84V276ZM475.989 267.104C476.799 267.104 477.493 267.259 478.069 267.568C478.655 267.877 479.109 268.325 479.429 268.912C479.749 269.499 479.909 270.219 479.909 271.072V272.224H474.277C474.298 272.896 474.495 273.424 474.869 273.808C475.253 274.192 475.781 274.384 476.453 274.384C477.018 274.384 477.53 274.331 477.989 274.224C478.447 274.107 478.922 273.931 479.413 273.696V275.536C478.986 275.749 478.533 275.904 478.053 276C477.583 276.107 477.013 276.16 476.341 276.16C475.466 276.16 474.693 276 474.021 275.68C473.349 275.349 472.821 274.853 472.437 274.192C472.053 273.531 471.861 272.699 471.861 271.696C471.861 270.672 472.031 269.824 472.373 269.152C472.725 268.469 473.21 267.957 473.829 267.616C474.447 267.275 475.167 267.104 475.989 267.104ZM476.005 268.8C475.546 268.8 475.162 268.949 474.853 269.248C474.554 269.547 474.378 270.011 474.325 270.64H477.669C477.669 270.288 477.605 269.973 477.477 269.696C477.359 269.419 477.178 269.2 476.933 269.04C476.687 268.88 476.378 268.8 476.005 268.8ZM483.321 271.536L480.505 267.264H483.209L484.905 270.048L486.617 267.264H489.321L486.473 271.536L489.449 276H486.745L484.905 273.008L483.065 276H480.361L483.321 271.536ZM494.459 274.256C494.726 274.256 494.982 274.229 495.227 274.176C495.473 274.123 495.718 274.059 495.963 273.984V275.76C495.707 275.867 495.387 275.957 495.003 276.032C494.63 276.117 494.219 276.16 493.771 276.16C493.249 276.16 492.779 276.075 492.363 275.904C491.958 275.733 491.633 275.44 491.387 275.024C491.153 274.597 491.035 274.011 491.035 273.264V269.056H489.899V268.048L491.211 267.248L491.899 265.408H493.419V267.264H495.867V269.056H493.419V273.264C493.419 273.595 493.515 273.845 493.707 274.016C493.899 274.176 494.15 274.256 494.459 274.256Z" fill="white"/>
<g clip-path="url(#clip1_1729_647)">
<path fill-rule="evenodd" clip-rule="evenodd" d="M513.293 263.293C513.683 262.902 514.317 262.902 514.707 263.293L520.707 269.293C521.098 269.683 521.098 270.317 520.707 270.707L514.707 276.707C514.317 277.098 513.683 277.098 513.293 276.707C512.902 276.317 512.902 275.683 513.293 275.293L517.586 271H506C505.448 271 505 270.552 505 270C505 269.448 505.448 269 506 269H517.586L513.293 264.707C512.902 264.317 512.902 263.683 513.293 263.293Z" fill="white"/>
</g>
<path d="M447 198V246" stroke="#42144F" stroke-width="2" stroke-linecap="square" stroke-linejoin="bevel"/>
<path d="M371 270H418" stroke="#42144F" stroke-width="2" stroke-linecap="square" stroke-linejoin="bevel"/>
<path d="M517 182V246" stroke="#42144F" stroke-width="2" stroke-linecap="square" stroke-linejoin="bevel"/>
<rect x="431" y="166" width="32" height="32" rx="16" fill="#42144F"/>
<path d="M446.643 176.134C447.483 176.134 448.209 176.29 448.821 176.602C449.433 176.902 449.895 177.316 450.207 177.844C450.531 178.36 450.693 178.936 450.693 179.572C450.693 180.232 450.549 180.868 450.261 181.48C449.985 182.092 449.505 182.782 448.821 183.55C448.149 184.318 447.165 185.308 445.869 186.52H450.963L450.675 188.5H442.953V186.646C444.465 185.134 445.557 184.006 446.229 183.262C446.901 182.518 447.375 181.888 447.651 181.372C447.927 180.856 448.065 180.328 448.065 179.788C448.065 179.272 447.915 178.864 447.615 178.564C447.315 178.264 446.913 178.114 446.409 178.114C445.965 178.114 445.569 178.216 445.221 178.42C444.873 178.612 444.507 178.936 444.123 179.392L442.593 178.168C443.625 176.812 444.975 176.134 446.643 176.134Z" fill="white"/>
<rect x="339" y="254" width="32" height="32" rx="16" fill="#42144F"/>
<path d="M357.502 264.368V276.5H355V266.888L352.336 268.526L351.22 266.798L355.252 264.368H357.502Z" fill="white"/>
<path d="M482 182V246" stroke="#42144F" stroke-width="2" stroke-linecap="square" stroke-linejoin="bevel"/>
<rect x="501" y="166" width="32" height="32" rx="16" fill="#42144F"/>
<path d="M521.602 183.856V185.8H520.18V188.5H517.696L517.678 185.8H512.548V184.072L516.04 176.098L518.2 176.908L515.194 183.856H517.714L517.984 180.886H520.18V183.856H521.602Z" fill="white"/>
<rect x="466" y="166" width="32" height="32" rx="16" fill="#42144F"/>
<path d="M481.598 176.134C482.426 176.134 483.134 176.272 483.722 176.548C484.322 176.812 484.772 177.178 485.072 177.646C485.384 178.114 485.54 178.636 485.54 179.212C485.54 179.944 485.33 180.556 484.91 181.048C484.49 181.528 483.908 181.87 483.164 182.074C483.98 182.158 484.646 182.452 485.162 182.956C485.678 183.46 485.936 184.162 485.936 185.062C485.936 185.758 485.756 186.388 485.396 186.952C485.048 187.516 484.532 187.966 483.848 188.302C483.164 188.626 482.354 188.788 481.418 188.788C479.702 188.788 478.358 188.188 477.386 186.988L478.772 185.656C479.18 186.064 479.582 186.358 479.978 186.538C480.374 186.718 480.806 186.808 481.274 186.808C481.898 186.808 482.39 186.64 482.75 186.304C483.122 185.968 483.308 185.5 483.308 184.9C483.308 184.252 483.134 183.784 482.786 183.496C482.438 183.208 481.916 183.064 481.22 183.064H480.23L480.536 181.264H481.202C481.766 181.264 482.216 181.114 482.552 180.814C482.888 180.514 483.056 180.094 483.056 179.554C483.056 179.086 482.9 178.72 482.588 178.456C482.288 178.192 481.874 178.06 481.346 178.06C480.89 178.06 480.47 178.144 480.086 178.312C479.702 178.48 479.324 178.744 478.952 179.104L477.674 177.718C478.79 176.662 480.098 176.134 481.598 176.134Z" fill="white"/>
<defs>
<clipPath id="clip0_1729_647">
<rect width="24" height="24" fill="white" transform="translate(435 258)"/>
</clipPath>
<clipPath id="clip1_1729_647">
<rect width="24" height="24" fill="white" transform="translate(501 258)"/>
</clipPath>
</defs>
</svg>
