<svg width="960" height="540" viewBox="0 0 960 540" fill="none" xmlns="http://www.w3.org/2000/svg">
<rect x="0.5" y="0.5" width="959" height="539" fill="white"/>
<rect x="0.5" y="0.5" width="959" height="539" stroke="#CCCCCC"/>
<rect x="316" y="122" width="328" height="296" rx="4" fill="#F2F4F6"/>
<path d="M339.56 145.496L340.208 146.528L334.56 149.992L340.208 153.488L339.488 154.472L333.408 150.672V149.296L339.56 145.496ZM347.106 143.984L346.97 151.368H345.762L345.602 143.984H347.106ZM346.378 153.04C346.687 153.04 346.943 153.144 347.146 153.352C347.354 153.56 347.458 153.811 347.458 154.104C347.458 154.403 347.354 154.659 347.146 154.872C346.943 155.08 346.687 155.184 346.378 155.184C346.074 155.184 345.82 155.08 345.618 154.872C345.415 154.659 345.314 154.403 345.314 154.104C345.314 153.811 345.415 153.56 345.618 153.352C345.82 153.144 346.074 153.04 346.378 153.04ZM358.548 149.44C358.548 148.48 358.446 147.712 358.244 147.136C358.041 146.56 357.774 146.128 357.444 145.84C357.113 145.552 356.75 145.36 356.356 145.264C355.966 145.168 355.582 145.12 355.204 145.12H353.908V153.888H355.22C355.614 153.888 356.006 153.827 356.396 153.704C356.79 153.576 357.15 153.352 357.476 153.032C357.801 152.707 358.06 152.256 358.252 151.68C358.449 151.099 358.548 150.352 358.548 149.44ZM360.028 149.44C360.028 150.357 359.929 151.141 359.732 151.792C359.54 152.437 359.276 152.971 358.94 153.392C358.604 153.813 358.22 154.141 357.788 154.376C357.361 154.605 356.91 154.768 356.436 154.864C355.966 154.955 355.505 155 355.052 155H352.524V143.984H354.876C355.521 143.984 356.148 144.056 356.756 144.2C357.369 144.344 357.921 144.611 358.412 145C358.908 145.384 359.3 145.933 359.588 146.648C359.881 147.363 360.028 148.293 360.028 149.44ZM369.637 149.504C369.637 150.613 369.485 151.597 369.181 152.456C368.883 153.309 368.432 153.979 367.829 154.464C367.227 154.944 366.477 155.184 365.581 155.184C364.691 155.184 363.941 154.949 363.333 154.48C362.731 154.005 362.277 153.344 361.973 152.496C361.675 151.648 361.525 150.656 361.525 149.52C361.525 148.405 361.675 147.419 361.973 146.56C362.277 145.701 362.731 145.029 363.333 144.544C363.941 144.053 364.691 143.808 365.581 143.808C366.477 143.808 367.227 144.045 367.829 144.52C368.432 144.995 368.883 145.659 369.181 146.512C369.485 147.365 369.637 148.363 369.637 149.504ZM368.181 149.504C368.181 148.037 367.979 146.915 367.573 146.136C367.173 145.357 366.509 144.968 365.581 144.968C364.653 144.968 363.987 145.36 363.581 146.144C363.181 146.928 362.981 148.053 362.981 149.52C362.981 150.987 363.189 152.104 363.605 152.872C364.021 153.635 364.68 154.016 365.581 154.016C366.509 154.016 367.173 153.632 367.573 152.864C367.979 152.091 368.181 150.971 368.181 149.504ZM376.103 143.808C376.823 143.808 377.426 143.899 377.911 144.08C378.396 144.261 378.858 144.528 379.295 144.88L378.519 145.784C378.172 145.491 377.804 145.283 377.415 145.16C377.031 145.032 376.628 144.968 376.207 144.968C375.604 144.968 375.047 145.112 374.535 145.4C374.023 145.683 373.61 146.155 373.295 146.816C372.986 147.472 372.831 148.363 372.831 149.488C372.831 150.581 372.978 151.459 373.271 152.12C373.57 152.781 373.972 153.259 374.479 153.552C374.986 153.845 375.551 153.992 376.175 153.992C376.794 153.992 377.3 153.899 377.695 153.712C378.095 153.525 378.442 153.312 378.735 153.072L379.455 153.984C379.119 154.309 378.682 154.592 378.143 154.832C377.604 155.067 376.943 155.184 376.159 155.184C375.268 155.184 374.46 154.965 373.735 154.528C373.015 154.091 372.444 153.451 372.023 152.608C371.602 151.76 371.391 150.72 371.391 149.488C371.391 148.251 371.604 147.211 372.031 146.368C372.463 145.525 373.036 144.888 373.751 144.456C374.471 144.024 375.255 143.808 376.103 143.808ZM385.433 145.176V155H384.049V145.176H380.609V143.984H388.921L388.777 145.176H385.433ZM395.067 150.752V155H393.659V150.768L389.939 143.984H391.475L394.395 149.504L397.347 143.984H398.786L395.067 150.752ZM406.58 147.384C406.58 146.813 406.468 146.363 406.244 146.032C406.02 145.696 405.714 145.456 405.324 145.312C404.935 145.163 404.49 145.088 403.988 145.088H402.396V149.792H403.932C404.45 149.792 404.906 149.723 405.3 149.584C405.695 149.44 406.007 149.195 406.236 148.848C406.466 148.496 406.58 148.008 406.58 147.384ZM408.068 147.368C408.068 148.227 407.884 148.915 407.516 149.432C407.154 149.949 406.652 150.325 406.012 150.56C405.372 150.795 404.636 150.912 403.804 150.912H402.396V155H401.004V143.984H403.82C405.132 143.984 406.167 144.261 406.924 144.816C407.687 145.365 408.068 146.216 408.068 147.368ZM412.15 145.12V148.832H416.23V149.976H412.15V153.888H417.158V155H410.758V143.984H417.014L416.854 145.12H412.15ZM430.89 143.056V147.728C431.22 147.285 431.626 146.955 432.106 146.736C432.591 146.512 433.082 146.4 433.578 146.4C434.399 146.4 434.999 146.619 435.378 147.056C435.756 147.493 435.946 148.101 435.946 148.88V155H434.602V148.912C434.602 148.405 434.484 148.037 434.25 147.808C434.015 147.573 433.647 147.456 433.146 147.456C432.826 147.456 432.522 147.528 432.234 147.672C431.946 147.816 431.687 147.995 431.458 148.208C431.228 148.421 431.039 148.64 430.89 148.864V155H429.546V143.2L430.89 143.056ZM445.827 154.576C445.539 154.768 445.19 154.917 444.779 155.024C444.369 155.131 443.966 155.184 443.571 155.184C442.665 155.184 441.966 154.947 441.475 154.472C440.985 153.997 440.739 153.387 440.739 152.64V147.616H438.803V146.576H440.739V144.664L442.083 144.504V146.576H444.995L444.835 147.616H442.083V152.624C442.083 153.093 442.206 153.451 442.451 153.696C442.702 153.941 443.115 154.064 443.691 154.064C444.006 154.064 444.297 154.027 444.563 153.952C444.83 153.877 445.078 153.781 445.307 153.664L445.827 154.576ZM454.285 146.4C454.557 146.4 454.816 146.459 455.061 146.576C455.312 146.693 455.517 146.92 455.677 147.256C455.837 147.592 455.917 148.083 455.917 148.728V155H454.669V148.944C454.669 148.416 454.637 148.035 454.573 147.8C454.509 147.565 454.325 147.448 454.021 147.448C453.77 147.448 453.52 147.528 453.269 147.688C453.024 147.843 452.784 148.099 452.549 148.456V155H451.293V148.944C451.293 148.416 451.261 148.035 451.197 147.8C451.133 147.565 450.949 147.448 450.645 147.448C450.384 147.448 450.13 147.528 449.885 147.688C449.645 147.843 449.408 148.099 449.173 148.456V155H447.933V146.576H448.989L449.069 147.552C449.298 147.227 449.554 146.955 449.837 146.736C450.125 146.512 450.48 146.4 450.901 146.4C451.221 146.4 451.522 146.477 451.805 146.632C452.088 146.781 452.296 147.075 452.429 147.512C452.658 147.181 452.917 146.915 453.205 146.712C453.493 146.504 453.853 146.4 454.285 146.4ZM461.607 143.184V152.92C461.607 153.336 461.735 153.632 461.991 153.808C462.252 153.979 462.588 154.064 462.999 154.064C463.255 154.064 463.497 154.037 463.727 153.984C463.956 153.931 464.185 153.859 464.415 153.768L464.775 154.752C464.545 154.864 464.26 154.963 463.919 155.048C463.583 155.139 463.201 155.184 462.775 155.184C462.028 155.184 461.423 154.979 460.959 154.568C460.495 154.152 460.263 153.579 460.263 152.848V144.248H457.679V143.184H461.607ZM468.368 145.496L474.521 149.296V150.672L468.449 154.472L467.721 153.48L473.369 149.992L467.721 146.512L468.368 145.496ZM339.56 169.496L340.208 170.528L334.56 173.992L340.208 177.488L339.488 178.472L333.408 174.672V173.296L339.56 169.496ZM344.546 167.056V171.728C344.876 171.285 345.282 170.955 345.762 170.736C346.247 170.512 346.738 170.4 347.234 170.4C348.055 170.4 348.655 170.619 349.034 171.056C349.412 171.493 349.602 172.101 349.602 172.88V179H348.258V172.912C348.258 172.405 348.14 172.037 347.906 171.808C347.671 171.573 347.303 171.456 346.802 171.456C346.482 171.456 346.178 171.528 345.89 171.672C345.602 171.816 345.343 171.995 345.114 172.208C344.884 172.421 344.695 172.64 344.546 172.864V179H343.202V167.2L344.546 167.056ZM359.484 178.576C359.196 178.768 358.846 178.917 358.436 179.024C358.025 179.131 357.622 179.184 357.228 179.184C356.321 179.184 355.622 178.947 355.132 178.472C354.641 177.997 354.396 177.387 354.396 176.64V171.616H352.46V170.576H354.396V168.664L355.74 168.504V170.576H358.652L358.492 171.616H355.74V176.624C355.74 177.093 355.862 177.451 356.108 177.696C356.358 177.941 356.772 178.064 357.348 178.064C357.662 178.064 357.953 178.027 358.22 177.952C358.486 177.877 358.734 177.781 358.964 177.664L359.484 178.576ZM367.941 170.4C368.213 170.4 368.472 170.459 368.717 170.576C368.968 170.693 369.173 170.92 369.333 171.256C369.493 171.592 369.573 172.083 369.573 172.728V179H368.325V172.944C368.325 172.416 368.293 172.035 368.229 171.8C368.165 171.565 367.981 171.448 367.677 171.448C367.427 171.448 367.176 171.528 366.925 171.688C366.68 171.843 366.44 172.099 366.205 172.456V179H364.949V172.944C364.949 172.416 364.917 172.035 364.853 171.8C364.789 171.565 364.605 171.448 364.301 171.448C364.04 171.448 363.787 171.528 363.541 171.688C363.301 171.843 363.064 172.099 362.829 172.456V179H361.589V170.576H362.645L362.725 171.552C362.955 171.227 363.211 170.955 363.493 170.736C363.781 170.512 364.136 170.4 364.557 170.4C364.877 170.4 365.179 170.477 365.461 170.632C365.744 170.781 365.952 171.075 366.085 171.512C366.315 171.181 366.573 170.915 366.861 170.712C367.149 170.504 367.509 170.4 367.941 170.4ZM375.263 167.184V176.92C375.263 177.336 375.391 177.632 375.647 177.808C375.908 177.979 376.244 178.064 376.655 178.064C376.911 178.064 377.154 178.037 377.383 177.984C377.612 177.931 377.842 177.859 378.071 177.768L378.431 178.752C378.202 178.864 377.916 178.963 377.575 179.048C377.239 179.139 376.858 179.184 376.431 179.184C375.684 179.184 375.079 178.979 374.615 178.568C374.151 178.152 373.919 177.579 373.919 176.848V168.248H371.335V167.184H375.263ZM394.451 167.184V176.92C394.451 177.336 394.579 177.632 394.835 177.808C395.096 177.979 395.432 178.064 395.843 178.064C396.099 178.064 396.341 178.037 396.571 177.984C396.8 177.931 397.029 177.859 397.259 177.768L397.619 178.752C397.389 178.864 397.104 178.963 396.763 179.048C396.427 179.139 396.045 179.184 395.619 179.184C394.872 179.184 394.267 178.979 393.803 178.568C393.339 178.152 393.107 177.579 393.107 176.848V168.248H390.523V167.184H394.451ZM406.796 177.16C406.796 177.496 406.852 177.741 406.964 177.896C407.076 178.051 407.25 178.165 407.484 178.24L407.156 179.184C406.794 179.136 406.476 179.021 406.204 178.84C405.932 178.653 405.735 178.373 405.612 178C405.308 178.389 404.93 178.685 404.476 178.888C404.023 179.085 403.522 179.184 402.972 179.184C402.13 179.184 401.466 178.947 400.98 178.472C400.495 177.997 400.252 177.368 400.252 176.584C400.252 175.715 400.591 175.048 401.268 174.584C401.946 174.12 402.924 173.888 404.204 173.888H405.444V173.184C405.444 172.576 405.266 172.147 404.908 171.896C404.556 171.64 404.066 171.512 403.436 171.512C403.159 171.512 402.834 171.547 402.46 171.616C402.087 171.68 401.682 171.789 401.244 171.944L400.892 170.928C401.41 170.736 401.895 170.6 402.348 170.52C402.802 170.44 403.234 170.4 403.644 170.4C404.695 170.4 405.482 170.645 406.004 171.136C406.532 171.621 406.796 172.283 406.796 173.12V177.16ZM403.316 178.16C403.732 178.16 404.13 178.056 404.508 177.848C404.887 177.635 405.199 177.341 405.444 176.968V174.8H404.228C403.3 174.8 402.644 174.96 402.26 175.28C401.882 175.6 401.692 176.029 401.692 176.568C401.692 177.091 401.826 177.488 402.092 177.76C402.364 178.027 402.772 178.16 403.316 178.16ZM410.358 179V170.576H411.502L411.606 171.744C411.947 171.312 412.374 170.981 412.886 170.752C413.403 170.517 413.905 170.4 414.39 170.4C415.217 170.4 415.817 170.619 416.19 171.056C416.569 171.493 416.758 172.101 416.758 172.88V179H415.414V173.872C415.414 173.296 415.382 172.832 415.318 172.48C415.254 172.123 415.121 171.864 414.918 171.704C414.715 171.539 414.401 171.456 413.974 171.456C413.643 171.456 413.331 171.528 413.038 171.672C412.75 171.816 412.491 171.997 412.262 172.216C412.038 172.429 411.851 172.645 411.702 172.864V179H410.358ZM426.8 169.68L427.216 170.944C426.858 171.056 426.477 171.125 426.072 171.152C425.666 171.179 425.226 171.192 424.752 171.192C425.237 171.416 425.602 171.707 425.848 172.064C426.093 172.416 426.216 172.832 426.216 173.312C426.216 173.867 426.09 174.36 425.84 174.792C425.589 175.224 425.226 175.563 424.752 175.808C424.282 176.053 423.714 176.176 423.048 176.176C422.765 176.176 422.528 176.163 422.336 176.136C422.149 176.109 421.968 176.069 421.792 176.016C421.664 176.101 421.557 176.219 421.472 176.368C421.392 176.517 421.352 176.672 421.352 176.832C421.352 177.035 421.432 177.203 421.592 177.336C421.752 177.469 422.048 177.536 422.48 177.536H424C424.565 177.536 425.072 177.637 425.52 177.84C425.973 178.043 426.328 178.315 426.584 178.656C426.845 178.997 426.976 179.387 426.976 179.824C426.976 180.651 426.624 181.285 425.92 181.728C425.221 182.171 424.232 182.392 422.952 182.392C422.056 182.392 421.349 182.299 420.832 182.112C420.314 181.931 419.944 181.651 419.72 181.272C419.501 180.899 419.392 180.427 419.392 179.856H420.608C420.608 180.181 420.672 180.451 420.8 180.664C420.928 180.877 421.16 181.035 421.496 181.136C421.832 181.243 422.314 181.296 422.944 181.296C423.562 181.296 424.066 181.243 424.456 181.136C424.85 181.035 425.141 180.88 425.328 180.672C425.52 180.469 425.616 180.216 425.616 179.912C425.616 179.512 425.434 179.211 425.072 179.008C424.709 178.805 424.256 178.704 423.712 178.704H422.208C421.482 178.704 420.946 178.544 420.6 178.224C420.258 177.904 420.088 177.536 420.088 177.12C420.088 176.848 420.165 176.584 420.32 176.328C420.48 176.072 420.712 175.845 421.016 175.648C420.53 175.392 420.173 175.075 419.944 174.696C419.714 174.317 419.6 173.859 419.6 173.32C419.6 172.749 419.741 172.245 420.024 171.808C420.306 171.365 420.701 171.019 421.208 170.768C421.714 170.517 422.298 170.392 422.96 170.392C423.669 170.387 424.245 170.357 424.688 170.304C425.13 170.245 425.509 170.163 425.824 170.056C426.144 169.949 426.469 169.824 426.8 169.68ZM422.96 171.376C422.282 171.376 421.781 171.56 421.456 171.928C421.136 172.291 420.976 172.755 420.976 173.32C420.976 173.891 421.141 174.36 421.472 174.728C421.802 175.096 422.309 175.28 422.992 175.28C423.589 175.28 424.042 175.107 424.352 174.76C424.666 174.413 424.824 173.931 424.824 173.312C424.824 172.677 424.666 172.197 424.352 171.872C424.042 171.541 423.578 171.376 422.96 171.376ZM435.85 171.928V173.088H429.626V171.928H435.85ZM435.85 174.96V176.128H429.626V174.96H435.85ZM440.403 171.344L440.147 167.184H441.835L441.587 171.344H440.403ZM443.075 171.344L442.835 167.184H444.515L444.259 171.344H443.075ZM448.733 179V170.576H449.877L449.981 171.744C450.322 171.312 450.749 170.981 451.261 170.752C451.778 170.517 452.28 170.4 452.765 170.4C453.592 170.4 454.192 170.619 454.565 171.056C454.944 171.493 455.133 172.101 455.133 172.88V179H453.789V173.872C453.789 173.296 453.757 172.832 453.693 172.48C453.629 172.123 453.496 171.864 453.293 171.704C453.09 171.539 452.776 171.456 452.349 171.456C452.018 171.456 451.706 171.528 451.413 171.672C451.125 171.816 450.866 171.997 450.637 172.216C450.413 172.429 450.226 172.645 450.077 172.864V179H448.733ZM461.607 167.184V176.92C461.607 177.336 461.735 177.632 461.991 177.808C462.252 177.979 462.588 178.064 462.999 178.064C463.255 178.064 463.497 178.037 463.727 177.984C463.956 177.931 464.185 177.859 464.415 177.768L464.775 178.752C464.545 178.864 464.26 178.963 463.919 179.048C463.583 179.139 463.201 179.184 462.775 179.184C462.028 179.184 461.423 178.979 460.959 178.568C460.495 178.152 460.263 177.579 460.263 176.848V168.248H457.679V167.184H461.607ZM469.185 171.344L468.929 167.184H470.617L470.369 171.344H469.185ZM471.857 171.344L471.617 167.184H473.297L473.041 171.344H471.857ZM492.148 167.016L493.492 167.184V179H492.316L492.188 177.888C491.873 178.336 491.511 178.664 491.1 178.872C490.695 179.08 490.26 179.184 489.796 179.184C489.065 179.184 488.463 179 487.988 178.632C487.513 178.264 487.161 177.752 486.932 177.096C486.703 176.435 486.588 175.669 486.588 174.8C486.588 173.957 486.719 173.205 486.98 172.544C487.241 171.877 487.617 171.355 488.108 170.976C488.604 170.592 489.199 170.4 489.892 170.4C490.377 170.4 490.804 170.485 491.172 170.656C491.54 170.821 491.865 171.067 492.148 171.392V167.016ZM490.244 171.48C489.54 171.48 488.999 171.755 488.62 172.304C488.241 172.853 488.052 173.685 488.052 174.8C488.052 175.525 488.129 176.133 488.284 176.624C488.439 177.115 488.665 177.483 488.964 177.728C489.268 177.973 489.639 178.096 490.076 178.096C490.556 178.096 490.964 177.96 491.3 177.688C491.641 177.416 491.924 177.109 492.148 176.768V172.56C491.919 172.219 491.641 171.955 491.316 171.768C490.991 171.576 490.633 171.48 490.244 171.48ZM500.966 170.576V177.936H503.342V179H497.022V177.936H499.622V171.64H497.102V170.576H500.966ZM499.894 166.632C500.192 166.632 500.43 166.723 500.606 166.904C500.787 167.085 500.878 167.307 500.878 167.568C500.878 167.84 500.787 168.069 500.606 168.256C500.43 168.437 500.192 168.528 499.894 168.528C499.611 168.528 499.379 168.437 499.198 168.256C499.016 168.069 498.926 167.84 498.926 167.568C498.926 167.307 499.016 167.085 499.198 166.904C499.379 166.723 499.611 166.632 499.894 166.632ZM506.376 179V177.968H507.688V171.608H506.376V170.576H508.712L508.96 172.568C509.285 171.875 509.68 171.339 510.144 170.96C510.608 170.581 511.221 170.392 511.984 170.392C512.218 170.392 512.426 170.411 512.608 170.448C512.794 170.48 512.984 170.523 513.176 170.576L512.784 171.776C512.608 171.728 512.448 171.693 512.304 171.672C512.16 171.645 511.994 171.632 511.808 171.632C511.162 171.632 510.608 171.861 510.144 172.32C509.68 172.779 509.309 173.472 509.032 174.4V177.968H510.744V179H506.376ZM511.88 173.424V171.592L512.016 170.576H513.176L512.984 173.424H511.88ZM522.193 171.928V173.088H515.969V171.928H522.193ZM522.193 174.96V176.128H515.969V174.96H522.193ZM526.747 171.344L526.491 167.184H528.179L527.931 171.344H526.747ZM529.419 171.344L529.179 167.184H530.859L530.603 171.344H529.419ZM538.357 167.184V176.92C538.357 177.336 538.485 177.632 538.741 177.808C539.002 177.979 539.338 178.064 539.749 178.064C540.005 178.064 540.247 178.037 540.477 177.984C540.706 177.931 540.935 177.859 541.165 177.768L541.525 178.752C541.295 178.864 541.01 178.963 540.669 179.048C540.333 179.139 539.951 179.184 539.525 179.184C538.778 179.184 538.173 178.979 537.709 178.568C537.245 178.152 537.013 177.579 537.013 176.848V168.248H534.429V167.184H538.357ZM551.359 178.576C551.071 178.768 550.721 178.917 550.311 179.024C549.9 179.131 549.497 179.184 549.103 179.184C548.196 179.184 547.497 178.947 547.007 178.472C546.516 177.997 546.271 177.387 546.271 176.64V171.616H544.335V170.576H546.271V168.664L547.615 168.504V170.576H550.527L550.367 171.616H547.615V176.624C547.615 177.093 547.737 177.451 547.983 177.696C548.233 177.941 548.647 178.064 549.223 178.064C549.537 178.064 549.828 178.027 550.095 177.952C550.361 177.877 550.609 177.781 550.839 177.664L551.359 178.576ZM554.344 179V177.968H555.656V171.608H554.344V170.576H556.68L556.928 172.568C557.254 171.875 557.648 171.339 558.112 170.96C558.576 170.581 559.19 170.392 559.952 170.392C560.187 170.392 560.395 170.411 560.576 170.448C560.763 170.48 560.952 170.523 561.144 170.576L560.752 171.776C560.576 171.728 560.416 171.693 560.272 171.672C560.128 171.645 559.963 171.632 559.776 171.632C559.131 171.632 558.576 171.861 558.112 172.32C557.648 172.779 557.278 173.472 557 174.4V177.968H558.712V179H554.344ZM559.848 173.424V171.592L559.984 170.576H561.144L560.952 173.424H559.848ZM565.122 171.344L564.866 167.184H566.554L566.306 171.344H565.122ZM567.794 171.344L567.554 167.184H569.234L568.978 171.344H567.794ZM573.9 169.496L580.052 173.296V174.672L573.98 178.472L573.252 177.48L578.9 173.992L573.252 170.512L573.9 169.496ZM358.748 193.496L359.396 194.528L353.748 197.992L359.396 201.488L358.676 202.472L352.596 198.672V197.296L358.748 193.496ZM363.733 191.056V195.728C364.064 195.285 364.469 194.955 364.949 194.736C365.435 194.512 365.925 194.4 366.421 194.4C367.243 194.4 367.843 194.619 368.221 195.056C368.6 195.493 368.789 196.101 368.789 196.88V203H367.445V196.912C367.445 196.405 367.328 196.037 367.093 195.808C366.859 195.573 366.491 195.456 365.989 195.456C365.669 195.456 365.365 195.528 365.077 195.672C364.789 195.816 364.531 195.995 364.301 196.208C364.072 196.421 363.883 196.64 363.733 196.864V203H362.389V191.2L363.733 191.056ZM373.039 199.264C373.066 199.915 373.191 200.448 373.415 200.864C373.639 201.275 373.935 201.579 374.303 201.776C374.671 201.968 375.071 202.064 375.503 202.064C375.935 202.064 376.324 202 376.671 201.872C377.023 201.744 377.383 201.555 377.751 201.304L378.383 202.192C377.988 202.501 377.538 202.744 377.031 202.92C376.53 203.096 376.015 203.184 375.487 203.184C374.671 203.184 373.975 203 373.399 202.632C372.823 202.264 372.383 201.752 372.079 201.096C371.78 200.435 371.631 199.669 371.631 198.8C371.631 197.947 371.783 197.189 372.087 196.528C372.391 195.867 372.818 195.347 373.367 194.968C373.916 194.589 374.564 194.4 375.311 194.4C376.02 194.4 376.631 194.568 377.143 194.904C377.655 195.235 378.047 195.709 378.319 196.328C378.596 196.941 378.735 197.675 378.735 198.528C378.735 198.672 378.732 198.808 378.727 198.936C378.722 199.059 378.714 199.168 378.703 199.264H373.039ZM375.327 195.504C374.703 195.504 374.18 195.725 373.759 196.168C373.343 196.611 373.106 197.296 373.047 198.224H377.439C377.423 197.323 377.226 196.645 376.847 196.192C376.468 195.733 375.962 195.504 375.327 195.504ZM387.609 201.16C387.609 201.496 387.665 201.741 387.777 201.896C387.889 202.051 388.062 202.165 388.297 202.24L387.969 203.184C387.606 203.136 387.289 203.021 387.017 202.84C386.745 202.653 386.547 202.373 386.425 202C386.121 202.389 385.742 202.685 385.289 202.888C384.835 203.085 384.334 203.184 383.785 203.184C382.942 203.184 382.278 202.947 381.793 202.472C381.307 201.997 381.065 201.368 381.065 200.584C381.065 199.715 381.403 199.048 382.081 198.584C382.758 198.12 383.737 197.888 385.017 197.888H386.257V197.184C386.257 196.576 386.078 196.147 385.721 195.896C385.369 195.64 384.878 195.512 384.249 195.512C383.971 195.512 383.646 195.547 383.273 195.616C382.899 195.68 382.494 195.789 382.057 195.944L381.705 194.928C382.222 194.736 382.707 194.6 383.161 194.52C383.614 194.44 384.046 194.4 384.457 194.4C385.507 194.4 386.294 194.645 386.817 195.136C387.345 195.621 387.609 196.283 387.609 197.12V201.16ZM384.129 202.16C384.545 202.16 384.942 202.056 385.321 201.848C385.699 201.635 386.011 201.341 386.257 200.968V198.8H385.041C384.113 198.8 383.457 198.96 383.073 199.28C382.694 199.6 382.505 200.029 382.505 200.568C382.505 201.091 382.638 201.488 382.905 201.76C383.177 202.027 383.585 202.16 384.129 202.16ZM396.211 191.016L397.555 191.184V203H396.379L396.251 201.888C395.936 202.336 395.573 202.664 395.163 202.872C394.757 203.08 394.323 203.184 393.859 203.184C393.128 203.184 392.525 203 392.051 202.632C391.576 202.264 391.224 201.752 390.995 201.096C390.765 200.435 390.651 199.669 390.651 198.8C390.651 197.957 390.781 197.205 391.043 196.544C391.304 195.877 391.68 195.355 392.171 194.976C392.667 194.592 393.261 194.4 393.955 194.4C394.44 194.4 394.867 194.485 395.235 194.656C395.603 194.821 395.928 195.067 396.211 195.392V191.016ZM394.307 195.48C393.603 195.48 393.061 195.755 392.683 196.304C392.304 196.853 392.115 197.685 392.115 198.8C392.115 199.525 392.192 200.133 392.347 200.624C392.501 201.115 392.728 201.483 393.027 201.728C393.331 201.973 393.701 202.096 394.139 202.096C394.619 202.096 395.027 201.96 395.363 201.688C395.704 201.416 395.987 201.109 396.211 200.768V196.56C395.981 196.219 395.704 195.955 395.379 195.768C395.053 195.576 394.696 195.48 394.307 195.48ZM401.212 193.496L407.364 197.296V198.672L401.292 202.472L400.564 201.48L406.212 197.992L400.564 194.512L401.212 193.496ZM377.935 217.496L378.583 218.528L372.935 221.992L378.583 225.488L377.863 226.472L371.783 222.672V221.296L377.935 217.496ZM388.265 226.576C387.977 226.768 387.627 226.917 387.217 227.024C386.806 227.131 386.403 227.184 386.009 227.184C385.102 227.184 384.403 226.947 383.913 226.472C383.422 225.997 383.177 225.387 383.177 224.64V219.616H381.241V218.576H383.177V216.664L384.521 216.504V218.576H387.433L387.273 219.616H384.521V224.624C384.521 225.093 384.643 225.451 384.889 225.696C385.139 225.941 385.553 226.064 386.129 226.064C386.443 226.064 386.734 226.027 387.001 225.952C387.267 225.877 387.515 225.781 387.745 225.664L388.265 226.576ZM395.435 218.576V225.936H397.811V227H391.491V225.936H394.091V219.64H391.571V218.576H395.435ZM394.363 214.632C394.661 214.632 394.899 214.723 395.075 214.904C395.256 215.085 395.347 215.307 395.347 215.568C395.347 215.84 395.256 216.069 395.075 216.256C394.899 216.437 394.661 216.528 394.363 216.528C394.08 216.528 393.848 216.437 393.667 216.256C393.485 216.069 393.395 215.84 393.395 215.568C393.395 215.307 393.485 215.085 393.667 214.904C393.848 214.723 394.08 214.632 394.363 214.632ZM407.452 226.576C407.164 226.768 406.815 226.917 406.404 227.024C405.994 227.131 405.591 227.184 405.196 227.184C404.29 227.184 403.591 226.947 403.1 226.472C402.61 225.997 402.364 225.387 402.364 224.64V219.616H400.428V218.576H402.364V216.664L403.708 216.504V218.576H406.62L406.46 219.616H403.708V224.624C403.708 225.093 403.831 225.451 404.076 225.696C404.327 225.941 404.74 226.064 405.316 226.064C405.631 226.064 405.922 226.027 406.188 225.952C406.455 225.877 406.703 225.781 406.932 225.664L407.452 226.576ZM413.638 215.184V224.92C413.638 225.336 413.766 225.632 414.022 225.808C414.283 225.979 414.619 226.064 415.03 226.064C415.286 226.064 415.529 226.037 415.758 225.984C415.987 225.931 416.217 225.859 416.446 225.768L416.806 226.752C416.577 226.864 416.291 226.963 415.95 227.048C415.614 227.139 415.233 227.184 414.806 227.184C414.059 227.184 413.454 226.979 412.99 226.568C412.526 226.152 412.294 225.579 412.294 224.848V216.248H409.71V215.184H413.638ZM421.008 223.264C421.034 223.915 421.16 224.448 421.384 224.864C421.608 225.275 421.904 225.579 422.272 225.776C422.64 225.968 423.04 226.064 423.472 226.064C423.904 226.064 424.293 226 424.64 225.872C424.992 225.744 425.352 225.555 425.72 225.304L426.352 226.192C425.957 226.501 425.506 226.744 425 226.92C424.498 227.096 423.984 227.184 423.456 227.184C422.64 227.184 421.944 227 421.368 226.632C420.792 226.264 420.352 225.752 420.048 225.096C419.749 224.435 419.6 223.669 419.6 222.8C419.6 221.947 419.752 221.189 420.056 220.528C420.36 219.867 420.786 219.347 421.336 218.968C421.885 218.589 422.533 218.4 423.28 218.4C423.989 218.4 424.6 218.568 425.112 218.904C425.624 219.235 426.016 219.709 426.288 220.328C426.565 220.941 426.704 221.675 426.704 222.528C426.704 222.672 426.701 222.808 426.696 222.936C426.69 223.059 426.682 223.168 426.672 223.264H421.008ZM423.296 219.504C422.672 219.504 422.149 219.725 421.728 220.168C421.312 220.611 421.074 221.296 421.016 222.224H425.408C425.392 221.323 425.194 220.645 424.816 220.192C424.437 219.733 423.93 219.504 423.296 219.504ZM429.993 217.496L436.146 221.296V222.672L430.074 226.472L429.346 225.48L434.994 221.992L429.346 218.512L429.993 217.496ZM443.851 227L439.971 217.312C439.977 217.435 439.987 217.64 440.003 217.928C440.025 218.211 440.046 218.549 440.067 218.944C440.094 219.333 440.115 219.747 440.131 220.184C440.147 220.621 440.155 221.053 440.155 221.48V227H438.867V215.984H440.747L444.691 225.712C444.686 225.557 444.667 225.275 444.635 224.864C444.603 224.448 444.574 223.947 444.547 223.36C444.521 222.773 444.507 222.152 444.507 221.496V215.984H445.795V227H443.851ZM449.293 227V215.984H450.685V225.76H455.709L455.549 227H449.293ZM473.673 221.44C473.673 220.48 473.571 219.712 473.369 219.136C473.166 218.56 472.899 218.128 472.569 217.84C472.238 217.552 471.875 217.36 471.481 217.264C471.091 217.168 470.707 217.12 470.329 217.12H469.033V225.888H470.345C470.739 225.888 471.131 225.827 471.521 225.704C471.915 225.576 472.275 225.352 472.601 225.032C472.926 224.707 473.185 224.256 473.377 223.68C473.574 223.099 473.673 222.352 473.673 221.44ZM475.153 221.44C475.153 222.357 475.054 223.141 474.857 223.792C474.665 224.437 474.401 224.971 474.065 225.392C473.729 225.813 473.345 226.141 472.913 226.376C472.486 226.605 472.035 226.768 471.561 226.864C471.091 226.955 470.63 227 470.177 227H467.649V215.984H470.001C470.646 215.984 471.273 216.056 471.881 216.2C472.494 216.344 473.046 216.611 473.537 217C474.033 217.384 474.425 217.933 474.713 218.648C475.006 219.363 475.153 220.293 475.153 221.44ZM478.57 223.264C478.597 223.915 478.722 224.448 478.946 224.864C479.17 225.275 479.466 225.579 479.834 225.776C480.202 225.968 480.602 226.064 481.034 226.064C481.466 226.064 481.856 226 482.202 225.872C482.554 225.744 482.914 225.555 483.282 225.304L483.914 226.192C483.52 226.501 483.069 226.744 482.562 226.92C482.061 227.096 481.546 227.184 481.018 227.184C480.202 227.184 479.506 227 478.93 226.632C478.354 226.264 477.914 225.752 477.61 225.096C477.312 224.435 477.162 223.669 477.162 222.8C477.162 221.947 477.314 221.189 477.618 220.528C477.922 219.867 478.349 219.347 478.898 218.968C479.448 218.589 480.096 218.4 480.842 218.4C481.552 218.4 482.162 218.568 482.674 218.904C483.186 219.235 483.578 219.709 483.85 220.328C484.128 220.941 484.266 221.675 484.266 222.528C484.266 222.672 484.264 222.808 484.258 222.936C484.253 223.059 484.245 223.168 484.234 223.264H478.57ZM480.858 219.504C480.234 219.504 479.712 219.725 479.29 220.168C478.874 220.611 478.637 221.296 478.578 222.224H482.97C482.954 221.323 482.757 220.645 482.378 220.192C482 219.733 481.493 219.504 480.858 219.504ZM489.972 226.072C490.617 226.072 491.127 225.952 491.5 225.712C491.879 225.467 492.068 225.141 492.068 224.736C492.068 224.48 492.02 224.259 491.924 224.072C491.833 223.885 491.644 223.717 491.356 223.568C491.068 223.419 490.625 223.269 490.028 223.12C489.447 222.976 488.94 222.811 488.508 222.624C488.081 222.432 487.748 222.184 487.508 221.88C487.273 221.576 487.156 221.181 487.156 220.696C487.156 220.221 487.289 219.813 487.556 219.472C487.828 219.125 488.204 218.861 488.684 218.68C489.164 218.493 489.721 218.4 490.356 218.4C491.033 218.4 491.623 218.491 492.124 218.672C492.631 218.848 493.06 219.067 493.412 219.328L492.82 220.24C492.5 220.021 492.148 219.843 491.764 219.704C491.38 219.56 490.916 219.488 490.372 219.488C489.711 219.488 489.241 219.592 488.964 219.8C488.687 220.003 488.548 220.267 488.548 220.592C488.548 220.837 488.615 221.043 488.748 221.208C488.887 221.368 489.119 221.515 489.444 221.648C489.769 221.776 490.217 221.917 490.788 222.072C491.337 222.216 491.815 222.389 492.22 222.592C492.631 222.795 492.951 223.061 493.18 223.392C493.409 223.723 493.524 224.149 493.524 224.672C493.524 225.269 493.353 225.755 493.012 226.128C492.671 226.496 492.228 226.765 491.684 226.936C491.145 227.101 490.575 227.184 489.972 227.184C489.209 227.184 488.559 227.075 488.02 226.856C487.487 226.632 487.039 226.363 486.676 226.048L487.444 225.16C487.775 225.432 488.153 225.653 488.58 225.824C489.012 225.989 489.476 226.072 489.972 226.072ZM500.966 218.576V225.936H503.342V227H497.022V225.936H499.622V219.64H497.102V218.576H500.966ZM499.894 214.632C500.192 214.632 500.43 214.723 500.606 214.904C500.787 215.085 500.878 215.307 500.878 215.568C500.878 215.84 500.787 216.069 500.606 216.256C500.43 216.437 500.192 216.528 499.894 216.528C499.611 216.528 499.379 216.437 499.198 216.256C499.016 216.069 498.926 215.84 498.926 215.568C498.926 215.307 499.016 215.085 499.198 214.904C499.379 214.723 499.611 214.632 499.894 214.632ZM513.144 217.68L513.56 218.944C513.202 219.056 512.821 219.125 512.416 219.152C512.01 219.179 511.57 219.192 511.096 219.192C511.581 219.416 511.946 219.707 512.192 220.064C512.437 220.416 512.56 220.832 512.56 221.312C512.56 221.867 512.434 222.36 512.184 222.792C511.933 223.224 511.57 223.563 511.096 223.808C510.626 224.053 510.058 224.176 509.391 224.176C509.109 224.176 508.872 224.163 508.68 224.136C508.493 224.109 508.312 224.069 508.136 224.016C508.008 224.101 507.901 224.219 507.816 224.368C507.736 224.517 507.696 224.672 507.696 224.832C507.696 225.035 507.776 225.203 507.936 225.336C508.096 225.469 508.392 225.536 508.824 225.536H510.344C510.909 225.536 511.416 225.637 511.864 225.84C512.317 226.043 512.672 226.315 512.928 226.656C513.189 226.997 513.319 227.387 513.319 227.824C513.319 228.651 512.968 229.285 512.264 229.728C511.565 230.171 510.576 230.392 509.296 230.392C508.4 230.392 507.693 230.299 507.176 230.112C506.658 229.931 506.288 229.651 506.064 229.272C505.845 228.899 505.736 228.427 505.736 227.856H506.952C506.952 228.181 507.016 228.451 507.144 228.664C507.272 228.877 507.504 229.035 507.84 229.136C508.176 229.243 508.658 229.296 509.288 229.296C509.906 229.296 510.41 229.243 510.8 229.136C511.194 229.035 511.485 228.88 511.672 228.672C511.864 228.469 511.96 228.216 511.96 227.912C511.96 227.512 511.778 227.211 511.416 227.008C511.053 226.805 510.6 226.704 510.056 226.704H508.552C507.826 226.704 507.29 226.544 506.944 226.224C506.602 225.904 506.432 225.536 506.432 225.12C506.432 224.848 506.509 224.584 506.664 224.328C506.824 224.072 507.056 223.845 507.36 223.648C506.874 223.392 506.517 223.075 506.288 222.696C506.058 222.317 505.944 221.859 505.944 221.32C505.944 220.749 506.085 220.245 506.368 219.808C506.65 219.365 507.045 219.019 507.552 218.768C508.058 218.517 508.642 218.392 509.304 218.392C510.013 218.387 510.589 218.357 511.032 218.304C511.474 218.245 511.853 218.163 512.168 218.056C512.488 217.949 512.813 217.824 513.144 217.68ZM509.304 219.376C508.626 219.376 508.125 219.56 507.8 219.928C507.48 220.291 507.32 220.755 507.32 221.32C507.32 221.891 507.485 222.36 507.816 222.728C508.146 223.096 508.653 223.28 509.336 223.28C509.933 223.28 510.386 223.107 510.696 222.76C511.01 222.413 511.168 221.931 511.168 221.312C511.168 220.677 511.01 220.197 510.696 219.872C510.386 219.541 509.922 219.376 509.304 219.376ZM515.889 227V218.576H517.033L517.137 219.744C517.479 219.312 517.905 218.981 518.417 218.752C518.935 218.517 519.436 218.4 519.921 218.4C520.748 218.4 521.348 218.619 521.721 219.056C522.1 219.493 522.289 220.101 522.289 220.88V227H520.945V221.872C520.945 221.296 520.913 220.832 520.849 220.48C520.785 220.123 520.652 219.864 520.449 219.704C520.247 219.539 519.932 219.456 519.505 219.456C519.175 219.456 518.863 219.528 518.569 219.672C518.281 219.816 518.023 219.997 517.793 220.216C517.569 220.429 517.383 220.645 517.233 220.864V227H515.889ZM542.053 223.952C542.053 224.581 541.895 225.141 541.581 225.632C541.266 226.117 540.81 226.499 540.213 226.776C539.615 227.048 538.887 227.184 538.029 227.184C537.223 227.184 536.493 227.061 535.837 226.816C535.186 226.571 534.629 226.224 534.165 225.776L534.989 224.848C535.373 225.205 535.813 225.491 536.309 225.704C536.805 225.912 537.386 226.016 538.053 226.016C538.501 226.016 538.919 225.944 539.309 225.8C539.698 225.651 540.013 225.427 540.253 225.128C540.493 224.824 540.613 224.44 540.613 223.976C540.613 223.619 540.543 223.315 540.405 223.064C540.266 222.813 540.021 222.592 539.669 222.4C539.317 222.203 538.826 222.011 538.197 221.824C537.471 221.611 536.842 221.371 536.309 221.104C535.781 220.832 535.37 220.499 535.077 220.104C534.789 219.709 534.645 219.221 534.645 218.64C534.645 218.091 534.797 217.603 535.101 217.176C535.405 216.749 535.823 216.416 536.357 216.176C536.895 215.931 537.514 215.808 538.213 215.808C538.975 215.808 539.637 215.917 540.197 216.136C540.762 216.349 541.274 216.659 541.733 217.064L540.917 217.968C540.522 217.616 540.098 217.363 539.645 217.208C539.191 217.048 538.73 216.968 538.261 216.968C537.861 216.968 537.493 217.029 537.157 217.152C536.826 217.269 536.559 217.448 536.357 217.688C536.159 217.923 536.061 218.224 536.061 218.592C536.061 218.907 536.146 219.179 536.317 219.408C536.487 219.637 536.775 219.848 537.181 220.04C537.586 220.227 538.138 220.424 538.837 220.632C539.407 220.797 539.935 221.005 540.421 221.256C540.911 221.501 541.306 221.837 541.605 222.264C541.903 222.685 542.053 223.248 542.053 223.952ZM551.679 218.576L548.719 227.056C548.521 227.627 548.271 228.149 547.967 228.624C547.668 229.099 547.276 229.491 546.791 229.8C546.311 230.115 545.7 230.309 544.959 230.384L544.751 229.312C545.332 229.216 545.791 229.069 546.127 228.872C546.463 228.675 546.727 228.421 546.919 228.112C547.116 227.803 547.289 227.432 547.439 227H546.991L544.047 218.576H545.487L547.903 225.976L550.287 218.576H551.679ZM557.128 226.072C557.774 226.072 558.283 225.952 558.656 225.712C559.035 225.467 559.224 225.141 559.224 224.736C559.224 224.48 559.176 224.259 559.08 224.072C558.99 223.885 558.8 223.717 558.512 223.568C558.224 223.419 557.782 223.269 557.184 223.12C556.603 222.976 556.096 222.811 555.664 222.624C555.238 222.432 554.904 222.184 554.664 221.88C554.43 221.576 554.312 221.181 554.312 220.696C554.312 220.221 554.446 219.813 554.712 219.472C554.984 219.125 555.36 218.861 555.84 218.68C556.32 218.493 556.878 218.4 557.512 218.4C558.19 218.4 558.779 218.491 559.28 218.672C559.787 218.848 560.216 219.067 560.568 219.328L559.976 220.24C559.656 220.021 559.304 219.843 558.92 219.704C558.536 219.56 558.072 219.488 557.528 219.488C556.867 219.488 556.398 219.592 556.12 219.8C555.843 220.003 555.704 220.267 555.704 220.592C555.704 220.837 555.771 221.043 555.904 221.208C556.043 221.368 556.275 221.515 556.6 221.648C556.926 221.776 557.374 221.917 557.944 222.072C558.494 222.216 558.971 222.389 559.376 222.592C559.787 222.795 560.107 223.061 560.336 223.392C560.566 223.723 560.68 224.149 560.68 224.672C560.68 225.269 560.51 225.755 560.168 226.128C559.827 226.496 559.384 226.765 558.84 226.936C558.302 227.101 557.731 227.184 557.128 227.184C556.366 227.184 555.715 227.075 555.176 226.856C554.643 226.632 554.195 226.363 553.832 226.048L554.6 225.16C554.931 225.432 555.31 225.653 555.736 225.824C556.168 225.989 556.632 226.072 557.128 226.072ZM570.546 226.576C570.258 226.768 569.909 226.917 569.498 227.024C569.087 227.131 568.685 227.184 568.29 227.184C567.383 227.184 566.685 226.947 566.194 226.472C565.703 225.997 565.458 225.387 565.458 224.64V219.616H563.522V218.576H565.458V216.664L566.802 216.504V218.576H569.714L569.554 219.616H566.802V224.624C566.802 225.093 566.925 225.451 567.17 225.696C567.421 225.941 567.834 226.064 568.41 226.064C568.725 226.064 569.015 226.027 569.282 225.952C569.549 225.877 569.797 225.781 570.026 225.664L570.546 226.576ZM574.508 223.264C574.534 223.915 574.66 224.448 574.884 224.864C575.108 225.275 575.404 225.579 575.772 225.776C576.14 225.968 576.54 226.064 576.972 226.064C577.404 226.064 577.793 226 578.14 225.872C578.492 225.744 578.852 225.555 579.22 225.304L579.852 226.192C579.457 226.501 579.006 226.744 578.5 226.92C577.998 227.096 577.484 227.184 576.956 227.184C576.14 227.184 575.444 227 574.868 226.632C574.292 226.264 573.852 225.752 573.548 225.096C573.249 224.435 573.1 223.669 573.1 222.8C573.1 221.947 573.252 221.189 573.556 220.528C573.86 219.867 574.286 219.347 574.836 218.968C575.385 218.589 576.033 218.4 576.78 218.4C577.489 218.4 578.1 218.568 578.612 218.904C579.124 219.235 579.516 219.709 579.788 220.328C580.065 220.941 580.204 221.675 580.204 222.528C580.204 222.672 580.201 222.808 580.196 222.936C580.19 223.059 580.182 223.168 580.172 223.264H574.508ZM576.796 219.504C576.172 219.504 575.649 219.725 575.228 220.168C574.812 220.611 574.574 221.296 574.516 222.224H578.908C578.892 221.323 578.694 220.645 578.316 220.192C577.937 219.733 577.43 219.504 576.796 219.504ZM588.598 218.4C588.87 218.4 589.128 218.459 589.374 218.576C589.624 218.693 589.83 218.92 589.99 219.256C590.15 219.592 590.23 220.083 590.23 220.728V227H588.982V220.944C588.982 220.416 588.95 220.035 588.886 219.8C588.822 219.565 588.638 219.448 588.334 219.448C588.083 219.448 587.832 219.528 587.582 219.688C587.336 219.843 587.096 220.099 586.862 220.456V227H585.606V220.944C585.606 220.416 585.574 220.035 585.51 219.8C585.446 219.565 585.262 219.448 584.958 219.448C584.696 219.448 584.443 219.528 584.198 219.688C583.958 219.843 583.72 220.099 583.486 220.456V227H582.246V218.576H583.302L583.382 219.552C583.611 219.227 583.867 218.955 584.15 218.736C584.438 218.512 584.792 218.4 585.214 218.4C585.534 218.4 585.835 218.477 586.118 218.632C586.4 218.781 586.608 219.075 586.742 219.512C586.971 219.181 587.23 218.915 587.518 218.712C587.806 218.504 588.166 218.4 588.598 218.4ZM598.585 217.496L599.233 218.528L593.585 221.992L601.321 226.768L600.601 227.752L592.433 222.672V221.296L598.585 217.496ZM600.601 229.376L599.513 228.888L606.713 214.048L607.785 214.576L600.601 229.376ZM340.296 250.576C340.008 250.768 339.659 250.917 339.248 251.024C338.837 251.131 338.435 251.184 338.04 251.184C337.133 251.184 336.435 250.947 335.944 250.472C335.453 249.997 335.208 249.387 335.208 248.64V243.616H333.272V242.576H335.208V240.664L336.552 240.504V242.576H339.464L339.304 243.616H336.552V248.624C336.552 249.093 336.675 249.451 336.92 249.696C337.171 249.941 337.584 250.064 338.16 250.064C338.475 250.064 338.765 250.027 339.032 249.952C339.299 249.877 339.547 249.781 339.776 249.664L340.296 250.576ZM347.466 242.576V249.936H349.842V251H343.522V249.936H346.122V243.64H343.602V242.576H347.466ZM346.394 238.632C346.692 238.632 346.93 238.723 347.106 238.904C347.287 239.085 347.378 239.307 347.378 239.568C347.378 239.84 347.287 240.069 347.106 240.256C346.93 240.437 346.692 240.528 346.394 240.528C346.111 240.528 345.879 240.437 345.698 240.256C345.516 240.069 345.426 239.84 345.426 239.568C345.426 239.307 345.516 239.085 345.698 238.904C345.879 238.723 346.111 238.632 346.394 238.632ZM359.484 250.576C359.196 250.768 358.846 250.917 358.436 251.024C358.025 251.131 357.622 251.184 357.228 251.184C356.321 251.184 355.622 250.947 355.132 250.472C354.641 249.997 354.396 249.387 354.396 248.64V243.616H352.46V242.576H354.396V240.664L355.74 240.504V242.576H358.652L358.492 243.616H355.74V248.624C355.74 249.093 355.862 249.451 356.108 249.696C356.358 249.941 356.772 250.064 357.348 250.064C357.662 250.064 357.953 250.027 358.22 249.952C358.486 249.877 358.734 249.781 358.964 249.664L359.484 250.576ZM365.669 239.184V248.92C365.669 249.336 365.797 249.632 366.053 249.808C366.315 249.979 366.651 250.064 367.061 250.064C367.317 250.064 367.56 250.037 367.789 249.984C368.019 249.931 368.248 249.859 368.477 249.768L368.837 250.752C368.608 250.864 368.323 250.963 367.981 251.048C367.645 251.139 367.264 251.184 366.837 251.184C366.091 251.184 365.485 250.979 365.021 250.568C364.557 250.152 364.325 249.579 364.325 248.848V240.248H361.741V239.184H365.669ZM373.039 247.264C373.066 247.915 373.191 248.448 373.415 248.864C373.639 249.275 373.935 249.579 374.303 249.776C374.671 249.968 375.071 250.064 375.503 250.064C375.935 250.064 376.324 250 376.671 249.872C377.023 249.744 377.383 249.555 377.751 249.304L378.383 250.192C377.988 250.501 377.538 250.744 377.031 250.92C376.53 251.096 376.015 251.184 375.487 251.184C374.671 251.184 373.975 251 373.399 250.632C372.823 250.264 372.383 249.752 372.079 249.096C371.78 248.435 371.631 247.669 371.631 246.8C371.631 245.947 371.783 245.189 372.087 244.528C372.391 243.867 372.818 243.347 373.367 242.968C373.916 242.589 374.564 242.4 375.311 242.4C376.02 242.4 376.631 242.568 377.143 242.904C377.655 243.235 378.047 243.709 378.319 244.328C378.596 244.941 378.735 245.675 378.735 246.528C378.735 246.672 378.732 246.808 378.727 246.936C378.722 247.059 378.714 247.168 378.703 247.264H373.039ZM375.327 243.504C374.703 243.504 374.18 243.725 373.759 244.168C373.343 244.611 373.106 245.296 373.047 246.224H377.439C377.423 245.323 377.226 244.645 376.847 244.192C376.468 243.733 375.962 243.504 375.327 243.504ZM382.025 241.496L388.177 245.296V246.672L382.105 250.472L381.377 249.48L387.025 245.992L381.377 242.512L382.025 241.496ZM377.935 265.496L378.583 266.528L372.935 269.992L378.583 273.488L377.863 274.472L371.783 270.672V269.296L377.935 265.496ZM387.129 266.4C387.401 266.4 387.659 266.459 387.905 266.576C388.155 266.693 388.361 266.92 388.521 267.256C388.681 267.592 388.761 268.083 388.761 268.728V275H387.513V268.944C387.513 268.416 387.481 268.035 387.417 267.8C387.353 267.565 387.169 267.448 386.865 267.448C386.614 267.448 386.363 267.528 386.113 267.688C385.867 267.843 385.627 268.099 385.393 268.456V275H384.137V268.944C384.137 268.416 384.105 268.035 384.041 267.8C383.977 267.565 383.793 267.448 383.489 267.448C383.227 267.448 382.974 267.528 382.729 267.688C382.489 267.843 382.251 268.099 382.017 268.456V275H380.777V266.576H381.833L381.913 267.552C382.142 267.227 382.398 266.955 382.681 266.736C382.969 266.512 383.323 266.4 383.745 266.4C384.065 266.4 384.366 266.477 384.649 266.632C384.931 266.781 385.139 267.075 385.273 267.512C385.502 267.181 385.761 266.915 386.049 266.712C386.337 266.504 386.697 266.4 387.129 266.4ZM392.227 271.264C392.253 271.915 392.379 272.448 392.603 272.864C392.827 273.275 393.123 273.579 393.491 273.776C393.859 273.968 394.259 274.064 394.691 274.064C395.123 274.064 395.512 274 395.859 273.872C396.211 273.744 396.571 273.555 396.939 273.304L397.571 274.192C397.176 274.501 396.725 274.744 396.219 274.92C395.717 275.096 395.203 275.184 394.675 275.184C393.859 275.184 393.163 275 392.587 274.632C392.011 274.264 391.571 273.752 391.267 273.096C390.968 272.435 390.819 271.669 390.819 270.8C390.819 269.947 390.971 269.189 391.275 268.528C391.579 267.867 392.005 267.347 392.555 266.968C393.104 266.589 393.752 266.4 394.499 266.4C395.208 266.4 395.819 266.568 396.331 266.904C396.843 267.235 397.235 267.709 397.507 268.328C397.784 268.941 397.923 269.675 397.923 270.528C397.923 270.672 397.92 270.808 397.915 270.936C397.909 271.059 397.901 271.168 397.891 271.264H392.227ZM394.515 267.504C393.891 267.504 393.368 267.725 392.947 268.168C392.531 268.611 392.293 269.296 392.235 270.224H396.627C396.611 269.323 396.413 268.645 396.035 268.192C395.656 267.733 395.149 267.504 394.515 267.504ZM407.452 274.576C407.164 274.768 406.815 274.917 406.404 275.024C405.994 275.131 405.591 275.184 405.196 275.184C404.29 275.184 403.591 274.947 403.1 274.472C402.61 273.997 402.364 273.387 402.364 272.64V267.616H400.428V266.576H402.364V264.664L403.708 264.504V266.576H406.62L406.46 267.616H403.708V272.624C403.708 273.093 403.831 273.451 404.076 273.696C404.327 273.941 404.74 274.064 405.316 274.064C405.631 274.064 405.922 274.027 406.188 273.952C406.455 273.877 406.703 273.781 406.932 273.664L407.452 274.576ZM416.39 273.16C416.39 273.496 416.446 273.741 416.558 273.896C416.67 274.051 416.843 274.165 417.078 274.24L416.75 275.184C416.387 275.136 416.07 275.021 415.798 274.84C415.526 274.653 415.329 274.373 415.206 274C414.902 274.389 414.523 274.685 414.07 274.888C413.617 275.085 413.115 275.184 412.566 275.184C411.723 275.184 411.059 274.947 410.574 274.472C410.089 273.997 409.846 273.368 409.846 272.584C409.846 271.715 410.185 271.048 410.862 270.584C411.539 270.12 412.518 269.888 413.798 269.888H415.038V269.184C415.038 268.576 414.859 268.147 414.502 267.896C414.15 267.64 413.659 267.512 413.03 267.512C412.753 267.512 412.427 267.547 412.054 267.616C411.681 267.68 411.275 267.789 410.838 267.944L410.486 266.928C411.003 266.736 411.489 266.6 411.942 266.52C412.395 266.44 412.827 266.4 413.238 266.4C414.289 266.4 415.075 266.645 415.598 267.136C416.126 267.621 416.39 268.283 416.39 269.12V273.16ZM412.91 274.16C413.326 274.16 413.723 274.056 414.102 273.848C414.481 273.635 414.793 273.341 415.038 272.968V270.8H413.822C412.894 270.8 412.238 270.96 411.854 271.28C411.475 271.6 411.286 272.029 411.286 272.568C411.286 273.091 411.419 273.488 411.686 273.76C411.958 274.027 412.366 274.16 412.91 274.16ZM433.354 274.024C433.775 274.024 434.167 273.955 434.53 273.816C434.898 273.677 435.236 273.501 435.546 273.288L436.201 274.168C435.834 274.483 435.391 274.731 434.874 274.912C434.356 275.093 433.85 275.184 433.354 275.184C432.516 275.184 431.802 275.005 431.21 274.648C430.623 274.285 430.175 273.779 429.866 273.128C429.556 272.472 429.402 271.704 429.402 270.824C429.402 269.981 429.556 269.227 429.866 268.56C430.18 267.888 430.631 267.36 431.218 266.976C431.81 266.592 432.527 266.4 433.37 266.4C433.908 266.4 434.412 266.483 434.882 266.648C435.356 266.808 435.791 267.051 436.186 267.376L435.53 268.272C435.172 268.021 434.812 267.835 434.45 267.712C434.092 267.584 433.727 267.52 433.354 267.52C432.628 267.52 432.031 267.792 431.562 268.336C431.092 268.88 430.858 269.709 430.858 270.824C430.858 271.571 430.964 272.181 431.178 272.656C431.396 273.125 431.692 273.472 432.066 273.696C432.444 273.915 432.874 274.024 433.354 274.024ZM440.483 263.056V267.728C440.814 267.285 441.219 266.955 441.699 266.736C442.185 266.512 442.675 266.4 443.171 266.4C443.993 266.4 444.593 266.619 444.971 267.056C445.35 267.493 445.539 268.101 445.539 268.88V275H444.195V268.912C444.195 268.405 444.078 268.037 443.843 267.808C443.609 267.573 443.241 267.456 442.739 267.456C442.419 267.456 442.115 267.528 441.827 267.672C441.539 267.816 441.281 267.995 441.051 268.208C440.822 268.421 440.633 268.64 440.483 268.864V275H439.139V263.2L440.483 263.056ZM454.765 273.16C454.765 273.496 454.821 273.741 454.933 273.896C455.045 274.051 455.218 274.165 455.453 274.24L455.125 275.184C454.762 275.136 454.445 275.021 454.173 274.84C453.901 274.653 453.704 274.373 453.581 274C453.277 274.389 452.898 274.685 452.445 274.888C451.992 275.085 451.49 275.184 450.941 275.184C450.098 275.184 449.434 274.947 448.949 274.472C448.464 273.997 448.221 273.368 448.221 272.584C448.221 271.715 448.56 271.048 449.237 270.584C449.914 270.12 450.893 269.888 452.173 269.888H453.413V269.184C453.413 268.576 453.234 268.147 452.877 267.896C452.525 267.64 452.034 267.512 451.405 267.512C451.128 267.512 450.802 267.547 450.429 267.616C450.056 267.68 449.65 267.789 449.213 267.944L448.861 266.928C449.378 266.736 449.864 266.6 450.317 266.52C450.77 266.44 451.202 266.4 451.613 266.4C452.664 266.4 453.45 266.645 453.973 267.136C454.501 267.621 454.765 268.283 454.765 269.12V273.16ZM451.285 274.16C451.701 274.16 452.098 274.056 452.477 273.848C452.856 273.635 453.168 273.341 453.413 272.968V270.8H452.197C451.269 270.8 450.613 270.96 450.229 271.28C449.85 271.6 449.661 272.029 449.661 272.568C449.661 273.091 449.794 273.488 450.061 273.76C450.333 274.027 450.741 274.16 451.285 274.16ZM458.407 275V273.968H459.719V267.608H458.407V266.576H460.743L460.991 268.568C461.316 267.875 461.711 267.339 462.175 266.96C462.639 266.581 463.252 266.392 464.015 266.392C464.249 266.392 464.457 266.411 464.639 266.448C464.825 266.48 465.015 266.523 465.207 266.576L464.815 267.776C464.639 267.728 464.479 267.693 464.335 267.672C464.191 267.645 464.025 267.632 463.839 267.632C463.193 267.632 462.639 267.861 462.175 268.32C461.711 268.779 461.34 269.472 461.063 270.4V273.968H462.775V275H458.407ZM463.911 269.424V267.592L464.047 266.576H465.207L465.015 269.424H463.911ZM470.785 274.072C471.43 274.072 471.939 273.952 472.313 273.712C472.691 273.467 472.881 273.141 472.881 272.736C472.881 272.48 472.833 272.259 472.737 272.072C472.646 271.885 472.457 271.717 472.169 271.568C471.881 271.419 471.438 271.269 470.841 271.12C470.259 270.976 469.753 270.811 469.321 270.624C468.894 270.432 468.561 270.184 468.321 269.88C468.086 269.576 467.969 269.181 467.969 268.696C467.969 268.221 468.102 267.813 468.368 267.472C468.641 267.125 469.017 266.861 469.497 266.68C469.977 266.493 470.534 266.4 471.169 266.4C471.846 266.4 472.435 266.491 472.937 266.672C473.443 266.848 473.873 267.067 474.225 267.328L473.633 268.24C473.313 268.021 472.961 267.843 472.577 267.704C472.193 267.56 471.729 267.488 471.185 267.488C470.523 267.488 470.054 267.592 469.777 267.8C469.499 268.003 469.361 268.267 469.361 268.592C469.361 268.837 469.427 269.043 469.561 269.208C469.699 269.368 469.931 269.515 470.257 269.648C470.582 269.776 471.03 269.917 471.601 270.072C472.15 270.216 472.627 270.389 473.033 270.592C473.443 270.795 473.763 271.061 473.993 271.392C474.222 271.723 474.337 272.149 474.337 272.672C474.337 273.269 474.166 273.755 473.825 274.128C473.483 274.496 473.041 274.765 472.497 274.936C471.958 275.101 471.387 275.184 470.785 275.184C470.022 275.184 469.371 275.075 468.833 274.856C468.299 274.632 467.851 274.363 467.488 274.048L468.257 273.16C468.587 273.432 468.966 273.653 469.393 273.824C469.825 273.989 470.289 274.072 470.785 274.072ZM478.57 271.264C478.597 271.915 478.722 272.448 478.946 272.864C479.17 273.275 479.466 273.579 479.834 273.776C480.202 273.968 480.602 274.064 481.034 274.064C481.466 274.064 481.856 274 482.202 273.872C482.554 273.744 482.914 273.555 483.282 273.304L483.914 274.192C483.52 274.501 483.069 274.744 482.562 274.92C482.061 275.096 481.546 275.184 481.018 275.184C480.202 275.184 479.506 275 478.93 274.632C478.354 274.264 477.914 273.752 477.61 273.096C477.312 272.435 477.162 271.669 477.162 270.8C477.162 269.947 477.314 269.189 477.618 268.528C477.922 267.867 478.349 267.347 478.898 266.968C479.448 266.589 480.096 266.4 480.842 266.4C481.552 266.4 482.162 266.568 482.674 266.904C483.186 267.235 483.578 267.709 483.85 268.328C484.128 268.941 484.266 269.675 484.266 270.528C484.266 270.672 484.264 270.808 484.258 270.936C484.253 271.059 484.245 271.168 484.234 271.264H478.57ZM480.858 267.504C480.234 267.504 479.712 267.725 479.29 268.168C478.874 268.611 478.637 269.296 478.578 270.224H482.97C482.954 269.323 482.757 268.645 482.378 268.192C482 267.733 481.493 267.504 480.858 267.504ZM493.796 274.576C493.508 274.768 493.159 274.917 492.748 275.024C492.337 275.131 491.935 275.184 491.54 275.184C490.633 275.184 489.935 274.947 489.444 274.472C488.953 273.997 488.708 273.387 488.708 272.64V267.616H486.772V266.576H488.708V264.664L490.052 264.504V266.576H492.964L492.804 267.616H490.052V272.624C490.052 273.093 490.175 273.451 490.42 273.696C490.671 273.941 491.084 274.064 491.66 274.064C491.975 274.064 492.265 274.027 492.532 273.952C492.799 273.877 493.047 273.781 493.276 273.664L493.796 274.576ZM503.006 267.928V269.088H496.782V267.928H503.006ZM503.006 270.96V272.128H496.782V270.96H503.006ZM507.56 267.344L507.304 263.184H508.992L508.744 267.344H507.56ZM510.232 267.344L509.992 263.184H511.672L511.416 267.344H510.232ZM517.233 266.576V272.544C517.233 273.099 517.348 273.499 517.577 273.744C517.807 273.989 518.164 274.112 518.649 274.112C519.113 274.112 519.551 273.981 519.961 273.72C520.377 273.453 520.7 273.139 520.929 272.776V266.576H522.273V275H521.129L521.017 273.864C520.687 274.291 520.279 274.619 519.793 274.848C519.308 275.072 518.817 275.184 518.321 275.184C517.505 275.184 516.895 274.968 516.489 274.536C516.089 274.099 515.889 273.488 515.889 272.704V266.576H517.233ZM532.171 274.576C531.883 274.768 531.534 274.917 531.123 275.024C530.712 275.131 530.31 275.184 529.915 275.184C529.008 275.184 528.31 274.947 527.819 274.472C527.328 273.997 527.083 273.387 527.083 272.64V267.616H525.147V266.576H527.083V264.664L528.427 264.504V266.576H531.339L531.179 267.616H528.427V272.624C528.427 273.093 528.55 273.451 528.795 273.696C529.046 273.941 529.459 274.064 530.035 274.064C530.35 274.064 530.64 274.027 530.907 273.952C531.174 273.877 531.422 273.781 531.651 273.664L532.171 274.576ZM540.053 263.016C540.506 263.016 540.917 263.056 541.285 263.136C541.653 263.216 542.002 263.328 542.333 263.472L541.901 264.472C541.629 264.355 541.341 264.267 541.037 264.208C540.733 264.149 540.418 264.12 540.093 264.12C539.506 264.12 539.063 264.235 538.765 264.464C538.471 264.693 538.325 265.045 538.325 265.52V267.232H541.181L541.037 268.288H538.325V275H536.981V268.288H534.973V267.232H536.981V265.552C536.981 265.029 537.114 264.579 537.381 264.2C537.653 263.821 538.021 263.531 538.485 263.328C538.949 263.12 539.471 263.016 540.053 263.016ZM544.655 270.576V269.408H551.071V270.576H544.655ZM560.76 266.608C560.76 267.141 560.595 267.605 560.264 268C559.934 268.389 559.462 268.752 558.848 269.088C559.568 269.387 560.142 269.784 560.568 270.28C560.995 270.776 561.208 271.365 561.208 272.048C561.208 272.645 561.054 273.181 560.744 273.656C560.435 274.131 559.998 274.504 559.432 274.776C558.872 275.048 558.203 275.184 557.424 275.184C556.64 275.184 555.968 275.048 555.408 274.776C554.854 274.499 554.43 274.125 554.136 273.656C553.848 273.187 553.704 272.659 553.704 272.072C553.704 271.395 553.904 270.824 554.304 270.36C554.71 269.891 555.246 269.504 555.912 269.2C555.331 268.923 554.891 268.587 554.592 268.192C554.299 267.797 554.152 267.293 554.152 266.68C554.152 266.173 554.254 265.741 554.456 265.384C554.664 265.021 554.931 264.723 555.256 264.488C555.587 264.253 555.944 264.083 556.328 263.976C556.718 263.864 557.094 263.808 557.456 263.808C557.856 263.808 558.251 263.864 558.64 263.976C559.035 264.083 559.392 264.251 559.712 264.48C560.032 264.704 560.286 264.992 560.472 265.344C560.664 265.696 560.76 266.117 560.76 266.608ZM559.792 272.064C559.792 271.568 559.667 271.176 559.416 270.888C559.166 270.6 558.819 270.36 558.376 270.168C557.934 269.976 557.422 269.781 556.84 269.584C556.536 269.723 556.254 269.899 555.992 270.112C555.731 270.325 555.52 270.592 555.36 270.912C555.2 271.227 555.12 271.616 555.12 272.08C555.12 272.704 555.312 273.197 555.696 273.56C556.086 273.917 556.659 274.096 557.416 274.096C558.184 274.096 558.771 273.904 559.176 273.52C559.587 273.131 559.792 272.645 559.792 272.064ZM555.48 266.696C555.48 267.117 555.576 267.448 555.768 267.688C555.966 267.928 556.246 268.125 556.608 268.28C556.971 268.429 557.4 268.587 557.896 268.752C558.408 268.459 558.792 268.163 559.048 267.864C559.304 267.56 559.432 267.157 559.432 266.656C559.432 266.101 559.259 265.661 558.912 265.336C558.571 265.011 558.086 264.848 557.456 264.848C556.832 264.848 556.347 265.011 556 265.336C555.654 265.661 555.48 266.115 555.48 266.696ZM565.122 267.344L564.866 263.184H566.554L566.306 267.344H565.122ZM567.794 267.344L567.554 263.184H569.234L568.978 267.344H567.794ZM581.093 264.008L589.646 269.296V270.672L583.574 274.472L582.846 273.48L588.494 269.992L580.445 265.024L581.093 264.008ZM575.365 276.648L574.277 276.168L581.125 262.048L582.198 262.576L575.365 276.648ZM358.741 289.496L359.389 290.528L353.741 293.992L361.477 298.768L360.757 299.752L352.589 294.672V293.296L358.741 289.496ZM360.757 301.376L359.669 300.888L366.869 286.048L367.941 286.576L360.757 301.376ZM373.327 287.056V291.728C373.658 291.285 374.063 290.955 374.543 290.736C375.028 290.512 375.519 290.4 376.015 290.4C376.836 290.4 377.436 290.619 377.815 291.056C378.194 291.493 378.383 292.101 378.383 292.88V299H377.039V292.912C377.039 292.405 376.922 292.037 376.687 291.808C376.452 291.573 376.084 291.456 375.583 291.456C375.263 291.456 374.959 291.528 374.671 291.672C374.383 291.816 374.124 291.995 373.895 292.208C373.666 292.421 373.476 292.64 373.327 292.864V299H371.983V287.2L373.327 287.056ZM382.633 295.264C382.659 295.915 382.785 296.448 383.009 296.864C383.233 297.275 383.529 297.579 383.897 297.776C384.265 297.968 384.665 298.064 385.097 298.064C385.529 298.064 385.918 298 386.265 297.872C386.617 297.744 386.977 297.555 387.345 297.304L387.977 298.192C387.582 298.501 387.131 298.744 386.625 298.92C386.123 299.096 385.609 299.184 385.081 299.184C384.265 299.184 383.569 299 382.993 298.632C382.417 298.264 381.977 297.752 381.673 297.096C381.374 296.435 381.225 295.669 381.225 294.8C381.225 293.947 381.377 293.189 381.681 292.528C381.985 291.867 382.411 291.347 382.961 290.968C383.51 290.589 384.158 290.4 384.905 290.4C385.614 290.4 386.225 290.568 386.737 290.904C387.249 291.235 387.641 291.709 387.913 292.328C388.19 292.941 388.329 293.675 388.329 294.528C388.329 294.672 388.326 294.808 388.321 294.936C388.315 295.059 388.307 295.168 388.297 295.264H382.633ZM384.921 291.504C384.297 291.504 383.774 291.725 383.353 292.168C382.937 292.611 382.699 293.296 382.641 294.224H387.033C387.017 293.323 386.819 292.645 386.441 292.192C386.062 291.733 385.555 291.504 384.921 291.504ZM397.203 297.16C397.203 297.496 397.259 297.741 397.371 297.896C397.483 298.051 397.656 298.165 397.891 298.24L397.562 299.184C397.2 299.136 396.883 299.021 396.611 298.84C396.339 298.653 396.141 298.373 396.019 298C395.715 298.389 395.336 298.685 394.883 298.888C394.429 299.085 393.928 299.184 393.379 299.184C392.536 299.184 391.872 298.947 391.387 298.472C390.901 297.997 390.659 297.368 390.659 296.584C390.659 295.715 390.997 295.048 391.674 294.584C392.352 294.12 393.331 293.888 394.611 293.888H395.851V293.184C395.851 292.576 395.672 292.147 395.315 291.896C394.963 291.64 394.472 291.512 393.843 291.512C393.565 291.512 393.24 291.547 392.867 291.616C392.493 291.68 392.088 291.789 391.651 291.944L391.299 290.928C391.816 290.736 392.301 290.6 392.755 290.52C393.208 290.44 393.64 290.4 394.051 290.4C395.101 290.4 395.888 290.645 396.411 291.136C396.939 291.621 397.203 292.283 397.203 293.12V297.16ZM393.723 298.16C394.139 298.16 394.536 298.056 394.915 297.848C395.293 297.635 395.605 297.341 395.851 296.968V294.8H394.635C393.707 294.8 393.051 294.96 392.667 295.28C392.288 295.6 392.099 296.029 392.099 296.568C392.099 297.091 392.232 297.488 392.499 297.76C392.771 298.027 393.179 298.16 393.723 298.16ZM405.804 287.016L407.148 287.184V299H405.972L405.844 297.888C405.53 298.336 405.167 298.664 404.756 298.872C404.351 299.08 403.916 299.184 403.452 299.184C402.722 299.184 402.119 299 401.644 298.632C401.17 298.264 400.818 297.752 400.588 297.096C400.359 296.435 400.244 295.669 400.244 294.8C400.244 293.957 400.375 293.205 400.636 292.544C400.898 291.877 401.274 291.355 401.764 290.976C402.26 290.592 402.855 290.4 403.548 290.4C404.034 290.4 404.46 290.485 404.828 290.656C405.196 290.821 405.522 291.067 405.804 291.392V287.016ZM403.9 291.48C403.196 291.48 402.655 291.755 402.276 292.304C401.898 292.853 401.708 293.685 401.708 294.8C401.708 295.525 401.786 296.133 401.94 296.624C402.095 297.115 402.322 297.483 402.62 297.728C402.924 297.973 403.295 298.096 403.732 298.096C404.212 298.096 404.62 297.96 404.956 297.688C405.298 297.416 405.58 297.109 405.804 296.768V292.56C405.575 292.219 405.298 291.955 404.972 291.768C404.647 291.576 404.29 291.48 403.9 291.48ZM410.806 289.496L416.958 293.296V294.672L410.886 298.472L410.158 297.48L415.806 293.992L410.158 290.512L410.806 289.496ZM358.748 313.496L359.396 314.528L353.748 317.992L359.396 321.488L358.676 322.472L352.596 318.672V317.296L358.748 313.496ZM363.733 315.672C364.043 315.267 364.397 314.955 364.797 314.736C365.203 314.512 365.648 314.4 366.133 314.4C366.885 314.4 367.493 314.581 367.957 314.944C368.421 315.307 368.76 315.819 368.973 316.48C369.187 317.136 369.293 317.904 369.293 318.784C369.293 319.632 369.165 320.389 368.909 321.056C368.653 321.717 368.277 322.237 367.781 322.616C367.291 322.995 366.683 323.184 365.957 323.184C364.981 323.184 364.216 322.832 363.661 322.128L363.565 323H362.389V311.184L363.733 311.016V315.672ZM365.637 322.096C366.341 322.096 366.883 321.824 367.261 321.28C367.64 320.736 367.829 319.901 367.829 318.776C367.829 318.04 367.755 317.429 367.605 316.944C367.456 316.453 367.232 316.088 366.933 315.848C366.64 315.603 366.277 315.48 365.845 315.48C365.376 315.48 364.963 315.621 364.605 315.904C364.253 316.181 363.963 316.491 363.733 316.832V321.008C363.952 321.339 364.227 321.603 364.557 321.8C364.893 321.997 365.253 322.096 365.637 322.096ZM375.191 314.4C375.986 314.4 376.65 314.581 377.183 314.944C377.722 315.301 378.124 315.808 378.391 316.464C378.663 317.12 378.799 317.893 378.799 318.784C378.799 319.643 378.66 320.403 378.383 321.064C378.106 321.725 377.698 322.245 377.159 322.624C376.626 322.997 375.964 323.184 375.175 323.184C374.386 323.184 373.722 323.003 373.183 322.64C372.644 322.277 372.236 321.768 371.959 321.112C371.687 320.451 371.551 319.68 371.551 318.8C371.551 317.931 371.69 317.165 371.967 316.504C372.244 315.843 372.652 315.328 373.191 314.96C373.735 314.587 374.402 314.4 375.191 314.4ZM375.191 315.496C374.466 315.496 373.916 315.765 373.543 316.304C373.175 316.837 372.991 317.669 372.991 318.8C372.991 319.909 373.172 320.733 373.535 321.272C373.903 321.811 374.45 322.08 375.175 322.08C375.9 322.08 376.444 321.811 376.807 321.272C377.175 320.733 377.359 319.904 377.359 318.784C377.359 317.664 377.178 316.837 376.815 316.304C376.452 315.765 375.911 315.496 375.191 315.496ZM386.617 311.016L387.961 311.184V323H386.785L386.657 321.888C386.342 322.336 385.979 322.664 385.569 322.872C385.163 323.08 384.729 323.184 384.265 323.184C383.534 323.184 382.931 323 382.457 322.632C381.982 322.264 381.63 321.752 381.401 321.096C381.171 320.435 381.057 319.669 381.057 318.8C381.057 317.957 381.187 317.205 381.449 316.544C381.71 315.877 382.086 315.355 382.577 314.976C383.073 314.592 383.667 314.4 384.361 314.4C384.846 314.4 385.273 314.485 385.641 314.656C386.009 314.821 386.334 315.067 386.617 315.392V311.016ZM384.713 315.48C384.009 315.48 383.467 315.755 383.089 316.304C382.71 316.853 382.521 317.685 382.521 318.8C382.521 319.525 382.598 320.133 382.753 320.624C382.907 321.115 383.134 321.483 383.433 321.728C383.737 321.973 384.107 322.096 384.545 322.096C385.025 322.096 385.433 321.96 385.769 321.688C386.11 321.416 386.393 321.109 386.617 320.768V316.56C386.387 316.219 386.11 315.955 385.785 315.768C385.459 315.576 385.102 315.48 384.713 315.48ZM398.179 314.576L395.219 323.056C395.021 323.627 394.771 324.149 394.467 324.624C394.168 325.099 393.776 325.491 393.291 325.8C392.811 326.115 392.2 326.309 391.459 326.384L391.251 325.312C391.832 325.216 392.291 325.069 392.627 324.872C392.963 324.675 393.227 324.421 393.419 324.112C393.616 323.803 393.789 323.432 393.939 323H393.491L390.547 314.576H391.987L394.403 321.976L396.787 314.576H398.179ZM401.212 313.496L407.364 317.296V318.672L401.292 322.472L400.564 321.48L406.212 317.992L400.564 314.512L401.212 313.496ZM377.935 337.496L378.583 338.528L372.935 341.992L378.583 345.488L377.863 346.472L371.783 342.672V341.296L377.935 337.496ZM382.921 335.056V339.728C383.251 339.285 383.657 338.955 384.137 338.736C384.622 338.512 385.113 338.4 385.609 338.4C386.43 338.4 387.03 338.619 387.409 339.056C387.787 339.493 387.977 340.101 387.977 340.88V347H386.633V340.912C386.633 340.405 386.515 340.037 386.281 339.808C386.046 339.573 385.678 339.456 385.177 339.456C384.857 339.456 384.553 339.528 384.265 339.672C383.977 339.816 383.718 339.995 383.489 340.208C383.259 340.421 383.07 340.64 382.921 340.864V347H381.577V335.2L382.921 335.056ZM395.539 335.984V346.68H394.195V337.44L391.667 338.976L391.083 338.016L394.363 335.984H395.539ZM397.843 345.904V347H391.483V345.904H397.843ZM401.212 337.496L407.364 341.296V342.672L401.292 346.472L400.564 345.48L406.212 341.992L400.564 338.512L401.212 337.496ZM416.11 341.44C416.11 340.48 416.009 339.712 415.806 339.136C415.603 338.56 415.337 338.128 415.006 337.84C414.675 337.552 414.313 337.36 413.918 337.264C413.529 337.168 413.145 337.12 412.766 337.12H411.47V345.888H412.782C413.177 345.888 413.569 345.827 413.958 345.704C414.353 345.576 414.713 345.352 415.038 345.032C415.363 344.707 415.622 344.256 415.814 343.68C416.011 343.099 416.11 342.352 416.11 341.44ZM417.59 341.44C417.59 342.357 417.491 343.141 417.294 343.792C417.102 344.437 416.838 344.971 416.502 345.392C416.166 345.813 415.782 346.141 415.35 346.376C414.923 346.605 414.473 346.768 413.998 346.864C413.529 346.955 413.067 347 412.614 347H410.086V335.984H412.438C413.083 335.984 413.71 336.056 414.318 336.2C414.931 336.344 415.483 336.611 415.974 337C416.47 337.384 416.862 337.933 417.15 338.648C417.443 339.363 417.59 340.293 417.59 341.44ZM423.16 338.4C423.954 338.4 424.618 338.581 425.152 338.944C425.69 339.301 426.093 339.808 426.36 340.464C426.632 341.12 426.768 341.893 426.768 342.784C426.768 343.643 426.629 344.403 426.352 345.064C426.074 345.725 425.666 346.245 425.128 346.624C424.594 346.997 423.933 347.184 423.144 347.184C422.354 347.184 421.69 347.003 421.152 346.64C420.613 346.277 420.205 345.768 419.928 345.112C419.656 344.451 419.52 343.68 419.52 342.8C419.52 341.931 419.658 341.165 419.936 340.504C420.213 339.843 420.621 339.328 421.16 338.96C421.704 338.587 422.37 338.4 423.16 338.4ZM423.16 339.496C422.434 339.496 421.885 339.765 421.512 340.304C421.144 340.837 420.96 341.669 420.96 342.8C420.96 343.909 421.141 344.733 421.504 345.272C421.872 345.811 422.418 346.08 423.144 346.08C423.869 346.08 424.413 345.811 424.776 345.272C425.144 344.733 425.328 343.904 425.328 342.784C425.328 341.664 425.146 340.837 424.784 340.304C424.421 339.765 423.88 339.496 423.16 339.496ZM430.602 343.264C430.628 343.915 430.754 344.448 430.978 344.864C431.202 345.275 431.498 345.579 431.866 345.776C432.234 345.968 432.634 346.064 433.066 346.064C433.498 346.064 433.887 346 434.234 345.872C434.586 345.744 434.946 345.555 435.314 345.304L435.946 346.192C435.551 346.501 435.1 346.744 434.594 346.92C434.092 347.096 433.578 347.184 433.05 347.184C432.234 347.184 431.538 347 430.962 346.632C430.386 346.264 429.946 345.752 429.642 345.096C429.343 344.435 429.194 343.669 429.194 342.8C429.194 341.947 429.346 341.189 429.65 340.528C429.954 339.867 430.38 339.347 430.93 338.968C431.479 338.589 432.127 338.4 432.874 338.4C433.583 338.4 434.194 338.568 434.706 338.904C435.218 339.235 435.61 339.709 435.882 340.328C436.159 340.941 436.298 341.675 436.298 342.528C436.298 342.672 436.295 342.808 436.29 342.936C436.284 343.059 436.276 343.168 436.266 343.264H430.602ZM432.89 339.504C432.266 339.504 431.743 339.725 431.322 340.168C430.906 340.611 430.668 341.296 430.61 342.224H435.002C434.986 341.323 434.788 340.645 434.41 340.192C434.031 339.733 433.524 339.504 432.89 339.504ZM454.285 338.4C454.557 338.4 454.816 338.459 455.061 338.576C455.312 338.693 455.517 338.92 455.677 339.256C455.837 339.592 455.917 340.083 455.917 340.728V347H454.669V340.944C454.669 340.416 454.637 340.035 454.573 339.8C454.509 339.565 454.325 339.448 454.021 339.448C453.77 339.448 453.52 339.528 453.269 339.688C453.024 339.843 452.784 340.099 452.549 340.456V347H451.293V340.944C451.293 340.416 451.261 340.035 451.197 339.8C451.133 339.565 450.949 339.448 450.645 339.448C450.384 339.448 450.13 339.528 449.885 339.688C449.645 339.843 449.408 340.099 449.173 340.456V347H447.933V338.576H448.989L449.069 339.552C449.298 339.227 449.554 338.955 449.837 338.736C450.125 338.512 450.48 338.4 450.901 338.4C451.221 338.4 451.522 338.477 451.805 338.632C452.088 338.781 452.296 339.075 452.429 339.512C452.658 339.181 452.917 338.915 453.205 338.712C453.493 338.504 453.853 338.4 454.285 338.4ZM459.383 343.264C459.409 343.915 459.535 344.448 459.759 344.864C459.983 345.275 460.279 345.579 460.647 345.776C461.015 345.968 461.415 346.064 461.847 346.064C462.279 346.064 462.668 346 463.015 345.872C463.367 345.744 463.727 345.555 464.095 345.304L464.727 346.192C464.332 346.501 463.881 346.744 463.375 346.92C462.873 347.096 462.359 347.184 461.831 347.184C461.015 347.184 460.319 347 459.743 346.632C459.167 346.264 458.727 345.752 458.423 345.096C458.124 344.435 457.975 343.669 457.975 342.8C457.975 341.947 458.127 341.189 458.431 340.528C458.735 339.867 459.161 339.347 459.711 338.968C460.26 338.589 460.908 338.4 461.655 338.4C462.364 338.4 462.975 338.568 463.487 338.904C463.999 339.235 464.391 339.709 464.663 340.328C464.94 340.941 465.079 341.675 465.079 342.528C465.079 342.672 465.076 342.808 465.071 342.936C465.065 343.059 465.057 343.168 465.047 343.264H459.383ZM461.671 339.504C461.047 339.504 460.524 339.725 460.103 340.168C459.687 340.611 459.449 341.296 459.391 342.224H463.783C463.767 341.323 463.569 340.645 463.191 340.192C462.812 339.733 462.305 339.504 461.671 339.504ZM468.977 343.264C469.003 343.915 469.129 344.448 469.353 344.864C469.577 345.275 469.873 345.579 470.241 345.776C470.609 345.968 471.009 346.064 471.441 346.064C471.873 346.064 472.262 346 472.609 345.872C472.961 345.744 473.321 345.555 473.689 345.304L474.321 346.192C473.926 346.501 473.475 346.744 472.969 346.92C472.467 347.096 471.953 347.184 471.425 347.184C470.609 347.184 469.913 347 469.337 346.632C468.761 346.264 468.321 345.752 468.017 345.096C467.718 344.435 467.569 343.669 467.569 342.8C467.569 341.947 467.721 341.189 468.025 340.528C468.329 339.867 468.755 339.347 469.305 338.968C469.854 338.589 470.502 338.4 471.249 338.4C471.958 338.4 472.569 338.568 473.081 338.904C473.593 339.235 473.985 339.709 474.257 340.328C474.534 340.941 474.673 341.675 474.673 342.528C474.673 342.672 474.67 342.808 474.665 342.936C474.659 343.059 474.651 343.168 474.641 343.264H468.977ZM471.265 339.504C470.641 339.504 470.118 339.725 469.697 340.168C469.281 340.611 469.043 341.296 468.985 342.224H473.377C473.361 341.323 473.163 340.645 472.785 340.192C472.406 339.733 471.899 339.504 471.265 339.504ZM481.418 335.984L481.282 343.368H480.074L479.914 335.984H481.418ZM480.69 345.04C481 345.04 481.256 345.144 481.458 345.352C481.666 345.56 481.77 345.811 481.77 346.104C481.77 346.403 481.666 346.659 481.458 346.872C481.256 347.08 481 347.184 480.69 347.184C480.386 347.184 480.133 347.08 479.93 346.872C479.728 346.659 479.626 346.403 479.626 346.104C479.626 345.811 479.728 345.56 479.93 345.352C480.133 345.144 480.386 345.04 480.69 345.04ZM493.054 337.496L493.702 338.528L488.054 341.992L495.79 346.768L495.07 347.752L486.902 342.672V341.296L493.054 337.496ZM495.07 349.376L493.982 348.888L501.182 334.048L502.254 334.576L495.07 349.376ZM507.64 335.056V339.728C507.97 339.285 508.376 338.955 508.856 338.736C509.341 338.512 509.832 338.4 510.328 338.4C511.149 338.4 511.749 338.619 512.128 339.056C512.506 339.493 512.696 340.101 512.696 340.88V347H511.352V340.912C511.352 340.405 511.234 340.037 511 339.808C510.765 339.573 510.397 339.456 509.896 339.456C509.576 339.456 509.272 339.528 508.984 339.672C508.696 339.816 508.437 339.995 508.208 340.208C507.978 340.421 507.789 340.64 507.64 340.864V347H506.296V335.2L507.64 335.056ZM520.257 335.984V346.68H518.913V337.44L516.385 338.976L515.801 338.016L519.081 335.984H520.257ZM522.561 345.904V347H516.201V345.904H522.561ZM525.931 337.496L532.083 341.296V342.672L526.011 346.472L525.283 345.48L530.931 341.992L525.283 338.512L525.931 337.496ZM358.741 361.496L359.389 362.528L353.741 365.992L361.477 370.768L360.757 371.752L352.589 366.672V365.296L358.741 361.496ZM360.757 373.376L359.669 372.888L366.869 358.048L367.941 358.576L360.757 373.376ZM373.327 363.672C373.636 363.267 373.991 362.955 374.391 362.736C374.796 362.512 375.242 362.4 375.727 362.4C376.479 362.4 377.087 362.581 377.551 362.944C378.015 363.307 378.354 363.819 378.567 364.48C378.78 365.136 378.887 365.904 378.887 366.784C378.887 367.632 378.759 368.389 378.503 369.056C378.247 369.717 377.871 370.237 377.375 370.616C376.884 370.995 376.276 371.184 375.551 371.184C374.575 371.184 373.81 370.832 373.255 370.128L373.159 371H371.983V359.184L373.327 359.016V363.672ZM375.231 370.096C375.935 370.096 376.476 369.824 376.855 369.28C377.234 368.736 377.423 367.901 377.423 366.776C377.423 366.04 377.348 365.429 377.199 364.944C377.05 364.453 376.826 364.088 376.527 363.848C376.234 363.603 375.871 363.48 375.439 363.48C374.97 363.48 374.556 363.621 374.199 363.904C373.847 364.181 373.556 364.491 373.327 364.832V369.008C373.546 369.339 373.82 369.603 374.151 369.8C374.487 369.997 374.847 370.096 375.231 370.096ZM384.785 362.4C385.579 362.4 386.243 362.581 386.777 362.944C387.315 363.301 387.718 363.808 387.985 364.464C388.257 365.12 388.393 365.893 388.393 366.784C388.393 367.643 388.254 368.403 387.977 369.064C387.699 369.725 387.291 370.245 386.753 370.624C386.219 370.997 385.558 371.184 384.769 371.184C383.979 371.184 383.315 371.003 382.777 370.64C382.238 370.277 381.83 369.768 381.553 369.112C381.281 368.451 381.145 367.68 381.145 366.8C381.145 365.931 381.283 365.165 381.561 364.504C381.838 363.843 382.246 363.328 382.785 362.96C383.329 362.587 383.995 362.4 384.785 362.4ZM384.785 363.496C384.059 363.496 383.51 363.765 383.137 364.304C382.769 364.837 382.585 365.669 382.585 366.8C382.585 367.909 382.766 368.733 383.129 369.272C383.497 369.811 384.043 370.08 384.769 370.08C385.494 370.08 386.038 369.811 386.401 369.272C386.769 368.733 386.953 367.904 386.953 366.784C386.953 365.664 386.771 364.837 386.409 364.304C386.046 363.765 385.505 363.496 384.785 363.496ZM396.211 359.016L397.555 359.184V371H396.379L396.251 369.888C395.936 370.336 395.573 370.664 395.163 370.872C394.757 371.08 394.323 371.184 393.859 371.184C393.128 371.184 392.525 371 392.051 370.632C391.576 370.264 391.224 369.752 390.995 369.096C390.765 368.435 390.651 367.669 390.651 366.8C390.651 365.957 390.781 365.205 391.043 364.544C391.304 363.877 391.68 363.355 392.171 362.976C392.667 362.592 393.261 362.4 393.955 362.4C394.44 362.4 394.867 362.485 395.235 362.656C395.603 362.821 395.928 363.067 396.211 363.392V359.016ZM394.307 363.48C393.603 363.48 393.061 363.755 392.683 364.304C392.304 364.853 392.115 365.685 392.115 366.8C392.115 367.525 392.192 368.133 392.347 368.624C392.501 369.115 392.728 369.483 393.027 369.728C393.331 369.973 393.701 370.096 394.139 370.096C394.619 370.096 395.027 369.96 395.363 369.688C395.704 369.416 395.987 369.109 396.211 368.768V364.56C395.981 364.219 395.704 363.955 395.379 363.768C395.053 363.576 394.696 363.48 394.307 363.48ZM407.772 362.576L404.812 371.056C404.615 371.627 404.364 372.149 404.06 372.624C403.762 373.099 403.37 373.491 402.884 373.8C402.404 374.115 401.794 374.309 401.052 374.384L400.844 373.312C401.426 373.216 401.884 373.069 402.22 372.872C402.556 372.675 402.82 372.421 403.012 372.112C403.21 371.803 403.383 371.432 403.532 371H403.084L400.14 362.576H401.58L403.996 369.976L406.38 362.576H407.772ZM410.806 361.496L416.958 365.296V366.672L410.886 370.472L410.158 369.48L415.806 365.992L410.158 362.512L410.806 361.496ZM339.554 385.496L340.202 386.528L334.554 389.992L342.29 394.768L341.57 395.752L333.402 390.672V389.296L339.554 385.496ZM341.57 397.376L340.482 396.888L347.682 382.048L348.754 382.576L341.57 397.376ZM354.14 383.056V387.728C354.47 387.285 354.876 386.955 355.356 386.736C355.841 386.512 356.332 386.4 356.828 386.4C357.649 386.4 358.249 386.619 358.628 387.056C359.006 387.493 359.196 388.101 359.196 388.88V395H357.852V388.912C357.852 388.405 357.734 388.037 357.5 387.808C357.265 387.573 356.897 387.456 356.396 387.456C356.076 387.456 355.772 387.528 355.484 387.672C355.196 387.816 354.937 387.995 354.708 388.208C354.478 388.421 354.289 388.64 354.14 388.864V395H352.796V383.2L354.14 383.056ZM369.077 394.576C368.789 394.768 368.44 394.917 368.029 395.024C367.619 395.131 367.216 395.184 366.821 395.184C365.915 395.184 365.216 394.947 364.725 394.472C364.235 393.997 363.989 393.387 363.989 392.64V387.616H362.053V386.576H363.989V384.664L365.333 384.504V386.576H368.245L368.085 387.616H365.333V392.624C365.333 393.093 365.456 393.451 365.701 393.696C365.952 393.941 366.365 394.064 366.941 394.064C367.256 394.064 367.547 394.027 367.813 393.952C368.08 393.877 368.328 393.781 368.557 393.664L369.077 394.576ZM377.535 386.4C377.807 386.4 378.066 386.459 378.311 386.576C378.562 386.693 378.767 386.92 378.927 387.256C379.087 387.592 379.167 388.083 379.167 388.728V395H377.919V388.944C377.919 388.416 377.887 388.035 377.823 387.8C377.759 387.565 377.575 387.448 377.271 387.448C377.02 387.448 376.77 387.528 376.519 387.688C376.274 387.843 376.034 388.099 375.799 388.456V395H374.543V388.944C374.543 388.416 374.511 388.035 374.447 387.8C374.383 387.565 374.199 387.448 373.895 387.448C373.634 387.448 373.38 387.528 373.135 387.688C372.895 387.843 372.658 388.099 372.423 388.456V395H371.183V386.576H372.239L372.319 387.552C372.548 387.227 372.804 386.955 373.087 386.736C373.375 386.512 373.73 386.4 374.151 386.4C374.471 386.4 374.772 386.477 375.055 386.632C375.338 386.781 375.546 387.075 375.679 387.512C375.908 387.181 376.167 386.915 376.455 386.712C376.743 386.504 377.103 386.4 377.535 386.4ZM384.857 383.184V392.92C384.857 393.336 384.985 393.632 385.241 393.808C385.502 393.979 385.838 394.064 386.249 394.064C386.505 394.064 386.747 394.037 386.977 393.984C387.206 393.931 387.435 393.859 387.665 393.768L388.025 394.752C387.795 394.864 387.51 394.963 387.169 395.048C386.833 395.139 386.451 395.184 386.025 395.184C385.278 395.184 384.673 394.979 384.209 394.568C383.745 394.152 383.513 393.579 383.513 392.848V384.248H380.929V383.184H384.857ZM391.618 385.496L397.771 389.296V390.672L391.699 394.472L390.971 393.48L396.619 389.992L390.971 386.512L391.618 385.496Z" fill="#0A2750"/>
<path d="M323.762 138L323.762 402" stroke="#DE00A4" stroke-width="2" stroke-linecap="square"/>
<rect x="236" y="254" width="32" height="32" rx="16" fill="#DE00A4"/>
<path d="M251.643 264.134C252.483 264.134 253.209 264.29 253.821 264.602C254.433 264.902 254.895 265.316 255.207 265.844C255.531 266.36 255.693 266.936 255.693 267.572C255.693 268.232 255.549 268.868 255.261 269.48C254.985 270.092 254.505 270.782 253.821 271.55C253.149 272.318 252.165 273.308 250.869 274.52H255.963L255.675 276.5H247.953V274.646C249.465 273.134 250.557 272.006 251.229 271.262C251.901 270.518 252.375 269.888 252.651 269.372C252.927 268.856 253.065 268.328 253.065 267.788C253.065 267.272 252.915 266.864 252.615 266.564C252.315 266.264 251.913 266.114 251.409 266.114C250.965 266.114 250.569 266.216 250.221 266.42C249.873 266.612 249.507 266.936 249.123 267.392L247.593 266.168C248.625 264.812 249.975 264.134 251.643 264.134Z" fill="white"/>
<path d="M268 270L323 270" stroke="#DE00A4" stroke-width="2" stroke-linecap="square" stroke-linejoin="bevel"/>
<path d="M480 74V122" stroke="#DE00A4" stroke-width="2" stroke-linecap="square" stroke-linejoin="bevel"/>
<rect x="464" y="42" width="32" height="32" rx="16" fill="#DE00A4"/>
<path d="M482.502 52.368V64.5H480V54.888L477.336 56.526L476.22 54.798L480.252 52.368H482.502Z" fill="white"/>
</svg>
