<svg width="960" height="540" viewBox="0 0 960 540" fill="none" xmlns="http://www.w3.org/2000/svg">
<rect x="0.5" y="0.5" width="959" height="539" fill="white"/>
<rect x="0.5" y="0.5" width="959" height="539" stroke="#CCCCCC"/>
<path d="M317.904 263.976C319.568 263.976 320.901 264.365 321.904 265.144C322.917 265.912 323.424 267.341 323.424 269.432C323.424 271.469 322.917 272.909 321.904 273.752C320.901 274.584 319.68 275 318.24 275H315.6V263.976H317.904ZM317.12 265.192V273.8H318.352C319.376 273.8 320.208 273.485 320.848 272.856C321.488 272.227 321.808 271.085 321.808 269.432C321.808 268.269 321.643 267.379 321.312 266.76C320.981 266.131 320.56 265.715 320.048 265.512C319.536 265.299 318.933 265.192 318.24 265.192H317.12ZM327.289 266.568V275H325.817V266.568H327.289ZM326.537 262.52C326.846 262.52 327.097 262.616 327.289 262.808C327.481 263 327.577 263.24 327.577 263.528C327.577 263.816 327.481 264.056 327.289 264.248C327.097 264.429 326.846 264.52 326.537 264.52C326.238 264.52 325.993 264.429 325.801 264.248C325.609 264.056 325.513 263.816 325.513 263.528C325.513 263.24 325.609 263 325.801 262.808C325.993 262.616 326.238 262.52 326.537 262.52ZM334.589 274.616C334.034 275 333.405 275.192 332.701 275.192C331.986 275.192 331.426 274.989 331.021 274.584C330.626 274.168 330.429 273.571 330.429 272.792V267.704H328.957V266.568H330.429V264.664L331.901 264.488V266.568H333.901L333.741 267.704H331.901V272.728C331.901 273.165 331.975 273.485 332.125 273.688C332.285 273.88 332.546 273.976 332.909 273.976C333.239 273.976 333.613 273.864 334.029 273.64L334.589 274.616ZM341.82 266.568V275H340.348V266.568H341.82ZM341.068 262.52C341.377 262.52 341.628 262.616 341.82 262.808C342.012 263 342.108 263.24 342.108 263.528C342.108 263.816 342.012 264.056 341.82 264.248C341.628 264.429 341.377 264.52 341.068 264.52C340.769 264.52 340.524 264.429 340.332 264.248C340.14 264.056 340.044 263.816 340.044 263.528C340.044 263.24 340.14 263 340.332 262.808C340.524 262.616 340.769 262.52 341.068 262.52ZM347.152 266.376C347.728 266.376 348.245 266.456 348.704 266.616C349.162 266.776 349.6 267.016 350.016 267.336L349.392 268.264C349.008 268.019 348.64 267.837 348.288 267.72C347.946 267.603 347.584 267.544 347.2 267.544C346.72 267.544 346.341 267.645 346.064 267.848C345.786 268.04 345.648 268.307 345.648 268.648C345.648 268.989 345.776 269.256 346.032 269.448C346.298 269.64 346.773 269.827 347.456 270.008C348.394 270.243 349.093 270.563 349.552 270.968C350.021 271.373 350.256 271.928 350.256 272.632C350.256 273.464 349.93 274.099 349.28 274.536C348.64 274.973 347.856 275.192 346.928 275.192C345.648 275.192 344.586 274.824 343.744 274.088L344.528 273.192C345.242 273.736 346.032 274.008 346.896 274.008C347.45 274.008 347.888 273.896 348.208 273.672C348.538 273.437 348.704 273.123 348.704 272.728C348.704 272.44 348.645 272.211 348.528 272.04C348.41 271.859 348.208 271.704 347.92 271.576C347.632 271.437 347.21 271.293 346.656 271.144C345.76 270.909 345.109 270.595 344.704 270.2C344.309 269.805 344.112 269.304 344.112 268.696C344.112 268.259 344.24 267.864 344.496 267.512C344.762 267.149 345.125 266.872 345.584 266.68C346.053 266.477 346.576 266.376 347.152 266.376ZM362.935 270.536C362.935 270.781 362.924 271.032 362.903 271.288H357.527C357.591 272.216 357.826 272.899 358.231 273.336C358.636 273.773 359.159 273.992 359.799 273.992C360.204 273.992 360.578 273.933 360.919 273.816C361.26 273.699 361.618 273.512 361.991 273.256L362.631 274.136C361.735 274.84 360.754 275.192 359.687 275.192C358.514 275.192 357.596 274.808 356.935 274.04C356.284 273.272 355.959 272.216 355.959 270.872C355.959 269.997 356.098 269.224 356.375 268.552C356.663 267.869 357.068 267.336 357.591 266.952C358.124 266.568 358.748 266.376 359.463 266.376C360.583 266.376 361.442 266.744 362.039 267.48C362.636 268.216 362.935 269.235 362.935 270.536ZM361.479 270.104C361.479 269.272 361.314 268.637 360.983 268.2C360.652 267.763 360.156 267.544 359.495 267.544C358.29 267.544 357.634 268.429 357.527 270.2H361.479V270.104ZM371.654 270.536C371.654 270.781 371.643 271.032 371.622 271.288H366.246C366.31 272.216 366.544 272.899 366.95 273.336C367.355 273.773 367.878 273.992 368.518 273.992C368.923 273.992 369.296 273.933 369.638 273.816C369.979 273.699 370.336 273.512 370.71 273.256L371.35 274.136C370.454 274.84 369.472 275.192 368.406 275.192C367.232 275.192 366.315 274.808 365.654 274.04C365.003 273.272 364.678 272.216 364.678 270.872C364.678 269.997 364.816 269.224 365.094 268.552C365.382 267.869 365.787 267.336 366.31 266.952C366.843 266.568 367.467 266.376 368.182 266.376C369.302 266.376 370.16 266.744 370.758 267.48C371.355 268.216 371.654 269.235 371.654 270.536ZM370.198 270.104C370.198 269.272 370.032 268.637 369.702 268.2C369.371 267.763 368.875 267.544 368.214 267.544C367.008 267.544 366.352 268.429 366.246 270.2H370.198V270.104ZM377.972 266.376C378.74 266.376 379.338 266.605 379.764 267.064C380.202 267.523 380.42 268.152 380.42 268.952V275H378.948V269.16C378.948 268.563 378.836 268.141 378.612 267.896C378.388 267.651 378.058 267.528 377.62 267.528C377.172 267.528 376.778 267.656 376.436 267.912C376.095 268.168 375.775 268.536 375.476 269.016V275H374.004V266.568H375.268L375.396 267.816C375.695 267.368 376.063 267.016 376.5 266.76C376.948 266.504 377.439 266.376 377.972 266.376ZM393.806 266.568L390.942 275H389.166L386.254 266.568H387.854L390.062 273.688L392.254 266.568H393.806ZM398.594 266.376C399.778 266.376 400.696 266.771 401.346 267.56C402.008 268.349 402.338 269.421 402.338 270.776C402.338 271.651 402.189 272.424 401.89 273.096C401.592 273.757 401.16 274.275 400.594 274.648C400.029 275.011 399.357 275.192 398.578 275.192C397.394 275.192 396.472 274.797 395.81 274.008C395.149 273.219 394.818 272.147 394.818 270.792C394.818 269.917 394.968 269.149 395.266 268.488C395.565 267.816 395.997 267.299 396.562 266.936C397.128 266.563 397.805 266.376 398.594 266.376ZM398.594 267.56C397.133 267.56 396.402 268.637 396.402 270.792C396.402 272.936 397.128 274.008 398.578 274.008C400.029 274.008 400.754 272.931 400.754 270.776C400.754 268.632 400.034 267.56 398.594 267.56ZM407.938 266.376C409.122 266.376 410.039 266.771 410.69 267.56C411.351 268.349 411.682 269.421 411.682 270.776C411.682 271.651 411.533 272.424 411.234 273.096C410.935 273.757 410.503 274.275 409.938 274.648C409.373 275.011 408.701 275.192 407.922 275.192C406.738 275.192 405.815 274.797 405.154 274.008C404.493 273.219 404.162 272.147 404.162 270.792C404.162 269.917 404.311 269.149 404.61 268.488C404.909 267.816 405.341 267.299 405.906 266.936C406.471 266.563 407.149 266.376 407.938 266.376ZM407.938 267.56C406.477 267.56 405.746 268.637 405.746 270.792C405.746 272.936 406.471 274.008 407.922 274.008C409.373 274.008 410.098 272.931 410.098 270.776C410.098 268.632 409.378 267.56 407.938 267.56ZM417.778 266.376C418.076 266.376 418.354 266.408 418.61 266.472L418.338 267.912C418.082 267.848 417.836 267.816 417.602 267.816C417.079 267.816 416.658 268.008 416.338 268.392C416.018 268.776 415.767 269.373 415.586 270.184V275H414.114V266.568H415.378L415.522 268.28C415.746 267.651 416.05 267.176 416.434 266.856C416.818 266.536 417.266 266.376 417.778 266.376ZM424.142 266.376C425.102 266.376 425.864 266.765 426.43 267.544C426.995 268.312 427.278 269.389 427.278 270.776C427.278 271.651 427.144 272.424 426.878 273.096C426.611 273.757 426.227 274.275 425.726 274.648C425.224 275.011 424.638 275.192 423.966 275.192C423.08 275.192 422.334 274.819 421.726 274.072L421.582 275H420.286V263.176L421.758 263V267.624C422.366 266.792 423.16 266.376 424.142 266.376ZM423.614 274.024C424.264 274.024 424.771 273.763 425.134 273.24C425.507 272.707 425.694 271.885 425.694 270.776C425.694 269.635 425.523 268.813 425.182 268.312C424.84 267.8 424.355 267.544 423.726 267.544C422.979 267.544 422.323 267.981 421.758 268.856V272.888C421.982 273.24 422.254 273.517 422.574 273.72C422.904 273.923 423.251 274.024 423.614 274.024ZM436.154 270.536C436.154 270.781 436.143 271.032 436.122 271.288H430.746C430.81 272.216 431.044 272.899 431.45 273.336C431.855 273.773 432.378 273.992 433.018 273.992C433.423 273.992 433.796 273.933 434.138 273.816C434.479 273.699 434.836 273.512 435.21 273.256L435.85 274.136C434.954 274.84 433.972 275.192 432.906 275.192C431.732 275.192 430.815 274.808 430.154 274.04C429.503 273.272 429.178 272.216 429.178 270.872C429.178 269.997 429.316 269.224 429.594 268.552C429.882 267.869 430.287 267.336 430.81 266.952C431.343 266.568 431.967 266.376 432.682 266.376C433.802 266.376 434.66 266.744 435.258 267.48C435.855 268.216 436.154 269.235 436.154 270.536ZM434.698 270.104C434.698 269.272 434.532 268.637 434.202 268.2C433.871 267.763 433.375 267.544 432.714 267.544C431.508 267.544 430.852 268.429 430.746 270.2H434.698V270.104ZM444.872 270.536C444.872 270.781 444.862 271.032 444.84 271.288H439.464C439.528 272.216 439.763 272.899 440.168 273.336C440.574 273.773 441.096 273.992 441.736 273.992C442.142 273.992 442.515 273.933 442.856 273.816C443.198 273.699 443.555 273.512 443.928 273.256L444.568 274.136C443.672 274.84 442.691 275.192 441.624 275.192C440.451 275.192 439.534 274.808 438.872 274.04C438.222 273.272 437.896 272.216 437.896 270.872C437.896 269.997 438.035 269.224 438.312 268.552C438.6 267.869 439.006 267.336 439.528 266.952C440.062 266.568 440.686 266.376 441.4 266.376C442.52 266.376 443.379 266.744 443.976 267.48C444.574 268.216 444.872 269.235 444.872 270.536ZM443.416 270.104C443.416 269.272 443.251 268.637 442.92 268.2C442.59 267.763 442.094 267.544 441.432 267.544C440.227 267.544 439.571 268.429 439.464 270.2H443.416V270.104ZM448.903 275.192C448.359 275.192 447.927 275.032 447.607 274.712C447.298 274.381 447.143 273.923 447.143 273.336V263.176L448.615 263V273.304C448.615 273.539 448.652 273.709 448.727 273.816C448.812 273.923 448.951 273.976 449.143 273.976C449.346 273.976 449.527 273.944 449.687 273.88L450.071 274.904C449.719 275.096 449.33 275.192 448.903 275.192ZM458.361 263.176V275H457.065L456.921 273.832C456.643 274.259 456.297 274.595 455.881 274.84C455.465 275.075 455.001 275.192 454.489 275.192C453.486 275.192 452.702 274.797 452.137 274.008C451.582 273.219 451.305 272.157 451.305 270.824C451.305 269.96 451.438 269.192 451.705 268.52C451.971 267.848 452.355 267.325 452.857 266.952C453.358 266.568 453.945 266.376 454.617 266.376C455.481 266.376 456.238 266.723 456.889 267.416V263L458.361 263.176ZM454.809 274.024C455.257 274.024 455.641 273.923 455.961 273.72C456.281 273.507 456.59 273.192 456.889 272.776V268.648C456.611 268.285 456.313 268.013 455.993 267.832C455.683 267.64 455.331 267.544 454.937 267.544C454.286 267.544 453.779 267.816 453.417 268.36C453.065 268.904 452.889 269.715 452.889 270.792C452.889 271.88 453.054 272.691 453.385 273.224C453.715 273.757 454.19 274.024 454.809 274.024ZM471.821 266.568L468.957 275H467.181L464.269 266.568H465.869L468.077 273.688L470.269 266.568H471.821ZM478.934 273.032C478.934 273.373 478.993 273.629 479.11 273.8C479.228 273.96 479.404 274.083 479.638 274.168L479.302 275.192C478.865 275.139 478.513 275.016 478.246 274.824C477.98 274.632 477.782 274.333 477.654 273.928C477.089 274.771 476.252 275.192 475.142 275.192C474.31 275.192 473.654 274.957 473.174 274.488C472.694 274.019 472.454 273.405 472.454 272.648C472.454 271.752 472.774 271.064 473.414 270.584C474.065 270.104 474.982 269.864 476.166 269.864H477.462V269.24C477.462 268.643 477.318 268.216 477.03 267.96C476.742 267.704 476.3 267.576 475.702 267.576C475.084 267.576 474.326 267.725 473.43 268.024L473.062 266.952C474.108 266.568 475.078 266.376 475.974 266.376C476.966 266.376 477.708 266.621 478.198 267.112C478.689 267.592 478.934 268.28 478.934 269.176V273.032ZM475.478 274.088C476.321 274.088 476.982 273.651 477.462 272.776V270.84H476.358C474.801 270.84 474.022 271.416 474.022 272.568C474.022 273.069 474.145 273.448 474.39 273.704C474.636 273.96 474.998 274.088 475.478 274.088ZM485.926 266.376C486.694 266.376 487.291 266.605 487.718 267.064C488.155 267.523 488.374 268.152 488.374 268.952V275H486.902V269.16C486.902 268.563 486.79 268.141 486.566 267.896C486.342 267.651 486.011 267.528 485.574 267.528C485.126 267.528 484.731 267.656 484.39 267.912C484.048 268.168 483.728 268.536 483.43 269.016V275H481.958V266.568H483.222L483.35 267.816C483.648 267.368 484.016 267.016 484.454 266.76C484.902 266.504 485.392 266.376 485.926 266.376ZM502.095 263.176V275H500.799L500.655 273.832C500.378 274.259 500.031 274.595 499.615 274.84C499.199 275.075 498.735 275.192 498.223 275.192C497.22 275.192 496.436 274.797 495.871 274.008C495.316 273.219 495.039 272.157 495.039 270.824C495.039 269.96 495.172 269.192 495.439 268.52C495.706 267.848 496.09 267.325 496.591 266.952C497.092 266.568 497.679 266.376 498.351 266.376C499.215 266.376 499.972 266.723 500.623 267.416V263L502.095 263.176ZM498.543 274.024C498.991 274.024 499.375 273.923 499.695 273.72C500.015 273.507 500.324 273.192 500.623 272.776V268.648C500.346 268.285 500.047 268.013 499.727 267.832C499.418 267.64 499.066 267.544 498.671 267.544C498.02 267.544 497.514 267.816 497.151 268.36C496.799 268.904 496.623 269.715 496.623 270.792C496.623 271.88 496.788 272.691 497.119 273.224C497.45 273.757 497.924 274.024 498.543 274.024ZM511.497 270.536C511.497 270.781 511.487 271.032 511.465 271.288H506.089C506.153 272.216 506.388 272.899 506.793 273.336C507.199 273.773 507.721 273.992 508.361 273.992C508.767 273.992 509.14 273.933 509.481 273.816C509.823 273.699 510.18 273.512 510.553 273.256L511.193 274.136C510.297 274.84 509.316 275.192 508.249 275.192C507.076 275.192 506.159 274.808 505.497 274.04C504.847 273.272 504.521 272.216 504.521 270.872C504.521 269.997 504.66 269.224 504.937 268.552C505.225 267.869 505.631 267.336 506.153 266.952C506.687 266.568 507.311 266.376 508.025 266.376C509.145 266.376 510.004 266.744 510.601 267.48C511.199 268.216 511.497 269.235 511.497 270.536ZM510.041 270.104C510.041 269.272 509.876 268.637 509.545 268.2C509.215 267.763 508.719 267.544 508.057 267.544C506.852 267.544 506.196 268.429 506.089 270.2H510.041V270.104Z" fill="#0A2750"/>
<rect width="39" height="24" transform="translate(517 258)" fill="#F2F4F6"/>
<path d="M522.416 274.024C522.837 274.024 523.229 273.955 523.592 273.816C523.96 273.677 524.299 273.501 524.608 273.288L525.264 274.168C524.896 274.483 524.453 274.731 523.936 274.912C523.419 275.093 522.912 275.184 522.416 275.184C521.579 275.184 520.864 275.005 520.272 274.648C519.685 274.285 519.237 273.779 518.928 273.128C518.619 272.472 518.464 271.704 518.464 270.824C518.464 269.981 518.619 269.227 518.928 268.56C519.243 267.888 519.693 267.36 520.28 266.976C520.872 266.592 521.589 266.4 522.432 266.4C522.971 266.4 523.475 266.483 523.944 266.648C524.419 266.808 524.853 267.051 525.248 267.376L524.592 268.272C524.235 268.021 523.875 267.835 523.512 267.712C523.155 267.584 522.789 267.52 522.416 267.52C521.691 267.52 521.093 267.792 520.624 268.336C520.155 268.88 519.92 269.709 519.92 270.824C519.92 271.571 520.027 272.181 520.24 272.656C520.459 273.125 520.755 273.472 521.128 273.696C521.507 273.915 521.936 274.024 522.416 274.024ZM531.41 266.4C532.204 266.4 532.868 266.581 533.402 266.944C533.94 267.301 534.343 267.808 534.61 268.464C534.882 269.12 535.018 269.893 535.018 270.784C535.018 271.643 534.879 272.403 534.602 273.064C534.324 273.725 533.916 274.245 533.378 274.624C532.844 274.997 532.183 275.184 531.394 275.184C530.604 275.184 529.94 275.003 529.402 274.64C528.863 274.277 528.455 273.768 528.178 273.112C527.906 272.451 527.77 271.68 527.77 270.8C527.77 269.931 527.908 269.165 528.186 268.504C528.463 267.843 528.871 267.328 529.41 266.96C529.954 266.587 530.62 266.4 531.41 266.4ZM531.41 267.496C530.684 267.496 530.135 267.765 529.762 268.304C529.394 268.837 529.21 269.669 529.21 270.8C529.21 271.909 529.391 272.733 529.754 273.272C530.122 273.811 530.668 274.08 531.394 274.08C532.119 274.08 532.663 273.811 533.026 273.272C533.394 272.733 533.578 271.904 533.578 270.784C533.578 269.664 533.396 268.837 533.034 268.304C532.671 267.765 532.13 267.496 531.41 267.496ZM542.836 263.016L544.18 263.184V275H543.004L542.876 273.888C542.561 274.336 542.198 274.664 541.788 274.872C541.382 275.08 540.948 275.184 540.484 275.184C539.753 275.184 539.15 275 538.676 274.632C538.201 274.264 537.849 273.752 537.62 273.096C537.39 272.435 537.276 271.669 537.276 270.8C537.276 269.957 537.406 269.205 537.668 268.544C537.929 267.877 538.305 267.355 538.796 266.976C539.292 266.592 539.886 266.4 540.58 266.4C541.065 266.4 541.492 266.485 541.86 266.656C542.228 266.821 542.553 267.067 542.836 267.392V263.016ZM540.932 267.48C540.228 267.48 539.686 267.755 539.308 268.304C538.929 268.853 538.74 269.685 538.74 270.8C538.74 271.525 538.817 272.133 538.972 272.624C539.126 273.115 539.353 273.483 539.652 273.728C539.956 273.973 540.326 274.096 540.764 274.096C541.244 274.096 541.652 273.96 541.988 273.688C542.329 273.416 542.612 273.109 542.836 272.768V268.56C542.606 268.219 542.329 267.955 542.004 267.768C541.678 267.576 541.321 267.48 540.932 267.48ZM548.445 271.264C548.472 271.915 548.597 272.448 548.821 272.864C549.045 273.275 549.341 273.579 549.709 273.776C550.077 273.968 550.477 274.064 550.909 274.064C551.341 274.064 551.731 274 552.077 273.872C552.429 273.744 552.789 273.555 553.157 273.304L553.789 274.192C553.395 274.501 552.944 274.744 552.437 274.92C551.936 275.096 551.421 275.184 550.893 275.184C550.077 275.184 549.381 275 548.805 274.632C548.229 274.264 547.789 273.752 547.485 273.096C547.187 272.435 547.037 271.669 547.037 270.8C547.037 269.947 547.189 269.189 547.493 268.528C547.797 267.867 548.224 267.347 548.773 266.968C549.323 266.589 549.971 266.4 550.717 266.4C551.427 266.4 552.037 266.568 552.549 266.904C553.061 267.235 553.453 267.709 553.725 268.328C554.003 268.941 554.141 269.675 554.141 270.528C554.141 270.672 554.139 270.808 554.133 270.936C554.128 271.059 554.12 271.168 554.109 271.264H548.445ZM550.733 267.504C550.109 267.504 549.587 267.725 549.165 268.168C548.749 268.611 548.512 269.296 548.453 270.224H552.845C552.829 269.323 552.632 268.645 552.253 268.192C551.875 267.733 551.368 267.504 550.733 267.504Z" fill="#0A2750"/>
<path d="M564.592 266.376C565.093 266.376 565.552 266.451 565.968 266.6C566.384 266.739 566.784 266.968 567.168 267.288L566.464 268.216C566.165 268.003 565.872 267.848 565.584 267.752C565.307 267.645 564.997 267.592 564.656 267.592C563.973 267.592 563.44 267.864 563.056 268.408C562.683 268.952 562.496 269.757 562.496 270.824C562.496 271.891 562.683 272.68 563.056 273.192C563.429 273.693 563.963 273.944 564.656 273.944C564.987 273.944 565.291 273.896 565.568 273.8C565.845 273.693 566.155 273.528 566.496 273.304L567.168 274.264C566.4 274.883 565.541 275.192 564.592 275.192C563.451 275.192 562.549 274.808 561.888 274.04C561.237 273.272 560.912 272.211 560.912 270.856C560.912 269.96 561.061 269.176 561.36 268.504C561.659 267.832 562.08 267.309 562.624 266.936C563.179 266.563 563.835 266.376 564.592 266.376ZM572.016 266.376C573.2 266.376 574.117 266.771 574.768 267.56C575.429 268.349 575.76 269.421 575.76 270.776C575.76 271.651 575.611 272.424 575.312 273.096C575.013 273.757 574.581 274.275 574.016 274.648C573.451 275.011 572.779 275.192 572 275.192C570.816 275.192 569.893 274.797 569.232 274.008C568.571 273.219 568.24 272.147 568.24 270.792C568.24 269.917 568.389 269.149 568.688 268.488C568.987 267.816 569.419 267.299 569.984 266.936C570.549 266.563 571.227 266.376 572.016 266.376ZM572.016 267.56C570.555 267.56 569.824 268.637 569.824 270.792C569.824 272.936 570.549 274.008 572 274.008C573.451 274.008 574.176 272.931 574.176 270.776C574.176 268.632 573.456 267.56 572.016 267.56ZM586.656 266.376C587.349 266.376 587.904 266.611 588.32 267.08C588.736 267.539 588.944 268.163 588.944 268.952V275H587.472V269.16C587.472 268.072 587.077 267.528 586.288 267.528C585.872 267.528 585.52 267.651 585.232 267.896C584.944 268.131 584.635 268.504 584.304 269.016V275H582.832V269.16C582.832 268.072 582.437 267.528 581.648 267.528C581.221 267.528 580.864 267.651 580.576 267.896C580.288 268.141 579.984 268.515 579.664 269.016V275H578.192V266.568H579.456L579.584 267.8C580.213 266.851 581.024 266.376 582.016 266.376C582.539 266.376 582.981 266.509 583.344 266.776C583.717 267.043 583.984 267.416 584.144 267.896C584.475 267.405 584.837 267.032 585.232 266.776C585.637 266.509 586.112 266.376 586.656 266.376ZM595.783 266.376C596.86 266.376 597.649 266.76 598.151 267.528C598.652 268.296 598.903 269.379 598.903 270.776C598.903 272.099 598.615 273.165 598.039 273.976C597.463 274.787 596.647 275.192 595.591 275.192C594.652 275.192 593.916 274.872 593.383 274.232V278.232L591.911 278.408V266.568H593.175L593.287 267.704C593.596 267.277 593.969 266.952 594.407 266.728C594.844 266.493 595.303 266.376 595.783 266.376ZM595.239 273.992C596.625 273.992 597.319 272.92 597.319 270.776C597.319 268.621 596.684 267.544 595.415 267.544C594.999 267.544 594.62 267.667 594.279 267.912C593.937 268.157 593.639 268.472 593.383 268.856V272.968C593.596 273.299 593.863 273.555 594.183 273.736C594.503 273.907 594.855 273.992 595.239 273.992ZM604.579 266.376C605.763 266.376 606.68 266.771 607.331 267.56C607.992 268.349 608.323 269.421 608.323 270.776C608.323 271.651 608.173 272.424 607.875 273.096C607.576 273.757 607.144 274.275 606.579 274.648C606.013 275.011 605.341 275.192 604.563 275.192C603.379 275.192 602.456 274.797 601.795 274.008C601.133 273.219 600.803 272.147 600.803 270.792C600.803 269.917 600.952 269.149 601.251 268.488C601.549 267.816 601.981 267.299 602.547 266.936C603.112 266.563 603.789 266.376 604.579 266.376ZM604.579 267.56C603.117 267.56 602.387 268.637 602.387 270.792C602.387 272.936 603.112 274.008 604.563 274.008C606.013 274.008 606.739 272.931 606.739 270.776C606.739 268.632 606.019 267.56 604.579 267.56ZM614.722 266.376C615.49 266.376 616.088 266.605 616.514 267.064C616.952 267.523 617.17 268.152 617.17 268.952V275H615.698V269.16C615.698 268.563 615.586 268.141 615.362 267.896C615.138 267.651 614.808 267.528 614.37 267.528C613.922 267.528 613.528 267.656 613.186 267.912C612.845 268.168 612.525 268.536 612.226 269.016V275H610.754V266.568H612.018L612.146 267.816C612.445 267.368 612.813 267.016 613.25 266.76C613.698 266.504 614.189 266.376 614.722 266.376ZM626.497 270.536C626.497 270.781 626.487 271.032 626.465 271.288H621.089C621.153 272.216 621.388 272.899 621.793 273.336C622.199 273.773 622.721 273.992 623.361 273.992C623.767 273.992 624.14 273.933 624.481 273.816C624.823 273.699 625.18 273.512 625.553 273.256L626.193 274.136C625.297 274.84 624.316 275.192 623.249 275.192C622.076 275.192 621.159 274.808 620.497 274.04C619.847 273.272 619.521 272.216 619.521 270.872C619.521 269.997 619.66 269.224 619.937 268.552C620.225 267.869 620.631 267.336 621.153 266.952C621.687 266.568 622.311 266.376 623.025 266.376C624.145 266.376 625.004 266.744 625.601 267.48C626.199 268.216 626.497 269.235 626.497 270.536ZM625.041 270.104C625.041 269.272 624.876 268.637 624.545 268.2C624.215 267.763 623.719 267.544 623.057 267.544C621.852 267.544 621.196 268.429 621.089 270.2H625.041V270.104ZM632.816 266.376C633.584 266.376 634.181 266.605 634.608 267.064C635.045 267.523 635.264 268.152 635.264 268.952V275H633.792V269.16C633.792 268.563 633.68 268.141 633.456 267.896C633.232 267.651 632.901 267.528 632.464 267.528C632.016 267.528 631.621 267.656 631.28 267.912C630.939 268.168 630.619 268.536 630.32 269.016V275H628.848V266.568H630.112L630.24 267.816C630.539 267.368 630.907 267.016 631.344 266.76C631.792 266.504 632.283 266.376 632.816 266.376ZM642.479 274.616C641.924 275 641.295 275.192 640.591 275.192C639.876 275.192 639.316 274.989 638.911 274.584C638.516 274.168 638.319 273.571 638.319 272.792V267.704H636.847V266.568H638.319V264.664L639.791 264.488V266.568H641.791L641.631 267.704H639.791V272.728C639.791 273.165 639.866 273.485 640.015 273.688C640.175 273.88 640.436 273.976 640.799 273.976C641.13 273.976 641.503 273.864 641.919 273.64L642.479 274.616ZM644.451 272.968C644.771 272.968 645.038 273.075 645.251 273.288C645.464 273.501 645.571 273.763 645.571 274.072C645.571 274.381 645.464 274.648 645.251 274.872C645.038 275.085 644.771 275.192 644.451 275.192C644.142 275.192 643.88 275.085 643.667 274.872C643.454 274.648 643.347 274.381 643.347 274.072C643.347 273.763 643.454 273.501 643.667 273.288C643.88 273.075 644.142 272.968 644.451 272.968Z" fill="#0A2750"/>
<path d="M518.25 250.25H554.75" stroke="#DE00A4" stroke-width="2" stroke-linecap="square" stroke-linejoin="bevel"/>
<path d="M537 210V250" stroke="#DE00A4" stroke-width="2" stroke-linecap="square" stroke-linejoin="bevel"/>
<rect x="521" y="178" width="32" height="32" rx="16" fill="#DE00A4"/>
<path d="M539.502 188.368V200.5H537V190.888L534.336 192.526L533.22 190.798L537.252 188.368H539.502Z" fill="white"/>
</svg>
