<svg width="960" height="540" viewBox="0 0 960 540" fill="none" xmlns="http://www.w3.org/2000/svg">
<rect x="0.5" y="0.5" width="959" height="539" fill="white"/>
<rect x="0.5" y="0.5" width="959" height="539" stroke="#CCCCCC"/>
<rect x="316.5" y="178.5" width="327" height="183" stroke="#FF00C8" stroke-dasharray="2 2"/>
<rect x="320.5" y="182.5" width="319" height="23" stroke="#FF00C8" stroke-dasharray="2 2"/>
<line x1="253" y1="258" x2="325" y2="258" stroke="#42144F" stroke-width="2"/>
<line x1="626" y1="259" x2="708" y2="259" stroke="#42144F" stroke-width="2"/>
<line x1="253" y1="194" x2="321" y2="194" stroke="#42144F" stroke-width="2"/>
<line x1="480" y1="115" x2="480" y2="179" stroke="#42144F" stroke-width="2"/>
<rect x="236" y="242" width="32" height="32" rx="16" fill="#42144F"/>
<path d="M251.598 252.134C252.426 252.134 253.134 252.272 253.722 252.548C254.322 252.812 254.772 253.178 255.072 253.646C255.384 254.114 255.54 254.636 255.54 255.212C255.54 255.944 255.33 256.556 254.91 257.048C254.49 257.528 253.908 257.87 253.164 258.074C253.98 258.158 254.646 258.452 255.162 258.956C255.678 259.46 255.936 260.162 255.936 261.062C255.936 261.758 255.756 262.388 255.396 262.952C255.048 263.516 254.532 263.966 253.848 264.302C253.164 264.626 252.354 264.788 251.418 264.788C249.702 264.788 248.358 264.188 247.386 262.988L248.772 261.656C249.18 262.064 249.582 262.358 249.978 262.538C250.374 262.718 250.806 262.808 251.274 262.808C251.898 262.808 252.39 262.64 252.75 262.304C253.122 261.968 253.308 261.5 253.308 260.9C253.308 260.252 253.134 259.784 252.786 259.496C252.438 259.208 251.916 259.064 251.22 259.064H250.23L250.536 257.264H251.202C251.766 257.264 252.216 257.114 252.552 256.814C252.888 256.514 253.056 256.094 253.056 255.554C253.056 255.086 252.9 254.72 252.588 254.456C252.288 254.192 251.874 254.06 251.346 254.06C250.89 254.06 250.47 254.144 250.086 254.312C249.702 254.48 249.324 254.744 248.952 255.104L247.674 253.718C248.79 252.662 250.098 252.134 251.598 252.134Z" fill="white"/>
<rect x="692" y="243" width="32" height="32" rx="16" fill="#42144F"/>
<path d="M712.602 260.856V262.8H711.18V265.5H708.696L708.678 262.8H703.548V261.072L707.04 253.098L709.2 253.908L706.194 260.856H708.714L708.984 257.886H711.18V260.856H712.602Z" fill="white"/>
<rect x="236" y="178" width="32" height="32" rx="16" fill="#42144F"/>
<path d="M251.643 188.134C252.483 188.134 253.209 188.29 253.821 188.602C254.433 188.902 254.895 189.316 255.207 189.844C255.531 190.36 255.693 190.936 255.693 191.572C255.693 192.232 255.549 192.868 255.261 193.48C254.985 194.092 254.505 194.782 253.821 195.55C253.149 196.318 252.165 197.308 250.869 198.52H255.963L255.675 200.5H247.953V198.646C249.465 197.134 250.557 196.006 251.229 195.262C251.901 194.518 252.375 193.888 252.651 193.372C252.927 192.856 253.065 192.328 253.065 191.788C253.065 191.272 252.915 190.864 252.615 190.564C252.315 190.264 251.913 190.114 251.409 190.114C250.965 190.114 250.569 190.216 250.221 190.42C249.873 190.612 249.507 190.936 249.123 191.392L247.593 190.168C248.625 188.812 249.975 188.134 251.643 188.134Z" fill="white"/>
<rect x="463" y="99" width="32" height="32" rx="16" fill="#42144F"/>
<path d="M481.502 109.368V121.5H479V111.888L476.336 113.526L475.22 111.798L479.252 109.368H481.502Z" fill="white"/>
<path d="M345.168 200H343.728V189.84H340.16V188.576H348.72V189.84H345.168V200ZM352.438 191.264C353.174 191.264 353.803 191.424 354.326 191.744C354.859 192.064 355.264 192.517 355.542 193.104C355.83 193.68 355.974 194.357 355.974 195.136V195.984H350.102C350.123 196.955 350.368 197.696 350.838 198.208C351.318 198.709 351.984 198.96 352.838 198.96C353.382 198.96 353.862 198.912 354.278 198.816C354.704 198.709 355.142 198.56 355.59 198.368V199.6C355.152 199.792 354.72 199.931 354.294 200.016C353.867 200.112 353.36 200.16 352.774 200.16C351.963 200.16 351.243 199.995 350.614 199.664C349.995 199.333 349.51 198.843 349.158 198.192C348.816 197.531 348.646 196.725 348.646 195.776C348.646 194.837 348.8 194.032 349.11 193.36C349.43 192.688 349.872 192.171 350.438 191.808C351.014 191.445 351.68 191.264 352.438 191.264ZM352.422 192.416C351.75 192.416 351.216 192.635 350.822 193.072C350.438 193.499 350.208 194.096 350.134 194.864H354.502C354.502 194.373 354.427 193.947 354.278 193.584C354.128 193.221 353.899 192.939 353.59 192.736C353.291 192.523 352.902 192.416 352.422 192.416ZM359.876 195.616L356.916 191.424H358.516L360.724 194.656L362.916 191.424H364.5L361.54 195.616L364.66 200H363.06L360.724 196.576L358.356 200H356.772L359.876 195.616ZM369.177 199.008C369.39 199.008 369.609 198.992 369.833 198.96C370.057 198.917 370.238 198.875 370.377 198.832V199.904C370.228 199.979 370.014 200.037 369.737 200.08C369.46 200.133 369.193 200.16 368.937 200.16C368.489 200.16 368.073 200.085 367.689 199.936C367.316 199.776 367.012 199.504 366.777 199.12C366.542 198.736 366.425 198.197 366.425 197.504V192.512H365.209V191.84L366.441 191.28L367.001 189.456H367.833V191.424H370.313V192.512H367.833V197.472C367.833 197.995 367.956 198.384 368.201 198.64C368.457 198.885 368.782 199.008 369.177 199.008Z" fill="#001A40"/>
<circle cx="328" cy="194" r="4" fill="#001A40"/>
<path d="M345.168 232H343.728V221.84H340.16V220.576H348.72V221.84H345.168V232ZM352.438 223.264C353.174 223.264 353.803 223.424 354.326 223.744C354.859 224.064 355.264 224.517 355.542 225.104C355.83 225.68 355.974 226.357 355.974 227.136V227.984H350.102C350.123 228.955 350.368 229.696 350.838 230.208C351.318 230.709 351.984 230.96 352.838 230.96C353.382 230.96 353.862 230.912 354.278 230.816C354.704 230.709 355.142 230.56 355.59 230.368V231.6C355.152 231.792 354.72 231.931 354.294 232.016C353.867 232.112 353.36 232.16 352.774 232.16C351.963 232.16 351.243 231.995 350.614 231.664C349.995 231.333 349.51 230.843 349.158 230.192C348.816 229.531 348.646 228.725 348.646 227.776C348.646 226.837 348.8 226.032 349.11 225.36C349.43 224.688 349.872 224.171 350.438 223.808C351.014 223.445 351.68 223.264 352.438 223.264ZM352.422 224.416C351.75 224.416 351.216 224.635 350.822 225.072C350.438 225.499 350.208 226.096 350.134 226.864H354.502C354.502 226.373 354.427 225.947 354.278 225.584C354.128 225.221 353.899 224.939 353.59 224.736C353.291 224.523 352.902 224.416 352.422 224.416ZM359.876 227.616L356.916 223.424H358.516L360.724 226.656L362.916 223.424H364.5L361.54 227.616L364.66 232H363.06L360.724 228.576L358.356 232H356.772L359.876 227.616ZM369.177 231.008C369.39 231.008 369.609 230.992 369.833 230.96C370.057 230.917 370.238 230.875 370.377 230.832V231.904C370.228 231.979 370.014 232.037 369.737 232.08C369.46 232.133 369.193 232.16 368.937 232.16C368.489 232.16 368.073 232.085 367.689 231.936C367.316 231.776 367.012 231.504 366.777 231.12C366.542 230.736 366.425 230.197 366.425 229.504V224.512H365.209V223.84L366.441 223.28L367.001 221.456H367.833V223.424H370.313V224.512H367.833V229.472C367.833 229.995 367.956 230.384 368.201 230.64C368.457 230.885 368.782 231.008 369.177 231.008Z" fill="#001A40"/>
<circle cx="328" cy="226" r="4" fill="#001A40"/>
<path d="M350.704 258.176C350.704 259.456 350.464 260.528 349.984 261.392C349.515 262.256 348.837 262.907 347.952 263.344C347.067 263.781 345.995 264 344.736 264H341.552V252.576H345.072C346.224 252.576 347.221 252.789 348.064 253.216C348.907 253.643 349.557 254.272 350.016 255.104C350.475 255.925 350.704 256.949 350.704 258.176ZM349.184 258.224C349.184 257.211 349.013 256.379 348.672 255.728C348.341 255.077 347.851 254.597 347.2 254.288C346.56 253.968 345.781 253.808 344.864 253.808H342.992V262.768H344.544C346.091 262.768 347.248 262.389 348.016 261.632C348.795 260.864 349.184 259.728 349.184 258.224ZM354.456 255.424V264H353.048V255.424H354.456ZM353.768 252.208C353.981 252.208 354.168 252.283 354.328 252.432C354.498 252.571 354.584 252.795 354.584 253.104C354.584 253.403 354.498 253.627 354.328 253.776C354.168 253.925 353.981 254 353.768 254C353.533 254 353.336 253.925 353.176 253.776C353.016 253.627 352.936 253.403 352.936 253.104C352.936 252.795 353.016 252.571 353.176 252.432C353.336 252.283 353.533 252.208 353.768 252.208ZM360.036 263.008C360.25 263.008 360.469 262.992 360.693 262.96C360.917 262.917 361.098 262.875 361.237 262.832V263.904C361.087 263.979 360.874 264.037 360.597 264.08C360.319 264.133 360.053 264.16 359.797 264.16C359.349 264.16 358.933 264.085 358.549 263.936C358.175 263.776 357.871 263.504 357.637 263.12C357.402 262.736 357.285 262.197 357.285 261.504V256.512H356.069V255.84L357.301 255.28L357.861 253.456H358.693V255.424H361.173V256.512H358.693V261.472C358.693 261.995 358.815 262.384 359.061 262.64C359.317 262.885 359.642 263.008 360.036 263.008ZM368.518 255.424V264H367.11V255.424H368.518ZM367.83 252.208C368.043 252.208 368.23 252.283 368.39 252.432C368.561 252.571 368.646 252.795 368.646 253.104C368.646 253.403 368.561 253.627 368.39 253.776C368.23 253.925 368.043 254 367.83 254C367.595 254 367.398 253.925 367.238 253.776C367.078 253.627 366.998 253.403 366.998 253.104C366.998 252.795 367.078 252.571 367.238 252.432C367.398 252.283 367.595 252.208 367.83 252.208ZM376.819 261.632C376.819 262.187 376.68 262.651 376.403 263.024C376.126 263.397 375.731 263.68 375.219 263.872C374.707 264.064 374.099 264.16 373.395 264.16C372.798 264.16 372.28 264.112 371.843 264.016C371.416 263.92 371.038 263.787 370.707 263.616V262.336C371.048 262.507 371.459 262.667 371.939 262.816C372.43 262.955 372.926 263.024 373.427 263.024C374.142 263.024 374.659 262.912 374.979 262.688C375.299 262.453 375.459 262.144 375.459 261.76C375.459 261.547 375.4 261.355 375.283 261.184C375.166 261.013 374.952 260.843 374.643 260.672C374.344 260.501 373.912 260.309 373.347 260.096C372.792 259.883 372.318 259.669 371.923 259.456C371.528 259.243 371.224 258.987 371.011 258.688C370.798 258.389 370.691 258.005 370.691 257.536C370.691 256.811 370.984 256.251 371.571 255.856C372.168 255.461 372.947 255.264 373.907 255.264C374.43 255.264 374.915 255.317 375.363 255.424C375.822 255.52 376.248 255.659 376.643 255.84L376.163 256.96C375.928 256.853 375.678 256.763 375.411 256.688C375.155 256.603 374.894 256.539 374.627 256.496C374.36 256.443 374.088 256.416 373.811 256.416C373.235 256.416 372.792 256.512 372.483 256.704C372.184 256.885 372.035 257.136 372.035 257.456C372.035 257.691 372.104 257.893 372.243 258.064C372.382 258.224 372.611 258.384 372.931 258.544C373.262 258.693 373.699 258.875 374.243 259.088C374.787 259.291 375.251 259.499 375.635 259.712C376.019 259.925 376.312 260.187 376.515 260.496C376.718 260.795 376.819 261.173 376.819 261.632ZM386.36 255.264C387.096 255.264 387.725 255.424 388.248 255.744C388.781 256.064 389.186 256.517 389.464 257.104C389.752 257.68 389.896 258.357 389.896 259.136V259.984H384.024C384.045 260.955 384.29 261.696 384.76 262.208C385.24 262.709 385.906 262.96 386.76 262.96C387.304 262.96 387.784 262.912 388.2 262.816C388.626 262.709 389.064 262.56 389.512 262.368V263.6C389.074 263.792 388.642 263.931 388.216 264.016C387.789 264.112 387.282 264.16 386.696 264.16C385.885 264.16 385.165 263.995 384.536 263.664C383.917 263.333 383.432 262.843 383.08 262.192C382.738 261.531 382.568 260.725 382.568 259.776C382.568 258.837 382.722 258.032 383.032 257.36C383.352 256.688 383.794 256.171 384.36 255.808C384.936 255.445 385.602 255.264 386.36 255.264ZM386.344 256.416C385.672 256.416 385.138 256.635 384.744 257.072C384.36 257.499 384.13 258.096 384.056 258.864H388.424C388.424 258.373 388.349 257.947 388.2 257.584C388.05 257.221 387.821 256.939 387.512 256.736C387.213 256.523 386.824 256.416 386.344 256.416ZM395.391 255.264C396.127 255.264 396.756 255.424 397.279 255.744C397.812 256.064 398.217 256.517 398.495 257.104C398.783 257.68 398.927 258.357 398.927 259.136V259.984H393.055C393.076 260.955 393.321 261.696 393.791 262.208C394.271 262.709 394.937 262.96 395.791 262.96C396.335 262.96 396.815 262.912 397.231 262.816C397.657 262.709 398.095 262.56 398.543 262.368V263.6C398.105 263.792 397.673 263.931 397.247 264.016C396.82 264.112 396.313 264.16 395.727 264.16C394.916 264.16 394.196 263.995 393.567 263.664C392.948 263.333 392.463 262.843 392.111 262.192C391.769 261.531 391.599 260.725 391.599 259.776C391.599 258.837 391.753 258.032 392.063 257.36C392.383 256.688 392.825 256.171 393.391 255.808C393.967 255.445 394.633 255.264 395.391 255.264ZM395.375 256.416C394.703 256.416 394.169 256.635 393.775 257.072C393.391 257.499 393.161 258.096 393.087 258.864H397.455C397.455 258.373 397.38 257.947 397.231 257.584C397.081 257.221 396.852 256.939 396.543 256.736C396.244 256.523 395.855 256.416 395.375 256.416ZM405.238 255.264C406.262 255.264 407.035 255.515 407.558 256.016C408.081 256.507 408.342 257.307 408.342 258.416V264H406.95V258.512C406.95 257.819 406.795 257.301 406.486 256.96C406.177 256.619 405.691 256.448 405.03 256.448C404.081 256.448 403.425 256.715 403.062 257.248C402.699 257.781 402.518 258.549 402.518 259.552V264H401.11V255.424H402.246L402.454 256.592H402.534C402.726 256.293 402.961 256.048 403.238 255.856C403.526 255.653 403.841 255.504 404.182 255.408C404.523 255.312 404.875 255.264 405.238 255.264ZM417.045 264L413.797 255.424H415.301L417.125 260.48C417.21 260.715 417.301 260.976 417.397 261.264C417.493 261.552 417.578 261.829 417.653 262.096C417.728 262.352 417.781 262.571 417.813 262.752H417.877C417.92 262.571 417.978 262.347 418.053 262.08C418.138 261.813 418.229 261.536 418.325 261.248C418.432 260.96 418.522 260.704 418.597 260.48L420.421 255.424H421.925L418.661 264H417.045ZM430.738 259.696C430.738 260.411 430.642 261.045 430.45 261.6C430.269 262.144 430.002 262.608 429.65 262.992C429.309 263.376 428.887 263.669 428.386 263.872C427.895 264.064 427.346 264.16 426.738 264.16C426.173 264.16 425.65 264.064 425.17 263.872C424.69 263.669 424.274 263.376 423.922 262.992C423.57 262.608 423.293 262.144 423.09 261.6C422.898 261.045 422.802 260.411 422.802 259.696C422.802 258.747 422.962 257.947 423.282 257.296C423.602 256.635 424.061 256.133 424.658 255.792C425.255 255.44 425.965 255.264 426.786 255.264C427.565 255.264 428.247 255.44 428.834 255.792C429.431 256.133 429.895 256.635 430.226 257.296C430.567 257.947 430.738 258.747 430.738 259.696ZM424.258 259.696C424.258 260.368 424.343 260.955 424.514 261.456C424.695 261.947 424.973 262.325 425.346 262.592C425.719 262.859 426.194 262.992 426.77 262.992C427.346 262.992 427.821 262.859 428.194 262.592C428.567 262.325 428.839 261.947 429.01 261.456C429.191 260.955 429.282 260.368 429.282 259.696C429.282 259.013 429.191 258.432 429.01 257.952C428.829 257.472 428.551 257.104 428.178 256.848C427.815 256.581 427.341 256.448 426.754 256.448C425.879 256.448 425.245 256.736 424.85 257.312C424.455 257.888 424.258 258.683 424.258 259.696ZM440.425 259.696C440.425 260.411 440.329 261.045 440.137 261.6C439.956 262.144 439.689 262.608 439.337 262.992C438.996 263.376 438.575 263.669 438.073 263.872C437.583 264.064 437.033 264.16 436.425 264.16C435.86 264.16 435.337 264.064 434.857 263.872C434.377 263.669 433.961 263.376 433.609 262.992C433.257 262.608 432.98 262.144 432.777 261.6C432.585 261.045 432.489 260.411 432.489 259.696C432.489 258.747 432.649 257.947 432.969 257.296C433.289 256.635 433.748 256.133 434.345 255.792C434.943 255.44 435.652 255.264 436.473 255.264C437.252 255.264 437.935 255.44 438.521 255.792C439.119 256.133 439.583 256.635 439.913 257.296C440.255 257.947 440.425 258.747 440.425 259.696ZM433.945 259.696C433.945 260.368 434.031 260.955 434.201 261.456C434.383 261.947 434.66 262.325 435.033 262.592C435.407 262.859 435.881 262.992 436.457 262.992C437.033 262.992 437.508 262.859 437.881 262.592C438.255 262.325 438.527 261.947 438.697 261.456C438.879 260.955 438.969 260.368 438.969 259.696C438.969 259.013 438.879 258.432 438.697 257.952C438.516 257.472 438.239 257.104 437.865 256.848C437.503 256.581 437.028 256.448 436.441 256.448C435.567 256.448 434.932 256.736 434.537 257.312C434.143 257.888 433.945 258.683 433.945 259.696ZM446.657 255.264C446.817 255.264 446.988 255.275 447.169 255.296C447.361 255.307 447.526 255.328 447.665 255.36L447.489 256.656C447.35 256.624 447.196 256.597 447.025 256.576C446.865 256.555 446.71 256.544 446.561 256.544C446.23 256.544 445.916 256.613 445.617 256.752C445.318 256.891 445.052 257.088 444.817 257.344C444.582 257.589 444.396 257.888 444.257 258.24C444.129 258.592 444.065 258.987 444.065 259.424V264H442.657V255.424H443.809L443.969 256.992H444.033C444.214 256.672 444.433 256.384 444.689 256.128C444.945 255.861 445.238 255.653 445.569 255.504C445.9 255.344 446.262 255.264 446.657 255.264ZM450.674 254.8C450.674 255.163 450.664 255.504 450.642 255.824C450.632 256.133 450.616 256.379 450.594 256.56H450.674C450.92 256.197 451.256 255.893 451.682 255.648C452.109 255.403 452.658 255.28 453.33 255.28C454.397 255.28 455.25 255.653 455.89 256.4C456.541 257.136 456.866 258.24 456.866 259.712C456.866 260.693 456.717 261.515 456.418 262.176C456.13 262.837 455.72 263.333 455.186 263.664C454.653 263.995 454.034 264.16 453.33 264.16C452.658 264.16 452.109 264.037 451.682 263.792C451.256 263.547 450.92 263.253 450.674 262.912H450.562L450.274 264H449.266V251.84H450.674V254.8ZM453.09 256.448C452.482 256.448 452.002 256.565 451.65 256.8C451.298 257.024 451.048 257.376 450.898 257.856C450.749 258.325 450.674 258.928 450.674 259.664V259.728C450.674 260.784 450.845 261.595 451.186 262.16C451.538 262.715 452.184 262.992 453.122 262.992C453.89 262.992 454.461 262.709 454.834 262.144C455.218 261.579 455.41 260.763 455.41 259.696C455.41 258.619 455.218 257.808 454.834 257.264C454.461 256.72 453.88 256.448 453.09 256.448ZM462.422 255.264C463.158 255.264 463.787 255.424 464.31 255.744C464.843 256.064 465.249 256.517 465.526 257.104C465.814 257.68 465.958 258.357 465.958 259.136V259.984H460.086C460.107 260.955 460.353 261.696 460.822 262.208C461.302 262.709 461.969 262.96 462.822 262.96C463.366 262.96 463.846 262.912 464.262 262.816C464.689 262.709 465.126 262.56 465.574 262.368V263.6C465.137 263.792 464.705 263.931 464.278 264.016C463.851 264.112 463.345 264.16 462.758 264.16C461.947 264.16 461.227 263.995 460.598 263.664C459.979 263.333 459.494 262.843 459.142 262.192C458.801 261.531 458.63 260.725 458.63 259.776C458.63 258.837 458.785 258.032 459.094 257.36C459.414 256.688 459.857 256.171 460.422 255.808C460.998 255.445 461.665 255.264 462.422 255.264ZM462.406 256.416C461.734 256.416 461.201 256.635 460.806 257.072C460.422 257.499 460.193 258.096 460.118 258.864H464.486C464.486 258.373 464.411 257.947 464.262 257.584C464.113 257.221 463.883 256.939 463.574 256.736C463.275 256.523 462.886 256.416 462.406 256.416ZM471.453 255.264C472.189 255.264 472.819 255.424 473.341 255.744C473.875 256.064 474.28 256.517 474.557 257.104C474.845 257.68 474.989 258.357 474.989 259.136V259.984H469.117C469.139 260.955 469.384 261.696 469.853 262.208C470.333 262.709 471 262.96 471.853 262.96C472.397 262.96 472.877 262.912 473.293 262.816C473.72 262.709 474.157 262.56 474.605 262.368V263.6C474.168 263.792 473.736 263.931 473.309 264.016C472.883 264.112 472.376 264.16 471.789 264.16C470.979 264.16 470.259 263.995 469.629 263.664C469.011 263.333 468.525 262.843 468.173 262.192C467.832 261.531 467.661 260.725 467.661 259.776C467.661 258.837 467.816 258.032 468.125 257.36C468.445 256.688 468.888 256.171 469.453 255.808C470.029 255.445 470.696 255.264 471.453 255.264ZM471.437 256.416C470.765 256.416 470.232 256.635 469.837 257.072C469.453 257.499 469.224 258.096 469.149 258.864H473.517C473.517 258.373 473.443 257.947 473.293 257.584C473.144 257.221 472.915 256.939 472.605 256.736C472.307 256.523 471.917 256.416 471.437 256.416ZM478.581 264H477.173V251.84H478.581V264ZM484.338 264.16C483.271 264.16 482.418 263.792 481.778 263.056C481.138 262.309 480.818 261.2 480.818 259.728C480.818 258.256 481.138 257.147 481.778 256.4C482.428 255.643 483.287 255.264 484.354 255.264C484.802 255.264 485.191 255.323 485.522 255.44C485.852 255.547 486.14 255.696 486.386 255.888C486.631 256.08 486.839 256.293 487.01 256.528H487.106C487.095 256.389 487.074 256.187 487.042 255.92C487.02 255.643 487.01 255.424 487.01 255.264V251.84H488.418V264H487.282L487.074 262.848H487.01C486.839 263.093 486.631 263.317 486.386 263.52C486.14 263.712 485.847 263.867 485.506 263.984C485.175 264.101 484.786 264.16 484.338 264.16ZM484.562 262.992C485.468 262.992 486.103 262.747 486.466 262.256C486.839 261.755 487.026 261.003 487.026 260V259.744C487.026 258.677 486.85 257.861 486.498 257.296C486.146 256.72 485.495 256.432 484.546 256.432C483.788 256.432 483.218 256.736 482.834 257.344C482.46 257.941 482.274 258.747 482.274 259.76C482.274 260.784 482.46 261.579 482.834 262.144C483.218 262.709 483.794 262.992 484.562 262.992ZM497.186 264L493.938 255.424H495.442L497.266 260.48C497.351 260.715 497.442 260.976 497.538 261.264C497.634 261.552 497.719 261.829 497.794 262.096C497.868 262.352 497.922 262.571 497.954 262.752H498.018C498.06 262.571 498.119 262.347 498.194 262.08C498.279 261.813 498.37 261.536 498.466 261.248C498.572 260.96 498.663 260.704 498.738 260.48L500.562 255.424H502.066L498.802 264H497.186ZM506.671 255.28C507.716 255.28 508.489 255.509 508.991 255.968C509.492 256.427 509.743 257.157 509.743 258.16V264H508.719L508.447 262.784H508.383C508.137 263.093 507.881 263.355 507.615 263.568C507.359 263.771 507.06 263.92 506.719 264.016C506.388 264.112 505.983 264.16 505.503 264.16C504.991 264.16 504.527 264.069 504.111 263.888C503.705 263.707 503.385 263.429 503.151 263.056C502.916 262.672 502.799 262.192 502.799 261.616C502.799 260.763 503.135 260.107 503.807 259.648C504.479 259.179 505.513 258.923 506.911 258.88L508.367 258.832V258.32C508.367 257.605 508.212 257.109 507.903 256.832C507.593 256.555 507.156 256.416 506.591 256.416C506.143 256.416 505.716 256.485 505.311 256.624C504.905 256.752 504.527 256.901 504.174 257.072L503.743 256.016C504.116 255.813 504.559 255.643 505.071 255.504C505.583 255.355 506.116 255.28 506.671 255.28ZM507.087 259.856C506.02 259.899 505.279 260.069 504.863 260.368C504.457 260.667 504.255 261.088 504.255 261.632C504.255 262.112 504.399 262.464 504.687 262.688C504.985 262.912 505.364 263.024 505.823 263.024C506.548 263.024 507.151 262.827 507.631 262.432C508.111 262.027 508.351 261.408 508.351 260.576V259.808L507.087 259.856ZM516.519 255.264C517.543 255.264 518.317 255.515 518.839 256.016C519.362 256.507 519.623 257.307 519.623 258.416V264H518.231V258.512C518.231 257.819 518.077 257.301 517.767 256.96C517.458 256.619 516.973 256.448 516.311 256.448C515.362 256.448 514.706 256.715 514.343 257.248C513.981 257.781 513.799 258.549 513.799 259.552V264H512.391V255.424H513.527L513.735 256.592H513.815C514.007 256.293 514.242 256.048 514.519 255.856C514.807 255.653 515.122 255.504 515.463 255.408C515.805 255.312 516.157 255.264 516.519 255.264ZM529.75 255.264C530.486 255.264 531.115 255.424 531.638 255.744C532.171 256.064 532.577 256.517 532.854 257.104C533.142 257.68 533.286 258.357 533.286 259.136V259.984H527.414C527.435 260.955 527.681 261.696 528.15 262.208C528.63 262.709 529.297 262.96 530.15 262.96C530.694 262.96 531.174 262.912 531.59 262.816C532.017 262.709 532.454 262.56 532.902 262.368V263.6C532.465 263.792 532.033 263.931 531.606 264.016C531.179 264.112 530.673 264.16 530.086 264.16C529.275 264.16 528.555 263.995 527.926 263.664C527.307 263.333 526.822 262.843 526.47 262.192C526.129 261.531 525.958 260.725 525.958 259.776C525.958 258.837 526.113 258.032 526.422 257.36C526.742 256.688 527.185 256.171 527.75 255.808C528.326 255.445 528.993 255.264 529.75 255.264ZM529.734 256.416C529.062 256.416 528.529 256.635 528.134 257.072C527.75 257.499 527.521 258.096 527.446 258.864H531.814C531.814 258.373 531.739 257.947 531.59 257.584C531.441 257.221 531.211 256.939 530.902 256.736C530.603 256.523 530.214 256.416 529.734 256.416ZM538.781 255.264C539.517 255.264 540.147 255.424 540.669 255.744C541.203 256.064 541.608 256.517 541.885 257.104C542.173 257.68 542.317 258.357 542.317 259.136V259.984H536.445C536.467 260.955 536.712 261.696 537.181 262.208C537.661 262.709 538.328 262.96 539.181 262.96C539.725 262.96 540.205 262.912 540.621 262.816C541.048 262.709 541.485 262.56 541.933 262.368V263.6C541.496 263.792 541.064 263.931 540.637 264.016C540.211 264.112 539.704 264.16 539.117 264.16C538.307 264.16 537.587 263.995 536.957 263.664C536.339 263.333 535.853 262.843 535.501 262.192C535.16 261.531 534.989 260.725 534.989 259.776C534.989 258.837 535.144 258.032 535.453 257.36C535.773 256.688 536.216 256.171 536.781 255.808C537.357 255.445 538.024 255.264 538.781 255.264ZM538.765 256.416C538.093 256.416 537.56 256.635 537.165 257.072C536.781 257.499 536.552 258.096 536.477 258.864H540.845C540.845 258.373 540.771 257.947 540.621 257.584C540.472 257.221 540.243 256.939 539.933 256.736C539.635 256.523 539.245 256.416 538.765 256.416ZM548.629 255.264C549.653 255.264 550.426 255.515 550.949 256.016C551.471 256.507 551.733 257.307 551.733 258.416V264H550.341V258.512C550.341 257.819 550.186 257.301 549.877 256.96C549.567 256.619 549.082 256.448 548.421 256.448C547.471 256.448 546.815 256.715 546.453 257.248C546.09 257.781 545.909 258.549 545.909 259.552V264H544.501V255.424H545.637L545.845 256.592H545.925C546.117 256.293 546.351 256.048 546.629 255.856C546.917 255.653 547.231 255.504 547.573 255.408C547.914 255.312 548.266 255.264 548.629 255.264ZM558.74 264V252.576H560.18V262.72H565.172V264H558.74ZM568.346 255.424V264H566.938V255.424H568.346ZM567.658 252.208C567.871 252.208 568.058 252.283 568.218 252.432C568.389 252.571 568.474 252.795 568.474 253.104C568.474 253.403 568.389 253.627 568.218 253.776C568.058 253.925 567.871 254 567.658 254C567.423 254 567.226 253.925 567.066 253.776C566.906 253.627 566.826 253.403 566.826 253.104C566.826 252.795 566.906 252.571 567.066 252.432C567.226 252.283 567.423 252.208 567.658 252.208ZM576.647 261.632C576.647 262.187 576.508 262.651 576.231 263.024C575.954 263.397 575.559 263.68 575.047 263.872C574.535 264.064 573.927 264.16 573.223 264.16C572.626 264.16 572.108 264.112 571.671 264.016C571.244 263.92 570.866 263.787 570.535 263.616V262.336C570.876 262.507 571.287 262.667 571.767 262.816C572.258 262.955 572.754 263.024 573.255 263.024C573.97 263.024 574.487 262.912 574.807 262.688C575.127 262.453 575.287 262.144 575.287 261.76C575.287 261.547 575.228 261.355 575.111 261.184C574.994 261.013 574.78 260.843 574.471 260.672C574.172 260.501 573.74 260.309 573.175 260.096C572.62 259.883 572.146 259.669 571.751 259.456C571.356 259.243 571.052 258.987 570.839 258.688C570.626 258.389 570.519 258.005 570.519 257.536C570.519 256.811 570.812 256.251 571.399 255.856C571.996 255.461 572.775 255.264 573.735 255.264C574.258 255.264 574.743 255.317 575.191 255.424C575.65 255.52 576.076 255.659 576.471 255.84L575.991 256.96C575.756 256.853 575.506 256.763 575.239 256.688C574.983 256.603 574.722 256.539 574.455 256.496C574.188 256.443 573.916 256.416 573.639 256.416C573.063 256.416 572.62 256.512 572.311 256.704C572.012 256.885 571.863 257.136 571.863 257.456C571.863 257.691 571.932 257.893 572.071 258.064C572.21 258.224 572.439 258.384 572.759 258.544C573.09 258.693 573.527 258.875 574.071 259.088C574.615 259.291 575.079 259.499 575.463 259.712C575.847 259.925 576.14 260.187 576.343 260.496C576.546 260.795 576.647 261.173 576.647 261.632ZM581.583 263.008C581.797 263.008 582.015 262.992 582.239 262.96C582.463 262.917 582.645 262.875 582.783 262.832V263.904C582.634 263.979 582.421 264.037 582.143 264.08C581.866 264.133 581.599 264.16 581.343 264.16C580.895 264.16 580.479 264.085 580.095 263.936C579.722 263.776 579.418 263.504 579.183 263.12C578.949 262.736 578.831 262.197 578.831 261.504V256.512H577.615V255.84L578.847 255.28L579.407 253.456H580.239V255.424H582.719V256.512H580.239V261.472C580.239 261.995 580.362 262.384 580.607 262.64C580.863 262.885 581.189 263.008 581.583 263.008ZM592.065 264H587.937V263.168L589.281 262.864V253.728L587.937 253.408V252.576H592.065V253.408L590.721 253.728V262.864L592.065 263.168V264ZM596.943 263.008C597.156 263.008 597.375 262.992 597.599 262.96C597.823 262.917 598.004 262.875 598.143 262.832V263.904C597.993 263.979 597.78 264.037 597.503 264.08C597.225 264.133 596.959 264.16 596.703 264.16C596.255 264.16 595.839 264.085 595.455 263.936C595.081 263.776 594.777 263.504 594.543 263.12C594.308 262.736 594.191 262.197 594.191 261.504V256.512H592.975V255.84L594.207 255.28L594.767 253.456H595.599V255.424H598.079V256.512H595.599V261.472C595.599 261.995 595.721 262.384 595.967 262.64C596.223 262.885 596.548 263.008 596.943 263.008ZM603.172 255.264C603.908 255.264 604.537 255.424 605.06 255.744C605.593 256.064 605.999 256.517 606.276 257.104C606.564 257.68 606.708 258.357 606.708 259.136V259.984H600.836C600.857 260.955 601.103 261.696 601.572 262.208C602.052 262.709 602.719 262.96 603.572 262.96C604.116 262.96 604.596 262.912 605.012 262.816C605.439 262.709 605.876 262.56 606.324 262.368V263.6C605.887 263.792 605.455 263.931 605.028 264.016C604.601 264.112 604.095 264.16 603.508 264.16C602.697 264.16 601.977 263.995 601.348 263.664C600.729 263.333 600.244 262.843 599.892 262.192C599.551 261.531 599.38 260.725 599.38 259.776C599.38 258.837 599.535 258.032 599.844 257.36C600.164 256.688 600.607 256.171 601.172 255.808C601.748 255.445 602.415 255.264 603.172 255.264ZM603.156 256.416C602.484 256.416 601.951 256.635 601.556 257.072C601.172 257.499 600.943 258.096 600.868 258.864H605.236C605.236 258.373 605.161 257.947 605.012 257.584C604.863 257.221 604.633 256.939 604.324 256.736C604.025 256.523 603.636 256.416 603.156 256.416ZM618.299 255.264C619.27 255.264 619.995 255.515 620.475 256.016C620.955 256.507 621.195 257.307 621.195 258.416V264H619.803V258.48C619.803 257.808 619.659 257.301 619.371 256.96C619.094 256.619 618.657 256.448 618.059 256.448C617.227 256.448 616.63 256.688 616.267 257.168C615.915 257.648 615.739 258.347 615.739 259.264V264H614.347V258.48C614.347 258.032 614.283 257.659 614.155 257.36C614.027 257.051 613.835 256.821 613.579 256.672C613.323 256.523 612.993 256.448 612.587 256.448C612.011 256.448 611.558 256.571 611.227 256.816C610.897 257.051 610.657 257.397 610.507 257.856C610.369 258.315 610.299 258.88 610.299 259.552V264H608.891V255.424H610.027L610.235 256.592H610.315C610.497 256.293 610.715 256.048 610.971 255.856C611.238 255.653 611.531 255.504 611.851 255.408C612.171 255.312 612.502 255.264 612.843 255.264C613.505 255.264 614.054 255.381 614.491 255.616C614.939 255.851 615.265 256.213 615.467 256.704H615.547C615.835 256.213 616.225 255.851 616.715 255.616C617.217 255.381 617.745 255.264 618.299 255.264ZM342.768 279.424V288H341.36V279.424H342.768ZM342.08 276.208C342.293 276.208 342.48 276.283 342.64 276.432C342.811 276.571 342.896 276.795 342.896 277.104C342.896 277.403 342.811 277.627 342.64 277.776C342.48 277.925 342.293 278 342.08 278C341.845 278 341.648 277.925 341.488 277.776C341.328 277.627 341.248 277.403 341.248 277.104C341.248 276.795 341.328 276.571 341.488 276.432C341.648 276.283 341.845 276.208 342.08 276.208ZM349.613 279.264C350.637 279.264 351.41 279.515 351.933 280.016C352.456 280.507 352.717 281.307 352.717 282.416V288H351.325V282.512C351.325 281.819 351.17 281.301 350.861 280.96C350.552 280.619 350.066 280.448 349.405 280.448C348.456 280.448 347.8 280.715 347.437 281.248C347.074 281.781 346.893 282.549 346.893 283.552V288H345.485V279.424H346.621L346.829 280.592H346.909C347.101 280.293 347.336 280.048 347.613 279.856C347.901 279.653 348.216 279.504 348.557 279.408C348.898 279.312 349.25 279.264 349.613 279.264ZM362.844 279.264C363.58 279.264 364.209 279.424 364.732 279.744C365.265 280.064 365.671 280.517 365.948 281.104C366.236 281.68 366.38 282.357 366.38 283.136V283.984H360.508C360.529 284.955 360.775 285.696 361.244 286.208C361.724 286.709 362.391 286.96 363.244 286.96C363.788 286.96 364.268 286.912 364.684 286.816C365.111 286.709 365.548 286.56 365.996 286.368V287.6C365.559 287.792 365.127 287.931 364.7 288.016C364.273 288.112 363.767 288.16 363.18 288.16C362.369 288.16 361.649 287.995 361.02 287.664C360.401 287.333 359.916 286.843 359.564 286.192C359.223 285.531 359.052 284.725 359.052 283.776C359.052 282.837 359.207 282.032 359.516 281.36C359.836 280.688 360.279 280.171 360.844 279.808C361.42 279.445 362.087 279.264 362.844 279.264ZM362.828 280.416C362.156 280.416 361.623 280.635 361.228 281.072C360.844 281.499 360.615 282.096 360.54 282.864H364.908C364.908 282.373 364.833 281.947 364.684 281.584C364.535 281.221 364.305 280.939 363.996 280.736C363.697 280.523 363.308 280.416 362.828 280.416ZM371.875 279.264C372.611 279.264 373.24 279.424 373.763 279.744C374.296 280.064 374.702 280.517 374.979 281.104C375.267 281.68 375.411 282.357 375.411 283.136V283.984H369.539C369.56 284.955 369.806 285.696 370.275 286.208C370.755 286.709 371.422 286.96 372.275 286.96C372.819 286.96 373.299 286.912 373.715 286.816C374.142 286.709 374.579 286.56 375.027 286.368V287.6C374.59 287.792 374.158 287.931 373.731 288.016C373.304 288.112 372.798 288.16 372.211 288.16C371.4 288.16 370.68 287.995 370.051 287.664C369.432 287.333 368.947 286.843 368.595 286.192C368.254 285.531 368.083 284.725 368.083 283.776C368.083 282.837 368.238 282.032 368.547 281.36C368.867 280.688 369.31 280.171 369.875 279.808C370.451 279.445 371.118 279.264 371.875 279.264ZM371.859 280.416C371.187 280.416 370.654 280.635 370.259 281.072C369.875 281.499 369.646 282.096 369.571 282.864H373.939C373.939 282.373 373.864 281.947 373.715 281.584C373.566 281.221 373.336 280.939 373.027 280.736C372.728 280.523 372.339 280.416 371.859 280.416ZM381.722 279.264C382.746 279.264 383.52 279.515 384.042 280.016C384.565 280.507 384.826 281.307 384.826 282.416V288H383.434V282.512C383.434 281.819 383.28 281.301 382.97 280.96C382.661 280.619 382.176 280.448 381.514 280.448C380.565 280.448 379.909 280.715 379.546 281.248C379.184 281.781 379.002 282.549 379.002 283.552V288H377.594V279.424H378.73L378.938 280.592H379.018C379.21 280.293 379.445 280.048 379.722 279.856C380.01 279.653 380.325 279.504 380.666 279.408C381.008 279.312 381.36 279.264 381.722 279.264ZM400.521 283.968C400.521 284.757 400.361 285.472 400.041 286.112C399.721 286.741 399.231 287.243 398.569 287.616C397.919 287.979 397.087 288.16 396.073 288.16C394.655 288.16 393.572 287.776 392.825 287.008C392.089 286.229 391.721 285.205 391.721 283.936V276.576H393.161V283.984C393.161 284.912 393.407 285.632 393.897 286.144C394.399 286.656 395.151 286.912 396.153 286.912C396.847 286.912 397.407 286.789 397.833 286.544C398.271 286.288 398.591 285.941 398.793 285.504C398.996 285.056 399.097 284.544 399.097 283.968V276.576H400.521V283.968ZM407.472 279.264C408.496 279.264 409.27 279.515 409.792 280.016C410.315 280.507 410.576 281.307 410.576 282.416V288H409.184V282.512C409.184 281.819 409.03 281.301 408.72 280.96C408.411 280.619 407.926 280.448 407.264 280.448C406.315 280.448 405.659 280.715 405.296 281.248C404.934 281.781 404.752 282.549 404.752 283.552V288H403.344V279.424H404.48L404.688 280.592H404.768C404.96 280.293 405.195 280.048 405.472 279.856C405.76 279.653 406.075 279.504 406.416 279.408C406.758 279.312 407.11 279.264 407.472 279.264ZM420.691 283.696C420.691 284.411 420.595 285.045 420.403 285.6C420.222 286.144 419.955 286.608 419.603 286.992C419.262 287.376 418.84 287.669 418.339 287.872C417.848 288.064 417.299 288.16 416.691 288.16C416.126 288.16 415.603 288.064 415.123 287.872C414.643 287.669 414.227 287.376 413.875 286.992C413.523 286.608 413.246 286.144 413.043 285.6C412.851 285.045 412.755 284.411 412.755 283.696C412.755 282.747 412.915 281.947 413.235 281.296C413.555 280.635 414.014 280.133 414.611 279.792C415.208 279.44 415.918 279.264 416.739 279.264C417.518 279.264 418.2 279.44 418.787 279.792C419.384 280.133 419.848 280.635 420.179 281.296C420.52 281.947 420.691 282.747 420.691 283.696ZM414.211 283.696C414.211 284.368 414.296 284.955 414.467 285.456C414.648 285.947 414.926 286.325 415.299 286.592C415.672 286.859 416.147 286.992 416.723 286.992C417.299 286.992 417.774 286.859 418.147 286.592C418.52 286.325 418.792 285.947 418.963 285.456C419.144 284.955 419.235 284.368 419.235 283.696C419.235 283.013 419.144 282.432 418.963 281.952C418.782 281.472 418.504 281.104 418.131 280.848C417.768 280.581 417.294 280.448 416.707 280.448C415.832 280.448 415.198 280.736 414.803 281.312C414.408 281.888 414.211 282.683 414.211 283.696ZM426.923 279.264C427.083 279.264 427.253 279.275 427.435 279.296C427.627 279.307 427.792 279.328 427.931 279.36L427.755 280.656C427.616 280.624 427.461 280.597 427.291 280.576C427.131 280.555 426.976 280.544 426.827 280.544C426.496 280.544 426.181 280.613 425.883 280.752C425.584 280.891 425.317 281.088 425.083 281.344C424.848 281.589 424.661 281.888 424.523 282.24C424.395 282.592 424.331 282.987 424.331 283.424V288H422.923V279.424H424.075L424.235 280.992H424.299C424.48 280.672 424.699 280.384 424.955 280.128C425.211 279.861 425.504 279.653 425.835 279.504C426.165 279.344 426.528 279.264 426.923 279.264ZM432.259 288.16C431.193 288.16 430.339 287.792 429.699 287.056C429.059 286.309 428.739 285.2 428.739 283.728C428.739 282.256 429.059 281.147 429.699 280.4C430.35 279.643 431.209 279.264 432.275 279.264C432.723 279.264 433.113 279.323 433.443 279.44C433.774 279.547 434.062 279.696 434.307 279.888C434.553 280.08 434.761 280.293 434.931 280.528H435.027C435.017 280.389 434.995 280.187 434.963 279.92C434.942 279.643 434.931 279.424 434.931 279.264V275.84H436.339V288H435.203L434.995 286.848H434.931C434.761 287.093 434.553 287.317 434.307 287.52C434.062 287.712 433.769 287.867 433.427 287.984C433.097 288.101 432.707 288.16 432.259 288.16ZM432.483 286.992C433.39 286.992 434.025 286.747 434.387 286.256C434.761 285.755 434.947 285.003 434.947 284V283.744C434.947 282.677 434.771 281.861 434.419 281.296C434.067 280.72 433.417 280.432 432.467 280.432C431.71 280.432 431.139 280.736 430.755 281.344C430.382 281.941 430.195 282.747 430.195 283.76C430.195 284.784 430.382 285.579 430.755 286.144C431.139 286.709 431.715 286.992 432.483 286.992ZM442.375 279.264C443.111 279.264 443.74 279.424 444.263 279.744C444.796 280.064 445.202 280.517 445.479 281.104C445.767 281.68 445.911 282.357 445.911 283.136V283.984H440.039C440.06 284.955 440.306 285.696 440.775 286.208C441.255 286.709 441.922 286.96 442.775 286.96C443.319 286.96 443.799 286.912 444.215 286.816C444.642 286.709 445.079 286.56 445.527 286.368V287.6C445.09 287.792 444.658 287.931 444.231 288.016C443.804 288.112 443.298 288.16 442.711 288.16C441.9 288.16 441.18 287.995 440.551 287.664C439.932 287.333 439.447 286.843 439.095 286.192C438.754 285.531 438.583 284.725 438.583 283.776C438.583 282.837 438.738 282.032 439.047 281.36C439.367 280.688 439.81 280.171 440.375 279.808C440.951 279.445 441.618 279.264 442.375 279.264ZM442.359 280.416C441.687 280.416 441.154 280.635 440.759 281.072C440.375 281.499 440.146 282.096 440.071 282.864H444.439C444.439 282.373 444.364 281.947 444.215 281.584C444.066 281.221 443.836 280.939 443.527 280.736C443.228 280.523 442.839 280.416 442.359 280.416ZM452.094 279.264C452.254 279.264 452.425 279.275 452.606 279.296C452.798 279.307 452.964 279.328 453.102 279.36L452.926 280.656C452.788 280.624 452.633 280.597 452.462 280.576C452.302 280.555 452.148 280.544 451.998 280.544C451.668 280.544 451.353 280.613 451.054 280.752C450.756 280.891 450.489 281.088 450.254 281.344C450.02 281.589 449.833 281.888 449.694 282.24C449.566 282.592 449.502 282.987 449.502 283.424V288H448.094V279.424H449.246L449.406 280.992H449.47C449.652 280.672 449.87 280.384 450.126 280.128C450.382 279.861 450.676 279.653 451.006 279.504C451.337 279.344 451.7 279.264 452.094 279.264ZM457.703 279.264C458.439 279.264 459.069 279.424 459.591 279.744C460.125 280.064 460.53 280.517 460.807 281.104C461.095 281.68 461.239 282.357 461.239 283.136V283.984H455.367C455.389 284.955 455.634 285.696 456.103 286.208C456.583 286.709 457.25 286.96 458.103 286.96C458.647 286.96 459.127 286.912 459.543 286.816C459.97 286.709 460.407 286.56 460.855 286.368V287.6C460.418 287.792 459.986 287.931 459.559 288.016C459.133 288.112 458.626 288.16 458.039 288.16C457.229 288.16 456.509 287.995 455.879 287.664C455.261 287.333 454.775 286.843 454.423 286.192C454.082 285.531 453.911 284.725 453.911 283.776C453.911 282.837 454.066 282.032 454.375 281.36C454.695 280.688 455.138 280.171 455.703 279.808C456.279 279.445 456.946 279.264 457.703 279.264ZM457.687 280.416C457.015 280.416 456.482 280.635 456.087 281.072C455.703 281.499 455.474 282.096 455.399 282.864H459.767C459.767 282.373 459.693 281.947 459.543 281.584C459.394 281.221 459.165 280.939 458.855 280.736C458.557 280.523 458.167 280.416 457.687 280.416ZM466.463 288.16C465.396 288.16 464.543 287.792 463.903 287.056C463.263 286.309 462.943 285.2 462.943 283.728C462.943 282.256 463.263 281.147 463.903 280.4C464.553 279.643 465.412 279.264 466.479 279.264C466.927 279.264 467.316 279.323 467.647 279.44C467.977 279.547 468.265 279.696 468.511 279.888C468.756 280.08 468.964 280.293 469.135 280.528H469.231C469.22 280.389 469.199 280.187 469.167 279.92C469.145 279.643 469.135 279.424 469.135 279.264V275.84H470.543V288H469.407L469.199 286.848H469.135C468.964 287.093 468.756 287.317 468.511 287.52C468.265 287.712 467.972 287.867 467.631 287.984C467.3 288.101 466.911 288.16 466.463 288.16ZM466.687 286.992C467.593 286.992 468.228 286.747 468.591 286.256C468.964 285.755 469.151 285.003 469.151 284V283.744C469.151 282.677 468.975 281.861 468.623 281.296C468.271 280.72 467.62 280.432 466.671 280.432C465.913 280.432 465.343 280.736 464.959 281.344C464.585 281.941 464.399 282.747 464.399 283.76C464.399 284.784 464.585 285.579 464.959 286.144C465.343 286.709 465.919 286.992 466.687 286.992ZM477.615 288V276.576H479.055V286.72H484.047V288H477.615ZM487.221 279.424V288H485.813V279.424H487.221ZM486.533 276.208C486.746 276.208 486.933 276.283 487.093 276.432C487.264 276.571 487.349 276.795 487.349 277.104C487.349 277.403 487.264 277.627 487.093 277.776C486.933 277.925 486.746 278 486.533 278C486.298 278 486.101 277.925 485.941 277.776C485.781 277.627 485.701 277.403 485.701 277.104C485.701 276.795 485.781 276.571 485.941 276.432C486.101 276.283 486.298 276.208 486.533 276.208ZM495.522 285.632C495.522 286.187 495.383 286.651 495.106 287.024C494.829 287.397 494.434 287.68 493.922 287.872C493.41 288.064 492.802 288.16 492.098 288.16C491.501 288.16 490.983 288.112 490.546 288.016C490.119 287.92 489.741 287.787 489.41 287.616V286.336C489.751 286.507 490.162 286.667 490.642 286.816C491.133 286.955 491.629 287.024 492.13 287.024C492.845 287.024 493.362 286.912 493.682 286.688C494.002 286.453 494.162 286.144 494.162 285.76C494.162 285.547 494.103 285.355 493.986 285.184C493.869 285.013 493.655 284.843 493.346 284.672C493.047 284.501 492.615 284.309 492.05 284.096C491.495 283.883 491.021 283.669 490.626 283.456C490.231 283.243 489.927 282.987 489.714 282.688C489.501 282.389 489.394 282.005 489.394 281.536C489.394 280.811 489.687 280.251 490.274 279.856C490.871 279.461 491.65 279.264 492.61 279.264C493.133 279.264 493.618 279.317 494.066 279.424C494.525 279.52 494.951 279.659 495.346 279.84L494.866 280.96C494.631 280.853 494.381 280.763 494.114 280.688C493.858 280.603 493.597 280.539 493.33 280.496C493.063 280.443 492.791 280.416 492.514 280.416C491.938 280.416 491.495 280.512 491.186 280.704C490.887 280.885 490.738 281.136 490.738 281.456C490.738 281.691 490.807 281.893 490.946 282.064C491.085 282.224 491.314 282.384 491.634 282.544C491.965 282.693 492.402 282.875 492.946 283.088C493.49 283.291 493.954 283.499 494.338 283.712C494.722 283.925 495.015 284.187 495.218 284.496C495.421 284.795 495.522 285.173 495.522 285.632ZM500.458 287.008C500.672 287.008 500.89 286.992 501.114 286.96C501.338 286.917 501.52 286.875 501.658 286.832V287.904C501.509 287.979 501.296 288.037 501.018 288.08C500.741 288.133 500.474 288.16 500.218 288.16C499.77 288.16 499.354 288.085 498.97 287.936C498.597 287.776 498.293 287.504 498.058 287.12C497.824 286.736 497.706 286.197 497.706 285.504V280.512H496.49V279.84L497.722 279.28L498.282 277.456H499.114V279.424H501.594V280.512H499.114V285.472C499.114 285.995 499.237 286.384 499.482 286.64C499.738 286.885 500.064 287.008 500.458 287.008ZM503.168 287.136C503.168 286.741 503.264 286.464 503.456 286.304C503.648 286.144 503.877 286.064 504.144 286.064C504.421 286.064 504.656 286.144 504.848 286.304C505.05 286.464 505.152 286.741 505.152 287.136C505.152 287.52 505.05 287.797 504.848 287.968C504.656 288.139 504.421 288.224 504.144 288.224C503.877 288.224 503.648 288.139 503.456 287.968C503.264 287.797 503.168 287.52 503.168 287.136Z" fill="#001A40"/>
<circle cx="328" cy="258" r="4" fill="#001A40"/>
<path d="M362.512 313.968H366.464V319.568C365.845 319.771 365.221 319.92 364.592 320.016C363.963 320.112 363.248 320.16 362.448 320.16C361.264 320.16 360.267 319.925 359.456 319.456C358.645 318.976 358.027 318.299 357.6 317.424C357.184 316.539 356.976 315.493 356.976 314.288C356.976 313.093 357.211 312.059 357.68 311.184C358.149 310.309 358.821 309.632 359.696 309.152C360.581 308.661 361.648 308.416 362.896 308.416C363.536 308.416 364.139 308.475 364.704 308.592C365.28 308.709 365.813 308.875 366.304 309.088L365.76 310.336C365.355 310.155 364.896 310 364.384 309.872C363.883 309.744 363.36 309.68 362.816 309.68C361.909 309.68 361.131 309.867 360.48 310.24C359.829 310.613 359.333 311.147 358.992 311.84C358.651 312.523 358.48 313.339 358.48 314.288C358.48 315.195 358.624 316 358.912 316.704C359.211 317.397 359.675 317.941 360.304 318.336C360.933 318.72 361.76 318.912 362.784 318.912C363.125 318.912 363.424 318.901 363.68 318.88C363.947 318.848 364.187 318.811 364.4 318.768C364.624 318.725 364.832 318.683 365.024 318.64V315.248H362.512V313.968ZM372.313 311.264C373.049 311.264 373.678 311.424 374.201 311.744C374.734 312.064 375.139 312.517 375.417 313.104C375.705 313.68 375.849 314.357 375.849 315.136V315.984H369.977C369.998 316.955 370.243 317.696 370.713 318.208C371.193 318.709 371.859 318.96 372.713 318.96C373.257 318.96 373.737 318.912 374.153 318.816C374.579 318.709 375.017 318.56 375.465 318.368V319.6C375.027 319.792 374.595 319.931 374.169 320.016C373.742 320.112 373.235 320.16 372.649 320.16C371.838 320.16 371.118 319.995 370.489 319.664C369.87 319.333 369.385 318.843 369.033 318.192C368.691 317.531 368.521 316.725 368.521 315.776C368.521 314.837 368.675 314.032 368.985 313.36C369.305 312.688 369.747 312.171 370.313 311.808C370.889 311.445 371.555 311.264 372.313 311.264ZM372.297 312.416C371.625 312.416 371.091 312.635 370.697 313.072C370.313 313.499 370.083 314.096 370.009 314.864H374.377C374.377 314.373 374.302 313.947 374.153 313.584C374.003 313.221 373.774 312.939 373.465 312.736C373.166 312.523 372.777 312.416 372.297 312.416ZM382.16 311.264C383.184 311.264 383.957 311.515 384.48 312.016C385.003 312.507 385.264 313.307 385.264 314.416V320H383.872V314.512C383.872 313.819 383.717 313.301 383.408 312.96C383.099 312.619 382.613 312.448 381.952 312.448C381.003 312.448 380.347 312.715 379.984 313.248C379.621 313.781 379.44 314.549 379.44 315.552V320H378.032V311.424H379.168L379.376 312.592H379.456C379.648 312.293 379.883 312.048 380.16 311.856C380.448 311.653 380.763 311.504 381.104 311.408C381.445 311.312 381.797 311.264 382.16 311.264ZM391.235 311.264C391.971 311.264 392.6 311.424 393.123 311.744C393.656 312.064 394.061 312.517 394.339 313.104C394.627 313.68 394.771 314.357 394.771 315.136V315.984H388.899C388.92 316.955 389.165 317.696 389.635 318.208C390.115 318.709 390.781 318.96 391.635 318.96C392.179 318.96 392.659 318.912 393.075 318.816C393.501 318.709 393.939 318.56 394.387 318.368V319.6C393.949 319.792 393.517 319.931 393.091 320.016C392.664 320.112 392.157 320.16 391.571 320.16C390.76 320.16 390.04 319.995 389.411 319.664C388.792 319.333 388.307 318.843 387.955 318.192C387.613 317.531 387.443 316.725 387.443 315.776C387.443 314.837 387.597 314.032 387.907 313.36C388.227 312.688 388.669 312.171 389.235 311.808C389.811 311.445 390.477 311.264 391.235 311.264ZM391.219 312.416C390.547 312.416 390.013 312.635 389.619 313.072C389.235 313.499 389.005 314.096 388.931 314.864H393.299C393.299 314.373 393.224 313.947 393.075 313.584C392.925 313.221 392.696 312.939 392.387 312.736C392.088 312.523 391.699 312.416 391.219 312.416ZM402.538 317.632C402.538 318.187 402.399 318.651 402.122 319.024C401.844 319.397 401.45 319.68 400.938 319.872C400.426 320.064 399.818 320.16 399.114 320.16C398.516 320.16 397.999 320.112 397.562 320.016C397.135 319.92 396.756 319.787 396.426 319.616V318.336C396.767 318.507 397.178 318.667 397.658 318.816C398.148 318.955 398.644 319.024 399.146 319.024C399.86 319.024 400.378 318.912 400.698 318.688C401.018 318.453 401.178 318.144 401.178 317.76C401.178 317.547 401.119 317.355 401.002 317.184C400.884 317.013 400.671 316.843 400.362 316.672C400.063 316.501 399.631 316.309 399.066 316.096C398.511 315.883 398.036 315.669 397.642 315.456C397.247 315.243 396.943 314.987 396.73 314.688C396.516 314.389 396.41 314.005 396.41 313.536C396.41 312.811 396.703 312.251 397.29 311.856C397.887 311.461 398.666 311.264 399.626 311.264C400.148 311.264 400.634 311.317 401.082 311.424C401.54 311.52 401.967 311.659 402.362 311.84L401.882 312.96C401.647 312.853 401.396 312.763 401.13 312.688C400.874 312.603 400.612 312.539 400.346 312.496C400.079 312.443 399.807 312.416 399.53 312.416C398.954 312.416 398.511 312.512 398.202 312.704C397.903 312.885 397.754 313.136 397.754 313.456C397.754 313.691 397.823 313.893 397.962 314.064C398.1 314.224 398.33 314.384 398.65 314.544C398.98 314.693 399.418 314.875 399.962 315.088C400.506 315.291 400.97 315.499 401.354 315.712C401.738 315.925 402.031 316.187 402.234 316.496C402.436 316.795 402.538 317.173 402.538 317.632ZM407.474 319.008C407.687 319.008 407.906 318.992 408.13 318.96C408.354 318.917 408.535 318.875 408.674 318.832V319.904C408.525 319.979 408.311 320.037 408.034 320.08C407.757 320.133 407.49 320.16 407.234 320.16C406.786 320.16 406.37 320.085 405.986 319.936C405.613 319.776 405.309 319.504 405.074 319.12C404.839 318.736 404.722 318.197 404.722 317.504V312.512H403.506V311.84L404.738 311.28L405.298 309.456H406.13V311.424H408.61V312.512H406.13V317.472C406.13 317.995 406.253 318.384 406.498 318.64C406.754 318.885 407.079 319.008 407.474 319.008ZM414.74 320V308.576H416.18V318.72H421.172V320H414.74ZM424.346 311.424V320H422.938V311.424H424.346ZM423.658 308.208C423.871 308.208 424.058 308.283 424.218 308.432C424.389 308.571 424.474 308.795 424.474 309.104C424.474 309.403 424.389 309.627 424.218 309.776C424.058 309.925 423.871 310 423.658 310C423.423 310 423.226 309.925 423.066 309.776C422.906 309.627 422.826 309.403 422.826 309.104C422.826 308.795 422.906 308.571 423.066 308.432C423.226 308.283 423.423 308.208 423.658 308.208ZM432.647 317.632C432.647 318.187 432.508 318.651 432.231 319.024C431.954 319.397 431.559 319.68 431.047 319.872C430.535 320.064 429.927 320.16 429.223 320.16C428.626 320.16 428.108 320.112 427.671 320.016C427.244 319.92 426.866 319.787 426.535 319.616V318.336C426.876 318.507 427.287 318.667 427.767 318.816C428.258 318.955 428.754 319.024 429.255 319.024C429.97 319.024 430.487 318.912 430.807 318.688C431.127 318.453 431.287 318.144 431.287 317.76C431.287 317.547 431.228 317.355 431.111 317.184C430.994 317.013 430.78 316.843 430.471 316.672C430.172 316.501 429.74 316.309 429.175 316.096C428.62 315.883 428.146 315.669 427.751 315.456C427.356 315.243 427.052 314.987 426.839 314.688C426.626 314.389 426.519 314.005 426.519 313.536C426.519 312.811 426.812 312.251 427.399 311.856C427.996 311.461 428.775 311.264 429.735 311.264C430.258 311.264 430.743 311.317 431.191 311.424C431.65 311.52 432.076 311.659 432.471 311.84L431.991 312.96C431.756 312.853 431.506 312.763 431.239 312.688C430.983 312.603 430.722 312.539 430.455 312.496C430.188 312.443 429.916 312.416 429.639 312.416C429.063 312.416 428.62 312.512 428.311 312.704C428.012 312.885 427.863 313.136 427.863 313.456C427.863 313.691 427.932 313.893 428.071 314.064C428.21 314.224 428.439 314.384 428.759 314.544C429.09 314.693 429.527 314.875 430.071 315.088C430.615 315.291 431.079 315.499 431.463 315.712C431.847 315.925 432.14 316.187 432.343 316.496C432.546 316.795 432.647 317.173 432.647 317.632ZM437.583 319.008C437.797 319.008 438.015 318.992 438.239 318.96C438.463 318.917 438.645 318.875 438.783 318.832V319.904C438.634 319.979 438.421 320.037 438.143 320.08C437.866 320.133 437.599 320.16 437.343 320.16C436.895 320.16 436.479 320.085 436.095 319.936C435.722 319.776 435.418 319.504 435.183 319.12C434.949 318.736 434.831 318.197 434.831 317.504V312.512H433.615V311.84L434.847 311.28L435.407 309.456H436.239V311.424H438.719V312.512H436.239V317.472C436.239 317.995 436.362 318.384 436.607 318.64C436.863 318.885 437.189 319.008 437.583 319.008ZM448.065 320H443.937V319.168L445.281 318.864V309.728L443.937 309.408V308.576H448.065V309.408L446.721 309.728V318.864L448.065 319.168V320ZM452.943 319.008C453.156 319.008 453.375 318.992 453.599 318.96C453.823 318.917 454.004 318.875 454.143 318.832V319.904C453.993 319.979 453.78 320.037 453.503 320.08C453.225 320.133 452.959 320.16 452.703 320.16C452.255 320.16 451.839 320.085 451.455 319.936C451.081 319.776 450.777 319.504 450.543 319.12C450.308 318.736 450.191 318.197 450.191 317.504V312.512H448.975V311.84L450.207 311.28L450.767 309.456H451.599V311.424H454.079V312.512H451.599V317.472C451.599 317.995 451.721 318.384 451.967 318.64C452.223 318.885 452.548 319.008 452.943 319.008ZM459.172 311.264C459.908 311.264 460.537 311.424 461.06 311.744C461.593 312.064 461.999 312.517 462.276 313.104C462.564 313.68 462.708 314.357 462.708 315.136V315.984H456.836C456.857 316.955 457.103 317.696 457.572 318.208C458.052 318.709 458.719 318.96 459.572 318.96C460.116 318.96 460.596 318.912 461.012 318.816C461.439 318.709 461.876 318.56 462.324 318.368V319.6C461.887 319.792 461.455 319.931 461.028 320.016C460.601 320.112 460.095 320.16 459.508 320.16C458.697 320.16 457.977 319.995 457.348 319.664C456.729 319.333 456.244 318.843 455.892 318.192C455.551 317.531 455.38 316.725 455.38 315.776C455.38 314.837 455.535 314.032 455.844 313.36C456.164 312.688 456.607 312.171 457.172 311.808C457.748 311.445 458.415 311.264 459.172 311.264ZM459.156 312.416C458.484 312.416 457.951 312.635 457.556 313.072C457.172 313.499 456.943 314.096 456.868 314.864H461.236C461.236 314.373 461.161 313.947 461.012 313.584C460.863 313.221 460.633 312.939 460.324 312.736C460.025 312.523 459.636 312.416 459.156 312.416ZM474.299 311.264C475.27 311.264 475.995 311.515 476.475 312.016C476.955 312.507 477.195 313.307 477.195 314.416V320H475.803V314.48C475.803 313.808 475.659 313.301 475.371 312.96C475.094 312.619 474.657 312.448 474.059 312.448C473.227 312.448 472.63 312.688 472.267 313.168C471.915 313.648 471.739 314.347 471.739 315.264V320H470.347V314.48C470.347 314.032 470.283 313.659 470.155 313.36C470.027 313.051 469.835 312.821 469.579 312.672C469.323 312.523 468.993 312.448 468.587 312.448C468.011 312.448 467.558 312.571 467.227 312.816C466.897 313.051 466.657 313.397 466.507 313.856C466.369 314.315 466.299 314.88 466.299 315.552V320H464.891V311.424H466.027L466.235 312.592H466.315C466.497 312.293 466.715 312.048 466.971 311.856C467.238 311.653 467.531 311.504 467.851 311.408C468.171 311.312 468.502 311.264 468.843 311.264C469.505 311.264 470.054 311.381 470.491 311.616C470.939 311.851 471.265 312.213 471.467 312.704H471.547C471.835 312.213 472.225 311.851 472.715 311.616C473.217 311.381 473.745 311.264 474.299 311.264ZM479.636 319.136C479.636 318.741 479.732 318.464 479.924 318.304C480.116 318.144 480.346 318.064 480.612 318.064C480.89 318.064 481.124 318.144 481.316 318.304C481.519 318.464 481.62 318.741 481.62 319.136C481.62 319.52 481.519 319.797 481.316 319.968C481.124 320.139 480.89 320.224 480.612 320.224C480.346 320.224 480.116 320.139 479.924 319.968C479.732 319.797 479.636 319.52 479.636 319.136Z" fill="#001A40"/>
<circle cx="344" cy="314" r="4" fill="#001A40"/>
<path d="M363.936 352H357.552V340.576H363.936V341.84H358.992V345.408H363.648V346.656H358.992V350.736H363.936V352ZM369.563 343.264C370.299 343.264 370.928 343.424 371.451 343.744C371.984 344.064 372.389 344.517 372.667 345.104C372.955 345.68 373.099 346.357 373.099 347.136V347.984H367.227C367.248 348.955 367.493 349.696 367.963 350.208C368.443 350.709 369.109 350.96 369.963 350.96C370.507 350.96 370.987 350.912 371.403 350.816C371.829 350.709 372.267 350.56 372.715 350.368V351.6C372.277 351.792 371.845 351.931 371.419 352.016C370.992 352.112 370.485 352.16 369.899 352.16C369.088 352.16 368.368 351.995 367.739 351.664C367.12 351.333 366.635 350.843 366.283 350.192C365.941 349.531 365.771 348.725 365.771 347.776C365.771 346.837 365.925 346.032 366.235 345.36C366.555 344.688 366.997 344.171 367.563 343.808C368.139 343.445 368.805 343.264 369.563 343.264ZM369.547 344.416C368.875 344.416 368.341 344.635 367.947 345.072C367.563 345.499 367.333 346.096 367.259 346.864H371.627C371.627 346.373 371.552 345.947 371.403 345.584C371.253 345.221 371.024 344.939 370.715 344.736C370.416 344.523 370.027 344.416 369.547 344.416ZM379.41 343.264C380.434 343.264 381.207 343.515 381.73 344.016C382.253 344.507 382.514 345.307 382.514 346.416V352H381.122V346.512C381.122 345.819 380.967 345.301 380.658 344.96C380.349 344.619 379.863 344.448 379.202 344.448C378.253 344.448 377.597 344.715 377.234 345.248C376.871 345.781 376.69 346.549 376.69 347.552V352H375.282V343.424H376.418L376.626 344.592H376.706C376.898 344.293 377.133 344.048 377.41 343.856C377.698 343.653 378.013 343.504 378.354 343.408C378.695 343.312 379.047 343.264 379.41 343.264ZM392.577 343.28C393.622 343.28 394.395 343.509 394.897 343.968C395.398 344.427 395.649 345.157 395.649 346.16V352H394.625L394.353 350.784H394.289C394.043 351.093 393.787 351.355 393.521 351.568C393.265 351.771 392.966 351.92 392.625 352.016C392.294 352.112 391.889 352.16 391.409 352.16C390.897 352.16 390.433 352.069 390.017 351.888C389.611 351.707 389.291 351.429 389.057 351.056C388.822 350.672 388.705 350.192 388.705 349.616C388.705 348.763 389.041 348.107 389.713 347.648C390.385 347.179 391.419 346.923 392.817 346.88L394.273 346.832V346.32C394.273 345.605 394.118 345.109 393.809 344.832C393.499 344.555 393.062 344.416 392.497 344.416C392.049 344.416 391.622 344.485 391.217 344.624C390.811 344.752 390.433 344.901 390.081 345.072L389.649 344.016C390.022 343.813 390.465 343.643 390.977 343.504C391.489 343.355 392.022 343.28 392.577 343.28ZM392.993 347.856C391.926 347.899 391.185 348.069 390.769 348.368C390.363 348.667 390.161 349.088 390.161 349.632C390.161 350.112 390.305 350.464 390.593 350.688C390.891 350.912 391.27 351.024 391.729 351.024C392.454 351.024 393.057 350.827 393.537 350.432C394.017 350.027 394.257 349.408 394.257 348.576V347.808L392.993 347.856ZM402.426 343.264C403.45 343.264 404.223 343.515 404.746 344.016C405.268 344.507 405.53 345.307 405.53 346.416V352H404.138V346.512C404.138 345.819 403.983 345.301 403.674 344.96C403.364 344.619 402.879 344.448 402.218 344.448C401.268 344.448 400.612 344.715 400.25 345.248C399.887 345.781 399.706 346.549 399.706 347.552V352H398.298V343.424H399.434L399.642 344.592H399.722C399.914 344.293 400.148 344.048 400.426 343.856C400.714 343.653 401.028 343.504 401.37 343.408C401.711 343.312 402.063 343.264 402.426 343.264ZM411.228 352.16C410.161 352.16 409.308 351.792 408.668 351.056C408.028 350.309 407.708 349.2 407.708 347.728C407.708 346.256 408.028 345.147 408.668 344.4C409.319 343.643 410.177 343.264 411.244 343.264C411.692 343.264 412.081 343.323 412.412 343.44C412.743 343.547 413.031 343.696 413.276 343.888C413.521 344.08 413.729 344.293 413.9 344.528H413.996C413.985 344.389 413.964 344.187 413.932 343.92C413.911 343.643 413.9 343.424 413.9 343.264V339.84H415.308V352H414.172L413.964 350.848H413.9C413.729 351.093 413.521 351.317 413.276 351.52C413.031 351.712 412.737 351.867 412.396 351.984C412.065 352.101 411.676 352.16 411.228 352.16ZM411.452 350.992C412.359 350.992 412.993 350.747 413.356 350.256C413.729 349.755 413.916 349.003 413.916 348V347.744C413.916 346.677 413.74 345.861 413.388 345.296C413.036 344.72 412.385 344.432 411.436 344.432C410.679 344.432 410.108 344.736 409.724 345.344C409.351 345.941 409.164 346.747 409.164 347.76C409.164 348.784 409.351 349.579 409.724 350.144C410.108 350.709 410.684 350.992 411.452 350.992ZM421.344 343.264C422.08 343.264 422.709 343.424 423.232 343.744C423.765 344.064 424.171 344.517 424.448 345.104C424.736 345.68 424.88 346.357 424.88 347.136V347.984H419.008C419.029 348.955 419.275 349.696 419.744 350.208C420.224 350.709 420.891 350.96 421.744 350.96C422.288 350.96 422.768 350.912 423.184 350.816C423.611 350.709 424.048 350.56 424.496 350.368V351.6C424.059 351.792 423.627 351.931 423.2 352.016C422.773 352.112 422.267 352.16 421.68 352.16C420.869 352.16 420.149 351.995 419.52 351.664C418.901 351.333 418.416 350.843 418.064 350.192C417.723 349.531 417.552 348.725 417.552 347.776C417.552 346.837 417.707 346.032 418.016 345.36C418.336 344.688 418.779 344.171 419.344 343.808C419.92 343.445 420.587 343.264 421.344 343.264ZM421.328 344.416C420.656 344.416 420.123 344.635 419.728 345.072C419.344 345.499 419.115 346.096 419.04 346.864H423.408C423.408 346.373 423.333 345.947 423.184 345.584C423.035 345.221 422.805 344.939 422.496 344.736C422.197 344.523 421.808 344.416 421.328 344.416ZM431.063 343.264C431.223 343.264 431.394 343.275 431.575 343.296C431.767 343.307 431.932 343.328 432.071 343.36L431.895 344.656C431.756 344.624 431.602 344.597 431.431 344.576C431.271 344.555 431.116 344.544 430.967 344.544C430.636 344.544 430.322 344.613 430.023 344.752C429.724 344.891 429.458 345.088 429.223 345.344C428.988 345.589 428.802 345.888 428.663 346.24C428.535 346.592 428.471 346.987 428.471 347.424V352H427.063V343.424H428.215L428.375 344.992H428.439C428.62 344.672 428.839 344.384 429.095 344.128C429.351 343.861 429.644 343.653 429.975 343.504C430.306 343.344 430.668 343.264 431.063 343.264ZM440.869 343.264C441.434 343.264 441.941 343.371 442.389 343.584C442.847 343.797 443.237 344.123 443.557 344.56H443.637L443.829 343.424H444.949V352.144C444.949 352.955 444.81 353.632 444.533 354.176C444.255 354.731 443.834 355.147 443.269 355.424C442.703 355.701 441.983 355.84 441.109 355.84C440.49 355.84 439.919 355.792 439.397 355.696C438.885 355.611 438.426 355.477 438.021 355.296V354C438.298 354.139 438.602 354.256 438.933 354.352C439.263 354.459 439.621 354.539 440.005 354.592C440.389 354.645 440.783 354.672 441.189 354.672C441.925 354.672 442.501 354.453 442.917 354.016C443.343 353.589 443.557 353.003 443.557 352.256V351.92C443.557 351.792 443.562 351.611 443.573 351.376C443.583 351.131 443.594 350.96 443.605 350.864H443.541C443.242 351.301 442.869 351.627 442.421 351.84C441.983 352.053 441.471 352.16 440.885 352.16C439.775 352.16 438.906 351.771 438.277 350.992C437.658 350.213 437.349 349.125 437.349 347.728C437.349 346.811 437.487 346.021 437.765 345.36C438.053 344.688 438.458 344.171 438.981 343.808C439.503 343.445 440.133 343.264 440.869 343.264ZM441.061 344.448C440.581 344.448 440.17 344.576 439.829 344.832C439.498 345.088 439.242 345.461 439.061 345.952C438.89 346.443 438.805 347.04 438.805 347.744C438.805 348.8 438.997 349.611 439.381 350.176C439.775 350.731 440.346 351.008 441.093 351.008C441.53 351.008 441.903 350.955 442.213 350.848C442.522 350.731 442.778 350.555 442.981 350.32C443.183 350.075 443.333 349.765 443.429 349.392C443.525 349.019 443.573 348.576 443.573 348.064V347.728C443.573 346.949 443.482 346.32 443.301 345.84C443.13 345.36 442.858 345.008 442.485 344.784C442.111 344.56 441.637 344.448 441.061 344.448ZM450.985 343.264C451.721 343.264 452.35 343.424 452.873 343.744C453.406 344.064 453.811 344.517 454.089 345.104C454.377 345.68 454.521 346.357 454.521 347.136V347.984H448.649C448.67 348.955 448.915 349.696 449.385 350.208C449.865 350.709 450.531 350.96 451.385 350.96C451.929 350.96 452.409 350.912 452.825 350.816C453.251 350.709 453.689 350.56 454.137 350.368V351.6C453.699 351.792 453.267 351.931 452.841 352.016C452.414 352.112 451.907 352.16 451.321 352.16C450.51 352.16 449.79 351.995 449.161 351.664C448.542 351.333 448.057 350.843 447.705 350.192C447.363 349.531 447.193 348.725 447.193 347.776C447.193 346.837 447.347 346.032 447.657 345.36C447.977 344.688 448.419 344.171 448.985 343.808C449.561 343.445 450.227 343.264 450.985 343.264ZM450.969 344.416C450.297 344.416 449.763 344.635 449.369 345.072C448.985 345.499 448.755 346.096 448.681 346.864H453.049C453.049 346.373 452.974 345.947 452.825 345.584C452.675 345.221 452.446 344.939 452.137 344.736C451.838 344.523 451.449 344.416 450.969 344.416ZM460.832 343.264C461.856 343.264 462.629 343.515 463.152 344.016C463.674 344.507 463.936 345.307 463.936 346.416V352H462.544V346.512C462.544 345.819 462.389 345.301 462.08 344.96C461.77 344.619 461.285 344.448 460.624 344.448C459.674 344.448 459.018 344.715 458.656 345.248C458.293 345.781 458.112 346.549 458.112 347.552V352H456.704V343.424H457.84L458.048 344.592H458.128C458.32 344.293 458.554 344.048 458.832 343.856C459.12 343.653 459.434 343.504 459.776 343.408C460.117 343.312 460.469 343.264 460.832 343.264ZM469.906 343.264C470.642 343.264 471.272 343.424 471.794 343.744C472.328 344.064 472.733 344.517 473.01 345.104C473.298 345.68 473.442 346.357 473.442 347.136V347.984H467.57C467.592 348.955 467.837 349.696 468.306 350.208C468.786 350.709 469.453 350.96 470.306 350.96C470.85 350.96 471.33 350.912 471.746 350.816C472.173 350.709 472.61 350.56 473.058 350.368V351.6C472.621 351.792 472.189 351.931 471.762 352.016C471.336 352.112 470.829 352.16 470.242 352.16C469.432 352.16 468.712 351.995 468.082 351.664C467.464 351.333 466.978 350.843 466.626 350.192C466.285 349.531 466.114 348.725 466.114 347.776C466.114 346.837 466.269 346.032 466.578 345.36C466.898 344.688 467.341 344.171 467.906 343.808C468.482 343.445 469.149 343.264 469.906 343.264ZM469.89 344.416C469.218 344.416 468.685 344.635 468.29 345.072C467.906 345.499 467.677 346.096 467.602 346.864H471.97C471.97 346.373 471.896 345.947 471.746 345.584C471.597 345.221 471.368 344.939 471.058 344.736C470.76 344.523 470.37 344.416 469.89 344.416ZM481.21 349.632C481.21 350.187 481.071 350.651 480.794 351.024C480.516 351.397 480.122 351.68 479.61 351.872C479.098 352.064 478.49 352.16 477.786 352.16C477.188 352.16 476.671 352.112 476.234 352.016C475.807 351.92 475.428 351.787 475.098 351.616V350.336C475.439 350.507 475.85 350.667 476.33 350.816C476.82 350.955 477.316 351.024 477.818 351.024C478.532 351.024 479.05 350.912 479.37 350.688C479.69 350.453 479.85 350.144 479.85 349.76C479.85 349.547 479.791 349.355 479.674 349.184C479.556 349.013 479.343 348.843 479.034 348.672C478.735 348.501 478.303 348.309 477.738 348.096C477.183 347.883 476.708 347.669 476.314 347.456C475.919 347.243 475.615 346.987 475.402 346.688C475.188 346.389 475.082 346.005 475.082 345.536C475.082 344.811 475.375 344.251 475.962 343.856C476.559 343.461 477.338 343.264 478.298 343.264C478.82 343.264 479.306 343.317 479.754 343.424C480.212 343.52 480.639 343.659 481.034 343.84L480.554 344.96C480.319 344.853 480.068 344.763 479.802 344.688C479.546 344.603 479.284 344.539 479.018 344.496C478.751 344.443 478.479 344.416 478.202 344.416C477.626 344.416 477.183 344.512 476.874 344.704C476.575 344.885 476.426 345.136 476.426 345.456C476.426 345.691 476.495 345.893 476.634 346.064C476.772 346.224 477.002 346.384 477.322 346.544C477.652 346.693 478.09 346.875 478.634 347.088C479.178 347.291 479.642 347.499 480.026 347.712C480.41 347.925 480.703 348.187 480.906 348.496C481.108 348.795 481.21 349.173 481.21 349.632ZM486.146 351.008C486.359 351.008 486.578 350.992 486.802 350.96C487.026 350.917 487.207 350.875 487.346 350.832V351.904C487.197 351.979 486.983 352.037 486.706 352.08C486.429 352.133 486.162 352.16 485.906 352.16C485.458 352.16 485.042 352.085 484.658 351.936C484.285 351.776 483.981 351.504 483.746 351.12C483.511 350.736 483.394 350.197 483.394 349.504V344.512H482.178V343.84L483.41 343.28L483.97 341.456H484.802V343.424H487.282V344.512H484.802V349.472C484.802 349.995 484.925 350.384 485.17 350.64C485.426 350.885 485.751 351.008 486.146 351.008ZM493.411 352V340.576H494.851V350.72H499.843V352H493.411ZM503.018 343.424V352H501.61V343.424H503.018ZM502.33 340.208C502.543 340.208 502.73 340.283 502.89 340.432C503.061 340.571 503.146 340.795 503.146 341.104C503.146 341.403 503.061 341.627 502.89 341.776C502.73 341.925 502.543 342 502.33 342C502.095 342 501.898 341.925 501.738 341.776C501.578 341.627 501.498 341.403 501.498 341.104C501.498 340.795 501.578 340.571 501.738 340.432C501.898 340.283 502.095 340.208 502.33 340.208ZM511.319 349.632C511.319 350.187 511.18 350.651 510.903 351.024C510.626 351.397 510.231 351.68 509.719 351.872C509.207 352.064 508.599 352.16 507.895 352.16C507.298 352.16 506.78 352.112 506.343 352.016C505.916 351.92 505.538 351.787 505.207 351.616V350.336C505.548 350.507 505.959 350.667 506.439 350.816C506.93 350.955 507.426 351.024 507.927 351.024C508.642 351.024 509.159 350.912 509.479 350.688C509.799 350.453 509.959 350.144 509.959 349.76C509.959 349.547 509.9 349.355 509.783 349.184C509.666 349.013 509.452 348.843 509.143 348.672C508.844 348.501 508.412 348.309 507.847 348.096C507.292 347.883 506.818 347.669 506.423 347.456C506.028 347.243 505.724 346.987 505.511 346.688C505.298 346.389 505.191 346.005 505.191 345.536C505.191 344.811 505.484 344.251 506.071 343.856C506.668 343.461 507.447 343.264 508.407 343.264C508.93 343.264 509.415 343.317 509.863 343.424C510.322 343.52 510.748 343.659 511.143 343.84L510.663 344.96C510.428 344.853 510.178 344.763 509.911 344.688C509.655 344.603 509.394 344.539 509.127 344.496C508.86 344.443 508.588 344.416 508.311 344.416C507.735 344.416 507.292 344.512 506.983 344.704C506.684 344.885 506.535 345.136 506.535 345.456C506.535 345.691 506.604 345.893 506.743 346.064C506.882 346.224 507.111 346.384 507.431 346.544C507.762 346.693 508.199 346.875 508.743 347.088C509.287 347.291 509.751 347.499 510.135 347.712C510.519 347.925 510.812 348.187 511.015 348.496C511.218 348.795 511.319 349.173 511.319 349.632ZM516.255 351.008C516.469 351.008 516.687 350.992 516.911 350.96C517.135 350.917 517.317 350.875 517.455 350.832V351.904C517.306 351.979 517.093 352.037 516.815 352.08C516.538 352.133 516.271 352.16 516.015 352.16C515.567 352.16 515.151 352.085 514.767 351.936C514.394 351.776 514.09 351.504 513.855 351.12C513.621 350.736 513.503 350.197 513.503 349.504V344.512H512.287V343.84L513.519 343.28L514.079 341.456H514.911V343.424H517.391V344.512H514.911V349.472C514.911 349.995 515.034 350.384 515.279 350.64C515.535 350.885 515.861 351.008 516.255 351.008ZM526.737 352H522.609V351.168L523.953 350.864V341.728L522.609 341.408V340.576H526.737V341.408L525.393 341.728V350.864L526.737 351.168V352ZM531.615 351.008C531.828 351.008 532.047 350.992 532.271 350.96C532.495 350.917 532.676 350.875 532.815 350.832V351.904C532.665 351.979 532.452 352.037 532.175 352.08C531.897 352.133 531.631 352.16 531.375 352.16C530.927 352.16 530.511 352.085 530.127 351.936C529.753 351.776 529.449 351.504 529.215 351.12C528.98 350.736 528.863 350.197 528.863 349.504V344.512H527.647V343.84L528.879 343.28L529.439 341.456H530.271V343.424H532.751V344.512H530.271V349.472C530.271 349.995 530.393 350.384 530.639 350.64C530.895 350.885 531.22 351.008 531.615 351.008ZM537.844 343.264C538.58 343.264 539.209 343.424 539.732 343.744C540.265 344.064 540.671 344.517 540.948 345.104C541.236 345.68 541.38 346.357 541.38 347.136V347.984H535.508C535.529 348.955 535.775 349.696 536.244 350.208C536.724 350.709 537.391 350.96 538.244 350.96C538.788 350.96 539.268 350.912 539.684 350.816C540.111 350.709 540.548 350.56 540.996 350.368V351.6C540.559 351.792 540.127 351.931 539.7 352.016C539.273 352.112 538.767 352.16 538.18 352.16C537.369 352.16 536.649 351.995 536.02 351.664C535.401 351.333 534.916 350.843 534.564 350.192C534.223 349.531 534.052 348.725 534.052 347.776C534.052 346.837 534.207 346.032 534.516 345.36C534.836 344.688 535.279 344.171 535.844 343.808C536.42 343.445 537.087 343.264 537.844 343.264ZM537.828 344.416C537.156 344.416 536.623 344.635 536.228 345.072C535.844 345.499 535.615 346.096 535.54 346.864H539.908C539.908 346.373 539.833 345.947 539.684 345.584C539.535 345.221 539.305 344.939 538.996 344.736C538.697 344.523 538.308 344.416 537.828 344.416ZM552.971 343.264C553.942 343.264 554.667 343.515 555.147 344.016C555.627 344.507 555.867 345.307 555.867 346.416V352H554.475V346.48C554.475 345.808 554.331 345.301 554.043 344.96C553.766 344.619 553.328 344.448 552.731 344.448C551.899 344.448 551.302 344.688 550.939 345.168C550.587 345.648 550.411 346.347 550.411 347.264V352H549.019V346.48C549.019 346.032 548.955 345.659 548.827 345.36C548.699 345.051 548.507 344.821 548.251 344.672C547.995 344.523 547.664 344.448 547.259 344.448C546.683 344.448 546.23 344.571 545.899 344.816C545.568 345.051 545.328 345.397 545.179 345.856C545.04 346.315 544.971 346.88 544.971 347.552V352H543.563V343.424H544.699L544.907 344.592H544.987C545.168 344.293 545.387 344.048 545.643 343.856C545.91 343.653 546.203 343.504 546.523 343.408C546.843 343.312 547.174 343.264 547.515 343.264C548.176 343.264 548.726 343.381 549.163 343.616C549.611 343.851 549.936 344.213 550.139 344.704H550.219C550.507 344.213 550.896 343.851 551.387 343.616C551.888 343.381 552.416 343.264 552.971 343.264ZM558.308 351.136C558.308 350.741 558.404 350.464 558.596 350.304C558.788 350.144 559.018 350.064 559.284 350.064C559.562 350.064 559.796 350.144 559.988 350.304C560.191 350.464 560.292 350.741 560.292 351.136C560.292 351.52 560.191 351.797 559.988 351.968C559.796 352.139 559.562 352.224 559.284 352.224C559.018 352.224 558.788 352.139 558.596 351.968C558.404 351.797 558.308 351.52 558.308 351.136Z" fill="#001A40"/>
<circle cx="344" cy="346" r="4" fill="#001A40"/>
</svg>
