<svg width="960" height="540" viewBox="0 0 960 540" fill="none" xmlns="http://www.w3.org/2000/svg">
<rect x="0.5" y="0.5" width="959" height="539" fill="white"/>
<rect x="0.5" y="0.5" width="959" height="539" stroke="#CCCCCC"/>
<path d="M473 150V224" stroke="#42144F" stroke-width="2" stroke-linecap="square" stroke-linejoin="bevel"/>
<rect x="175" y="254" width="32" height="32" rx="16" fill="#42144F"/>
<path d="M193.502 264.368V276.5H191V266.888L188.336 268.526L187.22 266.798L191.252 264.368H193.502Z" fill="white"/>
<rect x="245.5" y="214.5" width="470" height="111" stroke="#FF00C8" stroke-dasharray="2 2"/>
<path fill-rule="evenodd" clip-rule="evenodd" d="M265 226C260.582 226 257 229.582 257 234C257 238.418 260.582 242 265 242C269.418 242 273 238.418 273 234C273 229.582 269.418 226 265 226ZM255 234C255 228.477 259.477 224 265 224C270.523 224 275 228.477 275 234C275 239.523 270.523 244 265 244C259.477 244 255 239.523 255 234ZM265 229C265.552 229 266 229.448 266 230V234C266 234.552 265.552 235 265 235C264.448 235 264 234.552 264 234V230C264 229.448 264.448 229 265 229ZM264 238C264 237.448 264.448 237 265 237H265.01C265.562 237 266.01 237.448 266.01 238C266.01 238.552 265.562 239 265.01 239H265C264.448 239 264 238.552 264 238Z" fill="#A01D23"/>
<path d="M295.704 234.176C295.704 235.456 295.464 236.528 294.984 237.392C294.515 238.256 293.837 238.907 292.952 239.344C292.067 239.781 290.995 240 289.736 240H286.552V228.576H290.072C291.224 228.576 292.221 228.789 293.064 229.216C293.907 229.643 294.557 230.272 295.016 231.104C295.475 231.925 295.704 232.949 295.704 234.176ZM294.184 234.224C294.184 233.211 294.013 232.379 293.672 231.728C293.341 231.077 292.851 230.597 292.2 230.288C291.56 229.968 290.781 229.808 289.864 229.808H287.992V238.768H289.544C291.091 238.768 292.248 238.389 293.016 237.632C293.795 236.864 294.184 235.728 294.184 234.224ZM299.456 231.424V240H298.048V231.424H299.456ZM298.768 228.208C298.981 228.208 299.168 228.283 299.328 228.432C299.498 228.571 299.584 228.795 299.584 229.104C299.584 229.403 299.498 229.627 299.328 229.776C299.168 229.925 298.981 230 298.768 230C298.533 230 298.336 229.925 298.176 229.776C298.016 229.627 297.936 229.403 297.936 229.104C297.936 228.795 298.016 228.571 298.176 228.432C298.336 228.283 298.533 228.208 298.768 228.208ZM305.036 239.008C305.25 239.008 305.469 238.992 305.693 238.96C305.917 238.917 306.098 238.875 306.237 238.832V239.904C306.087 239.979 305.874 240.037 305.597 240.08C305.319 240.133 305.053 240.16 304.797 240.16C304.349 240.16 303.933 240.085 303.549 239.936C303.175 239.776 302.871 239.504 302.637 239.12C302.402 238.736 302.285 238.197 302.285 237.504V232.512H301.069V231.84L302.301 231.28L302.861 229.456H303.693V231.424H306.173V232.512H303.693V237.472C303.693 237.995 303.815 238.384 304.061 238.64C304.317 238.885 304.642 239.008 305.036 239.008ZM313.518 231.424V240H312.11V231.424H313.518ZM312.83 228.208C313.043 228.208 313.23 228.283 313.39 228.432C313.561 228.571 313.646 228.795 313.646 229.104C313.646 229.403 313.561 229.627 313.39 229.776C313.23 229.925 313.043 230 312.83 230C312.595 230 312.398 229.925 312.238 229.776C312.078 229.627 311.998 229.403 311.998 229.104C311.998 228.795 312.078 228.571 312.238 228.432C312.398 228.283 312.595 228.208 312.83 228.208ZM321.819 237.632C321.819 238.187 321.68 238.651 321.403 239.024C321.126 239.397 320.731 239.68 320.219 239.872C319.707 240.064 319.099 240.16 318.395 240.16C317.798 240.16 317.28 240.112 316.843 240.016C316.416 239.92 316.038 239.787 315.707 239.616V238.336C316.048 238.507 316.459 238.667 316.939 238.816C317.43 238.955 317.926 239.024 318.427 239.024C319.142 239.024 319.659 238.912 319.979 238.688C320.299 238.453 320.459 238.144 320.459 237.76C320.459 237.547 320.4 237.355 320.283 237.184C320.166 237.013 319.952 236.843 319.643 236.672C319.344 236.501 318.912 236.309 318.347 236.096C317.792 235.883 317.318 235.669 316.923 235.456C316.528 235.243 316.224 234.987 316.011 234.688C315.798 234.389 315.691 234.005 315.691 233.536C315.691 232.811 315.984 232.251 316.571 231.856C317.168 231.461 317.947 231.264 318.907 231.264C319.43 231.264 319.915 231.317 320.363 231.424C320.822 231.52 321.248 231.659 321.643 231.84L321.163 232.96C320.928 232.853 320.678 232.763 320.411 232.688C320.155 232.603 319.894 232.539 319.627 232.496C319.36 232.443 319.088 232.416 318.811 232.416C318.235 232.416 317.792 232.512 317.483 232.704C317.184 232.885 317.035 233.136 317.035 233.456C317.035 233.691 317.104 233.893 317.243 234.064C317.382 234.224 317.611 234.384 317.931 234.544C318.262 234.693 318.699 234.875 319.243 235.088C319.787 235.291 320.251 235.499 320.635 235.712C321.019 235.925 321.312 236.187 321.515 236.496C321.718 236.795 321.819 237.173 321.819 237.632ZM331.36 231.264C332.096 231.264 332.725 231.424 333.248 231.744C333.781 232.064 334.186 232.517 334.464 233.104C334.752 233.68 334.896 234.357 334.896 235.136V235.984H329.024C329.045 236.955 329.29 237.696 329.76 238.208C330.24 238.709 330.906 238.96 331.76 238.96C332.304 238.96 332.784 238.912 333.2 238.816C333.626 238.709 334.064 238.56 334.512 238.368V239.6C334.074 239.792 333.642 239.931 333.216 240.016C332.789 240.112 332.282 240.16 331.696 240.16C330.885 240.16 330.165 239.995 329.536 239.664C328.917 239.333 328.432 238.843 328.08 238.192C327.738 237.531 327.568 236.725 327.568 235.776C327.568 234.837 327.722 234.032 328.032 233.36C328.352 232.688 328.794 232.171 329.36 231.808C329.936 231.445 330.602 231.264 331.36 231.264ZM331.344 232.416C330.672 232.416 330.138 232.635 329.744 233.072C329.36 233.499 329.13 234.096 329.056 234.864H333.424C333.424 234.373 333.349 233.947 333.2 233.584C333.05 233.221 332.821 232.939 332.512 232.736C332.213 232.523 331.824 232.416 331.344 232.416ZM340.391 231.264C341.127 231.264 341.756 231.424 342.279 231.744C342.812 232.064 343.217 232.517 343.495 233.104C343.783 233.68 343.927 234.357 343.927 235.136V235.984H338.055C338.076 236.955 338.321 237.696 338.791 238.208C339.271 238.709 339.937 238.96 340.791 238.96C341.335 238.96 341.815 238.912 342.231 238.816C342.657 238.709 343.095 238.56 343.543 238.368V239.6C343.105 239.792 342.673 239.931 342.247 240.016C341.82 240.112 341.313 240.16 340.727 240.16C339.916 240.16 339.196 239.995 338.567 239.664C337.948 239.333 337.463 238.843 337.111 238.192C336.769 237.531 336.599 236.725 336.599 235.776C336.599 234.837 336.753 234.032 337.063 233.36C337.383 232.688 337.825 232.171 338.391 231.808C338.967 231.445 339.633 231.264 340.391 231.264ZM340.375 232.416C339.703 232.416 339.169 232.635 338.775 233.072C338.391 233.499 338.161 234.096 338.087 234.864H342.455C342.455 234.373 342.38 233.947 342.231 233.584C342.081 233.221 341.852 232.939 341.543 232.736C341.244 232.523 340.855 232.416 340.375 232.416ZM350.238 231.264C351.262 231.264 352.035 231.515 352.558 232.016C353.081 232.507 353.342 233.307 353.342 234.416V240H351.95V234.512C351.95 233.819 351.795 233.301 351.486 232.96C351.177 232.619 350.691 232.448 350.03 232.448C349.081 232.448 348.425 232.715 348.062 233.248C347.699 233.781 347.518 234.549 347.518 235.552V240H346.11V231.424H347.246L347.454 232.592H347.534C347.726 232.293 347.961 232.048 348.238 231.856C348.526 231.653 348.841 231.504 349.182 231.408C349.523 231.312 349.875 231.264 350.238 231.264ZM362.045 240L358.797 231.424H360.301L362.125 236.48C362.21 236.715 362.301 236.976 362.397 237.264C362.493 237.552 362.578 237.829 362.653 238.096C362.728 238.352 362.781 238.571 362.813 238.752H362.877C362.92 238.571 362.978 238.347 363.053 238.08C363.138 237.813 363.229 237.536 363.325 237.248C363.432 236.96 363.522 236.704 363.597 236.48L365.421 231.424H366.925L363.661 240H362.045ZM375.738 235.696C375.738 236.411 375.642 237.045 375.45 237.6C375.269 238.144 375.002 238.608 374.65 238.992C374.309 239.376 373.887 239.669 373.386 239.872C372.895 240.064 372.346 240.16 371.738 240.16C371.173 240.16 370.65 240.064 370.17 239.872C369.69 239.669 369.274 239.376 368.922 238.992C368.57 238.608 368.293 238.144 368.09 237.6C367.898 237.045 367.802 236.411 367.802 235.696C367.802 234.747 367.962 233.947 368.282 233.296C368.602 232.635 369.061 232.133 369.658 231.792C370.255 231.44 370.965 231.264 371.786 231.264C372.565 231.264 373.247 231.44 373.834 231.792C374.431 232.133 374.895 232.635 375.226 233.296C375.567 233.947 375.738 234.747 375.738 235.696ZM369.258 235.696C369.258 236.368 369.343 236.955 369.514 237.456C369.695 237.947 369.973 238.325 370.346 238.592C370.719 238.859 371.194 238.992 371.77 238.992C372.346 238.992 372.821 238.859 373.194 238.592C373.567 238.325 373.839 237.947 374.01 237.456C374.191 236.955 374.282 236.368 374.282 235.696C374.282 235.013 374.191 234.432 374.01 233.952C373.829 233.472 373.551 233.104 373.178 232.848C372.815 232.581 372.341 232.448 371.754 232.448C370.879 232.448 370.245 232.736 369.85 233.312C369.455 233.888 369.258 234.683 369.258 235.696ZM385.425 235.696C385.425 236.411 385.329 237.045 385.137 237.6C384.956 238.144 384.689 238.608 384.337 238.992C383.996 239.376 383.575 239.669 383.073 239.872C382.583 240.064 382.033 240.16 381.425 240.16C380.86 240.16 380.337 240.064 379.857 239.872C379.377 239.669 378.961 239.376 378.609 238.992C378.257 238.608 377.98 238.144 377.777 237.6C377.585 237.045 377.489 236.411 377.489 235.696C377.489 234.747 377.649 233.947 377.969 233.296C378.289 232.635 378.748 232.133 379.345 231.792C379.943 231.44 380.652 231.264 381.473 231.264C382.252 231.264 382.935 231.44 383.521 231.792C384.119 232.133 384.583 232.635 384.913 233.296C385.255 233.947 385.425 234.747 385.425 235.696ZM378.945 235.696C378.945 236.368 379.031 236.955 379.201 237.456C379.383 237.947 379.66 238.325 380.033 238.592C380.407 238.859 380.881 238.992 381.457 238.992C382.033 238.992 382.508 238.859 382.881 238.592C383.255 238.325 383.527 237.947 383.697 237.456C383.879 236.955 383.969 236.368 383.969 235.696C383.969 235.013 383.879 234.432 383.697 233.952C383.516 233.472 383.239 233.104 382.865 232.848C382.503 232.581 382.028 232.448 381.441 232.448C380.567 232.448 379.932 232.736 379.537 233.312C379.143 233.888 378.945 234.683 378.945 235.696ZM391.657 231.264C391.817 231.264 391.988 231.275 392.169 231.296C392.361 231.307 392.526 231.328 392.665 231.36L392.489 232.656C392.35 232.624 392.196 232.597 392.025 232.576C391.865 232.555 391.71 232.544 391.561 232.544C391.23 232.544 390.916 232.613 390.617 232.752C390.318 232.891 390.052 233.088 389.817 233.344C389.582 233.589 389.396 233.888 389.257 234.24C389.129 234.592 389.065 234.987 389.065 235.424V240H387.657V231.424H388.809L388.969 232.992H389.033C389.214 232.672 389.433 232.384 389.689 232.128C389.945 231.861 390.238 231.653 390.569 231.504C390.9 231.344 391.262 231.264 391.657 231.264ZM395.674 230.8C395.674 231.163 395.664 231.504 395.642 231.824C395.632 232.133 395.616 232.379 395.594 232.56H395.674C395.92 232.197 396.256 231.893 396.682 231.648C397.109 231.403 397.658 231.28 398.33 231.28C399.397 231.28 400.25 231.653 400.89 232.4C401.541 233.136 401.866 234.24 401.866 235.712C401.866 236.693 401.717 237.515 401.418 238.176C401.13 238.837 400.72 239.333 400.186 239.664C399.653 239.995 399.034 240.16 398.33 240.16C397.658 240.16 397.109 240.037 396.682 239.792C396.256 239.547 395.92 239.253 395.674 238.912H395.562L395.274 240H394.266V227.84H395.674V230.8ZM398.09 232.448C397.482 232.448 397.002 232.565 396.65 232.8C396.298 233.024 396.048 233.376 395.898 233.856C395.749 234.325 395.674 234.928 395.674 235.664V235.728C395.674 236.784 395.845 237.595 396.186 238.16C396.538 238.715 397.184 238.992 398.122 238.992C398.89 238.992 399.461 238.709 399.834 238.144C400.218 237.579 400.41 236.763 400.41 235.696C400.41 234.619 400.218 233.808 399.834 233.264C399.461 232.72 398.88 232.448 398.09 232.448ZM407.422 231.264C408.158 231.264 408.787 231.424 409.31 231.744C409.843 232.064 410.249 232.517 410.526 233.104C410.814 233.68 410.958 234.357 410.958 235.136V235.984H405.086C405.107 236.955 405.353 237.696 405.822 238.208C406.302 238.709 406.969 238.96 407.822 238.96C408.366 238.96 408.846 238.912 409.262 238.816C409.689 238.709 410.126 238.56 410.574 238.368V239.6C410.137 239.792 409.705 239.931 409.278 240.016C408.851 240.112 408.345 240.16 407.758 240.16C406.947 240.16 406.227 239.995 405.598 239.664C404.979 239.333 404.494 238.843 404.142 238.192C403.801 237.531 403.63 236.725 403.63 235.776C403.63 234.837 403.785 234.032 404.094 233.36C404.414 232.688 404.857 232.171 405.422 231.808C405.998 231.445 406.665 231.264 407.422 231.264ZM407.406 232.416C406.734 232.416 406.201 232.635 405.806 233.072C405.422 233.499 405.193 234.096 405.118 234.864H409.486C409.486 234.373 409.411 233.947 409.262 233.584C409.113 233.221 408.883 232.939 408.574 232.736C408.275 232.523 407.886 232.416 407.406 232.416ZM416.453 231.264C417.189 231.264 417.819 231.424 418.341 231.744C418.875 232.064 419.28 232.517 419.557 233.104C419.845 233.68 419.989 234.357 419.989 235.136V235.984H414.117C414.139 236.955 414.384 237.696 414.853 238.208C415.333 238.709 416 238.96 416.853 238.96C417.397 238.96 417.877 238.912 418.293 238.816C418.72 238.709 419.157 238.56 419.605 238.368V239.6C419.168 239.792 418.736 239.931 418.309 240.016C417.883 240.112 417.376 240.16 416.789 240.16C415.979 240.16 415.259 239.995 414.629 239.664C414.011 239.333 413.525 238.843 413.173 238.192C412.832 237.531 412.661 236.725 412.661 235.776C412.661 234.837 412.816 234.032 413.125 233.36C413.445 232.688 413.888 232.171 414.453 231.808C415.029 231.445 415.696 231.264 416.453 231.264ZM416.437 232.416C415.765 232.416 415.232 232.635 414.837 233.072C414.453 233.499 414.224 234.096 414.149 234.864H418.517C418.517 234.373 418.443 233.947 418.293 233.584C418.144 233.221 417.915 232.939 417.605 232.736C417.307 232.523 416.917 232.416 416.437 232.416ZM423.581 240H422.173V227.84H423.581V240ZM429.338 240.16C428.271 240.16 427.418 239.792 426.778 239.056C426.138 238.309 425.818 237.2 425.818 235.728C425.818 234.256 426.138 233.147 426.778 232.4C427.428 231.643 428.287 231.264 429.354 231.264C429.802 231.264 430.191 231.323 430.522 231.44C430.852 231.547 431.14 231.696 431.386 231.888C431.631 232.08 431.839 232.293 432.01 232.528H432.106C432.095 232.389 432.074 232.187 432.042 231.92C432.02 231.643 432.01 231.424 432.01 231.264V227.84H433.418V240H432.282L432.074 238.848H432.01C431.839 239.093 431.631 239.317 431.386 239.52C431.14 239.712 430.847 239.867 430.506 239.984C430.175 240.101 429.786 240.16 429.338 240.16ZM429.562 238.992C430.468 238.992 431.103 238.747 431.466 238.256C431.839 237.755 432.026 237.003 432.026 236V235.744C432.026 234.677 431.85 233.861 431.498 233.296C431.146 232.72 430.495 232.432 429.546 232.432C428.788 232.432 428.218 232.736 427.834 233.344C427.46 233.941 427.274 234.747 427.274 235.76C427.274 236.784 427.46 237.579 427.834 238.144C428.218 238.709 428.794 238.992 429.562 238.992ZM442.186 240L438.938 231.424H440.442L442.266 236.48C442.351 236.715 442.442 236.976 442.538 237.264C442.634 237.552 442.719 237.829 442.794 238.096C442.868 238.352 442.922 238.571 442.954 238.752H443.018C443.06 238.571 443.119 238.347 443.194 238.08C443.279 237.813 443.37 237.536 443.466 237.248C443.572 236.96 443.663 236.704 443.738 236.48L445.562 231.424H447.066L443.802 240H442.186ZM451.671 231.28C452.716 231.28 453.489 231.509 453.991 231.968C454.492 232.427 454.743 233.157 454.743 234.16V240H453.719L453.447 238.784H453.383C453.137 239.093 452.881 239.355 452.615 239.568C452.359 239.771 452.06 239.92 451.719 240.016C451.388 240.112 450.983 240.16 450.503 240.16C449.991 240.16 449.527 240.069 449.111 239.888C448.705 239.707 448.385 239.429 448.151 239.056C447.916 238.672 447.799 238.192 447.799 237.616C447.799 236.763 448.135 236.107 448.807 235.648C449.479 235.179 450.513 234.923 451.911 234.88L453.367 234.832V234.32C453.367 233.605 453.212 233.109 452.903 232.832C452.593 232.555 452.156 232.416 451.591 232.416C451.143 232.416 450.716 232.485 450.311 232.624C449.905 232.752 449.527 232.901 449.174 233.072L448.743 232.016C449.116 231.813 449.559 231.643 450.071 231.504C450.583 231.355 451.116 231.28 451.671 231.28ZM452.087 235.856C451.02 235.899 450.279 236.069 449.863 236.368C449.457 236.667 449.255 237.088 449.255 237.632C449.255 238.112 449.399 238.464 449.687 238.688C449.985 238.912 450.364 239.024 450.823 239.024C451.548 239.024 452.151 238.827 452.631 238.432C453.111 238.027 453.351 237.408 453.351 236.576V235.808L452.087 235.856ZM461.519 231.264C462.543 231.264 463.317 231.515 463.839 232.016C464.362 232.507 464.623 233.307 464.623 234.416V240H463.231V234.512C463.231 233.819 463.077 233.301 462.767 232.96C462.458 232.619 461.973 232.448 461.311 232.448C460.362 232.448 459.706 232.715 459.343 233.248C458.981 233.781 458.799 234.549 458.799 235.552V240H457.391V231.424H458.527L458.735 232.592H458.815C459.007 232.293 459.242 232.048 459.519 231.856C459.807 231.653 460.122 231.504 460.463 231.408C460.805 231.312 461.157 231.264 461.519 231.264ZM474.75 231.264C475.486 231.264 476.115 231.424 476.638 231.744C477.171 232.064 477.577 232.517 477.854 233.104C478.142 233.68 478.286 234.357 478.286 235.136V235.984H472.414C472.435 236.955 472.681 237.696 473.15 238.208C473.63 238.709 474.297 238.96 475.15 238.96C475.694 238.96 476.174 238.912 476.59 238.816C477.017 238.709 477.454 238.56 477.902 238.368V239.6C477.465 239.792 477.033 239.931 476.606 240.016C476.179 240.112 475.673 240.16 475.086 240.16C474.275 240.16 473.555 239.995 472.926 239.664C472.307 239.333 471.822 238.843 471.47 238.192C471.129 237.531 470.958 236.725 470.958 235.776C470.958 234.837 471.113 234.032 471.422 233.36C471.742 232.688 472.185 232.171 472.75 231.808C473.326 231.445 473.993 231.264 474.75 231.264ZM474.734 232.416C474.062 232.416 473.529 232.635 473.134 233.072C472.75 233.499 472.521 234.096 472.446 234.864H476.814C476.814 234.373 476.739 233.947 476.59 233.584C476.441 233.221 476.211 232.939 475.902 232.736C475.603 232.523 475.214 232.416 474.734 232.416ZM483.781 231.264C484.517 231.264 485.147 231.424 485.669 231.744C486.203 232.064 486.608 232.517 486.885 233.104C487.173 233.68 487.317 234.357 487.317 235.136V235.984H481.445C481.467 236.955 481.712 237.696 482.181 238.208C482.661 238.709 483.328 238.96 484.181 238.96C484.725 238.96 485.205 238.912 485.621 238.816C486.048 238.709 486.485 238.56 486.933 238.368V239.6C486.496 239.792 486.064 239.931 485.637 240.016C485.211 240.112 484.704 240.16 484.117 240.16C483.307 240.16 482.587 239.995 481.957 239.664C481.339 239.333 480.853 238.843 480.501 238.192C480.16 237.531 479.989 236.725 479.989 235.776C479.989 234.837 480.144 234.032 480.453 233.36C480.773 232.688 481.216 232.171 481.781 231.808C482.357 231.445 483.024 231.264 483.781 231.264ZM483.765 232.416C483.093 232.416 482.56 232.635 482.165 233.072C481.781 233.499 481.552 234.096 481.477 234.864H485.845C485.845 234.373 485.771 233.947 485.621 233.584C485.472 233.221 485.243 232.939 484.933 232.736C484.635 232.523 484.245 232.416 483.765 232.416ZM493.629 231.264C494.653 231.264 495.426 231.515 495.949 232.016C496.471 232.507 496.733 233.307 496.733 234.416V240H495.341V234.512C495.341 233.819 495.186 233.301 494.877 232.96C494.567 232.619 494.082 232.448 493.421 232.448C492.471 232.448 491.815 232.715 491.453 233.248C491.09 233.781 490.909 234.549 490.909 235.552V240H489.501V231.424H490.637L490.845 232.592H490.925C491.117 232.293 491.351 232.048 491.629 231.856C491.917 231.653 492.231 231.504 492.573 231.408C492.914 231.312 493.266 231.264 493.629 231.264ZM505.18 240H503.74V228.576H510.124V229.84H505.18V233.888H509.82V235.152H505.18V240ZM519.3 235.696C519.3 236.411 519.204 237.045 519.012 237.6C518.831 238.144 518.564 238.608 518.212 238.992C517.871 239.376 517.45 239.669 516.948 239.872C516.458 240.064 515.908 240.16 515.3 240.16C514.735 240.16 514.212 240.064 513.732 239.872C513.252 239.669 512.836 239.376 512.484 238.992C512.132 238.608 511.855 238.144 511.652 237.6C511.46 237.045 511.364 236.411 511.364 235.696C511.364 234.747 511.524 233.947 511.844 233.296C512.164 232.635 512.623 232.133 513.22 231.792C513.818 231.44 514.527 231.264 515.348 231.264C516.127 231.264 516.81 231.44 517.396 231.792C517.994 232.133 518.458 232.635 518.788 233.296C519.13 233.947 519.3 234.747 519.3 235.696ZM512.82 235.696C512.82 236.368 512.906 236.955 513.076 237.456C513.258 237.947 513.535 238.325 513.908 238.592C514.282 238.859 514.756 238.992 515.332 238.992C515.908 238.992 516.383 238.859 516.756 238.592C517.13 238.325 517.402 237.947 517.572 237.456C517.754 236.955 517.844 236.368 517.844 235.696C517.844 235.013 517.754 234.432 517.572 233.952C517.391 233.472 517.114 233.104 516.74 232.848C516.378 232.581 515.903 232.448 515.316 232.448C514.442 232.448 513.807 232.736 513.412 233.312C513.018 233.888 512.82 234.683 512.82 235.696ZM525.532 231.264C525.692 231.264 525.863 231.275 526.044 231.296C526.236 231.307 526.401 231.328 526.54 231.36L526.364 232.656C526.225 232.624 526.071 232.597 525.9 232.576C525.74 232.555 525.585 232.544 525.436 232.544C525.105 232.544 524.791 232.613 524.492 232.752C524.193 232.891 523.927 233.088 523.692 233.344C523.457 233.589 523.271 233.888 523.132 234.24C523.004 234.592 522.94 234.987 522.94 235.424V240H521.532V231.424H522.684L522.844 232.992H522.908C523.089 232.672 523.308 232.384 523.564 232.128C523.82 231.861 524.113 231.653 524.444 231.504C524.775 231.344 525.137 231.264 525.532 231.264ZM537.549 231.264C538.52 231.264 539.245 231.515 539.725 232.016C540.205 232.507 540.445 233.307 540.445 234.416V240H539.053V234.48C539.053 233.808 538.909 233.301 538.621 232.96C538.344 232.619 537.907 232.448 537.309 232.448C536.477 232.448 535.88 232.688 535.517 233.168C535.165 233.648 534.989 234.347 534.989 235.264V240H533.597V234.48C533.597 234.032 533.533 233.659 533.405 233.36C533.277 233.051 533.085 232.821 532.829 232.672C532.573 232.523 532.243 232.448 531.837 232.448C531.261 232.448 530.808 232.571 530.477 232.816C530.147 233.051 529.907 233.397 529.757 233.856C529.619 234.315 529.549 234.88 529.549 235.552V240H528.141V231.424H529.277L529.485 232.592H529.565C529.747 232.293 529.965 232.048 530.221 231.856C530.488 231.653 530.781 231.504 531.101 231.408C531.421 231.312 531.752 231.264 532.093 231.264C532.755 231.264 533.304 231.381 533.741 231.616C534.189 231.851 534.515 232.213 534.717 232.704H534.797C535.085 232.213 535.475 231.851 535.965 231.616C536.467 231.381 536.995 231.264 537.549 231.264ZM548.883 240H547.443V228.576H553.827V229.84H548.883V233.888H553.523V235.152H548.883V240ZM556.956 231.424V240H555.548V231.424H556.956ZM556.268 228.208C556.481 228.208 556.668 228.283 556.828 228.432C556.998 228.571 557.084 228.795 557.084 229.104C557.084 229.403 556.998 229.627 556.828 229.776C556.668 229.925 556.481 230 556.268 230C556.033 230 555.836 229.925 555.676 229.776C555.516 229.627 555.436 229.403 555.436 229.104C555.436 228.795 555.516 228.571 555.676 228.432C555.836 228.283 556.033 228.208 556.268 228.208ZM562.985 231.264C563.721 231.264 564.35 231.424 564.873 231.744C565.406 232.064 565.811 232.517 566.089 233.104C566.377 233.68 566.521 234.357 566.521 235.136V235.984H560.649C560.67 236.955 560.915 237.696 561.385 238.208C561.865 238.709 562.531 238.96 563.385 238.96C563.929 238.96 564.409 238.912 564.825 238.816C565.251 238.709 565.689 238.56 566.137 238.368V239.6C565.699 239.792 565.267 239.931 564.841 240.016C564.414 240.112 563.907 240.16 563.321 240.16C562.51 240.16 561.79 239.995 561.161 239.664C560.542 239.333 560.057 238.843 559.705 238.192C559.363 237.531 559.193 236.725 559.193 235.776C559.193 234.837 559.347 234.032 559.657 233.36C559.977 232.688 560.419 232.171 560.985 231.808C561.561 231.445 562.227 231.264 562.985 231.264ZM562.969 232.416C562.297 232.416 561.763 232.635 561.369 233.072C560.985 233.499 560.755 234.096 560.681 234.864H565.049C565.049 234.373 564.974 233.947 564.825 233.584C564.675 233.221 564.446 232.939 564.137 232.736C563.838 232.523 563.449 232.416 562.969 232.416ZM570.112 240H568.704V227.84H570.112V240ZM575.869 240.16C574.802 240.16 573.949 239.792 573.309 239.056C572.669 238.309 572.349 237.2 572.349 235.728C572.349 234.256 572.669 233.147 573.309 232.4C573.959 231.643 574.818 231.264 575.885 231.264C576.333 231.264 576.722 231.323 577.053 231.44C577.383 231.547 577.671 231.696 577.917 231.888C578.162 232.08 578.37 232.293 578.541 232.528H578.637C578.626 232.389 578.605 232.187 578.573 231.92C578.551 231.643 578.541 231.424 578.541 231.264V227.84H579.949V240H578.813L578.605 238.848H578.541C578.37 239.093 578.162 239.317 577.917 239.52C577.671 239.712 577.378 239.867 577.037 239.984C576.706 240.101 576.317 240.16 575.869 240.16ZM576.093 238.992C576.999 238.992 577.634 238.747 577.997 238.256C578.37 237.755 578.557 237.003 578.557 236V235.744C578.557 234.677 578.381 233.861 578.029 233.296C577.677 232.72 577.026 232.432 576.077 232.432C575.319 232.432 574.749 232.736 574.365 233.344C573.991 233.941 573.805 234.747 573.805 235.76C573.805 236.784 573.991 237.579 574.365 238.144C574.749 238.709 575.325 238.992 576.093 238.992ZM593.405 240H587.021V228.576H593.405V229.84H588.461V233.408H593.117V234.656H588.461V238.736H593.405V240ZM599.719 231.264C599.879 231.264 600.05 231.275 600.231 231.296C600.423 231.307 600.589 231.328 600.727 231.36L600.551 232.656C600.413 232.624 600.258 232.597 600.087 232.576C599.927 232.555 599.773 232.544 599.623 232.544C599.293 232.544 598.978 232.613 598.679 232.752C598.381 232.891 598.114 233.088 597.879 233.344C597.645 233.589 597.458 233.888 597.319 234.24C597.191 234.592 597.127 234.987 597.127 235.424V240H595.719V231.424H596.871L597.031 232.992H597.095C597.277 232.672 597.495 232.384 597.751 232.128C598.007 231.861 598.301 231.653 598.631 231.504C598.962 231.344 599.325 231.264 599.719 231.264ZM606.329 231.264C606.489 231.264 606.659 231.275 606.841 231.296C607.033 231.307 607.198 231.328 607.337 231.36L607.161 232.656C607.022 232.624 606.867 232.597 606.697 232.576C606.537 232.555 606.382 232.544 606.233 232.544C605.902 232.544 605.587 232.613 605.289 232.752C604.99 232.891 604.723 233.088 604.489 233.344C604.254 233.589 604.067 233.888 603.929 234.24C603.801 234.592 603.737 234.987 603.737 235.424V240H602.329V231.424H603.481L603.641 232.992H603.705C603.886 232.672 604.105 232.384 604.361 232.128C604.617 231.861 604.91 231.653 605.241 231.504C605.571 231.344 605.934 231.264 606.329 231.264ZM616.082 235.696C616.082 236.411 615.986 237.045 615.794 237.6C615.612 238.144 615.346 238.608 614.994 238.992C614.652 239.376 614.231 239.669 613.73 239.872C613.239 240.064 612.69 240.16 612.082 240.16C611.516 240.16 610.994 240.064 610.514 239.872C610.034 239.669 609.618 239.376 609.266 238.992C608.914 238.608 608.636 238.144 608.434 237.6C608.242 237.045 608.146 236.411 608.146 235.696C608.146 234.747 608.306 233.947 608.626 233.296C608.946 232.635 609.404 232.133 610.002 231.792C610.599 231.44 611.308 231.264 612.13 231.264C612.908 231.264 613.591 231.44 614.178 231.792C614.775 232.133 615.239 232.635 615.57 233.296C615.911 233.947 616.082 234.747 616.082 235.696ZM609.602 235.696C609.602 236.368 609.687 236.955 609.858 237.456C610.039 237.947 610.316 238.325 610.69 238.592C611.063 238.859 611.538 238.992 612.114 238.992C612.69 238.992 613.164 238.859 613.538 238.592C613.911 238.325 614.183 237.947 614.354 237.456C614.535 236.955 614.626 236.368 614.626 235.696C614.626 235.013 614.535 234.432 614.354 233.952C614.172 233.472 613.895 233.104 613.522 232.848C613.159 232.581 612.684 232.448 612.098 232.448C611.223 232.448 610.588 232.736 610.194 233.312C609.799 233.888 609.602 234.683 609.602 235.696ZM622.313 231.264C622.473 231.264 622.644 231.275 622.825 231.296C623.017 231.307 623.182 231.328 623.321 231.36L623.145 232.656C623.006 232.624 622.852 232.597 622.681 232.576C622.521 232.555 622.366 232.544 622.217 232.544C621.886 232.544 621.572 232.613 621.273 232.752C620.974 232.891 620.708 233.088 620.473 233.344C620.238 233.589 620.052 233.888 619.913 234.24C619.785 234.592 619.721 234.987 619.721 235.424V240H618.313V231.424H619.465L619.625 232.992H619.689C619.87 232.672 620.089 232.384 620.345 232.128C620.601 231.861 620.894 231.653 621.225 231.504C621.556 231.344 621.918 231.264 622.313 231.264ZM634.311 240L630.551 229.984H630.487C630.508 230.197 630.524 230.469 630.535 230.8C630.556 231.131 630.572 231.493 630.583 231.888C630.593 232.272 630.599 232.667 630.599 233.072V240H629.271V228.576H631.399L634.919 237.936H634.983L638.567 228.576H640.679V240H639.255V232.976C639.255 232.603 639.26 232.235 639.271 231.872C639.281 231.499 639.297 231.152 639.319 230.832C639.34 230.501 639.356 230.224 639.367 230H639.303L635.495 240H634.311ZM646.906 231.264C647.642 231.264 648.272 231.424 648.794 231.744C649.328 232.064 649.733 232.517 650.01 233.104C650.298 233.68 650.442 234.357 650.442 235.136V235.984H644.57C644.592 236.955 644.837 237.696 645.306 238.208C645.786 238.709 646.453 238.96 647.306 238.96C647.85 238.96 648.33 238.912 648.746 238.816C649.173 238.709 649.61 238.56 650.058 238.368V239.6C649.621 239.792 649.189 239.931 648.762 240.016C648.336 240.112 647.829 240.16 647.242 240.16C646.432 240.16 645.712 239.995 645.082 239.664C644.464 239.333 643.978 238.843 643.626 238.192C643.285 237.531 643.114 236.725 643.114 235.776C643.114 234.837 643.269 234.032 643.578 233.36C643.898 232.688 644.341 232.171 644.906 231.808C645.482 231.445 646.149 231.264 646.906 231.264ZM646.89 232.416C646.218 232.416 645.685 232.635 645.29 233.072C644.906 233.499 644.677 234.096 644.602 234.864H648.97C648.97 234.373 648.896 233.947 648.746 233.584C648.597 233.221 648.368 232.939 648.058 232.736C647.76 232.523 647.37 232.416 646.89 232.416ZM658.21 237.632C658.21 238.187 658.071 238.651 657.794 239.024C657.516 239.397 657.122 239.68 656.61 239.872C656.098 240.064 655.49 240.16 654.786 240.16C654.188 240.16 653.671 240.112 653.234 240.016C652.807 239.92 652.428 239.787 652.098 239.616V238.336C652.439 238.507 652.85 238.667 653.33 238.816C653.82 238.955 654.316 239.024 654.818 239.024C655.532 239.024 656.05 238.912 656.37 238.688C656.69 238.453 656.85 238.144 656.85 237.76C656.85 237.547 656.791 237.355 656.674 237.184C656.556 237.013 656.343 236.843 656.034 236.672C655.735 236.501 655.303 236.309 654.738 236.096C654.183 235.883 653.708 235.669 653.314 235.456C652.919 235.243 652.615 234.987 652.402 234.688C652.188 234.389 652.082 234.005 652.082 233.536C652.082 232.811 652.375 232.251 652.962 231.856C653.559 231.461 654.338 231.264 655.298 231.264C655.82 231.264 656.306 231.317 656.754 231.424C657.212 231.52 657.639 231.659 658.034 231.84L657.554 232.96C657.319 232.853 657.068 232.763 656.802 232.688C656.546 232.603 656.284 232.539 656.018 232.496C655.751 232.443 655.479 232.416 655.202 232.416C654.626 232.416 654.183 232.512 653.874 232.704C653.575 232.885 653.426 233.136 653.426 233.456C653.426 233.691 653.495 233.893 653.634 234.064C653.772 234.224 654.002 234.384 654.322 234.544C654.652 234.693 655.09 234.875 655.634 235.088C656.178 235.291 656.642 235.499 657.026 235.712C657.41 235.925 657.703 236.187 657.906 236.496C658.108 236.795 658.21 237.173 658.21 237.632ZM665.866 237.632C665.866 238.187 665.727 238.651 665.45 239.024C665.173 239.397 664.778 239.68 664.266 239.872C663.754 240.064 663.146 240.16 662.442 240.16C661.845 240.16 661.327 240.112 660.89 240.016C660.463 239.92 660.085 239.787 659.754 239.616V238.336C660.095 238.507 660.506 238.667 660.986 238.816C661.477 238.955 661.973 239.024 662.474 239.024C663.189 239.024 663.706 238.912 664.026 238.688C664.346 238.453 664.506 238.144 664.506 237.76C664.506 237.547 664.447 237.355 664.33 237.184C664.213 237.013 663.999 236.843 663.69 236.672C663.391 236.501 662.959 236.309 662.394 236.096C661.839 235.883 661.365 235.669 660.97 235.456C660.575 235.243 660.271 234.987 660.058 234.688C659.845 234.389 659.738 234.005 659.738 233.536C659.738 232.811 660.031 232.251 660.618 231.856C661.215 231.461 661.994 231.264 662.954 231.264C663.477 231.264 663.962 231.317 664.41 231.424C664.869 231.52 665.295 231.659 665.69 231.84L665.21 232.96C664.975 232.853 664.725 232.763 664.458 232.688C664.202 232.603 663.941 232.539 663.674 232.496C663.407 232.443 663.135 232.416 662.858 232.416C662.282 232.416 661.839 232.512 661.53 232.704C661.231 232.885 661.082 233.136 661.082 233.456C661.082 233.691 661.151 233.893 661.29 234.064C661.429 234.224 661.658 234.384 661.978 234.544C662.309 234.693 662.746 234.875 663.29 235.088C663.834 235.291 664.298 235.499 664.682 235.712C665.066 235.925 665.359 236.187 665.562 236.496C665.765 236.795 665.866 237.173 665.866 237.632ZM671.186 231.28C672.231 231.28 673.005 231.509 673.506 231.968C674.007 232.427 674.258 233.157 674.258 234.16V240H673.234L672.962 238.784H672.898C672.653 239.093 672.397 239.355 672.13 239.568C671.874 239.771 671.575 239.92 671.234 240.016C670.903 240.112 670.498 240.16 670.018 240.16C669.506 240.16 669.042 240.069 668.626 239.888C668.221 239.707 667.901 239.429 667.666 239.056C667.431 238.672 667.314 238.192 667.314 237.616C667.314 236.763 667.65 236.107 668.322 235.648C668.994 235.179 670.029 234.923 671.426 234.88L672.882 234.832V234.32C672.882 233.605 672.727 233.109 672.418 232.832C672.109 232.555 671.671 232.416 671.106 232.416C670.658 232.416 670.231 232.485 669.826 232.624C669.421 232.752 669.042 232.901 668.69 233.072L668.258 232.016C668.631 231.813 669.074 231.643 669.586 231.504C670.098 231.355 670.631 231.28 671.186 231.28ZM671.602 235.856C670.535 235.899 669.794 236.069 669.378 236.368C668.973 236.667 668.77 237.088 668.77 237.632C668.77 238.112 668.914 238.464 669.202 238.688C669.501 238.912 669.879 239.024 670.338 239.024C671.063 239.024 671.666 238.827 672.146 238.432C672.626 238.027 672.866 237.408 672.866 236.576V235.808L671.602 235.856ZM679.947 231.264C680.512 231.264 681.019 231.371 681.467 231.584C681.926 231.797 682.315 232.123 682.635 232.56H682.715L682.907 231.424H684.027V240.144C684.027 240.955 683.888 241.632 683.611 242.176C683.334 242.731 682.912 243.147 682.347 243.424C681.782 243.701 681.062 243.84 680.187 243.84C679.568 243.84 678.998 243.792 678.475 243.696C677.963 243.611 677.504 243.477 677.099 243.296V242C677.376 242.139 677.68 242.256 678.011 242.352C678.342 242.459 678.699 242.539 679.083 242.592C679.467 242.645 679.862 242.672 680.267 242.672C681.003 242.672 681.579 242.453 681.995 242.016C682.422 241.589 682.635 241.003 682.635 240.256V239.92C682.635 239.792 682.64 239.611 682.651 239.376C682.662 239.131 682.672 238.96 682.683 238.864H682.619C682.32 239.301 681.947 239.627 681.499 239.84C681.062 240.053 680.55 240.16 679.963 240.16C678.854 240.16 677.984 239.771 677.355 238.992C676.736 238.213 676.427 237.125 676.427 235.728C676.427 234.811 676.566 234.021 676.843 233.36C677.131 232.688 677.536 232.171 678.059 231.808C678.582 231.445 679.211 231.264 679.947 231.264ZM680.139 232.448C679.659 232.448 679.248 232.576 678.907 232.832C678.576 233.088 678.32 233.461 678.139 233.952C677.968 234.443 677.883 235.04 677.883 235.744C677.883 236.8 678.075 237.611 678.459 238.176C678.854 238.731 679.424 239.008 680.171 239.008C680.608 239.008 680.982 238.955 681.291 238.848C681.6 238.731 681.856 238.555 682.059 238.32C682.262 238.075 682.411 237.765 682.507 237.392C682.603 237.019 682.651 236.576 682.651 236.064V235.728C682.651 234.949 682.56 234.32 682.379 233.84C682.208 233.36 681.936 233.008 681.563 232.784C681.19 232.56 680.715 232.448 680.139 232.448ZM690.063 231.264C690.799 231.264 691.428 231.424 691.951 231.744C692.484 232.064 692.889 232.517 693.167 233.104C693.455 233.68 693.599 234.357 693.599 235.136V235.984H687.727C687.748 236.955 687.993 237.696 688.463 238.208C688.943 238.709 689.609 238.96 690.463 238.96C691.007 238.96 691.487 238.912 691.903 238.816C692.329 238.709 692.767 238.56 693.215 238.368V239.6C692.777 239.792 692.345 239.931 691.919 240.016C691.492 240.112 690.985 240.16 690.399 240.16C689.588 240.16 688.868 239.995 688.239 239.664C687.62 239.333 687.135 238.843 686.783 238.192C686.441 237.531 686.271 236.725 686.271 235.776C686.271 234.837 686.425 234.032 686.735 233.36C687.055 232.688 687.497 232.171 688.063 231.808C688.639 231.445 689.305 231.264 690.063 231.264ZM690.047 232.416C689.375 232.416 688.841 232.635 688.447 233.072C688.063 233.499 687.833 234.096 687.759 234.864H692.127C692.127 234.373 692.052 233.947 691.903 233.584C691.753 233.221 691.524 232.939 691.215 232.736C690.916 232.523 690.527 232.416 690.047 232.416ZM695.574 239.136C695.574 238.741 695.67 238.464 695.862 238.304C696.054 238.144 696.283 238.064 696.55 238.064C696.827 238.064 697.062 238.144 697.254 238.304C697.457 238.464 697.558 238.741 697.558 239.136C697.558 239.52 697.457 239.797 697.254 239.968C697.062 240.139 696.827 240.224 696.55 240.224C696.283 240.224 696.054 240.139 695.862 239.968C695.67 239.797 695.574 239.52 695.574 239.136ZM292.936 288H286.552V276.576H292.936V277.84H287.992V281.408H292.648V282.656H287.992V286.736H292.936V288ZM299.379 279.264C300.403 279.264 301.176 279.515 301.699 280.016C302.221 280.507 302.483 281.307 302.483 282.416V288H301.091V282.512C301.091 281.819 300.936 281.301 300.627 280.96C300.317 280.619 299.832 280.448 299.171 280.448C298.221 280.448 297.565 280.715 297.203 281.248C296.84 281.781 296.659 282.549 296.659 283.552V288H295.251V279.424H296.387L296.595 280.592H296.675C296.867 280.293 297.101 280.048 297.379 279.856C297.667 279.653 297.981 279.504 298.323 279.408C298.664 279.312 299.016 279.264 299.379 279.264ZM310.706 279.424V288H309.298V279.424H310.706ZM310.018 276.208C310.231 276.208 310.418 276.283 310.578 276.432C310.748 276.571 310.834 276.795 310.834 277.104C310.834 277.403 310.748 277.627 310.578 277.776C310.418 277.925 310.231 278 310.018 278C309.783 278 309.586 277.925 309.426 277.776C309.266 277.627 309.186 277.403 309.186 277.104C309.186 276.795 309.266 276.571 309.426 276.432C309.586 276.283 309.783 276.208 310.018 276.208ZM317.551 279.264C318.575 279.264 319.348 279.515 319.871 280.016C320.393 280.507 320.655 281.307 320.655 282.416V288H319.263V282.512C319.263 281.819 319.108 281.301 318.799 280.96C318.489 280.619 318.004 280.448 317.343 280.448C316.393 280.448 315.737 280.715 315.375 281.248C315.012 281.781 314.831 282.549 314.831 283.552V288H313.423V279.424H314.559L314.767 280.592H314.847C315.039 280.293 315.273 280.048 315.551 279.856C315.839 279.653 316.153 279.504 316.495 279.408C316.836 279.312 317.188 279.264 317.551 279.264ZM330.781 279.264C331.517 279.264 332.147 279.424 332.669 279.744C333.203 280.064 333.608 280.517 333.885 281.104C334.173 281.68 334.317 282.357 334.317 283.136V283.984H328.445C328.467 284.955 328.712 285.696 329.181 286.208C329.661 286.709 330.328 286.96 331.181 286.96C331.725 286.96 332.205 286.912 332.621 286.816C333.048 286.709 333.485 286.56 333.933 286.368V287.6C333.496 287.792 333.064 287.931 332.637 288.016C332.211 288.112 331.704 288.16 331.117 288.16C330.307 288.16 329.587 287.995 328.957 287.664C328.339 287.333 327.853 286.843 327.501 286.192C327.16 285.531 326.989 284.725 326.989 283.776C326.989 282.837 327.144 282.032 327.453 281.36C327.773 280.688 328.216 280.171 328.781 279.808C329.357 279.445 330.024 279.264 330.781 279.264ZM330.765 280.416C330.093 280.416 329.56 280.635 329.165 281.072C328.781 281.499 328.552 282.096 328.477 282.864H332.845C332.845 282.373 332.771 281.947 332.621 281.584C332.472 281.221 332.243 280.939 331.933 280.736C331.635 280.523 331.245 280.416 330.765 280.416ZM339.813 279.264C340.549 279.264 341.178 279.424 341.701 279.744C342.234 280.064 342.639 280.517 342.917 281.104C343.205 281.68 343.349 282.357 343.349 283.136V283.984H337.477C337.498 284.955 337.743 285.696 338.213 286.208C338.693 286.709 339.359 286.96 340.213 286.96C340.757 286.96 341.237 286.912 341.653 286.816C342.079 286.709 342.517 286.56 342.965 286.368V287.6C342.527 287.792 342.095 287.931 341.669 288.016C341.242 288.112 340.735 288.16 340.149 288.16C339.338 288.16 338.618 287.995 337.989 287.664C337.37 287.333 336.885 286.843 336.533 286.192C336.191 285.531 336.021 284.725 336.021 283.776C336.021 282.837 336.175 282.032 336.485 281.36C336.805 280.688 337.247 280.171 337.813 279.808C338.389 279.445 339.055 279.264 339.813 279.264ZM339.797 280.416C339.125 280.416 338.591 280.635 338.197 281.072C337.813 281.499 337.583 282.096 337.509 282.864H341.877C341.877 282.373 341.802 281.947 341.653 281.584C341.503 281.221 341.274 280.939 340.965 280.736C340.666 280.523 340.277 280.416 339.797 280.416ZM349.66 279.264C350.684 279.264 351.457 279.515 351.98 280.016C352.503 280.507 352.764 281.307 352.764 282.416V288H351.372V282.512C351.372 281.819 351.217 281.301 350.908 280.96C350.599 280.619 350.113 280.448 349.452 280.448C348.503 280.448 347.847 280.715 347.484 281.248C347.121 281.781 346.94 282.549 346.94 283.552V288H345.532V279.424H346.668L346.876 280.592H346.956C347.148 280.293 347.383 280.048 347.66 279.856C347.948 279.653 348.263 279.504 348.604 279.408C348.945 279.312 349.297 279.264 349.66 279.264ZM361.211 288H359.771V276.576H366.155V277.84H361.211V281.888H365.851V283.152H361.211V288ZM375.332 283.696C375.332 284.411 375.236 285.045 375.044 285.6C374.862 286.144 374.596 286.608 374.244 286.992C373.902 287.376 373.481 287.669 372.98 287.872C372.489 288.064 371.94 288.16 371.332 288.16C370.766 288.16 370.244 288.064 369.764 287.872C369.284 287.669 368.868 287.376 368.516 286.992C368.164 286.608 367.886 286.144 367.684 285.6C367.492 285.045 367.396 284.411 367.396 283.696C367.396 282.747 367.556 281.947 367.876 281.296C368.196 280.635 368.654 280.133 369.252 279.792C369.849 279.44 370.558 279.264 371.38 279.264C372.158 279.264 372.841 279.44 373.428 279.792C374.025 280.133 374.489 280.635 374.82 281.296C375.161 281.947 375.332 282.747 375.332 283.696ZM368.852 283.696C368.852 284.368 368.937 284.955 369.108 285.456C369.289 285.947 369.566 286.325 369.94 286.592C370.313 286.859 370.788 286.992 371.364 286.992C371.94 286.992 372.414 286.859 372.788 286.592C373.161 286.325 373.433 285.947 373.604 285.456C373.785 284.955 373.876 284.368 373.876 283.696C373.876 283.013 373.785 282.432 373.604 281.952C373.422 281.472 373.145 281.104 372.772 280.848C372.409 280.581 371.934 280.448 371.348 280.448C370.473 280.448 369.838 280.736 369.444 281.312C369.049 281.888 368.852 282.683 368.852 283.696ZM381.563 279.264C381.723 279.264 381.894 279.275 382.075 279.296C382.267 279.307 382.432 279.328 382.571 279.36L382.395 280.656C382.256 280.624 382.102 280.597 381.931 280.576C381.771 280.555 381.616 280.544 381.467 280.544C381.136 280.544 380.822 280.613 380.523 280.752C380.224 280.891 379.958 281.088 379.723 281.344C379.488 281.589 379.302 281.888 379.163 282.24C379.035 282.592 378.971 282.987 378.971 283.424V288H377.563V279.424H378.715L378.875 280.992H378.939C379.12 280.672 379.339 280.384 379.595 280.128C379.851 279.861 380.144 279.653 380.475 279.504C380.806 279.344 381.168 279.264 381.563 279.264ZM393.581 279.264C394.551 279.264 395.277 279.515 395.757 280.016C396.237 280.507 396.477 281.307 396.477 282.416V288H395.085V282.48C395.085 281.808 394.941 281.301 394.653 280.96C394.375 280.619 393.938 280.448 393.341 280.448C392.509 280.448 391.911 280.688 391.549 281.168C391.197 281.648 391.021 282.347 391.021 283.264V288H389.629V282.48C389.629 282.032 389.565 281.659 389.437 281.36C389.309 281.051 389.117 280.821 388.861 280.672C388.605 280.523 388.274 280.448 387.869 280.448C387.293 280.448 386.839 280.571 386.509 280.816C386.178 281.051 385.938 281.397 385.789 281.856C385.65 282.315 385.581 282.88 385.581 283.552V288H384.173V279.424H385.309L385.517 280.592H385.597C385.778 280.293 385.997 280.048 386.253 279.856C386.519 279.653 386.813 279.504 387.133 279.408C387.453 279.312 387.783 279.264 388.125 279.264C388.786 279.264 389.335 279.381 389.773 279.616C390.221 279.851 390.546 280.213 390.749 280.704H390.829C391.117 280.213 391.506 279.851 391.997 279.616C392.498 279.381 393.026 279.264 393.581 279.264ZM404.914 288H403.474V276.576H409.858V277.84H404.914V281.888H409.554V283.152H404.914V288ZM412.987 279.424V288H411.579V279.424H412.987ZM412.299 276.208C412.512 276.208 412.699 276.283 412.859 276.432C413.029 276.571 413.115 276.795 413.115 277.104C413.115 277.403 413.029 277.627 412.859 277.776C412.699 277.925 412.512 278 412.299 278C412.064 278 411.867 277.925 411.707 277.776C411.547 277.627 411.467 277.403 411.467 277.104C411.467 276.795 411.547 276.571 411.707 276.432C411.867 276.283 412.064 276.208 412.299 276.208ZM419.016 279.264C419.752 279.264 420.381 279.424 420.904 279.744C421.437 280.064 421.842 280.517 422.12 281.104C422.408 281.68 422.552 282.357 422.552 283.136V283.984H416.68C416.701 284.955 416.946 285.696 417.416 286.208C417.896 286.709 418.562 286.96 419.416 286.96C419.96 286.96 420.44 286.912 420.856 286.816C421.282 286.709 421.72 286.56 422.168 286.368V287.6C421.73 287.792 421.298 287.931 420.872 288.016C420.445 288.112 419.938 288.16 419.352 288.16C418.541 288.16 417.821 287.995 417.192 287.664C416.573 287.333 416.088 286.843 415.736 286.192C415.394 285.531 415.224 284.725 415.224 283.776C415.224 282.837 415.378 282.032 415.688 281.36C416.008 280.688 416.45 280.171 417.016 279.808C417.592 279.445 418.258 279.264 419.016 279.264ZM419 280.416C418.328 280.416 417.794 280.635 417.4 281.072C417.016 281.499 416.786 282.096 416.712 282.864H421.08C421.08 282.373 421.005 281.947 420.856 281.584C420.706 281.221 420.477 280.939 420.168 280.736C419.869 280.523 419.48 280.416 419 280.416ZM426.143 288H424.735V275.84H426.143V288ZM431.9 288.16C430.833 288.16 429.98 287.792 429.34 287.056C428.7 286.309 428.38 285.2 428.38 283.728C428.38 282.256 428.7 281.147 429.34 280.4C429.991 279.643 430.849 279.264 431.916 279.264C432.364 279.264 432.753 279.323 433.084 279.44C433.415 279.547 433.703 279.696 433.948 279.888C434.193 280.08 434.401 280.293 434.572 280.528H434.668C434.657 280.389 434.636 280.187 434.604 279.92C434.583 279.643 434.572 279.424 434.572 279.264V275.84H435.98V288H434.844L434.636 286.848H434.572C434.401 287.093 434.193 287.317 433.948 287.52C433.703 287.712 433.409 287.867 433.068 287.984C432.737 288.101 432.348 288.16 431.9 288.16ZM432.124 286.992C433.031 286.992 433.665 286.747 434.028 286.256C434.401 285.755 434.588 285.003 434.588 284V283.744C434.588 282.677 434.412 281.861 434.06 281.296C433.708 280.72 433.057 280.432 432.108 280.432C431.351 280.432 430.78 280.736 430.396 281.344C430.023 281.941 429.836 282.747 429.836 283.76C429.836 284.784 430.023 285.579 430.396 286.144C430.78 286.709 431.356 286.992 432.124 286.992ZM449.436 288H443.052V276.576H449.436V277.84H444.492V281.408H449.148V282.656H444.492V286.736H449.436V288ZM455.751 279.264C455.911 279.264 456.081 279.275 456.263 279.296C456.455 279.307 456.62 279.328 456.759 279.36L456.583 280.656C456.444 280.624 456.289 280.597 456.119 280.576C455.959 280.555 455.804 280.544 455.655 280.544C455.324 280.544 455.009 280.613 454.711 280.752C454.412 280.891 454.145 281.088 453.911 281.344C453.676 281.589 453.489 281.888 453.351 282.24C453.223 282.592 453.159 282.987 453.159 283.424V288H451.751V279.424H452.903L453.063 280.992H453.127C453.308 280.672 453.527 280.384 453.783 280.128C454.039 279.861 454.332 279.653 454.663 279.504C454.993 279.344 455.356 279.264 455.751 279.264ZM462.36 279.264C462.52 279.264 462.691 279.275 462.872 279.296C463.064 279.307 463.229 279.328 463.368 279.36L463.192 280.656C463.053 280.624 462.899 280.597 462.728 280.576C462.568 280.555 462.413 280.544 462.264 280.544C461.933 280.544 461.619 280.613 461.32 280.752C461.021 280.891 460.755 281.088 460.52 281.344C460.285 281.589 460.099 281.888 459.96 282.24C459.832 282.592 459.768 282.987 459.768 283.424V288H458.36V279.424H459.512L459.672 280.992H459.736C459.917 280.672 460.136 280.384 460.392 280.128C460.648 279.861 460.941 279.653 461.272 279.504C461.603 279.344 461.965 279.264 462.36 279.264ZM472.113 283.696C472.113 284.411 472.017 285.045 471.825 285.6C471.644 286.144 471.377 286.608 471.025 286.992C470.684 287.376 470.262 287.669 469.761 287.872C469.27 288.064 468.721 288.16 468.113 288.16C467.548 288.16 467.025 288.064 466.545 287.872C466.065 287.669 465.649 287.376 465.297 286.992C464.945 286.608 464.668 286.144 464.465 285.6C464.273 285.045 464.177 284.411 464.177 283.696C464.177 282.747 464.337 281.947 464.657 281.296C464.977 280.635 465.436 280.133 466.033 279.792C466.63 279.44 467.34 279.264 468.161 279.264C468.94 279.264 469.622 279.44 470.209 279.792C470.806 280.133 471.27 280.635 471.601 281.296C471.942 281.947 472.113 282.747 472.113 283.696ZM465.633 283.696C465.633 284.368 465.718 284.955 465.889 285.456C466.07 285.947 466.348 286.325 466.721 286.592C467.094 286.859 467.569 286.992 468.145 286.992C468.721 286.992 469.196 286.859 469.569 286.592C469.942 286.325 470.214 285.947 470.385 285.456C470.566 284.955 470.657 284.368 470.657 283.696C470.657 283.013 470.566 282.432 470.385 281.952C470.204 281.472 469.926 281.104 469.553 280.848C469.19 280.581 468.716 280.448 468.129 280.448C467.254 280.448 466.62 280.736 466.225 281.312C465.83 281.888 465.633 282.683 465.633 283.696ZM478.344 279.264C478.504 279.264 478.675 279.275 478.856 279.296C479.048 279.307 479.214 279.328 479.352 279.36L479.176 280.656C479.038 280.624 478.883 280.597 478.712 280.576C478.552 280.555 478.398 280.544 478.248 280.544C477.918 280.544 477.603 280.613 477.304 280.752C477.006 280.891 476.739 281.088 476.504 281.344C476.27 281.589 476.083 281.888 475.944 282.24C475.816 282.592 475.752 282.987 475.752 283.424V288H474.344V279.424H475.496L475.656 280.992H475.72C475.902 280.672 476.12 280.384 476.376 280.128C476.632 279.861 476.926 279.653 477.256 279.504C477.587 279.344 477.95 279.264 478.344 279.264ZM490.342 288L486.582 277.984H486.518C486.539 278.197 486.555 278.469 486.566 278.8C486.587 279.131 486.603 279.493 486.614 279.888C486.625 280.272 486.63 280.667 486.63 281.072V288H485.302V276.576H487.43L490.95 285.936H491.014L494.598 276.576H496.71V288H495.286V280.976C495.286 280.603 495.291 280.235 495.302 279.872C495.313 279.499 495.329 279.152 495.35 278.832C495.371 278.501 495.387 278.224 495.398 278H495.334L491.526 288H490.342ZM502.938 279.264C503.674 279.264 504.303 279.424 504.826 279.744C505.359 280.064 505.764 280.517 506.042 281.104C506.33 281.68 506.474 282.357 506.474 283.136V283.984H500.602C500.623 284.955 500.868 285.696 501.338 286.208C501.818 286.709 502.484 286.96 503.338 286.96C503.882 286.96 504.362 286.912 504.778 286.816C505.204 286.709 505.642 286.56 506.09 286.368V287.6C505.652 287.792 505.22 287.931 504.794 288.016C504.367 288.112 503.86 288.16 503.274 288.16C502.463 288.16 501.743 287.995 501.114 287.664C500.495 287.333 500.01 286.843 499.658 286.192C499.316 285.531 499.146 284.725 499.146 283.776C499.146 282.837 499.3 282.032 499.61 281.36C499.93 280.688 500.372 280.171 500.938 279.808C501.514 279.445 502.18 279.264 502.938 279.264ZM502.922 280.416C502.25 280.416 501.716 280.635 501.322 281.072C500.938 281.499 500.708 282.096 500.634 282.864H505.002C505.002 282.373 504.927 281.947 504.778 281.584C504.628 281.221 504.399 280.939 504.09 280.736C503.791 280.523 503.402 280.416 502.922 280.416ZM514.241 285.632C514.241 286.187 514.102 286.651 513.825 287.024C513.548 287.397 513.153 287.68 512.641 287.872C512.129 288.064 511.521 288.16 510.817 288.16C510.22 288.16 509.702 288.112 509.265 288.016C508.838 287.92 508.46 287.787 508.129 287.616V286.336C508.47 286.507 508.881 286.667 509.361 286.816C509.852 286.955 510.348 287.024 510.849 287.024C511.564 287.024 512.081 286.912 512.401 286.688C512.721 286.453 512.881 286.144 512.881 285.76C512.881 285.547 512.822 285.355 512.705 285.184C512.588 285.013 512.374 284.843 512.065 284.672C511.766 284.501 511.334 284.309 510.769 284.096C510.214 283.883 509.74 283.669 509.345 283.456C508.95 283.243 508.646 282.987 508.433 282.688C508.22 282.389 508.113 282.005 508.113 281.536C508.113 280.811 508.406 280.251 508.993 279.856C509.59 279.461 510.369 279.264 511.329 279.264C511.852 279.264 512.337 279.317 512.785 279.424C513.244 279.52 513.67 279.659 514.065 279.84L513.585 280.96C513.35 280.853 513.1 280.763 512.833 280.688C512.577 280.603 512.316 280.539 512.049 280.496C511.782 280.443 511.51 280.416 511.233 280.416C510.657 280.416 510.214 280.512 509.905 280.704C509.606 280.885 509.457 281.136 509.457 281.456C509.457 281.691 509.526 281.893 509.665 282.064C509.804 282.224 510.033 282.384 510.353 282.544C510.684 282.693 511.121 282.875 511.665 283.088C512.209 283.291 512.673 283.499 513.057 283.712C513.441 283.925 513.734 284.187 513.937 284.496C514.14 284.795 514.241 285.173 514.241 285.632ZM521.897 285.632C521.897 286.187 521.758 286.651 521.481 287.024C521.204 287.397 520.809 287.68 520.297 287.872C519.785 288.064 519.177 288.16 518.473 288.16C517.876 288.16 517.358 288.112 516.921 288.016C516.494 287.92 516.116 287.787 515.785 287.616V286.336C516.126 286.507 516.537 286.667 517.017 286.816C517.508 286.955 518.004 287.024 518.505 287.024C519.22 287.024 519.737 286.912 520.057 286.688C520.377 286.453 520.537 286.144 520.537 285.76C520.537 285.547 520.478 285.355 520.361 285.184C520.244 285.013 520.03 284.843 519.721 284.672C519.422 284.501 518.99 284.309 518.425 284.096C517.87 283.883 517.396 283.669 517.001 283.456C516.606 283.243 516.302 282.987 516.089 282.688C515.876 282.389 515.769 282.005 515.769 281.536C515.769 280.811 516.062 280.251 516.649 279.856C517.246 279.461 518.025 279.264 518.985 279.264C519.508 279.264 519.993 279.317 520.441 279.424C520.9 279.52 521.326 279.659 521.721 279.84L521.241 280.96C521.006 280.853 520.756 280.763 520.489 280.688C520.233 280.603 519.972 280.539 519.705 280.496C519.438 280.443 519.166 280.416 518.889 280.416C518.313 280.416 517.87 280.512 517.561 280.704C517.262 280.885 517.113 281.136 517.113 281.456C517.113 281.691 517.182 281.893 517.321 282.064C517.46 282.224 517.689 282.384 518.009 282.544C518.34 282.693 518.777 282.875 519.321 283.088C519.865 283.291 520.329 283.499 520.713 283.712C521.097 283.925 521.39 284.187 521.593 284.496C521.796 284.795 521.897 285.173 521.897 285.632ZM527.217 279.28C528.263 279.28 529.036 279.509 529.537 279.968C530.039 280.427 530.289 281.157 530.289 282.16V288H529.265L528.993 286.784H528.929C528.684 287.093 528.428 287.355 528.161 287.568C527.905 287.771 527.607 287.92 527.265 288.016C526.935 288.112 526.529 288.16 526.049 288.16C525.537 288.16 525.073 288.069 524.657 287.888C524.252 287.707 523.932 287.429 523.697 287.056C523.463 286.672 523.345 286.192 523.345 285.616C523.345 284.763 523.681 284.107 524.353 283.648C525.025 283.179 526.06 282.923 527.457 282.88L528.913 282.832V282.32C528.913 281.605 528.759 281.109 528.449 280.832C528.14 280.555 527.703 280.416 527.137 280.416C526.689 280.416 526.263 280.485 525.857 280.624C525.452 280.752 525.073 280.901 524.721 281.072L524.289 280.016C524.663 279.813 525.105 279.643 525.617 279.504C526.129 279.355 526.663 279.28 527.217 279.28ZM527.633 283.856C526.567 283.899 525.825 284.069 525.409 284.368C525.004 284.667 524.801 285.088 524.801 285.632C524.801 286.112 524.945 286.464 525.233 286.688C525.532 286.912 525.911 287.024 526.369 287.024C527.095 287.024 527.697 286.827 528.177 286.432C528.657 286.027 528.897 285.408 528.897 284.576V283.808L527.633 283.856ZM535.978 279.264C536.543 279.264 537.05 279.371 537.498 279.584C537.957 279.797 538.346 280.123 538.666 280.56H538.746L538.938 279.424H540.058V288.144C540.058 288.955 539.919 289.632 539.642 290.176C539.365 290.731 538.943 291.147 538.378 291.424C537.813 291.701 537.093 291.84 536.218 291.84C535.599 291.84 535.029 291.792 534.506 291.696C533.994 291.611 533.535 291.477 533.13 291.296V290C533.407 290.139 533.711 290.256 534.042 290.352C534.373 290.459 534.73 290.539 535.114 290.592C535.498 290.645 535.893 290.672 536.298 290.672C537.034 290.672 537.61 290.453 538.026 290.016C538.453 289.589 538.666 289.003 538.666 288.256V287.92C538.666 287.792 538.671 287.611 538.682 287.376C538.693 287.131 538.703 286.96 538.714 286.864H538.65C538.351 287.301 537.978 287.627 537.53 287.84C537.093 288.053 536.581 288.16 535.994 288.16C534.885 288.16 534.015 287.771 533.386 286.992C532.767 286.213 532.458 285.125 532.458 283.728C532.458 282.811 532.597 282.021 532.874 281.36C533.162 280.688 533.567 280.171 534.09 279.808C534.613 279.445 535.242 279.264 535.978 279.264ZM536.17 280.448C535.69 280.448 535.279 280.576 534.938 280.832C534.607 281.088 534.351 281.461 534.17 281.952C533.999 282.443 533.914 283.04 533.914 283.744C533.914 284.8 534.106 285.611 534.49 286.176C534.885 286.731 535.455 287.008 536.202 287.008C536.639 287.008 537.013 286.955 537.322 286.848C537.631 286.731 537.887 286.555 538.09 286.32C538.293 286.075 538.442 285.765 538.538 285.392C538.634 285.019 538.682 284.576 538.682 284.064V283.728C538.682 282.949 538.591 282.32 538.41 281.84C538.239 281.36 537.967 281.008 537.594 280.784C537.221 280.56 536.746 280.448 536.17 280.448ZM546.094 279.264C546.83 279.264 547.459 279.424 547.982 279.744C548.515 280.064 548.921 280.517 549.198 281.104C549.486 281.68 549.63 282.357 549.63 283.136V283.984H543.758C543.779 284.955 544.025 285.696 544.494 286.208C544.974 286.709 545.641 286.96 546.494 286.96C547.038 286.96 547.518 286.912 547.934 286.816C548.361 286.709 548.798 286.56 549.246 286.368V287.6C548.809 287.792 548.377 287.931 547.95 288.016C547.523 288.112 547.017 288.16 546.43 288.16C545.619 288.16 544.899 287.995 544.27 287.664C543.651 287.333 543.166 286.843 542.814 286.192C542.473 285.531 542.302 284.725 542.302 283.776C542.302 282.837 542.457 282.032 542.766 281.36C543.086 280.688 543.529 280.171 544.094 279.808C544.67 279.445 545.337 279.264 546.094 279.264ZM546.078 280.416C545.406 280.416 544.873 280.635 544.478 281.072C544.094 281.499 543.865 282.096 543.79 282.864H548.158C548.158 282.373 548.083 281.947 547.934 281.584C547.785 281.221 547.555 280.939 547.246 280.736C546.947 280.523 546.558 280.416 546.078 280.416ZM557.361 282.192C557.361 282.363 557.351 282.587 557.329 282.864C557.319 283.141 557.308 283.381 557.297 283.584H557.361C557.425 283.499 557.521 283.376 557.649 283.216C557.777 283.056 557.905 282.896 558.033 282.736C558.172 282.565 558.289 282.427 558.385 282.32L561.121 279.424H562.769L559.297 283.088L563.009 288H561.313L558.337 284L557.361 284.848V288H555.969V275.84H557.361V282.192ZM571.684 279.424V288H570.532L570.324 286.864H570.26C570.079 287.163 569.844 287.408 569.556 287.6C569.268 287.792 568.954 287.931 568.612 288.016C568.271 288.112 567.914 288.16 567.54 288.16C566.858 288.16 566.282 288.053 565.812 287.84C565.354 287.616 565.007 287.275 564.772 286.816C564.538 286.357 564.42 285.765 564.42 285.04V279.424H565.844V284.944C565.844 285.627 565.999 286.139 566.308 286.48C566.618 286.821 567.098 286.992 567.748 286.992C568.388 286.992 568.89 286.875 569.252 286.64C569.626 286.395 569.887 286.043 570.036 285.584C570.196 285.115 570.276 284.549 570.276 283.888V279.424H571.684ZM578.535 279.264C579.559 279.264 580.332 279.515 580.855 280.016C581.378 280.507 581.639 281.307 581.639 282.416V288H580.247V282.512C580.247 281.819 580.092 281.301 579.783 280.96C579.474 280.619 578.988 280.448 578.327 280.448C577.378 280.448 576.722 280.715 576.359 281.248C575.996 281.781 575.815 282.549 575.815 283.552V288H574.407V279.424H575.543L575.751 280.592H575.831C576.023 280.293 576.258 280.048 576.535 279.856C576.823 279.653 577.138 279.504 577.479 279.408C577.82 279.312 578.172 279.264 578.535 279.264ZM588.426 279.264C589.45 279.264 590.223 279.515 590.746 280.016C591.268 280.507 591.53 281.307 591.53 282.416V288H590.138V282.512C590.138 281.819 589.983 281.301 589.674 280.96C589.364 280.619 588.879 280.448 588.218 280.448C587.268 280.448 586.612 280.715 586.25 281.248C585.887 281.781 585.706 282.549 585.706 283.552V288H584.298V279.424H585.434L585.642 280.592H585.722C585.914 280.293 586.148 280.048 586.426 279.856C586.714 279.653 587.028 279.504 587.37 279.408C587.711 279.312 588.063 279.264 588.426 279.264ZM597.5 279.264C598.236 279.264 598.865 279.424 599.388 279.744C599.921 280.064 600.327 280.517 600.604 281.104C600.892 281.68 601.036 282.357 601.036 283.136V283.984H595.164C595.185 284.955 595.431 285.696 595.9 286.208C596.38 286.709 597.047 286.96 597.9 286.96C598.444 286.96 598.924 286.912 599.34 286.816C599.767 286.709 600.204 286.56 600.652 286.368V287.6C600.215 287.792 599.783 287.931 599.356 288.016C598.929 288.112 598.423 288.16 597.836 288.16C597.025 288.16 596.305 287.995 595.676 287.664C595.057 287.333 594.572 286.843 594.22 286.192C593.879 285.531 593.708 284.725 593.708 283.776C593.708 282.837 593.863 282.032 594.172 281.36C594.492 280.688 594.935 280.171 595.5 279.808C596.076 279.445 596.743 279.264 597.5 279.264ZM597.484 280.416C596.812 280.416 596.279 280.635 595.884 281.072C595.5 281.499 595.271 282.096 595.196 282.864H599.564C599.564 282.373 599.489 281.947 599.34 281.584C599.191 281.221 598.961 280.939 598.652 280.736C598.353 280.523 597.964 280.416 597.484 280.416ZM607.347 279.264C608.371 279.264 609.145 279.515 609.667 280.016C610.19 280.507 610.451 281.307 610.451 282.416V288H609.059V282.512C609.059 281.819 608.905 281.301 608.595 280.96C608.286 280.619 607.801 280.448 607.139 280.448C606.19 280.448 605.534 280.715 605.171 281.248C604.809 281.781 604.627 282.549 604.627 283.552V288H603.219V279.424H604.355L604.563 280.592H604.643C604.835 280.293 605.07 280.048 605.347 279.856C605.635 279.653 605.95 279.504 606.291 279.408C606.633 279.312 606.985 279.264 607.347 279.264ZM624.722 283.696C624.722 284.411 624.626 285.045 624.434 285.6C624.253 286.144 623.986 286.608 623.634 286.992C623.293 287.376 622.872 287.669 622.37 287.872C621.88 288.064 621.33 288.16 620.722 288.16C620.157 288.16 619.634 288.064 619.154 287.872C618.674 287.669 618.258 287.376 617.906 286.992C617.554 286.608 617.277 286.144 617.074 285.6C616.882 285.045 616.786 284.411 616.786 283.696C616.786 282.747 616.946 281.947 617.266 281.296C617.586 280.635 618.045 280.133 618.642 279.792C619.24 279.44 619.949 279.264 620.77 279.264C621.549 279.264 622.232 279.44 622.818 279.792C623.416 280.133 623.88 280.635 624.21 281.296C624.552 281.947 624.722 282.747 624.722 283.696ZM618.242 283.696C618.242 284.368 618.328 284.955 618.498 285.456C618.68 285.947 618.957 286.325 619.33 286.592C619.704 286.859 620.178 286.992 620.754 286.992C621.33 286.992 621.805 286.859 622.178 286.592C622.552 286.325 622.824 285.947 622.994 285.456C623.176 284.955 623.266 284.368 623.266 283.696C623.266 283.013 623.176 282.432 622.994 281.952C622.813 281.472 622.536 281.104 622.162 280.848C621.8 280.581 621.325 280.448 620.738 280.448C619.864 280.448 619.229 280.736 618.834 281.312C618.44 281.888 618.242 282.683 618.242 283.696ZM634.41 283.696C634.41 284.411 634.314 285.045 634.122 285.6C633.94 286.144 633.674 286.608 633.322 286.992C632.98 287.376 632.559 287.669 632.058 287.872C631.567 288.064 631.018 288.16 630.41 288.16C629.844 288.16 629.322 288.064 628.842 287.872C628.362 287.669 627.946 287.376 627.594 286.992C627.242 286.608 626.964 286.144 626.762 285.6C626.57 285.045 626.474 284.411 626.474 283.696C626.474 282.747 626.634 281.947 626.954 281.296C627.274 280.635 627.732 280.133 628.33 279.792C628.927 279.44 629.636 279.264 630.458 279.264C631.236 279.264 631.919 279.44 632.506 279.792C633.103 280.133 633.567 280.635 633.898 281.296C634.239 281.947 634.41 282.747 634.41 283.696ZM627.93 283.696C627.93 284.368 628.015 284.955 628.186 285.456C628.367 285.947 628.644 286.325 629.018 286.592C629.391 286.859 629.866 286.992 630.442 286.992C631.018 286.992 631.492 286.859 631.866 286.592C632.239 286.325 632.511 285.947 632.682 285.456C632.863 284.955 632.954 284.368 632.954 283.696C632.954 283.013 632.863 282.432 632.682 281.952C632.5 281.472 632.223 281.104 631.85 280.848C631.487 280.581 631.012 280.448 630.426 280.448C629.551 280.448 628.916 280.736 628.522 281.312C628.127 281.888 627.93 282.683 627.93 283.696ZM638.033 282.192C638.033 282.363 638.023 282.587 638.001 282.864C637.991 283.141 637.98 283.381 637.969 283.584H638.033C638.097 283.499 638.193 283.376 638.321 283.216C638.449 283.056 638.577 282.896 638.705 282.736C638.844 282.565 638.961 282.427 639.057 282.32L641.793 279.424H643.441L639.969 283.088L643.681 288H641.985L639.009 284L638.033 284.848V288H636.641V275.84H638.033V282.192ZM289.224 311.008C289.437 311.008 289.656 310.992 289.88 310.96C290.104 310.917 290.285 310.875 290.424 310.832V311.904C290.275 311.979 290.061 312.037 289.784 312.08C289.507 312.133 289.24 312.16 288.984 312.16C288.536 312.16 288.12 312.085 287.736 311.936C287.363 311.776 287.059 311.504 286.824 311.12C286.589 310.736 286.472 310.197 286.472 309.504V304.512H285.256V303.84L286.488 303.28L287.048 301.456H287.88V303.424H290.36V304.512H287.88V309.472C287.88 309.995 288.003 310.384 288.248 310.64C288.504 310.885 288.829 311.008 289.224 311.008ZM297.677 307.152C297.613 306.928 297.549 306.709 297.485 306.496C297.421 306.272 297.363 306.064 297.309 305.872C297.267 305.669 297.224 305.483 297.181 305.312C297.139 305.141 297.107 304.997 297.085 304.88H297.021C297 304.997 296.968 305.141 296.925 305.312C296.893 305.483 296.851 305.669 296.797 305.872C296.755 306.075 296.701 306.288 296.637 306.512C296.584 306.725 296.52 306.944 296.445 307.168L294.909 311.984H293.309L290.957 303.408H292.413L293.597 307.984C293.683 308.293 293.763 308.608 293.837 308.928C293.912 309.237 293.976 309.536 294.029 309.824C294.093 310.101 294.136 310.341 294.157 310.544H294.221C294.253 310.416 294.291 310.256 294.333 310.064C294.376 309.872 294.419 309.669 294.461 309.456C294.515 309.243 294.568 309.029 294.621 308.816C294.685 308.603 294.744 308.411 294.797 308.24L296.317 303.408H297.853L299.325 308.24C299.4 308.485 299.475 308.747 299.549 309.024C299.635 309.301 299.709 309.573 299.773 309.84C299.837 310.096 299.88 310.325 299.901 310.528H299.965C299.987 310.347 300.024 310.123 300.077 309.856C300.141 309.579 300.211 309.28 300.285 308.96C300.371 308.629 300.456 308.304 300.541 307.984L301.741 303.408H303.181L300.797 311.984H299.149L297.677 307.152ZM308.031 303.264C308.767 303.264 309.397 303.424 309.919 303.744C310.453 304.064 310.858 304.517 311.135 305.104C311.423 305.68 311.567 306.357 311.567 307.136V307.984H305.695C305.717 308.955 305.962 309.696 306.431 310.208C306.911 310.709 307.578 310.96 308.431 310.96C308.975 310.96 309.455 310.912 309.871 310.816C310.298 310.709 310.735 310.56 311.183 310.368V311.6C310.746 311.792 310.314 311.931 309.887 312.016C309.461 312.112 308.954 312.16 308.367 312.16C307.557 312.16 306.837 311.995 306.207 311.664C305.589 311.333 305.103 310.843 304.751 310.192C304.41 309.531 304.239 308.725 304.239 307.776C304.239 306.837 304.394 306.032 304.703 305.36C305.023 304.688 305.466 304.171 306.031 303.808C306.607 303.445 307.274 303.264 308.031 303.264ZM308.015 304.416C307.343 304.416 306.81 304.635 306.415 305.072C306.031 305.499 305.802 306.096 305.727 306.864H310.095C310.095 306.373 310.021 305.947 309.871 305.584C309.722 305.221 309.493 304.939 309.183 304.736C308.885 304.523 308.495 304.416 308.015 304.416ZM317.063 303.264C317.799 303.264 318.428 303.424 318.951 303.744C319.484 304.064 319.889 304.517 320.167 305.104C320.455 305.68 320.599 306.357 320.599 307.136V307.984H314.727C314.748 308.955 314.993 309.696 315.463 310.208C315.943 310.709 316.609 310.96 317.463 310.96C318.007 310.96 318.487 310.912 318.903 310.816C319.329 310.709 319.767 310.56 320.215 310.368V311.6C319.777 311.792 319.345 311.931 318.919 312.016C318.492 312.112 317.985 312.16 317.399 312.16C316.588 312.16 315.868 311.995 315.239 311.664C314.62 311.333 314.135 310.843 313.783 310.192C313.441 309.531 313.271 308.725 313.271 307.776C313.271 306.837 313.425 306.032 313.735 305.36C314.055 304.688 314.497 304.171 315.063 303.808C315.639 303.445 316.305 303.264 317.063 303.264ZM317.047 304.416C316.375 304.416 315.841 304.635 315.447 305.072C315.063 305.499 314.833 306.096 314.759 306.864H319.127C319.127 306.373 319.052 305.947 318.903 305.584C318.753 305.221 318.524 304.939 318.215 304.736C317.916 304.523 317.527 304.416 317.047 304.416ZM330.186 303.28C331.231 303.28 332.005 303.509 332.506 303.968C333.007 304.427 333.258 305.157 333.258 306.16V312H332.234L331.962 310.784H331.898C331.653 311.093 331.397 311.355 331.13 311.568C330.874 311.771 330.575 311.92 330.234 312.016C329.903 312.112 329.498 312.16 329.018 312.16C328.506 312.16 328.042 312.069 327.626 311.888C327.221 311.707 326.901 311.429 326.666 311.056C326.431 310.672 326.314 310.192 326.314 309.616C326.314 308.763 326.65 308.107 327.322 307.648C327.994 307.179 329.029 306.923 330.426 306.88L331.882 306.832V306.32C331.882 305.605 331.727 305.109 331.418 304.832C331.109 304.555 330.671 304.416 330.106 304.416C329.658 304.416 329.231 304.485 328.826 304.624C328.421 304.752 328.042 304.901 327.69 305.072L327.258 304.016C327.631 303.813 328.074 303.643 328.586 303.504C329.098 303.355 329.631 303.28 330.186 303.28ZM330.602 307.856C329.535 307.899 328.794 308.069 328.378 308.368C327.973 308.667 327.77 309.088 327.77 309.632C327.77 310.112 327.914 310.464 328.202 310.688C328.501 310.912 328.879 311.024 329.338 311.024C330.063 311.024 330.666 310.827 331.146 310.432C331.626 310.027 331.866 309.408 331.866 308.576V307.808L330.602 307.856ZM337.315 312H335.907V299.84H337.315V312ZM341.44 303.424V312H340.032V303.424H341.44ZM340.752 300.208C340.965 300.208 341.152 300.283 341.312 300.432C341.483 300.571 341.568 300.795 341.568 301.104C341.568 301.403 341.483 301.627 341.312 301.776C341.152 301.925 340.965 302 340.752 302C340.517 302 340.32 301.925 340.16 301.776C340 301.627 339.92 301.403 339.92 301.104C339.92 300.795 340 300.571 340.16 300.432C340.32 300.283 340.517 300.208 340.752 300.208ZM348.285 303.264C349.309 303.264 350.082 303.515 350.605 304.016C351.128 304.507 351.389 305.307 351.389 306.416V312H349.997V306.512C349.997 305.819 349.842 305.301 349.533 304.96C349.224 304.619 348.738 304.448 348.077 304.448C347.128 304.448 346.472 304.715 346.109 305.248C345.746 305.781 345.565 306.549 345.565 307.552V312H344.157V303.424H345.293L345.501 304.592H345.581C345.773 304.293 346.008 304.048 346.285 303.856C346.573 303.653 346.888 303.504 347.229 303.408C347.57 303.312 347.922 303.264 348.285 303.264ZM357.36 303.264C358.096 303.264 358.725 303.424 359.248 303.744C359.781 304.064 360.186 304.517 360.464 305.104C360.752 305.68 360.896 306.357 360.896 307.136V307.984H355.024C355.045 308.955 355.29 309.696 355.76 310.208C356.24 310.709 356.906 310.96 357.76 310.96C358.304 310.96 358.784 310.912 359.2 310.816C359.626 310.709 360.064 310.56 360.512 310.368V311.6C360.074 311.792 359.642 311.931 359.216 312.016C358.789 312.112 358.282 312.16 357.696 312.16C356.885 312.16 356.165 311.995 355.536 311.664C354.917 311.333 354.432 310.843 354.08 310.192C353.738 309.531 353.568 308.725 353.568 307.776C353.568 306.837 353.722 306.032 354.032 305.36C354.352 304.688 354.794 304.171 355.36 303.808C355.936 303.445 356.602 303.264 357.36 303.264ZM357.344 304.416C356.672 304.416 356.138 304.635 355.744 305.072C355.36 305.499 355.13 306.096 355.056 306.864H359.424C359.424 306.373 359.349 305.947 359.2 305.584C359.05 305.221 358.821 304.939 358.512 304.736C358.213 304.523 357.824 304.416 357.344 304.416ZM366.327 303.28C367.372 303.28 368.145 303.509 368.647 303.968C369.148 304.427 369.399 305.157 369.399 306.16V312H368.375L368.103 310.784H368.039C367.793 311.093 367.537 311.355 367.271 311.568C367.015 311.771 366.716 311.92 366.375 312.016C366.044 312.112 365.639 312.16 365.159 312.16C364.647 312.16 364.183 312.069 363.767 311.888C363.361 311.707 363.041 311.429 362.807 311.056C362.572 310.672 362.455 310.192 362.455 309.616C362.455 308.763 362.791 308.107 363.463 307.648C364.135 307.179 365.169 306.923 366.567 306.88L368.023 306.832V306.32C368.023 305.605 367.868 305.109 367.559 304.832C367.249 304.555 366.812 304.416 366.247 304.416C365.799 304.416 365.372 304.485 364.967 304.624C364.561 304.752 364.183 304.901 363.831 305.072L363.399 304.016C363.772 303.813 364.215 303.643 364.727 303.504C365.239 303.355 365.772 303.28 366.327 303.28ZM366.743 307.856C365.676 307.899 364.935 308.069 364.519 308.368C364.113 308.667 363.911 309.088 363.911 309.632C363.911 310.112 364.055 310.464 364.343 310.688C364.641 310.912 365.02 311.024 365.479 311.024C366.204 311.024 366.807 310.827 367.287 310.432C367.767 310.027 368.007 309.408 368.007 308.576V307.808L366.743 307.856ZM373.139 300.752C373.043 301.125 372.921 301.531 372.771 301.968C372.622 302.405 372.457 302.843 372.275 303.28C372.105 303.707 371.934 304.112 371.763 304.496H370.723C370.798 304.197 370.873 303.877 370.947 303.536C371.033 303.195 371.107 302.853 371.171 302.512C371.246 302.16 371.31 301.819 371.363 301.488C371.427 301.157 371.481 300.853 371.523 300.576H373.027L373.139 300.752ZM379.788 309.632C379.788 310.187 379.649 310.651 379.372 311.024C379.094 311.397 378.7 311.68 378.188 311.872C377.676 312.064 377.068 312.16 376.364 312.16C375.766 312.16 375.249 312.112 374.812 312.016C374.385 311.92 374.006 311.787 373.676 311.616V310.336C374.017 310.507 374.428 310.667 374.908 310.816C375.398 310.955 375.894 311.024 376.396 311.024C377.11 311.024 377.628 310.912 377.948 310.688C378.268 310.453 378.428 310.144 378.428 309.76C378.428 309.547 378.369 309.355 378.252 309.184C378.134 309.013 377.921 308.843 377.612 308.672C377.313 308.501 376.881 308.309 376.316 308.096C375.761 307.883 375.286 307.669 374.892 307.456C374.497 307.243 374.193 306.987 373.98 306.688C373.766 306.389 373.66 306.005 373.66 305.536C373.66 304.811 373.953 304.251 374.54 303.856C375.137 303.461 375.916 303.264 376.876 303.264C377.398 303.264 377.884 303.317 378.332 303.424C378.79 303.52 379.217 303.659 379.612 303.84L379.132 304.96C378.897 304.853 378.646 304.763 378.38 304.688C378.124 304.603 377.862 304.539 377.596 304.496C377.329 304.443 377.057 304.416 376.78 304.416C376.204 304.416 375.761 304.512 375.452 304.704C375.153 304.885 375.004 305.136 375.004 305.456C375.004 305.691 375.073 305.893 375.212 306.064C375.35 306.224 375.58 306.384 375.9 306.544C376.23 306.693 376.668 306.875 377.212 307.088C377.756 307.291 378.22 307.499 378.604 307.712C378.988 307.925 379.281 308.187 379.484 308.496C379.686 308.795 379.788 309.173 379.788 309.632ZM391.552 312H385.28V311.072L389.888 304.512H385.552V303.424H391.44V304.48L386.896 310.912H391.552V312ZM394.94 303.424V312H393.532V303.424H394.94ZM394.252 300.208C394.465 300.208 394.652 300.283 394.812 300.432C394.983 300.571 395.068 300.795 395.068 301.104C395.068 301.403 394.983 301.627 394.812 301.776C394.652 301.925 394.465 302 394.252 302C394.017 302 393.82 301.925 393.66 301.776C393.5 301.627 393.42 301.403 393.42 301.104C393.42 300.795 393.5 300.571 393.66 300.432C393.82 300.283 394.017 300.208 394.252 300.208ZM400.521 311.008C400.734 311.008 400.953 310.992 401.177 310.96C401.401 310.917 401.582 310.875 401.721 310.832V311.904C401.572 311.979 401.358 312.037 401.081 312.08C400.804 312.133 400.537 312.16 400.281 312.16C399.833 312.16 399.417 312.085 399.033 311.936C398.66 311.776 398.356 311.504 398.121 311.12C397.886 310.736 397.769 310.197 397.769 309.504V304.512H396.553V303.84L397.785 303.28L398.345 301.456H399.177V303.424H401.657V304.512H399.177V309.472C399.177 309.995 399.3 310.384 399.545 310.64C399.801 310.885 400.126 311.008 400.521 311.008ZM406.302 311.008C406.515 311.008 406.734 310.992 406.958 310.96C407.182 310.917 407.363 310.875 407.502 310.832V311.904C407.353 311.979 407.139 312.037 406.862 312.08C406.585 312.133 406.318 312.16 406.062 312.16C405.614 312.16 405.198 312.085 404.814 311.936C404.441 311.776 404.137 311.504 403.902 311.12C403.667 310.736 403.55 310.197 403.55 309.504V304.512H402.334V303.84L403.566 303.28L404.126 301.456H404.958V303.424H407.438V304.512H404.958V309.472C404.958 309.995 405.081 310.384 405.326 310.64C405.582 310.885 405.907 311.008 406.302 311.008ZM412.531 303.264C413.267 303.264 413.897 303.424 414.419 303.744C414.953 304.064 415.358 304.517 415.635 305.104C415.923 305.68 416.067 306.357 416.067 307.136V307.984H410.195C410.217 308.955 410.462 309.696 410.931 310.208C411.411 310.709 412.078 310.96 412.931 310.96C413.475 310.96 413.955 310.912 414.371 310.816C414.798 310.709 415.235 310.56 415.683 310.368V311.6C415.246 311.792 414.814 311.931 414.387 312.016C413.961 312.112 413.454 312.16 412.867 312.16C412.057 312.16 411.337 311.995 410.707 311.664C410.089 311.333 409.603 310.843 409.251 310.192C408.91 309.531 408.739 308.725 408.739 307.776C408.739 306.837 408.894 306.032 409.203 305.36C409.523 304.688 409.966 304.171 410.531 303.808C411.107 303.445 411.774 303.264 412.531 303.264ZM412.515 304.416C411.843 304.416 411.31 304.635 410.915 305.072C410.531 305.499 410.302 306.096 410.227 306.864H414.595C414.595 306.373 414.521 305.947 414.371 305.584C414.222 305.221 413.993 304.939 413.683 304.736C413.385 304.523 412.995 304.416 412.515 304.416ZM422.379 303.264C423.403 303.264 424.176 303.515 424.699 304.016C425.221 304.507 425.483 305.307 425.483 306.416V312H424.091V306.512C424.091 305.819 423.936 305.301 423.627 304.96C423.317 304.619 422.832 304.448 422.171 304.448C421.221 304.448 420.565 304.715 420.203 305.248C419.84 305.781 419.659 306.549 419.659 307.552V312H418.251V303.424H419.387L419.595 304.592H419.675C419.867 304.293 420.101 304.048 420.379 303.856C420.667 303.653 420.981 303.504 421.323 303.408C421.664 303.312 422.016 303.264 422.379 303.264ZM427.933 311.136C427.933 310.741 428.029 310.464 428.221 310.304C428.413 310.144 428.643 310.064 428.909 310.064C429.187 310.064 429.421 310.144 429.613 310.304C429.816 310.464 429.917 310.741 429.917 311.136C429.917 311.52 429.816 311.797 429.613 311.968C429.421 312.139 429.187 312.224 428.909 312.224C428.643 312.224 428.413 312.139 428.221 311.968C428.029 311.797 427.933 311.52 427.933 311.136Z" fill="#A01D23"/>
<path d="M207 270H245" stroke="#42144F" stroke-width="2" stroke-linecap="square" stroke-linejoin="bevel"/>
<rect x="457" y="134" width="32" height="32" rx="16" fill="#42144F"/>
<path d="M472.598 144.134C473.426 144.134 474.134 144.272 474.722 144.548C475.322 144.812 475.772 145.178 476.072 145.646C476.384 146.114 476.54 146.636 476.54 147.212C476.54 147.944 476.33 148.556 475.91 149.048C475.49 149.528 474.908 149.87 474.164 150.074C474.98 150.158 475.646 150.452 476.162 150.956C476.678 151.46 476.936 152.162 476.936 153.062C476.936 153.758 476.756 154.388 476.396 154.952C476.048 155.516 475.532 155.966 474.848 156.302C474.164 156.626 473.354 156.788 472.418 156.788C470.702 156.788 469.358 156.188 468.386 154.988L469.772 153.656C470.18 154.064 470.582 154.358 470.978 154.538C471.374 154.718 471.806 154.808 472.274 154.808C472.898 154.808 473.39 154.64 473.75 154.304C474.122 153.968 474.308 153.5 474.308 152.9C474.308 152.252 474.134 151.784 473.786 151.496C473.438 151.208 472.916 151.064 472.22 151.064H471.23L471.536 149.264H472.202C472.766 149.264 473.216 149.114 473.552 148.814C473.888 148.514 474.056 148.094 474.056 147.554C474.056 147.086 473.9 146.72 473.588 146.456C473.288 146.192 472.874 146.06 472.346 146.06C471.89 146.06 471.47 146.144 471.086 146.312C470.702 146.48 470.324 146.744 469.952 147.104L468.674 145.718C469.79 144.662 471.098 144.134 472.598 144.134Z" fill="white"/>
<rect x="249" y="134" width="32" height="32" rx="16" fill="#42144F"/>
<path d="M264.643 144.134C265.483 144.134 266.209 144.29 266.821 144.602C267.433 144.902 267.895 145.316 268.207 145.844C268.531 146.36 268.693 146.936 268.693 147.572C268.693 148.232 268.549 148.868 268.261 149.48C267.985 150.092 267.505 150.782 266.821 151.55C266.149 152.318 265.165 153.308 263.869 154.52H268.963L268.675 156.5H260.953V154.646C262.465 153.134 263.557 152.006 264.229 151.262C264.901 150.518 265.375 149.888 265.651 149.372C265.927 148.856 266.065 148.328 266.065 147.788C266.065 147.272 265.915 146.864 265.615 146.564C265.315 146.264 264.913 146.114 264.409 146.114C263.965 146.114 263.569 146.216 263.221 146.42C262.873 146.612 262.507 146.936 262.123 147.392L260.593 146.168C261.625 144.812 262.975 144.134 264.643 144.134Z" fill="white"/>
<path d="M265 166V220.306" stroke="#42144F" stroke-width="2" stroke-linecap="square" stroke-linejoin="bevel"/>
</svg>
