<svg width="960" height="540" viewBox="0 0 960 540" fill="none" xmlns="http://www.w3.org/2000/svg" role="img" aria-label="Een tekst die iets groter is dan gebruikelijk, in bold. De hele tekst is aangeduid met het cijfer 1. De tekst: “Dit is een voorbeeld van een heading.”.">
<rect x="0.5" y="0.5" width="959" height="539" fill="white"/>
<rect x="0.5" y="0.5" width="959" height="539" stroke="#CCCCCC"/>
<path d="M307.762 230V310" stroke="#DE00A4" stroke-width="2" stroke-linecap="square"/>
<path d="M268 270H307" stroke="#DE00A4" stroke-width="2" stroke-linecap="square" stroke-linejoin="bevel"/>
<rect x="236" y="254" width="32" height="32" rx="16" fill="#DE00A4"/>
<path d="M254.502 264.368V276.5H252V266.888L249.336 268.526L248.22 266.798L252.252 264.368H254.502Z" fill="white"/>
<path d="M324.896 248.952C324.896 250.339 324.896 251.715 324.896 253.08C324.917 254.445 324.939 255.8 324.96 257.144H326.016C327.851 257.144 329.291 256.397 330.336 254.904C331.403 253.389 331.936 251.245 331.936 248.472C331.936 245.656 331.403 243.512 330.336 242.04C329.291 240.568 327.861 239.832 326.048 239.832H324.96C324.939 241.155 324.917 242.488 324.896 243.832C324.896 245.176 324.896 246.531 324.896 247.896V248.952ZM317.056 239.704V237.976H326.56C328.843 237.976 330.795 238.403 332.416 239.256C334.037 240.088 335.285 241.283 336.16 242.84C337.035 244.397 337.472 246.264 337.472 248.44C337.472 250.659 337.003 252.557 336.064 254.136C335.125 255.715 333.792 256.92 332.064 257.752C330.357 258.584 328.331 259 325.984 259H317.056V257.272L319.456 257.016C319.499 255.715 319.52 254.392 319.52 253.048C319.52 251.704 319.52 250.349 319.52 248.984V247.896C319.52 246.573 319.52 245.251 319.52 243.928C319.52 242.584 319.499 241.261 319.456 239.96L317.056 239.704ZM339.523 259V257.496L341.251 257.112C341.272 256.344 341.283 255.512 341.283 254.616C341.283 253.72 341.283 252.941 341.283 252.28V250.744C341.283 249.869 341.272 249.144 341.251 248.568C341.251 247.971 341.229 247.352 341.187 246.712L339.203 246.424V245.176L345.923 243.032L346.467 243.384L346.371 248.024V252.28C346.371 252.941 346.371 253.731 346.371 254.648C346.371 255.544 346.381 256.387 346.403 257.176L348.003 257.496V259H339.523ZM343.779 240.664C343.032 240.664 342.392 240.429 341.859 239.96C341.325 239.469 341.059 238.861 341.059 238.136C341.059 237.389 341.325 236.781 341.859 236.312C342.392 235.821 343.032 235.576 343.779 235.576C344.525 235.576 345.165 235.821 345.699 236.312C346.232 236.781 346.499 237.389 346.499 238.136C346.499 238.861 346.232 239.469 345.699 239.96C345.165 240.429 344.525 240.664 343.779 240.664ZM355.664 259.48C354.234 259.48 353.114 259.139 352.304 258.456C351.493 257.752 351.088 256.611 351.088 255.032C351.088 254.477 351.088 253.965 351.088 253.496C351.109 253.005 351.12 252.451 351.12 251.832V245.72H349.04V243.832L351.408 243.512L353.008 239.032H356.272L356.208 243.544H359.568V245.72H356.208V254.68C356.208 255.427 356.357 255.981 356.656 256.344C356.976 256.685 357.37 256.856 357.84 256.856C358.394 256.856 358.97 256.621 359.568 256.152L360.368 256.92C359.941 257.731 359.344 258.36 358.576 258.808C357.829 259.256 356.858 259.48 355.664 259.48ZM367.96 259V257.496L369.688 257.112C369.709 256.344 369.72 255.512 369.72 254.616C369.72 253.72 369.72 252.941 369.72 252.28V250.744C369.72 249.869 369.709 249.144 369.688 248.568C369.688 247.971 369.667 247.352 369.624 246.712L367.64 246.424V245.176L374.36 243.032L374.904 243.384L374.808 248.024V252.28C374.808 252.941 374.808 253.731 374.808 254.648C374.808 255.544 374.819 256.387 374.84 257.176L376.44 257.496V259H367.96ZM372.216 240.664C371.469 240.664 370.829 240.429 370.296 239.96C369.763 239.469 369.496 238.861 369.496 238.136C369.496 237.389 369.763 236.781 370.296 236.312C370.829 235.821 371.469 235.576 372.216 235.576C372.963 235.576 373.603 235.821 374.136 236.312C374.669 236.781 374.936 237.389 374.936 238.136C374.936 238.861 374.669 239.469 374.136 239.96C373.603 240.429 372.963 240.664 372.216 240.664ZM383.653 259.48C381.626 259.48 379.77 258.989 378.085 258.008L378.181 254.104H380.741L381.285 257.272C381.669 257.421 382.053 257.539 382.437 257.624C382.821 257.688 383.237 257.72 383.685 257.72C384.602 257.72 385.306 257.571 385.797 257.272C386.288 256.952 386.533 256.472 386.533 255.832C386.533 255.341 386.352 254.915 385.989 254.552C385.626 254.189 384.912 253.859 383.845 253.56L382.117 253.048C380.88 252.685 379.92 252.099 379.237 251.288C378.576 250.477 378.245 249.475 378.245 248.28C378.245 246.808 378.821 245.571 379.973 244.568C381.125 243.544 382.778 243.032 384.933 243.032C385.872 243.032 386.736 243.149 387.525 243.384C388.336 243.597 389.157 243.917 389.989 244.344L389.765 247.832H387.205L386.565 245.08C386.117 244.909 385.53 244.824 384.805 244.824C384.08 244.824 383.493 244.973 383.045 245.272C382.618 245.571 382.405 246.019 382.405 246.616C382.405 247.043 382.576 247.427 382.917 247.768C383.258 248.088 383.984 248.419 385.093 248.76L386.661 249.208C388.176 249.656 389.264 250.296 389.925 251.128C390.586 251.96 390.917 252.973 390.917 254.168C390.917 255.853 390.266 257.165 388.965 258.104C387.685 259.021 385.914 259.48 383.653 259.48ZM407.363 244.696C406.766 244.696 406.211 245.069 405.699 245.816C405.209 246.541 404.931 247.885 404.867 249.848H407.587C408.355 249.848 408.867 249.699 409.123 249.4C409.401 249.08 409.539 248.557 409.539 247.832C409.539 246.765 409.326 245.976 408.899 245.464C408.473 244.952 407.961 244.696 407.363 244.696ZM407.427 259.48C405.87 259.48 404.494 259.16 403.299 258.52C402.105 257.859 401.166 256.92 400.483 255.704C399.801 254.467 399.459 252.995 399.459 251.288C399.459 249.496 399.854 247.992 400.643 246.776C401.454 245.539 402.489 244.611 403.747 243.992C405.006 243.352 406.318 243.032 407.683 243.032C409.091 243.032 410.286 243.331 411.267 243.928C412.27 244.525 413.027 245.336 413.539 246.36C414.051 247.363 414.307 248.515 414.307 249.816C414.307 250.435 414.243 251 414.115 251.512H404.867C404.974 253.197 405.433 254.445 406.243 255.256C407.075 256.045 408.046 256.44 409.155 256.44C410.03 256.44 410.777 256.28 411.395 255.96C412.014 255.619 412.558 255.203 413.027 254.712L414.147 255.736C413.486 256.995 412.59 257.933 411.459 258.552C410.329 259.171 408.985 259.48 407.427 259.48ZM424.051 244.696C423.453 244.696 422.899 245.069 422.387 245.816C421.896 246.541 421.619 247.885 421.555 249.848H424.275C425.043 249.848 425.555 249.699 425.811 249.4C426.088 249.08 426.227 248.557 426.227 247.832C426.227 246.765 426.013 245.976 425.587 245.464C425.16 244.952 424.648 244.696 424.051 244.696ZM424.115 259.48C422.557 259.48 421.181 259.16 419.987 258.52C418.792 257.859 417.853 256.92 417.171 255.704C416.488 254.467 416.147 252.995 416.147 251.288C416.147 249.496 416.541 247.992 417.331 246.776C418.141 245.539 419.176 244.611 420.435 243.992C421.693 243.352 423.005 243.032 424.371 243.032C425.779 243.032 426.973 243.331 427.955 243.928C428.957 244.525 429.715 245.336 430.227 246.36C430.739 247.363 430.995 248.515 430.995 249.816C430.995 250.435 430.931 251 430.803 251.512H421.555C421.661 253.197 422.12 254.445 422.931 255.256C423.763 256.045 424.733 256.44 425.843 256.44C426.717 256.44 427.464 256.28 428.083 255.96C428.701 255.619 429.245 255.203 429.715 254.712L430.835 255.736C430.173 256.995 429.277 257.933 428.147 258.552C427.016 259.171 425.672 259.48 424.115 259.48ZM432.802 259V257.496L434.53 257.112C434.552 256.344 434.562 255.512 434.562 254.616C434.562 253.72 434.562 252.941 434.562 252.28V250.424C434.562 249.549 434.552 248.877 434.53 248.408C434.53 247.917 434.509 247.352 434.466 246.712L432.514 246.424V245.176L438.818 243.032L439.394 243.384L439.586 245.688C440.418 244.707 441.24 244.024 442.05 243.64C442.882 243.235 443.768 243.032 444.706 243.032C446.093 243.032 447.202 243.491 448.034 244.408C448.888 245.325 449.314 246.701 449.314 248.536V252.28C449.314 252.984 449.314 253.784 449.314 254.68C449.314 255.555 449.325 256.387 449.346 257.176L450.946 257.496V259H442.498V257.496L444.162 257.144C444.184 256.355 444.194 255.523 444.194 254.648C444.194 253.752 444.194 252.963 444.194 252.28V248.92C444.194 247.896 444.056 247.181 443.778 246.776C443.501 246.349 443.053 246.136 442.434 246.136C441.602 246.136 440.685 246.52 439.682 247.288V252.28C439.682 252.941 439.682 253.731 439.682 254.648C439.682 255.544 439.693 256.387 439.714 257.176L441.218 257.496V259H432.802ZM469.093 244.952V243.544H475.141V244.952L473.285 245.304L468.005 259.064H465.573L459.813 245.272L458.245 244.952V243.544H467.333V244.952L465.317 245.368L468.325 253.56L471.109 245.336L469.093 244.952ZM483.525 259.48C481.861 259.48 480.421 259.139 479.205 258.456C477.989 257.752 477.05 256.781 476.389 255.544C475.727 254.285 475.397 252.835 475.397 251.192C475.397 249.549 475.749 248.12 476.453 246.904C477.178 245.688 478.159 244.739 479.397 244.056C480.634 243.373 482.01 243.032 483.525 243.032C485.039 243.032 486.405 243.363 487.621 244.024C488.858 244.685 489.839 245.635 490.565 246.872C491.29 248.088 491.653 249.528 491.653 251.192C491.653 252.856 491.322 254.307 490.661 255.544C489.999 256.781 489.061 257.752 487.845 258.456C486.629 259.139 485.189 259.48 483.525 259.48ZM483.525 257.816C484.421 257.816 485.093 257.293 485.541 256.248C485.989 255.203 486.213 253.549 486.213 251.288C486.213 249.005 485.989 247.341 485.541 246.296C485.093 245.251 484.421 244.728 483.525 244.728C482.607 244.728 481.925 245.251 481.477 246.296C481.029 247.341 480.805 249.005 480.805 251.288C480.805 253.549 481.029 255.203 481.477 256.248C481.925 257.293 482.607 257.816 483.525 257.816ZM501.837 259.48C500.173 259.48 498.733 259.139 497.517 258.456C496.301 257.752 495.363 256.781 494.701 255.544C494.04 254.285 493.709 252.835 493.709 251.192C493.709 249.549 494.061 248.12 494.765 246.904C495.491 245.688 496.472 244.739 497.709 244.056C498.947 243.373 500.323 243.032 501.837 243.032C503.352 243.032 504.717 243.363 505.933 244.024C507.171 244.685 508.152 245.635 508.877 246.872C509.603 248.088 509.965 249.528 509.965 251.192C509.965 252.856 509.635 254.307 508.973 255.544C508.312 256.781 507.373 257.752 506.157 258.456C504.941 259.139 503.501 259.48 501.837 259.48ZM501.837 257.816C502.733 257.816 503.405 257.293 503.853 256.248C504.301 255.203 504.525 253.549 504.525 251.288C504.525 249.005 504.301 247.341 503.853 246.296C503.405 245.251 502.733 244.728 501.837 244.728C500.92 244.728 500.237 245.251 499.789 246.296C499.341 247.341 499.117 249.005 499.117 251.288C499.117 253.549 499.341 255.203 499.789 256.248C500.237 257.293 500.92 257.816 501.837 257.816ZM511.739 259V257.496L513.499 257.144C513.52 256.355 513.531 255.512 513.531 254.616C513.531 253.72 513.531 252.941 513.531 252.28V250.392C513.531 249.795 513.52 249.304 513.499 248.92C513.499 248.536 513.488 248.184 513.467 247.864C513.467 247.523 513.456 247.139 513.435 246.712L511.483 246.424V245.176L517.787 243.032L518.363 243.384L518.651 247.16C519.099 245.795 519.728 244.771 520.539 244.088C521.35 243.384 522.15 243.032 522.939 243.032C523.643 243.032 524.251 243.235 524.763 243.64C525.275 244.024 525.595 244.611 525.723 245.4C525.702 246.232 525.478 246.883 525.051 247.352C524.624 247.8 524.091 248.024 523.451 248.024C522.555 248.024 521.734 247.523 520.987 246.52L520.795 246.264C520.326 246.712 519.888 247.277 519.483 247.96C519.099 248.643 518.822 249.357 518.651 250.104V252.28C518.651 252.941 518.651 253.699 518.651 254.552C518.651 255.405 518.662 256.205 518.683 256.952L521.211 257.496V259H511.739ZM525.897 259.032V257.528L527.593 257.176C527.614 256.408 527.625 255.576 527.625 254.68C527.625 253.763 527.625 252.973 527.625 252.312V238.808L525.641 238.552V237.208L532.265 235.768L532.777 236.088L532.649 240.568V245.08C533.993 243.715 535.539 243.032 537.289 243.032C538.462 243.032 539.518 243.341 540.457 243.96C541.395 244.557 542.142 245.464 542.697 246.68C543.273 247.875 543.561 249.357 543.561 251.128C543.561 252.856 543.241 254.349 542.601 255.608C541.961 256.845 541.118 257.805 540.073 258.488C539.049 259.149 537.929 259.48 536.713 259.48C534.963 259.48 533.555 258.851 532.489 257.592L531.945 259.448L525.897 259.032ZM534.953 245.816C534.547 245.816 534.163 245.901 533.801 246.072C533.438 246.243 533.086 246.467 532.745 246.744V255.896C533.406 256.493 534.131 256.792 534.921 256.792C535.859 256.792 536.627 256.333 537.225 255.416C537.843 254.499 538.153 253.101 538.153 251.224C538.153 249.325 537.854 247.949 537.257 247.096C536.681 246.243 535.913 245.816 534.953 245.816ZM553.551 244.696C552.953 244.696 552.399 245.069 551.887 245.816C551.396 246.541 551.119 247.885 551.055 249.848H553.775C554.543 249.848 555.055 249.699 555.311 249.4C555.588 249.08 555.727 248.557 555.727 247.832C555.727 246.765 555.513 245.976 555.087 245.464C554.66 244.952 554.148 244.696 553.551 244.696ZM553.615 259.48C552.057 259.48 550.681 259.16 549.487 258.52C548.292 257.859 547.353 256.92 546.671 255.704C545.988 254.467 545.647 252.995 545.647 251.288C545.647 249.496 546.041 247.992 546.831 246.776C547.641 245.539 548.676 244.611 549.935 243.992C551.193 243.352 552.505 243.032 553.871 243.032C555.279 243.032 556.473 243.331 557.455 243.928C558.457 244.525 559.215 245.336 559.727 246.36C560.239 247.363 560.495 248.515 560.495 249.816C560.495 250.435 560.431 251 560.303 251.512H551.055C551.161 253.197 551.62 254.445 552.431 255.256C553.263 256.045 554.233 256.44 555.343 256.44C556.217 256.44 556.964 256.28 557.583 255.96C558.201 255.619 558.745 255.203 559.215 254.712L560.335 255.736C559.673 256.995 558.777 257.933 557.647 258.552C556.516 259.171 555.172 259.48 553.615 259.48ZM570.238 244.696C569.641 244.696 569.086 245.069 568.574 245.816C568.084 246.541 567.806 247.885 567.742 249.848H570.462C571.23 249.848 571.742 249.699 571.998 249.4C572.276 249.08 572.414 248.557 572.414 247.832C572.414 246.765 572.201 245.976 571.774 245.464C571.348 244.952 570.836 244.696 570.238 244.696ZM570.302 259.48C568.745 259.48 567.369 259.16 566.174 258.52C564.98 257.859 564.041 256.92 563.358 255.704C562.676 254.467 562.334 252.995 562.334 251.288C562.334 249.496 562.729 247.992 563.518 246.776C564.329 245.539 565.364 244.611 566.622 243.992C567.881 243.352 569.193 243.032 570.558 243.032C571.966 243.032 573.161 243.331 574.142 243.928C575.145 244.525 575.902 245.336 576.414 246.36C576.926 247.363 577.182 248.515 577.182 249.816C577.182 250.435 577.118 251 576.99 251.512H567.742C567.849 253.197 568.308 254.445 569.118 255.256C569.95 256.045 570.921 256.44 572.03 256.44C572.905 256.44 573.652 256.28 574.27 255.96C574.889 255.619 575.433 255.203 575.902 254.712L577.022 255.736C576.361 256.995 575.465 257.933 574.334 258.552C573.204 259.171 571.86 259.48 570.302 259.48ZM578.395 259V257.496L580.155 257.112C580.176 256.301 580.187 255.491 580.187 254.68C580.208 253.869 580.219 253.069 580.219 252.28V238.872L578.235 238.552V237.208L584.955 235.768L585.467 236.088L585.339 240.568V252.28C585.339 253.091 585.339 253.901 585.339 254.712C585.36 255.523 585.381 256.333 585.403 257.144L587.163 257.496V259H578.395ZM594.242 251.352C594.242 253.101 594.552 254.435 595.17 255.352C595.789 256.248 596.589 256.696 597.57 256.696C598.296 256.696 598.957 256.451 599.554 255.96V246.424C598.978 245.976 598.349 245.752 597.666 245.752C596.685 245.752 595.864 246.211 595.202 247.128C594.562 248.045 594.242 249.453 594.242 251.352ZM599.97 259.352L599.714 257.528C598.477 258.829 596.973 259.48 595.202 259.48C594.008 259.48 592.92 259.171 591.938 258.552C590.978 257.933 590.221 257.027 589.666 255.832C589.112 254.616 588.834 253.144 588.834 251.416C588.834 249.667 589.165 248.173 589.826 246.936C590.509 245.677 591.384 244.717 592.45 244.056C593.538 243.373 594.68 243.032 595.874 243.032C596.706 243.032 597.432 243.181 598.05 243.48C598.669 243.757 599.234 244.173 599.746 244.728V238.872L597.506 238.552V237.208L604.258 235.768L604.77 236.088L604.642 240.568V257.176L606.21 257.496V259L599.97 259.352ZM326.624 284.952V283.544H332.672V284.952L330.816 285.304L325.536 299.064H323.104L317.344 285.272L315.776 284.952V283.544H324.864V284.952L322.848 285.368L325.856 293.56L328.64 285.336L326.624 284.952ZM345.311 299.448C343.455 299.448 342.282 298.68 341.791 297.144C341.109 297.869 340.447 298.445 339.807 298.872C339.189 299.277 338.325 299.48 337.215 299.48C335.978 299.48 334.965 299.128 334.175 298.424C333.407 297.72 333.023 296.707 333.023 295.384C333.023 294.616 333.194 293.923 333.535 293.304C333.877 292.685 334.495 292.109 335.391 291.576C336.287 291.043 337.557 290.541 339.199 290.072C339.519 289.965 339.893 289.859 340.319 289.752C340.746 289.645 341.183 289.539 341.631 289.432V288.376C341.631 286.947 341.45 285.976 341.087 285.464C340.746 284.952 340.063 284.696 339.039 284.696C338.89 284.696 338.751 284.696 338.623 284.696C338.495 284.696 338.346 284.707 338.175 284.728L338.015 286.136C337.994 287.181 337.749 287.939 337.279 288.408C336.831 288.877 336.298 289.112 335.679 289.112C334.506 289.112 333.791 288.579 333.535 287.512C333.621 286.189 334.293 285.112 335.551 284.28C336.81 283.448 338.591 283.032 340.895 283.032C342.943 283.032 344.405 283.501 345.279 284.44C346.175 285.379 346.623 286.925 346.623 289.08V296.248C346.623 296.867 346.858 297.176 347.327 297.176C347.498 297.176 347.658 297.133 347.807 297.048C347.957 296.941 348.117 296.749 348.287 296.472L349.151 297.048C348.767 297.901 348.266 298.52 347.647 298.904C347.05 299.267 346.271 299.448 345.311 299.448ZM337.759 294.552C337.759 295.341 337.941 295.928 338.303 296.312C338.687 296.696 339.146 296.888 339.679 296.888C339.914 296.888 340.159 296.835 340.415 296.728C340.671 296.621 341.077 296.376 341.631 295.992V290.808C341.354 290.893 341.077 290.989 340.799 291.096C340.543 291.181 340.319 291.267 340.127 291.352C339.402 291.651 338.826 292.077 338.399 292.632C337.973 293.165 337.759 293.805 337.759 294.552ZM349.927 299V297.496L351.655 297.112C351.677 296.344 351.687 295.512 351.687 294.616C351.687 293.72 351.687 292.941 351.687 292.28V290.424C351.687 289.549 351.677 288.877 351.655 288.408C351.655 287.917 351.634 287.352 351.591 286.712L349.639 286.424V285.176L355.943 283.032L356.519 283.384L356.711 285.688C357.543 284.707 358.365 284.024 359.175 283.64C360.007 283.235 360.893 283.032 361.831 283.032C363.218 283.032 364.327 283.491 365.159 284.408C366.013 285.325 366.439 286.701 366.439 288.536V292.28C366.439 292.984 366.439 293.784 366.439 294.68C366.439 295.555 366.45 296.387 366.471 297.176L368.071 297.496V299H359.623V297.496L361.287 297.144C361.309 296.355 361.319 295.523 361.319 294.648C361.319 293.752 361.319 292.963 361.319 292.28V288.92C361.319 287.896 361.181 287.181 360.903 286.776C360.626 286.349 360.178 286.136 359.559 286.136C358.727 286.136 357.81 286.52 356.807 287.288V292.28C356.807 292.941 356.807 293.731 356.807 294.648C356.807 295.544 356.818 296.387 356.839 297.176L358.343 297.496V299H349.927ZM384.426 284.696C383.828 284.696 383.274 285.069 382.762 285.816C382.271 286.541 381.994 287.885 381.93 289.848H384.65C385.418 289.848 385.93 289.699 386.186 289.4C386.463 289.08 386.602 288.557 386.602 287.832C386.602 286.765 386.388 285.976 385.962 285.464C385.535 284.952 385.023 284.696 384.426 284.696ZM384.49 299.48C382.932 299.48 381.556 299.16 380.362 298.52C379.167 297.859 378.228 296.92 377.546 295.704C376.863 294.467 376.522 292.995 376.522 291.288C376.522 289.496 376.916 287.992 377.706 286.776C378.516 285.539 379.551 284.611 380.81 283.992C382.068 283.352 383.38 283.032 384.746 283.032C386.154 283.032 387.348 283.331 388.33 283.928C389.332 284.525 390.09 285.336 390.602 286.36C391.114 287.363 391.37 288.515 391.37 289.816C391.37 290.435 391.306 291 391.178 291.512H381.93C382.036 293.197 382.495 294.445 383.306 295.256C384.138 296.045 385.108 296.44 386.218 296.44C387.092 296.44 387.839 296.28 388.458 295.96C389.076 295.619 389.62 295.203 390.09 294.712L391.21 295.736C390.548 296.995 389.652 297.933 388.522 298.552C387.391 299.171 386.047 299.48 384.49 299.48ZM401.113 284.696C400.516 284.696 399.961 285.069 399.449 285.816C398.959 286.541 398.681 287.885 398.617 289.848H401.337C402.105 289.848 402.617 289.699 402.873 289.4C403.151 289.08 403.289 288.557 403.289 287.832C403.289 286.765 403.076 285.976 402.649 285.464C402.223 284.952 401.711 284.696 401.113 284.696ZM401.177 299.48C399.62 299.48 398.244 299.16 397.049 298.52C395.855 297.859 394.916 296.92 394.233 295.704C393.551 294.467 393.209 292.995 393.209 291.288C393.209 289.496 393.604 287.992 394.393 286.776C395.204 285.539 396.239 284.611 397.497 283.992C398.756 283.352 400.068 283.032 401.433 283.032C402.841 283.032 404.036 283.331 405.017 283.928C406.02 284.525 406.777 285.336 407.289 286.36C407.801 287.363 408.057 288.515 408.057 289.816C408.057 290.435 407.993 291 407.865 291.512H398.617C398.724 293.197 399.183 294.445 399.993 295.256C400.825 296.045 401.796 296.44 402.905 296.44C403.78 296.44 404.527 296.28 405.145 295.96C405.764 295.619 406.308 295.203 406.777 294.712L407.897 295.736C407.236 296.995 406.34 297.933 405.209 298.552C404.079 299.171 402.735 299.48 401.177 299.48ZM409.865 299V297.496L411.593 297.112C411.614 296.344 411.625 295.512 411.625 294.616C411.625 293.72 411.625 292.941 411.625 292.28V290.424C411.625 289.549 411.614 288.877 411.593 288.408C411.593 287.917 411.571 287.352 411.529 286.712L409.577 286.424V285.176L415.881 283.032L416.457 283.384L416.649 285.688C417.481 284.707 418.302 284.024 419.113 283.64C419.945 283.235 420.83 283.032 421.769 283.032C423.155 283.032 424.265 283.491 425.097 284.408C425.95 285.325 426.377 286.701 426.377 288.536V292.28C426.377 292.984 426.377 293.784 426.377 294.68C426.377 295.555 426.387 296.387 426.409 297.176L428.009 297.496V299H419.561V297.496L421.225 297.144C421.246 296.355 421.257 295.523 421.257 294.648C421.257 293.752 421.257 292.963 421.257 292.28V288.92C421.257 287.896 421.118 287.181 420.841 286.776C420.563 286.349 420.115 286.136 419.497 286.136C418.665 286.136 417.747 286.52 416.745 287.288V292.28C416.745 292.941 416.745 293.731 416.745 294.648C416.745 295.544 416.755 296.387 416.777 297.176L418.281 297.496V299H409.865ZM436.427 299V297.496L438.155 297.112C438.177 296.344 438.187 295.512 438.187 294.616C438.187 293.72 438.187 292.941 438.187 292.28V278.872L436.203 278.552V277.208L442.827 275.768L443.339 276.088L443.211 280.568V285.72C444.065 284.717 444.886 284.024 445.675 283.64C446.486 283.235 447.361 283.032 448.299 283.032C449.707 283.032 450.838 283.491 451.691 284.408C452.545 285.325 452.971 286.701 452.971 288.536V292.28C452.971 292.984 452.971 293.784 452.971 294.68C452.971 295.555 452.982 296.387 453.003 297.176L454.603 297.496V299H446.187V297.496L447.851 297.144C447.873 296.355 447.883 295.523 447.883 294.648C447.883 293.752 447.883 292.963 447.883 292.28V288.92C447.883 287.875 447.755 287.149 447.499 286.744C447.265 286.339 446.817 286.136 446.155 286.136C445.729 286.136 445.27 286.264 444.779 286.52C444.289 286.776 443.798 287.139 443.307 287.608V292.28C443.307 292.941 443.307 293.731 443.307 294.648C443.307 295.544 443.318 296.387 443.339 297.176L444.843 297.496V299H436.427ZM464.113 284.696C463.516 284.696 462.961 285.069 462.449 285.816C461.959 286.541 461.681 287.885 461.617 289.848H464.337C465.105 289.848 465.617 289.699 465.873 289.4C466.151 289.08 466.289 288.557 466.289 287.832C466.289 286.765 466.076 285.976 465.649 285.464C465.223 284.952 464.711 284.696 464.113 284.696ZM464.177 299.48C462.62 299.48 461.244 299.16 460.049 298.52C458.855 297.859 457.916 296.92 457.233 295.704C456.551 294.467 456.209 292.995 456.209 291.288C456.209 289.496 456.604 287.992 457.393 286.776C458.204 285.539 459.239 284.611 460.497 283.992C461.756 283.352 463.068 283.032 464.433 283.032C465.841 283.032 467.036 283.331 468.017 283.928C469.02 284.525 469.777 285.336 470.289 286.36C470.801 287.363 471.057 288.515 471.057 289.816C471.057 290.435 470.993 291 470.865 291.512H461.617C461.724 293.197 462.183 294.445 462.993 295.256C463.825 296.045 464.796 296.44 465.905 296.44C466.78 296.44 467.527 296.28 468.145 295.96C468.764 295.619 469.308 295.203 469.777 294.712L470.897 295.736C470.236 296.995 469.34 297.933 468.209 298.552C467.079 299.171 465.735 299.48 464.177 299.48ZM485.155 299.448C483.299 299.448 482.126 298.68 481.635 297.144C480.952 297.869 480.291 298.445 479.651 298.872C479.032 299.277 478.168 299.48 477.059 299.48C475.822 299.48 474.808 299.128 474.019 298.424C473.251 297.72 472.867 296.707 472.867 295.384C472.867 294.616 473.038 293.923 473.379 293.304C473.72 292.685 474.339 292.109 475.235 291.576C476.131 291.043 477.4 290.541 479.043 290.072C479.363 289.965 479.736 289.859 480.163 289.752C480.59 289.645 481.027 289.539 481.475 289.432V288.376C481.475 286.947 481.294 285.976 480.931 285.464C480.59 284.952 479.907 284.696 478.883 284.696C478.734 284.696 478.595 284.696 478.467 284.696C478.339 284.696 478.19 284.707 478.019 284.728L477.859 286.136C477.838 287.181 477.592 287.939 477.123 288.408C476.675 288.877 476.142 289.112 475.523 289.112C474.35 289.112 473.635 288.579 473.379 287.512C473.464 286.189 474.136 285.112 475.395 284.28C476.654 283.448 478.435 283.032 480.739 283.032C482.787 283.032 484.248 283.501 485.123 284.44C486.019 285.379 486.467 286.925 486.467 289.08V296.248C486.467 296.867 486.702 297.176 487.171 297.176C487.342 297.176 487.502 297.133 487.651 297.048C487.8 296.941 487.96 296.749 488.131 296.472L488.995 297.048C488.611 297.901 488.11 298.52 487.491 298.904C486.894 299.267 486.115 299.448 485.155 299.448ZM477.603 294.552C477.603 295.341 477.784 295.928 478.147 296.312C478.531 296.696 478.99 296.888 479.523 296.888C479.758 296.888 480.003 296.835 480.259 296.728C480.515 296.621 480.92 296.376 481.475 295.992V290.808C481.198 290.893 480.92 290.989 480.643 291.096C480.387 291.181 480.163 291.267 479.971 291.352C479.246 291.651 478.67 292.077 478.243 292.632C477.816 293.165 477.603 293.805 477.603 294.552ZM495.211 291.352C495.211 293.101 495.52 294.435 496.139 295.352C496.758 296.248 497.558 296.696 498.539 296.696C499.264 296.696 499.926 296.451 500.523 295.96V286.424C499.947 285.976 499.318 285.752 498.635 285.752C497.654 285.752 496.832 286.211 496.171 287.128C495.531 288.045 495.211 289.453 495.211 291.352ZM500.939 299.352L500.683 297.528C499.446 298.829 497.942 299.48 496.171 299.48C494.976 299.48 493.888 299.171 492.907 298.552C491.947 297.933 491.19 297.027 490.635 295.832C490.08 294.616 489.803 293.144 489.803 291.416C489.803 289.667 490.134 288.173 490.795 286.936C491.478 285.677 492.352 284.717 493.419 284.056C494.507 283.373 495.648 283.032 496.843 283.032C497.675 283.032 498.4 283.181 499.019 283.48C499.638 283.757 500.203 284.173 500.715 284.728V278.872L498.475 278.552V277.208L505.227 275.768L505.739 276.088L505.611 280.568V297.176L507.179 297.496V299L500.939 299.352ZM508.835 299V297.496L510.563 297.112C510.584 296.344 510.595 295.512 510.595 294.616C510.595 293.72 510.595 292.941 510.595 292.28V290.744C510.595 289.869 510.584 289.144 510.563 288.568C510.563 287.971 510.542 287.352 510.499 286.712L508.515 286.424V285.176L515.235 283.032L515.779 283.384L515.683 288.024V292.28C515.683 292.941 515.683 293.731 515.683 294.648C515.683 295.544 515.694 296.387 515.715 297.176L517.315 297.496V299H508.835ZM513.091 280.664C512.344 280.664 511.704 280.429 511.171 279.96C510.638 279.469 510.371 278.861 510.371 278.136C510.371 277.389 510.638 276.781 511.171 276.312C511.704 275.821 512.344 275.576 513.091 275.576C513.838 275.576 514.478 275.821 515.011 276.312C515.544 276.781 515.811 277.389 515.811 278.136C515.811 278.861 515.544 279.469 515.011 279.96C514.478 280.429 513.838 280.664 513.091 280.664ZM518.896 299V297.496L520.624 297.112C520.645 296.344 520.656 295.512 520.656 294.616C520.656 293.72 520.656 292.941 520.656 292.28V290.424C520.656 289.549 520.645 288.877 520.624 288.408C520.624 287.917 520.603 287.352 520.56 286.712L518.608 286.424V285.176L524.912 283.032L525.488 283.384L525.68 285.688C526.512 284.707 527.333 284.024 528.144 283.64C528.976 283.235 529.861 283.032 530.8 283.032C532.187 283.032 533.296 283.491 534.128 284.408C534.981 285.325 535.408 286.701 535.408 288.536V292.28C535.408 292.984 535.408 293.784 535.408 294.68C535.408 295.555 535.419 296.387 535.44 297.176L537.04 297.496V299H528.592V297.496L530.256 297.144C530.277 296.355 530.288 295.523 530.288 294.648C530.288 293.752 530.288 292.963 530.288 292.28V288.92C530.288 287.896 530.149 287.181 529.872 286.776C529.595 286.349 529.147 286.136 528.528 286.136C527.696 286.136 526.779 286.52 525.776 287.288V292.28C525.776 292.941 525.776 293.731 525.776 294.648C525.776 295.544 525.787 296.387 525.808 297.176L527.312 297.496V299H518.896ZM545.559 291.832C546.305 291.832 546.86 291.501 547.223 290.84C547.607 290.179 547.799 289.283 547.799 288.152C547.799 287.021 547.607 286.147 547.223 285.528C546.86 284.888 546.327 284.568 545.623 284.568C544.897 284.568 544.353 284.888 543.991 285.528C543.628 286.168 543.447 287.053 543.447 288.184C543.447 289.315 543.617 290.211 543.959 290.872C544.3 291.512 544.833 291.832 545.559 291.832ZM541.303 301.656C541.303 302.595 541.655 303.277 542.359 303.704C543.063 304.152 544.14 304.376 545.591 304.376C547.191 304.376 548.396 304.141 549.207 303.672C550.017 303.203 550.423 302.616 550.423 301.912C550.423 301.443 550.252 301.016 549.911 300.632C549.569 300.269 548.961 300.088 548.087 300.088H544.727C543.553 300.088 542.583 299.992 541.815 299.8C541.644 300.099 541.516 300.387 541.431 300.664C541.345 300.941 541.303 301.272 541.303 301.656ZM545.591 293.336C544.481 293.336 543.511 293.208 542.679 292.952C542.423 293.4 542.295 293.891 542.295 294.424C542.295 294.787 542.433 295.085 542.711 295.32C542.988 295.533 543.468 295.64 544.151 295.64H547.895C549.516 295.64 550.807 295.843 551.767 296.248C552.727 296.632 553.409 297.176 553.815 297.88C554.241 298.563 554.455 299.373 554.455 300.312C554.455 301.379 554.103 302.36 553.399 303.256C552.695 304.173 551.639 304.899 550.231 305.432C548.844 305.987 547.127 306.264 545.079 306.264C543.308 306.264 541.921 306.083 540.919 305.72C539.916 305.379 539.212 304.92 538.807 304.344C538.401 303.768 538.199 303.16 538.199 302.52C538.199 301.155 539.084 300.056 540.855 299.224C540.193 298.947 539.713 298.584 539.415 298.136C539.137 297.688 538.999 297.197 538.999 296.664C538.999 295.917 539.212 295.213 539.639 294.552C540.087 293.869 540.705 293.187 541.495 292.504C540.62 292.056 539.969 291.459 539.543 290.712C539.116 289.965 538.903 289.133 538.903 288.216C538.903 286.723 539.447 285.485 540.535 284.504C541.644 283.523 543.329 283.032 545.591 283.032C546.743 283.032 547.745 283.16 548.599 283.416C549.452 283.672 550.145 284.035 550.679 284.504L554.263 282.968L554.775 283.288V285.752H551.735C552.119 286.456 552.311 287.277 552.311 288.216C552.311 289.645 551.756 290.861 550.647 291.864C549.559 292.845 547.873 293.336 545.591 293.336Z" fill="#0A2750"/>
</svg>
