<svg width="960" height="540" viewBox="0 0 960 540" fill="none" xmlns="http://www.w3.org/2000/svg" role="img" aria-label="Een tekst, in bold. De hele tekst is aangeduid met het cijfer 1. De tekst: “Dit is een voorbeeld van een heading.”.">
<rect x="0.5" y="0.5" width="959" height="539" fill="white"/>
<rect x="0.5" y="0.5" width="959" height="539" stroke="#CCCCCC"/>
<path d="M307.762 259L307.762 281" stroke="#DE00A4" stroke-width="2" stroke-linecap="square"/>
<path d="M268 270H307" stroke="#DE00A4" stroke-width="2" stroke-linecap="square" stroke-linejoin="bevel"/>
<rect x="236" y="254" width="32" height="32" rx="16" fill="#DE00A4"/>
<path d="M254.502 264.368V276.5H252V266.888L249.336 268.526L248.22 266.798L252.252 264.368H254.502Z" fill="white"/>
<path d="M319.892 270.104C319.892 270.711 319.892 271.313 319.892 271.91C319.901 272.507 319.911 273.1 319.92 273.688H320.382C321.185 273.688 321.815 273.361 322.272 272.708C322.739 272.045 322.972 271.107 322.972 269.894C322.972 268.662 322.739 267.724 322.272 267.08C321.815 266.436 321.189 266.114 320.396 266.114H319.92C319.911 266.693 319.901 267.276 319.892 267.864C319.892 268.452 319.892 269.045 319.892 269.642V270.104ZM316.462 266.058V265.302H320.62C321.619 265.302 322.473 265.489 323.182 265.862C323.891 266.226 324.437 266.749 324.82 267.43C325.203 268.111 325.394 268.928 325.394 269.88C325.394 270.851 325.189 271.681 324.778 272.372C324.367 273.063 323.784 273.59 323.028 273.954C322.281 274.318 321.395 274.5 320.368 274.5H316.462V273.744L317.512 273.632C317.531 273.063 317.54 272.484 317.54 271.896C317.54 271.308 317.54 270.715 317.54 270.118V269.642C317.54 269.063 317.54 268.485 317.54 267.906C317.54 267.318 317.531 266.739 317.512 266.17L316.462 266.058ZM326.291 274.5V273.842L327.047 273.674C327.056 273.338 327.061 272.974 327.061 272.582C327.061 272.19 327.061 271.849 327.061 271.56V270.888C327.061 270.505 327.056 270.188 327.047 269.936C327.047 269.675 327.038 269.404 327.019 269.124L326.151 268.998V268.452L329.091 267.514L329.329 267.668L329.287 269.698V271.56C329.287 271.849 329.287 272.195 329.287 272.596C329.287 272.988 329.292 273.357 329.301 273.702L330.001 273.842V274.5H326.291ZM328.153 266.478C327.826 266.478 327.546 266.375 327.313 266.17C327.08 265.955 326.963 265.689 326.963 265.372C326.963 265.045 327.08 264.779 327.313 264.574C327.546 264.359 327.826 264.252 328.153 264.252C328.48 264.252 328.76 264.359 328.993 264.574C329.226 264.779 329.343 265.045 329.343 265.372C329.343 265.689 329.226 265.955 328.993 266.17C328.76 266.375 328.48 266.478 328.153 266.478ZM333.353 274.71C332.727 274.71 332.237 274.561 331.883 274.262C331.528 273.954 331.351 273.455 331.351 272.764C331.351 272.521 331.351 272.297 331.351 272.092C331.36 271.877 331.365 271.635 331.365 271.364V268.69H330.455V267.864L331.491 267.724L332.191 265.764H333.619L333.591 267.738H335.061V268.69H333.591V272.61C333.591 272.937 333.656 273.179 333.787 273.338C333.927 273.487 334.099 273.562 334.305 273.562C334.547 273.562 334.799 273.459 335.061 273.254L335.411 273.59C335.224 273.945 334.963 274.22 334.627 274.416C334.3 274.612 333.875 274.71 333.353 274.71ZM338.733 274.5V273.842L339.489 273.674C339.498 273.338 339.503 272.974 339.503 272.582C339.503 272.19 339.503 271.849 339.503 271.56V270.888C339.503 270.505 339.498 270.188 339.489 269.936C339.489 269.675 339.479 269.404 339.461 269.124L338.593 268.998V268.452L341.533 267.514L341.771 267.668L341.729 269.698V271.56C341.729 271.849 341.729 272.195 341.729 272.596C341.729 272.988 341.733 273.357 341.743 273.702L342.443 273.842V274.5H338.733ZM340.595 266.478C340.268 266.478 339.988 266.375 339.755 266.17C339.521 265.955 339.405 265.689 339.405 265.372C339.405 265.045 339.521 264.779 339.755 264.574C339.988 264.359 340.268 264.252 340.595 264.252C340.921 264.252 341.201 264.359 341.435 264.574C341.668 264.779 341.785 265.045 341.785 265.372C341.785 265.689 341.668 265.955 341.435 266.17C341.201 266.375 340.921 266.478 340.595 266.478ZM345.598 274.71C344.712 274.71 343.9 274.495 343.162 274.066L343.204 272.358H344.324L344.562 273.744C344.73 273.809 344.898 273.861 345.066 273.898C345.234 273.926 345.416 273.94 345.612 273.94C346.014 273.94 346.322 273.875 346.536 273.744C346.751 273.604 346.858 273.394 346.858 273.114C346.858 272.899 346.779 272.713 346.62 272.554C346.462 272.395 346.149 272.251 345.682 272.12L344.926 271.896C344.385 271.737 343.965 271.481 343.666 271.126C343.377 270.771 343.232 270.333 343.232 269.81C343.232 269.166 343.484 268.625 343.988 268.186C344.492 267.738 345.216 267.514 346.158 267.514C346.569 267.514 346.947 267.565 347.292 267.668C347.647 267.761 348.006 267.901 348.37 268.088L348.272 269.614H347.152L346.872 268.41C346.676 268.335 346.42 268.298 346.102 268.298C345.785 268.298 345.528 268.363 345.332 268.494C345.146 268.625 345.052 268.821 345.052 269.082C345.052 269.269 345.127 269.437 345.276 269.586C345.426 269.726 345.743 269.871 346.228 270.02L346.914 270.216C347.577 270.412 348.053 270.692 348.342 271.056C348.632 271.42 348.776 271.863 348.776 272.386C348.776 273.123 348.492 273.697 347.922 274.108C347.362 274.509 346.588 274.71 345.598 274.71ZM355.971 268.242C355.71 268.242 355.467 268.405 355.243 268.732C355.029 269.049 354.907 269.637 354.879 270.496H356.069C356.405 270.496 356.629 270.431 356.741 270.3C356.863 270.16 356.923 269.931 356.923 269.614C356.923 269.147 356.83 268.802 356.643 268.578C356.457 268.354 356.233 268.242 355.971 268.242ZM355.999 274.71C355.318 274.71 354.716 274.57 354.193 274.29C353.671 274.001 353.26 273.59 352.961 273.058C352.663 272.517 352.513 271.873 352.513 271.126C352.513 270.342 352.686 269.684 353.031 269.152C353.386 268.611 353.839 268.205 354.389 267.934C354.94 267.654 355.514 267.514 356.111 267.514C356.727 267.514 357.25 267.645 357.679 267.906C358.118 268.167 358.449 268.522 358.673 268.97C358.897 269.409 359.009 269.913 359.009 270.482C359.009 270.753 358.981 271 358.925 271.224H354.879C354.926 271.961 355.127 272.507 355.481 272.862C355.845 273.207 356.27 273.38 356.755 273.38C357.138 273.38 357.465 273.31 357.735 273.17C358.006 273.021 358.244 272.839 358.449 272.624L358.939 273.072C358.65 273.623 358.258 274.033 357.763 274.304C357.269 274.575 356.681 274.71 355.999 274.71ZM363.272 268.242C363.011 268.242 362.768 268.405 362.544 268.732C362.33 269.049 362.208 269.637 362.18 270.496H363.37C363.706 270.496 363.93 270.431 364.042 270.3C364.164 270.16 364.224 269.931 364.224 269.614C364.224 269.147 364.131 268.802 363.944 268.578C363.758 268.354 363.534 268.242 363.272 268.242ZM363.3 274.71C362.619 274.71 362.017 274.57 361.494 274.29C360.972 274.001 360.561 273.59 360.262 273.058C359.964 272.517 359.814 271.873 359.814 271.126C359.814 270.342 359.987 269.684 360.332 269.152C360.687 268.611 361.14 268.205 361.69 267.934C362.241 267.654 362.815 267.514 363.412 267.514C364.028 267.514 364.551 267.645 364.98 267.906C365.419 268.167 365.75 268.522 365.974 268.97C366.198 269.409 366.31 269.913 366.31 270.482C366.31 270.753 366.282 271 366.226 271.224H362.18C362.227 271.961 362.428 272.507 362.782 272.862C363.146 273.207 363.571 273.38 364.056 273.38C364.439 273.38 364.766 273.31 365.036 273.17C365.307 273.021 365.545 272.839 365.75 272.624L366.24 273.072C365.951 273.623 365.559 274.033 365.064 274.304C364.57 274.575 363.982 274.71 363.3 274.71ZM367.101 274.5V273.842L367.857 273.674C367.866 273.338 367.871 272.974 367.871 272.582C367.871 272.19 367.871 271.849 367.871 271.56V270.748C367.871 270.365 367.866 270.071 367.857 269.866C367.857 269.651 367.848 269.404 367.829 269.124L366.975 268.998V268.452L369.733 267.514L369.985 267.668L370.069 268.676C370.433 268.247 370.792 267.948 371.147 267.78C371.511 267.603 371.898 267.514 372.309 267.514C372.916 267.514 373.401 267.715 373.765 268.116C374.138 268.517 374.325 269.119 374.325 269.922V271.56C374.325 271.868 374.325 272.218 374.325 272.61C374.325 272.993 374.33 273.357 374.339 273.702L375.039 273.842V274.5H371.343V273.842L372.071 273.688C372.08 273.343 372.085 272.979 372.085 272.596C372.085 272.204 372.085 271.859 372.085 271.56V270.09C372.085 269.642 372.024 269.329 371.903 269.152C371.782 268.965 371.586 268.872 371.315 268.872C370.951 268.872 370.55 269.04 370.111 269.376V271.56C370.111 271.849 370.111 272.195 370.111 272.596C370.111 272.988 370.116 273.357 370.125 273.702L370.783 273.842V274.5H367.101ZM382.978 268.354V267.738H385.624V268.354L384.812 268.508L382.502 274.528H381.438L378.918 268.494L378.232 268.354V267.738H382.208V268.354L381.326 268.536L382.642 272.12L383.86 268.522L382.978 268.354ZM389.292 274.71C388.564 274.71 387.934 274.561 387.402 274.262C386.87 273.954 386.459 273.529 386.17 272.988C385.881 272.437 385.736 271.803 385.736 271.084C385.736 270.365 385.89 269.74 386.198 269.208C386.515 268.676 386.945 268.261 387.486 267.962C388.027 267.663 388.629 267.514 389.292 267.514C389.955 267.514 390.552 267.659 391.084 267.948C391.625 268.237 392.055 268.653 392.372 269.194C392.689 269.726 392.848 270.356 392.848 271.084C392.848 271.812 392.703 272.447 392.414 272.988C392.125 273.529 391.714 273.954 391.182 274.262C390.65 274.561 390.02 274.71 389.292 274.71ZM389.292 273.982C389.684 273.982 389.978 273.753 390.174 273.296C390.37 272.839 390.468 272.115 390.468 271.126C390.468 270.127 390.37 269.399 390.174 268.942C389.978 268.485 389.684 268.256 389.292 268.256C388.891 268.256 388.592 268.485 388.396 268.942C388.2 269.399 388.102 270.127 388.102 271.126C388.102 272.115 388.2 272.839 388.396 273.296C388.592 273.753 388.891 273.982 389.292 273.982ZM397.304 274.71C396.576 274.71 395.946 274.561 395.414 274.262C394.882 273.954 394.471 273.529 394.182 272.988C393.892 272.437 393.748 271.803 393.748 271.084C393.748 270.365 393.902 269.74 394.21 269.208C394.527 268.676 394.956 268.261 395.498 267.962C396.039 267.663 396.641 267.514 397.304 267.514C397.966 267.514 398.564 267.659 399.096 267.948C399.637 268.237 400.066 268.653 400.384 269.194C400.701 269.726 400.86 270.356 400.86 271.084C400.86 271.812 400.715 272.447 400.426 272.988C400.136 273.529 399.726 273.954 399.194 274.262C398.662 274.561 398.032 274.71 397.304 274.71ZM397.304 273.982C397.696 273.982 397.99 273.753 398.186 273.296C398.382 272.839 398.48 272.115 398.48 271.126C398.48 270.127 398.382 269.399 398.186 268.942C397.99 268.485 397.696 268.256 397.304 268.256C396.902 268.256 396.604 268.485 396.408 268.942C396.212 269.399 396.114 270.127 396.114 271.126C396.114 272.115 396.212 272.839 396.408 273.296C396.604 273.753 396.902 273.982 397.304 273.982ZM401.636 274.5V273.842L402.406 273.688C402.415 273.343 402.42 272.974 402.42 272.582C402.42 272.19 402.42 271.849 402.42 271.56V270.734C402.42 270.473 402.415 270.258 402.406 270.09C402.406 269.922 402.401 269.768 402.392 269.628C402.392 269.479 402.387 269.311 402.378 269.124L401.524 268.998V268.452L404.282 267.514L404.534 267.668L404.66 269.32C404.856 268.723 405.131 268.275 405.486 267.976C405.84 267.668 406.19 267.514 406.536 267.514C406.844 267.514 407.11 267.603 407.334 267.78C407.558 267.948 407.698 268.205 407.754 268.55C407.744 268.914 407.646 269.199 407.46 269.404C407.273 269.6 407.04 269.698 406.76 269.698C406.368 269.698 406.008 269.479 405.682 269.04L405.598 268.928C405.392 269.124 405.201 269.371 405.024 269.67C404.856 269.969 404.734 270.281 404.66 270.608V271.56C404.66 271.849 404.66 272.181 404.66 272.554C404.66 272.927 404.664 273.277 404.674 273.604L405.78 273.842V274.5H401.636ZM407.83 274.514V273.856L408.572 273.702C408.581 273.366 408.586 273.002 408.586 272.61C408.586 272.209 408.586 271.863 408.586 271.574V265.666L407.718 265.554V264.966L410.616 264.336L410.84 264.476L410.784 266.436V268.41C411.372 267.813 412.048 267.514 412.814 267.514C413.327 267.514 413.789 267.649 414.2 267.92C414.61 268.181 414.937 268.578 415.18 269.11C415.432 269.633 415.558 270.281 415.558 271.056C415.558 271.812 415.418 272.465 415.138 273.016C414.858 273.557 414.489 273.977 414.032 274.276C413.584 274.565 413.094 274.71 412.562 274.71C411.796 274.71 411.18 274.435 410.714 273.884L410.476 274.696L407.83 274.514ZM411.792 268.732C411.614 268.732 411.446 268.769 411.288 268.844C411.129 268.919 410.975 269.017 410.826 269.138V273.142C411.115 273.403 411.432 273.534 411.778 273.534C412.188 273.534 412.524 273.333 412.786 272.932C413.056 272.531 413.192 271.919 413.192 271.098C413.192 270.267 413.061 269.665 412.8 269.292C412.548 268.919 412.212 268.732 411.792 268.732ZM419.928 268.242C419.667 268.242 419.424 268.405 419.2 268.732C418.986 269.049 418.864 269.637 418.836 270.496H420.026C420.362 270.496 420.586 270.431 420.698 270.3C420.82 270.16 420.88 269.931 420.88 269.614C420.88 269.147 420.787 268.802 420.6 268.578C420.414 268.354 420.19 268.242 419.928 268.242ZM419.956 274.71C419.275 274.71 418.673 274.57 418.15 274.29C417.628 274.001 417.217 273.59 416.918 273.058C416.62 272.517 416.47 271.873 416.47 271.126C416.47 270.342 416.643 269.684 416.988 269.152C417.343 268.611 417.796 268.205 418.346 267.934C418.897 267.654 419.471 267.514 420.068 267.514C420.684 267.514 421.207 267.645 421.636 267.906C422.075 268.167 422.406 268.522 422.63 268.97C422.854 269.409 422.966 269.913 422.966 270.482C422.966 270.753 422.938 271 422.882 271.224H418.836C418.883 271.961 419.084 272.507 419.438 272.862C419.802 273.207 420.227 273.38 420.712 273.38C421.095 273.38 421.422 273.31 421.692 273.17C421.963 273.021 422.201 272.839 422.406 272.624L422.896 273.072C422.607 273.623 422.215 274.033 421.72 274.304C421.226 274.575 420.638 274.71 419.956 274.71ZM427.229 268.242C426.968 268.242 426.725 268.405 426.501 268.732C426.287 269.049 426.165 269.637 426.137 270.496H427.327C427.663 270.496 427.887 270.431 427.999 270.3C428.121 270.16 428.181 269.931 428.181 269.614C428.181 269.147 428.088 268.802 427.901 268.578C427.715 268.354 427.491 268.242 427.229 268.242ZM427.257 274.71C426.576 274.71 425.974 274.57 425.451 274.29C424.929 274.001 424.518 273.59 424.219 273.058C423.921 272.517 423.771 271.873 423.771 271.126C423.771 270.342 423.944 269.684 424.289 269.152C424.644 268.611 425.097 268.205 425.647 267.934C426.198 267.654 426.772 267.514 427.369 267.514C427.985 267.514 428.508 267.645 428.937 267.906C429.376 268.167 429.707 268.522 429.931 268.97C430.155 269.409 430.267 269.913 430.267 270.482C430.267 270.753 430.239 271 430.183 271.224H426.137C426.184 271.961 426.385 272.507 426.739 272.862C427.103 273.207 427.528 273.38 428.013 273.38C428.396 273.38 428.723 273.31 428.993 273.17C429.264 273.021 429.502 272.839 429.707 272.624L430.197 273.072C429.908 273.623 429.516 274.033 429.021 274.304C428.527 274.575 427.939 274.71 427.257 274.71ZM430.798 274.5V273.842L431.568 273.674C431.577 273.319 431.582 272.965 431.582 272.61C431.591 272.255 431.596 271.905 431.596 271.56V265.694L430.728 265.554V264.966L433.668 264.336L433.892 264.476L433.836 266.436V271.56C433.836 271.915 433.836 272.269 433.836 272.624C433.845 272.979 433.854 273.333 433.864 273.688L434.634 273.842V274.5H430.798ZM437.731 271.154C437.731 271.919 437.866 272.503 438.137 272.904C438.408 273.296 438.758 273.492 439.187 273.492C439.504 273.492 439.794 273.385 440.055 273.17V268.998C439.803 268.802 439.528 268.704 439.229 268.704C438.8 268.704 438.44 268.905 438.151 269.306C437.871 269.707 437.731 270.323 437.731 271.154ZM440.237 274.654L440.125 273.856C439.584 274.425 438.926 274.71 438.151 274.71C437.628 274.71 437.152 274.575 436.723 274.304C436.303 274.033 435.972 273.637 435.729 273.114C435.486 272.582 435.365 271.938 435.365 271.182C435.365 270.417 435.51 269.763 435.799 269.222C436.098 268.671 436.48 268.251 436.947 267.962C437.423 267.663 437.922 267.514 438.445 267.514C438.809 267.514 439.126 267.579 439.397 267.71C439.668 267.831 439.915 268.013 440.139 268.256V265.694L439.159 265.554V264.966L442.113 264.336L442.337 264.476L442.281 266.436V273.702L442.967 273.842V274.5L440.237 274.654ZM450.914 268.354V267.738H453.56V268.354L452.748 268.508L450.438 274.528H449.374L446.854 268.494L446.168 268.354V267.738H450.144V268.354L449.262 268.536L450.578 272.12L451.796 268.522L450.914 268.354ZM459.089 274.696C458.277 274.696 457.764 274.36 457.549 273.688C457.251 274.005 456.961 274.257 456.681 274.444C456.411 274.621 456.033 274.71 455.547 274.71C455.006 274.71 454.563 274.556 454.217 274.248C453.881 273.94 453.713 273.497 453.713 272.918C453.713 272.582 453.788 272.279 453.937 272.008C454.087 271.737 454.357 271.485 454.749 271.252C455.141 271.019 455.697 270.799 456.415 270.594C456.555 270.547 456.719 270.501 456.905 270.454C457.092 270.407 457.283 270.361 457.479 270.314V269.852C457.479 269.227 457.4 268.802 457.241 268.578C457.092 268.354 456.793 268.242 456.345 268.242C456.28 268.242 456.219 268.242 456.163 268.242C456.107 268.242 456.042 268.247 455.967 268.256L455.897 268.872C455.888 269.329 455.781 269.661 455.575 269.866C455.379 270.071 455.146 270.174 454.875 270.174C454.362 270.174 454.049 269.941 453.937 269.474C453.975 268.895 454.269 268.424 454.819 268.06C455.37 267.696 456.149 267.514 457.157 267.514C458.053 267.514 458.693 267.719 459.075 268.13C459.467 268.541 459.663 269.217 459.663 270.16V273.296C459.663 273.567 459.766 273.702 459.971 273.702C460.046 273.702 460.116 273.683 460.181 273.646C460.247 273.599 460.317 273.515 460.391 273.394L460.769 273.646C460.601 274.019 460.382 274.29 460.111 274.458C459.85 274.617 459.509 274.696 459.089 274.696ZM455.785 272.554C455.785 272.899 455.865 273.156 456.023 273.324C456.191 273.492 456.392 273.576 456.625 273.576C456.728 273.576 456.835 273.553 456.947 273.506C457.059 273.459 457.237 273.352 457.479 273.184V270.916C457.358 270.953 457.237 270.995 457.115 271.042C457.003 271.079 456.905 271.117 456.821 271.154C456.504 271.285 456.252 271.471 456.065 271.714C455.879 271.947 455.785 272.227 455.785 272.554ZM461.109 274.5V273.842L461.865 273.674C461.874 273.338 461.879 272.974 461.879 272.582C461.879 272.19 461.879 271.849 461.879 271.56V270.748C461.879 270.365 461.874 270.071 461.865 269.866C461.865 269.651 461.855 269.404 461.837 269.124L460.983 268.998V268.452L463.741 267.514L463.993 267.668L464.077 268.676C464.441 268.247 464.8 267.948 465.155 267.78C465.519 267.603 465.906 267.514 466.317 267.514C466.923 267.514 467.409 267.715 467.773 268.116C468.146 268.517 468.333 269.119 468.333 269.922V271.56C468.333 271.868 468.333 272.218 468.333 272.61C468.333 272.993 468.337 273.357 468.347 273.702L469.047 273.842V274.5H465.351V273.842L466.079 273.688C466.088 273.343 466.093 272.979 466.093 272.596C466.093 272.204 466.093 271.859 466.093 271.56V270.09C466.093 269.642 466.032 269.329 465.911 269.152C465.789 268.965 465.593 268.872 465.323 268.872C464.959 268.872 464.557 269.04 464.119 269.376V271.56C464.119 271.849 464.119 272.195 464.119 272.596C464.119 272.988 464.123 273.357 464.133 273.702L464.791 273.842V274.5H461.109ZM476.202 268.242C475.941 268.242 475.698 268.405 475.474 268.732C475.259 269.049 475.138 269.637 475.11 270.496H476.3C476.636 270.496 476.86 270.431 476.972 270.3C477.093 270.16 477.154 269.931 477.154 269.614C477.154 269.147 477.061 268.802 476.874 268.578C476.687 268.354 476.463 268.242 476.202 268.242ZM476.23 274.71C475.549 274.71 474.947 274.57 474.424 274.29C473.901 274.001 473.491 273.59 473.192 273.058C472.893 272.517 472.744 271.873 472.744 271.126C472.744 270.342 472.917 269.684 473.262 269.152C473.617 268.611 474.069 268.205 474.62 267.934C475.171 267.654 475.745 267.514 476.342 267.514C476.958 267.514 477.481 267.645 477.91 267.906C478.349 268.167 478.68 268.522 478.904 268.97C479.128 269.409 479.24 269.913 479.24 270.482C479.24 270.753 479.212 271 479.156 271.224H475.11C475.157 271.961 475.357 272.507 475.712 272.862C476.076 273.207 476.501 273.38 476.986 273.38C477.369 273.38 477.695 273.31 477.966 273.17C478.237 273.021 478.475 272.839 478.68 272.624L479.17 273.072C478.881 273.623 478.489 274.033 477.994 274.304C477.499 274.575 476.911 274.71 476.23 274.71ZM483.503 268.242C483.241 268.242 482.999 268.405 482.775 268.732C482.56 269.049 482.439 269.637 482.411 270.496H483.601C483.937 270.496 484.161 270.431 484.273 270.3C484.394 270.16 484.455 269.931 484.455 269.614C484.455 269.147 484.361 268.802 484.175 268.578C483.988 268.354 483.764 268.242 483.503 268.242ZM483.531 274.71C482.849 274.71 482.247 274.57 481.725 274.29C481.202 274.001 480.791 273.59 480.493 273.058C480.194 272.517 480.045 271.873 480.045 271.126C480.045 270.342 480.217 269.684 480.563 269.152C480.917 268.611 481.37 268.205 481.921 267.934C482.471 267.654 483.045 267.514 483.643 267.514C484.259 267.514 484.781 267.645 485.211 267.906C485.649 268.167 485.981 268.522 486.205 268.97C486.429 269.409 486.541 269.913 486.541 270.482C486.541 270.753 486.513 271 486.457 271.224H482.411C482.457 271.961 482.658 272.507 483.013 272.862C483.377 273.207 483.801 273.38 484.287 273.38C484.669 273.38 484.996 273.31 485.267 273.17C485.537 273.021 485.775 272.839 485.981 272.624L486.471 273.072C486.181 273.623 485.789 274.033 485.295 274.304C484.8 274.575 484.212 274.71 483.531 274.71ZM487.331 274.5V273.842L488.087 273.674C488.097 273.338 488.101 272.974 488.101 272.582C488.101 272.19 488.101 271.849 488.101 271.56V270.748C488.101 270.365 488.097 270.071 488.087 269.866C488.087 269.651 488.078 269.404 488.059 269.124L487.205 268.998V268.452L489.963 267.514L490.215 267.668L490.299 268.676C490.663 268.247 491.023 267.948 491.377 267.78C491.741 267.603 492.129 267.514 492.539 267.514C493.146 267.514 493.631 267.715 493.995 268.116C494.369 268.517 494.555 269.119 494.555 269.922V271.56C494.555 271.868 494.555 272.218 494.555 272.61C494.555 272.993 494.56 273.357 494.569 273.702L495.269 273.842V274.5H491.573V273.842L492.301 273.688C492.311 273.343 492.315 272.979 492.315 272.596C492.315 272.204 492.315 271.859 492.315 271.56V270.09C492.315 269.642 492.255 269.329 492.133 269.152C492.012 268.965 491.816 268.872 491.545 268.872C491.181 268.872 490.78 269.04 490.341 269.376V271.56C490.341 271.849 490.341 272.195 490.341 272.596C490.341 272.988 490.346 273.357 490.355 273.702L491.013 273.842V274.5H487.331ZM498.953 274.5V273.842L499.709 273.674C499.718 273.338 499.723 272.974 499.723 272.582C499.723 272.19 499.723 271.849 499.723 271.56V265.694L498.855 265.554V264.966L501.753 264.336L501.977 264.476L501.921 266.436V268.69C502.294 268.251 502.653 267.948 502.999 267.78C503.353 267.603 503.736 267.514 504.147 267.514C504.763 267.514 505.257 267.715 505.631 268.116C506.004 268.517 506.191 269.119 506.191 269.922V271.56C506.191 271.868 506.191 272.218 506.191 272.61C506.191 272.993 506.195 273.357 506.205 273.702L506.905 273.842V274.5H503.223V273.842L503.951 273.688C503.96 273.343 503.965 272.979 503.965 272.596C503.965 272.204 503.965 271.859 503.965 271.56V270.09C503.965 269.633 503.909 269.315 503.797 269.138C503.694 268.961 503.498 268.872 503.209 268.872C503.022 268.872 502.821 268.928 502.607 269.04C502.392 269.152 502.177 269.311 501.963 269.516V271.56C501.963 271.849 501.963 272.195 501.963 272.596C501.963 272.988 501.967 273.357 501.977 273.702L502.635 273.842V274.5H498.953ZM511.065 268.242C510.804 268.242 510.561 268.405 510.337 268.732C510.123 269.049 510.001 269.637 509.973 270.496H511.163C511.499 270.496 511.723 270.431 511.835 270.3C511.957 270.16 512.017 269.931 512.017 269.614C512.017 269.147 511.924 268.802 511.737 268.578C511.551 268.354 511.327 268.242 511.065 268.242ZM511.093 274.71C510.412 274.71 509.81 274.57 509.287 274.29C508.765 274.001 508.354 273.59 508.055 273.058C507.757 272.517 507.607 271.873 507.607 271.126C507.607 270.342 507.78 269.684 508.125 269.152C508.48 268.611 508.933 268.205 509.483 267.934C510.034 267.654 510.608 267.514 511.205 267.514C511.821 267.514 512.344 267.645 512.773 267.906C513.212 268.167 513.543 268.522 513.767 268.97C513.991 269.409 514.103 269.913 514.103 270.482C514.103 270.753 514.075 271 514.019 271.224H509.973C510.02 271.961 510.221 272.507 510.575 272.862C510.939 273.207 511.364 273.38 511.849 273.38C512.232 273.38 512.559 273.31 512.829 273.17C513.1 273.021 513.338 272.839 513.543 272.624L514.033 273.072C513.744 273.623 513.352 274.033 512.857 274.304C512.363 274.575 511.775 274.71 511.093 274.71ZM520.271 274.696C519.459 274.696 518.946 274.36 518.731 273.688C518.432 274.005 518.143 274.257 517.863 274.444C517.592 274.621 517.214 274.71 516.729 274.71C516.188 274.71 515.744 274.556 515.399 274.248C515.063 273.94 514.895 273.497 514.895 272.918C514.895 272.582 514.97 272.279 515.119 272.008C515.268 271.737 515.539 271.485 515.931 271.252C516.323 271.019 516.878 270.799 517.597 270.594C517.737 270.547 517.9 270.501 518.087 270.454C518.274 270.407 518.465 270.361 518.661 270.314V269.852C518.661 269.227 518.582 268.802 518.423 268.578C518.274 268.354 517.975 268.242 517.527 268.242C517.462 268.242 517.401 268.242 517.345 268.242C517.289 268.242 517.224 268.247 517.149 268.256L517.079 268.872C517.07 269.329 516.962 269.661 516.757 269.866C516.561 270.071 516.328 270.174 516.057 270.174C515.544 270.174 515.231 269.941 515.119 269.474C515.156 268.895 515.45 268.424 516.001 268.06C516.552 267.696 517.331 267.514 518.339 267.514C519.235 267.514 519.874 267.719 520.257 268.13C520.649 268.541 520.845 269.217 520.845 270.16V273.296C520.845 273.567 520.948 273.702 521.153 273.702C521.228 273.702 521.298 273.683 521.363 273.646C521.428 273.599 521.498 273.515 521.573 273.394L521.951 273.646C521.783 274.019 521.564 274.29 521.293 274.458C521.032 274.617 520.691 274.696 520.271 274.696ZM516.967 272.554C516.967 272.899 517.046 273.156 517.205 273.324C517.373 273.492 517.574 273.576 517.807 273.576C517.91 273.576 518.017 273.553 518.129 273.506C518.241 273.459 518.418 273.352 518.661 273.184V270.916C518.54 270.953 518.418 270.995 518.297 271.042C518.185 271.079 518.087 271.117 518.003 271.154C517.686 271.285 517.434 271.471 517.247 271.714C517.06 271.947 516.967 272.227 516.967 272.554ZM524.67 271.154C524.67 271.919 524.806 272.503 525.076 272.904C525.347 273.296 525.697 273.492 526.126 273.492C526.444 273.492 526.733 273.385 526.994 273.17V268.998C526.742 268.802 526.467 268.704 526.168 268.704C525.739 268.704 525.38 268.905 525.09 269.306C524.81 269.707 524.67 270.323 524.67 271.154ZM527.176 274.654L527.064 273.856C526.523 274.425 525.865 274.71 525.09 274.71C524.568 274.71 524.092 274.575 523.662 274.304C523.242 274.033 522.911 273.637 522.668 273.114C522.426 272.582 522.304 271.938 522.304 271.182C522.304 270.417 522.449 269.763 522.738 269.222C523.037 268.671 523.42 268.251 523.886 267.962C524.362 267.663 524.862 267.514 525.384 267.514C525.748 267.514 526.066 267.579 526.336 267.71C526.607 267.831 526.854 268.013 527.078 268.256V265.694L526.098 265.554V264.966L529.052 264.336L529.276 264.476L529.22 266.436V273.702L529.906 273.842V274.5L527.176 274.654ZM530.631 274.5V273.842L531.387 273.674C531.396 273.338 531.401 272.974 531.401 272.582C531.401 272.19 531.401 271.849 531.401 271.56V270.888C531.401 270.505 531.396 270.188 531.387 269.936C531.387 269.675 531.378 269.404 531.359 269.124L530.491 268.998V268.452L533.431 267.514L533.669 267.668L533.627 269.698V271.56C533.627 271.849 533.627 272.195 533.627 272.596C533.627 272.988 533.632 273.357 533.641 273.702L534.341 273.842V274.5H530.631ZM532.493 266.478C532.166 266.478 531.886 266.375 531.653 266.17C531.42 265.955 531.303 265.689 531.303 265.372C531.303 265.045 531.42 264.779 531.653 264.574C531.886 264.359 532.166 264.252 532.493 264.252C532.82 264.252 533.1 264.359 533.333 264.574C533.566 264.779 533.683 265.045 533.683 265.372C533.683 265.689 533.566 265.955 533.333 266.17C533.1 266.375 532.82 266.478 532.493 266.478ZM535.033 274.5V273.842L535.789 273.674C535.798 273.338 535.803 272.974 535.803 272.582C535.803 272.19 535.803 271.849 535.803 271.56V270.748C535.803 270.365 535.798 270.071 535.789 269.866C535.789 269.651 535.779 269.404 535.761 269.124L534.907 268.998V268.452L537.665 267.514L537.917 267.668L538.001 268.676C538.365 268.247 538.724 267.948 539.079 267.78C539.443 267.603 539.83 267.514 540.241 267.514C540.847 267.514 541.333 267.715 541.697 268.116C542.07 268.517 542.257 269.119 542.257 269.922V271.56C542.257 271.868 542.257 272.218 542.257 272.61C542.257 272.993 542.261 273.357 542.271 273.702L542.971 273.842V274.5H539.275V273.842L540.003 273.688C540.012 273.343 540.017 272.979 540.017 272.596C540.017 272.204 540.017 271.859 540.017 271.56V270.09C540.017 269.642 539.956 269.329 539.835 269.152C539.713 268.965 539.517 268.872 539.247 268.872C538.883 268.872 538.481 269.04 538.043 269.376V271.56C538.043 271.849 538.043 272.195 538.043 272.596C538.043 272.988 538.047 273.357 538.057 273.702L538.715 273.842V274.5H535.033ZM546.698 271.364C547.024 271.364 547.267 271.219 547.426 270.93C547.594 270.641 547.678 270.249 547.678 269.754C547.678 269.259 547.594 268.877 547.426 268.606C547.267 268.326 547.034 268.186 546.726 268.186C546.408 268.186 546.17 268.326 546.012 268.606C545.853 268.886 545.774 269.273 545.774 269.768C545.774 270.263 545.848 270.655 545.998 270.944C546.147 271.224 546.38 271.364 546.698 271.364ZM544.836 275.662C544.836 276.073 544.99 276.371 545.298 276.558C545.606 276.754 546.077 276.852 546.712 276.852C547.412 276.852 547.939 276.749 548.294 276.544C548.648 276.339 548.826 276.082 548.826 275.774C548.826 275.569 548.751 275.382 548.602 275.214C548.452 275.055 548.186 274.976 547.804 274.976H546.334C545.82 274.976 545.396 274.934 545.06 274.85C544.985 274.981 544.929 275.107 544.892 275.228C544.854 275.349 544.836 275.494 544.836 275.662ZM546.712 272.022C546.226 272.022 545.802 271.966 545.438 271.854C545.326 272.05 545.27 272.265 545.27 272.498C545.27 272.657 545.33 272.787 545.452 272.89C545.573 272.983 545.783 273.03 546.082 273.03H547.72C548.429 273.03 548.994 273.119 549.414 273.296C549.834 273.464 550.132 273.702 550.31 274.01C550.496 274.309 550.59 274.663 550.59 275.074C550.59 275.541 550.436 275.97 550.128 276.362C549.82 276.763 549.358 277.081 548.742 277.314C548.135 277.557 547.384 277.678 546.488 277.678C545.713 277.678 545.106 277.599 544.668 277.44C544.229 277.291 543.921 277.09 543.744 276.838C543.566 276.586 543.478 276.32 543.478 276.04C543.478 275.443 543.865 274.962 544.64 274.598C544.35 274.477 544.14 274.318 544.01 274.122C543.888 273.926 543.828 273.711 543.828 273.478C543.828 273.151 543.921 272.843 544.108 272.554C544.304 272.255 544.574 271.957 544.92 271.658C544.537 271.462 544.252 271.201 544.066 270.874C543.879 270.547 543.786 270.183 543.786 269.782C543.786 269.129 544.024 268.587 544.5 268.158C544.985 267.729 545.722 267.514 546.712 267.514C547.216 267.514 547.654 267.57 548.028 267.682C548.401 267.794 548.704 267.953 548.938 268.158L550.506 267.486L550.73 267.626V268.704H549.4C549.568 269.012 549.652 269.371 549.652 269.782C549.652 270.407 549.409 270.939 548.924 271.378C548.448 271.807 547.71 272.022 546.712 272.022Z" fill="#0A2750"/>
</svg>
