<svg width="960" height="540" viewBox="0 0 960 540" fill="none" xmlns="http://www.w3.org/2000/svg">
<rect x="0.5" y="0.5" width="959" height="539" fill="white"/>
<rect x="0.5" y="0.5" width="959" height="539" stroke="#CCCCCC"/>
<rect x="316.5" y="178.5" width="327" height="183" stroke="#FF00C8" stroke-dasharray="2 2"/>
<path d="M332.243 200H330.867V192.016C330.867 191.707 330.867 191.445 330.867 191.232C330.877 191.019 330.888 190.821 330.899 190.64C330.909 190.448 330.92 190.251 330.931 190.048C330.76 190.219 330.605 190.363 330.467 190.48C330.328 190.597 330.152 190.747 329.939 190.928L328.723 191.92L327.987 190.976L331.075 188.576H332.243V200ZM336.871 199.136C336.871 198.741 336.967 198.464 337.159 198.304C337.351 198.144 337.58 198.064 337.847 198.064C338.124 198.064 338.359 198.144 338.551 198.304C338.753 198.464 338.855 198.741 338.855 199.136C338.855 199.52 338.753 199.797 338.551 199.968C338.359 200.139 338.124 200.224 337.847 200.224C337.58 200.224 337.351 200.139 337.159 199.968C336.967 199.797 336.871 199.52 336.871 199.136Z" fill="#001A40"/>
<path d="M353.168 200H351.728V189.84H348.16V188.576H356.72V189.84H353.168V200ZM360.438 191.264C361.174 191.264 361.803 191.424 362.326 191.744C362.859 192.064 363.264 192.517 363.542 193.104C363.83 193.68 363.974 194.357 363.974 195.136V195.984H358.102C358.123 196.955 358.368 197.696 358.838 198.208C359.318 198.709 359.984 198.96 360.838 198.96C361.382 198.96 361.862 198.912 362.278 198.816C362.704 198.709 363.142 198.56 363.59 198.368V199.6C363.152 199.792 362.72 199.931 362.294 200.016C361.867 200.112 361.36 200.16 360.774 200.16C359.963 200.16 359.243 199.995 358.614 199.664C357.995 199.333 357.51 198.843 357.158 198.192C356.816 197.531 356.646 196.725 356.646 195.776C356.646 194.837 356.8 194.032 357.11 193.36C357.43 192.688 357.872 192.171 358.438 191.808C359.014 191.445 359.68 191.264 360.438 191.264ZM360.422 192.416C359.75 192.416 359.216 192.635 358.822 193.072C358.438 193.499 358.208 194.096 358.134 194.864H362.502C362.502 194.373 362.427 193.947 362.278 193.584C362.128 193.221 361.899 192.939 361.59 192.736C361.291 192.523 360.902 192.416 360.422 192.416ZM367.876 195.616L364.916 191.424H366.516L368.724 194.656L370.916 191.424H372.5L369.54 195.616L372.66 200H371.06L368.724 196.576L366.356 200H364.772L367.876 195.616ZM377.177 199.008C377.39 199.008 377.609 198.992 377.833 198.96C378.057 198.917 378.238 198.875 378.377 198.832V199.904C378.228 199.979 378.014 200.037 377.737 200.08C377.46 200.133 377.193 200.16 376.937 200.16C376.489 200.16 376.073 200.085 375.689 199.936C375.316 199.776 375.012 199.504 374.777 199.12C374.542 198.736 374.425 198.197 374.425 197.504V192.512H373.209V191.84L374.441 191.28L375.001 189.456H375.833V191.424H378.313V192.512H375.833V197.472C375.833 197.995 375.956 198.384 376.201 198.64C376.457 198.885 376.782 199.008 377.177 199.008Z" fill="#001A40"/>
<path d="M334.883 232H327.331V230.832L330.323 227.808C330.899 227.232 331.384 226.72 331.779 226.272C332.173 225.824 332.472 225.387 332.675 224.96C332.877 224.523 332.979 224.048 332.979 223.536C332.979 222.907 332.792 222.432 332.419 222.112C332.045 221.781 331.56 221.616 330.963 221.616C330.408 221.616 329.917 221.712 329.491 221.904C329.075 222.096 328.648 222.363 328.211 222.704L327.459 221.76C327.757 221.504 328.083 221.275 328.435 221.072C328.797 220.869 329.187 220.709 329.603 220.592C330.029 220.475 330.483 220.416 330.963 220.416C331.677 220.416 332.291 220.539 332.803 220.784C333.315 221.029 333.709 221.381 333.987 221.84C334.275 222.288 334.419 222.827 334.419 223.456C334.419 223.904 334.349 224.331 334.211 224.736C334.072 225.131 333.875 225.52 333.619 225.904C333.363 226.288 333.053 226.677 332.691 227.072C332.328 227.467 331.928 227.877 331.491 228.304L329.107 230.656V230.72H334.883V232ZM336.871 231.136C336.871 230.741 336.967 230.464 337.159 230.304C337.351 230.144 337.58 230.064 337.847 230.064C338.124 230.064 338.359 230.144 338.551 230.304C338.753 230.464 338.855 230.741 338.855 231.136C338.855 231.52 338.753 231.797 338.551 231.968C338.359 232.139 338.124 232.224 337.847 232.224C337.58 232.224 337.351 232.139 337.159 231.968C336.967 231.797 336.871 231.52 336.871 231.136Z" fill="#001A40"/>
<path d="M353.168 232H351.728V221.84H348.16V220.576H356.72V221.84H353.168V232ZM360.438 223.264C361.174 223.264 361.803 223.424 362.326 223.744C362.859 224.064 363.264 224.517 363.542 225.104C363.83 225.68 363.974 226.357 363.974 227.136V227.984H358.102C358.123 228.955 358.368 229.696 358.838 230.208C359.318 230.709 359.984 230.96 360.838 230.96C361.382 230.96 361.862 230.912 362.278 230.816C362.704 230.709 363.142 230.56 363.59 230.368V231.6C363.152 231.792 362.72 231.931 362.294 232.016C361.867 232.112 361.36 232.16 360.774 232.16C359.963 232.16 359.243 231.995 358.614 231.664C357.995 231.333 357.51 230.843 357.158 230.192C356.816 229.531 356.646 228.725 356.646 227.776C356.646 226.837 356.8 226.032 357.11 225.36C357.43 224.688 357.872 224.171 358.438 223.808C359.014 223.445 359.68 223.264 360.438 223.264ZM360.422 224.416C359.75 224.416 359.216 224.635 358.822 225.072C358.438 225.499 358.208 226.096 358.134 226.864H362.502C362.502 226.373 362.427 225.947 362.278 225.584C362.128 225.221 361.899 224.939 361.59 224.736C361.291 224.523 360.902 224.416 360.422 224.416ZM367.876 227.616L364.916 223.424H366.516L368.724 226.656L370.916 223.424H372.5L369.54 227.616L372.66 232H371.06L368.724 228.576L366.356 232H364.772L367.876 227.616ZM377.177 231.008C377.39 231.008 377.609 230.992 377.833 230.96C378.057 230.917 378.238 230.875 378.377 230.832V231.904C378.228 231.979 378.014 232.037 377.737 232.08C377.46 232.133 377.193 232.16 376.937 232.16C376.489 232.16 376.073 232.085 375.689 231.936C375.316 231.776 375.012 231.504 374.777 231.12C374.542 230.736 374.425 230.197 374.425 229.504V224.512H373.209V223.84L374.441 223.28L375.001 221.456H375.833V223.424H378.313V224.512H375.833V229.472C375.833 229.995 375.956 230.384 376.201 230.64C376.457 230.885 376.782 231.008 377.177 231.008Z" fill="#001A40"/>
<path d="M334.451 255.248C334.451 255.76 334.355 256.203 334.163 256.576C333.971 256.949 333.693 257.253 333.331 257.488C332.979 257.723 332.563 257.888 332.083 257.984V258.048C333 258.155 333.683 258.443 334.131 258.912C334.579 259.381 334.803 259.995 334.803 260.752C334.803 261.413 334.648 262.005 334.339 262.528C334.029 263.04 333.549 263.44 332.899 263.728C332.259 264.016 331.432 264.16 330.419 264.16C329.821 264.16 329.267 264.112 328.755 264.016C328.243 263.931 327.752 263.771 327.283 263.536V262.224C327.763 262.459 328.28 262.645 328.835 262.784C329.389 262.912 329.923 262.976 330.435 262.976C331.459 262.976 332.195 262.779 332.643 262.384C333.101 261.979 333.331 261.424 333.331 260.72C333.331 260.24 333.203 259.856 332.947 259.568C332.701 259.269 332.339 259.051 331.859 258.912C331.379 258.773 330.803 258.704 330.131 258.704H329.027V257.504H330.147C330.776 257.504 331.299 257.413 331.715 257.232C332.141 257.051 332.461 256.8 332.675 256.48C332.899 256.149 333.011 255.771 333.011 255.344C333.011 254.789 332.824 254.363 332.451 254.064C332.077 253.755 331.571 253.6 330.931 253.6C330.525 253.6 330.157 253.643 329.827 253.728C329.496 253.803 329.187 253.915 328.899 254.064C328.621 254.203 328.339 254.368 328.051 254.56L327.347 253.6C327.624 253.387 327.939 253.189 328.291 253.008C328.653 252.827 329.053 252.683 329.491 252.576C329.928 252.469 330.403 252.416 330.915 252.416C332.109 252.416 332.995 252.683 333.571 253.216C334.157 253.749 334.451 254.427 334.451 255.248ZM336.871 263.136C336.871 262.741 336.967 262.464 337.159 262.304C337.351 262.144 337.58 262.064 337.847 262.064C338.124 262.064 338.359 262.144 338.551 262.304C338.753 262.464 338.855 262.741 338.855 263.136C338.855 263.52 338.753 263.797 338.551 263.968C338.359 264.139 338.124 264.224 337.847 264.224C337.58 264.224 337.351 264.139 337.159 263.968C336.967 263.797 336.871 263.52 336.871 263.136Z" fill="#001A40"/>
<path d="M358.704 258.176C358.704 259.456 358.464 260.528 357.984 261.392C357.515 262.256 356.837 262.907 355.952 263.344C355.067 263.781 353.995 264 352.736 264H349.552V252.576H353.072C354.224 252.576 355.221 252.789 356.064 253.216C356.907 253.643 357.557 254.272 358.016 255.104C358.475 255.925 358.704 256.949 358.704 258.176ZM357.184 258.224C357.184 257.211 357.013 256.379 356.672 255.728C356.341 255.077 355.851 254.597 355.2 254.288C354.56 253.968 353.781 253.808 352.864 253.808H350.992V262.768H352.544C354.091 262.768 355.248 262.389 356.016 261.632C356.795 260.864 357.184 259.728 357.184 258.224ZM362.456 255.424V264H361.048V255.424H362.456ZM361.768 252.208C361.981 252.208 362.168 252.283 362.328 252.432C362.498 252.571 362.584 252.795 362.584 253.104C362.584 253.403 362.498 253.627 362.328 253.776C362.168 253.925 361.981 254 361.768 254C361.533 254 361.336 253.925 361.176 253.776C361.016 253.627 360.936 253.403 360.936 253.104C360.936 252.795 361.016 252.571 361.176 252.432C361.336 252.283 361.533 252.208 361.768 252.208ZM368.036 263.008C368.25 263.008 368.469 262.992 368.693 262.96C368.917 262.917 369.098 262.875 369.237 262.832V263.904C369.087 263.979 368.874 264.037 368.597 264.08C368.319 264.133 368.053 264.16 367.797 264.16C367.349 264.16 366.933 264.085 366.549 263.936C366.175 263.776 365.871 263.504 365.637 263.12C365.402 262.736 365.285 262.197 365.285 261.504V256.512H364.069V255.84L365.301 255.28L365.861 253.456H366.693V255.424H369.173V256.512H366.693V261.472C366.693 261.995 366.815 262.384 367.061 262.64C367.317 262.885 367.642 263.008 368.036 263.008ZM376.518 255.424V264H375.11V255.424H376.518ZM375.83 252.208C376.043 252.208 376.23 252.283 376.39 252.432C376.561 252.571 376.646 252.795 376.646 253.104C376.646 253.403 376.561 253.627 376.39 253.776C376.23 253.925 376.043 254 375.83 254C375.595 254 375.398 253.925 375.238 253.776C375.078 253.627 374.998 253.403 374.998 253.104C374.998 252.795 375.078 252.571 375.238 252.432C375.398 252.283 375.595 252.208 375.83 252.208ZM384.819 261.632C384.819 262.187 384.68 262.651 384.403 263.024C384.126 263.397 383.731 263.68 383.219 263.872C382.707 264.064 382.099 264.16 381.395 264.16C380.798 264.16 380.28 264.112 379.843 264.016C379.416 263.92 379.038 263.787 378.707 263.616V262.336C379.048 262.507 379.459 262.667 379.939 262.816C380.43 262.955 380.926 263.024 381.427 263.024C382.142 263.024 382.659 262.912 382.979 262.688C383.299 262.453 383.459 262.144 383.459 261.76C383.459 261.547 383.4 261.355 383.283 261.184C383.166 261.013 382.952 260.843 382.643 260.672C382.344 260.501 381.912 260.309 381.347 260.096C380.792 259.883 380.318 259.669 379.923 259.456C379.528 259.243 379.224 258.987 379.011 258.688C378.798 258.389 378.691 258.005 378.691 257.536C378.691 256.811 378.984 256.251 379.571 255.856C380.168 255.461 380.947 255.264 381.907 255.264C382.43 255.264 382.915 255.317 383.363 255.424C383.822 255.52 384.248 255.659 384.643 255.84L384.163 256.96C383.928 256.853 383.678 256.763 383.411 256.688C383.155 256.603 382.894 256.539 382.627 256.496C382.36 256.443 382.088 256.416 381.811 256.416C381.235 256.416 380.792 256.512 380.483 256.704C380.184 256.885 380.035 257.136 380.035 257.456C380.035 257.691 380.104 257.893 380.243 258.064C380.382 258.224 380.611 258.384 380.931 258.544C381.262 258.693 381.699 258.875 382.243 259.088C382.787 259.291 383.251 259.499 383.635 259.712C384.019 259.925 384.312 260.187 384.515 260.496C384.718 260.795 384.819 261.173 384.819 261.632ZM394.36 255.264C395.096 255.264 395.725 255.424 396.248 255.744C396.781 256.064 397.186 256.517 397.464 257.104C397.752 257.68 397.896 258.357 397.896 259.136V259.984H392.024C392.045 260.955 392.29 261.696 392.76 262.208C393.24 262.709 393.906 262.96 394.76 262.96C395.304 262.96 395.784 262.912 396.2 262.816C396.626 262.709 397.064 262.56 397.512 262.368V263.6C397.074 263.792 396.642 263.931 396.216 264.016C395.789 264.112 395.282 264.16 394.696 264.16C393.885 264.16 393.165 263.995 392.536 263.664C391.917 263.333 391.432 262.843 391.08 262.192C390.738 261.531 390.568 260.725 390.568 259.776C390.568 258.837 390.722 258.032 391.032 257.36C391.352 256.688 391.794 256.171 392.36 255.808C392.936 255.445 393.602 255.264 394.36 255.264ZM394.344 256.416C393.672 256.416 393.138 256.635 392.744 257.072C392.36 257.499 392.13 258.096 392.056 258.864H396.424C396.424 258.373 396.349 257.947 396.2 257.584C396.05 257.221 395.821 256.939 395.512 256.736C395.213 256.523 394.824 256.416 394.344 256.416ZM403.391 255.264C404.127 255.264 404.756 255.424 405.279 255.744C405.812 256.064 406.217 256.517 406.495 257.104C406.783 257.68 406.927 258.357 406.927 259.136V259.984H401.055C401.076 260.955 401.321 261.696 401.791 262.208C402.271 262.709 402.937 262.96 403.791 262.96C404.335 262.96 404.815 262.912 405.231 262.816C405.657 262.709 406.095 262.56 406.543 262.368V263.6C406.105 263.792 405.673 263.931 405.247 264.016C404.82 264.112 404.313 264.16 403.727 264.16C402.916 264.16 402.196 263.995 401.567 263.664C400.948 263.333 400.463 262.843 400.111 262.192C399.769 261.531 399.599 260.725 399.599 259.776C399.599 258.837 399.753 258.032 400.063 257.36C400.383 256.688 400.825 256.171 401.391 255.808C401.967 255.445 402.633 255.264 403.391 255.264ZM403.375 256.416C402.703 256.416 402.169 256.635 401.775 257.072C401.391 257.499 401.161 258.096 401.087 258.864H405.455C405.455 258.373 405.38 257.947 405.231 257.584C405.081 257.221 404.852 256.939 404.543 256.736C404.244 256.523 403.855 256.416 403.375 256.416ZM413.238 255.264C414.262 255.264 415.035 255.515 415.558 256.016C416.081 256.507 416.342 257.307 416.342 258.416V264H414.95V258.512C414.95 257.819 414.795 257.301 414.486 256.96C414.177 256.619 413.691 256.448 413.03 256.448C412.081 256.448 411.425 256.715 411.062 257.248C410.699 257.781 410.518 258.549 410.518 259.552V264H409.11V255.424H410.246L410.454 256.592H410.534C410.726 256.293 410.961 256.048 411.238 255.856C411.526 255.653 411.841 255.504 412.182 255.408C412.523 255.312 412.875 255.264 413.238 255.264ZM425.045 264L421.797 255.424H423.301L425.125 260.48C425.21 260.715 425.301 260.976 425.397 261.264C425.493 261.552 425.578 261.829 425.653 262.096C425.728 262.352 425.781 262.571 425.813 262.752H425.877C425.92 262.571 425.978 262.347 426.053 262.08C426.138 261.813 426.229 261.536 426.325 261.248C426.432 260.96 426.522 260.704 426.597 260.48L428.421 255.424H429.925L426.661 264H425.045ZM438.738 259.696C438.738 260.411 438.642 261.045 438.45 261.6C438.269 262.144 438.002 262.608 437.65 262.992C437.309 263.376 436.887 263.669 436.386 263.872C435.895 264.064 435.346 264.16 434.738 264.16C434.173 264.16 433.65 264.064 433.17 263.872C432.69 263.669 432.274 263.376 431.922 262.992C431.57 262.608 431.293 262.144 431.09 261.6C430.898 261.045 430.802 260.411 430.802 259.696C430.802 258.747 430.962 257.947 431.282 257.296C431.602 256.635 432.061 256.133 432.658 255.792C433.255 255.44 433.965 255.264 434.786 255.264C435.565 255.264 436.247 255.44 436.834 255.792C437.431 256.133 437.895 256.635 438.226 257.296C438.567 257.947 438.738 258.747 438.738 259.696ZM432.258 259.696C432.258 260.368 432.343 260.955 432.514 261.456C432.695 261.947 432.973 262.325 433.346 262.592C433.719 262.859 434.194 262.992 434.77 262.992C435.346 262.992 435.821 262.859 436.194 262.592C436.567 262.325 436.839 261.947 437.01 261.456C437.191 260.955 437.282 260.368 437.282 259.696C437.282 259.013 437.191 258.432 437.01 257.952C436.829 257.472 436.551 257.104 436.178 256.848C435.815 256.581 435.341 256.448 434.754 256.448C433.879 256.448 433.245 256.736 432.85 257.312C432.455 257.888 432.258 258.683 432.258 259.696ZM448.425 259.696C448.425 260.411 448.329 261.045 448.137 261.6C447.956 262.144 447.689 262.608 447.337 262.992C446.996 263.376 446.575 263.669 446.073 263.872C445.583 264.064 445.033 264.16 444.425 264.16C443.86 264.16 443.337 264.064 442.857 263.872C442.377 263.669 441.961 263.376 441.609 262.992C441.257 262.608 440.98 262.144 440.777 261.6C440.585 261.045 440.489 260.411 440.489 259.696C440.489 258.747 440.649 257.947 440.969 257.296C441.289 256.635 441.748 256.133 442.345 255.792C442.943 255.44 443.652 255.264 444.473 255.264C445.252 255.264 445.935 255.44 446.521 255.792C447.119 256.133 447.583 256.635 447.913 257.296C448.255 257.947 448.425 258.747 448.425 259.696ZM441.945 259.696C441.945 260.368 442.031 260.955 442.201 261.456C442.383 261.947 442.66 262.325 443.033 262.592C443.407 262.859 443.881 262.992 444.457 262.992C445.033 262.992 445.508 262.859 445.881 262.592C446.255 262.325 446.527 261.947 446.697 261.456C446.879 260.955 446.969 260.368 446.969 259.696C446.969 259.013 446.879 258.432 446.697 257.952C446.516 257.472 446.239 257.104 445.865 256.848C445.503 256.581 445.028 256.448 444.441 256.448C443.567 256.448 442.932 256.736 442.537 257.312C442.143 257.888 441.945 258.683 441.945 259.696ZM454.657 255.264C454.817 255.264 454.988 255.275 455.169 255.296C455.361 255.307 455.526 255.328 455.665 255.36L455.489 256.656C455.35 256.624 455.196 256.597 455.025 256.576C454.865 256.555 454.71 256.544 454.561 256.544C454.23 256.544 453.916 256.613 453.617 256.752C453.318 256.891 453.052 257.088 452.817 257.344C452.582 257.589 452.396 257.888 452.257 258.24C452.129 258.592 452.065 258.987 452.065 259.424V264H450.657V255.424H451.809L451.969 256.992H452.033C452.214 256.672 452.433 256.384 452.689 256.128C452.945 255.861 453.238 255.653 453.569 255.504C453.9 255.344 454.262 255.264 454.657 255.264ZM458.674 254.8C458.674 255.163 458.664 255.504 458.642 255.824C458.632 256.133 458.616 256.379 458.594 256.56H458.674C458.92 256.197 459.256 255.893 459.682 255.648C460.109 255.403 460.658 255.28 461.33 255.28C462.397 255.28 463.25 255.653 463.89 256.4C464.541 257.136 464.866 258.24 464.866 259.712C464.866 260.693 464.717 261.515 464.418 262.176C464.13 262.837 463.72 263.333 463.186 263.664C462.653 263.995 462.034 264.16 461.33 264.16C460.658 264.16 460.109 264.037 459.682 263.792C459.256 263.547 458.92 263.253 458.674 262.912H458.562L458.274 264H457.266V251.84H458.674V254.8ZM461.09 256.448C460.482 256.448 460.002 256.565 459.65 256.8C459.298 257.024 459.048 257.376 458.898 257.856C458.749 258.325 458.674 258.928 458.674 259.664V259.728C458.674 260.784 458.845 261.595 459.186 262.16C459.538 262.715 460.184 262.992 461.122 262.992C461.89 262.992 462.461 262.709 462.834 262.144C463.218 261.579 463.41 260.763 463.41 259.696C463.41 258.619 463.218 257.808 462.834 257.264C462.461 256.72 461.88 256.448 461.09 256.448ZM470.422 255.264C471.158 255.264 471.787 255.424 472.31 255.744C472.843 256.064 473.249 256.517 473.526 257.104C473.814 257.68 473.958 258.357 473.958 259.136V259.984H468.086C468.107 260.955 468.353 261.696 468.822 262.208C469.302 262.709 469.969 262.96 470.822 262.96C471.366 262.96 471.846 262.912 472.262 262.816C472.689 262.709 473.126 262.56 473.574 262.368V263.6C473.137 263.792 472.705 263.931 472.278 264.016C471.851 264.112 471.345 264.16 470.758 264.16C469.947 264.16 469.227 263.995 468.598 263.664C467.979 263.333 467.494 262.843 467.142 262.192C466.801 261.531 466.63 260.725 466.63 259.776C466.63 258.837 466.785 258.032 467.094 257.36C467.414 256.688 467.857 256.171 468.422 255.808C468.998 255.445 469.665 255.264 470.422 255.264ZM470.406 256.416C469.734 256.416 469.201 256.635 468.806 257.072C468.422 257.499 468.193 258.096 468.118 258.864H472.486C472.486 258.373 472.411 257.947 472.262 257.584C472.113 257.221 471.883 256.939 471.574 256.736C471.275 256.523 470.886 256.416 470.406 256.416ZM479.453 255.264C480.189 255.264 480.819 255.424 481.341 255.744C481.875 256.064 482.28 256.517 482.557 257.104C482.845 257.68 482.989 258.357 482.989 259.136V259.984H477.117C477.139 260.955 477.384 261.696 477.853 262.208C478.333 262.709 479 262.96 479.853 262.96C480.397 262.96 480.877 262.912 481.293 262.816C481.72 262.709 482.157 262.56 482.605 262.368V263.6C482.168 263.792 481.736 263.931 481.309 264.016C480.883 264.112 480.376 264.16 479.789 264.16C478.979 264.16 478.259 263.995 477.629 263.664C477.011 263.333 476.525 262.843 476.173 262.192C475.832 261.531 475.661 260.725 475.661 259.776C475.661 258.837 475.816 258.032 476.125 257.36C476.445 256.688 476.888 256.171 477.453 255.808C478.029 255.445 478.696 255.264 479.453 255.264ZM479.437 256.416C478.765 256.416 478.232 256.635 477.837 257.072C477.453 257.499 477.224 258.096 477.149 258.864H481.517C481.517 258.373 481.443 257.947 481.293 257.584C481.144 257.221 480.915 256.939 480.605 256.736C480.307 256.523 479.917 256.416 479.437 256.416ZM486.581 264H485.173V251.84H486.581V264ZM492.338 264.16C491.271 264.16 490.418 263.792 489.778 263.056C489.138 262.309 488.818 261.2 488.818 259.728C488.818 258.256 489.138 257.147 489.778 256.4C490.428 255.643 491.287 255.264 492.354 255.264C492.802 255.264 493.191 255.323 493.522 255.44C493.852 255.547 494.14 255.696 494.386 255.888C494.631 256.08 494.839 256.293 495.01 256.528H495.106C495.095 256.389 495.074 256.187 495.042 255.92C495.02 255.643 495.01 255.424 495.01 255.264V251.84H496.418V264H495.282L495.074 262.848H495.01C494.839 263.093 494.631 263.317 494.386 263.52C494.14 263.712 493.847 263.867 493.506 263.984C493.175 264.101 492.786 264.16 492.338 264.16ZM492.562 262.992C493.468 262.992 494.103 262.747 494.466 262.256C494.839 261.755 495.026 261.003 495.026 260V259.744C495.026 258.677 494.85 257.861 494.498 257.296C494.146 256.72 493.495 256.432 492.546 256.432C491.788 256.432 491.218 256.736 490.834 257.344C490.46 257.941 490.274 258.747 490.274 259.76C490.274 260.784 490.46 261.579 490.834 262.144C491.218 262.709 491.794 262.992 492.562 262.992ZM505.186 264L501.938 255.424H503.442L505.266 260.48C505.351 260.715 505.442 260.976 505.538 261.264C505.634 261.552 505.719 261.829 505.794 262.096C505.868 262.352 505.922 262.571 505.954 262.752H506.018C506.06 262.571 506.119 262.347 506.194 262.08C506.279 261.813 506.37 261.536 506.466 261.248C506.572 260.96 506.663 260.704 506.738 260.48L508.562 255.424H510.066L506.802 264H505.186ZM514.671 255.28C515.716 255.28 516.489 255.509 516.991 255.968C517.492 256.427 517.743 257.157 517.743 258.16V264H516.719L516.447 262.784H516.383C516.137 263.093 515.881 263.355 515.615 263.568C515.359 263.771 515.06 263.92 514.719 264.016C514.388 264.112 513.983 264.16 513.503 264.16C512.991 264.16 512.527 264.069 512.111 263.888C511.705 263.707 511.385 263.429 511.151 263.056C510.916 262.672 510.799 262.192 510.799 261.616C510.799 260.763 511.135 260.107 511.807 259.648C512.479 259.179 513.513 258.923 514.911 258.88L516.367 258.832V258.32C516.367 257.605 516.212 257.109 515.903 256.832C515.593 256.555 515.156 256.416 514.591 256.416C514.143 256.416 513.716 256.485 513.311 256.624C512.905 256.752 512.527 256.901 512.174 257.072L511.743 256.016C512.116 255.813 512.559 255.643 513.071 255.504C513.583 255.355 514.116 255.28 514.671 255.28ZM515.087 259.856C514.02 259.899 513.279 260.069 512.863 260.368C512.457 260.667 512.255 261.088 512.255 261.632C512.255 262.112 512.399 262.464 512.687 262.688C512.985 262.912 513.364 263.024 513.823 263.024C514.548 263.024 515.151 262.827 515.631 262.432C516.111 262.027 516.351 261.408 516.351 260.576V259.808L515.087 259.856ZM524.519 255.264C525.543 255.264 526.317 255.515 526.839 256.016C527.362 256.507 527.623 257.307 527.623 258.416V264H526.231V258.512C526.231 257.819 526.077 257.301 525.767 256.96C525.458 256.619 524.973 256.448 524.311 256.448C523.362 256.448 522.706 256.715 522.343 257.248C521.981 257.781 521.799 258.549 521.799 259.552V264H520.391V255.424H521.527L521.735 256.592H521.815C522.007 256.293 522.242 256.048 522.519 255.856C522.807 255.653 523.122 255.504 523.463 255.408C523.805 255.312 524.157 255.264 524.519 255.264ZM537.75 255.264C538.486 255.264 539.115 255.424 539.638 255.744C540.171 256.064 540.577 256.517 540.854 257.104C541.142 257.68 541.286 258.357 541.286 259.136V259.984H535.414C535.435 260.955 535.681 261.696 536.15 262.208C536.63 262.709 537.297 262.96 538.15 262.96C538.694 262.96 539.174 262.912 539.59 262.816C540.017 262.709 540.454 262.56 540.902 262.368V263.6C540.465 263.792 540.033 263.931 539.606 264.016C539.179 264.112 538.673 264.16 538.086 264.16C537.275 264.16 536.555 263.995 535.926 263.664C535.307 263.333 534.822 262.843 534.47 262.192C534.129 261.531 533.958 260.725 533.958 259.776C533.958 258.837 534.113 258.032 534.422 257.36C534.742 256.688 535.185 256.171 535.75 255.808C536.326 255.445 536.993 255.264 537.75 255.264ZM537.734 256.416C537.062 256.416 536.529 256.635 536.134 257.072C535.75 257.499 535.521 258.096 535.446 258.864H539.814C539.814 258.373 539.739 257.947 539.59 257.584C539.441 257.221 539.211 256.939 538.902 256.736C538.603 256.523 538.214 256.416 537.734 256.416ZM546.781 255.264C547.517 255.264 548.147 255.424 548.669 255.744C549.203 256.064 549.608 256.517 549.885 257.104C550.173 257.68 550.317 258.357 550.317 259.136V259.984H544.445C544.467 260.955 544.712 261.696 545.181 262.208C545.661 262.709 546.328 262.96 547.181 262.96C547.725 262.96 548.205 262.912 548.621 262.816C549.048 262.709 549.485 262.56 549.933 262.368V263.6C549.496 263.792 549.064 263.931 548.637 264.016C548.211 264.112 547.704 264.16 547.117 264.16C546.307 264.16 545.587 263.995 544.957 263.664C544.339 263.333 543.853 262.843 543.501 262.192C543.16 261.531 542.989 260.725 542.989 259.776C542.989 258.837 543.144 258.032 543.453 257.36C543.773 256.688 544.216 256.171 544.781 255.808C545.357 255.445 546.024 255.264 546.781 255.264ZM546.765 256.416C546.093 256.416 545.56 256.635 545.165 257.072C544.781 257.499 544.552 258.096 544.477 258.864H548.845C548.845 258.373 548.771 257.947 548.621 257.584C548.472 257.221 548.243 256.939 547.933 256.736C547.635 256.523 547.245 256.416 546.765 256.416ZM556.629 255.264C557.653 255.264 558.426 255.515 558.949 256.016C559.471 256.507 559.733 257.307 559.733 258.416V264H558.341V258.512C558.341 257.819 558.186 257.301 557.877 256.96C557.567 256.619 557.082 256.448 556.421 256.448C555.471 256.448 554.815 256.715 554.453 257.248C554.09 257.781 553.909 258.549 553.909 259.552V264H552.501V255.424H553.637L553.845 256.592H553.925C554.117 256.293 554.351 256.048 554.629 255.856C554.917 255.653 555.231 255.504 555.573 255.408C555.914 255.312 556.266 255.264 556.629 255.264ZM566.74 264V252.576H568.18V262.72H573.172V264H566.74ZM576.346 255.424V264H574.938V255.424H576.346ZM575.658 252.208C575.871 252.208 576.058 252.283 576.218 252.432C576.389 252.571 576.474 252.795 576.474 253.104C576.474 253.403 576.389 253.627 576.218 253.776C576.058 253.925 575.871 254 575.658 254C575.423 254 575.226 253.925 575.066 253.776C574.906 253.627 574.826 253.403 574.826 253.104C574.826 252.795 574.906 252.571 575.066 252.432C575.226 252.283 575.423 252.208 575.658 252.208ZM584.647 261.632C584.647 262.187 584.508 262.651 584.231 263.024C583.954 263.397 583.559 263.68 583.047 263.872C582.535 264.064 581.927 264.16 581.223 264.16C580.626 264.16 580.108 264.112 579.671 264.016C579.244 263.92 578.866 263.787 578.535 263.616V262.336C578.876 262.507 579.287 262.667 579.767 262.816C580.258 262.955 580.754 263.024 581.255 263.024C581.97 263.024 582.487 262.912 582.807 262.688C583.127 262.453 583.287 262.144 583.287 261.76C583.287 261.547 583.228 261.355 583.111 261.184C582.994 261.013 582.78 260.843 582.471 260.672C582.172 260.501 581.74 260.309 581.175 260.096C580.62 259.883 580.146 259.669 579.751 259.456C579.356 259.243 579.052 258.987 578.839 258.688C578.626 258.389 578.519 258.005 578.519 257.536C578.519 256.811 578.812 256.251 579.399 255.856C579.996 255.461 580.775 255.264 581.735 255.264C582.258 255.264 582.743 255.317 583.191 255.424C583.65 255.52 584.076 255.659 584.471 255.84L583.991 256.96C583.756 256.853 583.506 256.763 583.239 256.688C582.983 256.603 582.722 256.539 582.455 256.496C582.188 256.443 581.916 256.416 581.639 256.416C581.063 256.416 580.62 256.512 580.311 256.704C580.012 256.885 579.863 257.136 579.863 257.456C579.863 257.691 579.932 257.893 580.071 258.064C580.21 258.224 580.439 258.384 580.759 258.544C581.09 258.693 581.527 258.875 582.071 259.088C582.615 259.291 583.079 259.499 583.463 259.712C583.847 259.925 584.14 260.187 584.343 260.496C584.546 260.795 584.647 261.173 584.647 261.632ZM589.583 263.008C589.797 263.008 590.015 262.992 590.239 262.96C590.463 262.917 590.645 262.875 590.783 262.832V263.904C590.634 263.979 590.421 264.037 590.143 264.08C589.866 264.133 589.599 264.16 589.343 264.16C588.895 264.16 588.479 264.085 588.095 263.936C587.722 263.776 587.418 263.504 587.183 263.12C586.949 262.736 586.831 262.197 586.831 261.504V256.512H585.615V255.84L586.847 255.28L587.407 253.456H588.239V255.424H590.719V256.512H588.239V261.472C588.239 261.995 588.362 262.384 588.607 262.64C588.863 262.885 589.189 263.008 589.583 263.008ZM352.768 288H348.64V287.168L349.984 286.864V277.728L348.64 277.408V276.576H352.768V277.408L351.424 277.728V286.864L352.768 287.168V288ZM357.646 287.008C357.859 287.008 358.078 286.992 358.302 286.96C358.526 286.917 358.707 286.875 358.846 286.832V287.904C358.697 287.979 358.483 288.037 358.206 288.08C357.929 288.133 357.662 288.16 357.406 288.16C356.958 288.16 356.542 288.085 356.158 287.936C355.785 287.776 355.481 287.504 355.246 287.12C355.011 286.736 354.894 286.197 354.894 285.504V280.512H353.678V279.84L354.91 279.28L355.47 277.456H356.302V279.424H358.782V280.512H356.302V285.472C356.302 285.995 356.425 286.384 356.67 286.64C356.926 286.885 357.251 287.008 357.646 287.008ZM363.875 279.264C364.611 279.264 365.24 279.424 365.763 279.744C366.296 280.064 366.702 280.517 366.979 281.104C367.267 281.68 367.411 282.357 367.411 283.136V283.984H361.539C361.56 284.955 361.806 285.696 362.275 286.208C362.755 286.709 363.422 286.96 364.275 286.96C364.819 286.96 365.299 286.912 365.715 286.816C366.142 286.709 366.579 286.56 367.027 286.368V287.6C366.59 287.792 366.158 287.931 365.731 288.016C365.304 288.112 364.798 288.16 364.211 288.16C363.4 288.16 362.68 287.995 362.051 287.664C361.432 287.333 360.947 286.843 360.595 286.192C360.254 285.531 360.083 284.725 360.083 283.776C360.083 282.837 360.238 282.032 360.547 281.36C360.867 280.688 361.31 280.171 361.875 279.808C362.451 279.445 363.118 279.264 363.875 279.264ZM363.859 280.416C363.187 280.416 362.654 280.635 362.259 281.072C361.875 281.499 361.646 282.096 361.571 282.864H365.939C365.939 282.373 365.864 281.947 365.715 281.584C365.566 281.221 365.336 280.939 365.027 280.736C364.728 280.523 364.339 280.416 363.859 280.416ZM379.002 279.264C379.973 279.264 380.698 279.515 381.178 280.016C381.658 280.507 381.898 281.307 381.898 282.416V288H380.506V282.48C380.506 281.808 380.362 281.301 380.074 280.96C379.797 280.619 379.36 280.448 378.762 280.448C377.93 280.448 377.333 280.688 376.97 281.168C376.618 281.648 376.442 282.347 376.442 283.264V288H375.05V282.48C375.05 282.032 374.986 281.659 374.858 281.36C374.73 281.051 374.538 280.821 374.282 280.672C374.026 280.523 373.696 280.448 373.29 280.448C372.714 280.448 372.261 280.571 371.93 280.816C371.6 281.051 371.36 281.397 371.21 281.856C371.072 282.315 371.002 282.88 371.002 283.552V288H369.594V279.424H370.73L370.938 280.592H371.018C371.2 280.293 371.418 280.048 371.674 279.856C371.941 279.653 372.234 279.504 372.554 279.408C372.874 279.312 373.205 279.264 373.546 279.264C374.208 279.264 374.757 279.381 375.194 279.616C375.642 279.851 375.968 280.213 376.17 280.704H376.25C376.538 280.213 376.928 279.851 377.418 279.616C377.92 279.381 378.448 279.264 379.002 279.264ZM390.112 279.424V288H388.704V279.424H390.112ZM389.424 276.208C389.637 276.208 389.824 276.283 389.984 276.432C390.154 276.571 390.24 276.795 390.24 277.104C390.24 277.403 390.154 277.627 389.984 277.776C389.824 277.925 389.637 278 389.424 278C389.189 278 388.992 277.925 388.832 277.776C388.672 277.627 388.592 277.403 388.592 277.104C388.592 276.795 388.672 276.571 388.832 276.432C388.992 276.283 389.189 276.208 389.424 276.208ZM396.957 279.264C397.981 279.264 398.754 279.515 399.277 280.016C399.799 280.507 400.061 281.307 400.061 282.416V288H398.669V282.512C398.669 281.819 398.514 281.301 398.205 280.96C397.895 280.619 397.41 280.448 396.749 280.448C395.799 280.448 395.143 280.715 394.781 281.248C394.418 281.781 394.237 282.549 394.237 283.552V288H392.829V279.424H393.965L394.173 280.592H394.253C394.445 280.293 394.679 280.048 394.957 279.856C395.245 279.653 395.559 279.504 395.901 279.408C396.242 279.312 396.594 279.264 396.957 279.264ZM410.188 279.264C410.924 279.264 411.553 279.424 412.076 279.744C412.609 280.064 413.014 280.517 413.292 281.104C413.58 281.68 413.724 282.357 413.724 283.136V283.984H407.852C407.873 284.955 408.118 285.696 408.588 286.208C409.068 286.709 409.734 286.96 410.588 286.96C411.132 286.96 411.612 286.912 412.028 286.816C412.454 286.709 412.892 286.56 413.34 286.368V287.6C412.902 287.792 412.47 287.931 412.044 288.016C411.617 288.112 411.11 288.16 410.524 288.16C409.713 288.16 408.993 287.995 408.364 287.664C407.745 287.333 407.26 286.843 406.908 286.192C406.566 285.531 406.396 284.725 406.396 283.776C406.396 282.837 406.55 282.032 406.86 281.36C407.18 280.688 407.622 280.171 408.188 279.808C408.764 279.445 409.43 279.264 410.188 279.264ZM410.172 280.416C409.5 280.416 408.966 280.635 408.572 281.072C408.188 281.499 407.958 282.096 407.884 282.864H412.252C412.252 282.373 412.177 281.947 412.028 281.584C411.878 281.221 411.649 280.939 411.34 280.736C411.041 280.523 410.652 280.416 410.172 280.416ZM419.219 279.264C419.955 279.264 420.584 279.424 421.107 279.744C421.64 280.064 422.046 280.517 422.323 281.104C422.611 281.68 422.755 282.357 422.755 283.136V283.984H416.883C416.904 284.955 417.15 285.696 417.619 286.208C418.099 286.709 418.766 286.96 419.619 286.96C420.163 286.96 420.643 286.912 421.059 286.816C421.486 286.709 421.923 286.56 422.371 286.368V287.6C421.934 287.792 421.502 287.931 421.075 288.016C420.648 288.112 420.142 288.16 419.555 288.16C418.744 288.16 418.024 287.995 417.395 287.664C416.776 287.333 416.291 286.843 415.939 286.192C415.598 285.531 415.427 284.725 415.427 283.776C415.427 282.837 415.582 282.032 415.891 281.36C416.211 280.688 416.654 280.171 417.219 279.808C417.795 279.445 418.462 279.264 419.219 279.264ZM419.203 280.416C418.531 280.416 417.998 280.635 417.603 281.072C417.219 281.499 416.99 282.096 416.915 282.864H421.283C421.283 282.373 421.208 281.947 421.059 281.584C420.91 281.221 420.68 280.939 420.371 280.736C420.072 280.523 419.683 280.416 419.203 280.416ZM429.066 279.264C430.09 279.264 430.863 279.515 431.386 280.016C431.909 280.507 432.17 281.307 432.17 282.416V288H430.778V282.512C430.778 281.819 430.623 281.301 430.314 280.96C430.005 280.619 429.519 280.448 428.858 280.448C427.909 280.448 427.253 280.715 426.89 281.248C426.527 281.781 426.346 282.549 426.346 283.552V288H424.938V279.424H426.074L426.282 280.592H426.362C426.554 280.293 426.789 280.048 427.066 279.856C427.354 279.653 427.669 279.504 428.01 279.408C428.351 279.312 428.703 279.264 429.066 279.264ZM449.145 282.272C449.145 283.157 449.033 283.963 448.809 284.688C448.585 285.403 448.249 286.021 447.801 286.544C447.364 287.067 446.814 287.467 446.153 287.744C445.502 288.021 444.745 288.16 443.881 288.16C442.985 288.16 442.206 288.021 441.545 287.744C440.884 287.456 440.334 287.056 439.897 286.544C439.46 286.021 439.134 285.397 438.921 284.672C438.708 283.947 438.601 283.141 438.601 282.256C438.601 281.083 438.793 280.059 439.177 279.184C439.561 278.309 440.142 277.627 440.921 277.136C441.71 276.645 442.702 276.4 443.897 276.4C445.038 276.4 445.998 276.645 446.777 277.136C447.556 277.616 448.142 278.299 448.537 279.184C448.942 280.059 449.145 281.088 449.145 282.272ZM440.121 282.272C440.121 283.232 440.254 284.059 440.521 284.752C440.788 285.445 441.198 285.979 441.753 286.352C442.318 286.725 443.028 286.912 443.881 286.912C444.745 286.912 445.449 286.725 445.993 286.352C446.548 285.979 446.958 285.445 447.225 284.752C447.492 284.059 447.625 283.232 447.625 282.272C447.625 280.832 447.326 279.707 446.729 278.896C446.132 278.075 445.188 277.664 443.897 277.664C443.033 277.664 442.318 277.851 441.753 278.224C441.198 278.587 440.788 279.115 440.521 279.808C440.254 280.491 440.121 281.312 440.121 282.272ZM455.485 279.264C455.645 279.264 455.816 279.275 455.997 279.296C456.189 279.307 456.354 279.328 456.493 279.36L456.317 280.656C456.178 280.624 456.024 280.597 455.853 280.576C455.693 280.555 455.538 280.544 455.389 280.544C455.058 280.544 454.744 280.613 454.445 280.752C454.146 280.891 453.88 281.088 453.645 281.344C453.41 281.589 453.224 281.888 453.085 282.24C452.957 282.592 452.893 282.987 452.893 283.424V288H451.485V279.424H452.637L452.797 280.992H452.861C453.042 280.672 453.261 280.384 453.517 280.128C453.773 279.861 454.066 279.653 454.397 279.504C454.728 279.344 455.09 279.264 455.485 279.264ZM460.822 288.16C459.755 288.16 458.902 287.792 458.262 287.056C457.622 286.309 457.302 285.2 457.302 283.728C457.302 282.256 457.622 281.147 458.262 280.4C458.913 279.643 459.771 279.264 460.838 279.264C461.286 279.264 461.675 279.323 462.006 279.44C462.337 279.547 462.625 279.696 462.87 279.888C463.115 280.08 463.323 280.293 463.494 280.528H463.59C463.579 280.389 463.558 280.187 463.526 279.92C463.505 279.643 463.494 279.424 463.494 279.264V275.84H464.902V288H463.766L463.558 286.848H463.494C463.323 287.093 463.115 287.317 462.87 287.52C462.625 287.712 462.331 287.867 461.99 287.984C461.659 288.101 461.27 288.16 460.822 288.16ZM461.046 286.992C461.953 286.992 462.587 286.747 462.95 286.256C463.323 285.755 463.51 285.003 463.51 284V283.744C463.51 282.677 463.334 281.861 462.982 281.296C462.63 280.72 461.979 280.432 461.03 280.432C460.273 280.432 459.702 280.736 459.318 281.344C458.945 281.941 458.758 282.747 458.758 283.76C458.758 284.784 458.945 285.579 459.318 286.144C459.702 286.709 460.278 286.992 461.046 286.992ZM470.938 279.264C471.674 279.264 472.303 279.424 472.826 279.744C473.359 280.064 473.764 280.517 474.042 281.104C474.33 281.68 474.474 282.357 474.474 283.136V283.984H468.602C468.623 284.955 468.868 285.696 469.338 286.208C469.818 286.709 470.484 286.96 471.338 286.96C471.882 286.96 472.362 286.912 472.778 286.816C473.204 286.709 473.642 286.56 474.09 286.368V287.6C473.652 287.792 473.22 287.931 472.794 288.016C472.367 288.112 471.86 288.16 471.274 288.16C470.463 288.16 469.743 287.995 469.114 287.664C468.495 287.333 468.01 286.843 467.658 286.192C467.316 285.531 467.146 284.725 467.146 283.776C467.146 282.837 467.3 282.032 467.61 281.36C467.93 280.688 468.372 280.171 468.938 279.808C469.514 279.445 470.18 279.264 470.938 279.264ZM470.922 280.416C470.25 280.416 469.716 280.635 469.322 281.072C468.938 281.499 468.708 282.096 468.634 282.864H473.002C473.002 282.373 472.927 281.947 472.778 281.584C472.628 281.221 472.399 280.939 472.09 280.736C471.791 280.523 471.402 280.416 470.922 280.416ZM480.657 279.264C480.817 279.264 480.988 279.275 481.169 279.296C481.361 279.307 481.526 279.328 481.665 279.36L481.489 280.656C481.35 280.624 481.196 280.597 481.025 280.576C480.865 280.555 480.71 280.544 480.561 280.544C480.23 280.544 479.916 280.613 479.617 280.752C479.318 280.891 479.052 281.088 478.817 281.344C478.582 281.589 478.396 281.888 478.257 282.24C478.129 282.592 478.065 282.987 478.065 283.424V288H476.657V279.424H477.809L477.969 280.992H478.033C478.214 280.672 478.433 280.384 478.689 280.128C478.945 279.861 479.238 279.653 479.569 279.504C479.9 279.344 480.262 279.264 480.657 279.264ZM486.266 279.264C487.002 279.264 487.631 279.424 488.154 279.744C488.687 280.064 489.092 280.517 489.37 281.104C489.658 281.68 489.802 282.357 489.802 283.136V283.984H483.93C483.951 284.955 484.196 285.696 484.666 286.208C485.146 286.709 485.812 286.96 486.666 286.96C487.21 286.96 487.69 286.912 488.106 286.816C488.532 286.709 488.97 286.56 489.418 286.368V287.6C488.98 287.792 488.548 287.931 488.122 288.016C487.695 288.112 487.188 288.16 486.602 288.16C485.791 288.16 485.071 287.995 484.442 287.664C483.823 287.333 483.338 286.843 482.986 286.192C482.644 285.531 482.474 284.725 482.474 283.776C482.474 282.837 482.628 282.032 482.938 281.36C483.258 280.688 483.7 280.171 484.266 279.808C484.842 279.445 485.508 279.264 486.266 279.264ZM486.25 280.416C485.578 280.416 485.044 280.635 484.65 281.072C484.266 281.499 484.036 282.096 483.962 282.864H488.33C488.33 282.373 488.255 281.947 488.106 281.584C487.956 281.221 487.727 280.939 487.418 280.736C487.119 280.523 486.73 280.416 486.25 280.416ZM495.025 288.16C493.958 288.16 493.105 287.792 492.465 287.056C491.825 286.309 491.505 285.2 491.505 283.728C491.505 282.256 491.825 281.147 492.465 280.4C493.116 279.643 493.974 279.264 495.041 279.264C495.489 279.264 495.878 279.323 496.209 279.44C496.54 279.547 496.828 279.696 497.073 279.888C497.318 280.08 497.526 280.293 497.697 280.528H497.793C497.782 280.389 497.761 280.187 497.729 279.92C497.708 279.643 497.697 279.424 497.697 279.264V275.84H499.105V288H497.969L497.761 286.848H497.697C497.526 287.093 497.318 287.317 497.073 287.52C496.828 287.712 496.534 287.867 496.193 287.984C495.862 288.101 495.473 288.16 495.025 288.16ZM495.249 286.992C496.156 286.992 496.79 286.747 497.153 286.256C497.526 285.755 497.713 285.003 497.713 284V283.744C497.713 282.677 497.537 281.861 497.185 281.296C496.833 280.72 496.182 280.432 495.233 280.432C494.476 280.432 493.905 280.736 493.521 281.344C493.148 281.941 492.961 282.747 492.961 283.76C492.961 284.784 493.148 285.579 493.521 286.144C493.905 286.709 494.481 286.992 495.249 286.992ZM506.177 288V276.576H507.617V286.72H512.609V288H506.177ZM515.784 279.424V288H514.376V279.424H515.784ZM515.096 276.208C515.309 276.208 515.496 276.283 515.656 276.432C515.826 276.571 515.912 276.795 515.912 277.104C515.912 277.403 515.826 277.627 515.656 277.776C515.496 277.925 515.309 278 515.096 278C514.861 278 514.664 277.925 514.504 277.776C514.344 277.627 514.264 277.403 514.264 277.104C514.264 276.795 514.344 276.571 514.504 276.432C514.664 276.283 514.861 276.208 515.096 276.208ZM524.085 285.632C524.085 286.187 523.946 286.651 523.669 287.024C523.391 287.397 522.997 287.68 522.485 287.872C521.973 288.064 521.365 288.16 520.661 288.16C520.063 288.16 519.546 288.112 519.109 288.016C518.682 287.92 518.303 287.787 517.973 287.616V286.336C518.314 286.507 518.725 286.667 519.205 286.816C519.695 286.955 520.191 287.024 520.693 287.024C521.407 287.024 521.925 286.912 522.245 286.688C522.565 286.453 522.725 286.144 522.725 285.76C522.725 285.547 522.666 285.355 522.549 285.184C522.431 285.013 522.218 284.843 521.909 284.672C521.61 284.501 521.178 284.309 520.613 284.096C520.058 283.883 519.583 283.669 519.189 283.456C518.794 283.243 518.49 282.987 518.277 282.688C518.063 282.389 517.957 282.005 517.957 281.536C517.957 280.811 518.25 280.251 518.837 279.856C519.434 279.461 520.213 279.264 521.173 279.264C521.695 279.264 522.181 279.317 522.629 279.424C523.087 279.52 523.514 279.659 523.909 279.84L523.429 280.96C523.194 280.853 522.943 280.763 522.677 280.688C522.421 280.603 522.159 280.539 521.893 280.496C521.626 280.443 521.354 280.416 521.077 280.416C520.501 280.416 520.058 280.512 519.749 280.704C519.45 280.885 519.301 281.136 519.301 281.456C519.301 281.691 519.37 281.893 519.509 282.064C519.647 282.224 519.877 282.384 520.197 282.544C520.527 282.693 520.965 282.875 521.509 283.088C522.053 283.291 522.517 283.499 522.901 283.712C523.285 283.925 523.578 284.187 523.781 284.496C523.983 284.795 524.085 285.173 524.085 285.632ZM529.021 287.008C529.234 287.008 529.453 286.992 529.677 286.96C529.901 286.917 530.082 286.875 530.221 286.832V287.904C530.072 287.979 529.858 288.037 529.581 288.08C529.304 288.133 529.037 288.16 528.781 288.16C528.333 288.16 527.917 288.085 527.533 287.936C527.16 287.776 526.856 287.504 526.621 287.12C526.386 286.736 526.269 286.197 526.269 285.504V280.512H525.053V279.84L526.285 279.28L526.845 277.456H527.677V279.424H530.157V280.512H527.677V285.472C527.677 285.995 527.8 286.384 528.045 286.64C528.301 286.885 528.626 287.008 529.021 287.008ZM531.73 287.136C531.73 286.741 531.826 286.464 532.018 286.304C532.21 286.144 532.439 286.064 532.706 286.064C532.983 286.064 533.218 286.144 533.41 286.304C533.613 286.464 533.714 286.741 533.714 287.136C533.714 287.52 533.613 287.797 533.41 287.968C533.218 288.139 532.983 288.224 532.706 288.224C532.439 288.224 532.21 288.139 532.018 287.968C531.826 287.797 531.73 287.52 531.73 287.136Z" fill="#001A40"/>
<path d="M356.243 320H354.867V312.016C354.867 311.707 354.867 311.445 354.867 311.232C354.877 311.019 354.888 310.821 354.899 310.64C354.909 310.448 354.92 310.251 354.931 310.048C354.76 310.219 354.605 310.363 354.467 310.48C354.328 310.597 354.152 310.747 353.939 310.928L352.723 311.92L351.987 310.976L355.075 308.576H356.243V320ZM360.871 319.136C360.871 318.741 360.967 318.464 361.159 318.304C361.351 318.144 361.58 318.064 361.847 318.064C362.124 318.064 362.359 318.144 362.551 318.304C362.753 318.464 362.855 318.741 362.855 319.136C362.855 319.52 362.753 319.797 362.551 319.968C362.359 320.139 362.124 320.224 361.847 320.224C361.58 320.224 361.351 320.139 361.159 319.968C360.967 319.797 360.871 319.52 360.871 319.136Z" fill="#001A40"/>
<path d="M378.512 313.968H382.464V319.568C381.845 319.771 381.221 319.92 380.592 320.016C379.963 320.112 379.248 320.16 378.448 320.16C377.264 320.16 376.267 319.925 375.456 319.456C374.645 318.976 374.027 318.299 373.6 317.424C373.184 316.539 372.976 315.493 372.976 314.288C372.976 313.093 373.211 312.059 373.68 311.184C374.149 310.309 374.821 309.632 375.696 309.152C376.581 308.661 377.648 308.416 378.896 308.416C379.536 308.416 380.139 308.475 380.704 308.592C381.28 308.709 381.813 308.875 382.304 309.088L381.76 310.336C381.355 310.155 380.896 310 380.384 309.872C379.883 309.744 379.36 309.68 378.816 309.68C377.909 309.68 377.131 309.867 376.48 310.24C375.829 310.613 375.333 311.147 374.992 311.84C374.651 312.523 374.48 313.339 374.48 314.288C374.48 315.195 374.624 316 374.912 316.704C375.211 317.397 375.675 317.941 376.304 318.336C376.933 318.72 377.76 318.912 378.784 318.912C379.125 318.912 379.424 318.901 379.68 318.88C379.947 318.848 380.187 318.811 380.4 318.768C380.624 318.725 380.832 318.683 381.024 318.64V315.248H378.512V313.968ZM388.313 311.264C389.049 311.264 389.678 311.424 390.201 311.744C390.734 312.064 391.139 312.517 391.417 313.104C391.705 313.68 391.849 314.357 391.849 315.136V315.984H385.977C385.998 316.955 386.243 317.696 386.713 318.208C387.193 318.709 387.859 318.96 388.713 318.96C389.257 318.96 389.737 318.912 390.153 318.816C390.579 318.709 391.017 318.56 391.465 318.368V319.6C391.027 319.792 390.595 319.931 390.169 320.016C389.742 320.112 389.235 320.16 388.649 320.16C387.838 320.16 387.118 319.995 386.489 319.664C385.87 319.333 385.385 318.843 385.033 318.192C384.691 317.531 384.521 316.725 384.521 315.776C384.521 314.837 384.675 314.032 384.985 313.36C385.305 312.688 385.747 312.171 386.313 311.808C386.889 311.445 387.555 311.264 388.313 311.264ZM388.297 312.416C387.625 312.416 387.091 312.635 386.697 313.072C386.313 313.499 386.083 314.096 386.009 314.864H390.377C390.377 314.373 390.302 313.947 390.153 313.584C390.003 313.221 389.774 312.939 389.465 312.736C389.166 312.523 388.777 312.416 388.297 312.416ZM398.16 311.264C399.184 311.264 399.957 311.515 400.48 312.016C401.003 312.507 401.264 313.307 401.264 314.416V320H399.872V314.512C399.872 313.819 399.717 313.301 399.408 312.96C399.099 312.619 398.613 312.448 397.952 312.448C397.003 312.448 396.347 312.715 395.984 313.248C395.621 313.781 395.44 314.549 395.44 315.552V320H394.032V311.424H395.168L395.376 312.592H395.456C395.648 312.293 395.883 312.048 396.16 311.856C396.448 311.653 396.763 311.504 397.104 311.408C397.445 311.312 397.797 311.264 398.16 311.264ZM407.235 311.264C407.971 311.264 408.6 311.424 409.123 311.744C409.656 312.064 410.061 312.517 410.339 313.104C410.627 313.68 410.771 314.357 410.771 315.136V315.984H404.899C404.92 316.955 405.165 317.696 405.635 318.208C406.115 318.709 406.781 318.96 407.635 318.96C408.179 318.96 408.659 318.912 409.075 318.816C409.501 318.709 409.939 318.56 410.387 318.368V319.6C409.949 319.792 409.517 319.931 409.091 320.016C408.664 320.112 408.157 320.16 407.571 320.16C406.76 320.16 406.04 319.995 405.411 319.664C404.792 319.333 404.307 318.843 403.955 318.192C403.613 317.531 403.443 316.725 403.443 315.776C403.443 314.837 403.597 314.032 403.907 313.36C404.227 312.688 404.669 312.171 405.235 311.808C405.811 311.445 406.477 311.264 407.235 311.264ZM407.219 312.416C406.547 312.416 406.013 312.635 405.619 313.072C405.235 313.499 405.005 314.096 404.931 314.864H409.299C409.299 314.373 409.224 313.947 409.075 313.584C408.925 313.221 408.696 312.939 408.387 312.736C408.088 312.523 407.699 312.416 407.219 312.416ZM418.538 317.632C418.538 318.187 418.399 318.651 418.122 319.024C417.844 319.397 417.45 319.68 416.938 319.872C416.426 320.064 415.818 320.16 415.114 320.16C414.516 320.16 413.999 320.112 413.562 320.016C413.135 319.92 412.756 319.787 412.426 319.616V318.336C412.767 318.507 413.178 318.667 413.658 318.816C414.148 318.955 414.644 319.024 415.146 319.024C415.86 319.024 416.378 318.912 416.698 318.688C417.018 318.453 417.178 318.144 417.178 317.76C417.178 317.547 417.119 317.355 417.002 317.184C416.884 317.013 416.671 316.843 416.362 316.672C416.063 316.501 415.631 316.309 415.066 316.096C414.511 315.883 414.036 315.669 413.642 315.456C413.247 315.243 412.943 314.987 412.73 314.688C412.516 314.389 412.41 314.005 412.41 313.536C412.41 312.811 412.703 312.251 413.29 311.856C413.887 311.461 414.666 311.264 415.626 311.264C416.148 311.264 416.634 311.317 417.082 311.424C417.54 311.52 417.967 311.659 418.362 311.84L417.882 312.96C417.647 312.853 417.396 312.763 417.13 312.688C416.874 312.603 416.612 312.539 416.346 312.496C416.079 312.443 415.807 312.416 415.53 312.416C414.954 312.416 414.511 312.512 414.202 312.704C413.903 312.885 413.754 313.136 413.754 313.456C413.754 313.691 413.823 313.893 413.962 314.064C414.1 314.224 414.33 314.384 414.65 314.544C414.98 314.693 415.418 314.875 415.962 315.088C416.506 315.291 416.97 315.499 417.354 315.712C417.738 315.925 418.031 316.187 418.234 316.496C418.436 316.795 418.538 317.173 418.538 317.632ZM423.474 319.008C423.687 319.008 423.906 318.992 424.13 318.96C424.354 318.917 424.535 318.875 424.674 318.832V319.904C424.525 319.979 424.311 320.037 424.034 320.08C423.757 320.133 423.49 320.16 423.234 320.16C422.786 320.16 422.37 320.085 421.986 319.936C421.613 319.776 421.309 319.504 421.074 319.12C420.839 318.736 420.722 318.197 420.722 317.504V312.512H419.506V311.84L420.738 311.28L421.298 309.456H422.13V311.424H424.61V312.512H422.13V317.472C422.13 317.995 422.253 318.384 422.498 318.64C422.754 318.885 423.079 319.008 423.474 319.008ZM430.74 320V308.576H432.18V318.72H437.172V320H430.74ZM440.346 311.424V320H438.938V311.424H440.346ZM439.658 308.208C439.871 308.208 440.058 308.283 440.218 308.432C440.389 308.571 440.474 308.795 440.474 309.104C440.474 309.403 440.389 309.627 440.218 309.776C440.058 309.925 439.871 310 439.658 310C439.423 310 439.226 309.925 439.066 309.776C438.906 309.627 438.826 309.403 438.826 309.104C438.826 308.795 438.906 308.571 439.066 308.432C439.226 308.283 439.423 308.208 439.658 308.208ZM448.647 317.632C448.647 318.187 448.508 318.651 448.231 319.024C447.954 319.397 447.559 319.68 447.047 319.872C446.535 320.064 445.927 320.16 445.223 320.16C444.626 320.16 444.108 320.112 443.671 320.016C443.244 319.92 442.866 319.787 442.535 319.616V318.336C442.876 318.507 443.287 318.667 443.767 318.816C444.258 318.955 444.754 319.024 445.255 319.024C445.97 319.024 446.487 318.912 446.807 318.688C447.127 318.453 447.287 318.144 447.287 317.76C447.287 317.547 447.228 317.355 447.111 317.184C446.994 317.013 446.78 316.843 446.471 316.672C446.172 316.501 445.74 316.309 445.175 316.096C444.62 315.883 444.146 315.669 443.751 315.456C443.356 315.243 443.052 314.987 442.839 314.688C442.626 314.389 442.519 314.005 442.519 313.536C442.519 312.811 442.812 312.251 443.399 311.856C443.996 311.461 444.775 311.264 445.735 311.264C446.258 311.264 446.743 311.317 447.191 311.424C447.65 311.52 448.076 311.659 448.471 311.84L447.991 312.96C447.756 312.853 447.506 312.763 447.239 312.688C446.983 312.603 446.722 312.539 446.455 312.496C446.188 312.443 445.916 312.416 445.639 312.416C445.063 312.416 444.62 312.512 444.311 312.704C444.012 312.885 443.863 313.136 443.863 313.456C443.863 313.691 443.932 313.893 444.071 314.064C444.21 314.224 444.439 314.384 444.759 314.544C445.09 314.693 445.527 314.875 446.071 315.088C446.615 315.291 447.079 315.499 447.463 315.712C447.847 315.925 448.14 316.187 448.343 316.496C448.546 316.795 448.647 317.173 448.647 317.632ZM453.583 319.008C453.797 319.008 454.015 318.992 454.239 318.96C454.463 318.917 454.645 318.875 454.783 318.832V319.904C454.634 319.979 454.421 320.037 454.143 320.08C453.866 320.133 453.599 320.16 453.343 320.16C452.895 320.16 452.479 320.085 452.095 319.936C451.722 319.776 451.418 319.504 451.183 319.12C450.949 318.736 450.831 318.197 450.831 317.504V312.512H449.615V311.84L450.847 311.28L451.407 309.456H452.239V311.424H454.719V312.512H452.239V317.472C452.239 317.995 452.362 318.384 452.607 318.64C452.863 318.885 453.189 319.008 453.583 319.008ZM464.065 320H459.937V319.168L461.281 318.864V309.728L459.937 309.408V308.576H464.065V309.408L462.721 309.728V318.864L464.065 319.168V320ZM468.943 319.008C469.156 319.008 469.375 318.992 469.599 318.96C469.823 318.917 470.004 318.875 470.143 318.832V319.904C469.993 319.979 469.78 320.037 469.503 320.08C469.225 320.133 468.959 320.16 468.703 320.16C468.255 320.16 467.839 320.085 467.455 319.936C467.081 319.776 466.777 319.504 466.543 319.12C466.308 318.736 466.191 318.197 466.191 317.504V312.512H464.975V311.84L466.207 311.28L466.767 309.456H467.599V311.424H470.079V312.512H467.599V317.472C467.599 317.995 467.721 318.384 467.967 318.64C468.223 318.885 468.548 319.008 468.943 319.008ZM475.172 311.264C475.908 311.264 476.537 311.424 477.06 311.744C477.593 312.064 477.999 312.517 478.276 313.104C478.564 313.68 478.708 314.357 478.708 315.136V315.984H472.836C472.857 316.955 473.103 317.696 473.572 318.208C474.052 318.709 474.719 318.96 475.572 318.96C476.116 318.96 476.596 318.912 477.012 318.816C477.439 318.709 477.876 318.56 478.324 318.368V319.6C477.887 319.792 477.455 319.931 477.028 320.016C476.601 320.112 476.095 320.16 475.508 320.16C474.697 320.16 473.977 319.995 473.348 319.664C472.729 319.333 472.244 318.843 471.892 318.192C471.551 317.531 471.38 316.725 471.38 315.776C471.38 314.837 471.535 314.032 471.844 313.36C472.164 312.688 472.607 312.171 473.172 311.808C473.748 311.445 474.415 311.264 475.172 311.264ZM475.156 312.416C474.484 312.416 473.951 312.635 473.556 313.072C473.172 313.499 472.943 314.096 472.868 314.864H477.236C477.236 314.373 477.161 313.947 477.012 313.584C476.863 313.221 476.633 312.939 476.324 312.736C476.025 312.523 475.636 312.416 475.156 312.416ZM490.299 311.264C491.27 311.264 491.995 311.515 492.475 312.016C492.955 312.507 493.195 313.307 493.195 314.416V320H491.803V314.48C491.803 313.808 491.659 313.301 491.371 312.96C491.094 312.619 490.657 312.448 490.059 312.448C489.227 312.448 488.63 312.688 488.267 313.168C487.915 313.648 487.739 314.347 487.739 315.264V320H486.347V314.48C486.347 314.032 486.283 313.659 486.155 313.36C486.027 313.051 485.835 312.821 485.579 312.672C485.323 312.523 484.993 312.448 484.587 312.448C484.011 312.448 483.558 312.571 483.227 312.816C482.897 313.051 482.657 313.397 482.507 313.856C482.369 314.315 482.299 314.88 482.299 315.552V320H480.891V311.424H482.027L482.235 312.592H482.315C482.497 312.293 482.715 312.048 482.971 311.856C483.238 311.653 483.531 311.504 483.851 311.408C484.171 311.312 484.502 311.264 484.843 311.264C485.505 311.264 486.054 311.381 486.491 311.616C486.939 311.851 487.265 312.213 487.467 312.704H487.547C487.835 312.213 488.225 311.851 488.715 311.616C489.217 311.381 489.745 311.264 490.299 311.264ZM495.636 319.136C495.636 318.741 495.732 318.464 495.924 318.304C496.116 318.144 496.346 318.064 496.612 318.064C496.89 318.064 497.124 318.144 497.316 318.304C497.519 318.464 497.62 318.741 497.62 319.136C497.62 319.52 497.519 319.797 497.316 319.968C497.124 320.139 496.89 320.224 496.612 320.224C496.346 320.224 496.116 320.139 495.924 319.968C495.732 319.797 495.636 319.52 495.636 319.136Z" fill="#001A40"/>
<path d="M358.883 352H351.331V350.832L354.323 347.808C354.899 347.232 355.384 346.72 355.779 346.272C356.173 345.824 356.472 345.387 356.675 344.96C356.877 344.523 356.979 344.048 356.979 343.536C356.979 342.907 356.792 342.432 356.419 342.112C356.045 341.781 355.56 341.616 354.963 341.616C354.408 341.616 353.917 341.712 353.491 341.904C353.075 342.096 352.648 342.363 352.211 342.704L351.459 341.76C351.757 341.504 352.083 341.275 352.435 341.072C352.797 340.869 353.187 340.709 353.603 340.592C354.029 340.475 354.483 340.416 354.963 340.416C355.677 340.416 356.291 340.539 356.803 340.784C357.315 341.029 357.709 341.381 357.987 341.84C358.275 342.288 358.419 342.827 358.419 343.456C358.419 343.904 358.349 344.331 358.211 344.736C358.072 345.131 357.875 345.52 357.619 345.904C357.363 346.288 357.053 346.677 356.691 347.072C356.328 347.467 355.928 347.877 355.491 348.304L353.107 350.656V350.72H358.883V352ZM360.871 351.136C360.871 350.741 360.967 350.464 361.159 350.304C361.351 350.144 361.58 350.064 361.847 350.064C362.124 350.064 362.359 350.144 362.551 350.304C362.753 350.464 362.855 350.741 362.855 351.136C362.855 351.52 362.753 351.797 362.551 351.968C362.359 352.139 362.124 352.224 361.847 352.224C361.58 352.224 361.351 352.139 361.159 351.968C360.967 351.797 360.871 351.52 360.871 351.136Z" fill="#001A40"/>
<path d="M379.936 352H373.552V340.576H379.936V341.84H374.992V345.408H379.648V346.656H374.992V350.736H379.936V352ZM385.563 343.264C386.299 343.264 386.928 343.424 387.451 343.744C387.984 344.064 388.389 344.517 388.667 345.104C388.955 345.68 389.099 346.357 389.099 347.136V347.984H383.227C383.248 348.955 383.493 349.696 383.963 350.208C384.443 350.709 385.109 350.96 385.963 350.96C386.507 350.96 386.987 350.912 387.403 350.816C387.829 350.709 388.267 350.56 388.715 350.368V351.6C388.277 351.792 387.845 351.931 387.419 352.016C386.992 352.112 386.485 352.16 385.899 352.16C385.088 352.16 384.368 351.995 383.739 351.664C383.12 351.333 382.635 350.843 382.283 350.192C381.941 349.531 381.771 348.725 381.771 347.776C381.771 346.837 381.925 346.032 382.235 345.36C382.555 344.688 382.997 344.171 383.563 343.808C384.139 343.445 384.805 343.264 385.563 343.264ZM385.547 344.416C384.875 344.416 384.341 344.635 383.947 345.072C383.563 345.499 383.333 346.096 383.259 346.864H387.627C387.627 346.373 387.552 345.947 387.403 345.584C387.253 345.221 387.024 344.939 386.715 344.736C386.416 344.523 386.027 344.416 385.547 344.416ZM395.41 343.264C396.434 343.264 397.207 343.515 397.73 344.016C398.253 344.507 398.514 345.307 398.514 346.416V352H397.122V346.512C397.122 345.819 396.967 345.301 396.658 344.96C396.349 344.619 395.863 344.448 395.202 344.448C394.253 344.448 393.597 344.715 393.234 345.248C392.871 345.781 392.69 346.549 392.69 347.552V352H391.282V343.424H392.418L392.626 344.592H392.706C392.898 344.293 393.133 344.048 393.41 343.856C393.698 343.653 394.013 343.504 394.354 343.408C394.695 343.312 395.047 343.264 395.41 343.264ZM408.577 343.28C409.622 343.28 410.395 343.509 410.897 343.968C411.398 344.427 411.649 345.157 411.649 346.16V352H410.625L410.353 350.784H410.289C410.043 351.093 409.787 351.355 409.521 351.568C409.265 351.771 408.966 351.92 408.625 352.016C408.294 352.112 407.889 352.16 407.409 352.16C406.897 352.16 406.433 352.069 406.017 351.888C405.611 351.707 405.291 351.429 405.057 351.056C404.822 350.672 404.705 350.192 404.705 349.616C404.705 348.763 405.041 348.107 405.713 347.648C406.385 347.179 407.419 346.923 408.817 346.88L410.273 346.832V346.32C410.273 345.605 410.118 345.109 409.809 344.832C409.499 344.555 409.062 344.416 408.497 344.416C408.049 344.416 407.622 344.485 407.217 344.624C406.811 344.752 406.433 344.901 406.081 345.072L405.649 344.016C406.022 343.813 406.465 343.643 406.977 343.504C407.489 343.355 408.022 343.28 408.577 343.28ZM408.993 347.856C407.926 347.899 407.185 348.069 406.769 348.368C406.363 348.667 406.161 349.088 406.161 349.632C406.161 350.112 406.305 350.464 406.593 350.688C406.891 350.912 407.27 351.024 407.729 351.024C408.454 351.024 409.057 350.827 409.537 350.432C410.017 350.027 410.257 349.408 410.257 348.576V347.808L408.993 347.856ZM418.426 343.264C419.45 343.264 420.223 343.515 420.746 344.016C421.268 344.507 421.53 345.307 421.53 346.416V352H420.138V346.512C420.138 345.819 419.983 345.301 419.674 344.96C419.364 344.619 418.879 344.448 418.218 344.448C417.268 344.448 416.612 344.715 416.25 345.248C415.887 345.781 415.706 346.549 415.706 347.552V352H414.298V343.424H415.434L415.642 344.592H415.722C415.914 344.293 416.148 344.048 416.426 343.856C416.714 343.653 417.028 343.504 417.37 343.408C417.711 343.312 418.063 343.264 418.426 343.264ZM427.228 352.16C426.161 352.16 425.308 351.792 424.668 351.056C424.028 350.309 423.708 349.2 423.708 347.728C423.708 346.256 424.028 345.147 424.668 344.4C425.319 343.643 426.177 343.264 427.244 343.264C427.692 343.264 428.081 343.323 428.412 343.44C428.743 343.547 429.031 343.696 429.276 343.888C429.521 344.08 429.729 344.293 429.9 344.528H429.996C429.985 344.389 429.964 344.187 429.932 343.92C429.911 343.643 429.9 343.424 429.9 343.264V339.84H431.308V352H430.172L429.964 350.848H429.9C429.729 351.093 429.521 351.317 429.276 351.52C429.031 351.712 428.737 351.867 428.396 351.984C428.065 352.101 427.676 352.16 427.228 352.16ZM427.452 350.992C428.359 350.992 428.993 350.747 429.356 350.256C429.729 349.755 429.916 349.003 429.916 348V347.744C429.916 346.677 429.74 345.861 429.388 345.296C429.036 344.72 428.385 344.432 427.436 344.432C426.679 344.432 426.108 344.736 425.724 345.344C425.351 345.941 425.164 346.747 425.164 347.76C425.164 348.784 425.351 349.579 425.724 350.144C426.108 350.709 426.684 350.992 427.452 350.992ZM437.344 343.264C438.08 343.264 438.709 343.424 439.232 343.744C439.765 344.064 440.171 344.517 440.448 345.104C440.736 345.68 440.88 346.357 440.88 347.136V347.984H435.008C435.029 348.955 435.275 349.696 435.744 350.208C436.224 350.709 436.891 350.96 437.744 350.96C438.288 350.96 438.768 350.912 439.184 350.816C439.611 350.709 440.048 350.56 440.496 350.368V351.6C440.059 351.792 439.627 351.931 439.2 352.016C438.773 352.112 438.267 352.16 437.68 352.16C436.869 352.16 436.149 351.995 435.52 351.664C434.901 351.333 434.416 350.843 434.064 350.192C433.723 349.531 433.552 348.725 433.552 347.776C433.552 346.837 433.707 346.032 434.016 345.36C434.336 344.688 434.779 344.171 435.344 343.808C435.92 343.445 436.587 343.264 437.344 343.264ZM437.328 344.416C436.656 344.416 436.123 344.635 435.728 345.072C435.344 345.499 435.115 346.096 435.04 346.864H439.408C439.408 346.373 439.333 345.947 439.184 345.584C439.035 345.221 438.805 344.939 438.496 344.736C438.197 344.523 437.808 344.416 437.328 344.416ZM447.063 343.264C447.223 343.264 447.394 343.275 447.575 343.296C447.767 343.307 447.932 343.328 448.071 343.36L447.895 344.656C447.756 344.624 447.602 344.597 447.431 344.576C447.271 344.555 447.116 344.544 446.967 344.544C446.636 344.544 446.322 344.613 446.023 344.752C445.724 344.891 445.458 345.088 445.223 345.344C444.988 345.589 444.802 345.888 444.663 346.24C444.535 346.592 444.471 346.987 444.471 347.424V352H443.063V343.424H444.215L444.375 344.992H444.439C444.62 344.672 444.839 344.384 445.095 344.128C445.351 343.861 445.644 343.653 445.975 343.504C446.306 343.344 446.668 343.264 447.063 343.264ZM456.869 343.264C457.434 343.264 457.941 343.371 458.389 343.584C458.847 343.797 459.237 344.123 459.557 344.56H459.637L459.829 343.424H460.949V352.144C460.949 352.955 460.81 353.632 460.533 354.176C460.255 354.731 459.834 355.147 459.269 355.424C458.703 355.701 457.983 355.84 457.109 355.84C456.49 355.84 455.919 355.792 455.397 355.696C454.885 355.611 454.426 355.477 454.021 355.296V354C454.298 354.139 454.602 354.256 454.933 354.352C455.263 354.459 455.621 354.539 456.005 354.592C456.389 354.645 456.783 354.672 457.189 354.672C457.925 354.672 458.501 354.453 458.917 354.016C459.343 353.589 459.557 353.003 459.557 352.256V351.92C459.557 351.792 459.562 351.611 459.573 351.376C459.583 351.131 459.594 350.96 459.605 350.864H459.541C459.242 351.301 458.869 351.627 458.421 351.84C457.983 352.053 457.471 352.16 456.885 352.16C455.775 352.16 454.906 351.771 454.277 350.992C453.658 350.213 453.349 349.125 453.349 347.728C453.349 346.811 453.487 346.021 453.765 345.36C454.053 344.688 454.458 344.171 454.981 343.808C455.503 343.445 456.133 343.264 456.869 343.264ZM457.061 344.448C456.581 344.448 456.17 344.576 455.829 344.832C455.498 345.088 455.242 345.461 455.061 345.952C454.89 346.443 454.805 347.04 454.805 347.744C454.805 348.8 454.997 349.611 455.381 350.176C455.775 350.731 456.346 351.008 457.093 351.008C457.53 351.008 457.903 350.955 458.213 350.848C458.522 350.731 458.778 350.555 458.981 350.32C459.183 350.075 459.333 349.765 459.429 349.392C459.525 349.019 459.573 348.576 459.573 348.064V347.728C459.573 346.949 459.482 346.32 459.301 345.84C459.13 345.36 458.858 345.008 458.485 344.784C458.111 344.56 457.637 344.448 457.061 344.448ZM466.985 343.264C467.721 343.264 468.35 343.424 468.873 343.744C469.406 344.064 469.811 344.517 470.089 345.104C470.377 345.68 470.521 346.357 470.521 347.136V347.984H464.649C464.67 348.955 464.915 349.696 465.385 350.208C465.865 350.709 466.531 350.96 467.385 350.96C467.929 350.96 468.409 350.912 468.825 350.816C469.251 350.709 469.689 350.56 470.137 350.368V351.6C469.699 351.792 469.267 351.931 468.841 352.016C468.414 352.112 467.907 352.16 467.321 352.16C466.51 352.16 465.79 351.995 465.161 351.664C464.542 351.333 464.057 350.843 463.705 350.192C463.363 349.531 463.193 348.725 463.193 347.776C463.193 346.837 463.347 346.032 463.657 345.36C463.977 344.688 464.419 344.171 464.985 343.808C465.561 343.445 466.227 343.264 466.985 343.264ZM466.969 344.416C466.297 344.416 465.763 344.635 465.369 345.072C464.985 345.499 464.755 346.096 464.681 346.864H469.049C469.049 346.373 468.974 345.947 468.825 345.584C468.675 345.221 468.446 344.939 468.137 344.736C467.838 344.523 467.449 344.416 466.969 344.416ZM476.832 343.264C477.856 343.264 478.629 343.515 479.152 344.016C479.674 344.507 479.936 345.307 479.936 346.416V352H478.544V346.512C478.544 345.819 478.389 345.301 478.08 344.96C477.77 344.619 477.285 344.448 476.624 344.448C475.674 344.448 475.018 344.715 474.656 345.248C474.293 345.781 474.112 346.549 474.112 347.552V352H472.704V343.424H473.84L474.048 344.592H474.128C474.32 344.293 474.554 344.048 474.832 343.856C475.12 343.653 475.434 343.504 475.776 343.408C476.117 343.312 476.469 343.264 476.832 343.264ZM485.906 343.264C486.642 343.264 487.272 343.424 487.794 343.744C488.328 344.064 488.733 344.517 489.01 345.104C489.298 345.68 489.442 346.357 489.442 347.136V347.984H483.57C483.592 348.955 483.837 349.696 484.306 350.208C484.786 350.709 485.453 350.96 486.306 350.96C486.85 350.96 487.33 350.912 487.746 350.816C488.173 350.709 488.61 350.56 489.058 350.368V351.6C488.621 351.792 488.189 351.931 487.762 352.016C487.336 352.112 486.829 352.16 486.242 352.16C485.432 352.16 484.712 351.995 484.082 351.664C483.464 351.333 482.978 350.843 482.626 350.192C482.285 349.531 482.114 348.725 482.114 347.776C482.114 346.837 482.269 346.032 482.578 345.36C482.898 344.688 483.341 344.171 483.906 343.808C484.482 343.445 485.149 343.264 485.906 343.264ZM485.89 344.416C485.218 344.416 484.685 344.635 484.29 345.072C483.906 345.499 483.677 346.096 483.602 346.864H487.97C487.97 346.373 487.896 345.947 487.746 345.584C487.597 345.221 487.368 344.939 487.058 344.736C486.76 344.523 486.37 344.416 485.89 344.416ZM497.21 349.632C497.21 350.187 497.071 350.651 496.794 351.024C496.516 351.397 496.122 351.68 495.61 351.872C495.098 352.064 494.49 352.16 493.786 352.16C493.188 352.16 492.671 352.112 492.234 352.016C491.807 351.92 491.428 351.787 491.098 351.616V350.336C491.439 350.507 491.85 350.667 492.33 350.816C492.82 350.955 493.316 351.024 493.818 351.024C494.532 351.024 495.05 350.912 495.37 350.688C495.69 350.453 495.85 350.144 495.85 349.76C495.85 349.547 495.791 349.355 495.674 349.184C495.556 349.013 495.343 348.843 495.034 348.672C494.735 348.501 494.303 348.309 493.738 348.096C493.183 347.883 492.708 347.669 492.314 347.456C491.919 347.243 491.615 346.987 491.402 346.688C491.188 346.389 491.082 346.005 491.082 345.536C491.082 344.811 491.375 344.251 491.962 343.856C492.559 343.461 493.338 343.264 494.298 343.264C494.82 343.264 495.306 343.317 495.754 343.424C496.212 343.52 496.639 343.659 497.034 343.84L496.554 344.96C496.319 344.853 496.068 344.763 495.802 344.688C495.546 344.603 495.284 344.539 495.018 344.496C494.751 344.443 494.479 344.416 494.202 344.416C493.626 344.416 493.183 344.512 492.874 344.704C492.575 344.885 492.426 345.136 492.426 345.456C492.426 345.691 492.495 345.893 492.634 346.064C492.772 346.224 493.002 346.384 493.322 346.544C493.652 346.693 494.09 346.875 494.634 347.088C495.178 347.291 495.642 347.499 496.026 347.712C496.41 347.925 496.703 348.187 496.906 348.496C497.108 348.795 497.21 349.173 497.21 349.632ZM502.146 351.008C502.359 351.008 502.578 350.992 502.802 350.96C503.026 350.917 503.207 350.875 503.346 350.832V351.904C503.197 351.979 502.983 352.037 502.706 352.08C502.429 352.133 502.162 352.16 501.906 352.16C501.458 352.16 501.042 352.085 500.658 351.936C500.285 351.776 499.981 351.504 499.746 351.12C499.511 350.736 499.394 350.197 499.394 349.504V344.512H498.178V343.84L499.41 343.28L499.97 341.456H500.802V343.424H503.282V344.512H500.802V349.472C500.802 349.995 500.925 350.384 501.17 350.64C501.426 350.885 501.751 351.008 502.146 351.008ZM509.411 352V340.576H510.851V350.72H515.843V352H509.411ZM519.018 343.424V352H517.61V343.424H519.018ZM518.33 340.208C518.543 340.208 518.73 340.283 518.89 340.432C519.061 340.571 519.146 340.795 519.146 341.104C519.146 341.403 519.061 341.627 518.89 341.776C518.73 341.925 518.543 342 518.33 342C518.095 342 517.898 341.925 517.738 341.776C517.578 341.627 517.498 341.403 517.498 341.104C517.498 340.795 517.578 340.571 517.738 340.432C517.898 340.283 518.095 340.208 518.33 340.208ZM527.319 349.632C527.319 350.187 527.18 350.651 526.903 351.024C526.626 351.397 526.231 351.68 525.719 351.872C525.207 352.064 524.599 352.16 523.895 352.16C523.298 352.16 522.78 352.112 522.343 352.016C521.916 351.92 521.538 351.787 521.207 351.616V350.336C521.548 350.507 521.959 350.667 522.439 350.816C522.93 350.955 523.426 351.024 523.927 351.024C524.642 351.024 525.159 350.912 525.479 350.688C525.799 350.453 525.959 350.144 525.959 349.76C525.959 349.547 525.9 349.355 525.783 349.184C525.666 349.013 525.452 348.843 525.143 348.672C524.844 348.501 524.412 348.309 523.847 348.096C523.292 347.883 522.818 347.669 522.423 347.456C522.028 347.243 521.724 346.987 521.511 346.688C521.298 346.389 521.191 346.005 521.191 345.536C521.191 344.811 521.484 344.251 522.071 343.856C522.668 343.461 523.447 343.264 524.407 343.264C524.93 343.264 525.415 343.317 525.863 343.424C526.322 343.52 526.748 343.659 527.143 343.84L526.663 344.96C526.428 344.853 526.178 344.763 525.911 344.688C525.655 344.603 525.394 344.539 525.127 344.496C524.86 344.443 524.588 344.416 524.311 344.416C523.735 344.416 523.292 344.512 522.983 344.704C522.684 344.885 522.535 345.136 522.535 345.456C522.535 345.691 522.604 345.893 522.743 346.064C522.882 346.224 523.111 346.384 523.431 346.544C523.762 346.693 524.199 346.875 524.743 347.088C525.287 347.291 525.751 347.499 526.135 347.712C526.519 347.925 526.812 348.187 527.015 348.496C527.218 348.795 527.319 349.173 527.319 349.632ZM532.255 351.008C532.469 351.008 532.687 350.992 532.911 350.96C533.135 350.917 533.317 350.875 533.455 350.832V351.904C533.306 351.979 533.093 352.037 532.815 352.08C532.538 352.133 532.271 352.16 532.015 352.16C531.567 352.16 531.151 352.085 530.767 351.936C530.394 351.776 530.09 351.504 529.855 351.12C529.621 350.736 529.503 350.197 529.503 349.504V344.512H528.287V343.84L529.519 343.28L530.079 341.456H530.911V343.424H533.391V344.512H530.911V349.472C530.911 349.995 531.034 350.384 531.279 350.64C531.535 350.885 531.861 351.008 532.255 351.008ZM542.737 352H538.609V351.168L539.953 350.864V341.728L538.609 341.408V340.576H542.737V341.408L541.393 341.728V350.864L542.737 351.168V352ZM547.615 351.008C547.828 351.008 548.047 350.992 548.271 350.96C548.495 350.917 548.676 350.875 548.815 350.832V351.904C548.665 351.979 548.452 352.037 548.175 352.08C547.897 352.133 547.631 352.16 547.375 352.16C546.927 352.16 546.511 352.085 546.127 351.936C545.753 351.776 545.449 351.504 545.215 351.12C544.98 350.736 544.863 350.197 544.863 349.504V344.512H543.647V343.84L544.879 343.28L545.439 341.456H546.271V343.424H548.751V344.512H546.271V349.472C546.271 349.995 546.393 350.384 546.639 350.64C546.895 350.885 547.22 351.008 547.615 351.008ZM553.844 343.264C554.58 343.264 555.209 343.424 555.732 343.744C556.265 344.064 556.671 344.517 556.948 345.104C557.236 345.68 557.38 346.357 557.38 347.136V347.984H551.508C551.529 348.955 551.775 349.696 552.244 350.208C552.724 350.709 553.391 350.96 554.244 350.96C554.788 350.96 555.268 350.912 555.684 350.816C556.111 350.709 556.548 350.56 556.996 350.368V351.6C556.559 351.792 556.127 351.931 555.7 352.016C555.273 352.112 554.767 352.16 554.18 352.16C553.369 352.16 552.649 351.995 552.02 351.664C551.401 351.333 550.916 350.843 550.564 350.192C550.223 349.531 550.052 348.725 550.052 347.776C550.052 346.837 550.207 346.032 550.516 345.36C550.836 344.688 551.279 344.171 551.844 343.808C552.42 343.445 553.087 343.264 553.844 343.264ZM553.828 344.416C553.156 344.416 552.623 344.635 552.228 345.072C551.844 345.499 551.615 346.096 551.54 346.864H555.908C555.908 346.373 555.833 345.947 555.684 345.584C555.535 345.221 555.305 344.939 554.996 344.736C554.697 344.523 554.308 344.416 553.828 344.416ZM568.971 343.264C569.942 343.264 570.667 343.515 571.147 344.016C571.627 344.507 571.867 345.307 571.867 346.416V352H570.475V346.48C570.475 345.808 570.331 345.301 570.043 344.96C569.766 344.619 569.328 344.448 568.731 344.448C567.899 344.448 567.302 344.688 566.939 345.168C566.587 345.648 566.411 346.347 566.411 347.264V352H565.019V346.48C565.019 346.032 564.955 345.659 564.827 345.36C564.699 345.051 564.507 344.821 564.251 344.672C563.995 344.523 563.664 344.448 563.259 344.448C562.683 344.448 562.23 344.571 561.899 344.816C561.568 345.051 561.328 345.397 561.179 345.856C561.04 346.315 560.971 346.88 560.971 347.552V352H559.563V343.424H560.699L560.907 344.592H560.987C561.168 344.293 561.387 344.048 561.643 343.856C561.91 343.653 562.203 343.504 562.523 343.408C562.843 343.312 563.174 343.264 563.515 343.264C564.176 343.264 564.726 343.381 565.163 343.616C565.611 343.851 565.936 344.213 566.139 344.704H566.219C566.507 344.213 566.896 343.851 567.387 343.616C567.888 343.381 568.416 343.264 568.971 343.264ZM574.308 351.136C574.308 350.741 574.404 350.464 574.596 350.304C574.788 350.144 575.018 350.064 575.284 350.064C575.562 350.064 575.796 350.144 575.988 350.304C576.191 350.464 576.292 350.741 576.292 351.136C576.292 351.52 576.191 351.797 575.988 351.968C575.796 352.139 575.562 352.224 575.284 352.224C575.018 352.224 574.788 352.139 574.596 351.968C574.404 351.797 574.308 351.52 574.308 351.136Z" fill="#001A40"/>
<rect x="320.5" y="182.5" width="319" height="23" stroke="#FF00C8" stroke-dasharray="2 2"/>
<line x1="253" y1="258" x2="326" y2="258" stroke="#42144F" stroke-width="2"/>
<line x1="597" y1="259" x2="708" y2="259" stroke="#42144F" stroke-width="2"/>
<line x1="253" y1="194" x2="321" y2="194" stroke="#42144F" stroke-width="2"/>
<line x1="480" y1="115" x2="480" y2="179" stroke="#42144F" stroke-width="2"/>
<rect x="236" y="242" width="32" height="32" rx="16" fill="#42144F"/>
<path d="M251.598 252.134C252.426 252.134 253.134 252.272 253.722 252.548C254.322 252.812 254.772 253.178 255.072 253.646C255.384 254.114 255.54 254.636 255.54 255.212C255.54 255.944 255.33 256.556 254.91 257.048C254.49 257.528 253.908 257.87 253.164 258.074C253.98 258.158 254.646 258.452 255.162 258.956C255.678 259.46 255.936 260.162 255.936 261.062C255.936 261.758 255.756 262.388 255.396 262.952C255.048 263.516 254.532 263.966 253.848 264.302C253.164 264.626 252.354 264.788 251.418 264.788C249.702 264.788 248.358 264.188 247.386 262.988L248.772 261.656C249.18 262.064 249.582 262.358 249.978 262.538C250.374 262.718 250.806 262.808 251.274 262.808C251.898 262.808 252.39 262.64 252.75 262.304C253.122 261.968 253.308 261.5 253.308 260.9C253.308 260.252 253.134 259.784 252.786 259.496C252.438 259.208 251.916 259.064 251.22 259.064H250.23L250.536 257.264H251.202C251.766 257.264 252.216 257.114 252.552 256.814C252.888 256.514 253.056 256.094 253.056 255.554C253.056 255.086 252.9 254.72 252.588 254.456C252.288 254.192 251.874 254.06 251.346 254.06C250.89 254.06 250.47 254.144 250.086 254.312C249.702 254.48 249.324 254.744 248.952 255.104L247.674 253.718C248.79 252.662 250.098 252.134 251.598 252.134Z" fill="white"/>
<rect x="692" y="243" width="32" height="32" rx="16" fill="#42144F"/>
<path d="M712.602 260.856V262.8H711.18V265.5H708.696L708.678 262.8H703.548V261.072L707.04 253.098L709.2 253.908L706.194 260.856H708.714L708.984 257.886H711.18V260.856H712.602Z" fill="white"/>
<rect x="236" y="178" width="32" height="32" rx="16" fill="#42144F"/>
<path d="M251.643 188.134C252.483 188.134 253.209 188.29 253.821 188.602C254.433 188.902 254.895 189.316 255.207 189.844C255.531 190.36 255.693 190.936 255.693 191.572C255.693 192.232 255.549 192.868 255.261 193.48C254.985 194.092 254.505 194.782 253.821 195.55C253.149 196.318 252.165 197.308 250.869 198.52H255.963L255.675 200.5H247.953V198.646C249.465 197.134 250.557 196.006 251.229 195.262C251.901 194.518 252.375 193.888 252.651 193.372C252.927 192.856 253.065 192.328 253.065 191.788C253.065 191.272 252.915 190.864 252.615 190.564C252.315 190.264 251.913 190.114 251.409 190.114C250.965 190.114 250.569 190.216 250.221 190.42C249.873 190.612 249.507 190.936 249.123 191.392L247.593 190.168C248.625 188.812 249.975 188.134 251.643 188.134Z" fill="white"/>
<rect x="463" y="99" width="32" height="32" rx="16" fill="#42144F"/>
<path d="M481.502 109.368V121.5H479V111.888L476.336 113.526L475.22 111.798L479.252 109.368H481.502Z" fill="white"/>
</svg>
