<svg width="960" height="540" viewBox="0 0 960 540" fill="none" xmlns="http://www.w3.org/2000/svg">
<rect x="0.5" y="0.5" width="959" height="539" fill="white"/>
<rect x="0.5" y="0.5" width="959" height="539" stroke="#CCCCCC"/>
<rect x="197" y="254" width="32" height="32" rx="16" fill="#42144F"/>
<path d="M215.502 264.368V276.5H213V266.888L210.336 268.526L209.22 266.798L213.252 264.368H215.502Z" fill="white"/>
<rect x="277.5" y="214.5" width="406" height="111" stroke="#FF00C8" stroke-dasharray="2 2"/>
<path d="M295.704 234.176C295.704 235.456 295.464 236.528 294.984 237.392C294.515 238.256 293.837 238.907 292.952 239.344C292.067 239.781 290.995 240 289.736 240H286.552V228.576H290.072C291.224 228.576 292.221 228.789 293.064 229.216C293.907 229.643 294.557 230.272 295.016 231.104C295.475 231.925 295.704 232.949 295.704 234.176ZM294.184 234.224C294.184 233.211 294.013 232.379 293.672 231.728C293.341 231.077 292.851 230.597 292.2 230.288C291.56 229.968 290.781 229.808 289.864 229.808H287.992V238.768H289.544C291.091 238.768 292.248 238.389 293.016 237.632C293.795 236.864 294.184 235.728 294.184 234.224ZM299.456 231.424V240H298.048V231.424H299.456ZM298.768 228.208C298.981 228.208 299.168 228.283 299.328 228.432C299.498 228.571 299.584 228.795 299.584 229.104C299.584 229.403 299.498 229.627 299.328 229.776C299.168 229.925 298.981 230 298.768 230C298.533 230 298.336 229.925 298.176 229.776C298.016 229.627 297.936 229.403 297.936 229.104C297.936 228.795 298.016 228.571 298.176 228.432C298.336 228.283 298.533 228.208 298.768 228.208ZM305.036 239.008C305.25 239.008 305.469 238.992 305.693 238.96C305.917 238.917 306.098 238.875 306.237 238.832V239.904C306.087 239.979 305.874 240.037 305.597 240.08C305.319 240.133 305.053 240.16 304.797 240.16C304.349 240.16 303.933 240.085 303.549 239.936C303.175 239.776 302.871 239.504 302.637 239.12C302.402 238.736 302.285 238.197 302.285 237.504V232.512H301.069V231.84L302.301 231.28L302.861 229.456H303.693V231.424H306.173V232.512H303.693V237.472C303.693 237.995 303.815 238.384 304.061 238.64C304.317 238.885 304.642 239.008 305.036 239.008ZM313.518 231.424V240H312.11V231.424H313.518ZM312.83 228.208C313.043 228.208 313.23 228.283 313.39 228.432C313.561 228.571 313.646 228.795 313.646 229.104C313.646 229.403 313.561 229.627 313.39 229.776C313.23 229.925 313.043 230 312.83 230C312.595 230 312.398 229.925 312.238 229.776C312.078 229.627 311.998 229.403 311.998 229.104C311.998 228.795 312.078 228.571 312.238 228.432C312.398 228.283 312.595 228.208 312.83 228.208ZM321.819 237.632C321.819 238.187 321.68 238.651 321.403 239.024C321.126 239.397 320.731 239.68 320.219 239.872C319.707 240.064 319.099 240.16 318.395 240.16C317.798 240.16 317.28 240.112 316.843 240.016C316.416 239.92 316.038 239.787 315.707 239.616V238.336C316.048 238.507 316.459 238.667 316.939 238.816C317.43 238.955 317.926 239.024 318.427 239.024C319.142 239.024 319.659 238.912 319.979 238.688C320.299 238.453 320.459 238.144 320.459 237.76C320.459 237.547 320.4 237.355 320.283 237.184C320.166 237.013 319.952 236.843 319.643 236.672C319.344 236.501 318.912 236.309 318.347 236.096C317.792 235.883 317.318 235.669 316.923 235.456C316.528 235.243 316.224 234.987 316.011 234.688C315.798 234.389 315.691 234.005 315.691 233.536C315.691 232.811 315.984 232.251 316.571 231.856C317.168 231.461 317.947 231.264 318.907 231.264C319.43 231.264 319.915 231.317 320.363 231.424C320.822 231.52 321.248 231.659 321.643 231.84L321.163 232.96C320.928 232.853 320.678 232.763 320.411 232.688C320.155 232.603 319.894 232.539 319.627 232.496C319.36 232.443 319.088 232.416 318.811 232.416C318.235 232.416 317.792 232.512 317.483 232.704C317.184 232.885 317.035 233.136 317.035 233.456C317.035 233.691 317.104 233.893 317.243 234.064C317.382 234.224 317.611 234.384 317.931 234.544C318.262 234.693 318.699 234.875 319.243 235.088C319.787 235.291 320.251 235.499 320.635 235.712C321.019 235.925 321.312 236.187 321.515 236.496C321.718 236.795 321.819 237.173 321.819 237.632ZM331.36 231.264C332.096 231.264 332.725 231.424 333.248 231.744C333.781 232.064 334.186 232.517 334.464 233.104C334.752 233.68 334.896 234.357 334.896 235.136V235.984H329.024C329.045 236.955 329.29 237.696 329.76 238.208C330.24 238.709 330.906 238.96 331.76 238.96C332.304 238.96 332.784 238.912 333.2 238.816C333.626 238.709 334.064 238.56 334.512 238.368V239.6C334.074 239.792 333.642 239.931 333.216 240.016C332.789 240.112 332.282 240.16 331.696 240.16C330.885 240.16 330.165 239.995 329.536 239.664C328.917 239.333 328.432 238.843 328.08 238.192C327.738 237.531 327.568 236.725 327.568 235.776C327.568 234.837 327.722 234.032 328.032 233.36C328.352 232.688 328.794 232.171 329.36 231.808C329.936 231.445 330.602 231.264 331.36 231.264ZM331.344 232.416C330.672 232.416 330.138 232.635 329.744 233.072C329.36 233.499 329.13 234.096 329.056 234.864H333.424C333.424 234.373 333.349 233.947 333.2 233.584C333.05 233.221 332.821 232.939 332.512 232.736C332.213 232.523 331.824 232.416 331.344 232.416ZM340.391 231.264C341.127 231.264 341.756 231.424 342.279 231.744C342.812 232.064 343.217 232.517 343.495 233.104C343.783 233.68 343.927 234.357 343.927 235.136V235.984H338.055C338.076 236.955 338.321 237.696 338.791 238.208C339.271 238.709 339.937 238.96 340.791 238.96C341.335 238.96 341.815 238.912 342.231 238.816C342.657 238.709 343.095 238.56 343.543 238.368V239.6C343.105 239.792 342.673 239.931 342.247 240.016C341.82 240.112 341.313 240.16 340.727 240.16C339.916 240.16 339.196 239.995 338.567 239.664C337.948 239.333 337.463 238.843 337.111 238.192C336.769 237.531 336.599 236.725 336.599 235.776C336.599 234.837 336.753 234.032 337.063 233.36C337.383 232.688 337.825 232.171 338.391 231.808C338.967 231.445 339.633 231.264 340.391 231.264ZM340.375 232.416C339.703 232.416 339.169 232.635 338.775 233.072C338.391 233.499 338.161 234.096 338.087 234.864H342.455C342.455 234.373 342.38 233.947 342.231 233.584C342.081 233.221 341.852 232.939 341.543 232.736C341.244 232.523 340.855 232.416 340.375 232.416ZM350.238 231.264C351.262 231.264 352.035 231.515 352.558 232.016C353.081 232.507 353.342 233.307 353.342 234.416V240H351.95V234.512C351.95 233.819 351.795 233.301 351.486 232.96C351.177 232.619 350.691 232.448 350.03 232.448C349.081 232.448 348.425 232.715 348.062 233.248C347.699 233.781 347.518 234.549 347.518 235.552V240H346.11V231.424H347.246L347.454 232.592H347.534C347.726 232.293 347.961 232.048 348.238 231.856C348.526 231.653 348.841 231.504 349.182 231.408C349.523 231.312 349.875 231.264 350.238 231.264ZM362.045 240L358.797 231.424H360.301L362.125 236.48C362.21 236.715 362.301 236.976 362.397 237.264C362.493 237.552 362.578 237.829 362.653 238.096C362.728 238.352 362.781 238.571 362.813 238.752H362.877C362.92 238.571 362.978 238.347 363.053 238.08C363.138 237.813 363.229 237.536 363.325 237.248C363.432 236.96 363.522 236.704 363.597 236.48L365.421 231.424H366.925L363.661 240H362.045ZM375.738 235.696C375.738 236.411 375.642 237.045 375.45 237.6C375.269 238.144 375.002 238.608 374.65 238.992C374.309 239.376 373.887 239.669 373.386 239.872C372.895 240.064 372.346 240.16 371.738 240.16C371.173 240.16 370.65 240.064 370.17 239.872C369.69 239.669 369.274 239.376 368.922 238.992C368.57 238.608 368.293 238.144 368.09 237.6C367.898 237.045 367.802 236.411 367.802 235.696C367.802 234.747 367.962 233.947 368.282 233.296C368.602 232.635 369.061 232.133 369.658 231.792C370.255 231.44 370.965 231.264 371.786 231.264C372.565 231.264 373.247 231.44 373.834 231.792C374.431 232.133 374.895 232.635 375.226 233.296C375.567 233.947 375.738 234.747 375.738 235.696ZM369.258 235.696C369.258 236.368 369.343 236.955 369.514 237.456C369.695 237.947 369.973 238.325 370.346 238.592C370.719 238.859 371.194 238.992 371.77 238.992C372.346 238.992 372.821 238.859 373.194 238.592C373.567 238.325 373.839 237.947 374.01 237.456C374.191 236.955 374.282 236.368 374.282 235.696C374.282 235.013 374.191 234.432 374.01 233.952C373.829 233.472 373.551 233.104 373.178 232.848C372.815 232.581 372.341 232.448 371.754 232.448C370.879 232.448 370.245 232.736 369.85 233.312C369.455 233.888 369.258 234.683 369.258 235.696ZM385.425 235.696C385.425 236.411 385.329 237.045 385.137 237.6C384.956 238.144 384.689 238.608 384.337 238.992C383.996 239.376 383.575 239.669 383.073 239.872C382.583 240.064 382.033 240.16 381.425 240.16C380.86 240.16 380.337 240.064 379.857 239.872C379.377 239.669 378.961 239.376 378.609 238.992C378.257 238.608 377.98 238.144 377.777 237.6C377.585 237.045 377.489 236.411 377.489 235.696C377.489 234.747 377.649 233.947 377.969 233.296C378.289 232.635 378.748 232.133 379.345 231.792C379.943 231.44 380.652 231.264 381.473 231.264C382.252 231.264 382.935 231.44 383.521 231.792C384.119 232.133 384.583 232.635 384.913 233.296C385.255 233.947 385.425 234.747 385.425 235.696ZM378.945 235.696C378.945 236.368 379.031 236.955 379.201 237.456C379.383 237.947 379.66 238.325 380.033 238.592C380.407 238.859 380.881 238.992 381.457 238.992C382.033 238.992 382.508 238.859 382.881 238.592C383.255 238.325 383.527 237.947 383.697 237.456C383.879 236.955 383.969 236.368 383.969 235.696C383.969 235.013 383.879 234.432 383.697 233.952C383.516 233.472 383.239 233.104 382.865 232.848C382.503 232.581 382.028 232.448 381.441 232.448C380.567 232.448 379.932 232.736 379.537 233.312C379.143 233.888 378.945 234.683 378.945 235.696ZM391.657 231.264C391.817 231.264 391.988 231.275 392.169 231.296C392.361 231.307 392.526 231.328 392.665 231.36L392.489 232.656C392.35 232.624 392.196 232.597 392.025 232.576C391.865 232.555 391.71 232.544 391.561 232.544C391.23 232.544 390.916 232.613 390.617 232.752C390.318 232.891 390.052 233.088 389.817 233.344C389.582 233.589 389.396 233.888 389.257 234.24C389.129 234.592 389.065 234.987 389.065 235.424V240H387.657V231.424H388.809L388.969 232.992H389.033C389.214 232.672 389.433 232.384 389.689 232.128C389.945 231.861 390.238 231.653 390.569 231.504C390.9 231.344 391.262 231.264 391.657 231.264ZM395.674 230.8C395.674 231.163 395.664 231.504 395.642 231.824C395.632 232.133 395.616 232.379 395.594 232.56H395.674C395.92 232.197 396.256 231.893 396.682 231.648C397.109 231.403 397.658 231.28 398.33 231.28C399.397 231.28 400.25 231.653 400.89 232.4C401.541 233.136 401.866 234.24 401.866 235.712C401.866 236.693 401.717 237.515 401.418 238.176C401.13 238.837 400.72 239.333 400.186 239.664C399.653 239.995 399.034 240.16 398.33 240.16C397.658 240.16 397.109 240.037 396.682 239.792C396.256 239.547 395.92 239.253 395.674 238.912H395.562L395.274 240H394.266V227.84H395.674V230.8ZM398.09 232.448C397.482 232.448 397.002 232.565 396.65 232.8C396.298 233.024 396.048 233.376 395.898 233.856C395.749 234.325 395.674 234.928 395.674 235.664V235.728C395.674 236.784 395.845 237.595 396.186 238.16C396.538 238.715 397.184 238.992 398.122 238.992C398.89 238.992 399.461 238.709 399.834 238.144C400.218 237.579 400.41 236.763 400.41 235.696C400.41 234.619 400.218 233.808 399.834 233.264C399.461 232.72 398.88 232.448 398.09 232.448ZM407.422 231.264C408.158 231.264 408.787 231.424 409.31 231.744C409.843 232.064 410.249 232.517 410.526 233.104C410.814 233.68 410.958 234.357 410.958 235.136V235.984H405.086C405.107 236.955 405.353 237.696 405.822 238.208C406.302 238.709 406.969 238.96 407.822 238.96C408.366 238.96 408.846 238.912 409.262 238.816C409.689 238.709 410.126 238.56 410.574 238.368V239.6C410.137 239.792 409.705 239.931 409.278 240.016C408.851 240.112 408.345 240.16 407.758 240.16C406.947 240.16 406.227 239.995 405.598 239.664C404.979 239.333 404.494 238.843 404.142 238.192C403.801 237.531 403.63 236.725 403.63 235.776C403.63 234.837 403.785 234.032 404.094 233.36C404.414 232.688 404.857 232.171 405.422 231.808C405.998 231.445 406.665 231.264 407.422 231.264ZM407.406 232.416C406.734 232.416 406.201 232.635 405.806 233.072C405.422 233.499 405.193 234.096 405.118 234.864H409.486C409.486 234.373 409.411 233.947 409.262 233.584C409.113 233.221 408.883 232.939 408.574 232.736C408.275 232.523 407.886 232.416 407.406 232.416ZM416.453 231.264C417.189 231.264 417.819 231.424 418.341 231.744C418.875 232.064 419.28 232.517 419.557 233.104C419.845 233.68 419.989 234.357 419.989 235.136V235.984H414.117C414.139 236.955 414.384 237.696 414.853 238.208C415.333 238.709 416 238.96 416.853 238.96C417.397 238.96 417.877 238.912 418.293 238.816C418.72 238.709 419.157 238.56 419.605 238.368V239.6C419.168 239.792 418.736 239.931 418.309 240.016C417.883 240.112 417.376 240.16 416.789 240.16C415.979 240.16 415.259 239.995 414.629 239.664C414.011 239.333 413.525 238.843 413.173 238.192C412.832 237.531 412.661 236.725 412.661 235.776C412.661 234.837 412.816 234.032 413.125 233.36C413.445 232.688 413.888 232.171 414.453 231.808C415.029 231.445 415.696 231.264 416.453 231.264ZM416.437 232.416C415.765 232.416 415.232 232.635 414.837 233.072C414.453 233.499 414.224 234.096 414.149 234.864H418.517C418.517 234.373 418.443 233.947 418.293 233.584C418.144 233.221 417.915 232.939 417.605 232.736C417.307 232.523 416.917 232.416 416.437 232.416ZM423.581 240H422.173V227.84H423.581V240ZM429.338 240.16C428.271 240.16 427.418 239.792 426.778 239.056C426.138 238.309 425.818 237.2 425.818 235.728C425.818 234.256 426.138 233.147 426.778 232.4C427.428 231.643 428.287 231.264 429.354 231.264C429.802 231.264 430.191 231.323 430.522 231.44C430.852 231.547 431.14 231.696 431.386 231.888C431.631 232.08 431.839 232.293 432.01 232.528H432.106C432.095 232.389 432.074 232.187 432.042 231.92C432.02 231.643 432.01 231.424 432.01 231.264V227.84H433.418V240H432.282L432.074 238.848H432.01C431.839 239.093 431.631 239.317 431.386 239.52C431.14 239.712 430.847 239.867 430.506 239.984C430.175 240.101 429.786 240.16 429.338 240.16ZM429.562 238.992C430.468 238.992 431.103 238.747 431.466 238.256C431.839 237.755 432.026 237.003 432.026 236V235.744C432.026 234.677 431.85 233.861 431.498 233.296C431.146 232.72 430.495 232.432 429.546 232.432C428.788 232.432 428.218 232.736 427.834 233.344C427.46 233.941 427.274 234.747 427.274 235.76C427.274 236.784 427.46 237.579 427.834 238.144C428.218 238.709 428.794 238.992 429.562 238.992ZM442.186 240L438.938 231.424H440.442L442.266 236.48C442.351 236.715 442.442 236.976 442.538 237.264C442.634 237.552 442.719 237.829 442.794 238.096C442.868 238.352 442.922 238.571 442.954 238.752H443.018C443.06 238.571 443.119 238.347 443.194 238.08C443.279 237.813 443.37 237.536 443.466 237.248C443.572 236.96 443.663 236.704 443.738 236.48L445.562 231.424H447.066L443.802 240H442.186ZM451.671 231.28C452.716 231.28 453.489 231.509 453.991 231.968C454.492 232.427 454.743 233.157 454.743 234.16V240H453.719L453.447 238.784H453.383C453.137 239.093 452.881 239.355 452.615 239.568C452.359 239.771 452.06 239.92 451.719 240.016C451.388 240.112 450.983 240.16 450.503 240.16C449.991 240.16 449.527 240.069 449.111 239.888C448.705 239.707 448.385 239.429 448.151 239.056C447.916 238.672 447.799 238.192 447.799 237.616C447.799 236.763 448.135 236.107 448.807 235.648C449.479 235.179 450.513 234.923 451.911 234.88L453.367 234.832V234.32C453.367 233.605 453.212 233.109 452.903 232.832C452.593 232.555 452.156 232.416 451.591 232.416C451.143 232.416 450.716 232.485 450.311 232.624C449.905 232.752 449.527 232.901 449.174 233.072L448.743 232.016C449.116 231.813 449.559 231.643 450.071 231.504C450.583 231.355 451.116 231.28 451.671 231.28ZM452.087 235.856C451.02 235.899 450.279 236.069 449.863 236.368C449.457 236.667 449.255 237.088 449.255 237.632C449.255 238.112 449.399 238.464 449.687 238.688C449.985 238.912 450.364 239.024 450.823 239.024C451.548 239.024 452.151 238.827 452.631 238.432C453.111 238.027 453.351 237.408 453.351 236.576V235.808L452.087 235.856ZM461.519 231.264C462.543 231.264 463.317 231.515 463.839 232.016C464.362 232.507 464.623 233.307 464.623 234.416V240H463.231V234.512C463.231 233.819 463.077 233.301 462.767 232.96C462.458 232.619 461.973 232.448 461.311 232.448C460.362 232.448 459.706 232.715 459.343 233.248C458.981 233.781 458.799 234.549 458.799 235.552V240H457.391V231.424H458.527L458.735 232.592H458.815C459.007 232.293 459.242 232.048 459.519 231.856C459.807 231.653 460.122 231.504 460.463 231.408C460.805 231.312 461.157 231.264 461.519 231.264ZM474.75 231.264C475.486 231.264 476.115 231.424 476.638 231.744C477.171 232.064 477.577 232.517 477.854 233.104C478.142 233.68 478.286 234.357 478.286 235.136V235.984H472.414C472.435 236.955 472.681 237.696 473.15 238.208C473.63 238.709 474.297 238.96 475.15 238.96C475.694 238.96 476.174 238.912 476.59 238.816C477.017 238.709 477.454 238.56 477.902 238.368V239.6C477.465 239.792 477.033 239.931 476.606 240.016C476.179 240.112 475.673 240.16 475.086 240.16C474.275 240.16 473.555 239.995 472.926 239.664C472.307 239.333 471.822 238.843 471.47 238.192C471.129 237.531 470.958 236.725 470.958 235.776C470.958 234.837 471.113 234.032 471.422 233.36C471.742 232.688 472.185 232.171 472.75 231.808C473.326 231.445 473.993 231.264 474.75 231.264ZM474.734 232.416C474.062 232.416 473.529 232.635 473.134 233.072C472.75 233.499 472.521 234.096 472.446 234.864H476.814C476.814 234.373 476.739 233.947 476.59 233.584C476.441 233.221 476.211 232.939 475.902 232.736C475.603 232.523 475.214 232.416 474.734 232.416ZM483.781 231.264C484.517 231.264 485.147 231.424 485.669 231.744C486.203 232.064 486.608 232.517 486.885 233.104C487.173 233.68 487.317 234.357 487.317 235.136V235.984H481.445C481.467 236.955 481.712 237.696 482.181 238.208C482.661 238.709 483.328 238.96 484.181 238.96C484.725 238.96 485.205 238.912 485.621 238.816C486.048 238.709 486.485 238.56 486.933 238.368V239.6C486.496 239.792 486.064 239.931 485.637 240.016C485.211 240.112 484.704 240.16 484.117 240.16C483.307 240.16 482.587 239.995 481.957 239.664C481.339 239.333 480.853 238.843 480.501 238.192C480.16 237.531 479.989 236.725 479.989 235.776C479.989 234.837 480.144 234.032 480.453 233.36C480.773 232.688 481.216 232.171 481.781 231.808C482.357 231.445 483.024 231.264 483.781 231.264ZM483.765 232.416C483.093 232.416 482.56 232.635 482.165 233.072C481.781 233.499 481.552 234.096 481.477 234.864H485.845C485.845 234.373 485.771 233.947 485.621 233.584C485.472 233.221 485.243 232.939 484.933 232.736C484.635 232.523 484.245 232.416 483.765 232.416ZM493.629 231.264C494.653 231.264 495.426 231.515 495.949 232.016C496.471 232.507 496.733 233.307 496.733 234.416V240H495.341V234.512C495.341 233.819 495.186 233.301 494.877 232.96C494.567 232.619 494.082 232.448 493.421 232.448C492.471 232.448 491.815 232.715 491.453 233.248C491.09 233.781 490.909 234.549 490.909 235.552V240H489.501V231.424H490.637L490.845 232.592H490.925C491.117 232.293 491.351 232.048 491.629 231.856C491.917 231.653 492.231 231.504 492.573 231.408C492.914 231.312 493.266 231.264 493.629 231.264ZM505.18 240H503.74V228.576H510.124V229.84H505.18V233.888H509.82V235.152H505.18V240ZM519.3 235.696C519.3 236.411 519.204 237.045 519.012 237.6C518.831 238.144 518.564 238.608 518.212 238.992C517.871 239.376 517.45 239.669 516.948 239.872C516.458 240.064 515.908 240.16 515.3 240.16C514.735 240.16 514.212 240.064 513.732 239.872C513.252 239.669 512.836 239.376 512.484 238.992C512.132 238.608 511.855 238.144 511.652 237.6C511.46 237.045 511.364 236.411 511.364 235.696C511.364 234.747 511.524 233.947 511.844 233.296C512.164 232.635 512.623 232.133 513.22 231.792C513.818 231.44 514.527 231.264 515.348 231.264C516.127 231.264 516.81 231.44 517.396 231.792C517.994 232.133 518.458 232.635 518.788 233.296C519.13 233.947 519.3 234.747 519.3 235.696ZM512.82 235.696C512.82 236.368 512.906 236.955 513.076 237.456C513.258 237.947 513.535 238.325 513.908 238.592C514.282 238.859 514.756 238.992 515.332 238.992C515.908 238.992 516.383 238.859 516.756 238.592C517.13 238.325 517.402 237.947 517.572 237.456C517.754 236.955 517.844 236.368 517.844 235.696C517.844 235.013 517.754 234.432 517.572 233.952C517.391 233.472 517.114 233.104 516.74 232.848C516.378 232.581 515.903 232.448 515.316 232.448C514.442 232.448 513.807 232.736 513.412 233.312C513.018 233.888 512.82 234.683 512.82 235.696ZM525.532 231.264C525.692 231.264 525.863 231.275 526.044 231.296C526.236 231.307 526.401 231.328 526.54 231.36L526.364 232.656C526.225 232.624 526.071 232.597 525.9 232.576C525.74 232.555 525.585 232.544 525.436 232.544C525.105 232.544 524.791 232.613 524.492 232.752C524.193 232.891 523.927 233.088 523.692 233.344C523.457 233.589 523.271 233.888 523.132 234.24C523.004 234.592 522.94 234.987 522.94 235.424V240H521.532V231.424H522.684L522.844 232.992H522.908C523.089 232.672 523.308 232.384 523.564 232.128C523.82 231.861 524.113 231.653 524.444 231.504C524.775 231.344 525.137 231.264 525.532 231.264ZM537.549 231.264C538.52 231.264 539.245 231.515 539.725 232.016C540.205 232.507 540.445 233.307 540.445 234.416V240H539.053V234.48C539.053 233.808 538.909 233.301 538.621 232.96C538.344 232.619 537.907 232.448 537.309 232.448C536.477 232.448 535.88 232.688 535.517 233.168C535.165 233.648 534.989 234.347 534.989 235.264V240H533.597V234.48C533.597 234.032 533.533 233.659 533.405 233.36C533.277 233.051 533.085 232.821 532.829 232.672C532.573 232.523 532.243 232.448 531.837 232.448C531.261 232.448 530.808 232.571 530.477 232.816C530.147 233.051 529.907 233.397 529.757 233.856C529.619 234.315 529.549 234.88 529.549 235.552V240H528.141V231.424H529.277L529.485 232.592H529.565C529.747 232.293 529.965 232.048 530.221 231.856C530.488 231.653 530.781 231.504 531.101 231.408C531.421 231.312 531.752 231.264 532.093 231.264C532.755 231.264 533.304 231.381 533.741 231.616C534.189 231.851 534.515 232.213 534.717 232.704H534.797C535.085 232.213 535.475 231.851 535.965 231.616C536.467 231.381 536.995 231.264 537.549 231.264ZM548.883 240H547.443V228.576H553.827V229.84H548.883V233.888H553.523V235.152H548.883V240ZM556.956 231.424V240H555.548V231.424H556.956ZM556.268 228.208C556.481 228.208 556.668 228.283 556.828 228.432C556.998 228.571 557.084 228.795 557.084 229.104C557.084 229.403 556.998 229.627 556.828 229.776C556.668 229.925 556.481 230 556.268 230C556.033 230 555.836 229.925 555.676 229.776C555.516 229.627 555.436 229.403 555.436 229.104C555.436 228.795 555.516 228.571 555.676 228.432C555.836 228.283 556.033 228.208 556.268 228.208ZM562.985 231.264C563.721 231.264 564.35 231.424 564.873 231.744C565.406 232.064 565.811 232.517 566.089 233.104C566.377 233.68 566.521 234.357 566.521 235.136V235.984H560.649C560.67 236.955 560.915 237.696 561.385 238.208C561.865 238.709 562.531 238.96 563.385 238.96C563.929 238.96 564.409 238.912 564.825 238.816C565.251 238.709 565.689 238.56 566.137 238.368V239.6C565.699 239.792 565.267 239.931 564.841 240.016C564.414 240.112 563.907 240.16 563.321 240.16C562.51 240.16 561.79 239.995 561.161 239.664C560.542 239.333 560.057 238.843 559.705 238.192C559.363 237.531 559.193 236.725 559.193 235.776C559.193 234.837 559.347 234.032 559.657 233.36C559.977 232.688 560.419 232.171 560.985 231.808C561.561 231.445 562.227 231.264 562.985 231.264ZM562.969 232.416C562.297 232.416 561.763 232.635 561.369 233.072C560.985 233.499 560.755 234.096 560.681 234.864H565.049C565.049 234.373 564.974 233.947 564.825 233.584C564.675 233.221 564.446 232.939 564.137 232.736C563.838 232.523 563.449 232.416 562.969 232.416ZM570.112 240H568.704V227.84H570.112V240ZM575.869 240.16C574.802 240.16 573.949 239.792 573.309 239.056C572.669 238.309 572.349 237.2 572.349 235.728C572.349 234.256 572.669 233.147 573.309 232.4C573.959 231.643 574.818 231.264 575.885 231.264C576.333 231.264 576.722 231.323 577.053 231.44C577.383 231.547 577.671 231.696 577.917 231.888C578.162 232.08 578.37 232.293 578.541 232.528H578.637C578.626 232.389 578.605 232.187 578.573 231.92C578.551 231.643 578.541 231.424 578.541 231.264V227.84H579.949V240H578.813L578.605 238.848H578.541C578.37 239.093 578.162 239.317 577.917 239.52C577.671 239.712 577.378 239.867 577.037 239.984C576.706 240.101 576.317 240.16 575.869 240.16ZM576.093 238.992C576.999 238.992 577.634 238.747 577.997 238.256C578.37 237.755 578.557 237.003 578.557 236V235.744C578.557 234.677 578.381 233.861 578.029 233.296C577.677 232.72 577.026 232.432 576.077 232.432C575.319 232.432 574.749 232.736 574.365 233.344C573.991 233.941 573.805 234.747 573.805 235.76C573.805 236.784 573.991 237.579 574.365 238.144C574.749 238.709 575.325 238.992 576.093 238.992ZM596.173 234.176C596.173 235.456 595.933 236.528 595.453 237.392C594.983 238.256 594.306 238.907 593.421 239.344C592.535 239.781 591.463 240 590.205 240H587.021V228.576H590.541C591.693 228.576 592.69 228.789 593.533 229.216C594.375 229.643 595.026 230.272 595.485 231.104C595.943 231.925 596.173 232.949 596.173 234.176ZM594.653 234.224C594.653 233.211 594.482 232.379 594.141 231.728C593.81 231.077 593.319 230.597 592.669 230.288C592.029 229.968 591.25 229.808 590.333 229.808H588.461V238.768H590.013C591.559 238.768 592.717 238.389 593.485 237.632C594.263 236.864 594.653 235.728 594.653 234.224ZM601.828 231.264C602.564 231.264 603.194 231.424 603.716 231.744C604.25 232.064 604.655 232.517 604.932 233.104C605.22 233.68 605.364 234.357 605.364 235.136V235.984H599.492C599.514 236.955 599.759 237.696 600.228 238.208C600.708 238.709 601.375 238.96 602.228 238.96C602.772 238.96 603.252 238.912 603.668 238.816C604.095 238.709 604.532 238.56 604.98 238.368V239.6C604.543 239.792 604.111 239.931 603.684 240.016C603.258 240.112 602.751 240.16 602.164 240.16C601.354 240.16 600.634 239.995 600.004 239.664C599.386 239.333 598.9 238.843 598.548 238.192C598.207 237.531 598.036 236.725 598.036 235.776C598.036 234.837 598.191 234.032 598.5 233.36C598.82 232.688 599.263 232.171 599.828 231.808C600.404 231.445 601.071 231.264 601.828 231.264ZM601.812 232.416C601.14 232.416 600.607 232.635 600.212 233.072C599.828 233.499 599.599 234.096 599.524 234.864H603.892C603.892 234.373 603.818 233.947 603.668 233.584C603.519 233.221 603.29 232.939 602.98 232.736C602.682 232.523 602.292 232.416 601.812 232.416ZM613.132 237.632C613.132 238.187 612.993 238.651 612.716 239.024C612.438 239.397 612.044 239.68 611.532 239.872C611.02 240.064 610.412 240.16 609.708 240.16C609.11 240.16 608.593 240.112 608.156 240.016C607.729 239.92 607.35 239.787 607.02 239.616V238.336C607.361 238.507 607.772 238.667 608.252 238.816C608.742 238.955 609.238 239.024 609.74 239.024C610.454 239.024 610.972 238.912 611.292 238.688C611.612 238.453 611.772 238.144 611.772 237.76C611.772 237.547 611.713 237.355 611.596 237.184C611.478 237.013 611.265 236.843 610.956 236.672C610.657 236.501 610.225 236.309 609.66 236.096C609.105 235.883 608.63 235.669 608.236 235.456C607.841 235.243 607.537 234.987 607.324 234.688C607.11 234.389 607.004 234.005 607.004 233.536C607.004 232.811 607.297 232.251 607.884 231.856C608.481 231.461 609.26 231.264 610.22 231.264C610.742 231.264 611.228 231.317 611.676 231.424C612.134 231.52 612.561 231.659 612.956 231.84L612.476 232.96C612.241 232.853 611.99 232.763 611.724 232.688C611.468 232.603 611.206 232.539 610.94 232.496C610.673 232.443 610.401 232.416 610.124 232.416C609.548 232.416 609.105 232.512 608.796 232.704C608.497 232.885 608.348 233.136 608.348 233.456C608.348 233.691 608.417 233.893 608.556 234.064C608.694 234.224 608.924 234.384 609.244 234.544C609.574 234.693 610.012 234.875 610.556 235.088C611.1 235.291 611.564 235.499 611.948 235.712C612.332 235.925 612.625 236.187 612.828 236.496C613.03 236.795 613.132 237.173 613.132 237.632ZM618.644 240.16C617.886 240.16 617.209 240.005 616.612 239.696C616.025 239.387 615.561 238.907 615.22 238.256C614.889 237.605 614.724 236.773 614.724 235.76C614.724 234.704 614.9 233.845 615.252 233.184C615.604 232.523 616.078 232.037 616.676 231.728C617.284 231.419 617.972 231.264 618.74 231.264C619.177 231.264 619.598 231.312 620.004 231.408C620.409 231.493 620.74 231.6 620.996 231.728L620.564 232.896C620.308 232.8 620.009 232.709 619.668 232.624C619.326 232.539 619.006 232.496 618.708 232.496C618.132 232.496 617.657 232.619 617.284 232.864C616.91 233.109 616.633 233.472 616.452 233.952C616.27 234.432 616.18 235.029 616.18 235.744C616.18 236.427 616.27 237.008 616.452 237.488C616.633 237.968 616.905 238.331 617.268 238.576C617.63 238.821 618.084 238.944 618.628 238.944C619.097 238.944 619.508 238.896 619.86 238.8C620.222 238.704 620.553 238.587 620.852 238.448V239.696C620.564 239.845 620.244 239.957 619.892 240.032C619.55 240.117 619.134 240.16 618.644 240.16ZM626.891 231.264C627.051 231.264 627.222 231.275 627.403 231.296C627.595 231.307 627.761 231.328 627.899 231.36L627.723 232.656C627.585 232.624 627.43 232.597 627.259 232.576C627.099 232.555 626.945 232.544 626.795 232.544C626.465 232.544 626.15 232.613 625.851 232.752C625.553 232.891 625.286 233.088 625.051 233.344C624.817 233.589 624.63 233.888 624.491 234.24C624.363 234.592 624.299 234.987 624.299 235.424V240H622.891V231.424H624.043L624.203 232.992H624.267C624.449 232.672 624.667 232.384 624.923 232.128C625.179 231.861 625.473 231.653 625.803 231.504C626.134 231.344 626.497 231.264 626.891 231.264ZM630.909 231.424V240H629.501V231.424H630.909ZM630.221 228.208C630.434 228.208 630.621 228.283 630.781 228.432C630.951 228.571 631.037 228.795 631.037 229.104C631.037 229.403 630.951 229.627 630.781 229.776C630.621 229.925 630.434 230 630.221 230C629.986 230 629.789 229.925 629.629 229.776C629.469 229.627 629.389 229.403 629.389 229.104C629.389 228.795 629.469 228.571 629.629 228.432C629.789 228.283 629.986 228.208 630.221 228.208ZM637.706 231.264C638.762 231.264 639.61 231.632 640.25 232.368C640.9 233.104 641.226 234.213 641.226 235.696C641.226 236.667 641.076 237.488 640.778 238.16C640.49 238.821 640.079 239.323 639.546 239.664C639.023 239.995 638.404 240.16 637.69 240.16C637.252 240.16 636.863 240.101 636.522 239.984C636.18 239.867 635.887 239.717 635.642 239.536C635.407 239.344 635.204 239.136 635.034 238.912H634.938C634.959 239.093 634.98 239.323 635.002 239.6C635.023 239.877 635.034 240.117 635.034 240.32V243.84H633.626V231.424H634.778L634.97 232.592H635.034C635.204 232.347 635.407 232.123 635.642 231.92C635.887 231.717 636.175 231.557 636.506 231.44C636.847 231.323 637.247 231.264 637.706 231.264ZM637.45 232.448C636.874 232.448 636.41 232.56 636.058 232.784C635.706 232.997 635.45 233.323 635.29 233.76C635.13 234.197 635.044 234.752 635.034 235.424V235.696C635.034 236.4 635.108 236.997 635.258 237.488C635.407 237.979 635.658 238.352 636.01 238.608C636.372 238.864 636.863 238.992 637.482 238.992C638.004 238.992 638.431 238.848 638.762 238.56C639.103 238.272 639.354 237.883 639.514 237.392C639.684 236.891 639.77 236.32 639.77 235.68C639.77 234.699 639.578 233.915 639.194 233.328C638.82 232.741 638.239 232.448 637.45 232.448ZM646.333 239.008C646.547 239.008 646.765 238.992 646.989 238.96C647.213 238.917 647.395 238.875 647.533 238.832V239.904C647.384 239.979 647.171 240.037 646.893 240.08C646.616 240.133 646.349 240.16 646.093 240.16C645.645 240.16 645.229 240.085 644.845 239.936C644.472 239.776 644.168 239.504 643.933 239.12C643.699 238.736 643.581 238.197 643.581 237.504V232.512H642.365V231.84L643.597 231.28L644.157 229.456H644.989V231.424H647.469V232.512H644.989V237.472C644.989 237.995 645.112 238.384 645.357 238.64C645.613 238.885 645.939 239.008 646.333 239.008ZM650.659 231.424V240H649.251V231.424H650.659ZM649.971 228.208C650.184 228.208 650.371 228.283 650.531 228.432C650.701 228.571 650.787 228.795 650.787 229.104C650.787 229.403 650.701 229.627 650.531 229.776C650.371 229.925 650.184 230 649.971 230C649.736 230 649.539 229.925 649.379 229.776C649.219 229.627 649.139 229.403 649.139 229.104C649.139 228.795 649.219 228.571 649.379 228.432C649.539 228.283 649.736 228.208 649.971 228.208ZM660.832 235.696C660.832 236.411 660.736 237.045 660.544 237.6C660.362 238.144 660.096 238.608 659.744 238.992C659.402 239.376 658.981 239.669 658.48 239.872C657.989 240.064 657.44 240.16 656.832 240.16C656.266 240.16 655.744 240.064 655.264 239.872C654.784 239.669 654.368 239.376 654.016 238.992C653.664 238.608 653.386 238.144 653.184 237.6C652.992 237.045 652.896 236.411 652.896 235.696C652.896 234.747 653.056 233.947 653.376 233.296C653.696 232.635 654.154 232.133 654.752 231.792C655.349 231.44 656.058 231.264 656.88 231.264C657.658 231.264 658.341 231.44 658.928 231.792C659.525 232.133 659.989 232.635 660.32 233.296C660.661 233.947 660.832 234.747 660.832 235.696ZM654.352 235.696C654.352 236.368 654.437 236.955 654.608 237.456C654.789 237.947 655.066 238.325 655.44 238.592C655.813 238.859 656.288 238.992 656.864 238.992C657.44 238.992 657.914 238.859 658.288 238.592C658.661 238.325 658.933 237.947 659.104 237.456C659.285 236.955 659.376 236.368 659.376 235.696C659.376 235.013 659.285 234.432 659.104 233.952C658.922 233.472 658.645 233.104 658.272 232.848C657.909 232.581 657.434 232.448 656.848 232.448C655.973 232.448 655.338 232.736 654.944 233.312C654.549 233.888 654.352 234.683 654.352 235.696ZM667.191 231.264C668.215 231.264 668.988 231.515 669.511 232.016C670.034 232.507 670.295 233.307 670.295 234.416V240H668.903V234.512C668.903 233.819 668.748 233.301 668.439 232.96C668.13 232.619 667.644 232.448 666.983 232.448C666.034 232.448 665.378 232.715 665.015 233.248C664.652 233.781 664.471 234.549 664.471 235.552V240H663.063V231.424H664.199L664.407 232.592H664.487C664.679 232.293 664.914 232.048 665.191 231.856C665.479 231.653 665.794 231.504 666.135 231.408C666.476 231.312 666.828 231.264 667.191 231.264ZM672.746 239.136C672.746 238.741 672.842 238.464 673.034 238.304C673.226 238.144 673.455 238.064 673.722 238.064C673.999 238.064 674.234 238.144 674.426 238.304C674.628 238.464 674.73 238.741 674.73 239.136C674.73 239.52 674.628 239.797 674.426 239.968C674.234 240.139 673.999 240.224 673.722 240.224C673.455 240.224 673.226 240.139 673.034 239.968C672.842 239.797 672.746 239.52 672.746 239.136ZM292.936 288H286.552V276.576H292.936V277.84H287.992V281.408H292.648V282.656H287.992V286.736H292.936V288ZM299.379 279.264C300.403 279.264 301.176 279.515 301.699 280.016C302.221 280.507 302.483 281.307 302.483 282.416V288H301.091V282.512C301.091 281.819 300.936 281.301 300.627 280.96C300.317 280.619 299.832 280.448 299.171 280.448C298.221 280.448 297.565 280.715 297.203 281.248C296.84 281.781 296.659 282.549 296.659 283.552V288H295.251V279.424H296.387L296.595 280.592H296.675C296.867 280.293 297.101 280.048 297.379 279.856C297.667 279.653 297.981 279.504 298.323 279.408C298.664 279.312 299.016 279.264 299.379 279.264ZM310.706 279.424V288H309.298V279.424H310.706ZM310.018 276.208C310.231 276.208 310.418 276.283 310.578 276.432C310.748 276.571 310.834 276.795 310.834 277.104C310.834 277.403 310.748 277.627 310.578 277.776C310.418 277.925 310.231 278 310.018 278C309.783 278 309.586 277.925 309.426 277.776C309.266 277.627 309.186 277.403 309.186 277.104C309.186 276.795 309.266 276.571 309.426 276.432C309.586 276.283 309.783 276.208 310.018 276.208ZM317.551 279.264C318.575 279.264 319.348 279.515 319.871 280.016C320.393 280.507 320.655 281.307 320.655 282.416V288H319.263V282.512C319.263 281.819 319.108 281.301 318.799 280.96C318.489 280.619 318.004 280.448 317.343 280.448C316.393 280.448 315.737 280.715 315.375 281.248C315.012 281.781 314.831 282.549 314.831 283.552V288H313.423V279.424H314.559L314.767 280.592H314.847C315.039 280.293 315.273 280.048 315.551 279.856C315.839 279.653 316.153 279.504 316.495 279.408C316.836 279.312 317.188 279.264 317.551 279.264ZM330.781 279.264C331.517 279.264 332.147 279.424 332.669 279.744C333.203 280.064 333.608 280.517 333.885 281.104C334.173 281.68 334.317 282.357 334.317 283.136V283.984H328.445C328.467 284.955 328.712 285.696 329.181 286.208C329.661 286.709 330.328 286.96 331.181 286.96C331.725 286.96 332.205 286.912 332.621 286.816C333.048 286.709 333.485 286.56 333.933 286.368V287.6C333.496 287.792 333.064 287.931 332.637 288.016C332.211 288.112 331.704 288.16 331.117 288.16C330.307 288.16 329.587 287.995 328.957 287.664C328.339 287.333 327.853 286.843 327.501 286.192C327.16 285.531 326.989 284.725 326.989 283.776C326.989 282.837 327.144 282.032 327.453 281.36C327.773 280.688 328.216 280.171 328.781 279.808C329.357 279.445 330.024 279.264 330.781 279.264ZM330.765 280.416C330.093 280.416 329.56 280.635 329.165 281.072C328.781 281.499 328.552 282.096 328.477 282.864H332.845C332.845 282.373 332.771 281.947 332.621 281.584C332.472 281.221 332.243 280.939 331.933 280.736C331.635 280.523 331.245 280.416 330.765 280.416ZM339.813 279.264C340.549 279.264 341.178 279.424 341.701 279.744C342.234 280.064 342.639 280.517 342.917 281.104C343.205 281.68 343.349 282.357 343.349 283.136V283.984H337.477C337.498 284.955 337.743 285.696 338.213 286.208C338.693 286.709 339.359 286.96 340.213 286.96C340.757 286.96 341.237 286.912 341.653 286.816C342.079 286.709 342.517 286.56 342.965 286.368V287.6C342.527 287.792 342.095 287.931 341.669 288.016C341.242 288.112 340.735 288.16 340.149 288.16C339.338 288.16 338.618 287.995 337.989 287.664C337.37 287.333 336.885 286.843 336.533 286.192C336.191 285.531 336.021 284.725 336.021 283.776C336.021 282.837 336.175 282.032 336.485 281.36C336.805 280.688 337.247 280.171 337.813 279.808C338.389 279.445 339.055 279.264 339.813 279.264ZM339.797 280.416C339.125 280.416 338.591 280.635 338.197 281.072C337.813 281.499 337.583 282.096 337.509 282.864H341.877C341.877 282.373 341.802 281.947 341.653 281.584C341.503 281.221 341.274 280.939 340.965 280.736C340.666 280.523 340.277 280.416 339.797 280.416ZM349.66 279.264C350.684 279.264 351.457 279.515 351.98 280.016C352.503 280.507 352.764 281.307 352.764 282.416V288H351.372V282.512C351.372 281.819 351.217 281.301 350.908 280.96C350.599 280.619 350.113 280.448 349.452 280.448C348.503 280.448 347.847 280.715 347.484 281.248C347.121 281.781 346.94 282.549 346.94 283.552V288H345.532V279.424H346.668L346.876 280.592H346.956C347.148 280.293 347.383 280.048 347.66 279.856C347.948 279.653 348.263 279.504 348.604 279.408C348.945 279.312 349.297 279.264 349.66 279.264ZM361.211 288H359.771V276.576H366.155V277.84H361.211V281.888H365.851V283.152H361.211V288ZM375.332 283.696C375.332 284.411 375.236 285.045 375.044 285.6C374.862 286.144 374.596 286.608 374.244 286.992C373.902 287.376 373.481 287.669 372.98 287.872C372.489 288.064 371.94 288.16 371.332 288.16C370.766 288.16 370.244 288.064 369.764 287.872C369.284 287.669 368.868 287.376 368.516 286.992C368.164 286.608 367.886 286.144 367.684 285.6C367.492 285.045 367.396 284.411 367.396 283.696C367.396 282.747 367.556 281.947 367.876 281.296C368.196 280.635 368.654 280.133 369.252 279.792C369.849 279.44 370.558 279.264 371.38 279.264C372.158 279.264 372.841 279.44 373.428 279.792C374.025 280.133 374.489 280.635 374.82 281.296C375.161 281.947 375.332 282.747 375.332 283.696ZM368.852 283.696C368.852 284.368 368.937 284.955 369.108 285.456C369.289 285.947 369.566 286.325 369.94 286.592C370.313 286.859 370.788 286.992 371.364 286.992C371.94 286.992 372.414 286.859 372.788 286.592C373.161 286.325 373.433 285.947 373.604 285.456C373.785 284.955 373.876 284.368 373.876 283.696C373.876 283.013 373.785 282.432 373.604 281.952C373.422 281.472 373.145 281.104 372.772 280.848C372.409 280.581 371.934 280.448 371.348 280.448C370.473 280.448 369.838 280.736 369.444 281.312C369.049 281.888 368.852 282.683 368.852 283.696ZM381.563 279.264C381.723 279.264 381.894 279.275 382.075 279.296C382.267 279.307 382.432 279.328 382.571 279.36L382.395 280.656C382.256 280.624 382.102 280.597 381.931 280.576C381.771 280.555 381.616 280.544 381.467 280.544C381.136 280.544 380.822 280.613 380.523 280.752C380.224 280.891 379.958 281.088 379.723 281.344C379.488 281.589 379.302 281.888 379.163 282.24C379.035 282.592 378.971 282.987 378.971 283.424V288H377.563V279.424H378.715L378.875 280.992H378.939C379.12 280.672 379.339 280.384 379.595 280.128C379.851 279.861 380.144 279.653 380.475 279.504C380.806 279.344 381.168 279.264 381.563 279.264ZM393.581 279.264C394.551 279.264 395.277 279.515 395.757 280.016C396.237 280.507 396.477 281.307 396.477 282.416V288H395.085V282.48C395.085 281.808 394.941 281.301 394.653 280.96C394.375 280.619 393.938 280.448 393.341 280.448C392.509 280.448 391.911 280.688 391.549 281.168C391.197 281.648 391.021 282.347 391.021 283.264V288H389.629V282.48C389.629 282.032 389.565 281.659 389.437 281.36C389.309 281.051 389.117 280.821 388.861 280.672C388.605 280.523 388.274 280.448 387.869 280.448C387.293 280.448 386.839 280.571 386.509 280.816C386.178 281.051 385.938 281.397 385.789 281.856C385.65 282.315 385.581 282.88 385.581 283.552V288H384.173V279.424H385.309L385.517 280.592H385.597C385.778 280.293 385.997 280.048 386.253 279.856C386.519 279.653 386.813 279.504 387.133 279.408C387.453 279.312 387.783 279.264 388.125 279.264C388.786 279.264 389.335 279.381 389.773 279.616C390.221 279.851 390.546 280.213 390.749 280.704H390.829C391.117 280.213 391.506 279.851 391.997 279.616C392.498 279.381 393.026 279.264 393.581 279.264ZM404.914 288H403.474V276.576H409.858V277.84H404.914V281.888H409.554V283.152H404.914V288ZM412.987 279.424V288H411.579V279.424H412.987ZM412.299 276.208C412.512 276.208 412.699 276.283 412.859 276.432C413.029 276.571 413.115 276.795 413.115 277.104C413.115 277.403 413.029 277.627 412.859 277.776C412.699 277.925 412.512 278 412.299 278C412.064 278 411.867 277.925 411.707 277.776C411.547 277.627 411.467 277.403 411.467 277.104C411.467 276.795 411.547 276.571 411.707 276.432C411.867 276.283 412.064 276.208 412.299 276.208ZM419.016 279.264C419.752 279.264 420.381 279.424 420.904 279.744C421.437 280.064 421.842 280.517 422.12 281.104C422.408 281.68 422.552 282.357 422.552 283.136V283.984H416.68C416.701 284.955 416.946 285.696 417.416 286.208C417.896 286.709 418.562 286.96 419.416 286.96C419.96 286.96 420.44 286.912 420.856 286.816C421.282 286.709 421.72 286.56 422.168 286.368V287.6C421.73 287.792 421.298 287.931 420.872 288.016C420.445 288.112 419.938 288.16 419.352 288.16C418.541 288.16 417.821 287.995 417.192 287.664C416.573 287.333 416.088 286.843 415.736 286.192C415.394 285.531 415.224 284.725 415.224 283.776C415.224 282.837 415.378 282.032 415.688 281.36C416.008 280.688 416.45 280.171 417.016 279.808C417.592 279.445 418.258 279.264 419.016 279.264ZM419 280.416C418.328 280.416 417.794 280.635 417.4 281.072C417.016 281.499 416.786 282.096 416.712 282.864H421.08C421.08 282.373 421.005 281.947 420.856 281.584C420.706 281.221 420.477 280.939 420.168 280.736C419.869 280.523 419.48 280.416 419 280.416ZM426.143 288H424.735V275.84H426.143V288ZM431.9 288.16C430.833 288.16 429.98 287.792 429.34 287.056C428.7 286.309 428.38 285.2 428.38 283.728C428.38 282.256 428.7 281.147 429.34 280.4C429.991 279.643 430.849 279.264 431.916 279.264C432.364 279.264 432.753 279.323 433.084 279.44C433.415 279.547 433.703 279.696 433.948 279.888C434.193 280.08 434.401 280.293 434.572 280.528H434.668C434.657 280.389 434.636 280.187 434.604 279.92C434.583 279.643 434.572 279.424 434.572 279.264V275.84H435.98V288H434.844L434.636 286.848H434.572C434.401 287.093 434.193 287.317 433.948 287.52C433.703 287.712 433.409 287.867 433.068 287.984C432.737 288.101 432.348 288.16 431.9 288.16ZM432.124 286.992C433.031 286.992 433.665 286.747 434.028 286.256C434.401 285.755 434.588 285.003 434.588 284V283.744C434.588 282.677 434.412 281.861 434.06 281.296C433.708 280.72 433.057 280.432 432.108 280.432C431.351 280.432 430.78 280.736 430.396 281.344C430.023 281.941 429.836 282.747 429.836 283.76C429.836 284.784 430.023 285.579 430.396 286.144C430.78 286.709 431.356 286.992 432.124 286.992ZM452.204 282.176C452.204 283.456 451.964 284.528 451.484 285.392C451.015 286.256 450.337 286.907 449.452 287.344C448.567 287.781 447.495 288 446.236 288H443.052V276.576H446.572C447.724 276.576 448.721 276.789 449.564 277.216C450.407 277.643 451.057 278.272 451.516 279.104C451.975 279.925 452.204 280.949 452.204 282.176ZM450.684 282.224C450.684 281.211 450.513 280.379 450.172 279.728C449.841 279.077 449.351 278.597 448.7 278.288C448.06 277.968 447.281 277.808 446.364 277.808H444.492V286.768H446.044C447.591 286.768 448.748 286.389 449.516 285.632C450.295 284.864 450.684 283.728 450.684 282.224ZM457.86 279.264C458.596 279.264 459.225 279.424 459.748 279.744C460.281 280.064 460.686 280.517 460.964 281.104C461.252 281.68 461.396 282.357 461.396 283.136V283.984H455.524C455.545 284.955 455.79 285.696 456.26 286.208C456.74 286.709 457.406 286.96 458.26 286.96C458.804 286.96 459.284 286.912 459.7 286.816C460.126 286.709 460.564 286.56 461.012 286.368V287.6C460.574 287.792 460.142 287.931 459.716 288.016C459.289 288.112 458.782 288.16 458.196 288.16C457.385 288.16 456.665 287.995 456.036 287.664C455.417 287.333 454.932 286.843 454.58 286.192C454.238 285.531 454.068 284.725 454.068 283.776C454.068 282.837 454.222 282.032 454.532 281.36C454.852 280.688 455.294 280.171 455.86 279.808C456.436 279.445 457.102 279.264 457.86 279.264ZM457.844 280.416C457.172 280.416 456.638 280.635 456.244 281.072C455.86 281.499 455.63 282.096 455.556 282.864H459.924C459.924 282.373 459.849 281.947 459.7 281.584C459.55 281.221 459.321 280.939 459.012 280.736C458.713 280.523 458.324 280.416 457.844 280.416ZM469.163 285.632C469.163 286.187 469.024 286.651 468.747 287.024C468.469 287.397 468.075 287.68 467.563 287.872C467.051 288.064 466.443 288.16 465.739 288.16C465.141 288.16 464.624 288.112 464.187 288.016C463.76 287.92 463.381 287.787 463.051 287.616V286.336C463.392 286.507 463.803 286.667 464.283 286.816C464.773 286.955 465.269 287.024 465.771 287.024C466.485 287.024 467.003 286.912 467.323 286.688C467.643 286.453 467.803 286.144 467.803 285.76C467.803 285.547 467.744 285.355 467.627 285.184C467.509 285.013 467.296 284.843 466.987 284.672C466.688 284.501 466.256 284.309 465.691 284.096C465.136 283.883 464.661 283.669 464.267 283.456C463.872 283.243 463.568 282.987 463.355 282.688C463.141 282.389 463.035 282.005 463.035 281.536C463.035 280.811 463.328 280.251 463.915 279.856C464.512 279.461 465.291 279.264 466.251 279.264C466.773 279.264 467.259 279.317 467.707 279.424C468.165 279.52 468.592 279.659 468.987 279.84L468.507 280.96C468.272 280.853 468.021 280.763 467.755 280.688C467.499 280.603 467.237 280.539 466.971 280.496C466.704 280.443 466.432 280.416 466.155 280.416C465.579 280.416 465.136 280.512 464.827 280.704C464.528 280.885 464.379 281.136 464.379 281.456C464.379 281.691 464.448 281.893 464.587 282.064C464.725 282.224 464.955 282.384 465.275 282.544C465.605 282.693 466.043 282.875 466.587 283.088C467.131 283.291 467.595 283.499 467.979 283.712C468.363 283.925 468.656 284.187 468.859 284.496C469.061 284.795 469.163 285.173 469.163 285.632ZM474.675 288.16C473.918 288.16 473.24 288.005 472.643 287.696C472.056 287.387 471.592 286.907 471.251 286.256C470.92 285.605 470.755 284.773 470.755 283.76C470.755 282.704 470.931 281.845 471.283 281.184C471.635 280.523 472.11 280.037 472.707 279.728C473.315 279.419 474.003 279.264 474.771 279.264C475.208 279.264 475.63 279.312 476.035 279.408C476.44 279.493 476.771 279.6 477.027 279.728L476.595 280.896C476.339 280.8 476.04 280.709 475.699 280.624C475.358 280.539 475.038 280.496 474.739 280.496C474.163 280.496 473.688 280.619 473.315 280.864C472.942 281.109 472.664 281.472 472.483 281.952C472.302 282.432 472.211 283.029 472.211 283.744C472.211 284.427 472.302 285.008 472.483 285.488C472.664 285.968 472.936 286.331 473.299 286.576C473.662 286.821 474.115 286.944 474.659 286.944C475.128 286.944 475.539 286.896 475.891 286.8C476.254 286.704 476.584 286.587 476.883 286.448V287.696C476.595 287.845 476.275 287.957 475.923 288.032C475.582 288.117 475.166 288.16 474.675 288.16ZM482.923 279.264C483.083 279.264 483.253 279.275 483.435 279.296C483.627 279.307 483.792 279.328 483.931 279.36L483.755 280.656C483.616 280.624 483.461 280.597 483.291 280.576C483.131 280.555 482.976 280.544 482.827 280.544C482.496 280.544 482.181 280.613 481.883 280.752C481.584 280.891 481.317 281.088 481.083 281.344C480.848 281.589 480.661 281.888 480.523 282.24C480.395 282.592 480.331 282.987 480.331 283.424V288H478.923V279.424H480.075L480.235 280.992H480.299C480.48 280.672 480.699 280.384 480.955 280.128C481.211 279.861 481.504 279.653 481.835 279.504C482.165 279.344 482.528 279.264 482.923 279.264ZM486.94 279.424V288H485.532V279.424H486.94ZM486.252 276.208C486.465 276.208 486.652 276.283 486.812 276.432C486.983 276.571 487.068 276.795 487.068 277.104C487.068 277.403 486.983 277.627 486.812 277.776C486.652 277.925 486.465 278 486.252 278C486.017 278 485.82 277.925 485.66 277.776C485.5 277.627 485.42 277.403 485.42 277.104C485.42 276.795 485.5 276.571 485.66 276.432C485.82 276.283 486.017 276.208 486.252 276.208ZM493.737 279.264C494.793 279.264 495.641 279.632 496.281 280.368C496.932 281.104 497.257 282.213 497.257 283.696C497.257 284.667 497.108 285.488 496.809 286.16C496.521 286.821 496.11 287.323 495.577 287.664C495.054 287.995 494.436 288.16 493.721 288.16C493.284 288.16 492.894 288.101 492.553 287.984C492.212 287.867 491.918 287.717 491.673 287.536C491.438 287.344 491.236 287.136 491.065 286.912H490.969C490.99 287.093 491.012 287.323 491.033 287.6C491.054 287.877 491.065 288.117 491.065 288.32V291.84H489.657V279.424H490.809L491.001 280.592H491.065C491.236 280.347 491.438 280.123 491.673 279.92C491.918 279.717 492.206 279.557 492.537 279.44C492.878 279.323 493.278 279.264 493.737 279.264ZM493.481 280.448C492.905 280.448 492.441 280.56 492.089 280.784C491.737 280.997 491.481 281.323 491.321 281.76C491.161 282.197 491.076 282.752 491.065 283.424V283.696C491.065 284.4 491.14 284.997 491.289 285.488C491.438 285.979 491.689 286.352 492.041 286.608C492.404 286.864 492.894 286.992 493.513 286.992C494.036 286.992 494.462 286.848 494.793 286.56C495.134 286.272 495.385 285.883 495.545 285.392C495.716 284.891 495.801 284.32 495.801 283.68C495.801 282.699 495.609 281.915 495.225 281.328C494.852 280.741 494.27 280.448 493.481 280.448ZM502.365 287.008C502.578 287.008 502.797 286.992 503.021 286.96C503.245 286.917 503.426 286.875 503.565 286.832V287.904C503.415 287.979 503.202 288.037 502.925 288.08C502.647 288.133 502.381 288.16 502.125 288.16C501.677 288.16 501.261 288.085 500.877 287.936C500.503 287.776 500.199 287.504 499.965 287.12C499.73 286.736 499.613 286.197 499.613 285.504V280.512H498.397V279.84L499.629 279.28L500.189 277.456H501.021V279.424H503.501V280.512H501.021V285.472C501.021 285.995 501.143 286.384 501.389 286.64C501.645 286.885 501.97 287.008 502.365 287.008ZM506.69 279.424V288H505.282V279.424H506.69ZM506.002 276.208C506.215 276.208 506.402 276.283 506.562 276.432C506.733 276.571 506.818 276.795 506.818 277.104C506.818 277.403 506.733 277.627 506.562 277.776C506.402 277.925 506.215 278 506.002 278C505.767 278 505.57 277.925 505.41 277.776C505.25 277.627 505.17 277.403 505.17 277.104C505.17 276.795 505.25 276.571 505.41 276.432C505.57 276.283 505.767 276.208 506.002 276.208ZM516.863 283.696C516.863 284.411 516.767 285.045 516.575 285.6C516.394 286.144 516.127 286.608 515.775 286.992C515.434 287.376 515.012 287.669 514.511 287.872C514.02 288.064 513.471 288.16 512.863 288.16C512.298 288.16 511.775 288.064 511.295 287.872C510.815 287.669 510.399 287.376 510.047 286.992C509.695 286.608 509.418 286.144 509.215 285.6C509.023 285.045 508.927 284.411 508.927 283.696C508.927 282.747 509.087 281.947 509.407 281.296C509.727 280.635 510.186 280.133 510.783 279.792C511.38 279.44 512.09 279.264 512.911 279.264C513.69 279.264 514.372 279.44 514.959 279.792C515.556 280.133 516.02 280.635 516.351 281.296C516.692 281.947 516.863 282.747 516.863 283.696ZM510.383 283.696C510.383 284.368 510.468 284.955 510.639 285.456C510.82 285.947 511.098 286.325 511.471 286.592C511.844 286.859 512.319 286.992 512.895 286.992C513.471 286.992 513.946 286.859 514.319 286.592C514.692 286.325 514.964 285.947 515.135 285.456C515.316 284.955 515.407 284.368 515.407 283.696C515.407 283.013 515.316 282.432 515.135 281.952C514.954 281.472 514.676 281.104 514.303 280.848C513.94 280.581 513.466 280.448 512.879 280.448C512.004 280.448 511.37 280.736 510.975 281.312C510.58 281.888 510.383 282.683 510.383 283.696ZM523.222 279.264C524.246 279.264 525.02 279.515 525.542 280.016C526.065 280.507 526.326 281.307 526.326 282.416V288H524.934V282.512C524.934 281.819 524.78 281.301 524.47 280.96C524.161 280.619 523.676 280.448 523.014 280.448C522.065 280.448 521.409 280.715 521.046 281.248C520.684 281.781 520.502 282.549 520.502 283.552V288H519.094V279.424H520.23L520.438 280.592H520.518C520.71 280.293 520.945 280.048 521.222 279.856C521.51 279.653 521.825 279.504 522.166 279.408C522.508 279.312 522.86 279.264 523.222 279.264ZM534.533 282.192C534.533 282.363 534.523 282.587 534.501 282.864C534.491 283.141 534.48 283.381 534.469 283.584H534.533C534.597 283.499 534.693 283.376 534.821 283.216C534.949 283.056 535.077 282.896 535.205 282.736C535.344 282.565 535.461 282.427 535.557 282.32L538.293 279.424H539.941L536.469 283.088L540.181 288H538.485L535.509 284L534.533 284.848V288H533.141V275.84H534.533V282.192ZM548.856 279.424V288H547.704L547.496 286.864H547.432C547.251 287.163 547.016 287.408 546.728 287.6C546.44 287.792 546.125 287.931 545.784 288.016C545.443 288.112 545.085 288.16 544.712 288.16C544.029 288.16 543.453 288.053 542.984 287.84C542.525 287.616 542.179 287.275 541.944 286.816C541.709 286.357 541.592 285.765 541.592 285.04V279.424H543.016V284.944C543.016 285.627 543.171 286.139 543.48 286.48C543.789 286.821 544.269 286.992 544.92 286.992C545.56 286.992 546.061 286.875 546.424 286.64C546.797 286.395 547.059 286.043 547.208 285.584C547.368 285.115 547.448 284.549 547.448 283.888V279.424H548.856ZM555.707 279.264C556.731 279.264 557.504 279.515 558.027 280.016C558.549 280.507 558.811 281.307 558.811 282.416V288H557.419V282.512C557.419 281.819 557.264 281.301 556.955 280.96C556.645 280.619 556.16 280.448 555.499 280.448C554.549 280.448 553.893 280.715 553.531 281.248C553.168 281.781 552.987 282.549 552.987 283.552V288H551.579V279.424H552.715L552.923 280.592H553.003C553.195 280.293 553.429 280.048 553.707 279.856C553.995 279.653 554.309 279.504 554.651 279.408C554.992 279.312 555.344 279.264 555.707 279.264ZM565.597 279.264C566.621 279.264 567.395 279.515 567.917 280.016C568.44 280.507 568.701 281.307 568.701 282.416V288H567.309V282.512C567.309 281.819 567.155 281.301 566.845 280.96C566.536 280.619 566.051 280.448 565.389 280.448C564.44 280.448 563.784 280.715 563.421 281.248C563.059 281.781 562.877 282.549 562.877 283.552V288H561.469V279.424H562.605L562.813 280.592H562.893C563.085 280.293 563.32 280.048 563.597 279.856C563.885 279.653 564.2 279.504 564.541 279.408C564.883 279.312 565.235 279.264 565.597 279.264ZM574.672 279.264C575.408 279.264 576.037 279.424 576.56 279.744C577.093 280.064 577.499 280.517 577.776 281.104C578.064 281.68 578.208 282.357 578.208 283.136V283.984H572.336C572.357 284.955 572.603 285.696 573.072 286.208C573.552 286.709 574.219 286.96 575.072 286.96C575.616 286.96 576.096 286.912 576.512 286.816C576.939 286.709 577.376 286.56 577.824 286.368V287.6C577.387 287.792 576.955 287.931 576.528 288.016C576.101 288.112 575.595 288.16 575.008 288.16C574.197 288.16 573.477 287.995 572.848 287.664C572.229 287.333 571.744 286.843 571.392 286.192C571.051 285.531 570.88 284.725 570.88 283.776C570.88 282.837 571.035 282.032 571.344 281.36C571.664 280.688 572.107 280.171 572.672 279.808C573.248 279.445 573.915 279.264 574.672 279.264ZM574.656 280.416C573.984 280.416 573.451 280.635 573.056 281.072C572.672 281.499 572.443 282.096 572.368 282.864H576.736C576.736 282.373 576.661 281.947 576.512 281.584C576.363 281.221 576.133 280.939 575.824 280.736C575.525 280.523 575.136 280.416 574.656 280.416ZM584.519 279.264C585.543 279.264 586.317 279.515 586.839 280.016C587.362 280.507 587.623 281.307 587.623 282.416V288H586.231V282.512C586.231 281.819 586.077 281.301 585.767 280.96C585.458 280.619 584.973 280.448 584.311 280.448C583.362 280.448 582.706 280.715 582.343 281.248C581.981 281.781 581.799 282.549 581.799 283.552V288H580.391V279.424H581.527L581.735 280.592H581.815C582.007 280.293 582.242 280.048 582.519 279.856C582.807 279.653 583.122 279.504 583.463 279.408C583.805 279.312 584.157 279.264 584.519 279.264ZM601.894 283.696C601.894 284.411 601.798 285.045 601.606 285.6C601.425 286.144 601.158 286.608 600.806 286.992C600.465 287.376 600.043 287.669 599.542 287.872C599.051 288.064 598.502 288.16 597.894 288.16C597.329 288.16 596.806 288.064 596.326 287.872C595.846 287.669 595.43 287.376 595.078 286.992C594.726 286.608 594.449 286.144 594.246 285.6C594.054 285.045 593.958 284.411 593.958 283.696C593.958 282.747 594.118 281.947 594.438 281.296C594.758 280.635 595.217 280.133 595.814 279.792C596.411 279.44 597.121 279.264 597.942 279.264C598.721 279.264 599.403 279.44 599.99 279.792C600.587 280.133 601.051 280.635 601.382 281.296C601.723 281.947 601.894 282.747 601.894 283.696ZM595.414 283.696C595.414 284.368 595.499 284.955 595.67 285.456C595.851 285.947 596.129 286.325 596.502 286.592C596.875 286.859 597.35 286.992 597.926 286.992C598.502 286.992 598.977 286.859 599.35 286.592C599.723 286.325 599.995 285.947 600.166 285.456C600.347 284.955 600.438 284.368 600.438 283.696C600.438 283.013 600.347 282.432 600.166 281.952C599.985 281.472 599.707 281.104 599.334 280.848C598.971 280.581 598.497 280.448 597.91 280.448C597.035 280.448 596.401 280.736 596.006 281.312C595.611 281.888 595.414 282.683 595.414 283.696ZM611.582 283.696C611.582 284.411 611.486 285.045 611.294 285.6C611.112 286.144 610.846 286.608 610.494 286.992C610.152 287.376 609.731 287.669 609.23 287.872C608.739 288.064 608.19 288.16 607.582 288.16C607.016 288.16 606.494 288.064 606.014 287.872C605.534 287.669 605.118 287.376 604.766 286.992C604.414 286.608 604.136 286.144 603.934 285.6C603.742 285.045 603.646 284.411 603.646 283.696C603.646 282.747 603.806 281.947 604.126 281.296C604.446 280.635 604.904 280.133 605.502 279.792C606.099 279.44 606.808 279.264 607.63 279.264C608.408 279.264 609.091 279.44 609.678 279.792C610.275 280.133 610.739 280.635 611.07 281.296C611.411 281.947 611.582 282.747 611.582 283.696ZM605.102 283.696C605.102 284.368 605.187 284.955 605.358 285.456C605.539 285.947 605.816 286.325 606.19 286.592C606.563 286.859 607.038 286.992 607.614 286.992C608.19 286.992 608.664 286.859 609.038 286.592C609.411 286.325 609.683 285.947 609.854 285.456C610.035 284.955 610.126 284.368 610.126 283.696C610.126 283.013 610.035 282.432 609.854 281.952C609.672 281.472 609.395 281.104 609.022 280.848C608.659 280.581 608.184 280.448 607.598 280.448C606.723 280.448 606.088 280.736 605.694 281.312C605.299 281.888 605.102 282.683 605.102 283.696ZM615.205 282.192C615.205 282.363 615.194 282.587 615.173 282.864C615.162 283.141 615.152 283.381 615.141 283.584H615.205C615.269 283.499 615.365 283.376 615.493 283.216C615.621 283.056 615.749 282.896 615.877 282.736C616.016 282.565 616.133 282.427 616.229 282.32L618.965 279.424H620.613L617.141 283.088L620.853 288H619.157L616.181 284L615.205 284.848V288H613.813V275.84H615.205V282.192ZM289.224 311.008C289.437 311.008 289.656 310.992 289.88 310.96C290.104 310.917 290.285 310.875 290.424 310.832V311.904C290.275 311.979 290.061 312.037 289.784 312.08C289.507 312.133 289.24 312.16 288.984 312.16C288.536 312.16 288.12 312.085 287.736 311.936C287.363 311.776 287.059 311.504 286.824 311.12C286.589 310.736 286.472 310.197 286.472 309.504V304.512H285.256V303.84L286.488 303.28L287.048 301.456H287.88V303.424H290.36V304.512H287.88V309.472C287.88 309.995 288.003 310.384 288.248 310.64C288.504 310.885 288.829 311.008 289.224 311.008ZM297.677 307.152C297.613 306.928 297.549 306.709 297.485 306.496C297.421 306.272 297.363 306.064 297.309 305.872C297.267 305.669 297.224 305.483 297.181 305.312C297.139 305.141 297.107 304.997 297.085 304.88H297.021C297 304.997 296.968 305.141 296.925 305.312C296.893 305.483 296.851 305.669 296.797 305.872C296.755 306.075 296.701 306.288 296.637 306.512C296.584 306.725 296.52 306.944 296.445 307.168L294.909 311.984H293.309L290.957 303.408H292.413L293.597 307.984C293.683 308.293 293.763 308.608 293.837 308.928C293.912 309.237 293.976 309.536 294.029 309.824C294.093 310.101 294.136 310.341 294.157 310.544H294.221C294.253 310.416 294.291 310.256 294.333 310.064C294.376 309.872 294.419 309.669 294.461 309.456C294.515 309.243 294.568 309.029 294.621 308.816C294.685 308.603 294.744 308.411 294.797 308.24L296.317 303.408H297.853L299.325 308.24C299.4 308.485 299.475 308.747 299.549 309.024C299.635 309.301 299.709 309.573 299.773 309.84C299.837 310.096 299.88 310.325 299.901 310.528H299.965C299.987 310.347 300.024 310.123 300.077 309.856C300.141 309.579 300.211 309.28 300.285 308.96C300.371 308.629 300.456 308.304 300.541 307.984L301.741 303.408H303.181L300.797 311.984H299.149L297.677 307.152ZM308.031 303.264C308.767 303.264 309.397 303.424 309.919 303.744C310.453 304.064 310.858 304.517 311.135 305.104C311.423 305.68 311.567 306.357 311.567 307.136V307.984H305.695C305.717 308.955 305.962 309.696 306.431 310.208C306.911 310.709 307.578 310.96 308.431 310.96C308.975 310.96 309.455 310.912 309.871 310.816C310.298 310.709 310.735 310.56 311.183 310.368V311.6C310.746 311.792 310.314 311.931 309.887 312.016C309.461 312.112 308.954 312.16 308.367 312.16C307.557 312.16 306.837 311.995 306.207 311.664C305.589 311.333 305.103 310.843 304.751 310.192C304.41 309.531 304.239 308.725 304.239 307.776C304.239 306.837 304.394 306.032 304.703 305.36C305.023 304.688 305.466 304.171 306.031 303.808C306.607 303.445 307.274 303.264 308.031 303.264ZM308.015 304.416C307.343 304.416 306.81 304.635 306.415 305.072C306.031 305.499 305.802 306.096 305.727 306.864H310.095C310.095 306.373 310.021 305.947 309.871 305.584C309.722 305.221 309.493 304.939 309.183 304.736C308.885 304.523 308.495 304.416 308.015 304.416ZM317.063 303.264C317.799 303.264 318.428 303.424 318.951 303.744C319.484 304.064 319.889 304.517 320.167 305.104C320.455 305.68 320.599 306.357 320.599 307.136V307.984H314.727C314.748 308.955 314.993 309.696 315.463 310.208C315.943 310.709 316.609 310.96 317.463 310.96C318.007 310.96 318.487 310.912 318.903 310.816C319.329 310.709 319.767 310.56 320.215 310.368V311.6C319.777 311.792 319.345 311.931 318.919 312.016C318.492 312.112 317.985 312.16 317.399 312.16C316.588 312.16 315.868 311.995 315.239 311.664C314.62 311.333 314.135 310.843 313.783 310.192C313.441 309.531 313.271 308.725 313.271 307.776C313.271 306.837 313.425 306.032 313.735 305.36C314.055 304.688 314.497 304.171 315.063 303.808C315.639 303.445 316.305 303.264 317.063 303.264ZM317.047 304.416C316.375 304.416 315.841 304.635 315.447 305.072C315.063 305.499 314.833 306.096 314.759 306.864H319.127C319.127 306.373 319.052 305.947 318.903 305.584C318.753 305.221 318.524 304.939 318.215 304.736C317.916 304.523 317.527 304.416 317.047 304.416ZM330.186 303.28C331.231 303.28 332.005 303.509 332.506 303.968C333.007 304.427 333.258 305.157 333.258 306.16V312H332.234L331.962 310.784H331.898C331.653 311.093 331.397 311.355 331.13 311.568C330.874 311.771 330.575 311.92 330.234 312.016C329.903 312.112 329.498 312.16 329.018 312.16C328.506 312.16 328.042 312.069 327.626 311.888C327.221 311.707 326.901 311.429 326.666 311.056C326.431 310.672 326.314 310.192 326.314 309.616C326.314 308.763 326.65 308.107 327.322 307.648C327.994 307.179 329.029 306.923 330.426 306.88L331.882 306.832V306.32C331.882 305.605 331.727 305.109 331.418 304.832C331.109 304.555 330.671 304.416 330.106 304.416C329.658 304.416 329.231 304.485 328.826 304.624C328.421 304.752 328.042 304.901 327.69 305.072L327.258 304.016C327.631 303.813 328.074 303.643 328.586 303.504C329.098 303.355 329.631 303.28 330.186 303.28ZM330.602 307.856C329.535 307.899 328.794 308.069 328.378 308.368C327.973 308.667 327.77 309.088 327.77 309.632C327.77 310.112 327.914 310.464 328.202 310.688C328.501 310.912 328.879 311.024 329.338 311.024C330.063 311.024 330.666 310.827 331.146 310.432C331.626 310.027 331.866 309.408 331.866 308.576V307.808L330.602 307.856ZM337.315 312H335.907V299.84H337.315V312ZM341.44 303.424V312H340.032V303.424H341.44ZM340.752 300.208C340.965 300.208 341.152 300.283 341.312 300.432C341.483 300.571 341.568 300.795 341.568 301.104C341.568 301.403 341.483 301.627 341.312 301.776C341.152 301.925 340.965 302 340.752 302C340.517 302 340.32 301.925 340.16 301.776C340 301.627 339.92 301.403 339.92 301.104C339.92 300.795 340 300.571 340.16 300.432C340.32 300.283 340.517 300.208 340.752 300.208ZM348.285 303.264C349.309 303.264 350.082 303.515 350.605 304.016C351.128 304.507 351.389 305.307 351.389 306.416V312H349.997V306.512C349.997 305.819 349.842 305.301 349.533 304.96C349.224 304.619 348.738 304.448 348.077 304.448C347.128 304.448 346.472 304.715 346.109 305.248C345.746 305.781 345.565 306.549 345.565 307.552V312H344.157V303.424H345.293L345.501 304.592H345.581C345.773 304.293 346.008 304.048 346.285 303.856C346.573 303.653 346.888 303.504 347.229 303.408C347.57 303.312 347.922 303.264 348.285 303.264ZM357.36 303.264C358.096 303.264 358.725 303.424 359.248 303.744C359.781 304.064 360.186 304.517 360.464 305.104C360.752 305.68 360.896 306.357 360.896 307.136V307.984H355.024C355.045 308.955 355.29 309.696 355.76 310.208C356.24 310.709 356.906 310.96 357.76 310.96C358.304 310.96 358.784 310.912 359.2 310.816C359.626 310.709 360.064 310.56 360.512 310.368V311.6C360.074 311.792 359.642 311.931 359.216 312.016C358.789 312.112 358.282 312.16 357.696 312.16C356.885 312.16 356.165 311.995 355.536 311.664C354.917 311.333 354.432 310.843 354.08 310.192C353.738 309.531 353.568 308.725 353.568 307.776C353.568 306.837 353.722 306.032 354.032 305.36C354.352 304.688 354.794 304.171 355.36 303.808C355.936 303.445 356.602 303.264 357.36 303.264ZM357.344 304.416C356.672 304.416 356.138 304.635 355.744 305.072C355.36 305.499 355.13 306.096 355.056 306.864H359.424C359.424 306.373 359.349 305.947 359.2 305.584C359.05 305.221 358.821 304.939 358.512 304.736C358.213 304.523 357.824 304.416 357.344 304.416ZM366.327 303.28C367.372 303.28 368.145 303.509 368.647 303.968C369.148 304.427 369.399 305.157 369.399 306.16V312H368.375L368.103 310.784H368.039C367.793 311.093 367.537 311.355 367.271 311.568C367.015 311.771 366.716 311.92 366.375 312.016C366.044 312.112 365.639 312.16 365.159 312.16C364.647 312.16 364.183 312.069 363.767 311.888C363.361 311.707 363.041 311.429 362.807 311.056C362.572 310.672 362.455 310.192 362.455 309.616C362.455 308.763 362.791 308.107 363.463 307.648C364.135 307.179 365.169 306.923 366.567 306.88L368.023 306.832V306.32C368.023 305.605 367.868 305.109 367.559 304.832C367.249 304.555 366.812 304.416 366.247 304.416C365.799 304.416 365.372 304.485 364.967 304.624C364.561 304.752 364.183 304.901 363.831 305.072L363.399 304.016C363.772 303.813 364.215 303.643 364.727 303.504C365.239 303.355 365.772 303.28 366.327 303.28ZM366.743 307.856C365.676 307.899 364.935 308.069 364.519 308.368C364.113 308.667 363.911 309.088 363.911 309.632C363.911 310.112 364.055 310.464 364.343 310.688C364.641 310.912 365.02 311.024 365.479 311.024C366.204 311.024 366.807 310.827 367.287 310.432C367.767 310.027 368.007 309.408 368.007 308.576V307.808L366.743 307.856ZM373.139 300.752C373.043 301.125 372.921 301.531 372.771 301.968C372.622 302.405 372.457 302.843 372.275 303.28C372.105 303.707 371.934 304.112 371.763 304.496H370.723C370.798 304.197 370.873 303.877 370.947 303.536C371.033 303.195 371.107 302.853 371.171 302.512C371.246 302.16 371.31 301.819 371.363 301.488C371.427 301.157 371.481 300.853 371.523 300.576H373.027L373.139 300.752ZM379.788 309.632C379.788 310.187 379.649 310.651 379.372 311.024C379.094 311.397 378.7 311.68 378.188 311.872C377.676 312.064 377.068 312.16 376.364 312.16C375.766 312.16 375.249 312.112 374.812 312.016C374.385 311.92 374.006 311.787 373.676 311.616V310.336C374.017 310.507 374.428 310.667 374.908 310.816C375.398 310.955 375.894 311.024 376.396 311.024C377.11 311.024 377.628 310.912 377.948 310.688C378.268 310.453 378.428 310.144 378.428 309.76C378.428 309.547 378.369 309.355 378.252 309.184C378.134 309.013 377.921 308.843 377.612 308.672C377.313 308.501 376.881 308.309 376.316 308.096C375.761 307.883 375.286 307.669 374.892 307.456C374.497 307.243 374.193 306.987 373.98 306.688C373.766 306.389 373.66 306.005 373.66 305.536C373.66 304.811 373.953 304.251 374.54 303.856C375.137 303.461 375.916 303.264 376.876 303.264C377.398 303.264 377.884 303.317 378.332 303.424C378.79 303.52 379.217 303.659 379.612 303.84L379.132 304.96C378.897 304.853 378.646 304.763 378.38 304.688C378.124 304.603 377.862 304.539 377.596 304.496C377.329 304.443 377.057 304.416 376.78 304.416C376.204 304.416 375.761 304.512 375.452 304.704C375.153 304.885 375.004 305.136 375.004 305.456C375.004 305.691 375.073 305.893 375.212 306.064C375.35 306.224 375.58 306.384 375.9 306.544C376.23 306.693 376.668 306.875 377.212 307.088C377.756 307.291 378.22 307.499 378.604 307.712C378.988 307.925 379.281 308.187 379.484 308.496C379.686 308.795 379.788 309.173 379.788 309.632ZM391.552 312H385.28V311.072L389.888 304.512H385.552V303.424H391.44V304.48L386.896 310.912H391.552V312ZM394.94 303.424V312H393.532V303.424H394.94ZM394.252 300.208C394.465 300.208 394.652 300.283 394.812 300.432C394.983 300.571 395.068 300.795 395.068 301.104C395.068 301.403 394.983 301.627 394.812 301.776C394.652 301.925 394.465 302 394.252 302C394.017 302 393.82 301.925 393.66 301.776C393.5 301.627 393.42 301.403 393.42 301.104C393.42 300.795 393.5 300.571 393.66 300.432C393.82 300.283 394.017 300.208 394.252 300.208ZM400.521 311.008C400.734 311.008 400.953 310.992 401.177 310.96C401.401 310.917 401.582 310.875 401.721 310.832V311.904C401.572 311.979 401.358 312.037 401.081 312.08C400.804 312.133 400.537 312.16 400.281 312.16C399.833 312.16 399.417 312.085 399.033 311.936C398.66 311.776 398.356 311.504 398.121 311.12C397.886 310.736 397.769 310.197 397.769 309.504V304.512H396.553V303.84L397.785 303.28L398.345 301.456H399.177V303.424H401.657V304.512H399.177V309.472C399.177 309.995 399.3 310.384 399.545 310.64C399.801 310.885 400.126 311.008 400.521 311.008ZM406.302 311.008C406.515 311.008 406.734 310.992 406.958 310.96C407.182 310.917 407.363 310.875 407.502 310.832V311.904C407.353 311.979 407.139 312.037 406.862 312.08C406.585 312.133 406.318 312.16 406.062 312.16C405.614 312.16 405.198 312.085 404.814 311.936C404.441 311.776 404.137 311.504 403.902 311.12C403.667 310.736 403.55 310.197 403.55 309.504V304.512H402.334V303.84L403.566 303.28L404.126 301.456H404.958V303.424H407.438V304.512H404.958V309.472C404.958 309.995 405.081 310.384 405.326 310.64C405.582 310.885 405.907 311.008 406.302 311.008ZM412.531 303.264C413.267 303.264 413.897 303.424 414.419 303.744C414.953 304.064 415.358 304.517 415.635 305.104C415.923 305.68 416.067 306.357 416.067 307.136V307.984H410.195C410.217 308.955 410.462 309.696 410.931 310.208C411.411 310.709 412.078 310.96 412.931 310.96C413.475 310.96 413.955 310.912 414.371 310.816C414.798 310.709 415.235 310.56 415.683 310.368V311.6C415.246 311.792 414.814 311.931 414.387 312.016C413.961 312.112 413.454 312.16 412.867 312.16C412.057 312.16 411.337 311.995 410.707 311.664C410.089 311.333 409.603 310.843 409.251 310.192C408.91 309.531 408.739 308.725 408.739 307.776C408.739 306.837 408.894 306.032 409.203 305.36C409.523 304.688 409.966 304.171 410.531 303.808C411.107 303.445 411.774 303.264 412.531 303.264ZM412.515 304.416C411.843 304.416 411.31 304.635 410.915 305.072C410.531 305.499 410.302 306.096 410.227 306.864H414.595C414.595 306.373 414.521 305.947 414.371 305.584C414.222 305.221 413.993 304.939 413.683 304.736C413.385 304.523 412.995 304.416 412.515 304.416ZM422.379 303.264C423.403 303.264 424.176 303.515 424.699 304.016C425.221 304.507 425.483 305.307 425.483 306.416V312H424.091V306.512C424.091 305.819 423.936 305.301 423.627 304.96C423.317 304.619 422.832 304.448 422.171 304.448C421.221 304.448 420.565 304.715 420.203 305.248C419.84 305.781 419.659 306.549 419.659 307.552V312H418.251V303.424H419.387L419.595 304.592H419.675C419.867 304.293 420.101 304.048 420.379 303.856C420.667 303.653 420.981 303.504 421.323 303.408C421.664 303.312 422.016 303.264 422.379 303.264ZM427.933 311.136C427.933 310.741 428.029 310.464 428.221 310.304C428.413 310.144 428.643 310.064 428.909 310.064C429.187 310.064 429.421 310.144 429.613 310.304C429.816 310.464 429.917 310.741 429.917 311.136C429.917 311.52 429.816 311.797 429.613 311.968C429.421 312.139 429.187 312.224 428.909 312.224C428.643 312.224 428.413 312.139 428.221 311.968C428.029 311.797 427.933 311.52 427.933 311.136Z" fill="#586C88"/>
<path d="M229 270H277" stroke="#42144F" stroke-width="2" stroke-linecap="square" stroke-linejoin="bevel"/>
</svg>
