<svg width="960" height="540" viewBox="0 0 960 540" fill="none" xmlns="http://www.w3.org/2000/svg">
<rect x="0.5" y="0.5" width="959" height="539" fill="white"/>
<rect x="0.5" y="0.5" width="959" height="539" stroke="#CCCCCC"/>
<rect x="318" y="163" width="324" height="215" fill="#ECF1F7"/>
<rect x="318" y="163" width="324" height="215" stroke="#5C89BE" stroke-width="4"/>
<rect x="368.5" y="169.5" width="267" height="202" stroke="#FF00C8" stroke-dasharray="2 2"/>
<rect x="372.5" y="173.5" width="259" height="123" stroke="#FF00C8" stroke-dasharray="2 2"/>
<rect x="372.5" y="300.5" width="259" height="67" stroke="#FF00C8" stroke-dasharray="2 2"/>
<rect x="376.5" y="177.5" width="251" height="39" stroke="#FF00C8" stroke-dasharray="2 2"/>
<rect x="376.5" y="221.5" width="251" height="71" stroke="#FF00C8" stroke-dasharray="2 2"/>
<path d="M387.584 239H381.488V227.832H382.832V237.816H387.584V239ZM392.339 239.192C391.603 239.192 390.953 239.016 390.387 238.664C389.833 238.301 389.395 237.8 389.075 237.16C388.766 236.509 388.611 235.747 388.611 234.872C388.611 233.997 388.766 233.24 389.075 232.6C389.395 231.949 389.833 231.448 390.387 231.096C390.953 230.733 391.603 230.552 392.339 230.552C393.075 230.552 393.721 230.733 394.275 231.096C394.841 231.448 395.278 231.949 395.587 232.6C395.907 233.24 396.067 233.997 396.067 234.872C396.067 235.747 395.907 236.509 395.587 237.16C395.278 237.8 394.841 238.301 394.275 238.664C393.721 239.016 393.075 239.192 392.339 239.192ZM392.339 238.056C393.033 238.056 393.598 237.843 394.035 237.416C394.473 236.989 394.691 236.339 394.691 235.464V234.28C394.691 233.405 394.473 232.755 394.035 232.328C393.598 231.901 393.033 231.688 392.339 231.688C391.657 231.688 391.091 231.901 390.643 232.328C390.206 232.755 389.987 233.405 389.987 234.28V235.464C389.987 236.339 390.206 236.989 390.643 237.416C391.091 237.843 391.657 238.056 392.339 238.056ZM399.453 239H398.173V230.744H399.453V232.264H399.533C399.629 231.997 399.778 231.752 399.981 231.528C400.183 231.293 400.445 231.107 400.765 230.968C401.085 230.819 401.469 230.744 401.917 230.744H402.413V232.024H401.661C401.202 232.024 400.807 232.088 400.477 232.216C400.146 232.333 399.89 232.493 399.709 232.696C399.538 232.899 399.453 233.133 399.453 233.4V239ZM407.073 239.192C406.327 239.192 405.676 239.016 405.121 238.664C404.567 238.301 404.135 237.8 403.825 237.16C403.516 236.509 403.361 235.747 403.361 234.872C403.361 233.997 403.516 233.24 403.825 232.6C404.135 231.949 404.567 231.448 405.121 231.096C405.676 230.733 406.327 230.552 407.073 230.552C407.809 230.552 408.444 230.728 408.977 231.08C409.511 231.421 409.921 231.896 410.209 232.504C410.497 233.112 410.641 233.805 410.641 234.584V235.192H404.705V235.576C404.705 236.291 404.919 236.888 405.345 237.368C405.783 237.837 406.385 238.072 407.153 238.072C407.676 238.072 408.129 237.949 408.513 237.704C408.908 237.459 409.212 237.107 409.425 236.648L410.337 237.304C410.071 237.859 409.655 238.312 409.089 238.664C408.524 239.016 407.852 239.192 407.073 239.192ZM407.073 231.624C406.615 231.624 406.204 231.731 405.841 231.944C405.489 232.157 405.212 232.456 405.009 232.84C404.807 233.213 404.705 233.64 404.705 234.12V234.232H409.265V234.056C409.265 233.565 409.175 233.139 408.993 232.776C408.812 232.413 408.556 232.131 408.225 231.928C407.895 231.725 407.511 231.624 407.073 231.624ZM414.031 239H412.751V230.744H414.031V232.088H414.095C414.276 231.661 414.532 231.299 414.863 231C415.193 230.701 415.679 230.552 416.319 230.552C416.863 230.552 417.364 230.685 417.823 230.952C418.281 231.208 418.623 231.635 418.847 232.232H418.879C419.028 231.784 419.305 231.395 419.711 231.064C420.127 230.723 420.687 230.552 421.391 230.552C422.233 230.552 422.889 230.829 423.359 231.384C423.839 231.928 424.079 232.701 424.079 233.704V239H422.799V233.928C422.799 233.203 422.655 232.653 422.367 232.28C422.079 231.896 421.62 231.704 420.991 231.704C420.66 231.704 420.345 231.763 420.047 231.88C419.748 231.987 419.508 232.157 419.327 232.392C419.145 232.627 419.055 232.92 419.055 233.272V239H417.775V233.928C417.775 233.192 417.631 232.637 417.343 232.264C417.055 231.891 416.607 231.704 415.999 231.704C415.668 231.704 415.348 231.763 415.039 231.88C414.74 231.987 414.495 232.157 414.303 232.392C414.121 232.627 414.031 232.92 414.031 233.272V239ZM431.141 228.808C430.874 228.808 430.677 228.744 430.549 228.616C430.421 228.477 430.357 228.301 430.357 228.088V227.88C430.357 227.667 430.421 227.496 430.549 227.368C430.677 227.229 430.874 227.16 431.141 227.16C431.418 227.16 431.615 227.229 431.733 227.368C431.861 227.496 431.925 227.667 431.925 227.88V228.088C431.925 228.301 431.861 228.477 431.733 228.616C431.615 228.744 431.418 228.808 431.141 228.808ZM430.501 239V230.744H431.781V239H430.501ZM434.501 242.2V230.744H435.781V232.088H435.845C436.058 231.565 436.373 231.181 436.789 230.936C437.205 230.68 437.695 230.552 438.261 230.552C438.954 230.552 439.551 230.728 440.053 231.08C440.554 231.432 440.938 231.933 441.205 232.584C441.482 233.224 441.621 233.987 441.621 234.872C441.621 235.747 441.482 236.509 441.205 237.16C440.938 237.811 440.554 238.312 440.053 238.664C439.551 239.016 438.954 239.192 438.261 239.192C437.695 239.192 437.21 239.064 436.805 238.808C436.41 238.552 436.09 238.168 435.845 237.656H435.781V242.2H434.501ZM437.909 238.04C438.634 238.04 439.205 237.816 439.621 237.368C440.037 236.909 440.245 236.312 440.245 235.576V234.168C440.245 233.432 440.037 232.84 439.621 232.392C439.205 231.933 438.634 231.704 437.909 231.704C437.525 231.704 437.167 231.773 436.837 231.912C436.517 232.051 436.261 232.237 436.069 232.472C435.877 232.707 435.781 232.979 435.781 233.288V236.36C435.781 236.712 435.877 237.016 436.069 237.272C436.261 237.517 436.517 237.709 436.837 237.848C437.167 237.976 437.525 238.04 437.909 238.04ZM446.262 239.192C445.505 239.192 444.865 239.048 444.342 238.76C443.819 238.461 443.371 238.067 442.998 237.576L443.91 236.84C444.23 237.235 444.587 237.544 444.982 237.768C445.377 237.992 445.835 238.104 446.358 238.104C446.902 238.104 447.323 237.987 447.622 237.752C447.931 237.517 448.086 237.187 448.086 236.76C448.086 236.44 447.979 236.163 447.766 235.928C447.563 235.693 447.19 235.539 446.646 235.464L445.99 235.368C445.489 235.293 445.035 235.171 444.63 235C444.225 234.819 443.905 234.568 443.67 234.248C443.446 233.917 443.334 233.496 443.334 232.984C443.334 232.163 443.611 231.555 444.166 231.16C444.731 230.755 445.435 230.552 446.278 230.552C446.726 230.552 447.121 230.605 447.462 230.712C447.814 230.819 448.129 230.973 448.406 231.176C448.683 231.368 448.934 231.603 449.158 231.88L448.31 232.648C448.129 232.392 447.862 232.163 447.51 231.96C447.158 231.747 446.715 231.64 446.182 231.64C445.659 231.64 445.259 231.757 444.982 231.992C444.705 232.216 444.566 232.525 444.566 232.92C444.566 233.315 444.699 233.608 444.966 233.8C445.243 233.981 445.638 234.115 446.15 234.2L446.79 234.296C447.707 234.435 448.358 234.701 448.742 235.096C449.126 235.48 449.318 235.987 449.318 236.616C449.318 237.149 449.195 237.608 448.95 237.992C448.705 238.376 448.353 238.675 447.894 238.888C447.435 239.091 446.891 239.192 446.262 239.192ZM456.667 239V237.656H456.603C456.443 238.051 456.187 238.408 455.835 238.728C455.493 239.037 454.976 239.192 454.283 239.192C453.44 239.192 452.763 238.92 452.251 238.376C451.749 237.821 451.499 237.043 451.499 236.04V230.744H452.779V235.816C452.779 236.552 452.939 237.107 453.259 237.48C453.579 237.853 454.048 238.04 454.667 238.04C455.008 238.04 455.328 237.987 455.627 237.88C455.936 237.763 456.187 237.587 456.379 237.352C456.571 237.117 456.667 236.819 456.667 236.456V230.744H457.947V239H456.667ZM461.953 239H460.673V230.744H461.953V232.088H462.017C462.198 231.661 462.454 231.299 462.785 231C463.115 230.701 463.601 230.552 464.241 230.552C464.785 230.552 465.286 230.685 465.745 230.952C466.203 231.208 466.545 231.635 466.769 232.232H466.801C466.95 231.784 467.227 231.395 467.633 231.064C468.049 230.723 468.609 230.552 469.312 230.552C470.155 230.552 470.811 230.829 471.281 231.384C471.761 231.928 472.001 232.701 472.001 233.704V239H470.721V233.928C470.721 233.203 470.577 232.653 470.289 232.28C470.001 231.896 469.542 231.704 468.913 231.704C468.582 231.704 468.267 231.763 467.969 231.88C467.67 231.987 467.43 232.157 467.249 232.392C467.067 232.627 466.977 232.92 466.977 233.272V239H465.697V233.928C465.697 233.192 465.553 232.637 465.265 232.264C464.977 231.891 464.529 231.704 463.921 231.704C463.59 231.704 463.27 231.763 462.961 231.88C462.662 231.987 462.417 232.157 462.225 232.392C462.043 232.627 461.953 232.92 461.953 233.272V239ZM483.703 239V237.656H483.639C483.393 238.168 483.068 238.552 482.663 238.808C482.268 239.064 481.788 239.192 481.223 239.192C480.54 239.192 479.943 239.016 479.431 238.664C478.929 238.312 478.54 237.811 478.263 237.16C477.996 236.509 477.863 235.747 477.863 234.872C477.863 233.987 477.996 233.224 478.263 232.584C478.54 231.933 478.929 231.432 479.431 231.08C479.943 230.728 480.54 230.552 481.223 230.552C481.788 230.552 482.279 230.68 482.695 230.936C483.111 231.181 483.425 231.565 483.639 232.088H483.703V227.16H484.983V239H483.703ZM481.575 238.04C481.969 238.04 482.327 237.976 482.647 237.848C482.967 237.709 483.223 237.517 483.415 237.272C483.607 237.016 483.703 236.712 483.703 236.36V233.288C483.703 232.979 483.607 232.707 483.415 232.472C483.223 232.237 482.967 232.051 482.647 231.912C482.327 231.773 481.969 231.704 481.575 231.704C480.86 231.704 480.289 231.933 479.863 232.392C479.447 232.84 479.239 233.432 479.239 234.168V235.576C479.239 236.312 479.447 236.909 479.863 237.368C480.289 237.816 480.86 238.04 481.575 238.04ZM490.824 239.192C490.088 239.192 489.437 239.016 488.872 238.664C488.317 238.301 487.88 237.8 487.56 237.16C487.25 236.509 487.096 235.747 487.096 234.872C487.096 233.997 487.25 233.24 487.56 232.6C487.88 231.949 488.317 231.448 488.872 231.096C489.437 230.733 490.088 230.552 490.824 230.552C491.56 230.552 492.205 230.733 492.76 231.096C493.325 231.448 493.762 231.949 494.072 232.6C494.392 233.24 494.552 233.997 494.552 234.872C494.552 235.747 494.392 236.509 494.072 237.16C493.762 237.8 493.325 238.301 492.76 238.664C492.205 239.016 491.56 239.192 490.824 239.192ZM490.824 238.056C491.517 238.056 492.082 237.843 492.52 237.416C492.957 236.989 493.176 236.339 493.176 235.464V234.28C493.176 233.405 492.957 232.755 492.52 232.328C492.082 231.901 491.517 231.688 490.824 231.688C490.141 231.688 489.576 231.901 489.128 232.328C488.69 232.755 488.472 233.405 488.472 234.28V235.464C488.472 236.339 488.69 236.989 489.128 237.416C489.576 237.843 490.141 238.056 490.824 238.056ZM499.153 239H498.017C497.58 239 497.244 238.877 497.009 238.632C496.774 238.376 496.657 238.056 496.657 237.672V227.16H497.937V237.88H499.153V239ZM504.136 239.192C503.4 239.192 502.75 239.016 502.184 238.664C501.63 238.301 501.192 237.8 500.872 237.16C500.563 236.509 500.408 235.747 500.408 234.872C500.408 233.997 500.563 233.24 500.872 232.6C501.192 231.949 501.63 231.448 502.184 231.096C502.75 230.733 503.4 230.552 504.136 230.552C504.872 230.552 505.518 230.733 506.072 231.096C506.638 231.448 507.075 231.949 507.384 232.6C507.704 233.24 507.864 233.997 507.864 234.872C507.864 235.747 507.704 236.509 507.384 237.16C507.075 237.8 506.638 238.301 506.072 238.664C505.518 239.016 504.872 239.192 504.136 239.192ZM504.136 238.056C504.83 238.056 505.395 237.843 505.832 237.416C506.27 236.989 506.488 236.339 506.488 235.464V234.28C506.488 233.405 506.27 232.755 505.832 232.328C505.395 231.901 504.83 231.688 504.136 231.688C503.454 231.688 502.888 231.901 502.44 232.328C502.003 232.755 501.784 233.405 501.784 234.28V235.464C501.784 236.339 502.003 236.989 502.44 237.416C502.888 237.843 503.454 238.056 504.136 238.056ZM511.249 239H509.969V230.744H511.249V232.264H511.329C511.425 231.997 511.575 231.752 511.777 231.528C511.98 231.293 512.241 231.107 512.561 230.968C512.881 230.819 513.265 230.744 513.713 230.744H514.209V232.024H513.457C512.999 232.024 512.604 232.088 512.273 232.216C511.943 232.333 511.687 232.493 511.505 232.696C511.335 232.899 511.249 233.133 511.249 233.4V239ZM522.106 239.192C521.348 239.192 520.708 239.048 520.186 238.76C519.663 238.461 519.215 238.067 518.842 237.576L519.754 236.84C520.074 237.235 520.431 237.544 520.826 237.768C521.22 237.992 521.679 238.104 522.202 238.104C522.746 238.104 523.167 237.987 523.466 237.752C523.775 237.517 523.93 237.187 523.93 236.76C523.93 236.44 523.823 236.163 523.61 235.928C523.407 235.693 523.034 235.539 522.49 235.464L521.834 235.368C521.332 235.293 520.879 235.171 520.474 235C520.068 234.819 519.748 234.568 519.514 234.248C519.29 233.917 519.178 233.496 519.178 232.984C519.178 232.163 519.455 231.555 520.01 231.16C520.575 230.755 521.279 230.552 522.122 230.552C522.57 230.552 522.964 230.605 523.306 230.712C523.658 230.819 523.972 230.973 524.25 231.176C524.527 231.368 524.778 231.603 525.002 231.88L524.154 232.648C523.972 232.392 523.706 232.163 523.354 231.96C523.002 231.747 522.559 231.64 522.026 231.64C521.503 231.64 521.103 231.757 520.826 231.992C520.548 232.216 520.41 232.525 520.41 232.92C520.41 233.315 520.543 233.608 520.81 233.8C521.087 233.981 521.482 234.115 521.994 234.2L522.634 234.296C523.551 234.435 524.202 234.701 524.586 235.096C524.97 235.48 525.162 235.987 525.162 236.616C525.162 237.149 525.039 237.608 524.794 237.992C524.548 238.376 524.196 238.675 523.738 238.888C523.279 239.091 522.735 239.192 522.106 239.192ZM528.062 228.808C527.796 228.808 527.599 228.744 527.471 228.616C527.343 228.477 527.279 228.301 527.279 228.088V227.88C527.279 227.667 527.343 227.496 527.471 227.368C527.599 227.229 527.796 227.16 528.062 227.16C528.34 227.16 528.537 227.229 528.655 227.368C528.783 227.496 528.847 227.667 528.847 227.88V228.088C528.847 228.301 528.783 228.477 528.655 228.616C528.537 228.744 528.34 228.808 528.062 228.808ZM527.423 239V230.744H528.703V239H527.423ZM534.847 239H533.247C532.809 239 532.473 238.872 532.239 238.616C532.004 238.36 531.887 238.035 531.887 237.64V231.864H530.527V230.744H531.295C531.572 230.744 531.759 230.691 531.855 230.584C531.961 230.467 532.015 230.269 532.015 229.992V228.456H533.167V230.744H534.975V231.864H533.167V237.88H534.847V239ZM547.533 239H546.813C546.472 239 546.194 238.931 545.981 238.792C545.768 238.643 545.613 238.44 545.517 238.184C545.421 237.928 545.373 237.635 545.373 237.304V237.192L545.869 237.656H545.309C545.138 238.157 544.84 238.541 544.413 238.808C543.997 239.064 543.501 239.192 542.925 239.192C542.05 239.192 541.368 238.968 540.877 238.52C540.397 238.072 540.157 237.464 540.157 236.696C540.157 236.173 540.285 235.736 540.541 235.384C540.797 235.021 541.181 234.749 541.693 234.568C542.216 234.376 542.877 234.28 543.677 234.28H545.309V233.464C545.309 232.877 545.149 232.429 544.829 232.12C544.509 231.811 544.018 231.656 543.357 231.656C542.866 231.656 542.45 231.768 542.109 231.992C541.768 232.216 541.485 232.515 541.261 232.888L540.493 232.168C540.717 231.731 541.074 231.352 541.565 231.032C542.056 230.712 542.674 230.552 543.421 230.552C544.413 230.552 545.186 230.797 545.741 231.288C546.306 231.779 546.589 232.461 546.589 233.336V237.88H547.533V239ZM545.309 235.24H543.613C542.888 235.24 542.354 235.347 542.013 235.56C541.672 235.773 541.501 236.083 541.501 236.488V236.824C541.501 237.229 541.65 237.544 541.949 237.768C542.248 237.992 542.642 238.104 543.133 238.104C543.56 238.104 543.933 238.04 544.253 237.912C544.584 237.773 544.84 237.592 545.021 237.368C545.213 237.133 545.309 236.877 545.309 236.6V235.24ZM550.64 239H549.36V230.744H550.64V232.088H550.704C550.885 231.661 551.141 231.299 551.472 231C551.803 230.701 552.288 230.552 552.928 230.552C553.472 230.552 553.973 230.685 554.432 230.952C554.891 231.208 555.232 231.635 555.456 232.232H555.488C555.637 231.784 555.915 231.395 556.32 231.064C556.736 230.723 557.296 230.552 558 230.552C558.843 230.552 559.499 230.829 559.968 231.384C560.448 231.928 560.688 232.701 560.688 233.704V239H559.408V233.928C559.408 233.203 559.264 232.653 558.976 232.28C558.688 231.896 558.229 231.704 557.6 231.704C557.269 231.704 556.955 231.763 556.656 231.88C556.357 231.987 556.117 232.157 555.936 232.392C555.755 232.627 555.664 232.92 555.664 233.272V239H554.384V233.928C554.384 233.192 554.24 232.637 553.952 232.264C553.664 231.891 553.216 231.704 552.608 231.704C552.277 231.704 551.957 231.763 551.648 231.88C551.349 231.987 551.104 232.157 550.912 232.392C550.731 232.627 550.64 232.92 550.64 233.272V239ZM566.433 239.192C565.686 239.192 565.035 239.016 564.481 238.664C563.926 238.301 563.494 237.8 563.185 237.16C562.875 236.509 562.721 235.747 562.721 234.872C562.721 233.997 562.875 233.24 563.185 232.6C563.494 231.949 563.926 231.448 564.481 231.096C565.035 230.733 565.686 230.552 566.433 230.552C567.169 230.552 567.803 230.728 568.337 231.08C568.87 231.421 569.281 231.896 569.569 232.504C569.857 233.112 570.001 233.805 570.001 234.584V235.192H564.065V235.576C564.065 236.291 564.278 236.888 564.705 237.368C565.142 237.837 565.745 238.072 566.513 238.072C567.035 238.072 567.489 237.949 567.873 237.704C568.267 237.459 568.571 237.107 568.785 236.648L569.697 237.304C569.43 237.859 569.014 238.312 568.449 238.664C567.883 239.016 567.211 239.192 566.433 239.192ZM566.433 231.624C565.974 231.624 565.563 231.731 565.201 231.944C564.849 232.157 564.571 232.456 564.369 232.84C564.166 233.213 564.065 233.64 564.065 234.12V234.232H568.625V234.056C568.625 233.565 568.534 233.139 568.353 232.776C568.171 232.413 567.915 232.131 567.585 231.928C567.254 231.725 566.87 231.624 566.433 231.624ZM575.534 239H573.934C573.497 239 573.161 238.872 572.926 238.616C572.691 238.36 572.574 238.035 572.574 237.64V231.864H571.214V230.744H571.982C572.259 230.744 572.446 230.691 572.542 230.584C572.649 230.467 572.702 230.269 572.702 229.992V228.456H573.854V230.744H575.662V231.864H573.854V237.88H575.534V239ZM578.535 237.128C578.877 237.128 579.122 237.219 579.271 237.4C579.431 237.571 579.511 237.795 579.511 238.072V238.296C579.511 238.723 579.383 239.203 579.127 239.736C578.871 240.269 578.514 240.733 578.055 241.128H576.983C577.303 240.787 577.559 240.461 577.751 240.152C577.954 239.853 578.098 239.517 578.183 239.144C577.97 239.091 577.81 238.989 577.703 238.84C577.607 238.691 577.559 238.509 577.559 238.296V238.072C577.559 237.795 577.639 237.571 577.799 237.4C577.959 237.219 578.205 237.128 578.535 237.128ZM384.432 263.192C383.269 263.192 382.363 262.803 381.712 262.024C381.072 261.245 380.752 260.195 380.752 258.872C380.752 257.549 381.072 256.499 381.712 255.72C382.363 254.941 383.269 254.552 384.432 254.552C385.253 254.552 385.915 254.733 386.416 255.096C386.917 255.459 387.285 255.923 387.52 256.488L386.448 257.032C386.299 256.605 386.048 256.275 385.696 256.04C385.355 255.805 384.933 255.688 384.432 255.688C383.675 255.688 383.099 255.923 382.704 256.392C382.32 256.851 382.128 257.443 382.128 258.168V259.576C382.128 260.291 382.32 260.883 382.704 261.352C383.099 261.821 383.675 262.056 384.432 262.056C384.955 262.056 385.403 261.933 385.776 261.688C386.149 261.443 386.448 261.085 386.672 260.616L387.6 261.24C387.333 261.827 386.933 262.301 386.4 262.664C385.877 263.016 385.221 263.192 384.432 263.192ZM392.433 263.192C391.697 263.192 391.046 263.016 390.481 262.664C389.926 262.301 389.489 261.8 389.169 261.16C388.86 260.509 388.705 259.747 388.705 258.872C388.705 257.997 388.86 257.24 389.169 256.6C389.489 255.949 389.926 255.448 390.481 255.096C391.046 254.733 391.697 254.552 392.433 254.552C393.169 254.552 393.814 254.733 394.369 255.096C394.934 255.448 395.372 255.949 395.681 256.6C396.001 257.24 396.161 257.997 396.161 258.872C396.161 259.747 396.001 260.509 395.681 261.16C395.372 261.8 394.934 262.301 394.369 262.664C393.814 263.016 393.169 263.192 392.433 263.192ZM392.433 262.056C393.126 262.056 393.692 261.843 394.129 261.416C394.566 260.989 394.785 260.339 394.785 259.464V258.28C394.785 257.405 394.566 256.755 394.129 256.328C393.692 255.901 393.126 255.688 392.433 255.688C391.75 255.688 391.185 255.901 390.737 256.328C390.3 256.755 390.081 257.405 390.081 258.28V259.464C390.081 260.339 390.3 260.989 390.737 261.416C391.185 261.843 391.75 262.056 392.433 262.056ZM399.546 263H398.266V254.744H399.546V256.088H399.61C399.813 255.619 400.096 255.245 400.458 254.968C400.832 254.691 401.328 254.552 401.946 254.552C402.8 254.552 403.472 254.829 403.962 255.384C404.464 255.928 404.714 256.701 404.714 257.704V263H403.434V257.928C403.434 257.192 403.274 256.637 402.954 256.264C402.645 255.891 402.181 255.704 401.562 255.704C401.221 255.704 400.896 255.763 400.586 255.88C400.277 255.987 400.026 256.157 399.834 256.392C399.642 256.627 399.546 256.92 399.546 257.272V263ZM409.84 263.192C409.083 263.192 408.443 263.048 407.92 262.76C407.397 262.461 406.949 262.067 406.576 261.576L407.488 260.84C407.808 261.235 408.165 261.544 408.56 261.768C408.955 261.992 409.413 262.104 409.936 262.104C410.48 262.104 410.901 261.987 411.2 261.752C411.509 261.517 411.664 261.187 411.664 260.76C411.664 260.44 411.557 260.163 411.344 259.928C411.141 259.693 410.768 259.539 410.224 259.464L409.568 259.368C409.067 259.293 408.613 259.171 408.208 259C407.803 258.819 407.483 258.568 407.248 258.248C407.024 257.917 406.912 257.496 406.912 256.984C406.912 256.163 407.189 255.555 407.744 255.16C408.309 254.755 409.013 254.552 409.856 254.552C410.304 254.552 410.699 254.605 411.04 254.712C411.392 254.819 411.707 254.973 411.984 255.176C412.261 255.368 412.512 255.603 412.736 255.88L411.888 256.648C411.707 256.392 411.44 256.163 411.088 255.96C410.736 255.747 410.293 255.64 409.76 255.64C409.237 255.64 408.837 255.757 408.56 255.992C408.283 256.216 408.144 256.525 408.144 256.92C408.144 257.315 408.277 257.608 408.544 257.8C408.821 257.981 409.216 258.115 409.728 258.2L410.368 258.296C411.285 258.435 411.936 258.701 412.32 259.096C412.704 259.48 412.896 259.987 412.896 260.616C412.896 261.149 412.773 261.608 412.528 261.992C412.283 262.376 411.931 262.675 411.472 262.888C411.013 263.091 410.469 263.192 409.84 263.192ZM418.261 263.192C417.514 263.192 416.864 263.016 416.309 262.664C415.754 262.301 415.322 261.8 415.013 261.16C414.704 260.509 414.549 259.747 414.549 258.872C414.549 257.997 414.704 257.24 415.013 256.6C415.322 255.949 415.754 255.448 416.309 255.096C416.864 254.733 417.514 254.552 418.261 254.552C418.997 254.552 419.632 254.728 420.165 255.08C420.698 255.421 421.109 255.896 421.397 256.504C421.685 257.112 421.829 257.805 421.829 258.584V259.192H415.893V259.576C415.893 260.291 416.106 260.888 416.533 261.368C416.97 261.837 417.573 262.072 418.341 262.072C418.864 262.072 419.317 261.949 419.701 261.704C420.096 261.459 420.4 261.107 420.613 260.648L421.525 261.304C421.258 261.859 420.842 262.312 420.277 262.664C419.712 263.016 419.04 263.192 418.261 263.192ZM418.261 255.624C417.802 255.624 417.392 255.731 417.029 255.944C416.677 256.157 416.4 256.456 416.197 256.84C415.994 257.213 415.893 257.64 415.893 258.12V258.232H420.453V258.056C420.453 257.565 420.362 257.139 420.181 256.776C420 256.413 419.744 256.131 419.413 255.928C419.082 255.725 418.698 255.624 418.261 255.624ZM427.01 263.192C425.847 263.192 424.941 262.803 424.29 262.024C423.65 261.245 423.33 260.195 423.33 258.872C423.33 257.549 423.65 256.499 424.29 255.72C424.941 254.941 425.847 254.552 427.01 254.552C427.831 254.552 428.493 254.733 428.994 255.096C429.495 255.459 429.863 255.923 430.098 256.488L429.026 257.032C428.877 256.605 428.626 256.275 428.274 256.04C427.933 255.805 427.511 255.688 427.01 255.688C426.253 255.688 425.677 255.923 425.282 256.392C424.898 256.851 424.706 257.443 424.706 258.168V259.576C424.706 260.291 424.898 260.883 425.282 261.352C425.677 261.821 426.253 262.056 427.01 262.056C427.533 262.056 427.981 261.933 428.354 261.688C428.727 261.443 429.026 261.085 429.25 260.616L430.178 261.24C429.911 261.827 429.511 262.301 428.978 262.664C428.455 263.016 427.799 263.192 427.01 263.192ZM435.409 263H433.809C433.372 263 433.036 262.872 432.801 262.616C432.566 262.36 432.449 262.035 432.449 261.64V255.864H431.089V254.744H431.857C432.134 254.744 432.321 254.691 432.417 254.584C432.524 254.467 432.577 254.269 432.577 253.992V252.456H433.729V254.744H435.537V255.864H433.729V261.88H435.409V263ZM440.636 263.192C439.889 263.192 439.239 263.016 438.684 262.664C438.129 262.301 437.697 261.8 437.388 261.16C437.079 260.509 436.924 259.747 436.924 258.872C436.924 257.997 437.079 257.24 437.388 256.6C437.697 255.949 438.129 255.448 438.684 255.096C439.239 254.733 439.889 254.552 440.636 254.552C441.372 254.552 442.007 254.728 442.54 255.08C443.073 255.421 443.484 255.896 443.772 256.504C444.06 257.112 444.204 257.805 444.204 258.584V259.192H438.268V259.576C438.268 260.291 438.481 260.888 438.908 261.368C439.345 261.837 439.948 262.072 440.716 262.072C441.239 262.072 441.692 261.949 442.076 261.704C442.471 261.459 442.775 261.107 442.988 260.648L443.9 261.304C443.633 261.859 443.217 262.312 442.652 262.664C442.087 263.016 441.415 263.192 440.636 263.192ZM440.636 255.624C440.177 255.624 439.767 255.731 439.404 255.944C439.052 256.157 438.775 256.456 438.572 256.84C438.369 257.213 438.268 257.64 438.268 258.12V258.232H442.828V258.056C442.828 257.565 442.737 257.139 442.556 256.776C442.375 256.413 442.119 256.131 441.788 255.928C441.457 255.725 441.073 255.624 440.636 255.624ZM449.737 263H448.137C447.7 263 447.364 262.872 447.129 262.616C446.894 262.36 446.777 262.035 446.777 261.64V255.864H445.417V254.744H446.185C446.462 254.744 446.649 254.691 446.745 254.584C446.852 254.467 446.905 254.269 446.905 253.992V252.456H448.057V254.744H449.865V255.864H448.057V261.88H449.737V263ZM457.011 263V261.656H456.947C456.787 262.051 456.531 262.408 456.179 262.728C455.837 263.037 455.32 263.192 454.627 263.192C453.784 263.192 453.107 262.92 452.595 262.376C452.093 261.821 451.843 261.043 451.843 260.04V254.744H453.123V259.816C453.123 260.552 453.283 261.107 453.603 261.48C453.923 261.853 454.392 262.04 455.011 262.04C455.352 262.04 455.672 261.987 455.971 261.88C456.28 261.763 456.531 261.587 456.723 261.352C456.915 261.117 457.011 260.819 457.011 260.456V254.744H458.291V263H457.011ZM462.296 263H461.016V254.744H462.296V256.264H462.376C462.472 255.997 462.622 255.752 462.824 255.528C463.027 255.293 463.288 255.107 463.608 254.968C463.928 254.819 464.312 254.744 464.76 254.744H465.256V256.024H464.504C464.046 256.024 463.651 256.088 463.32 256.216C462.99 256.333 462.734 256.493 462.552 256.696C462.382 256.899 462.296 257.133 462.296 257.4V263ZM477.392 263H476.673C476.331 263 476.054 262.931 475.841 262.792C475.627 262.643 475.473 262.44 475.377 262.184C475.281 261.928 475.233 261.635 475.233 261.304V261.192L475.729 261.656H475.169C474.998 262.157 474.699 262.541 474.273 262.808C473.857 263.064 473.361 263.192 472.785 263.192C471.91 263.192 471.227 262.968 470.737 262.52C470.257 262.072 470.017 261.464 470.017 260.696C470.017 260.173 470.145 259.736 470.401 259.384C470.657 259.021 471.041 258.749 471.553 258.568C472.075 258.376 472.737 258.28 473.536 258.28H475.169V257.464C475.169 256.877 475.009 256.429 474.689 256.12C474.369 255.811 473.878 255.656 473.217 255.656C472.726 255.656 472.31 255.768 471.969 255.992C471.627 256.216 471.345 256.515 471.121 256.888L470.353 256.168C470.577 255.731 470.934 255.352 471.424 255.032C471.915 254.712 472.534 254.552 473.281 254.552C474.273 254.552 475.046 254.797 475.601 255.288C476.166 255.779 476.449 256.461 476.449 257.336V261.88H477.392V263ZM475.169 259.24H473.473C472.747 259.24 472.214 259.347 471.873 259.56C471.531 259.773 471.361 260.083 471.361 260.488V260.824C471.361 261.229 471.51 261.544 471.809 261.768C472.107 261.992 472.502 262.104 472.993 262.104C473.419 262.104 473.793 262.04 474.113 261.912C474.443 261.773 474.699 261.592 474.881 261.368C475.073 261.133 475.169 260.877 475.169 260.6V259.24ZM484.499 263V261.656H484.435C484.19 262.168 483.865 262.552 483.459 262.808C483.065 263.064 482.585 263.192 482.019 263.192C481.337 263.192 480.739 263.016 480.227 262.664C479.726 262.312 479.337 261.811 479.059 261.16C478.793 260.509 478.659 259.747 478.659 258.872C478.659 257.987 478.793 257.224 479.059 256.584C479.337 255.933 479.726 255.432 480.227 255.08C480.739 254.728 481.337 254.552 482.019 254.552C482.585 254.552 483.075 254.68 483.491 254.936C483.907 255.181 484.222 255.565 484.435 256.088H484.499V251.16H485.779V263H484.499ZM482.371 262.04C482.766 262.04 483.123 261.976 483.443 261.848C483.763 261.709 484.019 261.517 484.211 261.272C484.403 261.016 484.499 260.712 484.499 260.36V257.288C484.499 256.979 484.403 256.707 484.211 256.472C484.019 256.237 483.763 256.051 483.443 255.912C483.123 255.773 482.766 255.704 482.371 255.704C481.657 255.704 481.086 255.933 480.659 256.392C480.243 256.84 480.035 257.432 480.035 258.168V259.576C480.035 260.312 480.243 260.909 480.659 261.368C481.086 261.816 481.657 262.04 482.371 262.04ZM493.962 251.048H495.082L494.986 253.352L495.018 253.384L497.194 252.584L497.546 253.656L495.306 254.264L495.29 254.312L496.73 256.136L495.834 256.792L494.538 254.84H494.506L493.21 256.792L492.314 256.136L493.754 254.312L493.738 254.264L491.498 253.656L491.85 252.584L494.026 253.384L494.058 253.352L493.962 251.048ZM503.906 252.808C503.64 252.808 503.442 252.744 503.314 252.616C503.186 252.477 503.122 252.301 503.122 252.088V251.88C503.122 251.667 503.186 251.496 503.314 251.368C503.442 251.229 503.64 251.16 503.906 251.16C504.184 251.16 504.381 251.229 504.498 251.368C504.626 251.496 504.69 251.667 504.69 251.88V252.088C504.69 252.301 504.626 252.477 504.498 252.616C504.381 252.744 504.184 252.808 503.906 252.808ZM503.266 263V254.744H504.546V263H503.266ZM509.746 263.192C508.989 263.192 508.349 263.048 507.826 262.76C507.304 262.461 506.856 262.067 506.482 261.576L507.394 260.84C507.714 261.235 508.072 261.544 508.466 261.768C508.861 261.992 509.32 262.104 509.842 262.104C510.386 262.104 510.808 261.987 511.106 261.752C511.416 261.517 511.57 261.187 511.57 260.76C511.57 260.44 511.464 260.163 511.25 259.928C511.048 259.693 510.674 259.539 510.13 259.464L509.474 259.368C508.973 259.293 508.52 259.171 508.114 259C507.709 258.819 507.389 258.568 507.154 258.248C506.93 257.917 506.818 257.496 506.818 256.984C506.818 256.163 507.096 255.555 507.65 255.16C508.216 254.755 508.92 254.552 509.762 254.552C510.21 254.552 510.605 254.605 510.946 254.712C511.298 254.819 511.613 254.973 511.89 255.176C512.168 255.368 512.418 255.603 512.642 255.88L511.794 256.648C511.613 256.392 511.346 256.163 510.994 255.96C510.642 255.747 510.2 255.64 509.666 255.64C509.144 255.64 508.744 255.757 508.466 255.992C508.189 256.216 508.05 256.525 508.05 256.92C508.05 257.315 508.184 257.608 508.45 257.8C508.728 257.981 509.122 258.115 509.634 258.2L510.274 258.296C511.192 258.435 511.842 258.701 512.226 259.096C512.61 259.48 512.802 259.987 512.802 260.616C512.802 261.149 512.68 261.608 512.434 261.992C512.189 262.376 511.837 262.675 511.378 262.888C510.92 263.091 510.376 263.192 509.746 263.192ZM515.703 252.808C515.436 252.808 515.239 252.744 515.111 252.616C514.983 252.477 514.919 252.301 514.919 252.088V251.88C514.919 251.667 514.983 251.496 515.111 251.368C515.239 251.229 515.436 251.16 515.703 251.16C515.98 251.16 516.178 251.229 516.295 251.368C516.423 251.496 516.487 251.667 516.487 251.88V252.088C516.487 252.301 516.423 252.477 516.295 252.616C516.178 252.744 515.98 252.808 515.703 252.808ZM515.063 263V254.744H516.343V263H515.063ZM522.135 263.192C520.972 263.192 520.066 262.803 519.415 262.024C518.775 261.245 518.455 260.195 518.455 258.872C518.455 257.549 518.775 256.499 519.415 255.72C520.066 254.941 520.972 254.552 522.135 254.552C522.956 254.552 523.618 254.733 524.119 255.096C524.62 255.459 524.988 255.923 525.223 256.488L524.151 257.032C524.002 256.605 523.751 256.275 523.399 256.04C523.058 255.805 522.636 255.688 522.135 255.688C521.378 255.688 520.802 255.923 520.407 256.392C520.023 256.851 519.831 257.443 519.831 258.168V259.576C519.831 260.291 520.023 260.883 520.407 261.352C520.802 261.821 521.378 262.056 522.135 262.056C522.658 262.056 523.106 261.933 523.479 261.688C523.852 261.443 524.151 261.085 524.375 260.616L525.303 261.24C525.036 261.827 524.636 262.301 524.103 262.664C523.58 263.016 522.924 263.192 522.135 263.192ZM527.75 252.808C527.483 252.808 527.286 252.744 527.158 252.616C527.03 252.477 526.966 252.301 526.966 252.088V251.88C526.966 251.667 527.03 251.496 527.158 251.368C527.286 251.229 527.483 251.16 527.75 251.16C528.027 251.16 528.225 251.229 528.342 251.368C528.47 251.496 528.534 251.667 528.534 251.88V252.088C528.534 252.301 528.47 252.477 528.342 252.616C528.225 252.744 528.027 252.808 527.75 252.808ZM527.11 263V254.744H528.39V263H527.11ZM532.39 263H531.11V254.744H532.39V256.088H532.454C532.657 255.619 532.939 255.245 533.302 254.968C533.675 254.691 534.171 254.552 534.79 254.552C535.643 254.552 536.315 254.829 536.806 255.384C537.307 255.928 537.558 256.701 537.558 257.704V263H536.278V257.928C536.278 257.192 536.118 256.637 535.798 256.264C535.489 255.891 535.025 255.704 534.406 255.704C534.065 255.704 533.739 255.763 533.43 255.88C533.121 255.987 532.87 256.157 532.678 256.392C532.486 256.627 532.39 256.92 532.39 257.272V263ZM547.164 263.912C547.164 264.477 547.014 264.941 546.716 265.304C546.417 265.677 545.969 265.949 545.372 266.12C544.785 266.301 544.049 266.392 543.164 266.392C542.31 266.392 541.612 266.312 541.068 266.152C540.534 265.992 540.145 265.757 539.9 265.448C539.654 265.149 539.532 264.787 539.532 264.36C539.532 263.912 539.649 263.56 539.884 263.304C540.118 263.048 540.438 262.867 540.844 262.76V262.584C540.609 262.467 540.428 262.317 540.3 262.136C540.172 261.944 540.108 261.709 540.108 261.432C540.108 261.016 540.241 260.701 540.508 260.488C540.774 260.264 541.116 260.099 541.532 259.992V259.928C541.041 259.693 540.657 259.357 540.38 258.92C540.113 258.483 539.98 257.976 539.98 257.4C539.98 256.835 540.108 256.339 540.364 255.912C540.62 255.485 540.982 255.155 541.452 254.92C541.921 254.675 542.465 254.552 543.084 254.552C543.382 254.552 543.66 254.579 543.916 254.632C544.182 254.685 544.428 254.765 544.652 254.872V254.728C544.652 254.408 544.726 254.147 544.876 253.944C545.025 253.731 545.27 253.624 545.612 253.624H546.844V254.744H545.276V255.272C545.574 255.528 545.804 255.837 545.964 256.2C546.134 256.563 546.22 256.963 546.22 257.4C546.22 257.955 546.092 258.451 545.836 258.888C545.58 259.315 545.217 259.651 544.748 259.896C544.278 260.131 543.729 260.248 543.1 260.248C542.961 260.248 542.822 260.243 542.684 260.232C542.545 260.211 542.417 260.189 542.3 260.168C542.033 260.243 541.782 260.355 541.548 260.504C541.324 260.643 541.212 260.84 541.212 261.096C541.212 261.341 541.329 261.507 541.564 261.592C541.798 261.677 542.102 261.72 542.476 261.72H544.236C545.26 261.72 546.001 261.917 546.46 262.312C546.929 262.696 547.164 263.229 547.164 263.912ZM545.964 264.008C545.964 263.677 545.836 263.411 545.58 263.208C545.334 263.016 544.892 262.92 544.252 262.92H541.5C541.233 263.037 541.036 263.187 540.908 263.368C540.79 263.56 540.732 263.784 540.732 264.04C540.732 264.403 540.865 264.712 541.132 264.968C541.409 265.224 541.873 265.352 542.524 265.352H543.708C544.422 265.352 544.977 265.24 545.372 265.016C545.766 264.792 545.964 264.456 545.964 264.008ZM543.1 259.224C543.644 259.224 544.076 259.096 544.396 258.84C544.716 258.573 544.876 258.168 544.876 257.624V257.176C544.876 256.632 544.716 256.232 544.396 255.976C544.076 255.709 543.644 255.576 543.1 255.576C542.556 255.576 542.124 255.709 541.804 255.976C541.484 256.232 541.324 256.632 541.324 257.176V257.624C541.324 258.168 541.484 258.573 541.804 258.84C542.124 259.096 542.556 259.224 543.1 259.224ZM555.542 263.192C554.795 263.192 554.145 263.016 553.59 262.664C553.035 262.301 552.603 261.8 552.294 261.16C551.985 260.509 551.83 259.747 551.83 258.872C551.83 257.997 551.985 257.24 552.294 256.6C552.603 255.949 553.035 255.448 553.59 255.096C554.145 254.733 554.795 254.552 555.542 254.552C556.278 254.552 556.913 254.728 557.446 255.08C557.979 255.421 558.39 255.896 558.678 256.504C558.966 257.112 559.11 257.805 559.11 258.584V259.192H553.174V259.576C553.174 260.291 553.387 260.888 553.814 261.368C554.251 261.837 554.854 262.072 555.622 262.072C556.145 262.072 556.598 261.949 556.982 261.704C557.377 261.459 557.681 261.107 557.894 260.648L558.806 261.304C558.539 261.859 558.123 262.312 557.558 262.664C556.993 263.016 556.321 263.192 555.542 263.192ZM555.542 255.624C555.083 255.624 554.673 255.731 554.31 255.944C553.958 256.157 553.681 256.456 553.478 256.84C553.275 257.213 553.174 257.64 553.174 258.12V258.232H557.734V258.056C557.734 257.565 557.643 257.139 557.462 256.776C557.281 256.413 557.025 256.131 556.694 255.928C556.363 255.725 555.979 255.624 555.542 255.624ZM563.715 263H562.579C562.142 263 561.806 262.877 561.571 262.632C561.337 262.376 561.219 262.056 561.219 261.672V251.16H562.499V261.88H563.715V263ZM566.219 252.808C565.952 252.808 565.755 252.744 565.627 252.616C565.499 252.477 565.435 252.301 565.435 252.088V251.88C565.435 251.667 565.499 251.496 565.627 251.368C565.755 251.229 565.952 251.16 566.219 251.16C566.496 251.16 566.693 251.229 566.811 251.368C566.939 251.496 567.003 251.667 567.003 251.88V252.088C567.003 252.301 566.939 252.477 566.811 252.616C566.693 252.744 566.496 252.808 566.219 252.808ZM565.579 263V254.744H566.859V263H565.579ZM573.003 263H571.403C570.965 263 570.629 262.872 570.395 262.616C570.16 262.36 570.043 262.035 570.043 261.64V255.864H568.683V254.744H569.451C569.728 254.744 569.915 254.691 570.011 254.584C570.117 254.467 570.171 254.269 570.171 253.992V252.456H571.323V254.744H573.131V255.864H571.323V261.88H573.003V263ZM576.004 261.128C576.345 261.128 576.591 261.219 576.74 261.4C576.9 261.571 576.98 261.795 576.98 262.072V262.296C576.98 262.723 576.852 263.203 576.596 263.736C576.34 264.269 575.983 264.733 575.524 265.128H574.452C574.772 264.787 575.028 264.461 575.22 264.152C575.423 263.853 575.567 263.517 575.652 263.144C575.439 263.091 575.279 262.989 575.172 262.84C575.076 262.691 575.028 262.509 575.028 262.296V262.072C575.028 261.795 575.108 261.571 575.268 261.4C575.428 261.219 575.673 261.128 576.004 261.128ZM585.809 263.192C585.051 263.192 584.411 263.048 583.889 262.76C583.366 262.461 582.918 262.067 582.545 261.576L583.457 260.84C583.777 261.235 584.134 261.544 584.529 261.768C584.923 261.992 585.382 262.104 585.905 262.104C586.449 262.104 586.87 261.987 587.169 261.752C587.478 261.517 587.633 261.187 587.633 260.76C587.633 260.44 587.526 260.163 587.313 259.928C587.11 259.693 586.737 259.539 586.193 259.464L585.537 259.368C585.035 259.293 584.582 259.171 584.177 259C583.771 258.819 583.451 258.568 583.217 258.248C582.993 257.917 582.881 257.496 582.881 256.984C582.881 256.163 583.158 255.555 583.713 255.16C584.278 254.755 584.982 254.552 585.825 254.552C586.273 254.552 586.667 254.605 587.009 254.712C587.361 254.819 587.675 254.973 587.953 255.176C588.23 255.368 588.481 255.603 588.705 255.88L587.857 256.648C587.675 256.392 587.409 256.163 587.057 255.96C586.705 255.747 586.262 255.64 585.729 255.64C585.206 255.64 584.806 255.757 584.529 255.992C584.251 256.216 584.113 256.525 584.113 256.92C584.113 257.315 584.246 257.608 584.513 257.8C584.79 257.981 585.185 258.115 585.697 258.2L586.337 258.296C587.254 258.435 587.905 258.701 588.289 259.096C588.673 259.48 588.865 259.987 588.865 260.616C588.865 261.149 588.742 261.608 588.497 261.992C588.251 262.376 587.899 262.675 587.441 262.888C586.982 263.091 586.438 263.192 585.809 263.192ZM594.23 263.192C593.483 263.192 592.832 263.016 592.278 262.664C591.723 262.301 591.291 261.8 590.982 261.16C590.672 260.509 590.518 259.747 590.518 258.872C590.518 257.997 590.672 257.24 590.982 256.6C591.291 255.949 591.723 255.448 592.278 255.096C592.832 254.733 593.483 254.552 594.23 254.552C594.966 254.552 595.6 254.728 596.134 255.08C596.667 255.421 597.078 255.896 597.366 256.504C597.654 257.112 597.798 257.805 597.798 258.584V259.192H591.862V259.576C591.862 260.291 592.075 260.888 592.502 261.368C592.939 261.837 593.542 262.072 594.31 262.072C594.832 262.072 595.286 261.949 595.67 261.704C596.064 261.459 596.368 261.107 596.582 260.648L597.494 261.304C597.227 261.859 596.811 262.312 596.246 262.664C595.68 263.016 595.008 263.192 594.23 263.192ZM594.23 255.624C593.771 255.624 593.36 255.731 592.998 255.944C592.646 256.157 592.368 256.456 592.166 256.84C591.963 257.213 591.862 257.64 591.862 258.12V258.232H596.422V258.056C596.422 257.565 596.331 257.139 596.15 256.776C595.968 256.413 595.712 256.131 595.382 255.928C595.051 255.725 594.667 255.624 594.23 255.624ZM605.187 263V261.656H605.123C604.878 262.168 604.552 262.552 604.147 262.808C603.752 263.064 603.272 263.192 602.707 263.192C602.024 263.192 601.427 263.016 600.915 262.664C600.414 262.312 600.024 261.811 599.747 261.16C599.48 260.509 599.347 259.747 599.347 258.872C599.347 257.987 599.48 257.224 599.747 256.584C600.024 255.933 600.414 255.432 600.915 255.08C601.427 254.728 602.024 254.552 602.707 254.552C603.272 254.552 603.763 254.68 604.179 254.936C604.595 255.181 604.91 255.565 605.123 256.088H605.187V251.16H606.467V263H605.187ZM603.059 262.04C603.454 262.04 603.811 261.976 604.131 261.848C604.451 261.709 604.707 261.517 604.899 261.272C605.091 261.016 605.187 260.712 605.187 260.36V257.288C605.187 256.979 605.091 256.707 604.899 256.472C604.707 256.237 604.451 256.051 604.131 255.912C603.811 255.773 603.454 255.704 603.059 255.704C602.344 255.704 601.774 255.933 601.347 256.392C600.931 256.84 600.723 257.432 600.723 258.168V259.576C600.723 260.312 600.931 260.909 601.347 261.368C601.774 261.816 602.344 262.04 603.059 262.04ZM386.64 287V285.656H386.576C386.331 286.168 386.005 286.552 385.6 286.808C385.205 287.064 384.725 287.192 384.16 287.192C383.477 287.192 382.88 287.016 382.368 286.664C381.867 286.312 381.477 285.811 381.2 285.16C380.933 284.509 380.8 283.747 380.8 282.872C380.8 281.987 380.933 281.224 381.2 280.584C381.477 279.933 381.867 279.432 382.368 279.08C382.88 278.728 383.477 278.552 384.16 278.552C384.725 278.552 385.216 278.68 385.632 278.936C386.048 279.181 386.363 279.565 386.576 280.088H386.64V275.16H387.92V287H386.64ZM384.512 286.04C384.907 286.04 385.264 285.976 385.584 285.848C385.904 285.709 386.16 285.517 386.352 285.272C386.544 285.016 386.64 284.712 386.64 284.36V281.288C386.64 280.979 386.544 280.707 386.352 280.472C386.16 280.237 385.904 280.051 385.584 279.912C385.264 279.773 384.907 279.704 384.512 279.704C383.797 279.704 383.227 279.933 382.8 280.392C382.384 280.84 382.176 281.432 382.176 282.168V283.576C382.176 284.312 382.384 284.909 382.8 285.368C383.227 285.816 383.797 286.04 384.512 286.04ZM393.761 287.192C393.025 287.192 392.375 287.016 391.809 286.664C391.255 286.301 390.817 285.8 390.497 285.16C390.188 284.509 390.033 283.747 390.033 282.872C390.033 281.997 390.188 281.24 390.497 280.6C390.817 279.949 391.255 279.448 391.809 279.096C392.375 278.733 393.025 278.552 393.761 278.552C394.497 278.552 395.143 278.733 395.697 279.096C396.263 279.448 396.7 279.949 397.009 280.6C397.329 281.24 397.489 281.997 397.489 282.872C397.489 283.747 397.329 284.509 397.009 285.16C396.7 285.8 396.263 286.301 395.697 286.664C395.143 287.016 394.497 287.192 393.761 287.192ZM393.761 286.056C394.455 286.056 395.02 285.843 395.457 285.416C395.895 284.989 396.113 284.339 396.113 283.464V282.28C396.113 281.405 395.895 280.755 395.457 280.328C395.02 279.901 394.455 279.688 393.761 279.688C393.079 279.688 392.513 279.901 392.065 280.328C391.628 280.755 391.409 281.405 391.409 282.28V283.464C391.409 284.339 391.628 284.989 392.065 285.416C392.513 285.843 393.079 286.056 393.761 286.056ZM406.48 287.192C405.733 287.192 405.082 287.016 404.528 286.664C403.973 286.301 403.541 285.8 403.232 285.16C402.922 284.509 402.768 283.747 402.768 282.872C402.768 281.997 402.922 281.24 403.232 280.6C403.541 279.949 403.973 279.448 404.528 279.096C405.082 278.733 405.733 278.552 406.48 278.552C407.216 278.552 407.85 278.728 408.384 279.08C408.917 279.421 409.328 279.896 409.616 280.504C409.904 281.112 410.048 281.805 410.048 282.584V283.192H404.112V283.576C404.112 284.291 404.325 284.888 404.752 285.368C405.189 285.837 405.792 286.072 406.56 286.072C407.082 286.072 407.536 285.949 407.92 285.704C408.314 285.459 408.618 285.107 408.832 284.648L409.744 285.304C409.477 285.859 409.061 286.312 408.496 286.664C407.93 287.016 407.258 287.192 406.48 287.192ZM406.48 279.624C406.021 279.624 405.61 279.731 405.248 279.944C404.896 280.157 404.618 280.456 404.416 280.84C404.213 281.213 404.112 281.64 404.112 282.12V282.232H408.672V282.056C408.672 281.565 408.581 281.139 408.4 280.776C408.218 280.413 407.962 280.131 407.632 279.928C407.301 279.725 406.917 279.624 406.48 279.624ZM412.797 276.808C412.53 276.808 412.333 276.744 412.205 276.616C412.077 276.477 412.013 276.301 412.013 276.088V275.88C412.013 275.667 412.077 275.496 412.205 275.368C412.333 275.229 412.53 275.16 412.797 275.16C413.074 275.16 413.272 275.229 413.389 275.368C413.517 275.496 413.581 275.667 413.581 275.88V276.088C413.581 276.301 413.517 276.477 413.389 276.616C413.272 276.744 413.074 276.808 412.797 276.808ZM412.157 287V278.744H413.437V287H412.157ZM421.245 287V285.656H421.181C421.021 286.051 420.765 286.408 420.413 286.728C420.072 287.037 419.554 287.192 418.861 287.192C418.018 287.192 417.341 286.92 416.829 286.376C416.328 285.821 416.077 285.043 416.077 284.04V278.744H417.357V283.816C417.357 284.552 417.517 285.107 417.837 285.48C418.157 285.853 418.626 286.04 419.245 286.04C419.586 286.04 419.906 285.987 420.205 285.88C420.514 285.763 420.765 285.587 420.957 285.352C421.149 285.117 421.245 284.819 421.245 284.456V278.744H422.525V287H421.245ZM427.731 287.192C426.973 287.192 426.333 287.048 425.811 286.76C425.288 286.461 424.84 286.067 424.467 285.576L425.379 284.84C425.699 285.235 426.056 285.544 426.451 285.768C426.845 285.992 427.304 286.104 427.827 286.104C428.371 286.104 428.792 285.987 429.091 285.752C429.4 285.517 429.555 285.187 429.555 284.76C429.555 284.44 429.448 284.163 429.235 283.928C429.032 283.693 428.659 283.539 428.115 283.464L427.459 283.368C426.957 283.293 426.504 283.171 426.099 283C425.693 282.819 425.373 282.568 425.139 282.248C424.915 281.917 424.803 281.496 424.803 280.984C424.803 280.163 425.08 279.555 425.635 279.16C426.2 278.755 426.904 278.552 427.747 278.552C428.195 278.552 428.589 278.605 428.931 278.712C429.283 278.819 429.597 278.973 429.875 279.176C430.152 279.368 430.403 279.603 430.627 279.88L429.779 280.648C429.597 280.392 429.331 280.163 428.979 279.96C428.627 279.747 428.184 279.64 427.651 279.64C427.128 279.64 426.728 279.757 426.451 279.992C426.173 280.216 426.035 280.525 426.035 280.92C426.035 281.315 426.168 281.608 426.435 281.8C426.712 281.981 427.107 282.115 427.619 282.2L428.259 282.296C429.176 282.435 429.827 282.701 430.211 283.096C430.595 283.48 430.787 283.987 430.787 284.616C430.787 285.149 430.664 285.608 430.419 285.992C430.173 286.376 429.821 286.675 429.363 286.888C428.904 287.091 428.36 287.192 427.731 287.192ZM434.328 287H433.048V278.744H434.328V280.088H434.392C434.573 279.661 434.829 279.299 435.16 279C435.49 278.701 435.976 278.552 436.616 278.552C437.16 278.552 437.661 278.685 438.12 278.952C438.578 279.208 438.92 279.635 439.144 280.232H439.176C439.325 279.784 439.602 279.395 440.008 279.064C440.424 278.723 440.984 278.552 441.688 278.552C442.53 278.552 443.186 278.829 443.656 279.384C444.136 279.928 444.376 280.701 444.376 281.704V287H443.096V281.928C443.096 281.203 442.952 280.653 442.664 280.28C442.376 279.896 441.917 279.704 441.288 279.704C440.957 279.704 440.642 279.763 440.344 279.88C440.045 279.987 439.805 280.157 439.624 280.392C439.442 280.627 439.352 280.92 439.352 281.272V287H438.072V281.928C438.072 281.192 437.928 280.637 437.64 280.264C437.352 279.891 436.904 279.704 436.296 279.704C435.965 279.704 435.645 279.763 435.336 279.88C435.037 279.987 434.792 280.157 434.6 280.392C434.418 280.627 434.328 280.92 434.328 281.272V287ZM450.136 287.192C449.4 287.192 448.75 287.016 448.184 286.664C447.63 286.301 447.192 285.8 446.872 285.16C446.563 284.509 446.408 283.747 446.408 282.872C446.408 281.997 446.563 281.24 446.872 280.6C447.192 279.949 447.63 279.448 448.184 279.096C448.75 278.733 449.4 278.552 450.136 278.552C450.872 278.552 451.518 278.733 452.072 279.096C452.638 279.448 453.075 279.949 453.384 280.6C453.704 281.24 453.864 281.997 453.864 282.872C453.864 283.747 453.704 284.509 453.384 285.16C453.075 285.8 452.638 286.301 452.072 286.664C451.518 287.016 450.872 287.192 450.136 287.192ZM450.136 286.056C450.83 286.056 451.395 285.843 451.832 285.416C452.27 284.989 452.488 284.339 452.488 283.464V282.28C452.488 281.405 452.27 280.755 451.832 280.328C451.395 279.901 450.83 279.688 450.136 279.688C449.454 279.688 448.888 279.901 448.44 280.328C448.003 280.755 447.784 281.405 447.784 282.28V283.464C447.784 284.339 448.003 284.989 448.44 285.416C448.888 285.843 449.454 286.056 450.136 286.056ZM461.249 287V285.656H461.185C460.94 286.168 460.615 286.552 460.209 286.808C459.815 287.064 459.335 287.192 458.769 287.192C458.087 287.192 457.489 287.016 456.977 286.664C456.476 286.312 456.087 285.811 455.809 285.16C455.543 284.509 455.409 283.747 455.409 282.872C455.409 281.987 455.543 281.224 455.809 280.584C456.087 279.933 456.476 279.432 456.977 279.08C457.489 278.728 458.087 278.552 458.769 278.552C459.335 278.552 459.825 278.68 460.241 278.936C460.657 279.181 460.972 279.565 461.185 280.088H461.249V275.16H462.529V287H461.249ZM459.121 286.04C459.516 286.04 459.873 285.976 460.193 285.848C460.513 285.709 460.769 285.517 460.961 285.272C461.153 285.016 461.249 284.712 461.249 284.36V281.288C461.249 280.979 461.153 280.707 460.961 280.472C460.769 280.237 460.513 280.051 460.193 279.912C459.873 279.773 459.516 279.704 459.121 279.704C458.407 279.704 457.836 279.933 457.409 280.392C456.993 280.84 456.785 281.432 456.785 282.168V283.576C456.785 284.312 456.993 284.909 457.409 285.368C457.836 285.816 458.407 286.04 459.121 286.04ZM470.712 275.048H471.832L471.736 277.352L471.768 277.384L473.944 276.584L474.296 277.656L472.056 278.264L472.04 278.312L473.48 280.136L472.584 280.792L471.288 278.84H471.256L469.96 280.792L469.064 280.136L470.504 278.312L470.488 278.264L468.248 277.656L468.6 276.584L470.776 277.384L470.808 277.352L470.712 275.048Z" fill="#001B3C"/>
<path d="M391.88 206V199.136H385.496V206H381.848V189.248H385.496V195.92H391.88V189.248H395.528V206H391.88ZM404.279 206.288C402.999 206.288 401.903 206.024 400.991 205.496C400.095 204.952 399.407 204.184 398.927 203.192C398.463 202.2 398.231 201.032 398.231 199.688C398.231 198.36 398.455 197.208 398.903 196.232C399.367 195.24 400.039 194.472 400.919 193.928C401.799 193.384 402.871 193.112 404.135 193.112C405.527 193.112 406.647 193.416 407.495 194.024C408.359 194.616 408.991 195.4 409.391 196.376C409.791 197.352 409.991 198.408 409.991 199.544V200.6H401.903V200.792C401.903 201.624 402.127 202.288 402.575 202.784C403.039 203.264 403.743 203.504 404.687 203.504C405.439 203.504 406.039 203.352 406.487 203.048C406.951 202.744 407.383 202.392 407.783 201.992L409.559 204.2C408.999 204.84 408.263 205.352 407.351 205.736C406.455 206.104 405.431 206.288 404.279 206.288ZM404.207 195.728C403.727 195.728 403.311 195.84 402.959 196.064C402.623 196.272 402.359 196.568 402.167 196.952C401.991 197.336 401.903 197.792 401.903 198.32V198.512H406.319V198.296C406.319 197.784 406.239 197.336 406.079 196.952C405.935 196.568 405.703 196.272 405.383 196.064C405.079 195.84 404.687 195.728 404.207 195.728ZM423.78 206H421.812C421.38 206 420.972 205.896 420.588 205.688C420.22 205.464 419.924 205.144 419.7 204.728C419.476 204.296 419.364 203.784 419.364 203.192V202.88L420.132 203.792H419.268C419.076 204.608 418.652 205.232 417.996 205.664C417.34 206.08 416.532 206.288 415.572 206.288C414.308 206.288 413.34 205.952 412.668 205.28C411.996 204.592 411.66 203.704 411.66 202.616C411.66 201.72 411.876 200.984 412.308 200.408C412.756 199.832 413.38 199.4 414.18 199.112C414.996 198.824 415.956 198.68 417.06 198.68H419.052V197.888C419.052 197.28 418.892 196.8 418.572 196.448C418.252 196.08 417.716 195.896 416.964 195.896C416.26 195.896 415.7 196.048 415.284 196.352C414.868 196.656 414.524 197 414.252 197.384L412.14 195.512C412.652 194.76 413.3 194.176 414.084 193.76C414.868 193.328 415.916 193.112 417.228 193.112C419.004 193.112 420.34 193.512 421.236 194.312C422.148 195.096 422.604 196.232 422.604 197.72V203.24H423.78V206ZM419.052 200.696H417.324C416.636 200.696 416.116 200.816 415.764 201.056C415.412 201.296 415.236 201.648 415.236 202.112V202.472C415.236 202.92 415.38 203.256 415.668 203.48C415.956 203.704 416.364 203.816 416.892 203.816C417.292 203.816 417.652 203.76 417.972 203.648C418.292 203.536 418.548 203.36 418.74 203.12C418.948 202.88 419.052 202.568 419.052 202.184V200.696ZM433.892 206V203.888H433.772C433.596 204.576 433.188 205.152 432.548 205.616C431.924 206.064 431.204 206.288 430.388 206.288C429.332 206.288 428.444 206.04 427.724 205.544C427.004 205.032 426.46 204.288 426.092 203.312C425.724 202.32 425.54 201.112 425.54 199.688C425.54 198.264 425.724 197.064 426.092 196.088C426.46 195.112 427.004 194.376 427.724 193.88C428.444 193.368 429.332 193.112 430.388 193.112C431.204 193.112 431.924 193.336 432.548 193.784C433.188 194.232 433.596 194.808 433.772 195.512H433.892V188.24H437.444V206H433.892ZM431.564 203.408C432.012 203.408 432.412 203.336 432.764 203.192C433.116 203.048 433.388 202.84 433.58 202.568C433.788 202.28 433.892 201.944 433.892 201.56V197.84C433.892 197.456 433.788 197.128 433.58 196.856C433.388 196.568 433.116 196.352 432.764 196.208C432.412 196.064 432.012 195.992 431.564 195.992C430.892 195.992 430.332 196.232 429.884 196.712C429.452 197.176 429.236 197.808 429.236 198.608V200.792C429.236 201.576 429.452 202.208 429.884 202.688C430.332 203.168 430.892 203.408 431.564 203.408ZM442.541 192.056C441.821 192.056 441.293 191.888 440.957 191.552C440.637 191.216 440.477 190.8 440.477 190.304V189.776C440.477 189.264 440.637 188.848 440.957 188.528C441.293 188.192 441.821 188.024 442.541 188.024C443.261 188.024 443.781 188.192 444.101 188.528C444.437 188.848 444.605 189.264 444.605 189.776V190.304C444.605 190.8 444.437 191.216 444.101 191.552C443.781 191.888 443.261 192.056 442.541 192.056ZM440.765 206V193.4H444.317V206H440.765ZM451.185 206H447.633V193.4H451.185V195.536H451.329C451.553 194.88 451.945 194.312 452.505 193.832C453.065 193.352 453.841 193.112 454.833 193.112C456.113 193.112 457.089 193.552 457.761 194.432C458.433 195.296 458.769 196.52 458.769 198.104V206H455.217V198.392C455.217 197.592 455.089 196.992 454.833 196.592C454.577 196.192 454.121 195.992 453.465 195.992C453.081 195.992 452.713 196.064 452.361 196.208C452.025 196.336 451.745 196.536 451.521 196.808C451.297 197.08 451.185 197.424 451.185 197.84V206ZM473.593 206.912C473.593 207.792 473.377 208.544 472.945 209.168C472.529 209.792 471.825 210.264 470.833 210.584C469.841 210.92 468.489 211.088 466.777 211.088C465.321 211.088 464.153 210.968 463.273 210.728C462.409 210.504 461.777 210.168 461.377 209.72C460.993 209.288 460.801 208.768 460.801 208.16C460.801 207.456 461.009 206.904 461.425 206.504C461.841 206.104 462.417 205.856 463.153 205.76V205.496C462.561 205.384 462.105 205.128 461.785 204.728C461.481 204.312 461.329 203.832 461.329 203.288C461.329 202.632 461.569 202.128 462.049 201.776C462.545 201.408 463.089 201.168 463.681 201.056V200.96C462.929 200.608 462.361 200.128 461.977 199.52C461.609 198.896 461.425 198.176 461.425 197.36C461.425 196.512 461.625 195.768 462.025 195.128C462.425 194.488 463.025 193.992 463.825 193.64C464.625 193.288 465.625 193.112 466.825 193.112C467.225 193.112 467.601 193.136 467.953 193.184C468.321 193.216 468.657 193.272 468.961 193.352V192.872C468.961 192.216 469.129 191.736 469.465 191.432C469.801 191.128 470.265 190.976 470.857 190.976H472.849V193.616H470.065V193.76C470.801 194.112 471.345 194.6 471.697 195.224C472.049 195.848 472.225 196.56 472.225 197.36C472.225 198.192 472.025 198.928 471.625 199.568C471.241 200.192 470.649 200.68 469.849 201.032C469.049 201.368 468.041 201.536 466.825 201.536C466.409 201.536 466.009 201.512 465.625 201.464C465.257 201.416 464.913 201.352 464.593 201.272C464.433 201.384 464.297 201.528 464.185 201.704C464.089 201.864 464.041 202.056 464.041 202.28C464.041 202.584 464.153 202.824 464.377 203C464.617 203.16 465.009 203.24 465.553 203.24H469.201C470.737 203.24 471.849 203.56 472.537 204.2C473.241 204.84 473.593 205.744 473.593 206.912ZM470.257 207.392C470.257 207.024 470.105 206.744 469.801 206.552C469.513 206.36 469.017 206.264 468.313 206.264H463.993C463.833 206.424 463.713 206.6 463.633 206.792C463.569 207 463.537 207.2 463.537 207.392C463.537 207.84 463.737 208.176 464.137 208.4C464.537 208.624 465.217 208.736 466.177 208.736H467.617C468.577 208.736 469.257 208.624 469.657 208.4C470.057 208.176 470.257 207.84 470.257 207.392ZM466.825 199.208C467.529 199.208 468.049 199.056 468.385 198.752C468.737 198.448 468.913 198.024 468.913 197.48V197.192C468.913 196.632 468.737 196.208 468.385 195.92C468.049 195.616 467.529 195.464 466.825 195.464C466.137 195.464 465.617 195.616 465.265 195.92C464.913 196.208 464.737 196.632 464.737 197.192V197.48C464.737 198.024 464.913 198.448 465.265 198.752C465.617 199.056 466.137 199.208 466.825 199.208Z" fill="#001B3C"/>
<g clip-path="url(#clip0_2025_546)">
<path fill-rule="evenodd" clip-rule="evenodd" d="M344 186.333C338.109 186.333 333.333 191.109 333.333 197C333.333 202.891 338.109 207.667 344 207.667C349.891 207.667 354.667 202.891 354.667 197C354.667 191.109 349.891 186.333 344 186.333ZM330.667 197C330.667 189.636 336.636 183.667 344 183.667C351.364 183.667 357.333 189.636 357.333 197C357.333 204.364 351.364 210.333 344 210.333C336.636 210.333 330.667 204.364 330.667 197Z" fill="#1B59A4"/>
<path fill-rule="evenodd" clip-rule="evenodd" d="M342.667 191.667C342.667 190.93 343.264 190.333 344 190.333H344.013C344.75 190.333 345.347 190.93 345.347 191.667C345.347 192.403 344.75 193 344.013 193H344C343.264 193 342.667 192.403 342.667 191.667Z" fill="#1B59A4"/>
<path fill-rule="evenodd" clip-rule="evenodd" d="M341.333 197C341.333 196.263 341.93 195.667 342.667 195.667H344C344.736 195.667 345.333 196.263 345.333 197V201C346.07 201 346.667 201.597 346.667 202.333C346.667 203.07 346.07 203.667 345.333 203.667H344C343.264 203.667 342.667 203.07 342.667 202.333V198.333C341.93 198.333 341.333 197.736 341.333 197Z" fill="#1B59A4"/>
</g>
<rect x="380" y="312" width="65" height="48" rx="8" fill="#1B59A4"/>
<path d="M404.912 332.992H401.888V342H399.456V332.992H396.432V330.832H404.912V332.992ZM408.905 342.192C408.052 342.192 407.321 342.016 406.713 341.664C406.116 341.301 405.657 340.789 405.337 340.128C405.028 339.467 404.873 338.688 404.873 337.792C404.873 336.907 405.022 336.139 405.321 335.488C405.63 334.827 406.078 334.315 406.665 333.952C407.252 333.589 407.966 333.408 408.809 333.408C409.737 333.408 410.484 333.611 411.049 334.016C411.625 334.411 412.046 334.933 412.313 335.584C412.58 336.235 412.713 336.939 412.713 337.696V338.4H407.321V338.528C407.321 339.083 407.47 339.525 407.769 339.856C408.078 340.176 408.548 340.336 409.177 340.336C409.678 340.336 410.078 340.235 410.377 340.032C410.686 339.829 410.974 339.595 411.241 339.328L412.425 340.8C412.052 341.227 411.561 341.568 410.953 341.824C410.356 342.069 409.673 342.192 408.905 342.192ZM408.857 335.152C408.537 335.152 408.26 335.227 408.025 335.376C407.801 335.515 407.625 335.712 407.497 335.968C407.38 336.224 407.321 336.528 407.321 336.88V337.008H410.265V336.864C410.265 336.523 410.212 336.224 410.105 335.968C410.009 335.712 409.854 335.515 409.641 335.376C409.438 335.227 409.177 335.152 408.857 335.152ZM413.319 342L416.087 337.728L413.351 333.6H416.039L417.607 336.24H417.671L419.191 333.6H421.687L418.903 337.808L421.703 342H419.015L417.399 339.264H417.335L415.783 342H413.319ZM427.44 342H426.032C425.222 342 424.603 341.792 424.176 341.376C423.75 340.96 423.536 340.352 423.536 339.552V335.44H422.352V333.6H422.944C423.264 333.6 423.483 333.525 423.6 333.376C423.718 333.216 423.776 332.992 423.776 332.704V331.328H425.904V333.6H427.568V335.44H425.904V340.16H427.44V342Z" fill="white"/>
<rect x="373" y="110" width="32" height="32" rx="16" fill="#42144F"/>
<path d="M391.104 125.984C391.932 126.368 392.544 126.83 392.94 127.37C393.348 127.898 393.552 128.516 393.552 129.224C393.552 129.884 393.366 130.49 392.994 131.042C392.622 131.582 392.088 132.008 391.392 132.32C390.696 132.632 389.88 132.788 388.944 132.788C388.032 132.788 387.234 132.632 386.55 132.32C385.866 132.008 385.338 131.588 384.966 131.06C384.606 130.52 384.426 129.926 384.426 129.278C384.426 127.91 385.188 126.89 386.712 126.218C385.512 125.534 384.912 124.58 384.912 123.356C384.912 122.708 385.092 122.144 385.452 121.664C385.812 121.172 386.298 120.794 386.91 120.53C387.534 120.266 388.23 120.134 388.998 120.134C390.174 120.134 391.146 120.41 391.914 120.962C392.694 121.514 393.084 122.276 393.084 123.248C393.084 124.376 392.424 125.288 391.104 125.984ZM389.016 121.88C388.512 121.88 388.116 122.012 387.828 122.276C387.54 122.528 387.396 122.9 387.396 123.392C387.396 123.836 387.528 124.196 387.792 124.472C388.056 124.736 388.476 124.982 389.052 125.21L389.412 125.336C389.844 125.06 390.15 124.772 390.33 124.472C390.51 124.16 390.6 123.794 390.6 123.374C390.6 122.918 390.462 122.558 390.186 122.294C389.91 122.018 389.52 121.88 389.016 121.88ZM389.016 130.916C389.64 130.916 390.12 130.76 390.456 130.448C390.804 130.136 390.978 129.722 390.978 129.206C390.978 128.69 390.828 128.282 390.528 127.982C390.228 127.682 389.694 127.394 388.926 127.118L388.35 126.92C387.45 127.388 387 128.138 387 129.17C387 129.71 387.18 130.136 387.54 130.448C387.9 130.76 388.392 130.916 389.016 130.916Z" fill="white"/>
<path d="M344 126V181" stroke="#42144F" stroke-width="2" stroke-linecap="square" stroke-linejoin="bevel"/>
<path d="M389 142L389 182" stroke="#42144F" stroke-width="2" stroke-linecap="square" stroke-linejoin="bevel"/>
<rect x="668" y="241" width="32" height="32" rx="16" fill="#42144F"/>
<path d="M687.282 253.222H682.8V256.012C683.388 255.736 684 255.598 684.636 255.598C685.308 255.598 685.902 255.754 686.418 256.066C686.946 256.378 687.36 256.834 687.66 257.434C687.96 258.022 688.11 258.718 688.11 259.522C688.11 260.362 687.918 261.106 687.534 261.754C687.15 262.39 686.604 262.888 685.896 263.248C685.2 263.608 684.39 263.788 683.466 263.788C681.906 263.788 680.598 263.2 679.542 262.024L680.982 260.674C681.654 261.442 682.458 261.826 683.394 261.826C684.054 261.826 684.564 261.628 684.924 261.232C685.296 260.836 685.482 260.266 685.482 259.522C685.482 258.094 684.87 257.38 683.646 257.38C683.382 257.38 683.13 257.416 682.89 257.488C682.662 257.548 682.41 257.656 682.134 257.812H680.352V251.368H687.588L687.282 253.222Z" fill="white"/>
<rect x="668" y="181" width="32" height="32" rx="16" fill="#42144F"/>
<path d="M688.602 198.856V200.8H687.18V203.5H684.696L684.678 200.8H679.548V199.072L683.04 191.098L685.2 191.908L682.194 198.856H684.714L684.984 195.886H687.18V198.856H688.602Z" fill="white"/>
<rect x="668" y="318" width="32" height="32" rx="16" fill="#42144F"/>
<path d="M685.047 332.382C685.707 332.382 686.295 332.538 686.811 332.85C687.339 333.162 687.753 333.618 688.053 334.218C688.353 334.806 688.503 335.52 688.503 336.36C688.503 337.2 688.323 337.956 687.963 338.628C687.615 339.3 687.117 339.828 686.469 340.212C685.821 340.596 685.077 340.788 684.237 340.788C682.713 340.788 681.585 340.272 680.853 339.24C680.121 338.196 679.755 336.756 679.755 334.92C679.755 333.564 679.959 332.376 680.367 331.356C680.787 330.324 681.381 329.532 682.149 328.98C682.917 328.416 683.823 328.134 684.867 328.134C685.911 328.134 686.811 328.392 687.567 328.908L686.631 330.474C686.079 330.15 685.509 329.988 684.921 329.988C684.189 329.988 683.601 330.306 683.157 330.942C682.713 331.578 682.461 332.472 682.401 333.624C683.121 332.796 684.003 332.382 685.047 332.382ZM684.255 338.916C684.807 338.916 685.221 338.694 685.497 338.25C685.785 337.806 685.929 337.188 685.929 336.396C685.929 335.604 685.797 335.04 685.533 334.704C685.281 334.356 684.897 334.182 684.381 334.182C683.649 334.182 682.989 334.554 682.401 335.298C682.425 336.594 682.575 337.524 682.851 338.088C683.139 338.64 683.607 338.916 684.255 338.916Z" fill="white"/>
<path d="M668 257H628" stroke="#42144F" stroke-width="2" stroke-linecap="square" stroke-linejoin="bevel"/>
<path d="M668 197H628" stroke="#42144F" stroke-width="2" stroke-linecap="square" stroke-linejoin="bevel"/>
<path d="M668 334H632" stroke="#42144F" stroke-width="2" stroke-linecap="square" stroke-linejoin="bevel"/>
<rect x="328" y="110" width="32" height="32" rx="16" fill="#42144F"/>
<path d="M347.781 120.368V122.132L343.317 132.77L340.995 131.996L345.135 122.312H340.131V120.368H347.781Z" fill="white"/>
<path d="M268 217H316" stroke="#42144F" stroke-width="2" stroke-linecap="square" stroke-linejoin="bevel"/>
<rect x="236" y="254" width="32" height="32" rx="16" fill="#42144F"/>
<path d="M251.643 264.134C252.483 264.134 253.209 264.29 253.821 264.602C254.433 264.902 254.895 265.316 255.207 265.844C255.531 266.36 255.693 266.936 255.693 267.572C255.693 268.232 255.549 268.868 255.261 269.48C254.985 270.092 254.505 270.782 253.821 271.55C253.149 272.318 252.165 273.308 250.869 274.52H255.963L255.675 276.5H247.953V274.646C249.465 273.134 250.557 272.006 251.229 271.262C251.901 270.518 252.375 269.888 252.651 269.372C252.927 268.856 253.065 268.328 253.065 267.788C253.065 267.272 252.915 266.864 252.615 266.564C252.315 266.264 251.913 266.114 251.409 266.114C250.965 266.114 250.569 266.216 250.221 266.42C249.873 266.612 249.507 266.936 249.123 267.392L247.593 266.168C248.625 264.812 249.975 264.134 251.643 264.134Z" fill="white"/>
<path d="M252 270H367" stroke="#42144F" stroke-width="2" stroke-linecap="square" stroke-linejoin="bevel"/>
<path d="M502 113V173" stroke="#42144F" stroke-width="2" stroke-linecap="square" stroke-linejoin="bevel"/>
<rect x="486" y="81" width="32" height="32" rx="16" fill="#42144F"/>
<path d="M501.598 91.134C502.426 91.134 503.134 91.272 503.722 91.548C504.322 91.812 504.772 92.178 505.072 92.646C505.384 93.114 505.54 93.636 505.54 94.212C505.54 94.944 505.33 95.556 504.91 96.048C504.49 96.528 503.908 96.87 503.164 97.074C503.98 97.158 504.646 97.452 505.162 97.956C505.678 98.46 505.936 99.162 505.936 100.062C505.936 100.758 505.756 101.388 505.396 101.952C505.048 102.516 504.532 102.966 503.848 103.302C503.164 103.626 502.354 103.788 501.418 103.788C499.702 103.788 498.358 103.188 497.386 101.988L498.772 100.656C499.18 101.064 499.582 101.358 499.978 101.538C500.374 101.718 500.806 101.808 501.274 101.808C501.898 101.808 502.39 101.64 502.75 101.304C503.122 100.968 503.308 100.5 503.308 99.9C503.308 99.252 503.134 98.784 502.786 98.496C502.438 98.208 501.916 98.064 501.22 98.064H500.23L500.536 96.264H501.202C501.766 96.264 502.216 96.114 502.552 95.814C502.888 95.514 503.056 95.094 503.056 94.554C503.056 94.086 502.9 93.72 502.588 93.456C502.288 93.192 501.874 93.06 501.346 93.06C500.89 93.06 500.47 93.144 500.086 93.312C499.702 93.48 499.324 93.744 498.952 94.104L497.674 92.718C498.79 91.662 500.098 91.134 501.598 91.134Z" fill="white"/>
<rect x="236" y="201" width="32" height="32" rx="16" fill="#42144F"/>
<path d="M254.502 211.368V223.5H252V213.888L249.336 215.526L248.22 213.798L252.252 211.368H254.502Z" fill="white"/>
<defs>
<clipPath id="clip0_2025_546">
<rect width="32" height="32" fill="white" transform="translate(328 181)"/>
</clipPath>
</defs>
</svg>
