<svg width="960" height="540" viewBox="0 0 960 540" fill="none" xmlns="http://www.w3.org/2000/svg">
<rect x="0.5" y="0.5" width="959" height="539" fill="white"/>
<rect x="0.5" y="0.5" width="959" height="539" stroke="#CCCCCC"/>
<path d="M307.762 240L307.762 300" stroke="#DE00A4" stroke-width="2" stroke-linecap="square"/>
<path d="M268 270H307" stroke="#DE00A4" stroke-width="2" stroke-linecap="square" stroke-linejoin="bevel"/>
<rect x="236" y="254" width="32" height="32" rx="16" fill="#DE00A4"/>
<path d="M254.502 264.368V276.5H252V266.888L249.336 268.526L248.22 266.798L252.252 264.368H254.502Z" fill="white"/>
<path d="M322.672 254.464C322.672 255.504 322.672 256.536 322.672 257.56C322.688 258.584 322.704 259.6 322.72 260.608H323.512C324.888 260.608 325.968 260.048 326.752 258.928C327.552 257.792 327.952 256.184 327.952 254.104C327.952 251.992 327.552 250.384 326.752 249.28C325.968 248.176 324.896 247.624 323.536 247.624H322.72C322.704 248.616 322.688 249.616 322.672 250.624C322.672 251.632 322.672 252.648 322.672 253.672V254.464ZM316.792 247.528V246.232H323.92C325.632 246.232 327.096 246.552 328.312 247.192C329.528 247.816 330.464 248.712 331.12 249.88C331.776 251.048 332.104 252.448 332.104 254.08C332.104 255.744 331.752 257.168 331.048 258.352C330.344 259.536 329.344 260.44 328.048 261.064C326.768 261.688 325.248 262 323.488 262H316.792V260.704L318.592 260.512C318.624 259.536 318.64 258.544 318.64 257.536C318.64 256.528 318.64 255.512 318.64 254.488V253.672C318.64 252.68 318.64 251.688 318.64 250.696C318.64 249.688 318.624 248.696 318.592 247.72L316.792 247.528ZM333.642 262V260.872L334.938 260.584C334.954 260.008 334.962 259.384 334.962 258.712C334.962 258.04 334.962 257.456 334.962 256.96V255.808C334.962 255.152 334.954 254.608 334.938 254.176C334.938 253.728 334.922 253.264 334.89 252.784L333.402 252.568V251.632L338.442 250.024L338.85 250.288L338.778 253.768V256.96C338.778 257.456 338.778 258.048 338.778 258.736C338.778 259.408 338.786 260.04 338.802 260.632L340.002 260.872V262H333.642ZM336.834 248.248C336.274 248.248 335.794 248.072 335.394 247.72C334.994 247.352 334.794 246.896 334.794 246.352C334.794 245.792 334.994 245.336 335.394 244.984C335.794 244.616 336.274 244.432 336.834 244.432C337.394 244.432 337.874 244.616 338.274 244.984C338.674 245.336 338.874 245.792 338.874 246.352C338.874 246.896 338.674 247.352 338.274 247.72C337.874 248.072 337.394 248.248 336.834 248.248ZM345.748 262.36C344.676 262.36 343.836 262.104 343.228 261.592C342.62 261.064 342.316 260.208 342.316 259.024C342.316 258.608 342.316 258.224 342.316 257.872C342.332 257.504 342.34 257.088 342.34 256.624V252.04H340.78V250.624L342.556 250.384L343.756 247.024H346.204L346.156 250.408H348.676V252.04H346.156V258.76C346.156 259.32 346.268 259.736 346.492 260.008C346.732 260.264 347.028 260.392 347.38 260.392C347.796 260.392 348.228 260.216 348.676 259.864L349.276 260.44C348.956 261.048 348.508 261.52 347.932 261.856C347.372 262.192 346.644 262.36 345.748 262.36ZM354.97 262V260.872L356.266 260.584C356.282 260.008 356.29 259.384 356.29 258.712C356.29 258.04 356.29 257.456 356.29 256.96V255.808C356.29 255.152 356.282 254.608 356.266 254.176C356.266 253.728 356.25 253.264 356.218 252.784L354.73 252.568V251.632L359.77 250.024L360.178 250.288L360.106 253.768V256.96C360.106 257.456 360.106 258.048 360.106 258.736C360.106 259.408 360.114 260.04 360.13 260.632L361.33 260.872V262H354.97ZM358.162 248.248C357.602 248.248 357.122 248.072 356.722 247.72C356.322 247.352 356.122 246.896 356.122 246.352C356.122 245.792 356.322 245.336 356.722 244.984C357.122 244.616 357.602 244.432 358.162 244.432C358.722 244.432 359.202 244.616 359.602 244.984C360.002 245.336 360.202 245.792 360.202 246.352C360.202 246.896 360.002 247.352 359.602 247.72C359.202 248.072 358.722 248.248 358.162 248.248ZM366.74 262.36C365.22 262.36 363.828 261.992 362.564 261.256L362.636 258.328H364.556L364.964 260.704C365.252 260.816 365.54 260.904 365.828 260.968C366.116 261.016 366.428 261.04 366.764 261.04C367.452 261.04 367.98 260.928 368.348 260.704C368.716 260.464 368.9 260.104 368.9 259.624C368.9 259.256 368.764 258.936 368.492 258.664C368.22 258.392 367.684 258.144 366.884 257.92L365.588 257.536C364.66 257.264 363.94 256.824 363.428 256.216C362.932 255.608 362.684 254.856 362.684 253.96C362.684 252.856 363.116 251.928 363.98 251.176C364.844 250.408 366.084 250.024 367.7 250.024C368.404 250.024 369.052 250.112 369.644 250.288C370.252 250.448 370.868 250.688 371.492 251.008L371.324 253.624H369.404L368.924 251.56C368.588 251.432 368.148 251.368 367.604 251.368C367.06 251.368 366.62 251.48 366.284 251.704C365.964 251.928 365.804 252.264 365.804 252.712C365.804 253.032 365.932 253.32 366.188 253.576C366.444 253.816 366.988 254.064 367.82 254.32L368.996 254.656C370.132 254.992 370.948 255.472 371.444 256.096C371.94 256.72 372.188 257.48 372.188 258.376C372.188 259.64 371.7 260.624 370.724 261.328C369.764 262.016 368.436 262.36 366.74 262.36ZM384.522 251.272C384.074 251.272 383.658 251.552 383.274 252.112C382.906 252.656 382.698 253.664 382.65 255.136H384.69C385.266 255.136 385.65 255.024 385.842 254.8C386.05 254.56 386.154 254.168 386.154 253.624C386.154 252.824 385.994 252.232 385.674 251.848C385.354 251.464 384.97 251.272 384.522 251.272ZM384.57 262.36C383.402 262.36 382.37 262.12 381.474 261.64C380.578 261.144 379.874 260.44 379.362 259.528C378.85 258.6 378.594 257.496 378.594 256.216C378.594 254.872 378.89 253.744 379.482 252.832C380.09 251.904 380.866 251.208 381.81 250.744C382.754 250.264 383.738 250.024 384.762 250.024C385.818 250.024 386.714 250.248 387.45 250.696C388.202 251.144 388.77 251.752 389.154 252.52C389.538 253.272 389.73 254.136 389.73 255.112C389.73 255.576 389.682 256 389.586 256.384H382.65C382.73 257.648 383.074 258.584 383.682 259.192C384.306 259.784 385.034 260.08 385.866 260.08C386.522 260.08 387.082 259.96 387.546 259.72C388.01 259.464 388.418 259.152 388.77 258.784L389.61 259.552C389.114 260.496 388.442 261.2 387.594 261.664C386.746 262.128 385.738 262.36 384.57 262.36ZM397.038 251.272C396.59 251.272 396.174 251.552 395.79 252.112C395.422 252.656 395.214 253.664 395.166 255.136H397.206C397.782 255.136 398.166 255.024 398.358 254.8C398.566 254.56 398.67 254.168 398.67 253.624C398.67 252.824 398.51 252.232 398.19 251.848C397.87 251.464 397.486 251.272 397.038 251.272ZM397.086 262.36C395.918 262.36 394.886 262.12 393.99 261.64C393.094 261.144 392.39 260.44 391.878 259.528C391.366 258.6 391.11 257.496 391.11 256.216C391.11 254.872 391.406 253.744 391.998 252.832C392.606 251.904 393.382 251.208 394.326 250.744C395.27 250.264 396.254 250.024 397.278 250.024C398.334 250.024 399.23 250.248 399.966 250.696C400.718 251.144 401.286 251.752 401.67 252.52C402.054 253.272 402.246 254.136 402.246 255.112C402.246 255.576 402.198 256 402.102 256.384H395.166C395.246 257.648 395.59 258.584 396.198 259.192C396.822 259.784 397.55 260.08 398.382 260.08C399.038 260.08 399.598 259.96 400.062 259.72C400.526 259.464 400.934 259.152 401.286 258.784L402.126 259.552C401.63 260.496 400.958 261.2 400.11 261.664C399.262 262.128 398.254 262.36 397.086 262.36ZM403.602 262V260.872L404.898 260.584C404.914 260.008 404.922 259.384 404.922 258.712C404.922 258.04 404.922 257.456 404.922 256.96V255.568C404.922 254.912 404.914 254.408 404.898 254.056C404.898 253.688 404.882 253.264 404.85 252.784L403.386 252.568V251.632L408.114 250.024L408.546 250.288L408.69 252.016C409.314 251.28 409.93 250.768 410.538 250.48C411.162 250.176 411.826 250.024 412.53 250.024C413.57 250.024 414.402 250.368 415.026 251.056C415.666 251.744 415.986 252.776 415.986 254.152V256.96C415.986 257.488 415.986 258.088 415.986 258.76C415.986 259.416 415.994 260.04 416.01 260.632L417.21 260.872V262H410.874V260.872L412.122 260.608C412.138 260.016 412.146 259.392 412.146 258.736C412.146 258.064 412.146 257.472 412.146 256.96V254.44C412.146 253.672 412.042 253.136 411.834 252.832C411.626 252.512 411.29 252.352 410.826 252.352C410.202 252.352 409.514 252.64 408.762 253.216V256.96C408.762 257.456 408.762 258.048 408.762 258.736C408.762 259.408 408.77 260.04 408.786 260.632L409.914 260.872V262H403.602ZM430.82 251.464V250.408H435.356V251.464L433.964 251.728L430.004 262.048H428.18L423.86 251.704L422.684 251.464V250.408H429.5V251.464L427.988 251.776L430.244 257.92L432.332 251.752L430.82 251.464ZM441.644 262.36C440.396 262.36 439.316 262.104 438.404 261.592C437.492 261.064 436.788 260.336 436.292 259.408C435.796 258.464 435.548 257.376 435.548 256.144C435.548 254.912 435.812 253.84 436.34 252.928C436.884 252.016 437.62 251.304 438.548 250.792C439.476 250.28 440.508 250.024 441.644 250.024C442.78 250.024 443.804 250.272 444.716 250.768C445.644 251.264 446.38 251.976 446.924 252.904C447.468 253.816 447.74 254.896 447.74 256.144C447.74 257.392 447.492 258.48 446.996 259.408C446.5 260.336 445.796 261.064 444.884 261.592C443.972 262.104 442.892 262.36 441.644 262.36ZM441.644 261.112C442.316 261.112 442.82 260.72 443.156 259.936C443.492 259.152 443.66 257.912 443.66 256.216C443.66 254.504 443.492 253.256 443.156 252.472C442.82 251.688 442.316 251.296 441.644 251.296C440.956 251.296 440.444 251.688 440.108 252.472C439.772 253.256 439.604 254.504 439.604 256.216C439.604 257.912 439.772 259.152 440.108 259.936C440.444 260.72 440.956 261.112 441.644 261.112ZM455.378 262.36C454.13 262.36 453.05 262.104 452.138 261.592C451.226 261.064 450.522 260.336 450.026 259.408C449.53 258.464 449.282 257.376 449.282 256.144C449.282 254.912 449.546 253.84 450.074 252.928C450.618 252.016 451.354 251.304 452.282 250.792C453.21 250.28 454.242 250.024 455.378 250.024C456.514 250.024 457.538 250.272 458.45 250.768C459.378 251.264 460.114 251.976 460.658 252.904C461.202 253.816 461.474 254.896 461.474 256.144C461.474 257.392 461.226 258.48 460.73 259.408C460.234 260.336 459.53 261.064 458.618 261.592C457.706 262.104 456.626 262.36 455.378 262.36ZM455.378 261.112C456.05 261.112 456.554 260.72 456.89 259.936C457.226 259.152 457.394 257.912 457.394 256.216C457.394 254.504 457.226 253.256 456.89 252.472C456.554 251.688 456.05 251.296 455.378 251.296C454.69 251.296 454.178 251.688 453.842 252.472C453.506 253.256 453.338 254.504 453.338 256.216C453.338 257.912 453.506 259.152 453.842 259.936C454.178 260.72 454.69 261.112 455.378 261.112ZM462.804 262V260.872L464.124 260.608C464.14 260.016 464.148 259.384 464.148 258.712C464.148 258.04 464.148 257.456 464.148 256.96V255.544C464.148 255.096 464.14 254.728 464.124 254.44C464.124 254.152 464.116 253.888 464.1 253.648C464.1 253.392 464.092 253.104 464.076 252.784L462.612 252.568V251.632L467.34 250.024L467.772 250.288L467.988 253.12C468.324 252.096 468.796 251.328 469.404 250.816C470.012 250.288 470.612 250.024 471.204 250.024C471.732 250.024 472.188 250.176 472.572 250.48C472.956 250.768 473.196 251.208 473.292 251.8C473.276 252.424 473.108 252.912 472.788 253.264C472.468 253.6 472.068 253.768 471.588 253.768C470.916 253.768 470.3 253.392 469.74 252.64L469.596 252.448C469.244 252.784 468.916 253.208 468.612 253.72C468.324 254.232 468.116 254.768 467.988 255.328V256.96C467.988 257.456 467.988 258.024 467.988 258.664C467.988 259.304 467.996 259.904 468.012 260.464L469.908 260.872V262H462.804ZM473.423 262.024V260.896L474.695 260.632C474.711 260.056 474.719 259.432 474.719 258.76C474.719 258.072 474.719 257.48 474.719 256.984V246.856L473.231 246.664V245.656L478.199 244.576L478.583 244.816L478.487 248.176V251.56C479.495 250.536 480.655 250.024 481.967 250.024C482.847 250.024 483.639 250.256 484.343 250.72C485.047 251.168 485.607 251.848 486.023 252.76C486.455 253.656 486.671 254.768 486.671 256.096C486.671 257.392 486.431 258.512 485.951 259.456C485.471 260.384 484.839 261.104 484.055 261.616C483.287 262.112 482.447 262.36 481.535 262.36C480.223 262.36 479.167 261.888 478.367 260.944L477.959 262.336L473.423 262.024ZM480.215 252.112C479.911 252.112 479.623 252.176 479.351 252.304C479.079 252.432 478.815 252.6 478.559 252.808V259.672C479.055 260.12 479.599 260.344 480.191 260.344C480.895 260.344 481.471 260 481.919 259.312C482.383 258.624 482.615 257.576 482.615 256.168C482.615 254.744 482.391 253.712 481.943 253.072C481.511 252.432 480.935 252.112 480.215 252.112ZM494.163 251.272C493.715 251.272 493.299 251.552 492.915 252.112C492.547 252.656 492.339 253.664 492.291 255.136H494.331C494.907 255.136 495.291 255.024 495.483 254.8C495.691 254.56 495.795 254.168 495.795 253.624C495.795 252.824 495.635 252.232 495.315 251.848C494.995 251.464 494.611 251.272 494.163 251.272ZM494.211 262.36C493.043 262.36 492.011 262.12 491.115 261.64C490.219 261.144 489.515 260.44 489.003 259.528C488.491 258.6 488.235 257.496 488.235 256.216C488.235 254.872 488.531 253.744 489.123 252.832C489.731 251.904 490.507 251.208 491.451 250.744C492.395 250.264 493.379 250.024 494.403 250.024C495.459 250.024 496.355 250.248 497.091 250.696C497.843 251.144 498.411 251.752 498.795 252.52C499.179 253.272 499.371 254.136 499.371 255.112C499.371 255.576 499.323 256 499.227 256.384H492.291C492.371 257.648 492.715 258.584 493.323 259.192C493.947 259.784 494.675 260.08 495.507 260.08C496.163 260.08 496.723 259.96 497.187 259.72C497.651 259.464 498.059 259.152 498.411 258.784L499.251 259.552C498.755 260.496 498.083 261.2 497.235 261.664C496.387 262.128 495.379 262.36 494.211 262.36ZM506.679 251.272C506.231 251.272 505.815 251.552 505.431 252.112C505.063 252.656 504.855 253.664 504.807 255.136H506.847C507.423 255.136 507.807 255.024 507.999 254.8C508.207 254.56 508.311 254.168 508.311 253.624C508.311 252.824 508.151 252.232 507.831 251.848C507.511 251.464 507.127 251.272 506.679 251.272ZM506.727 262.36C505.559 262.36 504.527 262.12 503.631 261.64C502.735 261.144 502.031 260.44 501.519 259.528C501.007 258.6 500.751 257.496 500.751 256.216C500.751 254.872 501.047 253.744 501.639 252.832C502.247 251.904 503.023 251.208 503.967 250.744C504.911 250.264 505.895 250.024 506.919 250.024C507.975 250.024 508.871 250.248 509.607 250.696C510.359 251.144 510.927 251.752 511.311 252.52C511.695 253.272 511.887 254.136 511.887 255.112C511.887 255.576 511.839 256 511.743 256.384H504.807C504.887 257.648 505.231 258.584 505.839 259.192C506.463 259.784 507.191 260.08 508.023 260.08C508.679 260.08 509.239 259.96 509.703 259.72C510.167 259.464 510.575 259.152 510.927 258.784L511.767 259.552C511.271 260.496 510.599 261.2 509.751 261.664C508.903 262.128 507.895 262.36 506.727 262.36ZM512.796 262V260.872L514.116 260.584C514.132 259.976 514.14 259.368 514.14 258.76C514.156 258.152 514.164 257.552 514.164 256.96V246.904L512.676 246.664V245.656L517.716 244.576L518.1 244.816L518.004 248.176V256.96C518.004 257.568 518.004 258.176 518.004 258.784C518.02 259.392 518.036 260 518.052 260.608L519.372 260.872V262H512.796ZM524.682 256.264C524.682 257.576 524.914 258.576 525.378 259.264C525.842 259.936 526.442 260.272 527.178 260.272C527.722 260.272 528.218 260.088 528.666 259.72V252.568C528.234 252.232 527.762 252.064 527.25 252.064C526.514 252.064 525.898 252.408 525.402 253.096C524.922 253.784 524.682 254.84 524.682 256.264ZM528.978 262.264L528.786 260.896C527.858 261.872 526.73 262.36 525.402 262.36C524.506 262.36 523.69 262.128 522.954 261.664C522.234 261.2 521.666 260.52 521.25 259.624C520.834 258.712 520.626 257.608 520.626 256.312C520.626 255 520.874 253.88 521.37 252.952C521.882 252.008 522.538 251.288 523.338 250.792C524.154 250.28 525.01 250.024 525.906 250.024C526.53 250.024 527.074 250.136 527.538 250.36C528.002 250.568 528.426 250.88 528.81 251.296V246.904L527.13 246.664V245.656L532.194 244.576L532.578 244.816L532.482 248.176V260.632L533.658 260.872V262L528.978 262.264ZM547.281 251.464V250.408H551.817V251.464L550.425 251.728L546.465 262.048H544.641L540.321 251.704L539.144 251.464V250.408H545.961V251.464L544.449 251.776L546.705 257.92L548.793 251.752L547.281 251.464ZM561.296 262.336C559.904 262.336 559.024 261.76 558.656 260.608C558.144 261.152 557.648 261.584 557.168 261.904C556.704 262.208 556.056 262.36 555.224 262.36C554.296 262.36 553.536 262.096 552.944 261.568C552.368 261.04 552.08 260.28 552.08 259.288C552.08 258.712 552.208 258.192 552.464 257.728C552.72 257.264 553.184 256.832 553.856 256.432C554.528 256.032 555.48 255.656 556.712 255.304C556.952 255.224 557.232 255.144 557.552 255.064C557.872 254.984 558.2 254.904 558.536 254.824V254.032C558.536 252.96 558.4 252.232 558.128 251.848C557.872 251.464 557.36 251.272 556.592 251.272C556.48 251.272 556.376 251.272 556.28 251.272C556.184 251.272 556.072 251.28 555.944 251.296L555.824 252.352C555.808 253.136 555.624 253.704 555.272 254.056C554.936 254.408 554.536 254.584 554.072 254.584C553.192 254.584 552.656 254.184 552.464 253.384C552.528 252.392 553.032 251.584 553.976 250.96C554.92 250.336 556.256 250.024 557.984 250.024C559.52 250.024 560.616 250.376 561.272 251.08C561.944 251.784 562.28 252.944 562.28 254.56V259.936C562.28 260.4 562.456 260.632 562.808 260.632C562.936 260.632 563.056 260.6 563.168 260.536C563.28 260.456 563.4 260.312 563.528 260.104L564.176 260.536C563.888 261.176 563.512 261.64 563.048 261.928C562.6 262.2 562.016 262.336 561.296 262.336ZM555.632 258.664C555.632 259.256 555.768 259.696 556.04 259.984C556.328 260.272 556.672 260.416 557.072 260.416C557.248 260.416 557.432 260.376 557.624 260.296C557.816 260.216 558.12 260.032 558.536 259.744V255.856C558.328 255.92 558.12 255.992 557.912 256.072C557.72 256.136 557.552 256.2 557.408 256.264C556.864 256.488 556.432 256.808 556.112 257.224C555.792 257.624 555.632 258.104 555.632 258.664ZM564.758 262V260.872L566.054 260.584C566.07 260.008 566.078 259.384 566.078 258.712C566.078 258.04 566.078 257.456 566.078 256.96V255.568C566.078 254.912 566.07 254.408 566.054 254.056C566.054 253.688 566.038 253.264 566.006 252.784L564.542 252.568V251.632L569.27 250.024L569.702 250.288L569.846 252.016C570.47 251.28 571.086 250.768 571.694 250.48C572.318 250.176 572.982 250.024 573.686 250.024C574.726 250.024 575.558 250.368 576.182 251.056C576.822 251.744 577.142 252.776 577.142 254.152V256.96C577.142 257.488 577.142 258.088 577.142 258.76C577.142 259.416 577.15 260.04 577.166 260.632L578.366 260.872V262H572.03V260.872L573.278 260.608C573.294 260.016 573.302 259.392 573.302 258.736C573.302 258.064 573.302 257.472 573.302 256.96V254.44C573.302 253.672 573.198 253.136 572.99 252.832C572.782 252.512 572.446 252.352 571.982 252.352C571.358 252.352 570.67 252.64 569.918 253.216V256.96C569.918 257.456 569.918 258.048 569.918 258.736C569.918 259.408 569.926 260.04 569.942 260.632L571.07 260.872V262H564.758ZM590.632 251.272C590.184 251.272 589.768 251.552 589.384 252.112C589.016 252.656 588.808 253.664 588.76 255.136H590.8C591.376 255.136 591.76 255.024 591.952 254.8C592.16 254.56 592.264 254.168 592.264 253.624C592.264 252.824 592.104 252.232 591.784 251.848C591.464 251.464 591.08 251.272 590.632 251.272ZM590.68 262.36C589.512 262.36 588.48 262.12 587.584 261.64C586.688 261.144 585.984 260.44 585.472 259.528C584.96 258.6 584.704 257.496 584.704 256.216C584.704 254.872 585 253.744 585.592 252.832C586.2 251.904 586.976 251.208 587.92 250.744C588.864 250.264 589.848 250.024 590.872 250.024C591.928 250.024 592.824 250.248 593.56 250.696C594.312 251.144 594.88 251.752 595.264 252.52C595.648 253.272 595.84 254.136 595.84 255.112C595.84 255.576 595.792 256 595.696 256.384H588.76C588.84 257.648 589.184 258.584 589.792 259.192C590.416 259.784 591.144 260.08 591.976 260.08C592.632 260.08 593.192 259.96 593.656 259.72C594.12 259.464 594.528 259.152 594.88 258.784L595.72 259.552C595.224 260.496 594.552 261.2 593.704 261.664C592.856 262.128 591.848 262.36 590.68 262.36ZM603.147 251.272C602.699 251.272 602.283 251.552 601.899 252.112C601.531 252.656 601.323 253.664 601.275 255.136H603.315C603.891 255.136 604.275 255.024 604.467 254.8C604.675 254.56 604.779 254.168 604.779 253.624C604.779 252.824 604.619 252.232 604.299 251.848C603.979 251.464 603.595 251.272 603.147 251.272ZM603.195 262.36C602.027 262.36 600.995 262.12 600.099 261.64C599.203 261.144 598.499 260.44 597.987 259.528C597.475 258.6 597.219 257.496 597.219 256.216C597.219 254.872 597.515 253.744 598.107 252.832C598.715 251.904 599.491 251.208 600.435 250.744C601.379 250.264 602.363 250.024 603.387 250.024C604.443 250.024 605.339 250.248 606.075 250.696C606.827 251.144 607.395 251.752 607.779 252.52C608.163 253.272 608.355 254.136 608.355 255.112C608.355 255.576 608.307 256 608.211 256.384H601.275C601.355 257.648 601.699 258.584 602.307 259.192C602.931 259.784 603.659 260.08 604.491 260.08C605.147 260.08 605.707 259.96 606.171 259.72C606.635 259.464 607.043 259.152 607.395 258.784L608.235 259.552C607.739 260.496 607.067 261.2 606.219 261.664C605.371 262.128 604.363 262.36 603.195 262.36ZM609.711 262V260.872L611.007 260.584C611.023 260.008 611.031 259.384 611.031 258.712C611.031 258.04 611.031 257.456 611.031 256.96V255.568C611.031 254.912 611.023 254.408 611.007 254.056C611.007 253.688 610.991 253.264 610.959 252.784L609.495 252.568V251.632L614.223 250.024L614.655 250.288L614.799 252.016C615.423 251.28 616.039 250.768 616.647 250.48C617.271 250.176 617.935 250.024 618.639 250.024C619.679 250.024 620.511 250.368 621.135 251.056C621.775 251.744 622.095 252.776 622.095 254.152V256.96C622.095 257.488 622.095 258.088 622.095 258.76C622.095 259.416 622.103 260.04 622.119 260.632L623.319 260.872V262H616.983V260.872L618.231 260.608C618.247 260.016 618.255 259.392 618.255 258.736C618.255 258.064 618.255 257.472 618.255 256.96V254.44C618.255 253.672 618.151 253.136 617.943 252.832C617.735 252.512 617.399 252.352 616.935 252.352C616.311 252.352 615.623 252.64 614.871 253.216V256.96C614.871 257.456 614.871 258.048 614.871 258.736C614.871 259.408 614.879 260.04 614.895 260.632L616.023 260.872V262H609.711ZM316.672 292V290.872L317.968 290.584C317.984 290.008 317.992 289.384 317.992 288.712C317.992 288.04 317.992 287.456 317.992 286.96V276.904L316.504 276.664V275.656L321.472 274.576L321.856 274.816L321.76 278.176V282.04C322.4 281.288 323.016 280.768 323.608 280.48C324.216 280.176 324.872 280.024 325.576 280.024C326.632 280.024 327.48 280.368 328.12 281.056C328.76 281.744 329.08 282.776 329.08 284.152V286.96C329.08 287.488 329.08 288.088 329.08 288.76C329.08 289.416 329.088 290.04 329.104 290.632L330.304 290.872V292H323.992V290.872L325.24 290.608C325.256 290.016 325.264 289.392 325.264 288.736C325.264 288.064 325.264 287.472 325.264 286.96V284.44C325.264 283.656 325.168 283.112 324.976 282.808C324.8 282.504 324.464 282.352 323.968 282.352C323.648 282.352 323.304 282.448 322.936 282.64C322.568 282.832 322.2 283.104 321.832 283.456V286.96C321.832 287.456 321.832 288.048 321.832 288.736C321.832 289.408 321.84 290.04 321.856 290.632L322.984 290.872V292H316.672ZM337.437 281.272C336.989 281.272 336.573 281.552 336.189 282.112C335.821 282.656 335.613 283.664 335.565 285.136H337.605C338.181 285.136 338.565 285.024 338.757 284.8C338.965 284.56 339.069 284.168 339.069 283.624C339.069 282.824 338.909 282.232 338.589 281.848C338.269 281.464 337.885 281.272 337.437 281.272ZM337.485 292.36C336.317 292.36 335.285 292.12 334.389 291.64C333.493 291.144 332.789 290.44 332.277 289.528C331.765 288.6 331.509 287.496 331.509 286.216C331.509 284.872 331.805 283.744 332.396 282.832C333.005 281.904 333.781 281.208 334.725 280.744C335.669 280.264 336.653 280.024 337.677 280.024C338.733 280.024 339.629 280.248 340.365 280.696C341.117 281.144 341.685 281.752 342.069 282.52C342.453 283.272 342.645 284.136 342.645 285.112C342.645 285.576 342.597 286 342.501 286.384H335.565C335.645 287.648 335.989 288.584 336.597 289.192C337.221 289.784 337.949 290.08 338.781 290.08C339.437 290.08 339.997 289.96 340.461 289.72C340.925 289.464 341.333 289.152 341.685 288.784L342.525 289.552C342.029 290.496 341.357 291.2 340.509 291.664C339.661 292.128 338.653 292.36 337.485 292.36ZM353.218 292.336C351.826 292.336 350.946 291.76 350.578 290.608C350.066 291.152 349.57 291.584 349.09 291.904C348.626 292.208 347.978 292.36 347.146 292.36C346.218 292.36 345.458 292.096 344.866 291.568C344.29 291.04 344.002 290.28 344.002 289.288C344.002 288.712 344.13 288.192 344.386 287.728C344.642 287.264 345.106 286.832 345.778 286.432C346.45 286.032 347.402 285.656 348.634 285.304C348.874 285.224 349.154 285.144 349.474 285.064C349.794 284.984 350.122 284.904 350.458 284.824V284.032C350.458 282.96 350.322 282.232 350.05 281.848C349.794 281.464 349.282 281.272 348.514 281.272C348.402 281.272 348.298 281.272 348.202 281.272C348.106 281.272 347.994 281.28 347.866 281.296L347.746 282.352C347.73 283.136 347.546 283.704 347.194 284.056C346.858 284.408 346.458 284.584 345.994 284.584C345.114 284.584 344.578 284.184 344.386 283.384C344.45 282.392 344.954 281.584 345.898 280.96C346.842 280.336 348.178 280.024 349.906 280.024C351.442 280.024 352.538 280.376 353.194 281.08C353.866 281.784 354.202 282.944 354.202 284.56V289.936C354.202 290.4 354.378 290.632 354.73 290.632C354.858 290.632 354.978 290.6 355.09 290.536C355.202 290.456 355.322 290.312 355.45 290.104L356.098 290.536C355.81 291.176 355.434 291.64 354.97 291.928C354.522 292.2 353.938 292.336 353.218 292.336ZM347.554 288.664C347.554 289.256 347.69 289.696 347.962 289.984C348.25 290.272 348.594 290.416 348.994 290.416C349.17 290.416 349.354 290.376 349.546 290.296C349.738 290.216 350.042 290.032 350.458 289.744V285.856C350.25 285.92 350.042 285.992 349.834 286.072C349.642 286.136 349.474 286.2 349.33 286.264C348.786 286.488 348.354 286.808 348.034 287.224C347.714 287.624 347.554 288.104 347.554 288.664ZM360.76 286.264C360.76 287.576 360.992 288.576 361.456 289.264C361.92 289.936 362.52 290.272 363.256 290.272C363.8 290.272 364.296 290.088 364.744 289.72V282.568C364.312 282.232 363.84 282.064 363.328 282.064C362.592 282.064 361.976 282.408 361.48 283.096C361 283.784 360.76 284.84 360.76 286.264ZM365.056 292.264L364.864 290.896C363.936 291.872 362.808 292.36 361.48 292.36C360.584 292.36 359.768 292.128 359.032 291.664C358.312 291.2 357.744 290.52 357.328 289.624C356.912 288.712 356.704 287.608 356.704 286.312C356.704 285 356.952 283.88 357.448 282.952C357.96 282.008 358.616 281.288 359.416 280.792C360.232 280.28 361.088 280.024 361.984 280.024C362.608 280.024 363.152 280.136 363.616 280.36C364.08 280.568 364.504 280.88 364.888 281.296V276.904L363.208 276.664V275.656L368.272 274.576L368.656 274.816L368.56 278.176V290.632L369.736 290.872V292L365.056 292.264ZM370.978 292V290.872L372.274 290.584C372.29 290.008 372.298 289.384 372.298 288.712C372.298 288.04 372.298 287.456 372.298 286.96V285.808C372.298 285.152 372.29 284.608 372.274 284.176C372.274 283.728 372.258 283.264 372.226 282.784L370.738 282.568V281.632L375.778 280.024L376.186 280.288L376.114 283.768V286.96C376.114 287.456 376.114 288.048 376.114 288.736C376.114 289.408 376.122 290.04 376.138 290.632L377.338 290.872V292H370.978ZM374.17 278.248C373.61 278.248 373.13 278.072 372.73 277.72C372.33 277.352 372.13 276.896 372.13 276.352C372.13 275.792 372.33 275.336 372.73 274.984C373.13 274.616 373.61 274.432 374.17 274.432C374.73 274.432 375.21 274.616 375.61 274.984C376.01 275.336 376.21 275.792 376.21 276.352C376.21 276.896 376.01 277.352 375.61 277.72C375.21 278.072 374.73 278.248 374.17 278.248ZM378.524 292V290.872L379.82 290.584C379.836 290.008 379.844 289.384 379.844 288.712C379.844 288.04 379.844 287.456 379.844 286.96V285.568C379.844 284.912 379.836 284.408 379.82 284.056C379.82 283.688 379.804 283.264 379.772 282.784L378.308 282.568V281.632L383.036 280.024L383.468 280.288L383.612 282.016C384.236 281.28 384.852 280.768 385.46 280.48C386.084 280.176 386.748 280.024 387.452 280.024C388.492 280.024 389.324 280.368 389.948 281.056C390.588 281.744 390.908 282.776 390.908 284.152V286.96C390.908 287.488 390.908 288.088 390.908 288.76C390.908 289.416 390.916 290.04 390.932 290.632L392.132 290.872V292H385.796V290.872L387.044 290.608C387.06 290.016 387.068 289.392 387.068 288.736C387.068 288.064 387.068 287.472 387.068 286.96V284.44C387.068 283.672 386.964 283.136 386.756 282.832C386.548 282.512 386.212 282.352 385.748 282.352C385.124 282.352 384.436 282.64 383.684 283.216V286.96C383.684 287.456 383.684 288.048 383.684 288.736C383.684 289.408 383.692 290.04 383.708 290.632L384.836 290.872V292H378.524ZM398.521 286.624C399.081 286.624 399.497 286.376 399.769 285.88C400.057 285.384 400.201 284.712 400.201 283.864C400.201 283.016 400.057 282.36 399.769 281.896C399.497 281.416 399.097 281.176 398.569 281.176C398.025 281.176 397.617 281.416 397.345 281.896C397.073 282.376 396.937 283.04 396.937 283.888C396.937 284.736 397.065 285.408 397.321 285.904C397.577 286.384 397.977 286.624 398.521 286.624ZM395.329 293.992C395.329 294.696 395.593 295.208 396.121 295.528C396.649 295.864 397.457 296.032 398.545 296.032C399.745 296.032 400.649 295.856 401.257 295.504C401.865 295.152 402.169 294.712 402.169 294.184C402.169 293.832 402.041 293.512 401.785 293.224C401.529 292.952 401.073 292.816 400.417 292.816H397.897C397.017 292.816 396.289 292.744 395.713 292.6C395.585 292.824 395.489 293.04 395.425 293.248C395.361 293.456 395.329 293.704 395.329 293.992ZM398.545 287.752C397.713 287.752 396.985 287.656 396.361 287.464C396.169 287.8 396.073 288.168 396.073 288.568C396.073 288.84 396.177 289.064 396.385 289.24C396.593 289.4 396.953 289.48 397.465 289.48H400.273C401.489 289.48 402.457 289.632 403.177 289.936C403.897 290.224 404.409 290.632 404.713 291.16C405.033 291.672 405.193 292.28 405.193 292.984C405.193 293.784 404.929 294.52 404.401 295.192C403.873 295.88 403.081 296.424 402.025 296.824C400.985 297.24 399.697 297.448 398.161 297.448C396.833 297.448 395.793 297.312 395.041 297.04C394.289 296.784 393.761 296.44 393.457 296.008C393.153 295.576 393.001 295.12 393.001 294.64C393.001 293.616 393.665 292.792 394.993 292.168C394.497 291.96 394.137 291.688 393.913 291.352C393.705 291.016 393.601 290.648 393.601 290.248C393.601 289.688 393.761 289.16 394.081 288.664C394.417 288.152 394.881 287.64 395.473 287.128C394.817 286.792 394.329 286.344 394.009 285.784C393.689 285.224 393.529 284.6 393.529 283.912C393.529 282.792 393.937 281.864 394.753 281.128C395.585 280.392 396.849 280.024 398.545 280.024C399.409 280.024 400.161 280.12 400.801 280.312C401.441 280.504 401.961 280.776 402.361 281.128L405.049 279.976L405.433 280.216V282.064H403.153C403.441 282.592 403.585 283.208 403.585 283.912C403.585 284.984 403.169 285.896 402.337 286.648C401.521 287.384 400.257 287.752 398.545 287.752Z" fill="#0A2750"/>
</svg>
