<svg width="960" height="540" viewBox="0 0 960 540" fill="none" xmlns="http://www.w3.org/2000/svg">
  <title id="heading-5-anatomy-title">Samensteling van het Heading 5 component</title>
  <desc id="heading-5-anatomy-desc">Een tekst, in bold. De hele tekst is aangeduid met het cijfer 1. De tekst: “Dit is een voorbeeld van een heading.”.</desc>
  <rect x="0.5" y="0.5" width="959" height="539" fill="white" />
  <rect x="0.5" y="0.5" width="959" height="539" stroke="#CCCCCC" />
  <path d="M307.762 258L307.762 282" stroke="#DE00A4" stroke-width="2" stroke-linecap="square" />
  <path d="M268 270L307 270" stroke="#DE00A4" stroke-width="2" stroke-linecap="square"
    stroke-linejoin="bevel" />
  <rect x="236" y="254" width="32" height="32" rx="16" fill="#DE00A4" />
  <path
    d="M254.502 264.368V276.5H252V266.888L249.336 268.526L248.22 266.798L252.252 264.368H254.502Z"
    fill="white" />
  <path
    d="M320.448 269.976C320.448 270.669 320.448 271.357 320.448 272.04C320.459 272.723 320.469 273.4 320.48 274.072H321.008C321.925 274.072 322.645 273.699 323.168 272.952C323.701 272.195 323.968 271.123 323.968 269.736C323.968 268.328 323.701 267.256 323.168 266.52C322.645 265.784 321.931 265.416 321.024 265.416H320.48C320.469 266.077 320.459 266.744 320.448 267.416C320.448 268.088 320.448 268.765 320.448 269.448V269.976ZM316.528 265.352V264.488H321.28C322.421 264.488 323.397 264.701 324.208 265.128C325.019 265.544 325.643 266.141 326.08 266.92C326.517 267.699 326.736 268.632 326.736 269.72C326.736 270.829 326.501 271.779 326.032 272.568C325.563 273.357 324.896 273.96 324.032 274.376C323.179 274.792 322.165 275 320.992 275H316.528V274.136L317.728 274.008C317.749 273.357 317.76 272.696 317.76 272.024C317.76 271.352 317.76 270.675 317.76 269.992V269.448C317.76 268.787 317.76 268.125 317.76 267.464C317.76 266.792 317.749 266.131 317.728 265.48L316.528 265.352ZM327.761 275V274.248L328.625 274.056C328.636 273.672 328.641 273.256 328.641 272.808C328.641 272.36 328.641 271.971 328.641 271.64V270.872C328.641 270.435 328.636 270.072 328.625 269.784C328.625 269.485 328.615 269.176 328.593 268.856L327.601 268.712V268.088L330.961 267.016L331.233 267.192L331.185 269.512V271.64C331.185 271.971 331.185 272.365 331.185 272.824C331.185 273.272 331.191 273.693 331.201 274.088L332.001 274.248V275H327.761ZM329.889 265.832C329.516 265.832 329.196 265.715 328.929 265.48C328.663 265.235 328.529 264.931 328.529 264.568C328.529 264.195 328.663 263.891 328.929 263.656C329.196 263.411 329.516 263.288 329.889 263.288C330.263 263.288 330.583 263.411 330.849 263.656C331.116 263.891 331.249 264.195 331.249 264.568C331.249 264.931 331.116 265.235 330.849 265.48C330.583 265.715 330.263 265.832 329.889 265.832ZM335.832 275.24C335.117 275.24 334.557 275.069 334.152 274.728C333.746 274.376 333.544 273.805 333.544 273.016C333.544 272.739 333.544 272.483 333.544 272.248C333.554 272.003 333.56 271.725 333.56 271.416V268.36H332.52V267.416L333.704 267.256L334.504 265.016H336.136L336.104 267.272H337.784V268.36H336.104V272.84C336.104 273.213 336.178 273.491 336.328 273.672C336.488 273.843 336.685 273.928 336.92 273.928C337.197 273.928 337.485 273.811 337.784 273.576L338.184 273.96C337.97 274.365 337.672 274.68 337.288 274.904C336.914 275.128 336.429 275.24 335.832 275.24ZM341.98 275V274.248L342.844 274.056C342.855 273.672 342.86 273.256 342.86 272.808C342.86 272.36 342.86 271.971 342.86 271.64V270.872C342.86 270.435 342.855 270.072 342.844 269.784C342.844 269.485 342.833 269.176 342.812 268.856L341.82 268.712V268.088L345.18 267.016L345.452 267.192L345.404 269.512V271.64C345.404 271.971 345.404 272.365 345.404 272.824C345.404 273.272 345.409 273.693 345.42 274.088L346.22 274.248V275H341.98ZM344.108 265.832C343.735 265.832 343.415 265.715 343.148 265.48C342.881 265.235 342.748 264.931 342.748 264.568C342.748 264.195 342.881 263.891 343.148 263.656C343.415 263.411 343.735 263.288 344.108 263.288C344.481 263.288 344.801 263.411 345.068 263.656C345.335 263.891 345.468 264.195 345.468 264.568C345.468 264.931 345.335 265.235 345.068 265.48C344.801 265.715 344.481 265.832 344.108 265.832ZM349.827 275.24C348.813 275.24 347.885 274.995 347.043 274.504L347.09 272.552H348.371L348.643 274.136C348.835 274.211 349.027 274.269 349.219 274.312C349.411 274.344 349.619 274.36 349.843 274.36C350.301 274.36 350.653 274.285 350.899 274.136C351.144 273.976 351.266 273.736 351.266 273.416C351.266 273.171 351.176 272.957 350.995 272.776C350.813 272.595 350.456 272.429 349.923 272.28L349.059 272.024C348.44 271.843 347.96 271.549 347.618 271.144C347.288 270.739 347.123 270.237 347.123 269.64C347.123 268.904 347.411 268.285 347.987 267.784C348.563 267.272 349.389 267.016 350.467 267.016C350.936 267.016 351.368 267.075 351.763 267.192C352.168 267.299 352.579 267.459 352.995 267.672L352.883 269.416H351.603L351.283 268.04C351.059 267.955 350.765 267.912 350.403 267.912C350.04 267.912 349.747 267.987 349.523 268.136C349.309 268.285 349.203 268.509 349.203 268.808C349.203 269.021 349.288 269.213 349.459 269.384C349.629 269.544 349.992 269.709 350.547 269.88L351.331 270.104C352.088 270.328 352.632 270.648 352.963 271.064C353.293 271.48 353.459 271.987 353.459 272.584C353.459 273.427 353.133 274.083 352.483 274.552C351.843 275.011 350.957 275.24 349.827 275.24ZM361.682 267.848C361.383 267.848 361.106 268.035 360.85 268.408C360.604 268.771 360.466 269.443 360.434 270.424H361.794C362.178 270.424 362.434 270.349 362.562 270.2C362.7 270.04 362.77 269.779 362.77 269.416C362.77 268.883 362.663 268.488 362.45 268.232C362.236 267.976 361.98 267.848 361.682 267.848ZM361.714 275.24C360.935 275.24 360.247 275.08 359.65 274.76C359.052 274.429 358.583 273.96 358.242 273.352C357.9 272.733 357.73 271.997 357.73 271.144C357.73 270.248 357.927 269.496 358.322 268.888C358.727 268.269 359.244 267.805 359.874 267.496C360.503 267.176 361.159 267.016 361.842 267.016C362.546 267.016 363.143 267.165 363.634 267.464C364.135 267.763 364.514 268.168 364.77 268.68C365.026 269.181 365.154 269.757 365.154 270.408C365.154 270.717 365.122 271 365.058 271.256H360.434C360.487 272.099 360.716 272.723 361.122 273.128C361.538 273.523 362.023 273.72 362.578 273.72C363.015 273.72 363.388 273.64 363.698 273.48C364.007 273.309 364.279 273.101 364.514 272.856L365.074 273.368C364.743 273.997 364.295 274.467 363.73 274.776C363.164 275.085 362.492 275.24 361.714 275.24ZM370.025 267.848C369.727 267.848 369.449 268.035 369.193 268.408C368.948 268.771 368.809 269.443 368.777 270.424H370.137C370.521 270.424 370.777 270.349 370.905 270.2C371.044 270.04 371.113 269.779 371.113 269.416C371.113 268.883 371.007 268.488 370.793 268.232C370.58 267.976 370.324 267.848 370.025 267.848ZM370.057 275.24C369.279 275.24 368.591 275.08 367.993 274.76C367.396 274.429 366.927 273.96 366.585 273.352C366.244 272.733 366.073 271.997 366.073 271.144C366.073 270.248 366.271 269.496 366.665 268.888C367.071 268.269 367.588 267.805 368.217 267.496C368.847 267.176 369.503 267.016 370.185 267.016C370.889 267.016 371.487 267.165 371.977 267.464C372.479 267.763 372.857 268.168 373.113 268.68C373.369 269.181 373.497 269.757 373.497 270.408C373.497 270.717 373.465 271 373.401 271.256H368.777C368.831 272.099 369.06 272.723 369.465 273.128C369.881 273.523 370.367 273.72 370.921 273.72C371.359 273.72 371.732 273.64 372.041 273.48C372.351 273.309 372.623 273.101 372.857 272.856L373.417 273.368C373.087 273.997 372.639 274.467 372.073 274.776C371.508 275.085 370.836 275.24 370.057 275.24ZM374.401 275V274.248L375.265 274.056C375.276 273.672 375.281 273.256 375.281 272.808C375.281 272.36 375.281 271.971 375.281 271.64V270.712C375.281 270.275 375.276 269.939 375.265 269.704C375.265 269.459 375.254 269.176 375.233 268.856L374.257 268.712V268.088L377.409 267.016L377.697 267.192L377.793 268.344C378.209 267.853 378.62 267.512 379.025 267.32C379.441 267.117 379.884 267.016 380.353 267.016C381.046 267.016 381.601 267.245 382.017 267.704C382.444 268.163 382.657 268.851 382.657 269.768V271.64C382.657 271.992 382.657 272.392 382.657 272.84C382.657 273.277 382.662 273.693 382.673 274.088L383.473 274.248V275H379.249V274.248L380.081 274.072C380.092 273.677 380.097 273.261 380.097 272.824C380.097 272.376 380.097 271.981 380.097 271.64V269.96C380.097 269.448 380.028 269.091 379.889 268.888C379.75 268.675 379.526 268.568 379.217 268.568C378.801 268.568 378.342 268.76 377.841 269.144V271.64C377.841 271.971 377.841 272.365 377.841 272.824C377.841 273.272 377.846 273.693 377.857 274.088L378.609 274.248V275H374.401ZM392.546 267.976V267.272H395.57V267.976L394.642 268.152L392.002 275.032H390.786L387.906 268.136L387.122 267.976V267.272H391.666V267.976L390.658 268.184L392.162 272.28L393.554 268.168L392.546 267.976ZM399.762 275.24C398.93 275.24 398.21 275.069 397.602 274.728C396.994 274.376 396.525 273.891 396.194 273.272C395.864 272.643 395.698 271.917 395.698 271.096C395.698 270.275 395.874 269.56 396.226 268.952C396.589 268.344 397.08 267.869 397.698 267.528C398.317 267.187 399.005 267.016 399.762 267.016C400.52 267.016 401.202 267.181 401.81 267.512C402.429 267.843 402.92 268.317 403.282 268.936C403.645 269.544 403.826 270.264 403.826 271.096C403.826 271.928 403.661 272.653 403.33 273.272C403 273.891 402.53 274.376 401.922 274.728C401.314 275.069 400.594 275.24 399.762 275.24ZM399.762 274.408C400.21 274.408 400.546 274.147 400.77 273.624C400.994 273.101 401.106 272.275 401.106 271.144C401.106 270.003 400.994 269.171 400.77 268.648C400.546 268.125 400.21 267.864 399.762 267.864C399.304 267.864 398.962 268.125 398.738 268.648C398.514 269.171 398.402 270.003 398.402 271.144C398.402 272.275 398.514 273.101 398.738 273.624C398.962 274.147 399.304 274.408 399.762 274.408ZM408.919 275.24C408.087 275.24 407.367 275.069 406.759 274.728C406.151 274.376 405.681 273.891 405.351 273.272C405.02 272.643 404.855 271.917 404.855 271.096C404.855 270.275 405.031 269.56 405.383 268.952C405.745 268.344 406.236 267.869 406.855 267.528C407.473 267.187 408.161 267.016 408.919 267.016C409.676 267.016 410.359 267.181 410.967 267.512C411.585 267.843 412.076 268.317 412.439 268.936C412.801 269.544 412.983 270.264 412.983 271.096C412.983 271.928 412.817 272.653 412.487 273.272C412.156 273.891 411.687 274.376 411.079 274.728C410.471 275.069 409.751 275.24 408.919 275.24ZM408.919 274.408C409.367 274.408 409.703 274.147 409.927 273.624C410.151 273.101 410.263 272.275 410.263 271.144C410.263 270.003 410.151 269.171 409.927 268.648C409.703 268.125 409.367 267.864 408.919 267.864C408.46 267.864 408.119 268.125 407.895 268.648C407.671 269.171 407.559 270.003 407.559 271.144C407.559 272.275 407.671 273.101 407.895 273.624C408.119 274.147 408.46 274.408 408.919 274.408ZM413.87 275V274.248L414.75 274.072C414.76 273.677 414.766 273.256 414.766 272.808C414.766 272.36 414.766 271.971 414.766 271.64V270.696C414.766 270.397 414.76 270.152 414.75 269.96C414.75 269.768 414.744 269.592 414.734 269.432C414.734 269.261 414.728 269.069 414.718 268.856L413.742 268.712V268.088L416.894 267.016L417.182 267.192L417.326 269.08C417.55 268.397 417.864 267.885 418.27 267.544C418.675 267.192 419.075 267.016 419.47 267.016C419.822 267.016 420.126 267.117 420.382 267.32C420.638 267.512 420.798 267.805 420.862 268.2C420.851 268.616 420.739 268.941 420.526 269.176C420.312 269.4 420.046 269.512 419.726 269.512C419.278 269.512 418.867 269.261 418.494 268.76L418.398 268.632C418.163 268.856 417.944 269.139 417.742 269.48C417.55 269.821 417.411 270.179 417.326 270.552V271.64C417.326 271.971 417.326 272.349 417.326 272.776C417.326 273.203 417.331 273.603 417.342 273.976L418.606 274.248V275H413.87ZM420.948 275.016V274.264L421.796 274.088C421.807 273.704 421.812 273.288 421.812 272.84C421.812 272.381 421.812 271.987 421.812 271.656V264.904L420.82 264.776V264.104L424.132 263.384L424.388 263.544L424.324 265.784V268.04C424.996 267.357 425.77 267.016 426.644 267.016C427.231 267.016 427.759 267.171 428.228 267.48C428.698 267.779 429.071 268.232 429.348 268.84C429.636 269.437 429.78 270.179 429.78 271.064C429.78 271.928 429.62 272.675 429.3 273.304C428.98 273.923 428.559 274.403 428.036 274.744C427.524 275.075 426.964 275.24 426.356 275.24C425.482 275.24 424.778 274.925 424.244 274.296L423.972 275.224L420.948 275.016ZM425.476 268.408C425.274 268.408 425.082 268.451 424.9 268.536C424.719 268.621 424.543 268.733 424.372 268.872V273.448C424.703 273.747 425.066 273.896 425.46 273.896C425.93 273.896 426.314 273.667 426.612 273.208C426.922 272.749 427.076 272.051 427.076 271.112C427.076 270.163 426.927 269.475 426.628 269.048C426.34 268.621 425.956 268.408 425.476 268.408ZM434.775 267.848C434.477 267.848 434.199 268.035 433.943 268.408C433.698 268.771 433.559 269.443 433.527 270.424H434.887C435.271 270.424 435.527 270.349 435.655 270.2C435.794 270.04 435.863 269.779 435.863 269.416C435.863 268.883 435.757 268.488 435.543 268.232C435.33 267.976 435.074 267.848 434.775 267.848ZM434.807 275.24C434.029 275.24 433.341 275.08 432.743 274.76C432.146 274.429 431.677 273.96 431.335 273.352C430.994 272.733 430.823 271.997 430.823 271.144C430.823 270.248 431.021 269.496 431.415 268.888C431.821 268.269 432.338 267.805 432.967 267.496C433.597 267.176 434.253 267.016 434.935 267.016C435.639 267.016 436.237 267.165 436.727 267.464C437.229 267.763 437.607 268.168 437.863 268.68C438.119 269.181 438.247 269.757 438.247 270.408C438.247 270.717 438.215 271 438.151 271.256H433.527C433.581 272.099 433.81 272.723 434.215 273.128C434.631 273.523 435.117 273.72 435.671 273.72C436.109 273.72 436.482 273.64 436.791 273.48C437.101 273.309 437.373 273.101 437.607 272.856L438.167 273.368C437.837 273.997 437.389 274.467 436.823 274.776C436.258 275.085 435.586 275.24 434.807 275.24ZM443.119 267.848C442.82 267.848 442.543 268.035 442.287 268.408C442.042 268.771 441.903 269.443 441.871 270.424H443.231C443.615 270.424 443.871 270.349 443.999 270.2C444.138 270.04 444.207 269.779 444.207 269.416C444.207 268.883 444.1 268.488 443.887 268.232C443.674 267.976 443.418 267.848 443.119 267.848ZM443.151 275.24C442.372 275.24 441.684 275.08 441.087 274.76C440.49 274.429 440.02 273.96 439.679 273.352C439.338 272.733 439.167 271.997 439.167 271.144C439.167 270.248 439.364 269.496 439.759 268.888C440.164 268.269 440.682 267.805 441.311 267.496C441.94 267.176 442.596 267.016 443.279 267.016C443.983 267.016 444.58 267.165 445.071 267.464C445.572 267.763 445.951 268.168 446.207 268.68C446.463 269.181 446.591 269.757 446.591 270.408C446.591 270.717 446.559 271 446.495 271.256H441.871C441.924 272.099 442.154 272.723 442.559 273.128C442.975 273.523 443.46 273.72 444.015 273.72C444.452 273.72 444.826 273.64 445.135 273.48C445.444 273.309 445.716 273.101 445.951 272.856L446.511 273.368C446.18 273.997 445.732 274.467 445.167 274.776C444.602 275.085 443.93 275.24 443.151 275.24ZM447.197 275V274.248L448.077 274.056C448.088 273.651 448.093 273.245 448.093 272.84C448.104 272.435 448.109 272.035 448.109 271.64V264.936L447.117 264.776V264.104L450.477 263.384L450.733 263.544L450.669 265.784V271.64C450.669 272.045 450.669 272.451 450.669 272.856C450.68 273.261 450.691 273.667 450.701 274.072L451.581 274.248V275H447.197ZM455.121 271.176C455.121 272.051 455.276 272.717 455.585 273.176C455.894 273.624 456.294 273.848 456.785 273.848C457.148 273.848 457.478 273.725 457.777 273.48V268.712C457.489 268.488 457.174 268.376 456.833 268.376C456.342 268.376 455.932 268.605 455.601 269.064C455.281 269.523 455.121 270.227 455.121 271.176ZM457.985 275.176L457.857 274.264C457.238 274.915 456.486 275.24 455.601 275.24C455.004 275.24 454.46 275.085 453.969 274.776C453.489 274.467 453.11 274.013 452.833 273.416C452.556 272.808 452.417 272.072 452.417 271.208C452.417 270.333 452.582 269.587 452.913 268.968C453.254 268.339 453.692 267.859 454.225 267.528C454.769 267.187 455.34 267.016 455.937 267.016C456.353 267.016 456.716 267.091 457.025 267.24C457.334 267.379 457.617 267.587 457.873 267.864V264.936L456.753 264.776V264.104L460.129 263.384L460.385 263.544L460.321 265.784V274.088L461.105 274.248V275L457.985 275.176ZM470.187 267.976V267.272H473.211V267.976L472.283 268.152L469.643 275.032H468.427L465.547 268.136L464.763 267.976V267.272H469.307V267.976L468.299 268.184L469.803 272.28L471.195 268.168L470.187 267.976ZM479.531 275.224C478.603 275.224 478.016 274.84 477.771 274.072C477.429 274.435 477.099 274.723 476.779 274.936C476.469 275.139 476.037 275.24 475.483 275.24C474.864 275.24 474.357 275.064 473.963 274.712C473.579 274.36 473.387 273.853 473.387 273.192C473.387 272.808 473.472 272.461 473.643 272.152C473.813 271.843 474.123 271.555 474.571 271.288C475.019 271.021 475.653 270.771 476.475 270.536C476.635 270.483 476.821 270.429 477.035 270.376C477.248 270.323 477.467 270.269 477.691 270.216V269.688C477.691 268.973 477.6 268.488 477.419 268.232C477.248 267.976 476.907 267.848 476.395 267.848C476.32 267.848 476.251 267.848 476.187 267.848C476.123 267.848 476.048 267.853 475.963 267.864L475.883 268.568C475.872 269.091 475.749 269.469 475.515 269.704C475.291 269.939 475.024 270.056 474.715 270.056C474.128 270.056 473.771 269.789 473.643 269.256C473.685 268.595 474.021 268.056 474.651 267.64C475.28 267.224 476.171 267.016 477.323 267.016C478.347 267.016 479.077 267.251 479.515 267.72C479.963 268.189 480.187 268.963 480.187 270.04V273.624C480.187 273.933 480.304 274.088 480.539 274.088C480.624 274.088 480.704 274.067 480.779 274.024C480.853 273.971 480.933 273.875 481.019 273.736L481.451 274.024C481.259 274.451 481.008 274.76 480.699 274.952C480.4 275.133 480.011 275.224 479.531 275.224ZM475.755 272.776C475.755 273.171 475.845 273.464 476.027 273.656C476.219 273.848 476.448 273.944 476.715 273.944C476.832 273.944 476.955 273.917 477.083 273.864C477.211 273.811 477.413 273.688 477.691 273.496V270.904C477.552 270.947 477.413 270.995 477.275 271.048C477.147 271.091 477.035 271.133 476.939 271.176C476.576 271.325 476.288 271.539 476.075 271.816C475.861 272.083 475.755 272.403 475.755 272.776ZM481.839 275V274.248L482.703 274.056C482.713 273.672 482.719 273.256 482.719 272.808C482.719 272.36 482.719 271.971 482.719 271.64V270.712C482.719 270.275 482.713 269.939 482.703 269.704C482.703 269.459 482.692 269.176 482.671 268.856L481.695 268.712V268.088L484.847 267.016L485.135 267.192L485.231 268.344C485.647 267.853 486.057 267.512 486.463 267.32C486.879 267.117 487.321 267.016 487.791 267.016C488.484 267.016 489.039 267.245 489.455 267.704C489.881 268.163 490.095 268.851 490.095 269.768V271.64C490.095 271.992 490.095 272.392 490.095 272.84C490.095 273.277 490.1 273.693 490.111 274.088L490.911 274.248V275H486.687V274.248L487.519 274.072C487.529 273.677 487.535 273.261 487.535 272.824C487.535 272.376 487.535 271.981 487.535 271.64V269.96C487.535 269.448 487.465 269.091 487.327 268.888C487.188 268.675 486.964 268.568 486.655 268.568C486.239 268.568 485.78 268.76 485.279 269.144V271.64C485.279 271.971 485.279 272.365 485.279 272.824C485.279 273.272 485.284 273.693 485.295 274.088L486.047 274.248V275H481.839ZM499.088 267.848C498.789 267.848 498.512 268.035 498.256 268.408C498.011 268.771 497.872 269.443 497.84 270.424H499.2C499.584 270.424 499.84 270.349 499.968 270.2C500.107 270.04 500.176 269.779 500.176 269.416C500.176 268.883 500.069 268.488 499.856 268.232C499.643 267.976 499.387 267.848 499.088 267.848ZM499.12 275.24C498.341 275.24 497.653 275.08 497.056 274.76C496.459 274.429 495.989 273.96 495.648 273.352C495.307 272.733 495.136 271.997 495.136 271.144C495.136 270.248 495.333 269.496 495.728 268.888C496.133 268.269 496.651 267.805 497.28 267.496C497.909 267.176 498.565 267.016 499.248 267.016C499.952 267.016 500.549 267.165 501.04 267.464C501.541 267.763 501.92 268.168 502.176 268.68C502.432 269.181 502.56 269.757 502.56 270.408C502.56 270.717 502.528 271 502.464 271.256H497.84C497.893 272.099 498.123 272.723 498.528 273.128C498.944 273.523 499.429 273.72 499.984 273.72C500.421 273.72 500.795 273.64 501.104 273.48C501.413 273.309 501.685 273.101 501.92 272.856L502.48 273.368C502.149 273.997 501.701 274.467 501.136 274.776C500.571 275.085 499.899 275.24 499.12 275.24ZM507.432 267.848C507.133 267.848 506.856 268.035 506.6 268.408C506.354 268.771 506.216 269.443 506.184 270.424H507.544C507.928 270.424 508.184 270.349 508.312 270.2C508.45 270.04 508.52 269.779 508.52 269.416C508.52 268.883 508.413 268.488 508.2 268.232C507.986 267.976 507.73 267.848 507.432 267.848ZM507.464 275.24C506.685 275.24 505.997 275.08 505.4 274.76C504.802 274.429 504.333 273.96 503.992 273.352C503.65 272.733 503.48 271.997 503.48 271.144C503.48 270.248 503.677 269.496 504.072 268.888C504.477 268.269 504.994 267.805 505.624 267.496C506.253 267.176 506.909 267.016 507.592 267.016C508.296 267.016 508.893 267.165 509.384 267.464C509.885 267.763 510.264 268.168 510.52 268.68C510.776 269.181 510.904 269.757 510.904 270.408C510.904 270.717 510.872 271 510.808 271.256H506.184C506.237 272.099 506.466 272.723 506.872 273.128C507.288 273.523 507.773 273.72 508.328 273.72C508.765 273.72 509.138 273.64 509.448 273.48C509.757 273.309 510.029 273.101 510.264 272.856L510.824 273.368C510.493 273.997 510.045 274.467 509.48 274.776C508.914 275.085 508.242 275.24 507.464 275.24ZM511.807 275V274.248L512.671 274.056C512.682 273.672 512.687 273.256 512.687 272.808C512.687 272.36 512.687 271.971 512.687 271.64V270.712C512.687 270.275 512.682 269.939 512.671 269.704C512.671 269.459 512.661 269.176 512.639 268.856L511.663 268.712V268.088L514.815 267.016L515.103 267.192L515.199 268.344C515.615 267.853 516.026 267.512 516.431 267.32C516.847 267.117 517.29 267.016 517.759 267.016C518.453 267.016 519.007 267.245 519.423 267.704C519.85 268.163 520.063 268.851 520.063 269.768V271.64C520.063 271.992 520.063 272.392 520.063 272.84C520.063 273.277 520.069 273.693 520.079 274.088L520.879 274.248V275H516.655V274.248L517.487 274.072C517.498 273.677 517.503 273.261 517.503 272.824C517.503 272.376 517.503 271.981 517.503 271.64V269.96C517.503 269.448 517.434 269.091 517.295 268.888C517.157 268.675 516.933 268.568 516.623 268.568C516.207 268.568 515.749 268.76 515.247 269.144V271.64C515.247 271.971 515.247 272.365 515.247 272.824C515.247 273.272 515.253 273.693 515.263 274.088L516.015 274.248V275H511.807ZM525.089 275V274.248L525.953 274.056C525.963 273.672 525.969 273.256 525.969 272.808C525.969 272.36 525.969 271.971 525.969 271.64V264.936L524.977 264.776V264.104L528.289 263.384L528.545 263.544L528.481 265.784V268.36C528.907 267.859 529.318 267.512 529.713 267.32C530.118 267.117 530.555 267.016 531.025 267.016C531.729 267.016 532.294 267.245 532.721 267.704C533.147 268.163 533.361 268.851 533.361 269.768V271.64C533.361 271.992 533.361 272.392 533.361 272.84C533.361 273.277 533.366 273.693 533.377 274.088L534.177 274.248V275H529.969V274.248L530.801 274.072C530.811 273.677 530.817 273.261 530.817 272.824C530.817 272.376 530.817 271.981 530.817 271.64V269.96C530.817 269.437 530.753 269.075 530.625 268.872C530.507 268.669 530.283 268.568 529.953 268.568C529.739 268.568 529.51 268.632 529.265 268.76C529.019 268.888 528.774 269.069 528.529 269.304V271.64C528.529 271.971 528.529 272.365 528.529 272.824C528.529 273.272 528.534 273.693 528.545 274.088L529.297 274.248V275H525.089ZM538.932 267.848C538.633 267.848 538.356 268.035 538.1 268.408C537.854 268.771 537.716 269.443 537.684 270.424H539.044C539.428 270.424 539.684 270.349 539.812 270.2C539.95 270.04 540.02 269.779 540.02 269.416C540.02 268.883 539.913 268.488 539.7 268.232C539.486 267.976 539.23 267.848 538.932 267.848ZM538.964 275.24C538.185 275.24 537.497 275.08 536.9 274.76C536.302 274.429 535.833 273.96 535.492 273.352C535.15 272.733 534.98 271.997 534.98 271.144C534.98 270.248 535.177 269.496 535.572 268.888C535.977 268.269 536.494 267.805 537.124 267.496C537.753 267.176 538.409 267.016 539.092 267.016C539.796 267.016 540.393 267.165 540.884 267.464C541.385 267.763 541.764 268.168 542.02 268.68C542.276 269.181 542.404 269.757 542.404 270.408C542.404 270.717 542.372 271 542.308 271.256H537.684C537.737 272.099 537.966 272.723 538.372 273.128C538.788 273.523 539.273 273.72 539.828 273.72C540.265 273.72 540.638 273.64 540.948 273.48C541.257 273.309 541.529 273.101 541.764 272.856L542.324 273.368C541.993 273.997 541.545 274.467 540.98 274.776C540.414 275.085 539.742 275.24 538.964 275.24ZM549.453 275.224C548.525 275.224 547.938 274.84 547.693 274.072C547.351 274.435 547.021 274.723 546.701 274.936C546.391 275.139 545.959 275.24 545.405 275.24C544.786 275.24 544.279 275.064 543.885 274.712C543.501 274.36 543.309 273.853 543.309 273.192C543.309 272.808 543.394 272.461 543.565 272.152C543.735 271.843 544.045 271.555 544.493 271.288C544.941 271.021 545.575 270.771 546.397 270.536C546.557 270.483 546.743 270.429 546.957 270.376C547.17 270.323 547.389 270.269 547.613 270.216V269.688C547.613 268.973 547.522 268.488 547.341 268.232C547.17 267.976 546.829 267.848 546.317 267.848C546.242 267.848 546.173 267.848 546.109 267.848C546.045 267.848 545.97 267.853 545.885 267.864L545.805 268.568C545.794 269.091 545.671 269.469 545.437 269.704C545.213 269.939 544.946 270.056 544.637 270.056C544.05 270.056 543.693 269.789 543.565 269.256C543.607 268.595 543.943 268.056 544.573 267.64C545.202 267.224 546.093 267.016 547.245 267.016C548.269 267.016 548.999 267.251 549.437 267.72C549.885 268.189 550.109 268.963 550.109 270.04V273.624C550.109 273.933 550.226 274.088 550.461 274.088C550.546 274.088 550.626 274.067 550.701 274.024C550.775 273.971 550.855 273.875 550.941 273.736L551.373 274.024C551.181 274.451 550.93 274.76 550.621 274.952C550.322 275.133 549.933 275.224 549.453 275.224ZM545.677 272.776C545.677 273.171 545.767 273.464 545.949 273.656C546.141 273.848 546.37 273.944 546.637 273.944C546.754 273.944 546.877 273.917 547.005 273.864C547.133 273.811 547.335 273.688 547.613 273.496V270.904C547.474 270.947 547.335 270.995 547.197 271.048C547.069 271.091 546.957 271.133 546.861 271.176C546.498 271.325 546.21 271.539 545.997 271.816C545.783 272.083 545.677 272.403 545.677 272.776ZM554.481 271.176C554.481 272.051 554.635 272.717 554.945 273.176C555.254 273.624 555.654 273.848 556.145 273.848C556.507 273.848 556.838 273.725 557.137 273.48V268.712C556.849 268.488 556.534 268.376 556.193 268.376C555.702 268.376 555.291 268.605 554.961 269.064C554.641 269.523 554.481 270.227 554.481 271.176ZM557.345 275.176L557.217 274.264C556.598 274.915 555.846 275.24 554.961 275.24C554.363 275.24 553.819 275.085 553.329 274.776C552.849 274.467 552.47 274.013 552.193 273.416C551.915 272.808 551.777 272.072 551.777 271.208C551.777 270.333 551.942 269.587 552.273 268.968C552.614 268.339 553.051 267.859 553.585 267.528C554.129 267.187 554.699 267.016 555.297 267.016C555.713 267.016 556.075 267.091 556.385 267.24C556.694 267.379 556.977 267.587 557.233 267.864V264.936L556.113 264.776V264.104L559.489 263.384L559.745 263.544L559.681 265.784V274.088L560.465 274.248V275L557.345 275.176ZM561.293 275V274.248L562.157 274.056C562.167 273.672 562.173 273.256 562.173 272.808C562.173 272.36 562.173 271.971 562.173 271.64V270.872C562.173 270.435 562.167 270.072 562.157 269.784C562.157 269.485 562.146 269.176 562.125 268.856L561.133 268.712V268.088L564.493 267.016L564.765 267.192L564.717 269.512V271.64C564.717 271.971 564.717 272.365 564.717 272.824C564.717 273.272 564.722 273.693 564.733 274.088L565.533 274.248V275H561.293ZM563.421 265.832C563.047 265.832 562.727 265.715 562.461 265.48C562.194 265.235 562.061 264.931 562.061 264.568C562.061 264.195 562.194 263.891 562.461 263.656C562.727 263.411 563.047 263.288 563.421 263.288C563.794 263.288 564.114 263.411 564.381 263.656C564.647 263.891 564.781 264.195 564.781 264.568C564.781 264.931 564.647 265.235 564.381 265.48C564.114 265.715 563.794 265.832 563.421 265.832ZM566.323 275V274.248L567.187 274.056C567.198 273.672 567.203 273.256 567.203 272.808C567.203 272.36 567.203 271.971 567.203 271.64V270.712C567.203 270.275 567.198 269.939 567.187 269.704C567.187 269.459 567.176 269.176 567.155 268.856L566.179 268.712V268.088L569.331 267.016L569.619 267.192L569.715 268.344C570.131 267.853 570.542 267.512 570.947 267.32C571.363 267.117 571.806 267.016 572.275 267.016C572.968 267.016 573.523 267.245 573.939 267.704C574.366 268.163 574.579 268.851 574.579 269.768V271.64C574.579 271.992 574.579 272.392 574.579 272.84C574.579 273.277 574.584 273.693 574.595 274.088L575.395 274.248V275H571.171V274.248L572.003 274.072C572.014 273.677 572.019 273.261 572.019 272.824C572.019 272.376 572.019 271.981 572.019 271.64V269.96C572.019 269.448 571.95 269.091 571.811 268.888C571.672 268.675 571.448 268.568 571.139 268.568C570.723 268.568 570.264 268.76 569.763 269.144V271.64C569.763 271.971 569.763 272.365 569.763 272.824C569.763 273.272 569.768 273.693 569.779 274.088L570.531 274.248V275H566.323ZM579.654 271.416C580.028 271.416 580.305 271.251 580.486 270.92C580.678 270.589 580.774 270.141 580.774 269.576C580.774 269.011 580.678 268.573 580.486 268.264C580.305 267.944 580.038 267.784 579.686 267.784C579.324 267.784 579.052 267.944 578.87 268.264C578.689 268.584 578.598 269.027 578.598 269.592C578.598 270.157 578.684 270.605 578.854 270.936C579.025 271.256 579.292 271.416 579.654 271.416ZM577.526 276.328C577.526 276.797 577.702 277.139 578.054 277.352C578.406 277.576 578.945 277.688 579.67 277.688C580.47 277.688 581.073 277.571 581.478 277.336C581.884 277.101 582.086 276.808 582.086 276.456C582.086 276.221 582.001 276.008 581.83 275.816C581.66 275.635 581.356 275.544 580.918 275.544H579.238C578.652 275.544 578.166 275.496 577.782 275.4C577.697 275.549 577.633 275.693 577.59 275.832C577.548 275.971 577.526 276.136 577.526 276.328ZM579.67 272.168C579.116 272.168 578.63 272.104 578.214 271.976C578.086 272.2 578.022 272.445 578.022 272.712C578.022 272.893 578.092 273.043 578.23 273.16C578.369 273.267 578.609 273.32 578.95 273.32H580.822C581.633 273.32 582.278 273.421 582.758 273.624C583.238 273.816 583.58 274.088 583.782 274.44C583.996 274.781 584.102 275.187 584.102 275.656C584.102 276.189 583.926 276.68 583.574 277.128C583.222 277.587 582.694 277.949 581.99 278.216C581.297 278.493 580.438 278.632 579.414 278.632C578.529 278.632 577.836 278.541 577.334 278.36C576.833 278.189 576.481 277.96 576.278 277.672C576.076 277.384 575.974 277.08 575.974 276.76C575.974 276.077 576.417 275.528 577.302 275.112C576.972 274.973 576.732 274.792 576.582 274.568C576.444 274.344 576.374 274.099 576.374 273.832C576.374 273.459 576.481 273.107 576.694 272.776C576.918 272.435 577.228 272.093 577.622 271.752C577.185 271.528 576.86 271.229 576.646 270.856C576.433 270.483 576.326 270.067 576.326 269.608C576.326 268.861 576.598 268.243 577.142 267.752C577.697 267.261 578.54 267.016 579.67 267.016C580.246 267.016 580.748 267.08 581.174 267.208C581.601 267.336 581.948 267.517 582.214 267.752L584.006 266.984L584.262 267.144V268.376H582.742C582.934 268.728 583.03 269.139 583.03 269.608C583.03 270.323 582.753 270.931 582.198 271.432C581.654 271.923 580.812 272.168 579.67 272.168Z"
    fill="#0A2750" />
</svg>
