<svg width="960" height="540" viewBox="0 0 960 540" fill="none" xmlns="http://www.w3.org/2000/svg">
  <title id="mark-anatomy-title">Samenstelling van het Mark component</title>
  <desc id="mark-anatomy-desc">Een tekst waarin het één na laatste woord is gearceerd, dat deel is aangeduid met het cijfer 1. De tekst: “Dit is een voorbeeld van de mark component.”.</desc>
  <rect x="0.5" y="0.5" width="959" height="539" fill="white" />
  <rect x="0.5" y="0.5" width="959" height="539" stroke="#CCCCCC" />
  <path
    d="M318.904 263.976C320.568 263.976 321.901 264.365 322.904 265.144C323.917 265.912 324.424 267.341 324.424 269.432C324.424 271.469 323.917 272.909 322.904 273.752C321.901 274.584 320.68 275 319.24 275H316.6V263.976H318.904ZM318.12 265.192V273.8H319.352C320.376 273.8 321.208 273.485 321.848 272.856C322.488 272.227 322.808 271.085 322.808 269.432C322.808 268.269 322.643 267.379 322.312 266.76C321.981 266.131 321.56 265.715 321.048 265.512C320.536 265.299 319.933 265.192 319.24 265.192H318.12ZM328.289 266.568V275H326.817V266.568H328.289ZM327.537 262.52C327.846 262.52 328.097 262.616 328.289 262.808C328.481 263 328.577 263.24 328.577 263.528C328.577 263.816 328.481 264.056 328.289 264.248C328.097 264.429 327.846 264.52 327.537 264.52C327.238 264.52 326.993 264.429 326.801 264.248C326.609 264.056 326.513 263.816 326.513 263.528C326.513 263.24 326.609 263 326.801 262.808C326.993 262.616 327.238 262.52 327.537 262.52ZM335.589 274.616C335.034 275 334.405 275.192 333.701 275.192C332.986 275.192 332.426 274.989 332.021 274.584C331.626 274.168 331.429 273.571 331.429 272.792V267.704H329.957V266.568H331.429V264.664L332.901 264.488V266.568H334.901L334.741 267.704H332.901V272.728C332.901 273.165 332.975 273.485 333.125 273.688C333.285 273.88 333.546 273.976 333.909 273.976C334.239 273.976 334.613 273.864 335.029 273.64L335.589 274.616ZM342.82 266.568V275H341.348V266.568H342.82ZM342.068 262.52C342.377 262.52 342.628 262.616 342.82 262.808C343.012 263 343.108 263.24 343.108 263.528C343.108 263.816 343.012 264.056 342.82 264.248C342.628 264.429 342.377 264.52 342.068 264.52C341.769 264.52 341.524 264.429 341.332 264.248C341.14 264.056 341.044 263.816 341.044 263.528C341.044 263.24 341.14 263 341.332 262.808C341.524 262.616 341.769 262.52 342.068 262.52ZM348.152 266.376C348.728 266.376 349.245 266.456 349.704 266.616C350.162 266.776 350.6 267.016 351.016 267.336L350.392 268.264C350.008 268.019 349.64 267.837 349.288 267.72C348.946 267.603 348.584 267.544 348.2 267.544C347.72 267.544 347.341 267.645 347.064 267.848C346.786 268.04 346.648 268.307 346.648 268.648C346.648 268.989 346.776 269.256 347.032 269.448C347.298 269.64 347.773 269.827 348.456 270.008C349.394 270.243 350.093 270.563 350.552 270.968C351.021 271.373 351.256 271.928 351.256 272.632C351.256 273.464 350.93 274.099 350.28 274.536C349.64 274.973 348.856 275.192 347.928 275.192C346.648 275.192 345.586 274.824 344.744 274.088L345.528 273.192C346.242 273.736 347.032 274.008 347.896 274.008C348.45 274.008 348.888 273.896 349.208 273.672C349.538 273.437 349.704 273.123 349.704 272.728C349.704 272.44 349.645 272.211 349.528 272.04C349.41 271.859 349.208 271.704 348.92 271.576C348.632 271.437 348.21 271.293 347.656 271.144C346.76 270.909 346.109 270.595 345.704 270.2C345.309 269.805 345.112 269.304 345.112 268.696C345.112 268.259 345.24 267.864 345.496 267.512C345.762 267.149 346.125 266.872 346.584 266.68C347.053 266.477 347.576 266.376 348.152 266.376ZM363.935 270.536C363.935 270.781 363.924 271.032 363.903 271.288H358.527C358.591 272.216 358.826 272.899 359.231 273.336C359.636 273.773 360.159 273.992 360.799 273.992C361.204 273.992 361.578 273.933 361.919 273.816C362.26 273.699 362.618 273.512 362.991 273.256L363.631 274.136C362.735 274.84 361.754 275.192 360.687 275.192C359.514 275.192 358.596 274.808 357.935 274.04C357.284 273.272 356.959 272.216 356.959 270.872C356.959 269.997 357.098 269.224 357.375 268.552C357.663 267.869 358.068 267.336 358.591 266.952C359.124 266.568 359.748 266.376 360.463 266.376C361.583 266.376 362.442 266.744 363.039 267.48C363.636 268.216 363.935 269.235 363.935 270.536ZM362.479 270.104C362.479 269.272 362.314 268.637 361.983 268.2C361.652 267.763 361.156 267.544 360.495 267.544C359.29 267.544 358.634 268.429 358.527 270.2H362.479V270.104ZM372.654 270.536C372.654 270.781 372.643 271.032 372.622 271.288H367.246C367.31 272.216 367.544 272.899 367.95 273.336C368.355 273.773 368.878 273.992 369.518 273.992C369.923 273.992 370.296 273.933 370.638 273.816C370.979 273.699 371.336 273.512 371.71 273.256L372.35 274.136C371.454 274.84 370.472 275.192 369.406 275.192C368.232 275.192 367.315 274.808 366.654 274.04C366.003 273.272 365.678 272.216 365.678 270.872C365.678 269.997 365.816 269.224 366.094 268.552C366.382 267.869 366.787 267.336 367.31 266.952C367.843 266.568 368.467 266.376 369.182 266.376C370.302 266.376 371.16 266.744 371.758 267.48C372.355 268.216 372.654 269.235 372.654 270.536ZM371.198 270.104C371.198 269.272 371.032 268.637 370.702 268.2C370.371 267.763 369.875 267.544 369.214 267.544C368.008 267.544 367.352 268.429 367.246 270.2H371.198V270.104ZM378.972 266.376C379.74 266.376 380.338 266.605 380.764 267.064C381.202 267.523 381.42 268.152 381.42 268.952V275H379.948V269.16C379.948 268.563 379.836 268.141 379.612 267.896C379.388 267.651 379.058 267.528 378.62 267.528C378.172 267.528 377.778 267.656 377.436 267.912C377.095 268.168 376.775 268.536 376.476 269.016V275H375.004V266.568H376.268L376.396 267.816C376.695 267.368 377.063 267.016 377.5 266.76C377.948 266.504 378.439 266.376 378.972 266.376ZM394.806 266.568L391.942 275H390.166L387.254 266.568H388.854L391.062 273.688L393.254 266.568H394.806ZM399.594 266.376C400.778 266.376 401.696 266.771 402.346 267.56C403.008 268.349 403.338 269.421 403.338 270.776C403.338 271.651 403.189 272.424 402.89 273.096C402.592 273.757 402.16 274.275 401.594 274.648C401.029 275.011 400.357 275.192 399.578 275.192C398.394 275.192 397.472 274.797 396.81 274.008C396.149 273.219 395.818 272.147 395.818 270.792C395.818 269.917 395.968 269.149 396.266 268.488C396.565 267.816 396.997 267.299 397.562 266.936C398.128 266.563 398.805 266.376 399.594 266.376ZM399.594 267.56C398.133 267.56 397.402 268.637 397.402 270.792C397.402 272.936 398.128 274.008 399.578 274.008C401.029 274.008 401.754 272.931 401.754 270.776C401.754 268.632 401.034 267.56 399.594 267.56ZM408.938 266.376C410.122 266.376 411.039 266.771 411.69 267.56C412.351 268.349 412.682 269.421 412.682 270.776C412.682 271.651 412.533 272.424 412.234 273.096C411.935 273.757 411.503 274.275 410.938 274.648C410.373 275.011 409.701 275.192 408.922 275.192C407.738 275.192 406.815 274.797 406.154 274.008C405.493 273.219 405.162 272.147 405.162 270.792C405.162 269.917 405.311 269.149 405.61 268.488C405.909 267.816 406.341 267.299 406.906 266.936C407.471 266.563 408.149 266.376 408.938 266.376ZM408.938 267.56C407.477 267.56 406.746 268.637 406.746 270.792C406.746 272.936 407.471 274.008 408.922 274.008C410.373 274.008 411.098 272.931 411.098 270.776C411.098 268.632 410.378 267.56 408.938 267.56ZM418.778 266.376C419.076 266.376 419.354 266.408 419.61 266.472L419.338 267.912C419.082 267.848 418.836 267.816 418.602 267.816C418.079 267.816 417.658 268.008 417.338 268.392C417.018 268.776 416.767 269.373 416.586 270.184V275H415.114V266.568H416.378L416.522 268.28C416.746 267.651 417.05 267.176 417.434 266.856C417.818 266.536 418.266 266.376 418.778 266.376ZM425.142 266.376C426.102 266.376 426.864 266.765 427.43 267.544C427.995 268.312 428.278 269.389 428.278 270.776C428.278 271.651 428.144 272.424 427.878 273.096C427.611 273.757 427.227 274.275 426.726 274.648C426.224 275.011 425.638 275.192 424.966 275.192C424.08 275.192 423.334 274.819 422.726 274.072L422.582 275H421.286V263.176L422.758 263V267.624C423.366 266.792 424.16 266.376 425.142 266.376ZM424.614 274.024C425.264 274.024 425.771 273.763 426.134 273.24C426.507 272.707 426.694 271.885 426.694 270.776C426.694 269.635 426.523 268.813 426.182 268.312C425.84 267.8 425.355 267.544 424.726 267.544C423.979 267.544 423.323 267.981 422.758 268.856V272.888C422.982 273.24 423.254 273.517 423.574 273.72C423.904 273.923 424.251 274.024 424.614 274.024ZM437.154 270.536C437.154 270.781 437.143 271.032 437.122 271.288H431.746C431.81 272.216 432.044 272.899 432.45 273.336C432.855 273.773 433.378 273.992 434.018 273.992C434.423 273.992 434.796 273.933 435.138 273.816C435.479 273.699 435.836 273.512 436.21 273.256L436.85 274.136C435.954 274.84 434.972 275.192 433.906 275.192C432.732 275.192 431.815 274.808 431.154 274.04C430.503 273.272 430.178 272.216 430.178 270.872C430.178 269.997 430.316 269.224 430.594 268.552C430.882 267.869 431.287 267.336 431.81 266.952C432.343 266.568 432.967 266.376 433.682 266.376C434.802 266.376 435.66 266.744 436.258 267.48C436.855 268.216 437.154 269.235 437.154 270.536ZM435.698 270.104C435.698 269.272 435.532 268.637 435.202 268.2C434.871 267.763 434.375 267.544 433.714 267.544C432.508 267.544 431.852 268.429 431.746 270.2H435.698V270.104ZM445.872 270.536C445.872 270.781 445.862 271.032 445.84 271.288H440.464C440.528 272.216 440.763 272.899 441.168 273.336C441.574 273.773 442.096 273.992 442.736 273.992C443.142 273.992 443.515 273.933 443.856 273.816C444.198 273.699 444.555 273.512 444.928 273.256L445.568 274.136C444.672 274.84 443.691 275.192 442.624 275.192C441.451 275.192 440.534 274.808 439.872 274.04C439.222 273.272 438.896 272.216 438.896 270.872C438.896 269.997 439.035 269.224 439.312 268.552C439.6 267.869 440.006 267.336 440.528 266.952C441.062 266.568 441.686 266.376 442.4 266.376C443.52 266.376 444.379 266.744 444.976 267.48C445.574 268.216 445.872 269.235 445.872 270.536ZM444.416 270.104C444.416 269.272 444.251 268.637 443.92 268.2C443.59 267.763 443.094 267.544 442.432 267.544C441.227 267.544 440.571 268.429 440.464 270.2H444.416V270.104ZM449.903 275.192C449.359 275.192 448.927 275.032 448.607 274.712C448.298 274.381 448.143 273.923 448.143 273.336V263.176L449.615 263V273.304C449.615 273.539 449.652 273.709 449.727 273.816C449.812 273.923 449.951 273.976 450.143 273.976C450.346 273.976 450.527 273.944 450.687 273.88L451.071 274.904C450.719 275.096 450.33 275.192 449.903 275.192ZM459.361 263.176V275H458.065L457.921 273.832C457.643 274.259 457.297 274.595 456.881 274.84C456.465 275.075 456.001 275.192 455.489 275.192C454.486 275.192 453.702 274.797 453.137 274.008C452.582 273.219 452.305 272.157 452.305 270.824C452.305 269.96 452.438 269.192 452.705 268.52C452.971 267.848 453.355 267.325 453.857 266.952C454.358 266.568 454.945 266.376 455.617 266.376C456.481 266.376 457.238 266.723 457.889 267.416V263L459.361 263.176ZM455.809 274.024C456.257 274.024 456.641 273.923 456.961 273.72C457.281 273.507 457.59 273.192 457.889 272.776V268.648C457.611 268.285 457.313 268.013 456.993 267.832C456.683 267.64 456.331 267.544 455.937 267.544C455.286 267.544 454.779 267.816 454.417 268.36C454.065 268.904 453.889 269.715 453.889 270.792C453.889 271.88 454.054 272.691 454.385 273.224C454.715 273.757 455.19 274.024 455.809 274.024ZM472.821 266.568L469.957 275H468.181L465.269 266.568H466.869L469.077 273.688L471.269 266.568H472.821ZM479.934 273.032C479.934 273.373 479.993 273.629 480.11 273.8C480.228 273.96 480.404 274.083 480.638 274.168L480.302 275.192C479.865 275.139 479.513 275.016 479.246 274.824C478.98 274.632 478.782 274.333 478.654 273.928C478.089 274.771 477.252 275.192 476.142 275.192C475.31 275.192 474.654 274.957 474.174 274.488C473.694 274.019 473.454 273.405 473.454 272.648C473.454 271.752 473.774 271.064 474.414 270.584C475.065 270.104 475.982 269.864 477.166 269.864H478.462V269.24C478.462 268.643 478.318 268.216 478.03 267.96C477.742 267.704 477.3 267.576 476.702 267.576C476.084 267.576 475.326 267.725 474.43 268.024L474.062 266.952C475.108 266.568 476.078 266.376 476.974 266.376C477.966 266.376 478.708 266.621 479.198 267.112C479.689 267.592 479.934 268.28 479.934 269.176V273.032ZM476.478 274.088C477.321 274.088 477.982 273.651 478.462 272.776V270.84H477.358C475.801 270.84 475.022 271.416 475.022 272.568C475.022 273.069 475.145 273.448 475.39 273.704C475.636 273.96 475.998 274.088 476.478 274.088ZM486.926 266.376C487.694 266.376 488.291 266.605 488.718 267.064C489.155 267.523 489.374 268.152 489.374 268.952V275H487.902V269.16C487.902 268.563 487.79 268.141 487.566 267.896C487.342 267.651 487.011 267.528 486.574 267.528C486.126 267.528 485.731 267.656 485.39 267.912C485.048 268.168 484.728 268.536 484.43 269.016V275H482.958V266.568H484.222L484.35 267.816C484.648 267.368 485.016 267.016 485.454 266.76C485.902 266.504 486.392 266.376 486.926 266.376ZM503.095 263.176V275H501.799L501.655 273.832C501.378 274.259 501.031 274.595 500.615 274.84C500.199 275.075 499.735 275.192 499.223 275.192C498.22 275.192 497.436 274.797 496.871 274.008C496.316 273.219 496.039 272.157 496.039 270.824C496.039 269.96 496.172 269.192 496.439 268.52C496.706 267.848 497.09 267.325 497.591 266.952C498.092 266.568 498.679 266.376 499.351 266.376C500.215 266.376 500.972 266.723 501.623 267.416V263L503.095 263.176ZM499.543 274.024C499.991 274.024 500.375 273.923 500.695 273.72C501.015 273.507 501.324 273.192 501.623 272.776V268.648C501.346 268.285 501.047 268.013 500.727 267.832C500.418 267.64 500.066 267.544 499.671 267.544C499.02 267.544 498.514 267.816 498.151 268.36C497.799 268.904 497.623 269.715 497.623 270.792C497.623 271.88 497.788 272.691 498.119 273.224C498.45 273.757 498.924 274.024 499.543 274.024ZM512.497 270.536C512.497 270.781 512.487 271.032 512.465 271.288H507.089C507.153 272.216 507.388 272.899 507.793 273.336C508.199 273.773 508.721 273.992 509.361 273.992C509.767 273.992 510.14 273.933 510.481 273.816C510.823 273.699 511.18 273.512 511.553 273.256L512.193 274.136C511.297 274.84 510.316 275.192 509.249 275.192C508.076 275.192 507.159 274.808 506.497 274.04C505.847 273.272 505.521 272.216 505.521 270.872C505.521 269.997 505.66 269.224 505.937 268.552C506.225 267.869 506.631 267.336 507.153 266.952C507.687 266.568 508.311 266.376 509.025 266.376C510.145 266.376 511.004 266.744 511.601 267.48C512.199 268.216 512.497 269.235 512.497 270.536ZM511.041 270.104C511.041 269.272 510.876 268.637 510.545 268.2C510.215 267.763 509.719 267.544 509.057 267.544C507.852 267.544 507.196 268.429 507.089 270.2H511.041V270.104Z"
    fill="#0A2750" />
  <rect width="37" height="24" transform="translate(518 258)" fill="#FFF5BE" />
  <path
    d="M527.984 266.376C528.677 266.376 529.232 266.611 529.648 267.08C530.064 267.539 530.272 268.163 530.272 268.952V275H528.8V269.16C528.8 268.072 528.405 267.528 527.616 267.528C527.2 267.528 526.848 267.651 526.56 267.896C526.272 268.131 525.963 268.504 525.632 269.016V275H524.16V269.16C524.16 268.072 523.765 267.528 522.976 267.528C522.549 267.528 522.192 267.651 521.904 267.896C521.616 268.141 521.312 268.515 520.992 269.016V275H519.52V266.568H520.784L520.912 267.8C521.541 266.851 522.352 266.376 523.344 266.376C523.867 266.376 524.309 266.509 524.672 266.776C525.045 267.043 525.312 267.416 525.472 267.896C525.803 267.405 526.165 267.032 526.56 266.776C526.965 266.509 527.44 266.376 527.984 266.376ZM538.919 273.032C538.919 273.373 538.977 273.629 539.095 273.8C539.212 273.96 539.388 274.083 539.623 274.168L539.287 275.192C538.849 275.139 538.497 275.016 538.231 274.824C537.964 274.632 537.767 274.333 537.639 273.928C537.073 274.771 536.236 275.192 535.127 275.192C534.295 275.192 533.639 274.957 533.159 274.488C532.679 274.019 532.439 273.405 532.439 272.648C532.439 271.752 532.759 271.064 533.399 270.584C534.049 270.104 534.967 269.864 536.151 269.864H537.447V269.24C537.447 268.643 537.303 268.216 537.015 267.96C536.727 267.704 536.284 267.576 535.687 267.576C535.068 267.576 534.311 267.725 533.415 268.024L533.047 266.952C534.092 266.568 535.063 266.376 535.959 266.376C536.951 266.376 537.692 266.621 538.183 267.112C538.673 267.592 538.919 268.28 538.919 269.176V273.032ZM535.463 274.088C536.305 274.088 536.967 273.651 537.447 272.776V270.84H536.343C534.785 270.84 534.007 271.416 534.007 272.568C534.007 273.069 534.129 273.448 534.375 273.704C534.62 273.96 534.983 274.088 535.463 274.088ZM545.606 266.376C545.905 266.376 546.182 266.408 546.438 266.472L546.166 267.912C545.91 267.848 545.665 267.816 545.43 267.816C544.907 267.816 544.486 268.008 544.166 268.392C543.846 268.776 543.595 269.373 543.414 270.184V275H541.942V266.568H543.206L543.35 268.28C543.574 267.651 543.878 267.176 544.262 266.856C544.646 266.536 545.094 266.376 545.606 266.376ZM549.586 263V275H548.114V263.176L549.586 263ZM554.434 266.568L551.33 270.296L554.786 275H553.026L549.682 270.392L552.786 266.568H554.434Z"
    fill="#0A2750" />
  <path
    d="M563.592 266.376C564.093 266.376 564.552 266.451 564.968 266.6C565.384 266.739 565.784 266.968 566.168 267.288L565.464 268.216C565.165 268.003 564.872 267.848 564.584 267.752C564.307 267.645 563.997 267.592 563.656 267.592C562.973 267.592 562.44 267.864 562.056 268.408C561.683 268.952 561.496 269.757 561.496 270.824C561.496 271.891 561.683 272.68 562.056 273.192C562.429 273.693 562.963 273.944 563.656 273.944C563.987 273.944 564.291 273.896 564.568 273.8C564.845 273.693 565.155 273.528 565.496 273.304L566.168 274.264C565.4 274.883 564.541 275.192 563.592 275.192C562.451 275.192 561.549 274.808 560.888 274.04C560.237 273.272 559.912 272.211 559.912 270.856C559.912 269.96 560.061 269.176 560.36 268.504C560.659 267.832 561.08 267.309 561.624 266.936C562.179 266.563 562.835 266.376 563.592 266.376ZM571.016 266.376C572.2 266.376 573.117 266.771 573.768 267.56C574.429 268.349 574.76 269.421 574.76 270.776C574.76 271.651 574.611 272.424 574.312 273.096C574.013 273.757 573.581 274.275 573.016 274.648C572.451 275.011 571.779 275.192 571 275.192C569.816 275.192 568.893 274.797 568.232 274.008C567.571 273.219 567.24 272.147 567.24 270.792C567.24 269.917 567.389 269.149 567.688 268.488C567.987 267.816 568.419 267.299 568.984 266.936C569.549 266.563 570.227 266.376 571.016 266.376ZM571.016 267.56C569.555 267.56 568.824 268.637 568.824 270.792C568.824 272.936 569.549 274.008 571 274.008C572.451 274.008 573.176 272.931 573.176 270.776C573.176 268.632 572.456 267.56 571.016 267.56ZM585.656 266.376C586.349 266.376 586.904 266.611 587.32 267.08C587.736 267.539 587.944 268.163 587.944 268.952V275H586.472V269.16C586.472 268.072 586.077 267.528 585.288 267.528C584.872 267.528 584.52 267.651 584.232 267.896C583.944 268.131 583.635 268.504 583.304 269.016V275H581.832V269.16C581.832 268.072 581.437 267.528 580.648 267.528C580.221 267.528 579.864 267.651 579.576 267.896C579.288 268.141 578.984 268.515 578.664 269.016V275H577.192V266.568H578.456L578.584 267.8C579.213 266.851 580.024 266.376 581.016 266.376C581.539 266.376 581.981 266.509 582.344 266.776C582.717 267.043 582.984 267.416 583.144 267.896C583.475 267.405 583.837 267.032 584.232 266.776C584.637 266.509 585.112 266.376 585.656 266.376ZM594.783 266.376C595.86 266.376 596.649 266.76 597.151 267.528C597.652 268.296 597.903 269.379 597.903 270.776C597.903 272.099 597.615 273.165 597.039 273.976C596.463 274.787 595.647 275.192 594.591 275.192C593.652 275.192 592.916 274.872 592.383 274.232V278.232L590.911 278.408V266.568H592.175L592.287 267.704C592.596 267.277 592.969 266.952 593.407 266.728C593.844 266.493 594.303 266.376 594.783 266.376ZM594.239 273.992C595.625 273.992 596.319 272.92 596.319 270.776C596.319 268.621 595.684 267.544 594.415 267.544C593.999 267.544 593.62 267.667 593.279 267.912C592.937 268.157 592.639 268.472 592.383 268.856V272.968C592.596 273.299 592.863 273.555 593.183 273.736C593.503 273.907 593.855 273.992 594.239 273.992ZM603.579 266.376C604.763 266.376 605.68 266.771 606.331 267.56C606.992 268.349 607.323 269.421 607.323 270.776C607.323 271.651 607.173 272.424 606.875 273.096C606.576 273.757 606.144 274.275 605.579 274.648C605.013 275.011 604.341 275.192 603.563 275.192C602.379 275.192 601.456 274.797 600.795 274.008C600.133 273.219 599.803 272.147 599.803 270.792C599.803 269.917 599.952 269.149 600.251 268.488C600.549 267.816 600.981 267.299 601.547 266.936C602.112 266.563 602.789 266.376 603.579 266.376ZM603.579 267.56C602.117 267.56 601.387 268.637 601.387 270.792C601.387 272.936 602.112 274.008 603.563 274.008C605.013 274.008 605.739 272.931 605.739 270.776C605.739 268.632 605.019 267.56 603.579 267.56ZM613.722 266.376C614.49 266.376 615.088 266.605 615.514 267.064C615.952 267.523 616.17 268.152 616.17 268.952V275H614.698V269.16C614.698 268.563 614.586 268.141 614.362 267.896C614.138 267.651 613.808 267.528 613.37 267.528C612.922 267.528 612.528 267.656 612.186 267.912C611.845 268.168 611.525 268.536 611.226 269.016V275H609.754V266.568H611.018L611.146 267.816C611.445 267.368 611.813 267.016 612.25 266.76C612.698 266.504 613.189 266.376 613.722 266.376ZM625.497 270.536C625.497 270.781 625.487 271.032 625.465 271.288H620.089C620.153 272.216 620.388 272.899 620.793 273.336C621.199 273.773 621.721 273.992 622.361 273.992C622.767 273.992 623.14 273.933 623.481 273.816C623.823 273.699 624.18 273.512 624.553 273.256L625.193 274.136C624.297 274.84 623.316 275.192 622.249 275.192C621.076 275.192 620.159 274.808 619.497 274.04C618.847 273.272 618.521 272.216 618.521 270.872C618.521 269.997 618.66 269.224 618.937 268.552C619.225 267.869 619.631 267.336 620.153 266.952C620.687 266.568 621.311 266.376 622.025 266.376C623.145 266.376 624.004 266.744 624.601 267.48C625.199 268.216 625.497 269.235 625.497 270.536ZM624.041 270.104C624.041 269.272 623.876 268.637 623.545 268.2C623.215 267.763 622.719 267.544 622.057 267.544C620.852 267.544 620.196 268.429 620.089 270.2H624.041V270.104ZM631.816 266.376C632.584 266.376 633.181 266.605 633.608 267.064C634.045 267.523 634.264 268.152 634.264 268.952V275H632.792V269.16C632.792 268.563 632.68 268.141 632.456 267.896C632.232 267.651 631.901 267.528 631.464 267.528C631.016 267.528 630.621 267.656 630.28 267.912C629.939 268.168 629.619 268.536 629.32 269.016V275H627.848V266.568H629.112L629.24 267.816C629.539 267.368 629.907 267.016 630.344 266.76C630.792 266.504 631.283 266.376 631.816 266.376ZM641.479 274.616C640.924 275 640.295 275.192 639.591 275.192C638.876 275.192 638.316 274.989 637.911 274.584C637.516 274.168 637.319 273.571 637.319 272.792V267.704H635.847V266.568H637.319V264.664L638.791 264.488V266.568H640.791L640.631 267.704H638.791V272.728C638.791 273.165 638.866 273.485 639.015 273.688C639.175 273.88 639.436 273.976 639.799 273.976C640.13 273.976 640.503 273.864 640.919 273.64L641.479 274.616ZM643.451 272.968C643.771 272.968 644.038 273.075 644.251 273.288C644.464 273.501 644.571 273.763 644.571 274.072C644.571 274.381 644.464 274.648 644.251 274.872C644.038 275.085 643.771 275.192 643.451 275.192C643.142 275.192 642.88 275.085 642.667 274.872C642.454 274.648 642.347 274.381 642.347 274.072C642.347 273.763 642.454 273.501 642.667 273.288C642.88 273.075 643.142 272.968 643.451 272.968Z"
    fill="#0A2750" />
  <path d="M518.25 250.25H554.75" stroke="#DE00A4" stroke-width="2" stroke-linecap="square"
    stroke-linejoin="bevel" />
  <path d="M537 210V250" stroke="#DE00A4" stroke-width="2" stroke-linecap="square"
    stroke-linejoin="bevel" />
  <rect x="521" y="178" width="32" height="32" rx="16" fill="#DE00A4" />
  <path
    d="M539.502 188.368V200.5H537V190.888L534.336 192.526L533.22 190.798L537.252 188.368H539.502Z"
    fill="white" />
</svg>
